<svg id="Layer_1" data-name="Layer 1" xmlns="http://www.w3.org/2000/svg" viewBox="0 0 128 128"><defs><style>.cls-1{opacity:0.5;}.cls-2{fill:#d8d8e5;}</style></defs><g class="cls-1"><path class="cls-2" d="M48.22,86.88a20.85,20.85,0,0,1-.94-2.53c-.18-.66-.38-1.61-.6-2.86q-6.82,6.7-15.51,6.71a16.05,16.05,0,0,1-6.55-1.34,16.33,16.33,0,0,1-5.28-3.69,15.92,15.92,0,0,1-3.46-5.68,21.33,21.33,0,0,1-1.21-7.39c0-3,.07-5.78.22-8.35s.25-5,.33-7.39.07-4.71,0-7.06-.26-4.86-.55-7.5H29.3c.22,2.4.34,4.72.38,7s0,4.43,0,6.62-.11,4.42-.22,6.69-.16,4.66-.16,7.21a11.89,11.89,0,0,0,.68,4.5,5.22,5.22,0,0,0,1.78,2.39,5.31,5.31,0,0,0,2.23.9,14.07,14.07,0,0,0,1.95.16,11.26,11.26,0,0,0,2.35-.42,7.68,7.68,0,0,0,3.32-2,13.44,13.44,0,0,0,2.92-4.67,22.19,22.19,0,0,0,1.27-8.27v-20H60.43v32a54.76,54.76,0,0,0,.66,8.35,26.88,26.88,0,0,0,1.76,6.74Z"/><path class="cls-2" d="M113.33,74.78a13.87,13.87,0,0,1-4.65,11Q104,89.85,95.57,89.85a55.15,55.15,0,0,1-11.16-1.1,32.73,32.73,0,0,1-8.81-3l1.87-11.22q9.57,4.95,16.72,5a4.77,4.77,0,0,0,3.47-1.05,3.22,3.22,0,0,0,1-2.36,4.24,4.24,0,0,0-.82-2.7,12.77,12.77,0,0,0-4-2.58,65.86,65.86,0,0,1-7.75-4,25.85,25.85,0,0,1-5.28-4.13,13.76,13.76,0,0,1-3-4.56,15.24,15.24,0,0,1-.94-5.5,12.44,12.44,0,0,1,5.32-10.73q5.33-3.8,13.9-3.79a43.15,43.15,0,0,1,8.19.71,38.17,38.17,0,0,1,8.22,2.81l-1.76,11.11a26.31,26.31,0,0,0-7.56-3A33.9,33.9,0,0,0,96,48.93c-1.7,0-2.87.31-3.5.93a3.35,3.35,0,0,0-1,2.48,3.63,3.63,0,0,0,1.51,3,31.4,31.4,0,0,0,5.86,3,67.58,67.58,0,0,1,6.68,3.8,23.35,23.35,0,0,1,4.5,3.73A11.73,11.73,0,0,1,112.59,70,14.46,14.46,0,0,1,113.33,74.78Z"/></g></svg>