<svg id="Layer_1" data-name="Layer 1" xmlns="http://www.w3.org/2000/svg" viewBox="0 0 150 128"><defs><style>.cls-1{fill:#d8d8e5;}</style></defs><path class="cls-1" d="M40.07,88.2A17.67,17.67,0,0,0,40,86.33c-.07-.59-.13-1.28-.17-2.09s-.1-1.65-.17-2.53a17.36,17.36,0,0,1-7.17,5.66,23,23,0,0,1-9.37,1.93Q14,89.3,9,83.36T4,66.42q0-13.31,8.08-20.51t23-7.21c1.63,0,3.12,0,4.46.11s2.68.2,4,.39,2.71.42,4.12.71,3,.7,4.69,1.21V72.36c0,1.69,0,3.46.11,5.34s.18,3.57.33,5.11c.14,1.83.29,3.63.44,5.39Zm-2.3-35.86a22.66,22.66,0,0,0-3.47-.55c-1-.07-2-.11-2.91-.11q-6.06,0-9.41,3.9T18.63,66.42q0,4.62,2,7a7,7,0,0,0,5.71,2.42,10.1,10.1,0,0,0,4.42-1,11,11,0,0,0,3.64-2.81,13.63,13.63,0,0,0,2.46-4.28,16.25,16.25,0,0,0,.9-5.56Z"/><path class="cls-1" d="M131.37,88.2V64.27c0-4.31-.62-7.31-1.85-9a6,6,0,0,0-5-2.51,7.61,7.61,0,0,0-3.28.78,8.57,8.57,0,0,0-3,2.56A13.89,13.89,0,0,0,116,60.93a29.59,29.59,0,0,0-.82,7.52V88.2H100.57V64.27c0-4-.56-6.88-1.7-8.72s-3-2.77-5.67-2.77S88.55,54,86.71,56.49,84,63,84,68.45V88.2H69.33V57.81c0-1.78,0-3.4-.11-4.85s-.2-2.83-.38-4.11a32,32,0,0,0-.77-3.73c-.33-1.21-.72-2.49-1.16-3.84H81.54c.37,1.14.65,2,.83,2.56s.38,1.39.6,2.45a33.88,33.88,0,0,1,7.62-4.68,24.83,24.83,0,0,1,10-1.81,17.1,17.1,0,0,1,7.5,1.59,11.14,11.14,0,0,1,5,4.44,16.41,16.41,0,0,1,7.37-4.49,30.37,30.37,0,0,1,9.47-1.54q7.69,0,11.88,4.38T146,56.89V88.2Z"/></svg>