<svg id="Layer_1" data-name="Layer 1" xmlns="http://www.w3.org/2000/svg" viewBox="0 0 140 128"><defs><style>.cls-1{fill:#12124c;}</style></defs><path class="cls-1" d="M37.44,82.26a18.7,18.7,0,0,1-3.71,7.82,13.42,13.42,0,0,1-6.45,4.11,33.18,33.18,0,0,1-9.4,1.17,27.34,27.34,0,0,1-5.46-.55A58.33,58.33,0,0,1,6.7,93.33V84.84c1.87.15,3.65.27,5.33.36s3.33.13,5,.13a12.1,12.1,0,0,0,4.57-.78A7,7,0,0,0,24.73,82a12.42,12.42,0,0,0,1.79-4.72A39.67,39.67,0,0,0,27.08,70V65.45A14.59,14.59,0,0,1,16.45,70a12.43,12.43,0,0,1-4.89-1,11.44,11.44,0,0,1-4-2.87,14.19,14.19,0,0,1-2.72-4.49,16.22,16.22,0,0,1-1-5.94c0-2,0-3.91.08-5.73S4,46.35,4,44.52s0-3.71,0-5.65-.12-4-.29-6.23h11.3q.26,3.38.3,6.26c0,1.92,0,3.74,0,5.44s-.06,3.34-.09,4.91,0,3.12,0,4.66q0,3.21,1.26,4.65A4.53,4.53,0,0,0,20,60a6.87,6.87,0,0,0,5.21-2.35,8.93,8.93,0,0,0,2.17-6.31V32.64H38.64V70A52.35,52.35,0,0,1,37.44,82.26Z"/><path class="cls-1" d="M88.79,51.22a21.49,21.49,0,0,1-1.4,8,16,16,0,0,1-4,5.89,17,17,0,0,1-6.18,3.64,26.39,26.39,0,0,1-16,0,17,17,0,0,1-6.18-3.64,16.5,16.5,0,0,1-4-5.89,20.9,20.9,0,0,1-1.44-8A20.74,20.74,0,0,1,51,43.37a16,16,0,0,1,10.11-9.49,27.24,27.24,0,0,1,16.12,0,16.88,16.88,0,0,1,6.18,3.56,15.8,15.8,0,0,1,4,5.85A21.3,21.3,0,0,1,88.79,51.22Zm-11.31,0a7.85,7.85,0,0,0-8.42-8.56A7.88,7.88,0,0,0,63,44.92a8.88,8.88,0,0,0-2.1,6.3A9.37,9.37,0,0,0,63,57.72,7.79,7.79,0,0,0,69.06,60a8.31,8.31,0,0,0,6.23-2.26Q77.48,55.5,77.48,51.22Z"/><path class="cls-1" d="M125.08,69a15.68,15.68,0,0,1-.72-2,22.5,22.5,0,0,1-.47-2.21,16.63,16.63,0,0,1-12,5.18,12.3,12.3,0,0,1-5.05-1,12.72,12.72,0,0,1-4.08-2.85,12.3,12.3,0,0,1-2.68-4.39,16.4,16.4,0,0,1-.94-5.71q0-3.48.17-6.45c.12-2,.2-3.89.26-5.71s0-3.64,0-5.46-.2-3.75-.43-5.79h11.31c.17,1.85.27,3.64.3,5.36s0,3.43,0,5.12-.09,3.42-.17,5.17-.13,3.6-.13,5.57a9.35,9.35,0,0,0,.53,3.48,3.81,3.81,0,0,0,3.1,2.54,10.12,10.12,0,0,0,1.5.13,8.57,8.57,0,0,0,1.82-.33A6,6,0,0,0,120,58.12a10.47,10.47,0,0,0,2.25-3.61,17.14,17.14,0,0,0,1-6.39V32.64h11.3V57.36a42.4,42.4,0,0,0,.51,6.45,21.15,21.15,0,0,0,1.36,5.2Z"/></svg>