<svg id="Layer_1" data-name="Layer 1" xmlns="http://www.w3.org/2000/svg" viewBox="0 0 128 128"><defs><style>.cls-1{fill:#12124c;}</style></defs><path class="cls-1" d="M36.67,87.42V58.09H29.19V50h7.48V40.58H47.81V50h9.6v8.07h-9.6V87.42Z"/><path class="cls-1" d="M98.81,68.6a21.58,21.58,0,0,1-1.4,8.05,16.08,16.08,0,0,1-4,5.88,17.2,17.2,0,0,1-6.18,3.65,26.39,26.39,0,0,1-16,0,17.2,17.2,0,0,1-6.18-3.65,16.55,16.55,0,0,1-4-5.88,21,21,0,0,1-1.44-8.05A20.74,20.74,0,0,1,61,60.75,16.4,16.4,0,0,1,65,54.9a16.85,16.85,0,0,1,6.18-3.64,27.24,27.24,0,0,1,16.12,0,17,17,0,0,1,6.18,3.56,15.8,15.8,0,0,1,4,5.85A21.3,21.3,0,0,1,98.81,68.6Zm-11.31,0a8.45,8.45,0,0,0-2.28-6.3,8.36,8.36,0,0,0-6.14-2.25,7.89,7.89,0,0,0-6,2.25,8.88,8.88,0,0,0-2.1,6.3A9.36,9.36,0,0,0,73,75.1q2.06,2.3,6.09,2.29a8.3,8.3,0,0,0,6.23-2.25Q87.5,72.89,87.5,68.6Z"/></svg>