<svg id="Layer_1" data-name="Layer 1" xmlns="http://www.w3.org/2000/svg" viewBox="0 0 160 128"><defs><style>.cls-1{fill:#02023a;}</style></defs><path class="cls-1" d="M13.67,100.85V62.9H4V52.45h9.68V40.24H28.08V52.45H40.51V62.9H28.08v37.95Z"/><path class="cls-1" d="M72.41,100.85V73.49a14.66,14.66,0,0,0-.5-4.24,5.68,5.68,0,0,0-1.41-2.44,4.27,4.27,0,0,0-2-1.11,10.1,10.1,0,0,0-2.36-.27,6.69,6.69,0,0,0-3.65,1.11,11.23,11.23,0,0,0-3.09,3,16.54,16.54,0,0,0-2.19,4.5,17.71,17.71,0,0,0-.84,5.46v21.32H41.72V25.5H56.24V58a17,17,0,0,1,6.07-4.24,20.32,20.32,0,0,1,7.38-1.26,23.65,23.65,0,0,1,6.34.86A15.91,15.91,0,0,1,81.56,56a13.73,13.73,0,0,1,4,5A17.21,17.21,0,0,1,87,68.62v32.23Z"/><path class="cls-1" d="M114.1,39.16a6,6,0,0,1-2.53,4.9,10.2,10.2,0,0,1-12.21,0A6.59,6.59,0,0,1,96.72,39a6,6,0,0,1,2.42-5,10.5,10.5,0,0,1,9.62-1.49A8.54,8.54,0,0,1,111.51,34a7.69,7.69,0,0,1,1.87,2.33A6,6,0,0,1,114.1,39.16ZM97.6,100.85V52.45h14.63v48.4Z"/><path class="cls-1" d="M156,87.43a13.88,13.88,0,0,1-4.66,11q-4.66,4.06-13.11,4.07a55.15,55.15,0,0,1-11.16-1.1,32.65,32.65,0,0,1-8.8-3l1.87-11.22q9.57,5,16.72,5a4.74,4.74,0,0,0,3.46-1,3.23,3.23,0,0,0,1-2.36,4.24,4.24,0,0,0-.83-2.7,12.81,12.81,0,0,0-4-2.58,66.06,66.06,0,0,1-7.76-4,25.85,25.85,0,0,1-5.28-4.13,14.08,14.08,0,0,1-3-4.56,15.25,15.25,0,0,1-.93-5.5,12.41,12.41,0,0,1,5.32-10.73q5.31-3.8,13.89-3.79a43.34,43.34,0,0,1,8.2.71,38.1,38.1,0,0,1,8.21,2.81l-1.76,11.11a26.31,26.31,0,0,0-7.56-3,33.88,33.88,0,0,0-7.22-.82q-2.56,0-3.51.93a3.34,3.34,0,0,0-.94,2.48,3.61,3.61,0,0,0,1.51,3,31.07,31.07,0,0,0,5.86,3,69.5,69.5,0,0,1,6.67,3.79,23.77,23.77,0,0,1,4.51,3.74,12,12,0,0,1,2.49,4.07A14.72,14.72,0,0,1,156,87.43Z"/></svg>