<svg id="Layer_1" data-name="Layer 1" xmlns="http://www.w3.org/2000/svg" viewBox="0 0 128 128"><path d="M29.66,93.11a14,14,0,0,0-.09-1.44c-.06-.45-.11-1-.14-1.62s-.07-1.27-.13-2a13.55,13.55,0,0,1-5.54,4.38A17.9,17.9,0,0,1,16.52,94q-7,0-10.86-4.59T1.78,76.28Q1.78,66,8,60.43t17.79-5.57q1.91,0,3.45.09c1,.06,2.07.15,3.1.3s2.1.32,3.19.55,2.3.54,3.62.93V80.87c0,1.31,0,2.68.09,4.13s.14,2.76.25,4c.11,1.41.23,2.8.34,4.16ZM27.88,65.4A17.41,17.41,0,0,0,25.19,65c-.8-.06-1.55-.09-2.24-.09a9.07,9.07,0,0,0-7.27,3q-2.6,3-2.59,8.37a8.28,8.28,0,0,0,1.55,5.44,5.41,5.41,0,0,0,4.41,1.87,7.84,7.84,0,0,0,3.42-.76,8.51,8.51,0,0,0,2.81-2.17,10.35,10.35,0,0,0,1.9-3.31,12.39,12.39,0,0,0,.7-4.3Z"/><path d="M69.86,93.11V71.89a8.6,8.6,0,0,0-.55-3.44A4.82,4.82,0,0,0,68,66.6a3.26,3.26,0,0,0-1.61-.73,9.41,9.41,0,0,0-1.44-.13,8.5,8.5,0,0,0-1.79.33,6.17,6.17,0,0,0-2.59,1.56,10.58,10.58,0,0,0-2.34,3.6,16.56,16.56,0,0,0-1,6.4V93.11H45.9V68.39a42.4,42.4,0,0,0-.51-6.45A20.88,20.88,0,0,0,44,56.73H55.33a16.33,16.33,0,0,1,.72,2c.14.51.3,1.25.47,2.21A17.65,17.65,0,0,1,62.35,57a16.84,16.84,0,0,1,6.33-1.28,12.17,12.17,0,0,1,4.95,1,11.66,11.66,0,0,1,4,2.77,12.78,12.78,0,0,1,2.62,4.38,16.83,16.83,0,0,1,1,5.84V93.11Z"/><path d="M116.54,93.11c-.06-.34-.12-.73-.18-1.19s-.12-.85-.18-1.36-.12-1.13-.17-1.87a15.48,15.48,0,0,1-5.63,4.21,17.51,17.51,0,0,1-6.73,1.23,16.72,16.72,0,0,1-6.77-1.32,14.8,14.8,0,0,1-5.16-3.65,16.56,16.56,0,0,1-3.32-5.65,21.63,21.63,0,0,1-1.2-7.4,25.15,25.15,0,0,1,1.41-8.58,20.41,20.41,0,0,1,3.91-6.76,17.47,17.47,0,0,1,6-4.42,18.33,18.33,0,0,1,7.65-1.57,26.49,26.49,0,0,1,3.74.25,21.51,21.51,0,0,1,4.16,1.11V33.87h11.31V80.19c0,1,0,2.18.13,3.66s.18,2.89.29,4.25c.12,1.59.26,3.26.43,5Zm-2.48-27.28a11.77,11.77,0,0,0-3.13-.85,25,25,0,0,0-3.05-.17A8.57,8.57,0,0,0,101,67.74q-2.52,2.92-2.52,8a8.73,8.73,0,0,0,1.77,5.83,6,6,0,0,0,4.86,2.08,10.08,10.08,0,0,0,3.49-.6,6.45,6.45,0,0,0,2.83-2,11,11,0,0,0,1.9-3.78,20.49,20.49,0,0,0,.7-5.82Z"/></svg>