<svg id="Layer_1" data-name="Layer 1" xmlns="http://www.w3.org/2000/svg" viewBox="0 0 128 128"><defs><style>.cls-1{opacity:0.5;}</style></defs><g class="cls-1"><path d="M31.74,92.47V71.33a11.14,11.14,0,0,0-.39-3.27,4.4,4.4,0,0,0-1.08-1.89,3.46,3.46,0,0,0-1.56-.86,7.78,7.78,0,0,0-1.83-.21,5.2,5.2,0,0,0-2.82.86,8.8,8.8,0,0,0-2.38,2.34A13,13,0,0,0,20,71.78,13.74,13.74,0,0,0,19.33,76V92.47H8V34.25H19.25V59.32a13,13,0,0,1,4.69-3.27,15.7,15.7,0,0,1,5.7-1,18.28,18.28,0,0,1,4.9.67,12.33,12.33,0,0,1,4.28,2.11,10.6,10.6,0,0,1,3,3.84,13.2,13.2,0,0,1,1.18,5.88v24.9Z"/><path d="M77,92.47A14.14,14.14,0,0,0,76.87,91c-.06-.45-.11-1-.14-1.61s-.07-1.28-.13-2a13.38,13.38,0,0,1-5.54,4.38,17.9,17.9,0,0,1-7.24,1.48q-7,0-10.86-4.59T49.08,75.64q0-10.27,6.25-15.85t17.8-5.57c1.26,0,2.41,0,3.44.09s2.07.16,3.1.3,2.1.32,3.19.55,2.3.54,3.62.93V80.23c0,1.31,0,2.68.09,4.13s.14,2.76.25,4c.12,1.42.23,2.8.34,4.16ZM75.18,64.76a18.8,18.8,0,0,0-2.68-.42q-1.22-.09-2.25-.09a9.07,9.07,0,0,0-7.27,3q-2.59,3-2.59,8.37a8.34,8.34,0,0,0,1.55,5.44A5.42,5.42,0,0,0,66.35,83a7.82,7.82,0,0,0,3.42-.77A8.51,8.51,0,0,0,72.58,80a10.56,10.56,0,0,0,1.91-3.31,12.62,12.62,0,0,0,.69-4.29Z"/><path d="M120,82.1a10.7,10.7,0,0,1-3.6,8.5q-3.6,3.15-10.13,3.15a42.15,42.15,0,0,1-8.62-.85,25.23,25.23,0,0,1-6.8-2.3l1.44-8.67q7.39,3.82,12.92,3.83a3.69,3.69,0,0,0,2.68-.81,2.52,2.52,0,0,0,.81-1.82A3.3,3.3,0,0,0,108,81a9.89,9.89,0,0,0-3.1-2,50.27,50.27,0,0,1-6-3.06,20.08,20.08,0,0,1-4.08-3.18,10.74,10.74,0,0,1-2.29-3.53A11.76,11.76,0,0,1,91.84,65,9.59,9.59,0,0,1,96,56.73q4.11-2.92,10.73-2.93a32.8,32.8,0,0,1,6.33.55,29.22,29.22,0,0,1,6.36,2.17L118,65.1a20.14,20.14,0,0,0-5.85-2.33,25.91,25.91,0,0,0-5.58-.64,3.88,3.88,0,0,0-2.71.72,2.55,2.55,0,0,0-.73,1.91,2.79,2.79,0,0,0,1.17,2.34,23.35,23.35,0,0,0,4.53,2.34A53.6,53.6,0,0,1,114,72.37a18.64,18.64,0,0,1,3.47,2.89,9.07,9.07,0,0,1,1.93,3.15A11.25,11.25,0,0,1,120,82.1Z"/></g></svg>