<svg id="Layer_1" data-name="Layer 1" xmlns="http://www.w3.org/2000/svg" viewBox="0 0 128 128"><defs><style>.cls-1{opacity:0.5;}.cls-2{fill:#d8d8e5;}</style></defs><g class="cls-1"><path class="cls-2" d="M59.38,63.85a27.69,27.69,0,0,1-1.81,10.41,20.79,20.79,0,0,1-5.14,7.62,22.28,22.28,0,0,1-8,4.71A31.31,31.31,0,0,1,34.08,88.2a31.31,31.31,0,0,1-10.35-1.61,22.28,22.28,0,0,1-8-4.71,21.43,21.43,0,0,1-5.2-7.62A27.09,27.09,0,0,1,8.67,63.85a26.72,26.72,0,0,1,1.81-10.16,21.2,21.2,0,0,1,5.09-7.57,21.62,21.62,0,0,1,8-4.71A32.43,32.43,0,0,1,34.08,39.8a32.41,32.41,0,0,1,10.35,1.56,21.94,21.94,0,0,1,8,4.61,20.39,20.39,0,0,1,5.14,7.56A27.5,27.5,0,0,1,59.38,63.85Zm-14.63,0q0-5.24-3-8.15a10.79,10.79,0,0,0-7.94-2.92q-5.12,0-7.84,2.92T23.3,63.85q0,5.45,2.67,8.41t7.89,3c3.47,0,6.16-1,8-2.91S44.75,67.55,44.75,63.85Z"/><path class="cls-2" d="M104.7,88.2V60.73a11.08,11.08,0,0,0-.72-4.45,6.25,6.25,0,0,0-1.7-2.39,4.34,4.34,0,0,0-2.09-1,12.83,12.83,0,0,0-1.87-.16,10.67,10.67,0,0,0-2.31.43,7.94,7.94,0,0,0-3.36,2,13.81,13.81,0,0,0-3,4.67,21.33,21.33,0,0,0-1.32,8.27v20H73.68v-32A54.76,54.76,0,0,0,73,47.86a27.32,27.32,0,0,0-1.76-6.74H85.89a20.53,20.53,0,0,1,.93,2.53c.19.66.39,1.61.61,2.86A22.91,22.91,0,0,1,95,41.45a21.77,21.77,0,0,1,8.19-1.65,15.94,15.94,0,0,1,6.42,1.29,15.27,15.27,0,0,1,5.12,3.58,16.74,16.74,0,0,1,3.39,5.68,21.9,21.9,0,0,1,1.24,7.55V88.2Z"/></g></svg>