<svg id="Layer_1" data-name="Layer 1" xmlns="http://www.w3.org/2000/svg" viewBox="0 0 160 128"><defs><style>.cls-1{fill:#12124c;}</style></defs><path class="cls-1" d="M14.44,101V63H4.76V52.56h9.68V40.35H28.85V52.56H41.28V63H28.85V101Z"/><path class="cls-1" d="M80.88,101V73.6a14.66,14.66,0,0,0-.5-4.24A5.68,5.68,0,0,0,79,66.92a4.27,4.27,0,0,0-2-1.11,10.1,10.1,0,0,0-2.36-.27,6.69,6.69,0,0,0-3.65,1.11,11.38,11.38,0,0,0-3.09,3,16.54,16.54,0,0,0-2.19,4.5,17.71,17.71,0,0,0-.84,5.46V101H50.19V25.61H64.71V58.06a16.83,16.83,0,0,1,6.07-4.23,20.11,20.11,0,0,1,7.38-1.27,23.65,23.65,0,0,1,6.34.86A15.91,15.91,0,0,1,90,56.15a13.73,13.73,0,0,1,4,5,17.21,17.21,0,0,1,1.52,7.6V101Z"/><path class="cls-1" d="M155.24,65.87a12.42,12.42,0,0,1-2,6.82,16.46,16.46,0,0,1-5.52,5.23,30.77,30.77,0,0,1-8.56,3.35A47.7,47.7,0,0,1,128,82.48q-.57,0-1.32-.06c-.5,0-1.09,0-1.78,0a10.12,10.12,0,0,0,3.3,6.55,10.48,10.48,0,0,0,7.12,2.36q7.63,0,16.2-5V97.88a31.46,31.46,0,0,1-8,3.46,33.18,33.18,0,0,1-8.63,1,28.51,28.51,0,0,1-10-1.65A20.32,20.32,0,0,1,117.4,96a21.39,21.39,0,0,1-4.73-7.49A27.51,27.51,0,0,1,111,78.63a30.59,30.59,0,0,1,1.92-11,25.81,25.81,0,0,1,5.39-8.64,23.76,23.76,0,0,1,8.31-5.61,27.92,27.92,0,0,1,10.67-2q8.13,0,13,4A12.88,12.88,0,0,1,155.24,65.87ZM140.61,67a3.81,3.81,0,0,0-1.51-3,5.68,5.68,0,0,0-3.8-1.27A8.67,8.67,0,0,0,129,65.27a12.24,12.24,0,0,0-3.38,7.09,9,9,0,0,0,1.75.22H129Q140.61,72.58,140.61,67Z"/></svg>