<svg id="Layer_1" data-name="Layer 1" xmlns="http://www.w3.org/2000/svg" viewBox="0 0 128 128"><defs><style>.cls-1{fill:#d8d8e5;}</style></defs><path class="cls-1" d="M50.09,36.8a6.07,6.07,0,0,1-2.53,4.9,9.44,9.44,0,0,1-6.05,2,9.44,9.44,0,0,1-6.16-2.05,6.58,6.58,0,0,1-2.64-5,5.94,5.94,0,0,1,2.42-5,10.56,10.56,0,0,1,9.62-1.5,8.73,8.73,0,0,1,2.75,1.54A7.86,7.86,0,0,1,49.37,34,6,6,0,0,1,50.09,36.8ZM33.59,98.48V50.08H48.22v48.4Z"/><path class="cls-1" d="M68.46,98.48V60.53H58.78V50.08h9.68V37.87H82.87V50.08H95.3V60.53H82.87v38Z"/></svg>