<svg id="Layer_1" data-name="Layer 1" xmlns="http://www.w3.org/2000/svg" viewBox="0 0 128 128"><path d="M61,71.61a39.25,39.25,0,0,1-1.44,11.51,20,20,0,0,1-3.9,7.44,14.21,14.21,0,0,1-5.85,4,21.48,21.48,0,0,1-7.38,1.23,61.6,61.6,0,0,1-7.59-.47,27.48,27.48,0,0,1-7.15-1.82V85a46.35,46.35,0,0,0,6.51,1.83,28.68,28.68,0,0,0,5.47.64,9.69,9.69,0,0,0,4.07-.85,8.1,8.1,0,0,0,3.17-2.72A14.16,14.16,0,0,0,49,78.92a32.17,32.17,0,0,0,.73-7.4V67.78a12.9,12.9,0,0,1-4.84,2.85,19.56,19.56,0,0,1-5.27.64A16.64,16.64,0,0,1,33,70a14.35,14.35,0,0,1-5.06-3.57,15.92,15.92,0,0,1-3.23-5.57,21.68,21.68,0,0,1-1.15-7.26,21.54,21.54,0,0,1,1.77-8.89,18.83,18.83,0,0,1,5-6.75,22.65,22.65,0,0,1,7.93-4.3,34.48,34.48,0,0,1,10.51-1.48c1.21,0,2.27,0,3.19,0s1.82.1,2.71.21,1.84.27,2.85.47,2.16.47,3.49.81ZM49.72,43.22c-1-.17-1.74-.28-2.23-.34a17.15,17.15,0,0,0-2-.09,10.73,10.73,0,0,0-7.83,2.77,10.08,10.08,0,0,0-2.84,7.6,7.2,7.2,0,0,0,1.88,5.36,6.39,6.39,0,0,0,4.68,1.87,14.07,14.07,0,0,0,3.06-.34,5.5,5.5,0,0,0,2.67-1.53A8.34,8.34,0,0,0,49,55.07a21,21,0,0,0,.7-6.07Z"/><path d="M104.46,51.6a21.58,21.58,0,0,1-1.4,8,16.06,16.06,0,0,1-4,5.88,17.29,17.29,0,0,1-6.18,3.65,26.43,26.43,0,0,1-16,0,17.2,17.2,0,0,1-6.18-3.65,16.55,16.55,0,0,1-4-5.88,21,21,0,0,1-1.44-8,20.77,20.77,0,0,1,1.4-7.85,16.29,16.29,0,0,1,3.94-5.85,16.73,16.73,0,0,1,6.17-3.64,27.27,27.27,0,0,1,16.13,0,17.11,17.11,0,0,1,6.18,3.56,15.78,15.78,0,0,1,4,5.85A21.3,21.3,0,0,1,104.46,51.6Zm-11.31,0a8.45,8.45,0,0,0-2.28-6.3,8.34,8.34,0,0,0-6.13-2.25,7.86,7.86,0,0,0-6,2.25,8.84,8.84,0,0,0-2.11,6.3,9.41,9.41,0,0,0,2.06,6.5c1.37,1.53,3.41,2.29,6.1,2.29A8.29,8.29,0,0,0,91,58.14Q93.15,55.89,93.15,51.6Z"/></svg>