<svg id="Layer_1" data-name="Layer 1" xmlns="http://www.w3.org/2000/svg" viewBox="0 0 128 128"><path d="M12.75,92.47V63.15H5.27V55.07h7.48V45.64H23.88v9.43h9.61v8.08H23.88V92.47Z"/><path d="M58.14,92.47V71.33a10.77,10.77,0,0,0-.4-3.27,4.4,4.4,0,0,0-1.08-1.89,3.36,3.36,0,0,0-1.56-.86,7.75,7.75,0,0,0-1.82-.21,5.21,5.21,0,0,0-2.83.86,8.8,8.8,0,0,0-2.38,2.34,12.66,12.66,0,0,0-1.69,3.48A13.45,13.45,0,0,0,45.73,76V92.47H34.42V34.25H45.64V59.32a13,13,0,0,1,4.69-3.27,15.7,15.7,0,0,1,5.7-1,18.41,18.41,0,0,1,4.91.67,12.29,12.29,0,0,1,4.27,2.11,10.72,10.72,0,0,1,3.06,3.84,13.34,13.34,0,0,1,1.17,5.88v24.9Z"/><path d="M90.35,44.81a4.65,4.65,0,0,1-2,3.78,7.89,7.89,0,0,1-9.43,0,5.1,5.1,0,0,1-2-3.9,4.57,4.57,0,0,1,1.87-3.89,8.13,8.13,0,0,1,7.44-1.16,6.71,6.71,0,0,1,2.12,1.19,6.07,6.07,0,0,1,1.45,1.81A4.72,4.72,0,0,1,90.35,44.81ZM77.6,92.47V55.07H88.9v37.4Z"/><path d="M122.73,82.1a10.7,10.7,0,0,1-3.6,8.5q-3.6,3.15-10.13,3.15a42.22,42.22,0,0,1-8.62-.85,25.35,25.35,0,0,1-6.8-2.3L95,81.93q7.4,3.82,12.92,3.83a3.69,3.69,0,0,0,2.68-.81,2.52,2.52,0,0,0,.81-1.82,3.24,3.24,0,0,0-.64-2.09,9.76,9.76,0,0,0-3.1-2,50.07,50.07,0,0,1-6-3.06,19.54,19.54,0,0,1-4.08-3.18,10.77,10.77,0,0,1-2.3-3.53A11.76,11.76,0,0,1,94.6,65a9.59,9.59,0,0,1,4.11-8.29q4.11-2.92,10.73-2.93a33,33,0,0,1,6.34.55,29.16,29.16,0,0,1,6.35,2.17l-1.36,8.58a20.14,20.14,0,0,0-5.85-2.33,25.84,25.84,0,0,0-5.58-.64,3.88,3.88,0,0,0-2.71.72,2.59,2.59,0,0,0-.73,1.91,2.79,2.79,0,0,0,1.17,2.34,23.67,23.67,0,0,0,4.53,2.34,53.6,53.6,0,0,1,5.16,2.93,18.4,18.4,0,0,1,3.48,2.89,9,9,0,0,1,1.92,3.15A11.25,11.25,0,0,1,122.73,82.1Z"/></svg>