<svg id="Layer_1" data-name="Layer 1" xmlns="http://www.w3.org/2000/svg" viewBox="0 0 128 128"><defs><style>.cls-1{opacity:0.5;}.cls-2{fill:#d8d8e5;}</style></defs><g class="cls-1"><path class="cls-2" d="M44.85,88.2c0-.51,0-1.14-.11-1.87s-.14-1.28-.18-2.09-.09-1.65-.17-2.53a17.32,17.32,0,0,1-7.16,5.66,23.08,23.08,0,0,1-9.37,1.93q-9,0-14.06-5.94t-5-16.94q0-13.31,8.09-20.51t23-7.21c1.63,0,3.12,0,4.46.11s2.67.2,4,.39,2.71.42,4.13.71,3,.7,4.68,1.21V72.36c0,1.69,0,3.46.11,5.34s.18,3.57.33,5.11c.15,1.83.29,3.63.44,5.39Zm-2.3-35.86a22.47,22.47,0,0,0-3.47-.55c-1-.07-2-.11-2.91-.11q-6,0-9.4,3.9T23.41,66.42q0,4.62,2,7a7,7,0,0,0,5.7,2.42,10.18,10.18,0,0,0,4.43-1,10.91,10.91,0,0,0,3.63-2.81,13.46,13.46,0,0,0,2.47-4.28,16.5,16.5,0,0,0,.89-5.56Z"/><path class="cls-2" d="M104.59,88.2V60.73a11.08,11.08,0,0,0-.72-4.45,6.25,6.25,0,0,0-1.7-2.39,4.34,4.34,0,0,0-2.09-1,12.83,12.83,0,0,0-1.87-.16,11.12,11.12,0,0,0-2.31.42,8.08,8.08,0,0,0-3.36,2,13.81,13.81,0,0,0-3,4.67,21.33,21.33,0,0,0-1.32,8.27v20H73.57v-32a54.76,54.76,0,0,0-.66-8.35,27.32,27.32,0,0,0-1.76-6.74H85.78a20.53,20.53,0,0,1,.93,2.53c.19.66.39,1.61.61,2.86a22.91,22.91,0,0,1,7.54-5.06,21.77,21.77,0,0,1,8.19-1.65,15.94,15.94,0,0,1,6.42,1.29,15.27,15.27,0,0,1,5.12,3.58A16.74,16.74,0,0,1,118,50.35a21.66,21.66,0,0,1,1.24,7.55V88.2Z"/></g></svg>