<svg id="Layer_1" data-name="Layer 1" xmlns="http://www.w3.org/2000/svg" viewBox="0 0 128 128"><defs><style>.cls-1{fill:#d8d8e5;}</style></defs><path class="cls-1" d="M41.67,70.49A20.53,20.53,0,0,1,40.74,68c-.19-.66-.39-1.61-.61-2.86q-6.83,6.7-15.51,6.71a16,16,0,0,1-6.54-1.34,16.33,16.33,0,0,1-5.28-3.69A15.94,15.94,0,0,1,9.33,61.1a21.33,21.33,0,0,1-1.21-7.39c0-3,.07-5.78.22-8.35s.26-5,.33-7.39.07-4.71,0-7.06-.26-4.86-.55-7.5H22.75q.33,3.6.39,7t0,6.62c0,2.2-.11,4.42-.22,6.69s-.17,4.66-.17,7.21a11.87,11.87,0,0,0,.69,4.5,5.28,5.28,0,0,0,1.77,2.39,5.4,5.4,0,0,0,2.24.9,13.84,13.84,0,0,0,1.95.16,11.37,11.37,0,0,0,2.35-.42,7.79,7.79,0,0,0,3.32-2A13.63,13.63,0,0,0,38,51.73a22.3,22.3,0,0,0,1.26-8.28v-20H53.88v32a54.76,54.76,0,0,0,.66,8.35,27.32,27.32,0,0,0,1.76,6.74Z"/><path class="cls-1" d="M119.88,44.76a36.9,36.9,0,0,1-1.54,11A26.44,26.44,0,0,1,114,64.31a19.91,19.91,0,0,1-6.68,5.55,18.67,18.67,0,0,1-8.53,2A18.37,18.37,0,0,1,93,71.05a17,17,0,0,1-4.93-2.84v36.38H72.69V37.92c0-.8-.06-1.73-.17-2.81s-.25-2.22-.44-3.41-.4-2.37-.66-3.56a23.85,23.85,0,0,0-.93-3.3H85.4A11.63,11.63,0,0,1,86.2,27a26.54,26.54,0,0,1,.46,3A23.49,23.49,0,0,1,93.29,25a17.46,17.46,0,0,1,7.59-1.54,19.18,19.18,0,0,1,7.75,1.53,17.2,17.2,0,0,1,6,4.34A19.82,19.82,0,0,1,118.5,36,26.36,26.36,0,0,1,119.88,44.76ZM105.25,47.2q0-4.55-2.19-7.07a7.55,7.55,0,0,0-6-2.53,8.67,8.67,0,0,0-7.1,3.23q-2.61,3.24-2.61,8.7V55.9a11.64,11.64,0,0,0,7.79,2.93,9.42,9.42,0,0,0,7.42-3.08C104.34,53.69,105.25,50.85,105.25,47.2Z"/></svg>