<svg id="Layer_1" data-name="Layer 1" xmlns="http://www.w3.org/2000/svg" viewBox="0 0 128 128"><defs><style>.cls-1{fill:#12124c;}</style></defs><path class="cls-1" d="M28.63,94.31v-38H19V45.9h9.67V33.69H43V45.9H55.47V56.35H43v38Z"/><path class="cls-1" d="M109,70a28,28,0,0,1-1.8,10.42A20.86,20.86,0,0,1,102.09,88a22.07,22.07,0,0,1-8,4.72,34.07,34.07,0,0,1-20.7,0,22.12,22.12,0,0,1-8-4.72,21.35,21.35,0,0,1-5.2-7.61A27.17,27.17,0,0,1,58.33,70a27,27,0,0,1,1.81-10.16,21.29,21.29,0,0,1,5.09-7.56,21.5,21.5,0,0,1,8-4.72,35.11,35.11,0,0,1,20.86,0,22,22,0,0,1,8,4.61,20.37,20.37,0,0,1,5.15,7.57A27.61,27.61,0,0,1,109,70ZM94.42,70q0-5.25-3-8.16a10.8,10.8,0,0,0-7.94-2.91q-5.11,0-7.83,2.91T73,70q0,5.45,2.67,8.4c1.78,2,4.41,3,7.89,3s6.16-1,8.06-2.91S94.42,73.65,94.42,70Z"/></svg>