<svg id="Layer_1" data-name="Layer 1" xmlns="http://www.w3.org/2000/svg" viewBox="0 0 128 128"><defs><style>.cls-1{fill:#d8d8e5;}</style></defs><path class="cls-1" d="M42.39,36.8a6.07,6.07,0,0,1-2.53,4.9,9.45,9.45,0,0,1-6,2,9.45,9.45,0,0,1-6.16-2.06,6.58,6.58,0,0,1-2.64-5,5.94,5.94,0,0,1,2.42-5,9.78,9.78,0,0,1,6.38-2.06,9.54,9.54,0,0,1,3.24.57,8.35,8.35,0,0,1,2.75,1.54A7.69,7.69,0,0,1,41.67,34,6,6,0,0,1,42.39,36.8ZM25.89,98.49V50.09H40.52v48.4Z"/><path class="cls-1" d="M88.37,98.49V71a11.05,11.05,0,0,0-.72-4.45A6.36,6.36,0,0,0,86,64.18a4.36,4.36,0,0,0-2.09-1A14.32,14.32,0,0,0,82,63.07a11.12,11.12,0,0,0-2.31.42,8,8,0,0,0-3.36,2,13.61,13.61,0,0,0-3,4.66A21.36,21.36,0,0,0,72,78.44v20H57.35v-32a54.63,54.63,0,0,0-.66-8.34,27.19,27.19,0,0,0-1.76-6.74H69.56a20,20,0,0,1,.93,2.53c.18.65.39,1.61.61,2.86a22.65,22.65,0,0,1,7.54-5.06,21.77,21.77,0,0,1,8.19-1.65,15.85,15.85,0,0,1,6.41,1.28A15.1,15.1,0,0,1,98.36,55a16.55,16.55,0,0,1,3.4,5.67A21.94,21.94,0,0,1,103,68.18V98.49Z"/></svg>