<svg id="Layer_1" data-name="Layer 1" xmlns="http://www.w3.org/2000/svg" viewBox="0 0 128 128"><defs><style>.cls-1{fill:#d8d8e5;}</style></defs><path class="cls-1" d="M53.1,93.75c0-.51,0-1.13-.11-1.87-.08-.58-.14-1.28-.18-2.09s-.09-1.64-.17-2.53a17.27,17.27,0,0,1-7.16,5.67,23.24,23.24,0,0,1-9.37,1.92q-9,0-14.06-5.93T17,72q0-13.32,8.09-20.52t23-7.21c1.64,0,3.13,0,4.47.11s2.67.21,4,.39,2.71.42,4.13.71,3,.7,4.68,1.21V77.92c0,1.68,0,3.46.11,5.33s.18,3.57.33,5.11c.15,1.84.29,3.64.44,5.39ZM50.8,57.9a22.58,22.58,0,0,0-3.47-.56c-1-.07-2-.11-2.91-.11q-6,0-9.4,3.91T31.66,72c0,3.07.67,5.42,2,7a7,7,0,0,0,5.71,2.43,10.11,10.11,0,0,0,4.42-1,11,11,0,0,0,3.64-2.8,13.51,13.51,0,0,0,2.47-4.29,16.42,16.42,0,0,0,.89-5.56Z"/><path class="cls-1" d="M84.13,93.75V55.8H74.45V45.35h9.68V33.15H98.54v12.2H111V55.8H98.54v38Z"/></svg>