<svg id="Layer_1" data-name="Layer 1" xmlns="http://www.w3.org/2000/svg" viewBox="0 0 128 128"><defs><style>.cls-1{opacity:0.5;}.cls-2{fill:#12124c;}</style></defs><g class="cls-1"><path class="cls-2" d="M13.34,92.56V63.23H5.86V55.16h7.48V45.73H24.48v9.43h9.6v8.07h-9.6V92.56Z"/><path class="cls-2" d="M64.68,92.56V71.42a11.16,11.16,0,0,0-.39-3.28,4.22,4.22,0,0,0-1.09-1.88,3.27,3.27,0,0,0-1.56-.86,7.69,7.69,0,0,0-1.82-.21,5.2,5.2,0,0,0-2.82.86,8.55,8.55,0,0,0-2.39,2.34,12.81,12.81,0,0,0-1.69,3.48,13.7,13.7,0,0,0-.65,4.22V92.56H41V34.33H52.19V59.41a12.91,12.91,0,0,1,4.69-3.27,15.66,15.66,0,0,1,5.7-1,18.32,18.32,0,0,1,4.9.66,12.37,12.37,0,0,1,4.27,2.11,10.64,10.64,0,0,1,3.06,3.85A13.32,13.32,0,0,1,76,67.65V92.56Z"/><path class="cls-2" d="M122.14,65.44a9.67,9.67,0,0,1-1.51,5.27,12.59,12.59,0,0,1-4.27,4,23.45,23.45,0,0,1-6.62,2.6,37,37,0,0,1-8.66.93c-.3,0-.64,0-1,0s-.85,0-1.38,0a7.86,7.86,0,0,0,2.55,5.06,8.06,8.06,0,0,0,5.5,1.83,25.08,25.08,0,0,0,12.52-3.83v8.93a24.53,24.53,0,0,1-6.16,2.68,25.8,25.8,0,0,1-6.68.81,22,22,0,0,1-7.69-1.28,15.57,15.57,0,0,1-5.82-3.7,16.39,16.39,0,0,1-3.66-5.78A21.29,21.29,0,0,1,88,75.31a23.47,23.47,0,0,1,1.49-8.55,19.88,19.88,0,0,1,4.16-6.67A18.46,18.46,0,0,1,100,55.75a21.55,21.55,0,0,1,8.24-1.52c4.2,0,7.55,1,10.08,3.06A10,10,0,0,1,122.14,65.44Zm-11.31.85A3,3,0,0,0,109.67,64a4.44,4.44,0,0,0-2.94-1,6.74,6.74,0,0,0-4.85,2,9.59,9.59,0,0,0-2.61,5.48,7.44,7.44,0,0,0,1.36.17h1.25Q110.84,70.63,110.83,66.29Z"/></g></svg>