<svg id="Layer_1" data-name="Layer 1" xmlns="http://www.w3.org/2000/svg" viewBox="0 0 160 128"><defs><style>.cls-1{fill:#12124c;}</style></defs><path class="cls-1" d="M45.56,87.63a24,24,0,0,1-4.8,10.12,17.33,17.33,0,0,1-8.35,5.31,42.47,42.47,0,0,1-12.15,1.53,36.18,36.18,0,0,1-7.08-.71A73.89,73.89,0,0,1,5.78,102V91q3.63.28,6.89.46c2.17.12,4.33.18,6.46.18a15.66,15.66,0,0,0,5.9-1,9,9,0,0,0,4.09-3.33,16,16,0,0,0,2.31-6.12,51.06,51.06,0,0,0,.72-9.34V65.87A18.87,18.87,0,0,1,18.4,71.81a15.91,15.91,0,0,1-6.32-1.29,14.91,14.91,0,0,1-5.23-3.71A18.43,18.43,0,0,1,3.33,61,21.05,21.05,0,0,1,2,53.31q0-3.87.11-7.42c.07-2.37.11-4.73.11-7.1s0-4.8,0-7.31-.17-5.2-.39-8.07H16.42q.33,4.38.39,8.11t0,7c0,2.21-.08,4.32-.11,6.35s-.06,4-.06,6q0,4.16,1.63,6a5.84,5.84,0,0,0,4.66,1.87,8.84,8.84,0,0,0,6.74-3,11.53,11.53,0,0,0,2.81-8.16V23.41H47.11v48.4A67.51,67.51,0,0,1,45.56,87.63Z"/><path class="cls-1" d="M104.31,47.46a27.72,27.72,0,0,1-1.81,10.41,20.69,20.69,0,0,1-5.15,7.62,22.15,22.15,0,0,1-8,4.71A31.31,31.31,0,0,1,79,71.81,31.31,31.31,0,0,1,68.66,70.2a22.28,22.28,0,0,1-8-4.71,21.43,21.43,0,0,1-5.2-7.62A27.12,27.12,0,0,1,53.6,47.46,26.76,26.76,0,0,1,55.41,37.3a21.2,21.2,0,0,1,5.09-7.57,21.54,21.54,0,0,1,8-4.71A32.43,32.43,0,0,1,79,23.41,32.69,32.69,0,0,1,89.36,25a22,22,0,0,1,8,4.62,20.3,20.3,0,0,1,5.15,7.56A27.5,27.5,0,0,1,104.31,47.46Zm-14.63,0q0-5.24-3-8.16a10.83,10.83,0,0,0-7.94-2.91q-5.12,0-7.84,2.91t-2.72,8.16q0,5.45,2.67,8.41t7.89,3c3.47,0,6.16-1,8-2.91S89.68,51.16,89.68,47.46Z"/><path class="cls-1" d="M143.58,70.49a22.7,22.7,0,0,1-.94-2.53c-.18-.66-.38-1.61-.6-2.86q-6.82,6.7-15.51,6.71A16.05,16.05,0,0,1,120,70.47a16.55,16.55,0,0,1-5.28-3.69,16.06,16.06,0,0,1-3.46-5.68A21.33,21.33,0,0,1,110,53.71c0-3,.07-5.78.22-8.35s.26-5,.33-7.39.07-4.71,0-7.06-.26-4.86-.55-7.5h14.63q.33,3.6.38,7T125,37c0,2.2-.11,4.42-.22,6.69s-.16,4.66-.16,7.21a11.87,11.87,0,0,0,.69,4.5,5,5,0,0,0,4,3.29,13.84,13.84,0,0,0,1.95.16,11.2,11.2,0,0,0,2.34-.42,7.76,7.76,0,0,0,3.33-2,13.49,13.49,0,0,0,2.92-4.67,22.21,22.21,0,0,0,1.26-8.27v-20h14.63v32a54.66,54.66,0,0,0,.66,8.35,27.32,27.32,0,0,0,1.76,6.74Z"/></svg>