<svg id="Layer_1" data-name="Layer 1" xmlns="http://www.w3.org/2000/svg" viewBox="0 0 180 128"><defs><style>.cls-1{fill:#02023a;}</style></defs><path class="cls-1" d="M45.55,101.67a17.48,17.48,0,0,0-.11-1.87c-.08-.58-.14-1.28-.17-2.09s-.1-1.65-.18-2.53a17.27,17.27,0,0,1-7.16,5.67,23.24,23.24,0,0,1-9.37,1.92q-9,0-14.06-5.94t-5-16.94q0-13.31,8.09-20.51t23-7.21c1.63,0,3.12,0,4.46.12s2.67.2,4,.38,2.72.42,4.13.71,3,.7,4.68,1.21V85.83c0,1.69,0,3.47.11,5.34s.18,3.58.33,5.12c.15,1.83.29,3.63.44,5.38Zm-2.3-35.86a23.75,23.75,0,0,0-3.47-.55c-1-.07-2-.1-2.91-.1q-6,0-9.4,3.9T24.11,79.89q0,4.62,2,7a7,7,0,0,0,5.7,2.42,10.31,10.31,0,0,0,4.43-1,11,11,0,0,0,3.63-2.81,13.51,13.51,0,0,0,2.47-4.29,16.42,16.42,0,0,0,.89-5.56Z"/><path class="cls-1" d="M97.59,101.67V74.21a11.25,11.25,0,0,0-.71-4.45,6.37,6.37,0,0,0-1.71-2.39,4.25,4.25,0,0,0-2.09-1,13,13,0,0,0-1.87-.17,11.35,11.35,0,0,0-2.31.43,7.79,7.79,0,0,0-3.35,2,13.62,13.62,0,0,0-3,4.66,21.36,21.36,0,0,0-1.32,8.27v20H66.57v-32a54.63,54.63,0,0,0-.66-8.34,27.41,27.41,0,0,0-1.76-6.75H78.78a22,22,0,0,1,.94,2.54q.27,1,.6,2.85a22.91,22.91,0,0,1,7.54-5.06,22,22,0,0,1,8.2-1.65,15.93,15.93,0,0,1,6.41,1.29,15.3,15.3,0,0,1,5.12,3.59A16.59,16.59,0,0,1,111,63.82a21.7,21.7,0,0,1,1.24,7.55v30.3Z"/><path class="cls-1" d="M158,101.67c-.08-.44-.15-1-.23-1.54s-.15-1.09-.23-1.75-.15-1.47-.23-2.42A20.13,20.13,0,0,1,150,101.4a22.65,22.65,0,0,1-8.71,1.6,21.71,21.71,0,0,1-8.77-1.71,19.47,19.47,0,0,1-6.67-4.73,21.78,21.78,0,0,1-4.3-7.31A28.19,28.19,0,0,1,120,79.67a32.74,32.74,0,0,1,1.81-11.11,26.83,26.83,0,0,1,5.06-8.74,22.65,22.65,0,0,1,7.76-5.72,23.73,23.73,0,0,1,9.9-2,34.29,34.29,0,0,1,4.84.33,28.8,28.8,0,0,1,5.39,1.44V25h14.63V85c0,1.24.05,2.82.16,4.72s.24,3.74.39,5.5c.14,2.06.33,4.22.55,6.49Zm-3.2-35.3a15.8,15.8,0,0,0-4.06-1.11,35.77,35.77,0,0,0-3.95-.22,11.08,11.08,0,0,0-8.86,3.8q-3.25,3.8-3.26,10.39,0,4.84,2.29,7.54a7.79,7.79,0,0,0,6.29,2.69,12.91,12.91,0,0,0,4.51-.77,8.43,8.43,0,0,0,3.67-2.64,14,14,0,0,0,2.45-4.89,26.41,26.41,0,0,0,.92-7.53Z"/></svg>