<svg id="Layer_1" data-name="Layer 1" xmlns="http://www.w3.org/2000/svg" viewBox="0 0 160 128"><defs><style>.cls-1{fill:#02023a;}</style></defs><path class="cls-1" d="M38.26,100.85V73.49a14.28,14.28,0,0,0-.51-4.24,5.67,5.67,0,0,0-1.4-2.44,4.31,4.31,0,0,0-2-1.11A10.1,10.1,0,0,0,32,65.43a6.67,6.67,0,0,0-3.65,1.11,11.23,11.23,0,0,0-3.09,3A16.54,16.54,0,0,0,23,74.07a17.71,17.71,0,0,0-.84,5.46v21.32H7.57V25.5H22.09V58a16.9,16.9,0,0,1,6.07-4.24,20.32,20.32,0,0,1,7.38-1.26,23.7,23.7,0,0,1,6.34.86A16,16,0,0,1,47.41,56a13.94,13.94,0,0,1,4,5,17.21,17.21,0,0,1,1.52,7.6v32.23Z"/><path class="cls-1" d="M96.77,100.85A17.67,17.67,0,0,0,96.65,99c-.07-.59-.13-1.28-.17-2.09s-.1-1.65-.17-2.53A17.36,17.36,0,0,1,89.14,100,23,23,0,0,1,79.77,102q-9,0-14.06-5.94t-5-16.94q0-13.3,8.08-20.52t23-7.2c1.63,0,3.12,0,4.46.11s2.68.2,4,.38,2.72.43,4.13.72,3,.7,4.69,1.21V85c0,1.69,0,3.46.11,5.33s.18,3.58.33,5.12c.14,1.83.29,3.63.44,5.39ZM94.47,65A22.58,22.58,0,0,0,91,64.44c-1-.07-2-.11-2.9-.11q-6.06,0-9.41,3.9T75.33,79.07q0,4.62,2,7a7,7,0,0,0,5.71,2.42,10.14,10.14,0,0,0,4.42-1,11.18,11.18,0,0,0,3.64-2.81,13.68,13.68,0,0,0,2.46-4.29,16.15,16.15,0,0,0,.9-5.55Z"/><path class="cls-1" d="M152.43,87.43q0,6.93-4.66,11t-13.1,4.07a55.15,55.15,0,0,1-11.16-1.1,32.73,32.73,0,0,1-8.81-3l1.87-11.22q9.57,5,16.72,5a4.77,4.77,0,0,0,3.47-1,3.26,3.26,0,0,0,1-2.36,4.24,4.24,0,0,0-.82-2.7,12.77,12.77,0,0,0-4-2.58,65.86,65.86,0,0,1-7.75-4,25.31,25.31,0,0,1-5.28-4.13,13.76,13.76,0,0,1-3-4.56,15,15,0,0,1-.94-5.5,12.44,12.44,0,0,1,5.32-10.73q5.32-3.8,13.9-3.79a43.23,43.23,0,0,1,8.19.71,38.35,38.35,0,0,1,8.22,2.81l-1.76,11.11a26.31,26.31,0,0,0-7.56-3,33.9,33.9,0,0,0-7.23-.82c-1.7,0-2.87.31-3.5.93a3.35,3.35,0,0,0-.95,2.48,3.63,3.63,0,0,0,1.51,3A31.4,31.4,0,0,0,138,71a69.78,69.78,0,0,1,6.68,3.79,23.68,23.68,0,0,1,4.5,3.74,11.73,11.73,0,0,1,2.49,4.07A14.46,14.46,0,0,1,152.43,87.43Z"/></svg>