<svg id="Layer_1" data-name="Layer 1" xmlns="http://www.w3.org/2000/svg" viewBox="0 0 128 128"><defs><style>.cls-1{fill:#02023a;}</style></defs><path class="cls-1" d="M60.15,73.85a51.35,51.35,0,0,1-1.85,14.9,26.06,26.06,0,0,1-5,9.63,18.36,18.36,0,0,1-7.58,5.22,27.76,27.76,0,0,1-9.54,1.59,82.26,82.26,0,0,1-9.82-.6,35.25,35.25,0,0,1-9.26-2.36V91.11a60.18,60.18,0,0,0,8.42,2.37,36.65,36.65,0,0,0,7.09.83,12.45,12.45,0,0,0,5.26-1.1,10.45,10.45,0,0,0,4.1-3.52,18.58,18.58,0,0,0,2.66-6.38,41.86,41.86,0,0,0,.94-9.58V68.9a16.8,16.8,0,0,1-6.27,3.68,25.55,25.55,0,0,1-6.82.82,21.76,21.76,0,0,1-8.58-1.64,18.76,18.76,0,0,1-6.54-4.62,20.94,20.94,0,0,1-4.19-7.21,28.28,28.28,0,0,1-1.48-9.41A27.77,27.77,0,0,1,13.93,39a24.44,24.44,0,0,1,6.52-8.74,29,29,0,0,1,10.26-5.56,44.68,44.68,0,0,1,13.6-1.92c1.57,0,2.94,0,4.13.05s2.36.13,3.51.28,2.38.34,3.68.6,2.81.61,4.52,1.05ZM45.52,37.1c-1.28-.21-2.25-.36-2.89-.43a21.76,21.76,0,0,0-2.54-.11q-6.47,0-10.14,3.57T26.27,50q0,4.5,2.43,6.92a8.25,8.25,0,0,0,6.06,2.42,18,18,0,0,0,4-.43,7.08,7.08,0,0,0,3.45-2,10.65,10.65,0,0,0,2.43-4.45,27.12,27.12,0,0,0,.91-7.86Z"/><path class="cls-1" d="M116.36,48a27.78,27.78,0,0,1-1.81,10.42A20.73,20.73,0,0,1,109.4,66a22,22,0,0,1-8,4.72,34.07,34.07,0,0,1-20.7,0,22.07,22.07,0,0,1-8-4.72,21.47,21.47,0,0,1-5.2-7.61A27.18,27.18,0,0,1,65.65,48a26.76,26.76,0,0,1,1.81-10.16,21.16,21.16,0,0,1,5.09-7.56,21.46,21.46,0,0,1,8-4.72,35.14,35.14,0,0,1,20.87-.05,22,22,0,0,1,8,4.61,20.25,20.25,0,0,1,5.15,7.57A27.41,27.41,0,0,1,116.36,48Zm-14.63,0c0-3.5-1-6.22-3-8.16a10.84,10.84,0,0,0-8-2.91q-5.1,0-7.83,2.91T80.28,48q0,5.45,2.67,8.4c1.77,2,4.4,3,7.88,3s6.17-1,8.06-2.91S101.73,51.65,101.73,48Z"/></svg>