<svg id="Layer_1" data-name="Layer 1" xmlns="http://www.w3.org/2000/svg" xmlns:xlink="http://www.w3.org/1999/xlink" viewBox="0 0 1600 900"><defs><style>.cls-1{fill:url(#linear-gradient);}.cls-2{fill:#85dfef;}.cls-3{fill:#4ebcd0;}.cls-4,.cls-5,.cls-6,.cls-7{fill:#fff;}.cls-4{opacity:0.28;}.cls-5{opacity:0.51;}.cls-6{opacity:0.14;}.cls-7{opacity:0.88;}</style><linearGradient id="linear-gradient" x1="799.68" x2="799.68" y2="900" gradientUnits="userSpaceOnUse"><stop offset="0" stop-color="#67e5f5"/><stop offset="0.15" stop-color="#8beaf9"/><stop offset="0.31" stop-color="#aaeefc"/><stop offset="0.44" stop-color="#bdf0fe"/><stop offset="0.53" stop-color="#c4f1ff"/></linearGradient></defs><rect class="cls-1" x="-0.32" width="1600" height="900"/><path class="cls-2" d="M-.32,526S7.92,496.63,72,483.64a230.34,230.34,0,0,1,101.66,2.69c116.65,29.13,316.27,122.8,459,123.67,81-3,131-52,215-55s123,53,213,47,166-168,294-168,244,135,244,135V671H-.32Z"/><path class="cls-3" d="M-.32,572s78,46,128,44c16-1,64-22,98-16,50,6,64,15,89,22s388,42,474,34,112-30,169-28,81,19,100,18,61-32,82-30,15,4,43,2,39-30,80-35,117,47,190,41,147-80,147-80V712H-.32Z"/><path class="cls-4" d="M149.69,282.08c-61.34-9.41-95.11-35.46-150-61.16v30.91c69.06,23.44,82.06,49.7,149.2,58.92,84.81,11.64,152.41-47.55,246.81-27.31C363.32,244.58,204.55,291,149.69,282.08Z"/><path class="cls-5" d="M1413.63,402c-150.92-12.25-269.49,37.28-437.69,17.33,58.49,34.49,339.32-1.67,437,7.49,76.11,6.77,128.64,20.21,186.74,35.74V439.39C1537.65,423.5,1501.56,409.12,1413.63,402Z"/><path class="cls-6" d="M1277.59,283.82c-222.95,1.65-224.85-31.93-365.28-26.77S667.85,325,510.68,324.5c57.59,27.55,312.61-40.61,403.63-42.73,134.84-3.82,193.57,26.11,357.85,35.51,121,6.93,244-30.85,327.52-64.68V204.11C1526.18,241.74,1414.81,282.8,1277.59,283.82Z"/><path class="cls-4" d="M.55,266S190.42,420.4,463.81,393c239.49-24,238.62-66,389.83-76s268.34,56,437,37c-59.44,41-339.14-14-437-6-145.09,11-205.55,55.1-381.09,86C245.29,474-.32,343-.32,343Z"/><path class="cls-7" d="M1492.44,287.21c2.22-5.83,8-7.34,13.65-7.29,15-8.86,24.7-7.61,32,2.67,12-1.64,16.46,2,16.68,8.59,2.49,1.73,4.79,3.64,5.43,7.2,0,0,1,17.82-37.18,18.87s-40-17.41-40-17.41C1481.67,294.82,1486,288.83,1492.44,287.21Z"/><path class="cls-7" d="M69.72,264.21c2.29-6,8.32-7.58,14.1-7.53,15.5-9.15,25.52-7.86,33,2.76,12.35-1.69,17,2,17.24,8.87,2.56,1.79,4.94,3.76,5.6,7.45,0,0,1.09,18.41-38.4,19.49s-41.34-18-41.34-18C58.59,272.08,63,265.88,69.72,264.21Z"/><path class="cls-3" d="M1,541.81s78,46,128,44c16-1,64-22,98-16,50,6,64,15,89,22s387.85,42,473.81,34,112-30,168.93-28,81,19,100,18,61-32,82-30,15,4,43,2,39-30,80-35,117,47,189.92,41,146.94-80,146.94-80v168H1Z"/></svg>