<?xml version="1.0" encoding="utf-8"?>
<!-- Generator: Adobe Illustrator 25.2.3, SVG Export Plug-In . SVG Version: 6.00 Build 0)  -->
<svg version="1.1" id="Layer_1" xmlns="http://www.w3.org/2000/svg" xmlns:xlink="http://www.w3.org/1999/xlink" x="0px" y="0px"
	 viewBox="0 0 1600 900" style="enable-background:new 0 0 1600 900;" xml:space="preserve">
<style type="text/css">
	.st0{clip-path:url(#SVGID_2_);}
	.st1{opacity:0.96;fill-rule:evenodd;clip-rule:evenodd;fill:url(#SVGID_3_);enable-background:new    ;}
	.st2{fill:none;}
	.st3{fill:#C66446;}
	.st4{fill:#A70E13;}
	.st5{fill:#A1D2C7;}
	.st6{fill:#B4DBD2;}
	.st7{fill:url(#SVGID_4_);}
	.st8{fill:url(#SVGID_5_);}
	.st9{fill:url(#SVGID_6_);}
	.st10{fill:url(#SVGID_7_);}
	.st11{fill:url(#SVGID_8_);}
	.st12{fill:url(#SVGID_9_);}
	.st13{fill:url(#SVGID_10_);}
	.st14{fill:url(#SVGID_11_);}
	.st15{fill:url(#SVGID_12_);}
	.st16{fill:url(#SVGID_13_);}
	.st17{fill:url(#SVGID_14_);}
	.st18{fill:url(#SVGID_15_);}
	.st19{fill:url(#SVGID_16_);}
	.st20{fill:url(#SVGID_17_);}
	.st21{fill:#BDC6C5;}
	.st22{fill:#70717C;}
	.st23{fill:#F47F7F;}
	.st24{fill:#C64242;}
	.st25{fill:#76DDD1;}
	.st26{fill:#46AFA0;}
	.st27{fill:#C0EA6E;}
	.st28{fill:#9DC144;}
	.st29{fill:url(#SVGID_18_);}
	.st30{opacity:0.2;fill-rule:evenodd;clip-rule:evenodd;fill:url(#SVGID_19_);enable-background:new    ;}
	.st31{fill-rule:evenodd;clip-rule:evenodd;fill:url(#SVGID_20_);}
	.st32{fill-rule:evenodd;clip-rule:evenodd;fill:url(#SVGID_21_);}
	.st33{fill-rule:evenodd;clip-rule:evenodd;fill:url(#SVGID_22_);}
	.st34{fill:#FDD689;}
	.st35{fill:#F3B761;}
	.st36{fill:#E0A736;}
	.st37{fill:#7B3F00;}
	.st38{fill:#FF36AC;}
	.st39{fill:#FF7BAC;}
	.st40{fill:#603813;}
	.st41{fill:#00A99D;}
	.st42{fill:#8CC63F;}
	.st43{fill:#FCEE21;}
	.st44{fill:#ED1E79;}
	.st45{fill:#FFFFFF;}
	.st46{fill:url(#SVGID_23_);}
	.st47{clip-path:url(#SVGID_25_);}
	.st48{opacity:0.5;}
	.st49{fill:#D98463;}
	.st50{opacity:0.3;fill:#AE655E;enable-background:new    ;}
	.st51{fill:url(#SVGID_26_);}
	.st52{fill:url(#SVGID_27_);}
	.st53{fill:#FF8BC7;}
	.st54{clip-path:url(#SVGID_29_);}
	.st55{fill:#F974B0;}
	.st56{fill:#F02C6C;}
	.st57{opacity:0.53;}
	.st58{fill:#D4276A;}
	.st59{fill:#F0164A;}
	.st60{fill:#BA6F38;}
	.st61{fill:#FFFFF6;}
	.st62{fill:#A2274A;}
	.st63{fill:#FFD757;}
	.st64{fill:#92D5E0;}
	.st65{fill:url(#SVGID_30_);}
	.st66{clip-path:url(#SVGID_32_);}
	.st67{fill:url(#SVGID_33_);}
	.st68{fill:url(#SVGID_34_);}
	.st69{fill:#7C452C;}
	.st70{clip-path:url(#SVGID_36_);}
	.st71{fill:#672D19;}
	.st72{fill:#F0AB36;}
	.st73{fill:#D4766C;}
	.st74{fill:#FF72B8;}
	.st75{fill:#92D54A;}
	.st76{opacity:0.5;enable-background:new    ;}
	.st77{fill:#38373F;}
	.st78{fill:#A3A8A7;}
	.st79{fill:#F6A1A6;}
	.st80{fill:#744C28;}
</style>
<g id="Layer_11">
	<g>
		<defs>
			<rect id="SVGID_1_" width="1600" height="900"/>
		</defs>
		<clipPath id="SVGID_2_">
			<use xlink:href="#SVGID_1_"  style="overflow:visible;"/>
		</clipPath>
		<g class="st0">
			
				<linearGradient id="SVGID_3_" gradientUnits="userSpaceOnUse" x1="1021.2623" y1="495.1208" x2="1014.1223" y2="514.2509" gradientTransform="matrix(-1 0 0 -1 2306.3601 900)">
				<stop  offset="0" style="stop-color:#000000"/>
				<stop  offset="0.98" style="stop-color:#FF8B75"/>
			</linearGradient>
			<path class="st1" d="M1289.2,385.5c0.5,0.5,0.9,1.1,1.4,1.6l4.2,0.2c-0.5-0.7-1.1-1.4-1.6-2L1289.2,385.5z"/>
			<line class="st2" x1="557.8" y1="224.6" x2="563.9" y2="220.1"/>
			<rect class="st2" width="1600" height="900"/>
			<rect class="st2" width="1600" height="900"/>
			<rect class="st2" width="1600" height="900"/>
			<path class="st3" d="M1214,558.1c-0.1,0.5-0.2,0.9-0.3,1.4c0.4-0.4,0.7-0.9,0.5-1.2C1214.2,558.2,1214.1,558.1,1214,558.1"/>
			<path class="st3" d="M783.9,575.5c-0.1,0.4-0.2,0.8-0.2,1.3c0.4-0.4,0.6-0.8,0.5-1.1C784,575.6,784,575.6,783.9,575.5"/>
			<path class="st4" d="M437.1,468.9c-0.1,0-0.2,0.1-0.3,0.1C437.3,468.9,437.3,468.9,437.1,468.9z"/>
			<rect class="st2" width="1600" height="900"/>
			<rect x="696.5" y="-38.4" class="st5" width="43.1" height="960.7"/>
			<rect x="611.9" y="-38.4" class="st5" width="43.1" height="960.7"/>
			<rect x="781.1" y="-38.4" class="st5" width="43.1" height="960.7"/>
			<rect x="527.3" y="-38.4" class="st5" width="43.1" height="960.7"/>
			<rect x="865.7" y="-38.4" class="st5" width="43.1" height="960.7"/>
			<rect x="273.5" y="-38.4" class="st5" width="43.1" height="960.7"/>
			<rect x="104.3" y="-38.4" class="st5" width="43.1" height="960.7"/>
			<rect x="19.4" y="-38.4" class="st5" width="43.4" height="960.7"/>
			<rect x="358.1" y="-38.4" class="st5" width="43.1" height="960.7"/>
			<rect x="442.7" y="-38.4" class="st5" width="43.1" height="960.7"/>
			<rect x="188.9" y="-38.4" class="st5" width="43.1" height="960.7"/>
			<rect x="950.3" y="-38.4" class="st5" width="43.1" height="960.7"/>
			<rect x="1204" y="-38.4" class="st5" width="51.8" height="960.7"/>
			<rect x="1297.4" y="-38.4" class="st5" width="51.8" height="960.7"/>
			<rect x="1119.4" y="-38.4" class="st5" width="43.1" height="960.7"/>
			<rect x="1390.8" y="-38.4" class="st5" width="51.8" height="960.7"/>
			<rect x="1034.8" y="-38.4" class="st5" width="43.1" height="960.7"/>
			<rect x="-22.5" y="-38.4" class="st6" width="41.9" height="960.7"/>
			<rect x="62.8" y="-38.4" class="st6" width="41.5" height="960.7"/>
			<rect x="147.4" y="-38.4" class="st6" width="41.5" height="960.7"/>
			<rect x="232" y="-38.4" class="st6" width="41.5" height="960.7"/>
			<rect x="316.6" y="-38.4" class="st6" width="41.5" height="960.7"/>
			<rect x="401.2" y="-38.4" class="st6" width="41.5" height="960.7"/>
			<rect x="485.8" y="-38.4" class="st6" width="41.5" height="960.7"/>
			<rect x="570.3" y="-38.4" class="st6" width="41.5" height="960.7"/>
			<rect x="654.9" y="-38.4" class="st6" width="41.5" height="960.7"/>
			<rect x="739.5" y="-38.4" class="st6" width="41.5" height="960.7"/>
			<rect x="824.1" y="-38.4" class="st6" width="41.5" height="960.7"/>
			<rect x="908.7" y="-38.4" class="st6" width="41.5" height="960.7"/>
			<rect x="993.3" y="-38.4" class="st6" width="41.5" height="960.7"/>
			<rect x="1077.9" y="-38.4" class="st6" width="41.5" height="960.7"/>
			<rect x="1162.5" y="-38.4" class="st6" width="41.5" height="960.7"/>
			<rect x="1255.8" y="-38.4" class="st6" width="41.5" height="960.7"/>
			<rect x="1349.2" y="-38.4" class="st6" width="41.5" height="960.7"/>
			<polygon class="st6" points="1442.6,922.3 1483.4,922.3 1484.1,922.3 1484.1,-38.4 1442.6,-38.4 			"/>
			<rect x="1484.1" y="-38.4" class="st5" width="51.8" height="960.7"/>
			<rect x="1577.1" y="-38.4" class="st5" width="51.8" height="960.7"/>
			<rect x="1535.9" y="-38.4" class="st6" width="41.5" height="960.7"/>
			
				<linearGradient id="SVGID_4_" gradientUnits="userSpaceOnUse" x1="-1219.79" y1="499.715" x2="-1177.41" y2="499.715" gradientTransform="matrix(-1 0 0 -1 190.21 900)">
				<stop  offset="0" style="stop-color:#C42248"/>
				<stop  offset="1" style="stop-color:#750C0C"/>
			</linearGradient>
			<rect x="1367.6" y="46.3" class="st7" width="42.4" height="708"/>
			
				<linearGradient id="SVGID_5_" gradientUnits="userSpaceOnUse" x1="-1219.5995" y1="699.4174" x2="-1174.7896" y2="707.1074" gradientTransform="matrix(-1 0 0 -1 190.21 900)">
				<stop  offset="0" style="stop-color:#FFFFFF"/>
				<stop  offset="1" style="stop-color:#E0CFCA"/>
			</linearGradient>
			<path class="st8" d="M1410,171.7c0,0-22.5,11.1-42.4-26.5v65.7c0,0,13.4,41.4,42.4,36.2V171.7z"/>
			
				<linearGradient id="SVGID_6_" gradientUnits="userSpaceOnUse" x1="-1181.5302" y1="639.8206" x2="-1208.6101" y2="634.4506" gradientTransform="matrix(-1 0 0 -1 190.21 900)">
				<stop  offset="0" style="stop-color:#2C7773"/>
				<stop  offset="1" style="stop-color:#52AFAC"/>
			</linearGradient>
			<path class="st9" d="M1410,242.2c0,0-22.5,3.1-42.4-34.5v73.7c0,0,13.4,41.4,42.4,36.2V242.2z"/>
			
				<linearGradient id="SVGID_7_" gradientUnits="userSpaceOnUse" x1="-1219.6002" y1="480.9217" x2="-1174.7903" y2="488.6017" gradientTransform="matrix(-1 0 0 -1 190.21 900)">
				<stop  offset="0" style="stop-color:#FFFFFF"/>
				<stop  offset="1" style="stop-color:#E0CFCA"/>
			</linearGradient>
			<path class="st10" d="M1410,390.6c0,0-22.5,10.7-42.4-26.9v65.7c0,0,13.4,41.4,42.4,36.2V390.6z"/>
			
				<linearGradient id="SVGID_8_" gradientUnits="userSpaceOnUse" x1="-1219.5995" y1="270.2775" x2="-1174.7896" y2="277.9674" gradientTransform="matrix(-1 0 0 -1 190.21 900)">
				<stop  offset="0" style="stop-color:#FFFFFF"/>
				<stop  offset="1" style="stop-color:#E0CFCA"/>
			</linearGradient>
			<path class="st11" d="M1410,600.8c0,0-22.5,11.1-42.4-26.5V640c0,0,13.4,41.3,42.4,36.2V600.8z"/>
			
				<linearGradient id="SVGID_9_" gradientUnits="userSpaceOnUse" x1="-1181.5311" y1="421.3154" x2="-1208.6111" y2="415.9454" gradientTransform="matrix(-1 0 0 -1 190.21 900)">
				<stop  offset="0" style="stop-color:#2C7773"/>
				<stop  offset="1" style="stop-color:#52AFAC"/>
			</linearGradient>
			<path class="st12" d="M1410,460.7c0,0-22.5,3-42.4-34.5v73.7c0,0,13.4,41.4,42.4,36.2V460.7z"/>
			
				<linearGradient id="SVGID_10_" gradientUnits="userSpaceOnUse" x1="-1220.7297" y1="843.5585" x2="-1174.7798" y2="851.4385" gradientTransform="matrix(-1 0 0 -1 190.21 900)">
				<stop  offset="0" style="stop-color:#FFFFFF"/>
				<stop  offset="1" style="stop-color:#E0CFCA"/>
			</linearGradient>
			<path class="st13" d="M1410,0v110.7c-29,8.8-42.4-62-42.4-62V0H1410z"/>
			
				<linearGradient id="SVGID_11_" gradientUnits="userSpaceOnUse" x1="-42.17" y1="482.705" x2="0.21" y2="482.705" gradientTransform="matrix(-1 0 0 -1 190.21 900)">
				<stop  offset="0" style="stop-color:#C42248"/>
				<stop  offset="1" style="stop-color:#750C0C"/>
			</linearGradient>
			<rect x="190" y="63.3" class="st14" width="42.4" height="708"/>
			
				<linearGradient id="SVGID_12_" gradientUnits="userSpaceOnUse" x1="-41.9807" y1="682.4139" x2="2.8393" y2="690.0939" gradientTransform="matrix(-1 0 0 -1 190.21 900)">
				<stop  offset="0" style="stop-color:#FFFFFF"/>
				<stop  offset="1" style="stop-color:#E0CFCA"/>
			</linearGradient>
			<path class="st15" d="M232.4,188.7c0,0-22.5,11.1-42.4-26.5v65.7c0,0,13.4,41.3,42.4,36.2V188.7z"/>
			
				<linearGradient id="SVGID_13_" gradientUnits="userSpaceOnUse" x1="-3.9093" y1="622.8067" x2="-30.9793" y2="617.4367" gradientTransform="matrix(-1 0 0 -1 190.21 900)">
				<stop  offset="0" style="stop-color:#2C7773"/>
				<stop  offset="1" style="stop-color:#52AFAC"/>
			</linearGradient>
			<path class="st16" d="M232.4,259.2c0,0-22.5,3-42.4-34.5v73.7c0,0,13.4,41.4,42.4,36.2V259.2z"/>
			
				<linearGradient id="SVGID_14_" gradientUnits="userSpaceOnUse" x1="-41.9796" y1="463.9078" x2="2.8404" y2="471.5878" gradientTransform="matrix(-1 0 0 -1 190.21 900)">
				<stop  offset="0" style="stop-color:#FFFFFF"/>
				<stop  offset="1" style="stop-color:#E0CFCA"/>
			</linearGradient>
			<path class="st17" d="M232.4,407.6c0,0-22.5,10.7-42.4-26.9v65.6c0,0,13.4,41.4,42.4,36.2V407.6z"/>
			
				<linearGradient id="SVGID_15_" gradientUnits="userSpaceOnUse" x1="-41.9813" y1="253.2775" x2="2.8387" y2="260.9575" gradientTransform="matrix(-1 0 0 -1 190.21 900)">
				<stop  offset="0" style="stop-color:#FFFFFF"/>
				<stop  offset="1" style="stop-color:#E0CFCA"/>
			</linearGradient>
			<path class="st18" d="M232.4,617.8c0,0-22.5,11.1-42.4-26.5V657c0,0,13.4,41.4,42.4,36.2V617.8z"/>
			
				<linearGradient id="SVGID_16_" gradientUnits="userSpaceOnUse" x1="-3.9106" y1="404.3029" x2="-30.9806" y2="398.9329" gradientTransform="matrix(-1 0 0 -1 190.21 900)">
				<stop  offset="0" style="stop-color:#2C7773"/>
				<stop  offset="1" style="stop-color:#52AFAC"/>
			</linearGradient>
			<path class="st19" d="M232.4,477.7c0,0-22.5,3-42.4-34.5v73.7c0,0,13.4,41.3,42.4,36.2V477.7z"/>
			
				<linearGradient id="SVGID_17_" gradientUnits="userSpaceOnUse" x1="-44.121" y1="834.8959" x2="3.999" y2="843.1459" gradientTransform="matrix(-1 0 0 -1 190.21 900)">
				<stop  offset="0" style="stop-color:#FFFFFF"/>
				<stop  offset="1" style="stop-color:#E0CFCA"/>
			</linearGradient>
			<path class="st20" d="M232.4,0v127.6c-29,10.1-42.4-71.4-42.4-71.4V0H232.4z"/>
			<polygon class="st21" points="296.4,590.9 1303.8,580.2 1397.2,671.3 207,670.8 			"/>
			<polygon class="st22" points="1291.2,595 1357.5,660.7 1112.8,660.9 1061.7,594.5 			"/>
			<path class="st23" d="M1069,604.1c0,0,70.4,1.4,132.7,0.3s83-0.3,94.4,8.5s49.9,47.8,49.9,47.8l-233.3,0.2L1069,604.1z"/>
			<path class="st24" d="M1105.1,604.6c0,0-7.8,32.1,47.8,44.2s186.6,5.3,186.6,5.3l6.6,6.6l-233.3,0.2l-43.8-56.8
				C1069,604.1,1095.3,604.5,1105.1,604.6z"/>
			<polygon class="st22" points="309.3,595 242.9,660.7 487.6,660.9 538.8,594.5 			"/>
			<path class="st25" d="M531.4,604.1c0,0-70.4,1.4-132.7,0.3s-83-0.3-94.4,8.5s-49.9,47.8-49.9,47.8l233.3,0.2L531.4,604.1z"/>
			<path class="st26" d="M495.4,604.6c0,0,7.8,32.1-47.8,44.2S261,654.1,261,654.1l-6.6,6.6l233.3,0.2l43.8-56.8
				C531.4,604.1,505.2,604.5,495.4,604.6z"/>
			<polygon class="st22" points="1038,595 1087.6,660.7 842.9,660.9 814,594.5 			"/>
			<path class="st27" d="M818.6,605.2c0,0,50.9,0.3,113.2-0.8s83-0.3,94.4,8.5c11.4,8.9,49.9,47.8,49.9,47.8l-233.3,0.2L818.6,605.2
				z"/>
			<path class="st28" d="M870.9,605.1c0,0-43.6,31.6,12,43.7s186.6,5.3,186.6,5.3l6.6,6.6l-233.3,0.2l-24.3-55.7
				C818.6,605.2,838.4,604.2,870.9,605.1z"/>
			<polygon class="st22" points="570.3,594.5 521.8,660.9 818.4,660.6 786,595 			"/>
			
				<linearGradient id="SVGID_18_" gradientUnits="userSpaceOnUse" x1="538.58" y1="268.4107" x2="807.9" y2="268.4107" gradientTransform="matrix(1 0 0 -1 0 900)">
				<stop  offset="1.000000e-02" style="stop-color:#FFEBC2"/>
				<stop  offset="1" style="stop-color:#FFFFFF"/>
			</linearGradient>
			<path class="st29" d="M538.6,660.9c0,0,28.8-54.9,56.2-57.1s122.3-0.6,151.2-1.4s29.5,4,37.4,10.9s24.6,47.3,24.6,47.3
				L538.6,660.9z"/>
			
				<linearGradient id="SVGID_19_" gradientUnits="userSpaceOnUse" x1="781.7028" y1="495.6152" x2="804.0239" y2="677.4435" gradientTransform="matrix(1 0 0 -1 0 900)">
				<stop  offset="0" style="stop-color:#890041"/>
				<stop  offset="1" style="stop-color:#FF706A"/>
			</linearGradient>
			<path class="st30" d="M566.8,314.3c-8.7,53.6,122.9,88.4,238.5,88.4c96.2,0,213.5-41.7,213.2-88.4
				c-0.3-52.6-105.5-86.4-220.8-89.8C689.9,221.3,574,269.9,566.8,314.3z"/>
			
				<linearGradient id="SVGID_20_" gradientUnits="userSpaceOnUse" x1="782.1271" y1="510.0908" x2="804.027" y2="688.4598" gradientTransform="matrix(1 0 0 -1 0 900)">
				<stop  offset="0" style="stop-color:#954156"/>
				<stop  offset="1" style="stop-color:#CC6165"/>
			</linearGradient>
			<path class="st31" d="M566.8,303.3c-8.7,53.6,124,84.5,239.6,84.5c96.2,0,212.4-37.8,212.2-84.5c-0.3-52.6-105.5-86.4-220.8-89.8
				C689.9,210.3,574,258.9,566.8,303.3z"/>
			
				<linearGradient id="SVGID_21_" gradientUnits="userSpaceOnUse" x1="794.9977" y1="510.6815" x2="816.8976" y2="689.051" gradientTransform="matrix(1 0 0 -1 0 900)">
				<stop  offset="0" style="stop-color:#CA5C56"/>
				<stop  offset="1" style="stop-color:#CC6165"/>
			</linearGradient>
			<path class="st32" d="M579.7,302.7c-8.7,53.6,124,84.5,239.6,84.5c96.2,0,212.4-37.8,212.2-84.5c-0.3-52.6-105.5-86.4-220.8-89.8
				C702.8,209.7,586.9,258.3,579.7,302.7z"/>
			
				<linearGradient id="SVGID_22_" gradientUnits="userSpaceOnUse" x1="795.3513" y1="513.7683" x2="816.5032" y2="686.0037" gradientTransform="matrix(1 0 0 -1 0 900)">
				<stop  offset="0" style="stop-color:#FCB4BD"/>
				<stop  offset="1" style="stop-color:#FFEACD"/>
			</linearGradient>
			<path class="st33" d="M594.3,302.6c-8.2,51.9,115.9,81.8,224,81.8c90,0,198.6-36.6,198.4-81.8c-0.3-51-98.7-83.7-206.5-87
				C709.4,212.5,601.1,259.6,594.3,302.6z"/>
			<path class="st34" d="M776.6,303.6l3.4,3.6l-1.7,2l0.5,1.7l2.2-2.5l3.4,3.6l-3.3,3.7l-1.3-1.4l1.2,3.8l0.2-0.2l3.4,3.6l-1.8,2.1
				l0.5,1.7l2.4-2.7l3.4,3.6l-3.3,3.7l-1.6-1.7l0.8,2.4c0.2,0.6,0.4,1.2,0.6,1.9l0.3-0.4l3.4,3.6l-2,2.3c0.2,0.6,0.3,1.1,0.5,1.7
				l2.5-2.9l3.4,3.6l-3.2,3.7l-1.9-2c0.5,1.6,1,3.2,1.5,4.8l0.5-0.5l3.4,3.6l-2.2,2.5c0.2,0.6,0.3,1.1,0.5,1.7l2.7-3.1l3.4,3.6
				l-3.2,3.7l-2.3-2.4c0.3,1.1,0.7,2.2,1,3.2l0.3,0.4l-0.2,0.2c0.2,0.6,0.3,1.2,0.5,1.7l0.7-0.8l3.4,3.6l-2.4,2.8
				c0.2,0.6,0.3,1.2,0.5,1.7l3-3.4l3.1,3.3l0.4-1.8l-2.6-2.6l3.3-3.7l0.7,0.8c0.1-0.6,0.3-1.1,0.4-1.7l-0.2-0.2l0.3-0.4
				c0.3-1.1,0.6-2.1,0.8-3.3l-2.2,2.5l-3.4-3.6l3.3-3.7l2.8,3c0.2-0.6,0.3-1.1,0.5-1.7l-2.3-2.4l3.3-3.7l0.5,0.5
				c0.4-1.6,0.8-3.2,1.3-4.9l-1.8,2.1l-3.4-3.6l3.2-3.7l2.6,2.8c0.2-0.6,0.3-1.1,0.5-1.7l-2.1-2.2l3.2-3.7l0.3,0.3
				c0.2-0.6,0.3-1.2,0.5-1.9l0.7-2.4l-1.5,1.7l-3.4-3.6l3.3-3.7l2.5,2.6c0.2-0.6,0.3-1.1,0.5-1.7l-1.9-2l3.3-3.7l0.2,0.2l1-3.9
				l-1.3,1.4l-3.4-3.6l3.3-3.7l2.3,2.5l0.5-1.7l-1.8-1.9l3.3-3.7l0,0c0.3-1.1,0.6-2.1,0.9-3.2h-0.1l-0.8,0.9l-0.8-0.9l-2,0l1.9,2
				l-3.3,3.7l-3.4-3.6l1.8-2l-2,0.1l-0.8,0.9l-0.8-0.8h-2l1.8,1.9l-3.2,3.8l-3.4-3.6l1.8-2l-2,0l-0.8,0.9l-0.8-0.8l-2,0l1.8,1.9
				l-3.2,3.7l-3.4-3.6l1.8-2h-2l-0.8,0.9l-0.8-0.8h-2l1.8,1.9l-3.3,3.7l-3.4-3.6l1.8-2h-2l-0.8,0.9l-0.8-0.8h-2l1.8,2L781,306
				l-3.4-3.6l1.8-2h-2l-0.8,0.9l-0.8-0.9h-0.1L776.6,303.6L776.6,303.6z M782.2,316.6l3.3-3.7l3.4,3.6l-3.2,3.7L782.2,316.6z
				 M786.6,321.3l3.3-3.7l3.4,3.6l-3.3,3.7L786.6,321.3z M795.5,330.7l3.3-3.7l3.4,3.6l-3.2,3.7L795.5,330.7z M802.3,340.1l-3.3,3.7
				l-3.4-3.6l3.3-3.7L802.3,340.1z M794.4,329.6L791,326l3.2-3.7l3.4,3.6L794.4,329.6z M799.7,325.8l3.3-3.7l3.4,3.6l-3.2,3.7
				L799.7,325.8z M799.5,316.3l3.2-3.7l3.4,3.6l-3.3,3.7L799.5,316.3z M801.9,321l-3.3,3.7l-3.4-3.6l3.2-3.7L801.9,321z M794.3,320
				l-3.4-3.6l3.3-3.7l3.4,3.6L794.3,320z M786.8,330.8l3.2-3.7l3.4,3.6l-3.3,3.7L786.8,330.8z M791.2,335.5l3.3-3.7l3.4,3.6
				l-3.2,3.7L791.2,335.5z M791.4,345l3.3-3.7l3.4,3.6l-3.3,3.7L791.4,345z M802.6,359.1l-3.2,3.7l-3.4-3.5l3.3-3.7L802.6,359.1z
				 M799.2,353.3l-3.4-3.6l3.2-3.7l3.4,3.6L799.2,353.3z M806.7,344.7l-3.3,3.7l-3.4-3.6l3.2-3.7L806.7,344.7z M803.3,338.9
				l-3.4-3.6l3.3-3.7l3.4,3.6L803.3,338.9z M810.8,330.3l-3.3,3.7l-3.4-3.6l3.3-3.7L810.8,330.3z M807.4,324.5l-3.4-3.5l3.3-3.7
				l3.4,3.6L807.4,324.5z M814.9,315.9l-3.3,3.7l-3.4-3.6l3.3-3.7L814.9,315.9z M811.3,302.8l3.4,3.6l-3.3,3.7l-3.4-3.6L811.3,302.8
				z M810.4,311.2l-3.3,3.8l-3.4-3.6l3.3-3.7L810.4,311.2z M802.6,303l3.4,3.6l-3.3,3.7l-3.4-3.6L802.6,303z M801.8,311.4l-3.3,3.7
				l-3.4-3.6l3.3-3.7L801.8,311.4z M793.9,303.2l3.4,3.6l-3.2,3.7l-3.4-3.6L793.9,303.2z M793.1,311.6l-3.2,3.7l-3.4-3.6l3.3-3.7
				L793.1,311.6z M785.3,303.4l3.4,3.6l-3.3,3.7l-3.4-3.6L785.3,303.4z"/>
			<path class="st34" d="M796.7,369.4l0.6,2.2c0.1,0.3,0.2,0.6,0.2,0.9l1,1l-0.5,0.6l0,0c0.2,0.5,0.4,1.1,0.6,1.6l1-1.1l1,1
				c0.2-0.5,0.4-1.1,0.5-1.6l0,0l-0.5-0.6l0.9-1.1c0.1-0.3,0.1-0.6,0.2-0.9c0.2-0.7,0.3-1.5,0.5-2.3l-2.8,3.1L796.7,369.4z"/>
			<polygon class="st35" points="789.8,315.4 793.1,311.6 789.7,308.1 786.4,311.8 			"/>
			<polygon class="st35" points="785.4,312.9 782.2,316.6 785.6,320.2 788.8,316.5 			"/>
			<path class="st35" d="M781.2,317.8L781,318l1.7,5.5l1.8-2.1L781.2,317.8z"/>
			<path class="st35" d="M790.4,346.2l-0.5,0.5c0.6,1.9,1.2,3.8,1.7,5.5l2.2-2.5L790.4,346.2z"/>
			<polygon class="st35" points="804,320.9 807.4,324.5 810.6,320.8 807.2,317.2 			"/>
			<path class="st35" d="M808.4,325.6l3.4,3.6l1.5-1.7l0.8-3l-2.5-2.6L808.4,325.6z"/>
			<polygon class="st35" points="797.3,306.8 793.9,303.2 790.7,306.9 794.1,310.5 			"/>
			<polygon class="st35" points="798.5,315.2 801.8,311.4 798.4,307.9 795.1,311.6 			"/>
			<polygon class="st35" points="802.8,312.5 799.5,316.3 802.9,319.8 806.2,316.1 			"/>
			<polygon class="st35" points="807.2,315 810.4,311.3 807,307.7 803.8,311.4 			"/>
			<polygon class="st35" points="808.2,316.1 811.6,319.6 814.9,315.9 811.5,312.4 			"/>
			<path class="st35" d="M812.7,320.7l1.9,2c0.5-1.8,1-3.7,1.5-5.6l-0.2-0.2L812.7,320.7z"/>
			<polygon class="st35" points="794.7,341.4 791.4,345.1 794.8,348.6 798,344.9 			"/>
			<polygon class="st35" points="806,306.6 802.6,303 799.4,306.7 802.8,310.3 			"/>
			<polygon class="st35" points="799,343.8 802.3,340.1 798.9,336.5 795.7,340.2 			"/>
			<polygon class="st35" points="800.1,344.9 803.5,348.5 806.7,344.7 803.3,341.2 			"/>
			<path class="st35" d="M804.5,349.6l2.3,2.4c0.5-1.8,1-3.6,1.5-5.6l-0.5-0.5L804.5,349.6z"/>
			<polygon class="st35" points="790,327.1 786.8,330.9 790.2,334.4 793.4,330.7 			"/>
			<polygon class="st35" points="795.3,321.1 798.7,324.7 801.9,321 798.5,317.4 			"/>
			<path class="st35" d="M785.8,332l-0.3,0.4c0.6,1.9,1.2,3.7,1.7,5.5l2-2.3L785.8,332z"/>
			<polygon class="st35" points="791,326 794.4,329.6 797.7,325.9 794.3,322.3 			"/>
			<polygon class="st35" points="790.9,316.5 794.3,320 797.5,316.3 794.1,312.7 			"/>
			<path class="st35" d="M798.3,305.6l3.2-3.7l-1.8-1.9h-1.5h-1.5l-1.8,2L798.3,305.6z"/>
			<polygon class="st35" points="804.2,330.5 807.5,334 810.8,330.3 807.4,326.8 			"/>
			<polygon class="st35" points="806.4,325.7 803,322.1 799.7,325.8 803.1,329.4 			"/>
			<path class="st35" d="M808.6,335.1l2.1,2.2c0.5-1.8,1-3.7,1.5-5.6l-0.3-0.3L808.6,335.1z"/>
			<polygon class="st35" points="799.9,335.4 803.3,338.9 806.5,335.2 803.2,331.6 			"/>
			<polygon class="st35" points="797.9,335.4 794.5,331.8 791.2,335.5 794.6,339.1 			"/>
			<polygon class="st35" points="798.7,327 795.5,330.7 798.9,334.3 802.1,330.5 			"/>
			<polygon class="st35" points="793.3,321.2 789.9,317.6 786.6,321.3 790,324.9 			"/>
			<path class="st35" d="M804.3,340l3.4,3.6l1.8-2.1c0.2-0.8,0.4-1.6,0.7-2.4l-2.6-2.8L804.3,340z"/>
			<path class="st35" d="M793.6,340.3l-3.4-3.6l-2.5,2.9l0.7,2.4l1.9,2L793.6,340.3z"/>
			<path class="st35" d="M789,326l-3.4-3.6l-2.4,2.7l0.9,2.9l1.6,1.7L789,326z"/>
			<path class="st35" d="M816.7,306.3l1.8,1.9c0.5-1.8,1-3.7,1.5-5.6l0,0L816.7,306.3z"/>
			<path class="st35" d="M781,306l3.3-3.7l-1.8-2l-3,0.1l-1.8,2L781,306z"/>
			<path class="st35" d="M815.7,305.2l3.3-3.7l-1.9-2l-3,0.1l-1.8,2L815.7,305.2z"/>
			<path class="st35" d="M777.3,300.4h-1.6l0.8,0.9L777.3,300.4z"/>
			<path class="st35" d="M776.6,303.6L776.6,303.6c0.6,1.9,1.1,3.7,1.7,5.5l1.7-2L776.6,303.6z"/>
			<path class="st35" d="M795,360.4l-0.7,0.8c0.6,2,1.2,3.9,1.7,5.6l2.4-2.8L795,360.4z"/>
			<path class="st35" d="M800.4,364l2.5,2.7c0.4-1.7,0.9-3.6,1.5-5.6l-0.7-0.8L800.4,364z"/>
			<polygon class="st35" points="796,359.3 799.4,362.9 802.6,359.1 799.3,355.6 			"/>
			<path class="st35" d="M812,299.7h-1.5l0,0l0.8,0.8L812,299.7z"/>
			<path class="st35" d="M794.7,300.1h-1.5l0.8,0.8L794.7,300.1z"/>
			<path class="st35" d="M798.7,375.8l0.1,0.2c0.1,0.3,0.4,0.6,0.6,0.9c0.2,0.2,0.3,0.2,0.3,0.2s0.1,0,0.3-0.2
				c0.2-0.3,0.4-0.6,0.6-0.9c0,0,0-0.1,0.1-0.2l-1-1L798.7,375.8z"/>
			<path class="st35" d="M797.6,372.5c0.2,0.6,0.3,1.1,0.5,1.6l0.5-0.6L797.6,372.5z"/>
			<path class="st35" d="M796.5,368.5c0.1,0.3,0.2,0.6,0.3,0.9l2.9,3l2.8-3.1c0.1-0.3,0.1-0.6,0.2-0.9l-3.1-3.3L796.5,368.5z"/>
			<path class="st35" d="M801.2,374.1c0.1-0.5,0.3-1,0.4-1.6l-0.9,1.1L801.2,374.1z"/>
			<path class="st35" d="M820.7,299.4l-1.6,0l0.8,0.9L820.7,299.4z"/>
			<path class="st35" d="M793.6,359c0,0.2,0.1,0.4,0.2,0.5l0.2-0.2L793.6,359z"/>
			<path class="st35" d="M798.2,354.5l-3.4-3.6l-2.7,3.1c0.1,0.4,0.3,0.8,0.4,1.3l0.2,0.5l2.3,2.4L798.2,354.5z"/>
			<path class="st35" d="M800.3,354.4l3.4,3.6l2.2-2.5c0-0.2,0.1-0.3,0.1-0.5c0.1-0.4,0.2-0.9,0.3-1.3l-2.8-3L800.3,354.4z"/>
			<polygon class="st35" points="795.8,349.8 799.2,353.3 802.5,349.6 799.1,346 			"/>
			<path class="st35" d="M784.4,311.8l-3.4-3.6l-2.2,2.5c0.4,1.1,0.7,2.3,1,3.4l1.3,1.4L784.4,311.8z"/>
			<path class="st35" d="M789.7,305.8l3.3-3.7l-1.8-1.9l-3,0.1l-1.8,2L789.7,305.8z"/>
			<polygon class="st35" points="788.7,307 785.3,303.4 782,307.1 785.4,310.7 			"/>
			<path class="st35" d="M803.3,299.9h-1.5l0.8,0.8L803.3,299.9z"/>
			<path class="st35" d="M807,305.4l3.3-3.7l-1.8-1.9l-3,0.1l-1.8,2L807,305.4z"/>
			<path class="st35" d="M786,300.3L786,300.3h-1.6l0.8,0.8L786,300.3z"/>
			<path class="st35" d="M812.5,311.2l3.4,3.6l1.3-1.4l0.9-3.4l-2.3-2.5L812.5,311.2z"/>
			<polygon class="st35" points="814.7,306.4 811.3,302.8 808,306.5 811.4,310.1 			"/>
			<path class="st35" d="M804.8,359.3l0.2-0.5l-0.3,0.4L804.8,359.3z"/>
			<path class="st36" d="M819,293c-0.4,0.5-0.9,0.9-1.5,1.2c-1.4,0.8-3,0.8-4.5,0.1c-0.6-0.3-1.1-0.7-1.5-1.2
				c-0.3-0.3-0.5-0.7-0.6-1.2c-0.1,0.4-0.3,0.8-0.6,1.1c-0.4,0.5-0.9,0.9-1.5,1.2c-0.7,0.4-1.4,0.6-2.2,0.6c-0.8,0-1.5-0.2-2.2-0.5
				c-0.6-0.3-1.1-0.7-1.5-1.2c-0.3-0.3-0.5-0.7-0.7-1.1c-0.1,0.4-0.3,0.8-0.6,1.1c-0.4,0.5-0.9,0.9-1.5,1.2
				c-0.7,0.4-1.4,0.6-2.2,0.6c-0.8,0-1.5-0.2-2.2-0.5c-0.6-0.3-1.1-0.7-1.5-1.2c-0.3-0.3-0.5-0.7-0.7-1.1c-0.1,0.4-0.3,0.8-0.6,1.1
				c-0.4,0.5-0.9,0.9-1.5,1.2c-0.7,0.4-1.4,0.6-2.2,0.6c-0.8,0-1.5-0.2-2.2-0.5c-0.6-0.3-1.1-0.7-1.5-1.2c-0.3-0.3-0.5-0.7-0.7-1.1
				c-0.1,0.4-0.3,0.8-0.6,1.1c-0.4,0.5-0.9,0.9-1.5,1.2c-0.7,0.4-1.4,0.6-2.2,0.6c-1.4,0-2.8-0.6-3.7-1.7c-0.3-0.3-0.5-0.7-0.7-1.1
				v-0.1c0,0.1-0.1,0.3-0.2,0.4c-0.4,0.7-0.9,1.3-1.6,1.7c-0.4,0.3-0.8,0.5-1.3,0.6c0.6,1.1,1.2,2.2,1.8,3.4l11-0.3l12.3-0.3
				l12.3-0.3l11-0.2l1.6-3.4c-0.6-0.1-1.1-0.3-1.6-0.6c-0.7-0.4-1.2-1-1.7-1.6c-0.1-0.1-0.1-0.3-0.2-0.4c0,0,0,0.1,0,0.1
				C819.6,292.2,819.3,292.7,819,293z"/>
			<path class="st37" d="M796.5,244.2c-0.3,0.1-0.8,0.1-1.5,0.3c-1.8,0.3-3.6,0.8-5.4,1.4l-0.8,0.3c-0.3,0.1-0.6,0.2-0.9,0.4
				c-0.6,0.2-1.2,0.6-1.8,0.9c-1.3,0.7-2.6,1.5-3.8,2.3c-2.8,2.1-5.2,4.6-7.2,7.4c-0.8,1.2-1.5,2.4-2.2,3.6c0.1,0.5,0.3,1,0.7,1.4
				c0.1-0.3,0.2-0.6,0.4-1s0.5-1,0.7-1.6c0.6-1.3,1.3-2.5,2.2-3.6c2.1-3,4.7-5.5,7.8-7.4c1.8-1.1,3.7-1.9,5.7-2.5
				c2.1-0.6,4.3-0.9,6.5-1c2.2,0,4.4,0.3,6.6,0.8l1.5,0.5c0.5,0.2,1,0.4,1.5,0.6c0.5,0.2,1,0.4,1.4,0.6l0.7,0.3l0.3,0.2l0.3,0.2
				l1.3,0.8c0.4,0.3,0.8,0.6,1.2,0.8c0.4,0.3,0.8,0.6,1.1,0.9l1,0.9c0.3,0.3,0.6,0.6,1,0.9l0.5,0.5l0.2,0.2l0.2,0.3l0.8,1
				c0.1,0.1,0.3,0.3,0.4,0.5l0.3,0.5c0.4,0.6,0.9,1.2,1.2,1.9c0.4,0.6,0.7,1.1,1,1.7c0.3,0.6,0.5,1.1,0.8,1.6
				c0.1,0.2,0.1,0.4,0.2,0.5c0.4-0.6,0.8-1.2,1.3-1.6c-0.7-1.1-1.4-2.2-2.2-3.3c-2.1-2.8-4.6-5.2-7.5-7.2c-1.2-0.8-2.5-1.5-3.9-2.2
				c-0.6-0.3-1.2-0.6-1.8-0.8c-0.3-0.1-0.6-0.2-0.9-0.3l-0.9-0.3c-1.8-0.6-3.6-0.9-5.4-1.2c-0.7-0.1-1.2-0.1-1.5-0.2
				s-0.5-0.1-0.5-0.2S796.9,244.1,796.5,244.2z"/>
			<path class="st37" d="M818.3,259.9c-0.3-0.5-0.7-1-1.1-1.5s-0.8-1.1-1.3-1.6l-0.4-0.4c-0.1-0.1-0.3-0.3-0.4-0.4l-0.8-0.8
				l-0.2-0.2l-0.2-0.2l-0.5-0.4c-0.3-0.3-0.6-0.6-0.9-0.8l-1-0.8c-0.3-0.2-0.6-0.4-0.9-0.7c0,0.1,0,0.1,0,0.2
				c-0.1,0.2-0.7,0.2-1.3-0.3c-0.4-0.3-0.6-0.6-0.7-1.1l-0.5-0.3l-0.3-0.2l-0.3-0.1l-0.6-0.3h-0.1c-0.2,0.2-0.4,0.3-0.5,0.2
				s-0.1-0.3-0.1-0.5c-0.2-0.1-0.4-0.2-0.7-0.3c-0.4-0.2-0.9-0.3-1.3-0.5l-1.4-0.4c-0.4-0.1-0.8-0.2-1.3-0.3h-0.1
				c-0.7,0.2-1.3,0.1-1.4-0.1c0,0,0-0.1,0-0.1c-1.1-0.1-2.2-0.2-3.3-0.2c-0.8,0-1.7,0.1-2.5,0.2c-0.3,0.1-0.7,0.2-1,0.2h-0.2
				c-0.8,0.1-1.5,0.3-2.3,0.5c-1.4,0.4-2.8,0.9-4.1,1.6c-0.1,0.1-0.2,0.1-0.3,0.2c-0.1,0.1-0.3,0.1-0.4,0.2l-0.4,0.2
				c-2.8,1.6-5.3,3.7-7.3,6.1c0.4,0.2,0.8,0.4,1.1,0.8c0.6,0.6,0.9,1.2,0.8,1.4s-0.7-0.2-1.3-0.8c-0.4-0.3-0.6-0.7-0.8-1.2l0,0
				c-0.8,1-1.6,2.1-2.3,3.2c-0.3,0.5-0.6,1-0.8,1.4l-0.5,1h0.1c5,2.4,2.8,8.5,5.7,12c0.5,0.7,1.5,0.9,2.2,0.3c0,0,0.1,0,0.1-0.1
				c1.1-1.3,1.1-5.1,2.2-4.2c3.5,3.4,0.5,9.2,1.4,14.3c0.3,2.2,3,3.8,3.3,3.4c5.1-6.2-0.3-14.9,0.2-22.6c0.3-1.6,2-3.2,3.4-2.3
				c2.3,1.9-0.2,6,2.1,6.6c0.9,0,1.7-4.2,2.8-2.9c3.3,4.4-1.7,16.3,4.9,15.2c2.6,0-1.6-6.3,1-7.6c1.7-1,1.3,5.7,4.1,4.4
				c4-2,3.3-8,3.8-12.8c0.3-1.3,1.4-2.9,2.6-2c2.7,2.5,0.4,6.7,1.9,10.1c3.4-2.6,1.6-8,3-11.5c0.1-0.3,0.2-0.6,0.3-0.9l-0.6-1.1
				C818.9,260.8,818.6,260.4,818.3,259.9z M781.8,264.4c-0.2,0.7-0.6,1.1-0.8,1s-0.1-0.7,0-1.3s0.3-1.1,0.6-1.1
				S782,263.6,781.8,264.4z M783.3,255.5c0-0.3,0.9-0.5,2.1-0.7s2.1-0.1,2.2,0.1s-0.9,0.6-2.1,0.8S783.3,255.7,783.3,255.5
				L783.3,255.5z M784.9,262.7c-0.2,0.1-0.5-0.5-0.7-1.2s-0.2-1.3,0-1.4s0.5,0.4,0.7,1.2S785.2,262.6,784.9,262.7z M786.8,267
				c-0.4,0.6-0.8,1.1-1,0.9s0-0.8,0.3-1.4s0.8-1.1,1-1S787.2,266.3,786.8,267L786.8,267z M787.8,258.6c-0.6,0.2-1.2,0.1-1.2-0.1
				s0.4-0.6,1-0.8s1.2-0.2,1.2,0S788.5,258.4,787.8,258.6L787.8,258.6z M790.5,251.5c0.2-0.1,0.6,0.4,1,1.1s0.6,1.4,0.4,1.5
				s-0.7-0.3-1.1-1.1S790.3,251.6,790.5,251.5L790.5,251.5z M791.8,259.8c-0.2,0.3-0.4,0.5-0.6,0.7c-0.2,0.1-0.4,0.1-0.5,0.1
				s0.1-0.7,0.4-1.3s0.6-1,0.8-1s0.2,0.2,0.2,0.5C792.1,259.1,792,259.4,791.8,259.8L791.8,259.8z M796.7,264.2
				c-0.2,0.1-0.6-0.4-0.8-1.2s0.1-1.5,0.3-1.4s0.4,0.6,0.5,1.3S796.9,264.1,796.7,264.2L796.7,264.2z M796.4,256.2
				c-0.8,0.3-1.5,0.4-1.5,0.2s0.5-0.7,1.2-1s1.5-0.4,1.5-0.2S797.1,255.9,796.4,256.2L796.4,256.2z M799,252.1
				c-0.2,0.2-0.6-0.1-1-0.7s-0.5-1.1-0.4-1.2s0.6,0.1,1,0.7S799.2,251.9,799,252.1L799,252.1z M799.8,259.3c-0.1,0-0.1,0-0.2,0
				c-0.1,0-0.1-0.1-0.1-0.2c0-0.1,0-0.3,0.1-0.4c0.1-0.1,0.2-0.2,0.3-0.3c0.1-0.1,0.3-0.2,0.4-0.2c0.6-0.3,1.2-0.1,1.2,0.1
				s-0.4,0.5-0.9,0.7c-0.1,0.1-0.2,0.1-0.4,0.1c-0.1,0-0.2,0.1-0.3,0.1L799.8,259.3z M800.4,261.7c0.1-0.2,0.6-0.1,1,0.2
				s0.6,0.7,0.5,0.9s-0.5,0.1-0.9-0.2S800.3,261.9,800.4,261.7L800.4,261.7z M802.5,267c-0.3,0.3-0.5,0.5-0.7,0.7s-0.3,0.3-0.4,0.3
				s-0.1-0.3-0.1-0.6c0.1-0.4,0.3-0.7,0.6-1c0.6-0.6,1.2-0.9,1.4-0.7S803,266.4,802.5,267L802.5,267z M805.9,254.8
				c0.2-0.1,0.5,0.3,0.8,0.9c0.2,0.6,0.2,1.2,0,1.3s-0.5-0.3-0.8-1S805.7,254.8,805.9,254.8L805.9,254.8z M805,252.3
				c-0.2,0.1-0.7-0.3-1.1-1s-0.5-1.4-0.3-1.5s0.6,0.4,1,1S805.2,252.1,805,252.3L805,252.3z M806,261.7c-0.2,0-0.5-0.4-0.6-0.9
				s0-1,0.2-1.1s0.5,0.4,0.6,0.9S806.2,261.6,806,261.7L806,261.7z M808.1,265.2c-0.2,0.2-0.4,0.3-0.6,0.4c-0.3,0.1-0.6,0.2-0.8,0.1
				c-0.2-0.1-0.3-0.2-0.3-0.3s0.2-0.2,0.3-0.3c0.2-0.1,0.4-0.2,0.6-0.3c0.2-0.1,0.5-0.2,0.8-0.1c0.2,0,0.4,0.1,0.4,0.3
				S808.2,265.1,808.1,265.2L808.1,265.2z M812.1,260.4c-0.2,0.1-0.6-0.1-0.9-0.5s-0.5-0.9-0.4-1s0.6,0,1,0.4s0.4,0.9,0.2,1.1
				L812.1,260.4z M812.8,256.2c-0.8,0.1-1.5,0-1.5-0.3s0.6-0.5,1.5-0.6s1.5,0,1.5,0.3S813.5,256,812.8,256.2L812.8,256.2z
				 M816,261.5C816,261.5,816,261.6,816,261.5c0,0.1-0.1,0.1-0.1,0.1l0,0l0,0c0,0,0,0.1,0,0.1c0,0,0,0,0,0.1c0,0-0.1,0-0.1,0
				c-0.1,0-0.1,0-0.2-0.1c-0.1-0.1-0.2-0.2-0.3-0.3c-0.2-0.3-0.4-0.6-0.5-1c-0.3-0.8-0.4-1.6-0.2-1.7s0.6,0.5,1,1.3
				c0.1,0.4,0.2,0.7,0.3,1.1c0,0.1,0,0.1,0,0.2C816,261.5,816,261.5,816,261.5L816,261.5z"/>
			<path class="st38" d="M820.4,285.1c-2.5,4.2-7.8,3-10.1-0.4c-0.6,1.7-1.9,3.1-3.7,3.6c-2.3,0.7-4.1-2.8-5-2.1
				c-2.6,1.3-6.9,2.4-8.4-0.8c-0.6,1.4-1.7,2.6-3.1,3.3c-2.6,0.7-4.1-0.5-5.3-2.8c-1.1,3.2-3.7,5.2-6.9,4.3
				c-1.5-0.3-2.3-1.9-3.3-3.4c-2,1.6-3.1,3.9-5.7,3c-0.6-0.2-1.1-0.6-1.6-1c0,0.1,0,0.3,0,0.4c0.1,1.1,0.5,2.2,1.2,3.1
				c1.3,1.6,3.5,2.1,5.3,1.3c0.6-0.3,1.1-0.6,1.6-1c0.4-0.3,0.6-0.5,0.7-0.4c0.2-0.1,0.7,0.3,1.4,0.7c0.9,0.6,1.9,0.9,3,0.9
				c1.1,0,2.1-0.4,3-1c0.7-0.5,1.2-0.9,1.4-0.8c0.2-0.1,0.7,0.3,1.4,0.7c1.8,1.2,4.2,1.1,5.9-0.1c0.7-0.5,1.2-0.9,1.4-0.8
				c0.2-0.1,0.7,0.3,1.4,0.7c0.9,0.6,1.9,0.9,3,0.9c1.1,0,2.1-0.4,3-1c0.7-0.5,1.2-0.9,1.3-0.8c0.2-0.1,0.7,0.3,1.4,0.7
				c1.8,1.2,4.2,1.1,5.9-0.1c0.7-0.5,1.2-0.9,1.4-0.8c0.2-0.1,0.7,0.3,1.4,0.7c1.8,1.2,4.2,1.1,5.9-0.1c0.7-0.5,1.2-0.9,1.4-0.8
				c0.1-0.1,0.3,0.1,0.7,0.4c0.5,0.4,1.1,0.8,1.7,1c0.8,0.3,1.7,0.4,2.6,0.2c1.1-0.2,2-0.9,2.7-1.7c0.7-0.9,1.1-2,1.1-3.2
				c0-0.5,0-1-0.2-1.5C825.8,288.3,822,288.5,820.4,285.1z"/>
			<path class="st39" d="M826.1,280.5c0.1-2,0.1-4.1,0-6.1c-0.2-3-0.8-5.9-1.7-8.7c-0.7-2.1-1.6-4.2-2.8-6.1
				c-0.5,0.5-0.9,1.1-1.3,1.6l0.3,0.9c0.1,0.2,0.2,0.4,0.2,0.6l0.1,0.5c0.1,0.3,0.2,0.6,0.2,0.8c0.1,0.5,0.1,0.7,0,0.8
				s-0.2-0.2-0.5-0.5c-0.1-0.2-0.3-0.4-0.4-0.7l-0.2-0.5c-0.1-0.2-0.2-0.3-0.3-0.5l-0.1-0.1c-0.1,0.3-0.2,0.6-0.3,0.9
				c-1.4,3.5,0.5,8.9-3,11.5c-1.5-3.5,0.7-7.6-1.9-10.1c-1.2-0.9-2.3,0.7-2.6,2c-0.5,4.8,0.2,10.8-3.8,12.8
				c-2.9,1.3-2.4-5.4-4.1-4.4c-2.6,1.3,1.6,7.6-1,7.6c-6.6,1.1-1.6-10.8-4.9-15.2c-1.2-1.2-2,2.9-2.8,2.9c-2.3-0.6,0.2-4.8-2.1-6.6
				c-1.5-0.9-3.2,0.7-3.4,2.3c-0.4,7.6,4.9,16.4-0.2,22.6c-0.3,0.3-2.9-1.2-3.3-3.4c-1-5.1,2.1-10.9-1.4-14.3
				c-1.2-0.9-1.1,2.9-2.2,4.2c-0.7,0.6-1.7,0.5-2.3-0.2c0,0,0-0.1-0.1-0.1c-3-3.4-0.8-9.5-5.7-12h-0.1l-0.1,0.2l-0.3,0.5l-0.2,0.5
				l-0.4,0.7c-0.2,0.4-0.4,0.6-0.5,0.6s-0.1-0.3,0-0.8c0-0.2,0.1-0.5,0.2-0.8l0.1-0.5c0.1-0.2,0.1-0.4,0.2-0.6s0.1-0.3,0.1-0.4
				c-0.3-0.4-0.5-0.9-0.7-1.4c-1,1.9-1.8,3.9-2.4,6c-0.8,2.9-1.3,5.8-1.4,8.8c-0.1,2,0,4.1,0.2,6.1c0.2,0.7,0.2,1.5,0.1,2.3
				c0,0.1-0.2,0.3-0.5,0.7c-0.4,0.5-0.8,1.1-1.1,1.7c-0.3,0.7-0.5,1.6-0.5,2.4c0.5,0.4,1,0.8,1.6,1c2.6,0.9,3.7-1.4,5.7-3
				c0.9,1.6,1.8,3.1,3.3,3.4c3.2,0.9,5.8-1.1,6.9-4.3c1.2,2.2,2.7,3.4,5.3,2.8c1.4-0.7,2.5-1.8,3.1-3.3c1.5,3.1,5.8,2.1,8.4,0.8
				c0.9-0.7,2.7,2.8,5,2.1c1.8-0.5,3.1-1.8,3.7-3.6c2.4,3.5,7.6,4.6,10.1,0.4c1.6,3.4,5.4,3.1,7.8,1.3c-0.1-0.4-0.3-0.9-0.5-1.3
				c-0.3-0.6-0.7-1.1-1.2-1.6c-0.3-0.4-0.5-0.6-0.5-0.7C826,282,826,281.2,826.1,280.5z"/>
			<path class="st40" d="M828.7,284.3c-0.5-0.6-1.1-1.2-1.8-1.5c-0.2-0.1-0.5-0.2-0.8-0.2c0.3-0.7,0.5-1.4,0.6-2.1
				c0.4-2.1,0.6-4.2,0.5-6.3c-0.1-3.1-0.5-6.2-1.5-9.2c-1.1-3.6-2.8-7-5.1-10c-2.2-2.9-4.9-5.4-8-7.4c-1.3-0.8-2.7-1.5-4.1-2.1
				c-0.7-0.3-1.3-0.5-2-0.7c-0.3-0.1-0.6-0.2-0.9-0.3l-0.9-0.2c-1.9-0.5-3.8-0.7-5.7-0.6c-0.5,0-1,0-1.5,0.1
				c-0.3,0.1-0.5,0.1-0.5,0.2s0.2,0.1,0.5,0.2s0.9,0.1,1.5,0.2c1.8,0.2,3.7,0.6,5.4,1.2l0.9,0.3c0.3,0.1,0.6,0.2,0.9,0.3
				c0.6,0.2,1.2,0.5,1.8,0.8c1.4,0.6,2.7,1.3,4,2.1c2.9,1.9,5.4,4.3,7.5,7.1c0.8,1.1,1.5,2.2,2.2,3.3c1.1,1.9,2,4,2.8,6.1
				c0.9,2.8,1.5,5.8,1.7,8.7c0.1,2,0.1,4.1,0,6.1c-0.1,0.8-0.1,1.5,0,2.3c0,0.1,0.2,0.3,0.5,0.7c0.5,0.5,0.9,1,1.2,1.6
				c0.2,0.4,0.4,0.8,0.5,1.3c0.1,0.5,0.2,1,0.2,1.5c0,1.2-0.4,2.3-1.1,3.2c-0.7,0.9-1.6,1.5-2.7,1.7c-0.9,0.2-1.8,0.1-2.6-0.2
				c-0.6-0.2-1.2-0.6-1.7-1c-0.4-0.3-0.6-0.5-0.7-0.4c-0.2-0.1-0.6,0.3-1.4,0.8c-1.8,1.3-4.1,1.3-5.9,0.1c-0.7-0.4-1.2-0.9-1.4-0.7
				c-0.2-0.1-0.6,0.3-1.4,0.8c-1.8,1.3-4.1,1.3-5.9,0.1c-0.7-0.5-1.2-0.9-1.4-0.7c-0.2-0.1-0.6,0.3-1.3,0.8c-0.9,0.6-1.9,1-3,1
				c-1.1,0-2.1-0.3-3-0.9c-0.7-0.4-1.2-0.9-1.4-0.7c-0.2-0.1-0.6,0.3-1.4,0.8c-1.8,1.3-4.1,1.3-5.9,0.1c-0.7-0.4-1.2-0.9-1.4-0.7
				c-0.2-0.1-0.6,0.3-1.4,0.8c-0.9,0.6-1.9,1-3,1c-1.1,0-2.1-0.3-3-0.9c-0.7-0.4-1.2-0.9-1.4-0.7c-0.1-0.1-0.3,0.1-0.7,0.4
				c-0.5,0.4-1,0.7-1.6,1c-1.9,0.8-4.1,0.3-5.3-1.3c-0.7-0.9-1.1-2-1.2-3.1c0-0.1,0-0.3,0-0.4c0-0.8,0.2-1.6,0.5-2.4
				c0.3-0.6,0.7-1.2,1.1-1.7c0.3-0.4,0.5-0.6,0.5-0.7c0.1-0.8,0-1.5-0.1-2.3c-0.2-2-0.3-4.1-0.2-6.1c0.1-3,0.6-5.9,1.4-8.8
				c0.6-2.1,1.4-4.1,2.4-6c0.6-1.2,1.4-2.4,2.2-3.6c2-2.9,4.4-5.4,7.2-7.4c1.2-0.9,2.5-1.6,3.8-2.3c0.6-0.3,1.2-0.6,1.8-0.9
				c0.3-0.1,0.6-0.3,0.9-0.4l0.8-0.3c1.7-0.6,3.5-1.1,5.4-1.4c0.7-0.1,1.2-0.2,1.5-0.3s0.5-0.1,0.5-0.2s-0.2-0.1-0.5-0.1
				c-0.5-0.1-1-0.1-1.5-0.1c-1.9,0-3.8,0.3-5.7,0.9l-0.9,0.3c-0.3,0.1-0.6,0.2-0.9,0.3c-0.6,0.2-1.3,0.5-1.9,0.8
				c-1.4,0.7-2.7,1.4-4,2.3c-3,2.1-5.6,4.7-7.7,7.8c-2.1,3.1-3.7,6.6-4.7,10.3c-0.8,3-1.2,6.1-1.1,9.3c0,2.1,0.3,4.2,0.7,6.2
				c0.1,0.7,0.4,1.4,0.7,2.1c-0.3,0-0.5,0-0.8,0.2c-0.7,0.4-1.3,0.9-1.7,1.6c-0.7,1-1.1,2.3-1.1,3.5c0,0.8,0.1,1.5,0.3,2.2
				c0.3,0.8,0.6,1.5,1.2,2.1c0.9,1.2,2.3,1.9,3.8,2h0.5c0.7,1.3,1.4,2.7,2.1,4.1c3.6,11.3,6.9,21.8,10,31.2s5.7,17.7,7.9,24.6
				s4,12.4,5.3,16.2c0.3,0.9,0.6,1.8,0.8,2.5c0.2,0.6,0.5,1.2,0.8,1.8c0.2,0.3,0.5,0.6,0.8,0.9c0.2,0.1,0.4,0.1,0.4,0.1
				s-0.1,0-0.3-0.2c-0.3-0.3-0.5-0.6-0.6-0.9l-0.1-0.2c-0.2-0.5-0.4-1-0.6-1.6l0,0c-0.2-0.5-0.3-1-0.5-1.6c-0.1-0.3-0.2-0.6-0.2-0.9
				l-0.6-2.2c-0.1-0.3-0.2-0.6-0.3-0.9c-0.2-0.5-0.3-1.1-0.5-1.7c-0.5-1.7-1-3.5-1.7-5.6c-0.2-0.5-0.3-1.1-0.5-1.7
				c0-0.2-0.1-0.4-0.2-0.5c-0.3-1-0.6-2.1-1-3.2l-0.2-0.5c-0.1-0.4-0.3-0.8-0.4-1.3s-0.3-1.1-0.5-1.7c-0.5-1.8-1.1-3.6-1.7-5.5
				c-0.5-1.5-1-3.1-1.5-4.8l-0.7-2.4c-0.2-0.6-0.3-1.1-0.5-1.7c-0.5-1.8-1.1-3.6-1.7-5.5c-0.2-0.6-0.4-1.2-0.6-1.9l-0.8-2.4
				l-0.9-2.9l-0.5-1.7L781,318l-1.2-3.8c-0.3-1.1-0.7-2.2-1-3.4l-0.5-1.7c-0.6-1.8-1.1-3.6-1.7-5.5l-1-3.2h0.1h1.6h2l3-0.1h2h1.5
				h0.2h2l3-0.1h2h1.5h2h1.5h1.5l2,0h1.5l2,0l3-0.1h2l0,0h1.5l2-0.1l3-0.1l2,0l1.6,0h0.1c-0.3,1.1-0.6,2.1-0.9,3.2
				c-0.5,1.9-1,3.7-1.5,5.6l-0.5,1.7l-0.9,3.4l-1,3.9c-0.5,1.9-1,3.7-1.5,5.6c-0.2,0.6-0.3,1.1-0.5,1.7l-0.8,3l-0.7,2.4
				c-0.2,0.6-0.3,1.3-0.5,1.9c-0.5,1.9-1,3.8-1.5,5.6c-0.2,0.6-0.3,1.1-0.5,1.7c-0.2,0.8-0.4,1.6-0.7,2.4c-0.4,1.7-0.9,3.3-1.3,4.9
				c-0.5,1.9-1,3.8-1.5,5.6c-0.2,0.6-0.3,1.2-0.5,1.7s-0.2,0.9-0.3,1.3c0,0.2-0.1,0.3-0.1,0.5c-0.3,1.1-0.6,2.2-0.8,3.3l-0.2,0.5
				c-0.2,0.6-0.3,1.2-0.4,1.7c-0.5,2-1,3.9-1.5,5.6l-0.4,1.8c-0.1,0.3-0.2,0.6-0.2,0.9c-0.2,0.8-0.4,1.6-0.5,2.3
				c-0.1,0.3-0.1,0.6-0.2,0.9c-0.1,0.6-0.3,1.2-0.4,1.6l0,0c-0.2,0.5-0.3,1.1-0.5,1.6c0,0.1,0,0.1-0.1,0.2c-0.1,0.3-0.3,0.7-0.6,0.9
				c-0.2,0.2-0.3,0.2-0.3,0.2s0.2,0.1,0.4-0.1c0.3-0.2,0.6-0.6,0.8-0.9c0.3-0.6,0.6-1.2,0.8-1.8c0.3-0.7,0.5-1.6,0.7-2.5l4.7-16.4
				c2-7,4.3-15.4,7-25l8.8-31.6l1.9-4.2h0.2c1.5-0.2,2.8-1,3.7-2.2c0.5-0.6,0.8-1.4,1.1-2.1c0.2-0.7,0.3-1.5,0.3-2.2
				C829.8,286.9,829.4,285.5,828.7,284.3z M821.5,297.8l-11,0.2l-12.3,0.3l-12.3,0.3l-11,0.3c-0.6-1.2-1.2-2.3-1.8-3.4
				c0.5-0.1,0.9-0.3,1.3-0.6c0.7-0.4,1.2-1,1.6-1.7c0.1-0.1,0.1-0.3,0.2-0.4v0.1c0.1,0.4,0.4,0.8,0.7,1.1c0.9,1.1,2.3,1.7,3.7,1.7
				c0.8,0,1.5-0.2,2.2-0.6c0.6-0.3,1.1-0.7,1.5-1.2c0.3-0.3,0.5-0.7,0.6-1.1c0.1,0.4,0.4,0.8,0.7,1.1c0.4,0.5,0.9,0.9,1.5,1.2
				c0.7,0.3,1.5,0.5,2.2,0.5c0.8,0,1.5-0.2,2.2-0.6c0.6-0.3,1.1-0.7,1.5-1.2c0.3-0.3,0.5-0.7,0.6-1.1c0.1,0.4,0.4,0.8,0.7,1.1
				c0.4,0.5,0.9,0.9,1.5,1.2c0.7,0.3,1.5,0.5,2.2,0.5c0.8,0,1.5-0.2,2.2-0.6c0.6-0.3,1.1-0.7,1.5-1.2c0.3-0.3,0.5-0.7,0.6-1.1
				c0.1,0.4,0.4,0.8,0.7,1.1c0.4,0.5,0.9,0.9,1.5,1.2c0.7,0.3,1.5,0.5,2.2,0.5c0.8,0,1.5-0.2,2.2-0.6c0.6-0.3,1.1-0.7,1.5-1.2
				c0.3-0.3,0.6-0.7,0.7-1.1c0.1,0.4,0.4,0.8,0.7,1.1c0.4,0.5,0.9,0.9,1.5,1.2c2,1,4.4,0.5,5.8-1.3c0.3-0.3,0.5-0.7,0.6-1.2
				c0,0,0-0.1,0-0.1c0.1,0.1,0.1,0.3,0.2,0.4c0.4,0.7,1,1.2,1.7,1.6c0.5,0.3,1,0.5,1.6,0.6L821.5,297.8z"/>
			<path class="st41" d="M785.5,255.7c1.2-0.2,2.1-0.5,2.1-0.8s-1-0.3-2.2-0.1s-2.1,0.4-2.1,0.7S784.3,255.9,785.5,255.7z"/>
			<path class="st42" d="M791.9,254.2c0.2-0.1,0-0.8-0.4-1.5s-0.8-1.3-1-1.1s-0.1,0.8,0.3,1.6S791.7,254.3,791.9,254.2z"/>
			<path class="st43" d="M796.1,255.4c-0.8,0.3-1.3,0.8-1.2,1s0.8,0.1,1.5-0.2s1.3-0.8,1.2-1S796.9,255,796.1,255.4z"/>
			<path class="st36" d="M797.7,250.2c-0.2,0.1,0,0.7,0.4,1.2s0.8,0.8,1,0.7s0-0.7-0.4-1.2S797.8,250,797.7,250.2z"/>
			<path class="st42" d="M803.7,249.8c-0.2,0.1-0.1,0.8,0.3,1.5s0.9,1.1,1.1,1s0-0.8-0.4-1.4S803.9,249.7,803.7,249.8z"/>
			<path class="st41" d="M800.7,259c0.5-0.2,1-0.5,0.9-0.7s-0.6-0.4-1.2-0.1c-0.1,0.1-0.3,0.1-0.4,0.2c-0.1,0.1-0.2,0.2-0.3,0.3
				c-0.1,0.1-0.1,0.2-0.1,0.4c0,0.1,0,0.1,0.1,0.2c0.1,0,0.1,0,0.2,0h0.2c0.1,0,0.2,0,0.3-0.1C800.4,259.2,800.6,259.1,800.7,259z"
				/>
			<path class="st42" d="M784.2,260.1c-0.2,0.1-0.2,0.7,0,1.4s0.5,1.2,0.7,1.2s0.2-0.7,0-1.4S784.5,260,784.2,260.1z"/>
			<path class="st41" d="M786.2,266.5c-0.4,0.7-0.5,1.3-0.3,1.4s0.7-0.3,1-0.9s0.5-1.3,0.3-1.4S786.5,265.8,786.2,266.5z"/>
			<path class="st42" d="M806.2,260.6c-0.1-0.6-0.3-1-0.6-0.9s-0.3,0.5-0.2,1.1s0.3,1,0.6,0.9S806.3,261.1,806.2,260.6z"/>
			<path class="st36" d="M810.7,258.8c-0.2,0.2,0,0.6,0.4,1s0.7,0.6,0.9,0.5s0-0.7-0.3-1.1S810.9,258.6,810.7,258.8z"/>
			<path class="st43" d="M812.6,255.3c-0.8,0.1-1.5,0.4-1.5,0.6c0,0.2,0.7,0.4,1.5,0.3s1.5-0.4,1.5-0.6S813.4,255.2,812.6,255.3z"/>
			<path class="st44" d="M780.3,259.1c0.2-0.2-0.2-0.8-0.8-1.4c-0.3-0.4-0.7-0.6-1.1-0.8l-0.2,0.3c0.2,0.5,0.4,0.9,0.8,1.2
				C779.5,259,780.1,259.3,780.3,259.1z"/>
			<path class="st44" d="M801.9,266.3c-0.3,0.3-0.5,0.6-0.6,1c-0.1,0.3,0,0.5,0.1,0.6s0.3-0.1,0.4-0.3s0.4-0.4,0.7-0.7
				c0.5-0.5,0.9-1.1,0.8-1.3S802.5,265.7,801.9,266.3z"/>
			<path class="st43" d="M806.7,257c0.2-0.1,0.2-0.7,0-1.3s-0.6-1-0.8-0.9s-0.2,0.7,0,1.3S806.5,257,806.7,257z"/>
			<path class="st36" d="M796.2,261.6c-0.2,0-0.5,0.6-0.3,1.4s0.6,1.3,0.8,1.2s0.1-0.7,0-1.4S796.4,261.6,796.2,261.6z"/>
			<path class="st44" d="M792,258.3c-0.2-0.1-0.5,0.4-0.8,1s-0.6,1.1-0.4,1.3s0.3,0.1,0.5-0.1c0.3-0.2,0.5-0.4,0.6-0.7
				c0.2-0.3,0.3-0.6,0.3-1C792.1,258.5,792.1,258.3,792,258.3z"/>
			<path class="st36" d="M787.6,257.7c-0.6,0.2-1,0.5-1,0.8s0.6,0.3,1.2,0.1s1.1-0.6,1-0.8S788.3,257.5,787.6,257.7z"/>
			<path class="st36" d="M781.6,263c-0.2,0-0.4,0.5-0.6,1.1s-0.2,1.1,0,1.3s0.6-0.3,0.8-1S781.8,263,781.6,263z"/>
			<path class="st43" d="M807.9,264.6c-0.3,0-0.5,0-0.8,0.1c-0.2,0.1-0.4,0.2-0.6,0.3c-0.1,0.1-0.3,0.2-0.3,0.3s0.1,0.3,0.3,0.3
				c0.3,0.1,0.6,0,0.8-0.1c0.2-0.1,0.4-0.2,0.6-0.4c0.1-0.1,0.2-0.2,0.2-0.4S808.2,264.6,807.9,264.6z"/>
			<path class="st36" d="M801.8,262.8c0.1-0.2-0.1-0.6-0.5-0.9s-0.8-0.4-1-0.2s0.1,0.6,0.5,0.9S801.7,263,801.8,262.8z"/>
			<path class="st41" d="M794.5,247.9c-0.4,0.1-0.8,0.1-1.2,0.2h0.2C793.8,248.1,794.1,248.1,794.5,247.9z"/>
			<path class="st44" d="M809.3,251.9c0.6,0.5,1.2,0.5,1.3,0.3c0-0.1,0-0.1,0-0.2l-0.1-0.1c-0.4-0.2-0.7-0.5-1.1-0.7l-0.7-0.4
				C808.8,251.2,809,251.6,809.3,251.9z"/>
			<path class="st43" d="M786.8,250.2l-0.8,0.4c0.1-0.1,0.3-0.1,0.4-0.2C786.6,250.3,786.7,250.3,786.8,250.2z"/>
			<path class="st42" d="M815.6,260.1c-0.3-0.8-0.8-1.4-1-1.3s-0.1,0.9,0.2,1.7c0.1,0.4,0.3,0.7,0.5,1c0.1,0.1,0.2,0.2,0.3,0.3
				c0,0,0.1,0.1,0.2,0.1c0,0,0.1,0,0.1,0c0,0,0,0,0-0.1c0,0,0-0.1,0-0.1l0,0l0,0c0,0,0,0,0.1-0.1s0,0,0-0.1c0,0,0-0.1,0-0.1
				c0-0.1,0-0.1,0-0.2C815.9,260.8,815.8,260.5,815.6,260.1z"/>
			<path class="st36" d="M806.4,250.1c0.1,0.1,0.3,0,0.5-0.2l-0.6-0.3C806.3,249.9,806.3,250,806.4,250.1z"/>
			<path class="st44" d="M801.5,248.2L801.5,248.2c-0.4-0.1-0.9-0.2-1.3-0.2c0,0,0,0.1,0,0.1C800.2,248.4,800.8,248.4,801.5,248.2z"
				/>
			<path class="st45" d="M773.3,263.2l-0.1,0.5c-0.1,0.3-0.1,0.6-0.2,0.8c-0.1,0.5-0.1,0.7,0,0.8s0.2-0.2,0.5-0.6l0.4-0.7l0.2-0.5
				l0.3-0.5l0.1-0.2l0.5-1c0.3-0.4,0.5-0.9,0.8-1.4c0.7-1.1,1.5-2.2,2.3-3.2l0,0l0.2-0.3c2.1-2.5,4.5-4.5,7.3-6.1l0.4-0.2l0.8-0.4
				c1.3-0.6,2.7-1.2,4.1-1.6c0.8-0.2,1.5-0.4,2.3-0.5c0.4-0.1,0.8-0.1,1.2-0.2c0.8-0.1,1.6-0.1,2.5-0.2c1.1,0,2.2,0.1,3.3,0.2
				c0.5,0.1,1,0.1,1.4,0.2s0.9,0.2,1.3,0.3l1.4,0.4c0.5,0.1,0.9,0.3,1.3,0.5c0.2,0.1,0.4,0.2,0.7,0.3l0.6,0.3h0.1l0.6,0.3l0.3,0.1
				l0.3,0.2l0.5,0.3l0.7,0.4c0.4,0.2,0.8,0.5,1.1,0.7l0.1,0.1c0.3,0.2,0.6,0.4,0.9,0.7l1,0.8c0.3,0.3,0.6,0.6,0.9,0.8l0.5,0.4
				l0.2,0.2l0.2,0.2l0.8,0.8c0.1,0.1,0.3,0.3,0.4,0.4l0.4,0.4c0.5,0.6,0.9,1.1,1.3,1.6s0.8,1,1.1,1.5s0.6,1,0.9,1.4l0.6,1.1l0.1,0.1
				c0.1,0.2,0.2,0.4,0.3,0.5l0.2,0.5c0.2,0.3,0.3,0.5,0.4,0.7c0.2,0.4,0.4,0.6,0.5,0.5s0.1-0.3,0-0.8c0-0.2-0.1-0.5-0.2-0.8
				l-0.1-0.5c-0.1-0.2-0.1-0.4-0.2-0.6l-0.3-0.9c-0.1-0.2-0.1-0.3-0.2-0.5c-0.2-0.5-0.5-1-0.8-1.6c-0.3-0.6-0.6-1.2-1-1.7
				c-0.4-0.6-0.8-1.3-1.2-1.9l-0.3-0.5c-0.1-0.2-0.3-0.3-0.4-0.5l-0.8-1l-0.2-0.3l-0.2-0.2l-0.5-0.5c-0.3-0.3-0.6-0.6-1-0.9l-1-0.9
				c-0.4-0.3-0.7-0.6-1.1-0.9c-0.4-0.3-0.8-0.6-1.2-0.8l-1.3-0.8l-0.3-0.2l-0.3-0.2l-0.7-0.3c-0.5-0.2-0.9-0.5-1.4-0.6
				c-0.5-0.2-1-0.4-1.5-0.6l-1.5-0.5c-2.1-0.6-4.3-0.9-6.6-0.8c-2.2,0.1-4.4,0.4-6.5,1c-2,0.6-3.9,1.5-5.7,2.5
				c-3.1,1.9-5.7,4.4-7.8,7.4c-0.8,1.2-1.5,2.4-2.2,3.6c-0.3,0.6-0.5,1.1-0.7,1.6s-0.3,0.7-0.4,1c0,0.1-0.1,0.3-0.1,0.4
				S773.3,263,773.3,263.2z"/>
			
				<linearGradient id="SVGID_23_" gradientUnits="userSpaceOnUse" x1="694.4195" y1="566.1668" x2="729.9395" y2="567.1368" gradientTransform="matrix(1 0 0 -1 0 900)">
				<stop  offset="0" style="stop-color:#DE9875"/>
				<stop  offset="6.000000e-02" style="stop-color:#E09F7F"/>
				<stop  offset="0.19" style="stop-color:#E2AA8F"/>
				<stop  offset="0.28" style="stop-color:#E3AE95"/>
				<stop  offset="0.59" style="stop-color:#DE9875"/>
				<stop  offset="0.93" style="stop-color:#C57554"/>
			</linearGradient>
			<path class="st46" d="M706.8,368.6c0.2,1.5,1.1,3,2.3,3.9c1.7,1.5,3.9,1.7,6.7-0.1c1.2-0.6,1.8-2,2.2-3.9
				c2.1-13.7,18.1-60.2,20.1-74.4c0-1.5-1-1.9-2.2-1.1c-14.2,10.6-30.9,10.9-45.5,0.9c-1.2-0.8-2.1-0.4-2.1,1.1
				C690.2,308.9,704.8,355.3,706.8,368.6z"/>
			<g>
				<defs>
					<path id="SVGID_24_" d="M706.8,368.6c0.2,1.5,1.1,3,2.3,3.9c1.7,1.5,3.9,1.7,6.7-0.1c1.2-0.6,1.8-2,2.2-3.9
						c2.1-13.7,18.1-60.2,20.1-74.4c0-1.5-1-1.9-2.2-1.1c-14.2,10.6-30.9,10.9-45.5,0.9c-1.2-0.8-2.1-0.4-2.1,1.1
						C690.2,308.9,704.8,355.3,706.8,368.6z"/>
				</defs>
				<clipPath id="SVGID_25_">
					<use xlink:href="#SVGID_24_"  style="overflow:visible;"/>
				</clipPath>
				<g class="st47">
					<g class="st48">
						<path class="st49" d="M724.9,354.8c-7.5,7.5-16.8,12.5-24.6,19.3l-0.9-0.8c0.7-0.2,1.3-0.4,2-0.7c0.5-0.2,1.6,0.6,0.8,0.9
							s-1.3,0.5-2,0.7c-0.4,0.1-1.5-0.3-0.9-0.8c7.8-6.8,17-11.8,24.5-19.2C724,353.9,725.3,354.4,724.9,354.8L724.9,354.8z"/>
						<path class="st49" d="M728.3,343.1c-3.8,4-8.9,7-13.2,10.3c-4.9,3.6-10.2,6.5-15.3,9.7l-0.8-0.8l1.6-0.4
							c0.5-0.1,1.6,0.6,0.8,0.8c-0.6,0.2-1.3,0.4-1.9,0.4c-0.3,0-1.3-0.4-0.8-0.8c4.4-2.8,9-5.2,13.3-8.3c2.4-1.7,4.7-3.5,7-5.2
							c2.7-2,5.7-3.9,8.1-6.4C727.4,342.2,728.7,342.7,728.3,343.1L728.3,343.1z"/>
						<path class="st49" d="M729.7,333.6c-4.8,3.9-10,7.4-15.4,10.5c-2.5,1.5-5,2.8-7.6,4.1c-1.4,0.7-2.8,1.3-4.3,1.9l-2,0.8
							c-2.3,0.9,0.9-0.3-1.6-0.2c0.4,0,1.4,0.6,0.6,0.6h-0.7c-0.3,0-1.4-0.5-0.7-0.6c5.5-1,11.3-4.9,16.1-7.7
							c5-2.9,9.8-6.2,14.3-9.9C728.8,332.9,730,333.4,729.7,333.6L729.7,333.6z"/>
						<path class="st49" d="M734.1,318.3c-6.1,5.7-12.9,10.6-20.3,14.4c-3.5,1.8-7.2,3.1-10.7,4.7c-3.1,1.4-6,3.4-9,4.9
							c-0.1-0.3-0.2-0.6-0.3-0.9h0.3c0.5-0.2,1.6,0.6,0.8,0.9c-0.4,0.2-0.9,0.2-1.3,0c-0.4-0.1-0.8-0.6-0.3-0.9c2.7-1.3,5.3-3,8-4.4
							c3.5-1.8,7.1-3.1,10.6-4.7c7.6-3.5,14.9-9,21.2-14.9C733.5,317.2,734.7,317.8,734.1,318.3L734.1,318.3z"/>
						<path class="st49" d="M739.1,302.8c-2.7,3-6.4,5.1-9.6,7.3c-4,2.8-8.1,5.4-12.2,7.9c-7.7,4.7-16,8.4-23.7,13.3l-0.9-0.8
							l1.2-0.3c0.5-0.1,1.6,0.7,0.8,0.9l-1.2,0.3c-0.3,0.1-1.6-0.4-0.9-0.8c7.2-4.6,15.1-8.2,22.5-12.6c3.8-2.3,7.5-4.7,11.2-7.1
							c3.8-2.5,8.4-5.1,11.6-8.6C738.3,301.8,739.6,302.3,739.1,302.8L739.1,302.8z"/>
						<path class="st49" d="M730.8,295.9c-6.4,4.8-12.6,9.7-19.4,13.7c-3.6,2.1-7.2,4.2-10.8,6.3c-3.1,1.8-6.5,3.2-9.6,5.1l-0.6-1.1
							c0.2,0,0.5-0.1,0.7-0.1c0.7-0.1,1.3,1,0.5,1.1l-0.7,0.1c-0.6,0.1-1.3-0.6-0.6-1.1c5.9-3.6,12.2-6.5,18.1-10.1
							c7.4-4.5,14.3-9.6,21.3-14.9C730.3,294.6,731.4,295.4,730.8,295.9L730.8,295.9z"/>
						<path class="st49" d="M707.2,298.9c-6.9,4.3-13.5,8.6-20.6,12.4c-0.4,0.2-1.6-0.4-1.1-0.6c7.1-3.8,13.8-8.2,20.6-12.4
							C706.5,298,707.7,298.6,707.2,298.9z"/>
						<path class="st49" d="M697.1,296.2c-2.1,1.3-4.2,2.5-6.4,3.7s-5.1,2.4-6.9,4.4l-0.4-0.5l0.2,0.1c0.9,0.4,0.1,0.7-0.5,0.5
							l-0.2-0.1c-0.1,0-0.6-0.3-0.4-0.5c1.3-1.2,2.8-2.2,4.4-3c3-1.7,6-3.3,8.9-5.1C696.2,295.4,697.3,296,697.1,296.2L697.1,296.2z
							"/>
						<path class="st49" d="M737.6,311.1c-5.5-3.7-9.9-8.8-14.9-13.2l1-0.6l0.5,0.7c0.5,0.8-0.7,1.1-1.1,0.5l-0.5-0.7
							c-0.5-0.7,0.5-1,1-0.6c4.9,4.4,9.4,9.6,14.9,13.2C739.2,310.9,738.2,311.5,737.6,311.1L737.6,311.1z"/>
						<path class="st49" d="M736.7,322.7c-0.7-0.7-1.5-1.4-2.4-1.9c-2-1.6-4-3-6-4.6c-2.9-2.1-5.6-4.4-8.4-6.7
							c-5.9-4.8-11.8-9.7-17.3-15.1c-0.3-0.3,1-0.1,1.2,0.1c0.3,0.3,0.6,0.6,0.8,1c0.1,0.1-1.1,0.1-1.3-0.2l-0.7-0.8l1.2,0.1
							c5.5,5.4,11.5,10.3,17.3,15.1c3.4,2.8,6.8,5.5,10.4,8.1c2.1,1.6,5,3,6.6,5.2C738,323.1,736.9,323.1,736.7,322.7L736.7,322.7z"
							/>
						<path class="st49" d="M729.6,332.9c-3.8-2.1-7.2-5.5-10.8-8.1c-4.3-3.3-8.4-6.8-12.3-10.6c-4-3.7-7.8-7.7-11.6-11.6
							c-3-3.1-5.4-6.7-8.3-9.8c-0.4-0.4,0.9-0.3,1.2,0c2.8,3,5.2,6.6,8.2,9.6c3.8,3.9,7.6,7.9,11.6,11.6c3.4,3.1,6.8,6.2,10.4,9
							c3.9,3.1,8.2,7,12.5,9.4C731.2,333,730,333.1,729.6,332.9L729.6,332.9z"/>
						<path class="st49" d="M726.3,343.7c-3.2-1.6-6.1-4.4-8.8-6.9c-3.6-3.3-7.8-6-11.5-9.2c-3.6-3-7-6.4-10.3-9.7
							c-2.9-2.9-6.7-5.8-8.8-9.4c-0.2-0.3-0.1-0.8,0.3-0.8h0.3c0.7,0,1.3,1,0.5,1.1h-0.3l0.3-0.8c2,3.3,5.9,6.5,8.5,9.1
							c3.4,3.3,6.8,6.6,10.3,9.7c3.1,2.7,6.4,5,9.6,7.5c3.4,2.7,6.5,6.5,10.4,8.4C727.7,343.2,727,344.1,726.3,343.7L726.3,343.7z"
							/>
						<path class="st49" d="M722.5,353.6c-6-3.5-11.3-8.6-16.7-13.1c-5.7-4.7-11.7-9.6-16.2-15.7c-0.4-0.5,0.9-0.5,1.2-0.2l0.2,0.2
							c0.6,0.6-0.7,0.6-1.1,0.3l-0.2-0.2l1.1-0.2c4.2,5.7,9.8,10.3,15,14.7c5.6,4.7,11.2,10.1,17.5,13.7
							C724,353.5,722.9,353.8,722.5,353.6L722.5,353.6z"/>
						<path class="st49" d="M720.3,362.6c-2.1-1.8-4.5-3.2-6.6-4.9c-2.6-2.1-5.2-4.3-7.9-6.3c-5.5-4.1-11.3-8.1-16.5-12.6
							c-0.6-0.5,0.7-0.5,0.9-0.3l0.4,0.2c0.8,0.4-0.4,0.6-0.8,0.4l-0.4-0.2l0.9-0.3c4.9,4.2,10.3,7.9,15.5,11.8c2.7,2,5.4,4.1,8,6.3
							c2.4,2,5.2,3.6,7.5,5.7C721.9,362.9,720.6,362.9,720.3,362.6L720.3,362.6z"/>
						<path class="st49" d="M718.5,371c-8.7-4.2-14.9-13.8-21.7-20.8c-0.3-0.3,1-0.2,1.2,0c6.6,6.8,12.8,16.2,21.2,20.5
							C720.1,371.1,718.8,371.1,718.5,371L718.5,371z"/>
						<path class="st49" d="M720.9,367.1c-2.6,1.2-5,3.4-7.6,4.8c-1.2,0.6-2.3,1.3-3.5,1.9s-3.7,1.3-4.6,2.6c-0.4,0.5-1.6,0-1.2-0.6
							c1.4-2,4.8-2.8,6.7-3.9s3.7-1.9,5.5-3.1c1.3-1,2.6-1.9,3.9-2.7C720.7,365.9,721.7,366.7,720.9,367.1L720.9,367.1z"/>
					</g>
					<path class="st50" d="M740,304.6c-8.6,3-17.7,4.7-26.8,5c-18.1,0.6-26.5-4.4-26.5-4.4s0-14.1,0.6-13.6s52-2.8,52-2.8L740,304.6
						z"/>
				</g>
			</g>
			
				<linearGradient id="SVGID_26_" gradientUnits="userSpaceOnUse" x1="687.07" y1="603.7464" x2="724.05" y2="603.7464" gradientTransform="matrix(1 0 0 -1 0 900)">
				<stop  offset="0" style="stop-color:#DE9875"/>
				<stop  offset="6.000000e-02" style="stop-color:#E09F7F"/>
				<stop  offset="0.19" style="stop-color:#E2AA8F"/>
				<stop  offset="0.28" style="stop-color:#E3AE95"/>
				<stop  offset="0.67" style="stop-color:#DE9875"/>
				<stop  offset="0.93" style="stop-color:#C57554"/>
			</linearGradient>
			<path class="st51" d="M713.3,305.8c8.3-0.2,16.5-1.5,24.4-3.8c1.2-0.5,2.1-1.5,2.5-2.7c0.6-1.5,0.8-3.1,0.5-4.7l-0.3-2.6
				c-0.4-3.1-2-5.3-3.8-5.2c-0.2,0-0.4,0-0.6,0.1c-15,4.4-31,4.8-46.2,1c-0.2,0-0.4-0.1-0.6-0.1c-1.8,0-3.4,2.3-3.6,5.4l-0.2,2.6
				c-0.2,1.6,0.1,3.2,0.7,4.7c0.4,1.2,1.4,2.2,2.6,2.6C696.8,305,705.1,305.9,713.3,305.8z"/>
			<path class="st49" d="M686.5,296c-0.2,2.5,0.9,4.8,2.4,5.2c16,4,32.8,3.6,48.7-1c1.5-0.4,2.5-2.9,2.2-5.3
				c-0.1-0.9-0.2-1.8-0.3-2.6c-0.3-2.5-1.7-4.1-3.2-3.7c-15.2,4.4-31.2,4.8-46.5,1c-1.5-0.4-2.8,1.3-3,3.8
				C686.7,294.3,686.6,295.2,686.5,296z"/>
			
				<linearGradient id="SVGID_27_" gradientUnits="userSpaceOnUse" x1="687.0169" y1="603.735" x2="739.334" y2="603.735" gradientTransform="matrix(1 0 0 -1 0 900)">
				<stop  offset="0" style="stop-color:#DE9875"/>
				<stop  offset="6.000000e-02" style="stop-color:#E09F7F"/>
				<stop  offset="0.19" style="stop-color:#E2AA8F"/>
				<stop  offset="0.28" style="stop-color:#E3AE95"/>
				<stop  offset="0.67" style="stop-color:#DE9875"/>
				<stop  offset="0.93" style="stop-color:#C57554"/>
			</linearGradient>
			<path class="st52" d="M713.3,303.1c8.2-0.2,16.3-1.5,24.2-3.7c0.7-0.3,1.3-0.9,1.5-1.6c0.3-0.8,0.4-1.8,0.3-2.6l-0.3-2.6
				c-0.2-1.8-1.1-3-2.2-3c-0.1,0-0.2,0-0.3,0c-15.2,4.5-31.3,4.8-46.7,1c-0.1,0-0.2,0-0.3,0c-1.1,0-2,1.3-2.1,3.1l-0.2,2.6
				c-0.1,0.9,0.1,1.8,0.4,2.6c0.2,0.7,0.8,1.3,1.5,1.5C696.9,302.3,705.1,303.2,713.3,303.1z"/>
			<path class="st50" d="M689.2,297c4.3,1.4,8.7,2.7,13.1,2.7c1.2-0.1,2.3-0.1,3.5,0c1.1,0.1,2.2,0.6,3.3,0.8c2,0.4,4.1,0.5,6.2,0.4
				l7.9-0.2c2.3,0,4.6-0.2,6.8-0.6c2.9-0.7,5.1-1.9,8.1-2.4c0.8-0.1,1.8-0.1,2.2-0.8c0.3-0.9,0.4-1.8,0.3-2.7c0-1-0.2-1.9-0.6-2.8
				c-0.1-0.6-0.4-1.1-0.7-1.6c-0.8-0.7-1.8-1.1-2.9-1.1c-12.1-0.8-24.2,0.1-36.2,1l-11.9,0.9c-0.3,0-0.6,0.1-0.9,0.2
				c-0.5,0.4-0.9,1-0.9,1.7c-0.1,0.7-0.4,1.6-0.4,2.2C685.9,296,688.1,296.7,689.2,297z"/>
			<path class="st53" d="M684.4,281.6c0.5-0.3,1.2-0.1,1.5,0.5c0.1-0.2,0.3-0.3,0.5-0.4c-0.6-2.1-0.9-4.3-0.9-6.5
				c0-14,12.6-25.4,28.2-25.5s28.3,11.2,28.3,25.2c0,2.5-0.4,5-1.2,7.4c1-0.4,2.1-0.5,3.1-0.1c1,0.7,1.3,2.1,0.6,3.2
				c-0.4,0.6-1.1,1-1.9,1c1.3-0.1,2.5,0.5,3.1,1.6c0.3,1.1-0.4,2.2-1.5,2.5c-0.2,0.1-0.5,0.1-0.7,0.1c5.4,0.4-3.9,5.6-4.5,3.7
				c-0.4,1.8-4.5,3-6.1,2c-0.6,1.6-2,2.5-4.3,2.8c-1,0.2-2,0-2.8-0.5c-0.9,0.5-1.9,0.8-3,0.9c-1.2,0.1-2.3-0.4-3-1.4
				c-1.5,0.8-3.1,1.6-4.8,1.1c-0.8-0.1-1.6-0.5-2.2-1.1c-0.4-0.5-0.7-0.3-1.7,0c-1.9,0.5-3.8,0.8-5.1,0.1c-0.9,0.3-1.9,0.4-2.9,0.3
				c-1.3-0.1-2.6-0.7-3.6-1.7l-0.2,0.1c-1,0.3-2.1,0.1-3-0.5c-0.9,0.4-2,0.4-2.9,0c-0.8-0.4-1.5-1-2-1.8c-1.6,0.5-3.3,0-4.4-1.3
				c-0.2-0.2-0.3-0.5-0.3-0.8c-0.1-0.6,0-0.6-0.1-0.6c-0.2,0-0.4,0-0.5-0.1c-0.9-0.3-1.8-0.8-2.6-1.4c-0.4-1.6-0.9-3.2-1.8-4.7
				C681.4,283.4,682.4,282.6,684.4,281.6"/>
			<g>
				<defs>
					<path id="SVGID_28_" d="M684.4,281.6c0.5-0.3,1.2-0.1,1.5,0.5c0.1-0.2,0.3-0.3,0.5-0.4c-0.6-2.1-0.9-4.3-0.9-6.5
						c0-14,12.6-25.4,28.2-25.5s28.3,11.2,28.3,25.2c0,2.5-0.4,5-1.2,7.4c1-0.4,2.1-0.5,3.1-0.1c1,0.7,1.3,2.1,0.6,3.2
						c-0.4,0.6-1.1,1-1.9,1c1.3-0.1,2.5,0.5,3.1,1.6c0.3,1.1-0.4,2.2-1.5,2.5c-0.2,0.1-0.5,0.1-0.7,0.1c5.4,0.4-3.9,5.6-4.5,3.7
						c-0.4,1.8-4.5,3-6.1,2c-0.6,1.6-2,2.5-4.3,2.8c-1,0.2-2,0-2.8-0.5c-0.9,0.5-1.9,0.8-3,0.9c-1.2,0.1-2.3-0.4-3-1.4
						c-1.5,0.8-3.1,1.6-4.8,1.1c-0.8-0.1-1.6-0.5-2.2-1.1c-0.4-0.5-0.7-0.3-1.7,0c-1.9,0.5-3.8,0.8-5.1,0.1
						c-0.9,0.3-1.9,0.4-2.9,0.3c-1.3-0.1-2.6-0.7-3.6-1.7l-0.2,0.1c-1,0.3-2.1,0.1-3-0.5c-0.9,0.4-2,0.4-2.9,0c-0.8-0.4-1.5-1-2-1.8
						c-1.6,0.5-3.3,0-4.4-1.3c-0.2-0.2-0.3-0.5-0.3-0.8c-0.1-0.6,0-0.6-0.1-0.6c-0.2,0-0.4,0-0.5-0.1c-0.9-0.3-1.8-0.8-2.6-1.4
						c-0.4-1.6-0.9-3.2-1.8-4.7C681.4,283.4,682.4,282.6,684.4,281.6"/>
				</defs>
				<clipPath id="SVGID_29_">
					<use xlink:href="#SVGID_28_"  style="overflow:visible;"/>
				</clipPath>
				<g class="st54">
					<path class="st55" d="M713.8,249.7c10.4,1.2,23,5.8,21.2,21.7c-1.4,12.8-11.5,13.4-15.9,13.9c-0.4,0-0.9,0.1-1.3,0.1
						c-1.2,0-2.4-0.2-3.6-0.5c-0.8-0.3-1.6-0.5-2.5-0.5c-0.3,0-0.5,0-0.8,0.1c-1.9,0.6-3.8,0.9-5.8,0.9c-1.5,0-2.7-0.2-3.2-0.9
						c-1-1.3-7.2-2.5-10.1-2.5c-0.5,0-0.9,0-1.4,0.2c-0.2,0.1-0.5,0.2-0.7,0.2c-1.1,0-2-1.1-2.7-1.3h-0.2c-0.3,0-0.5,0.1-0.7,0.3
						l0.2,0.5l0,0c-0.2,0.1-0.4,0.2-0.5,0.4c-0.1-0.2-0.3-0.4-0.6-0.5c-0.1,0-0.1,0-0.2,0c-0.7,0,2,5.2,5,5.2c0.5,0,0.9-0.1,1.3-0.4
						c1.1-0.7,2.4-1.2,3.7-1.2c1.2-0.1,2.4,0.6,3,1.7c0.4,0.9,2.3,1.2,4.2,1.2c1.5,0,3-0.1,4-0.2c2-0.2,7.8-0.7,10-0.7
						c0.2,0,0.4,0,0.6,0c1.2,0.1-0.3-0.1,2.2,0.3c1.8,0.3,3.2,2.7,5.6,2.7c0.9,0,3.1-0.6,3.1-1.3c0-2.5,1.2-2.7,4-3.2
						c0.2,0,1.6,0.1,1.9,0.1c0.8,0,0.7-1.3,1.5-1c0.8,0.2,1.5,0.4,2.3,0.5c0.7,0,1.3-0.3,1.7-0.8c0.6-0.9,1.4-1.7,2.3-2.4
						c-0.3,0.1-0.6,0.1-0.9,0.3l0,0c0.8-2.4,1.2-4.9,1.2-7.4l0,0C742,261,729.4,249.7,713.8,249.7"/>
				</g>
			</g>
			<path class="st56" d="M697,252.9c-4.6,3.7-8,8.7-9.9,14.4c-2.3,7.2,5.2,6.1,4.9,1.1c-0.1-2.4-0.8-4.8-0.2-6.5c0.7-1.8,2-4,4-4.8
				c3.8-1.3,8,0,6.1,6.9c-0.9,3.5-3.4,5.4-4.2,8.1s0,6,2.6,6.5c4.8,1,6-4.9,5-9.3c-1.2-5.3-3.2-9.4,2.8-11s9.8,3.5,9.3,11.2
				s5.7,11.5,8,7.3c2-3.6,0.1-7.7-3.5-11.5s-8-6.9-3.8-9.2s9.7,4.2,12,9.8s7,3.3,4.3-0.6c-1-1.4-2.4-2-3.8-3.4
				c-2.5-2.5-4.9-4.8-4.9-6.3c0-2.4,3.9-3,6,1.7c3,6.7,5.7,2.3,4.3,0.6S718.6,239.7,697,252.9z"/>
			<g class="st57">
				<path class="st58" d="M720.7,247.3c0,0,2,0.1,2.5,3.2c0.6,4.3-9.3,7.6-11,1.7C710.2,245.1,715.8,244.1,720.7,247.3z"/>
			</g>
			<path class="st59" d="M720.1,249.8c-1.3,5.6-11.4,5.7-11.4-2.1C708.5,238.8,722.2,240.5,720.1,249.8z"/>
			<path class="st59" d="M715.9,253.9c-3.2,0.9-6.5-1-7.3-4.2c-0.2-0.6-0.2-1.3-0.2-1.9c0-3.7,2.3-5.6,4.5-6
				c3.4-0.8,6.8,1.3,7.6,4.7c0.3,1.1,0.2,2.3-0.1,3.4C719.8,251.9,718.1,253.5,715.9,253.9z M712.9,242.3c-2.5,0.5-4.1,2.6-4,5.4
				c-0.1,1.6,0.6,3.2,1.8,4.4c1.4,1.2,3.3,1.7,5.1,1.3c1.9-0.3,3.5-1.7,4-3.6c0.6-1.9,0.2-4-1.1-5.5
				C717.3,242.5,715.1,241.8,712.9,242.3L712.9,242.3z"/>
			<path class="st60" d="M714.8,244.6c0-0.1-4.4-5.8,0.1-14.1l0.5,0.3c-4.3,7.9-0.2,13.3-0.1,13.4L714.8,244.6z"/>
			<path class="st61" d="M710.3,244.1c0.9-1.6,1.9,0,1.7,0.8c-0.3,0.7-0.6,1.5-0.8,2.3C711,248.8,708,248.1,710.3,244.1z"/>
			<g class="st48">
				<path class="st62" d="M708.8,246.8c0,0,4.2,8.8,10.3,5.1c-0.7,0.8-1.6,1.4-2.6,1.8C713.4,254.6,708.9,254.2,708.8,246.8z"/>
			</g>
			<path class="st63" d="M703.8,253.3c-0.5,0.6-1.1,1.2-1.7,1.7c-0.2,0.2-0.5,0.2-0.7,0.1c-0.2,0-0.6-0.2-0.6-0.5v-0.2
				c0-0.7,1.3-0.5,1.3,0.1v0.2l-1.3-0.4c0.6-0.5,1.2-1.1,1.7-1.7C702.8,252.2,704.1,252.7,703.8,253.3L703.8,253.3z"/>
			<path class="st63" d="M712.8,258.3c-0.7-0.5-1.2-1.2-1.6-2c-0.1-0.2,0-0.5,0.2-0.6c0.1,0,0.1,0,0.2,0c0.3-0.1,0.7,0.1,0.9,0.4
				c0.1,0.2,0.3,0.5,0.4,0.7l0.3,0.4l0.2,0.2c0,0,0.1,0.1,0,0c0.2,0.1,0.5,0.4,0.3,0.7C713.5,258.3,713.1,258.4,712.8,258.3
				L712.8,258.3z"/>
			<path class="st63" d="M726.1,253.6c-0.5,0.5-1,0.8-1.5,1.2c-0.3,0.1-0.7,0.1-0.9-0.1c-0.2-0.1-0.4-0.4-0.1-0.6
				c0.6-0.3,1.1-0.7,1.5-1.1C725.4,252.6,726.7,253.2,726.1,253.6L726.1,253.6z"/>
			<path class="st63" d="M725.3,261.4c-0.3-0.5-0.7-1-1-1.5c-0.2-0.3,0.2-0.5,0.4-0.5c0.3,0,0.7,0.1,0.9,0.4c0.3,0.5,0.7,1,1,1.5
				c0.2,0.3-0.2,0.5-0.4,0.5C725.8,261.8,725.5,261.6,725.3,261.4L725.3,261.4z"/>
			<path class="st63" d="M718.8,253.4c0,0.3,0.1,0.6,0.2,0.9c0.1,0.3-0.5,0.2-0.5,0.2c-0.3,0-0.7-0.1-0.8-0.4
				c-0.1-0.3-0.2-0.7-0.2-1C717.5,252.8,718.8,253,718.8,253.4L718.8,253.4z"/>
			<path class="st63" d="M719.4,263.6c-0.6,0.7-1.3,1.2-2.1,1.6c-0.3,0.1-0.7,0.1-0.9-0.1c-0.2-0.1-0.4-0.4-0.1-0.5
				c0.7-0.4,1.4-0.9,1.9-1.5C718.5,262.7,719.8,263.2,719.4,263.6z"/>
			<path class="st63" d="M705.4,264c-0.4-0.8-1-1.5-1.7-2.1c-0.2-0.2-0.2-0.4,0.1-0.5c0.3-0.1,0.7,0,0.9,0.3
				c0.7,0.7,1.3,1.4,1.8,2.3C707,264.5,705.7,264.4,705.4,264L705.4,264z"/>
			<path class="st63" d="M696.4,256.5c-0.1,0.4-0.5,0.8-0.9,0.9c-0.3,0.2-0.8,0.3-1,0.8c-0.1,0.3-1.4-0.1-1.3-0.4
				c0.3-0.9,1.6-0.7,1.8-1.7C695.1,255.9,696.4,256.2,696.4,256.5L696.4,256.5z"/>
			<path class="st63" d="M731.7,253.9c0.3,0.8,0.8,1.5,1.5,2c0.2,0.2,0.3,0.5,0.1,0.7c0,0,0,0.1-0.1,0.1c-0.3,0.2-0.7,0.2-1,0
				c-1-0.7-1.7-1.7-2-2.8C730.2,253.1,731.5,253.3,731.7,253.9L731.7,253.9z"/>
			<path class="st64" d="M698.2,256.5c-1.3,0-1.4-2.2,0-2.3S699.6,256.5,698.2,256.5z"/>
			<path class="st64" d="M699.9,264.1c-1.3,0-1.3-2.2,0-2.2S701.3,264.1,699.9,264.1z"/>
			<path class="st64" d="M707.3,255.4c-1.3,0-1.3-2.2,0-2.3S708.6,255.3,707.3,255.4z"/>
			<path class="st64" d="M719,258.1c-1.3,0-1.3-2.2,0-2.2S720.4,258,719,258.1z"/>
			<path class="st64" d="M722.5,251.3c0,0.1,0,0.1,0,0.2c0,0.6-0.4,1-1,1s-1-0.4-1-1c0-0.1,0-0.1,0-0.2c0-0.6,0.4-1,1-1
				S722.5,250.7,722.5,251.3L722.5,251.3z"/>
			<path class="st64" d="M732.3,264.7c-1.3,0-1.4-2.2,0-2.3S733.6,264.7,732.3,264.7z"/>
			<path class="st64" d="M729.3,259.4c-1.3,0-1.4-2.2,0-2.3S730.6,259.3,729.3,259.4z"/>
			<path class="st64" d="M712.2,267.6c-1.3,0-1.4-2.2,0-2.3S713.6,267.5,712.2,267.6z"/>
			<path class="st64" d="M710.6,260.1v0.2c0,0.6-0.4,1-1,1c-0.6,0-1-0.4-1-1c0-0.1,0-0.1,0-0.2c0-0.6,0.4-1,1-1
				C710.1,259.1,710.6,259.6,710.6,260.1z"/>
			<path class="st64" d="M721.6,269.2h-0.2c-1.3,0-1.3-2.2,0-2.2h0.2C722.9,267,723,269.2,721.6,269.2L721.6,269.2z"/>
			
				<linearGradient id="SVGID_30_" gradientUnits="userSpaceOnUse" x1="864.9118" y1="565.0446" x2="900.7819" y2="566.0347" gradientTransform="matrix(1 0 0 -1 0 900)">
				<stop  offset="0" style="stop-color:#DE9875"/>
				<stop  offset="6.000000e-02" style="stop-color:#E09F7F"/>
				<stop  offset="0.19" style="stop-color:#E2AA8F"/>
				<stop  offset="0.28" style="stop-color:#E3AE95"/>
				<stop  offset="0.59" style="stop-color:#DE9875"/>
				<stop  offset="0.93" style="stop-color:#C57554"/>
			</linearGradient>
			<path class="st65" d="M877.4,370c0.2,1.6,1.1,3,2.3,4c1.7,1.6,4,1.7,6.8-0.1c1.2-0.6,1.8-2.1,2.2-3.9
				c2.2-13.8,18.3-60.8,20.3-75.1c0-1.5-1-2-2.2-1.1c-14.4,10.7-31.3,11-46,1c-1.2-0.8-2.2-0.4-2.1,1.2
				C860.7,309.6,875.3,356.5,877.4,370z"/>
			<g>
				<defs>
					<path id="SVGID_31_" d="M877.4,370c0.2,1.6,1.1,3,2.3,4c1.7,1.6,4,1.7,6.8-0.1c1.2-0.6,1.8-2.1,2.2-3.9
						c2.2-13.8,18.3-60.8,20.3-75.1c0-1.5-1-2-2.2-1.1c-14.4,10.7-31.3,11-46,1c-1.2-0.8-2.2-0.4-2.1,1.2
						C860.7,309.6,875.3,356.5,877.4,370z"/>
				</defs>
				<clipPath id="SVGID_32_">
					<use xlink:href="#SVGID_31_"  style="overflow:visible;"/>
				</clipPath>
				<g class="st66">
					<g class="st48">
						<path class="st49" d="M895.7,356.1c-7.5,7.5-16.9,12.6-24.9,19.5c-0.3-0.3-0.6-0.5-0.9-0.8c0.7-0.2,1.3-0.4,2-0.7
							c0.5-0.2,1.6,0.6,0.8,0.9s-1.3,0.5-2,0.7c-0.4,0.1-1.5-0.3-0.9-0.8c7.9-6.9,17.2-11.9,24.7-19.4
							C894.8,355.1,896.1,355.6,895.7,356.1L895.7,356.1z"/>
						<path class="st49" d="M899.1,344.3c-3.8,4-9,7.1-13.4,10.4c-5,3.6-10.3,6.6-15.4,9.8l-0.8-0.8l1.7-0.4
							c0.5-0.1,1.6,0.6,0.8,0.8c-0.6,0.2-1.3,0.4-2,0.4c-0.3,0-1.4-0.4-0.8-0.8c4.5-2.8,9.1-5.3,13.4-8.3c2.4-1.7,4.7-3.5,7.1-5.3
							c2.7-2,5.8-3.9,8.1-6.4C898.2,343.3,899.5,343.9,899.1,344.3L899.1,344.3z"/>
						<path class="st49" d="M900.6,334.6c-4.9,3.9-10.1,7.5-15.5,10.6c-2.5,1.5-5.1,2.8-7.7,4.1c-1.4,0.7-2.9,1.4-4.3,2l-2,0.8
							c-2.3,0.9,1-0.3-1.6-0.2c0.4,0,1.5,0.6,0.6,0.6h-0.7c-0.3,0-1.4-0.5-0.7-0.6c5.6-1,11.4-4.9,16.3-7.8c5.1-2.9,9.9-6.3,14.4-10
							C899.7,333.8,900.8,334.4,900.6,334.6L900.6,334.6z"/>
						<path class="st49" d="M905,319.2c-6.1,5.8-13,10.7-20.5,14.6c-3.5,1.8-7.3,3.1-10.8,4.8c-3.1,1.5-6,3.5-9.1,4.9
							c-0.1-0.3-0.2-0.6-0.3-0.9h0.3c0.5-0.2,1.6,0.6,0.8,0.9c-0.4,0.2-0.9,0.2-1.3,0c-0.4-0.1-0.9-0.7-0.3-0.9
							c2.7-1.3,5.4-3,8.1-4.4c3.5-1.8,7.2-3.1,10.7-4.7c7.7-3.5,15.1-9.1,21.4-15C904.4,318,905.6,318.7,905,319.2L905,319.2z"/>
						<path class="st49" d="M910.1,303.5c-2.7,3-6.5,5.1-9.7,7.4c-4,2.8-8.2,5.4-12.3,8c-7.8,4.8-16.2,8.5-23.9,13.4l-0.9-0.8
							l1.2-0.3c0.5-0.1,1.6,0.7,0.8,0.9l-1.2,0.3c-0.3,0.1-1.6-0.4-0.9-0.8c7.3-4.7,15.3-8.3,22.7-12.7c3.8-2.3,7.5-4.7,11.3-7.2
							s8.5-5.1,11.7-8.7C909.2,302.5,910.5,303.1,910.1,303.5L910.1,303.5z"/>
						<path class="st49" d="M901.6,296.5c-6.4,4.8-12.7,9.8-19.6,13.8c-3.6,2.2-7.2,4.3-10.8,6.4c-3.2,1.9-6.5,3.2-9.7,5.1l-0.6-1.1
							l0.7-0.1c0.7-0.1,1.3,1,0.5,1.1l-0.7,0.1c-0.6,0.1-1.3-0.6-0.6-1.1c6-3.6,12.3-6.5,18.3-10.2c7.5-4.6,14.5-9.7,21.5-15
							C901.1,295.3,902.2,296,901.6,296.5L901.6,296.5z"/>
						<path class="st49" d="M877.9,299.6c-7,4.3-13.7,8.7-20.8,12.5c-0.4,0.2-1.6-0.4-1.1-0.6c7.2-3.9,13.9-8.2,20.8-12.5
							C877.1,298.7,878.4,299.3,877.9,299.6L877.9,299.6z"/>
						<path class="st49" d="M867.6,296.8c-2.1,1.3-4.3,2.5-6.4,3.7s-5.2,2.4-7,4.4l-0.4-0.5l0.2,0.1c0.9,0.4,0.1,0.7-0.5,0.5
							l-0.2-0.1c-0.1,0-0.6-0.3-0.4-0.5c1.3-1.2,2.8-2.2,4.5-3c3-1.7,6-3.3,9-5.1C866.8,296.1,867.9,296.7,867.6,296.8L867.6,296.8z
							"/>
						<path class="st49" d="M908.5,311.9c-5.5-3.7-10-8.9-15-13.4l1-0.6c0.2,0.2,0.3,0.5,0.5,0.7c0.5,0.8-0.7,1.1-1.1,0.5l-0.5-0.7
							c-0.5-0.7,0.6-1,1-0.6c5,4.5,9.5,9.7,15,13.4C910.1,311.7,909,312.3,908.5,311.9z"/>
						<path class="st49" d="M907.6,323.6c-0.7-0.7-1.6-1.4-2.5-1.9c-2-1.6-4-3.1-6-4.6c-2.9-2.2-5.7-4.5-8.5-6.8
							c-6-4.9-12-9.8-17.5-15.3c-0.3-0.3,1-0.1,1.2,0.1c0.3,0.3,0.6,0.6,0.8,1c0.1,0.1-1.1,0.1-1.3-0.2l-0.7-0.8l1.2,0.1
							c5.6,5.4,11.6,10.4,17.5,15.3c3.4,2.8,6.9,5.6,10.5,8.2c2.1,1.6,5.1,3,6.7,5.2C909,324,907.8,324,907.6,323.6L907.6,323.6z"/>
						<path class="st49" d="M900.4,333.9c-3.9-2.1-7.3-5.5-10.9-8.1c-4.3-3.3-8.5-6.9-12.5-10.7c-4.1-3.7-7.9-7.8-11.8-11.7
							c-3-3.1-5.5-6.8-8.4-9.9c-0.4-0.4,1-0.3,1.2,0c2.9,3,5.3,6.6,8.2,9.7c3.9,4,7.7,8,11.8,11.7c3.4,3.2,6.9,6.3,10.5,9.1
							c4,3.2,8.3,7.1,12.6,9.5C902,334,900.8,334.1,900.4,333.9L900.4,333.9z"/>
						<path class="st49" d="M897.1,344.9c-3.3-1.6-6.2-4.5-8.9-7c-3.7-3.4-7.8-6-11.6-9.3c-3.6-3.1-7-6.5-10.4-9.8
							c-2.9-2.9-6.7-5.8-8.9-9.4c-0.2-0.3-0.1-0.8,0.3-0.8h0.3c0.7-0.1,1.4,1,0.5,1.1H858c0.1-0.3,0.2-0.5,0.3-0.8
							c2,3.3,6,6.6,8.6,9.2c3.4,3.3,6.8,6.7,10.4,9.8c3.1,2.7,6.5,5,9.7,7.6c3.5,2.7,6.5,6.5,10.5,8.5
							C898.5,344.3,897.8,345.2,897.1,344.9L897.1,344.9z"/>
						<path class="st49" d="M893.2,354.8c-6.1-3.5-11.4-8.7-16.8-13.2c-5.8-4.7-11.8-9.7-16.4-15.9c-0.4-0.5,0.9-0.5,1.2-0.2
							l0.2,0.2c0.6,0.6-0.7,0.6-1.1,0.3l-0.2-0.2l1.2-0.2c4.3,5.7,9.8,10.4,15.2,14.8c5.7,4.7,11.3,10.2,17.6,13.8
							C894.9,354.8,893.7,355.1,893.2,354.8L893.2,354.8z"/>
						<path class="st49" d="M891,363.9c-2.1-1.8-4.5-3.2-6.7-4.9c-2.7-2.1-5.2-4.3-7.9-6.4c-5.5-4.2-11.4-8.1-16.7-12.7
							c-0.6-0.5,0.7-0.5,0.9-0.3l0.4,0.2c0.8,0.4-0.4,0.6-0.8,0.4l-0.4-0.2l0.9-0.3c4.9,4.3,10.5,8,15.6,11.9c2.7,2.1,5.4,4.2,8,6.4
							c2.4,2.1,5.2,3.6,7.6,5.7C892.6,364.2,891.3,364.2,891,363.9L891,363.9z"/>
						<path class="st49" d="M889.2,372.4c-8.8-4.2-15.1-13.9-21.9-21c-0.3-0.3,1-0.2,1.2,0c6.7,6.8,12.9,16.4,21.5,20.6
							C890.8,372.5,889.6,372.5,889.2,372.4L889.2,372.4z"/>
						<path class="st49" d="M891.7,368.4c-2.7,1.2-5,3.4-7.7,4.8c-1.2,0.6-2.3,1.3-3.5,1.9s-3.8,1.3-4.7,2.6c-0.4,0.5-1.6,0-1.2-0.6
							c1.4-2,4.8-2.8,6.8-3.9s3.7-2,5.5-3.1c1.3-1,2.6-1.9,4-2.7C891.4,367.2,892.4,368.1,891.7,368.4L891.7,368.4z"/>
					</g>
					<path class="st50" d="M911,305.4c-8.7,3-17.9,4.8-27.1,5.1c-18.3,0.6-26.8-4.4-26.8-4.4s0-14.2,0.6-13.7s52.5-2.8,52.5-2.8
						L911,305.4z"/>
				</g>
			</g>
			
				<linearGradient id="SVGID_33_" gradientUnits="userSpaceOnUse" x1="857.48" y1="603.0801" x2="894.83" y2="603.0801" gradientTransform="matrix(1 0 0 -1 0 900)">
				<stop  offset="0" style="stop-color:#DE9875"/>
				<stop  offset="6.000000e-02" style="stop-color:#E09F7F"/>
				<stop  offset="0.19" style="stop-color:#E2AA8F"/>
				<stop  offset="0.28" style="stop-color:#E3AE95"/>
				<stop  offset="0.67" style="stop-color:#DE9875"/>
				<stop  offset="0.93" style="stop-color:#C57554"/>
			</linearGradient>
			<path class="st67" d="M884,306.5c8.4-0.2,16.7-1.5,24.7-3.8c1.2-0.5,2.2-1.5,2.5-2.8c0.6-1.5,0.8-3.2,0.6-4.8l-0.3-2.6
				c-0.4-3.1-2-5.3-3.9-5.3c-0.2,0-0.4,0-0.6,0.1c-15.2,4.4-31.3,4.8-46.7,1c-0.2,0-0.4-0.1-0.6-0.1c-1.9,0-3.4,2.3-3.7,5.4
				l-0.2,2.7c-0.2,1.6,0.1,3.2,0.7,4.7c0.4,1.2,1.4,2.2,2.7,2.6C867.3,305.8,875.6,306.7,884,306.5z"/>
			<path class="st49" d="M856.9,296.7c-0.2,2.5,0.9,4.9,2.4,5.3c16.2,4,33.1,3.6,49.2-1.1c1.5-0.4,2.5-2.9,2.2-5.4
				c-0.1-0.9-0.2-1.8-0.3-2.6c-0.3-2.5-1.7-4.1-3.2-3.7c-15.3,4.5-31.5,4.8-47,1c-1.5-0.4-2.8,1.3-3.1,3.8
				C857.1,294.9,857,295.8,856.9,296.7z"/>
			
				<linearGradient id="SVGID_34_" gradientUnits="userSpaceOnUse" x1="857.4351" y1="603.0756" x2="910.2693" y2="603.0756" gradientTransform="matrix(1 0 0 -1 0 900)">
				<stop  offset="0" style="stop-color:#DE9875"/>
				<stop  offset="6.000000e-02" style="stop-color:#E09F7F"/>
				<stop  offset="0.19" style="stop-color:#E2AA8F"/>
				<stop  offset="0.28" style="stop-color:#E3AE95"/>
				<stop  offset="0.67" style="stop-color:#DE9875"/>
				<stop  offset="0.93" style="stop-color:#C57554"/>
			</linearGradient>
			<path class="st68" d="M884,303.8c8.3-0.2,16.5-1.5,24.4-3.8c0.7-0.3,1.3-0.9,1.5-1.6c0.3-0.8,0.4-1.8,0.3-2.7l-0.3-2.6
				c-0.2-1.8-1.2-3.1-2.2-3c-0.1,0-0.2,0-0.3,0c-15.4,4.5-31.6,4.8-47.2,1c-0.1,0-0.2,0-0.3,0c-1.1,0-2,1.3-2.1,3.1l-0.2,2.6
				c-0.1,0.9,0.1,1.8,0.4,2.7c0.2,0.7,0.8,1.3,1.6,1.5C867.5,303,875.7,303.9,884,303.8z"/>
			<path class="st50" d="M859.6,297.7c4.3,1.4,8.8,2.8,13.3,2.7c1.2-0.1,2.3-0.1,3.5,0c1.1,0.2,2.2,0.6,3.3,0.8
				c2,0.4,4.1,0.5,6.2,0.4l8-0.2c2.3,0,4.6-0.2,6.9-0.6c3-0.7,5.2-1.9,8.2-2.4c0.8-0.1,1.8-0.1,2.2-0.8c0.3-0.9,0.4-1.8,0.3-2.8
				c0-1-0.2-2-0.6-2.9c-0.1-0.6-0.4-1.2-0.8-1.6c-0.8-0.8-1.9-1.2-3-1.1c-12.2-0.8-24.4,0.1-36.6,1l-12,0.9
				c-0.9-0.1-1.7,0.6-1.8,1.6c0,0.1,0,0.2,0,0.4c-0.1,0.7-0.4,1.6-0.4,2.2C856.3,296.7,858.5,297.4,859.6,297.7z"/>
			<path class="st69" d="M854.3,282.1c0.5-0.3,1.2-0.1,1.5,0.5c0.1-0.2,0.3-0.3,0.5-0.4c-0.6-2.1-1-4.3-1-6.5
				c0-14.1,12.7-25.7,28.5-25.8s28.5,11.3,28.6,25.4c0,2.6-0.4,5.1-1.2,7.5c1-0.4,2.1-0.5,3.1-0.1c1,0.7,1.3,2.2,0.6,3.2
				c-0.4,0.6-1.1,1-1.9,1c1.3-0.1,2.5,0.5,3.1,1.6c0.3,1.1-0.4,2.2-1.5,2.5c-0.2,0.1-0.5,0.1-0.7,0.1c5.5,0.4-3.9,5.7-4.6,3.8
				c-0.4,1.8-4.6,3-6.1,2c-0.6,1.6-2,2.5-4.4,2.9c-1,0.2-2,0-2.8-0.5c-0.9,0.5-1.9,0.9-3,0.9c-1.2,0.1-2.4-0.4-3-1.5
				c-1.5,0.8-3.1,1.6-4.9,1.1c-0.8-0.1-1.6-0.5-2.2-1.2c-0.4-0.5-0.7-0.3-1.7,0c-2,0.5-3.9,0.8-5.1,0.1c-0.9,0.3-1.9,0.4-2.9,0.3
				c-1.4-0.1-2.6-0.7-3.6-1.7l-0.2,0.1c-1,0.3-2.2,0.1-3.1-0.5c-1,0.4-2,0.4-3,0c-0.8-0.4-1.5-1-2-1.8c-1.6,0.5-3.4,0-4.4-1.4
				c-0.2-0.2-0.3-0.5-0.3-0.8c-0.1-0.7,0-0.6-0.1-0.6c-0.2,0-0.4,0-0.5-0.1c-1-0.3-1.8-0.8-2.6-1.4c-0.4-1.7-1-3.3-1.8-4.7
				C851.3,284,852.3,283.1,854.3,282.1"/>
			<g>
				<defs>
					<path id="SVGID_35_" d="M854.3,282.1c0.5-0.3,1.2-0.1,1.5,0.5c0.1-0.2,0.3-0.3,0.5-0.4c-0.6-2.1-1-4.3-1-6.5
						c0-14.1,12.7-25.7,28.5-25.8s28.5,11.3,28.6,25.4c0,2.6-0.4,5.1-1.2,7.5c1-0.4,2.1-0.5,3.1-0.1c1,0.7,1.3,2.2,0.6,3.2
						c-0.4,0.6-1.1,1-1.9,1c1.3-0.1,2.5,0.5,3.1,1.6c0.3,1.1-0.4,2.2-1.5,2.5c-0.2,0.1-0.5,0.1-0.7,0.1c5.5,0.4-3.9,5.7-4.6,3.8
						c-0.4,1.8-4.6,3-6.1,2c-0.6,1.6-2,2.5-4.4,2.9c-1,0.2-2,0-2.8-0.5c-0.9,0.5-1.9,0.9-3,0.9c-1.2,0.1-2.4-0.4-3-1.5
						c-1.5,0.8-3.1,1.6-4.9,1.1c-0.8-0.1-1.6-0.5-2.2-1.2c-0.4-0.5-0.7-0.3-1.7,0c-2,0.5-3.9,0.8-5.1,0.1c-0.9,0.3-1.9,0.4-2.9,0.3
						c-1.4-0.1-2.6-0.7-3.6-1.7l-0.2,0.1c-1,0.3-2.2,0.1-3.1-0.5c-1,0.4-2,0.4-3,0c-0.8-0.4-1.5-1-2-1.8c-1.6,0.5-3.4,0-4.4-1.4
						c-0.2-0.2-0.3-0.5-0.3-0.8c-0.1-0.7,0-0.6-0.1-0.6c-0.2,0-0.4,0-0.5-0.1c-1-0.3-1.8-0.8-2.6-1.4c-0.4-1.7-1-3.3-1.8-4.7
						C851.3,284,852.3,283.1,854.3,282.1"/>
				</defs>
				<clipPath id="SVGID_36_">
					<use xlink:href="#SVGID_35_"  style="overflow:visible;"/>
				</clipPath>
				<g class="st70">
					<path class="st71" d="M884.1,249.9c10.5,1.2,23.3,5.9,21.5,21.9c-1.5,12.9-11.7,13.5-16,14c-0.4,0-0.9,0.1-1.3,0.1
						c-1.2,0-2.4-0.2-3.6-0.5c-0.8-0.3-1.7-0.5-2.5-0.5c-0.3,0-0.5,0-0.8,0.1c-1.9,0.6-3.8,0.9-5.8,0.9c-1.5,0-2.7-0.2-3.3-0.9
						c-1-1.4-7.3-2.5-10.2-2.5c-0.5,0-1,0-1.4,0.2c-0.2,0.1-0.5,0.2-0.7,0.2c-1.1,0-2.1-1.1-2.7-1.3c-0.1,0-0.2,0-0.2,0
						c-0.3,0-0.5,0.1-0.7,0.3l0.2,0.5l0,0c-0.2,0.1-0.4,0.2-0.5,0.4c-0.1-0.2-0.3-0.4-0.6-0.5h-0.2c-0.7,0,2,5.3,5,5.3
						c0.5,0,1-0.1,1.4-0.4c1.1-0.7,2.4-1.2,3.8-1.2c1.2-0.1,2.4,0.6,3,1.7c0.4,0.9,2.3,1.2,4.3,1.2c1.5,0,3-0.1,4-0.3
						c2.1-0.2,7.9-0.7,10.1-0.7c0.2,0,0.4,0,0.6,0c1.2,0.1-0.3-0.1,2.2,0.3c1.8,0.3,6.8,2.2,9.3,2.2c0.9,0,1.5-0.3,1.5-0.9
						c0-2.5-0.6-3.9,2.2-4.4c0.2,0,0.5-0.1,0.8-0.1c0.9,0,1.8,0.2,2.6,0.5c0.8,0.2,1.6,0.4,2.4,0.5c0.7,0,1.3-0.3,1.7-0.8
						c0.7-0.9,1.4-1.7,2.3-2.4c-0.3,0.1-0.6,0.1-0.9,0.3l0,0c0.8-2.4,1.2-4.9,1.2-7.5l0,0C912.4,261.2,899.7,249.9,884.1,249.9"/>
				</g>
			</g>
			<path class="st72" d="M879.8,249.1c0,0-9.3,0.2-18.7,10.3c-7.9,8.5-6.1,14.3-3.2,13.2c2.3-0.9,2.3-3.6,3.7-7.5s6-12.3,11.6-11.4
				s-0.4,7.9-0.9,12s2.6,7.2,4,1.2s0.8-10,2.7-12.1c0.7-0.8,4.1-1.9,5,4.9c0.9,6.8-4.2,17.3,0.2,19.3s3.7-5.2,2.5-12.1
				s-0.8-12.6,2.5-12.1s6,8.8,5.9,16s7.3,6.9,5.6,0.7s-6.5-12.9-7.9-15.8s5.8-4.7,9.8,4c2,4.4,4.6,11,6.5,10.3
				c4.2-1.5-1.1-10.6-6.5-14.8S888.1,247.5,879.8,249.1z"/>
			<g class="st57">
				<path class="st73" d="M888.8,249.6c0,0,2.1,0.2,2.5,3.2c0.6,4.3-9.4,7.7-11.1,1.7C878.3,247.3,883.9,246.4,888.8,249.6z"/>
			</g>
			<path class="st59" d="M890.4,249.9c-1.3,5.6-11.5,5.8-11.5-2.1C878.7,238.9,892.5,240.6,890.4,249.9z"/>
			<path class="st59" d="M886.2,254.1c-3.3,0.8-6.6-1.1-7.4-4.4c-0.2-0.6-0.2-1.3-0.2-1.9c0-3.8,2.3-5.6,4.5-6.1
				c3.5-0.8,6.9,1.3,7.7,4.8c0.3,1.1,0.2,2.3-0.1,3.4C890.1,252.1,888.4,253.8,886.2,254.1z M883.2,242.4c-2.6,0.5-4.1,2.6-4.1,5.5
				c-0.1,1.7,0.6,3.3,1.8,4.4c1.4,1.2,3.4,1.7,5.2,1.3c1.9-0.3,3.5-1.8,4-3.7c0.6-1.9,0.2-4-1.1-5.6
				C887.5,242.7,885.3,241.9,883.2,242.4L883.2,242.4z"/>
			<path class="st60" d="M885.1,244.7c0-0.1-4.5-5.9,0.1-14.2l0.5,0.3c-4.4,8-0.2,13.5-0.1,13.5L885.1,244.7z"/>
			<path class="st61" d="M880.8,244.7c0.9-1.6,2,0,1.7,0.8c-0.3,0.7-0.6,1.5-0.8,2.3C881.5,249.4,878.5,248.7,880.8,244.7z"/>
			<g class="st48">
				<path class="st62" d="M879,246.9c0,0,4.2,8.9,10.4,5.1c-0.7,0.8-1.6,1.5-2.6,1.8C883.7,254.8,879.1,254.4,879,246.9z"/>
			</g>
			<path class="st74" d="M874.5,255.9c-0.5,0.6-1.1,1.2-1.7,1.7c-0.2,0.2-0.5,0.2-0.7,0.1c-0.2-0.1-0.6-0.2-0.6-0.5v-0.2
				c0-0.7,1.3-0.5,1.3,0.1c0,0.1,0,0.1,0,0.2l-1.3-0.4c0.6-0.5,1.2-1.1,1.7-1.7C873.5,254.8,874.8,255.3,874.5,255.9L874.5,255.9z"
				/>
			<path class="st74" d="M883.6,260.9c-0.7-0.5-1.2-1.2-1.6-2c-0.1-0.2,0-0.5,0.2-0.6c0.1,0,0.1,0,0.2,0c0.4,0,0.7,0.1,0.9,0.4
				c0.1,0.2,0.3,0.5,0.4,0.7l0.3,0.4l0.2,0.2c0,0,0.1,0.1,0,0c0.2,0.1,0.5,0.4,0.3,0.7C884.3,261,883.9,261.1,883.6,260.9
				L883.6,260.9z"/>
			<path class="st74" d="M897,256.2c-0.5,0.4-1,0.8-1.5,1.2c-0.3,0.1-0.7,0.1-1-0.1c-0.2-0.1-0.4-0.5-0.1-0.6
				c0.6-0.3,1.1-0.7,1.5-1.2C896.4,255.2,897.6,255.8,897,256.2L897,256.2z"/>
			<path class="st74" d="M896.2,264c-0.3-0.5-0.7-1-1.1-1.5c-0.2-0.3,0.2-0.5,0.4-0.5c0.3,0,0.7,0.1,0.9,0.4c0.3,0.5,0.7,1,1,1.5
				c0.2,0.3-0.2,0.5-0.4,0.5C896.7,264.4,896.4,264.3,896.2,264z"/>
			<path class="st74" d="M889.6,256c0,0.3,0.1,0.6,0.2,0.9c0.1,0.3-0.5,0.2-0.5,0.2c-0.3,0-0.7-0.1-0.8-0.4c-0.1-0.3-0.2-0.7-0.2-1
				C888.3,255.3,889.6,255.5,889.6,256L889.6,256z"/>
			<path class="st74" d="M890.3,266.3c-0.6,0.7-1.3,1.2-2.1,1.6c-0.3,0.1-0.7,0.1-0.9-0.1c-0.2-0.1-0.4-0.4-0.1-0.5
				c0.7-0.4,1.4-0.9,2-1.5C889.4,265.4,890.6,265.9,890.3,266.3L890.3,266.3z"/>
			<path class="st74" d="M876.2,266.7c-0.5-0.8-1-1.5-1.7-2.1c-0.2-0.2-0.2-0.4,0.1-0.5c0.3-0.1,0.7,0,0.9,0.3
				c0.7,0.7,1.3,1.5,1.8,2.3C877.7,267.2,876.4,267.1,876.2,266.7L876.2,266.7z"/>
			<path class="st74" d="M867,259.1c-0.1,0.4-0.5,0.8-0.9,1c-0.3,0.2-0.8,0.4-1,0.8s-1.4-0.1-1.3-0.4c0.3-0.9,1.7-0.7,1.8-1.7
				C865.7,258.5,867,258.9,867,259.1L867,259.1z"/>
			<path class="st74" d="M902.7,256.5c0.3,0.8,0.8,1.5,1.5,2c0.2,0.1,0.3,0.5,0.2,0.7c0,0,0,0.1-0.1,0.1c-0.3,0.2-0.7,0.2-1-0.1
				c-1-0.7-1.7-1.7-2-2.8C901.1,255.7,902.5,255.9,902.7,256.5L902.7,256.5z"/>
			<path class="st75" d="M869.3,259.6c-1.3,0-1.4-2.2,0-2.3S870.7,259.6,869.3,259.6z"/>
			<path class="st75" d="M871,267.3c-1.3,0-1.4-2.2,0-2.3S872.4,267.3,871,267.3z"/>
			<path class="st75" d="M878.4,258.5c-1.3,0-1.4-2.2,0-2.3S879.8,258.4,878.4,258.5z"/>
			<path class="st75" d="M890.3,261.2c-1.3,0-1.4-2.2,0-2.3S891.7,261.2,890.3,261.2z"/>
			<path class="st75" d="M893.8,254.3c0,0.1,0,0.1,0,0.2c0,0.6-0.5,1-1,1c-0.6,0-1-0.5-1-1c0-0.1,0-0.1,0-0.2c0-0.6,0.5-1,1-1
				C893.4,253.3,893.8,253.8,893.8,254.3L893.8,254.3z"/>
			<path class="st75" d="M903.7,267.9c-1.3,0-1.4-2.2,0-2.3S905,267.9,903.7,267.9z"/>
			<path class="st75" d="M900.7,262.5c-1.3,0-1.4-2.2,0-2.3S902,262.5,900.7,262.5z"/>
			<path class="st75" d="M883.5,270.8c-1.3,0-1.4-2.2,0-2.3S884.8,270.8,883.5,270.8z"/>
			<path class="st75" d="M881.8,263.3v0.2c0,0.6-0.5,1-1,1c-0.6,0-1-0.5-1-1v-0.2c0-0.6,0.4-1,1-1.1S881.8,262.7,881.8,263.3
				L881.8,263.3z"/>
			<path class="st75" d="M893,272.5h-0.2c-1.3,0-1.4-2.2,0-2.3h0.2C894.3,270.2,894.4,272.5,893,272.5L893,272.5z"/>
			<rect x="-7.5" y="-9.5" class="st76" width="1615" height="904.1"/>
			<polygon class="st77" points="1409.6,681.3 195.6,681.8 209.4,668.6 1397.2,669.9 			"/>
			<polygon class="st78" points="196.1,681.4 1409.3,681.4 1491.8,770.5 92.3,775.5 			"/>
			<polygon class="st79" points="1499.9,1062.1 93.5,1062.1 92.3,775.5 1491.8,770.5 			"/>
			<polygon class="st77" points="1492.1,779.7 92.3,781.5 92.3,775.5 1491.8,770.5 			"/>
			<polygon class="st80" points="92.3,781.5 1492.1,779.7 1493.8,842.4 92.5,835.9 			"/>
		</g>
	</g>
</g>
</svg>
