<?xml version="1.0" encoding="utf-8"?>
<!-- Generator: Adobe Illustrator 25.2.3, SVG Export Plug-In . SVG Version: 6.00 Build 0)  -->
<svg version="1.1" id="Layer_1" xmlns="http://www.w3.org/2000/svg" xmlns:xlink="http://www.w3.org/1999/xlink" x="0px" y="0px"
	 viewBox="0 0 1600 900" style="enable-background:new 0 0 1600 900;" xml:space="preserve">
<style type="text/css">
	.st0{clip-path:url(#SVGID_2_);}
	.st1{fill:url(#SVGID_3_);}
	.st2{fill:#B9D7EF;}
	.st3{clip-path:url(#SVGID_5_);}
	.st4{fill:url(#SVGID_6_);}
	.st5{fill:#B98E7C;}
	.st6{fill:#C49483;}
	.st7{fill:#754D32;}
	.st8{fill:#A8E533;}
	.st9{clip-path:url(#SVGID_8_);}
	.st10{fill:url(#SVGID_9_);}
	.st11{clip-path:url(#SVGID_11_);}
	.st12{fill:url(#SVGID_12_);}
	.st13{clip-path:url(#SVGID_14_);}
	.st14{fill:url(#SVGID_15_);}
	.st15{clip-path:url(#SVGID_17_);}
	.st16{fill:url(#SVGID_18_);}
	.st17{clip-path:url(#SVGID_20_);}
	.st18{fill:url(#SVGID_21_);}
	.st19{clip-path:url(#SVGID_23_);}
	.st20{fill:url(#SVGID_24_);}
	.st21{clip-path:url(#SVGID_26_);}
	.st22{fill:url(#SVGID_27_);}
	.st23{clip-path:url(#SVGID_29_);}
	.st24{fill:url(#SVGID_30_);}
	.st25{fill:#95CBD3;}
	.st26{clip-path:url(#SVGID_32_);}
	.st27{fill:url(#SVGID_33_);}
	.st28{clip-path:url(#SVGID_35_);}
	.st29{fill:url(#SVGID_36_);}
	.st30{fill:#78969F;}
	.st31{fill:#89E9F4;}
	.st32{clip-path:url(#SVGID_38_);}
	.st33{fill:url(#SVGID_39_);}
	.st34{fill:#72CD34;}
	.st35{clip-path:url(#SVGID_41_);}
	.st36{fill:url(#SVGID_42_);}
	.st37{clip-path:url(#SVGID_44_);}
	.st38{fill:url(#SVGID_45_);}
	.st39{clip-path:url(#SVGID_47_);}
	.st40{fill:url(#SVGID_48_);}
	.st41{clip-path:url(#SVGID_50_);}
	.st42{fill:url(#SVGID_51_);}
	.st43{clip-path:url(#SVGID_53_);}
	.st44{fill:url(#SVGID_54_);}
	.st45{clip-path:url(#SVGID_56_);}
	.st46{fill:url(#SVGID_57_);}
	.st47{fill:#3DBF47;}
	.st48{clip-path:url(#SVGID_59_);}
	.st49{fill:url(#SVGID_60_);}
	.st50{fill:#4C9A22;}
	.st51{fill:#01491D;}
</style>
<g id="Layer_7">
	<g>
		<defs>
			<rect id="SVGID_1_" width="1600" height="900"/>
		</defs>
		<clipPath id="SVGID_2_">
			<use xlink:href="#SVGID_1_"  style="overflow:visible;"/>
		</clipPath>
		<g class="st0">
			
				<linearGradient id="SVGID_3_" gradientUnits="userSpaceOnUse" x1="-808.99" y1="-1.7235" x2="-807.99" y2="-1.7235" gradientTransform="matrix(12.0873 1116.9746 -1116.9746 12.0873 8647.2744 903416.5625)">
				<stop  offset="0" style="stop-color:#89EBF4"/>
				<stop  offset="0.43" style="stop-color:#9DF1F6"/>
				<stop  offset="0.82" style="stop-color:#B2F7F9"/>
				<stop  offset="1" style="stop-color:#B2F7F9"/>
			</linearGradient>
			<polygon class="st1" points="-7.4,0.1 1599.8,-17.3 1607.3,677.8 0.1,695.2 			"/>
			<path class="st2" d="M-176.5,524.6c0,0,139.1-159.2,369.9-112.9c124.3,24.9,288,105.9,471.5,12.7
				c226.8-115.1,400.9-244.2,1017.2,8.5l-2.1,105.9L-176.5,524.6z"/>
			<g>
				<defs>
					<path id="SVGID_4_" d="M176.7,378.6c0,0-2.8,16-14.6,17.3c-14,1.7-30.1-6-27.7-17.3h-10.2c0,0,3.1,32.9-12.3,39.8
						c-11.5,2.7-18.3-1.6-17.8-20.9l0.5-19.3H76.3c0,0,1,20.5,0,21.7s-9.2,13.9-17.8-12.2c-1.9-4.8-3.1-7.8-3.7-9.5l-9.4,0.2
						c0,0,4.5,20.2,19.1,32.9c9.7,12.2,9.9,32.5,2.6,39.7c-7.8,7.2-21.2,11.2-31.4-31.5c-6.8-28.3-8.6-41.1-8.6-41.1L13,378.4
						c0,0,5.8,33.8,4.7,39.7c-1,5.4-1.6,19.7-17.7,20.7v23.4c2.8,1.3,5,2.5,7,3.5c8.4,4.7,14.1,9.7,12.8,25.8
						c-1.3,12.9-0.5,25.9,2.4,38.6c3.4,14.9,9.5,28.9,18,41.6c28.3,0.8,46.5,0.9,58.2,0.8c23.4-0.2,36.7-1.3,43.7,0.3
						c0,0,4.1,0.9,4.5,0.1c0.3-0.6-1.8-1.6-3.6-3.8c-1.2-1.5-2-3.3-2.4-5.2c-1.6-5.5-7.6-12.1-9.6-14.5c-6.4-7.8-9.4-19.4-14.3-38.7
						c-2.8-10.9-4.9-22-6.3-33.2c-0.4-19.3,2.6-33.8,8.7-42.1c6.5-9.1,12.3-18.6,17.4-28.6c0,0,35.8,1.5,38.8,0s11.7-8.4,10.2-26.2
						l0.5-4.3L176.7,378.6z M54.8,378.4h0.5c-0.3-0.7-0.7-1.4-1.2-2.1C54.1,376.3,54.2,376.8,54.8,378.4"/>
				</defs>
				<clipPath id="SVGID_5_">
					<use xlink:href="#SVGID_4_"  style="overflow:visible;"/>
				</clipPath>
				<g class="st3">
					
						<linearGradient id="SVGID_6_" gradientUnits="userSpaceOnUse" x1="-809.04" y1="1.3448" x2="-808.04" y2="1.3448" gradientTransform="matrix(-7.2799 -372.3689 372.3689 -7.2799 -6295.6694 -300708.0313)">
						<stop  offset="0" style="stop-color:#885B51"/>
						<stop  offset="0.21" style="stop-color:#885B51"/>
						<stop  offset="0.28" style="stop-color:#7D4F48"/>
						<stop  offset="0.38" style="stop-color:#754641"/>
						<stop  offset="0.53" style="stop-color:#72433F"/>
						<stop  offset="1" style="stop-color:#72433F"/>
					</linearGradient>
					<polygon class="st4" points="-3.8,376.3 186.9,372.6 190.8,573.7 0.1,577.4 					"/>
				</g>
			</g>
			<path class="st5" d="M109.8,473.3c-8.6,4.6-16.2,10.9-22.2,18.6c-25,32.5-8,75.2-6.1,79.9l66.1,1.2c-4.6-6.1-8.9-12.4-12.7-19
				C120.7,529.3,112.1,501.8,109.8,473.3"/>
			<path class="st6" d="M33.6,411.8c0,0,12.3,43,21.9,42.7C45.5,459,27,447,33.6,411.8"/>
			<path class="st7" d="M102.2,525.1c-4.4,1-11.4,0.8-8.4-5.5c2-4.6,10.6-13.7,15.9-10.2c4.9,4.4,2.8,14.2,1.1,19.7
				c-4,6.7-16.9,20.3-22.1,7.8c-3.4-9.1-1.3-19-1-28.5c0.3,9.3-1.6,19.2,1.9,28.1c4.9,11.4,16.5-2.2,20.2-8
				c1.1-3.3,2.2-8.6,1.7-12.7c-0.5-5.1-3-7.9-8.1-5.1c-3.8,2.1-7,5.3-9.1,9.2C91.2,525.7,98.3,525.8,102.2,525.1"/>
			<path class="st8" d="M-148.7,279.1c2.8-17.8,10.3-44.6,32.6-66.6c60.3-59.3,175.9-31.7,212.8-22.8
				c86.9,20.8,154.7,78.8,179.3,104.7l14.4,9.8c-75.8,12-152.5,17.6-229.3,16.7c-66.8-0.8-133.5-6.5-199.5-17L-148.7,279.1z"/>
			<g>
				<defs>
					<path id="SVGID_7_" d="M0,321.5c19.4,1.1,39.4,1.8,60.1,2c76.7,0.9,153.3-4.7,229-16.8l-14.4-9.8
						c-28.9-30.6-88-83.3-179.1-105.2c-18.2-4.3-55.4-13.3-95.7-14.1V321.5z"/>
				</defs>
				<clipPath id="SVGID_8_">
					<use xlink:href="#SVGID_7_"  style="overflow:visible;"/>
				</clipPath>
				<g class="st9">
					
						<linearGradient id="SVGID_9_" gradientUnits="userSpaceOnUse" x1="-808.25" y1="0.9943" x2="-807.25" y2="0.9943" gradientTransform="matrix(152.5734 -375.3669 375.3669 152.5734 122958.5625 -302970.6875)">
						<stop  offset="0" style="stop-color:#2B8977"/>
						<stop  offset="0.48" style="stop-color:#2B8977"/>
						<stop  offset="0.81" style="stop-color:#8CC585"/>
						<stop  offset="1" style="stop-color:#C7E98E"/>
					</linearGradient>
					<polygon class="st10" points="-51.3,303.7 41,76.8 340.3,198.4 248.1,425.4 					"/>
				</g>
			</g>
			<path class="st8" d="M230.7,292.8c0,0,81.9-17.6,118.2,36c23.6,41.6,27.9,55.1-118.2,47.6C206,309.7,230.7,292.7,230.7,292.8"/>
			<g>
				<defs>
					<path id="SVGID_10_" d="M229.2,293.4c0,0-24.7,17,0,83.6c146,7.5,141.8-6,118.2-47.6c-21.9-32.4-60.4-38.8-87.5-38.8
						C249.6,290.6,239.3,291.5,229.2,293.4"/>
				</defs>
				<clipPath id="SVGID_11_">
					<use xlink:href="#SVGID_10_"  style="overflow:visible;"/>
				</clipPath>
				<g class="st11">
					
						<linearGradient id="SVGID_12_" gradientUnits="userSpaceOnUse" x1="-810.82" y1="-3.495" x2="-809.82" y2="-3.495" gradientTransform="matrix(-154.5218 212.2133 -212.2133 -154.5218 -125653.0156 171743.2656)">
						<stop  offset="0" style="stop-color:#CAEE9D"/>
						<stop  offset="0.37" style="stop-color:#CAEE9D"/>
						<stop  offset="0.83" style="stop-color:#25AF6A"/>
						<stop  offset="1" style="stop-color:#25AF6A"/>
					</linearGradient>
					<polygon class="st12" points="159.8,352 263.7,209.4 419.9,323.2 316.1,465.8 					"/>
				</g>
			</g>
			<path class="st8" d="M-129.5,315.1c0,0,42.2-31.1,86.4-43.4c48.3-18.3,112.2-59.3,189.8-40.3c59.9,17.7,104.8,42.2,131.3,87.4
				c12.9,26.3,15,58-83.7,53.8L-80.5,373C-80.5,373-188,365.9-129.5,315.1"/>
			<g>
				<defs>
					<path id="SVGID_13_" d="M0,255.3v122.6l193.9-0.3c99.2,4.4,97.2-28,84.2-54.8c-26.7-46.1-71.9-71.1-132.1-89.1
						c-13.4-3.3-27.1-5-40.9-5C65.9,228.7,30.7,241.9,0,255.3"/>
				</defs>
				<clipPath id="SVGID_14_">
					<use xlink:href="#SVGID_13_"  style="overflow:visible;"/>
				</clipPath>
				<g class="st13">
					
						<linearGradient id="SVGID_15_" gradientUnits="userSpaceOnUse" x1="-808.52" y1="1.0093" x2="-807.52" y2="1.0093" gradientTransform="matrix(105.4871 -411.1432 411.1432 105.4871 84969.3594 -332021)">
						<stop  offset="0" style="stop-color:#0F5C49"/>
						<stop  offset="0.16" style="stop-color:#0F5C49"/>
						<stop  offset="0.26" style="stop-color:#187754"/>
						<stop  offset="0.45" style="stop-color:#2CAF6A"/>
						<stop  offset="0.47" style="stop-color:#43B96C"/>
						<stop  offset="0.51" style="stop-color:#6AC96F"/>
						<stop  offset="0.55" style="stop-color:#8AD672"/>
						<stop  offset="0.6" style="stop-color:#A3E074"/>
						<stop  offset="0.64" style="stop-color:#B4E776"/>
						<stop  offset="0.69" style="stop-color:#BFEC77"/>
						<stop  offset="0.75" style="stop-color:#C2ED77"/>
						<stop  offset="1" style="stop-color:#C2ED77"/>
					</linearGradient>
					<polygon class="st14" points="-36.9,372.5 18.1,158.1 330,238.2 275,452.6 					"/>
				</g>
			</g>
			<path class="st6" d="M185.9,379.1c0,0,1.3,18.6-7.9,25.8c-2.7,2.5-4.9,2.5-8.2,2.5c0,0,9.1-2.8,11.4-12.3
				c1.3-5.4,2.1-11,2.4-16.6h2.3V379.1z"/>
			<path class="st6" d="M94.6,378.3c-0.4,3.3-0.6,14.6-0.4,16.8c0.6,9.6,1.3,20.6,8,23.5c1.6,0.6,3.3,0.8,5,0.6l2.5-0.3
				c-3.1,3.6-5.8,3.9-6.7,3.9c-5.5,0.2-11.8-6.5-13.4-17.3c-1-5.1-1.4-10.3-1.1-15.6c0.3-4.3,1.2-11.6,1.2-11.6L94.6,378.3z"/>
			<g>
				<defs>
					<path id="SVGID_16_" d="M435.7,118.4c-15.1,4.8-17.2,13-17.2,13c-2,5.8,3.3,8.2,3.3,8.2c14.9,5.3,39.6,4,45.5,2.3
						s10.1-14.9,1.7-22.8c-3.5-3.4-8.3-5.3-13.2-5.1C450.3,114,443.7,115.9,435.7,118.4"/>
				</defs>
				<clipPath id="SVGID_17_">
					<use xlink:href="#SVGID_16_"  style="overflow:visible;"/>
				</clipPath>
				<g class="st15">
					
						<linearGradient id="SVGID_18_" gradientUnits="userSpaceOnUse" x1="-798.07" y1="-1.522" x2="-797.07" y2="-1.522" gradientTransform="matrix(73.8617 3.6124 -3.6124 73.8617 59362.4922 3123.6362)">
						<stop  offset="0" style="stop-color:#ADCFF1"/>
						<stop  offset="8.000000e-02" style="stop-color:#ADCFF1"/>
						<stop  offset="0.78" style="stop-color:#FFFFFF"/>
						<stop  offset="1" style="stop-color:#FFFFFF"/>
					</linearGradient>
					<polygon class="st16" points="415,144.9 416.7,111 479,114.1 477.4,148 					"/>
				</g>
			</g>
			<g>
				<defs>
					<path id="SVGID_19_" d="M389.4,108.5c-22.3,7.1-25.5,19.3-25.5,19.3c-3,8.5,4.9,12.1,4.9,12.1c22,7.9,58.6,5.9,67.4,3.4
						s15-22.1,2.5-33.8c-5.2-5.1-12.2-7.8-19.5-7.6C410.9,101.9,401.2,104.7,389.4,108.5"/>
				</defs>
				<clipPath id="SVGID_20_">
					<use xlink:href="#SVGID_19_"  style="overflow:visible;"/>
				</clipPath>
				<g class="st17">
					
						<linearGradient id="SVGID_21_" gradientUnits="userSpaceOnUse" x1="-801.62" y1="-1.3682" x2="-800.62" y2="-1.3682" gradientTransform="matrix(109.2994 5.3456 -5.3456 109.2994 87978.6641 4557.7813)">
						<stop  offset="0" style="stop-color:#ADCFF1"/>
						<stop  offset="8.000000e-02" style="stop-color:#ADCFF1"/>
						<stop  offset="0.78" style="stop-color:#FFFFFF"/>
						<stop  offset="1" style="stop-color:#FFFFFF"/>
					</linearGradient>
					<polygon class="st18" points="358.7,147.7 361.2,97.5 453.4,102 451,152.2 					"/>
				</g>
			</g>
			<g>
				<defs>
					<path id="SVGID_22_" d="M1100.7,249.7c-15.1,4.8-17.2,13-17.2,13c-2,5.8,3.3,8.2,3.3,8.2c14.9,5.3,39.6,4,45.5,2.3
						s10.1-14.9,1.7-22.8c-3.5-3.4-8.3-5.3-13.2-5.2C1115.2,245.2,1108.7,247.1,1100.7,249.7"/>
				</defs>
				<clipPath id="SVGID_23_">
					<use xlink:href="#SVGID_22_"  style="overflow:visible;"/>
				</clipPath>
				<g class="st19">
					
						<linearGradient id="SVGID_24_" gradientUnits="userSpaceOnUse" x1="-798.07" y1="-1.5211" x2="-797.07" y2="-1.5211" gradientTransform="matrix(73.8617 3.6124 -3.6124 73.8617 60027.543 3254.8799)">
						<stop  offset="0" style="stop-color:#ADCFF1"/>
						<stop  offset="8.000000e-02" style="stop-color:#ADCFF1"/>
						<stop  offset="0.78" style="stop-color:#FFFFFF"/>
						<stop  offset="1" style="stop-color:#FFFFFF"/>
					</linearGradient>
					<polygon class="st20" points="1080,276.2 1081.6,242.3 1144,245.4 1142.3,279.3 					"/>
				</g>
			</g>
			<g>
				<defs>
					<path id="SVGID_25_" d="M1054.3,239.8c-22.3,7.1-25.5,19.3-25.5,19.3c-3,8.5,4.9,12.1,4.9,12.1c22,7.9,58.6,5.9,67.4,3.5
						s15-22.1,2.5-33.8c-5.2-5.1-12.2-7.8-19.5-7.6C1075.9,233.2,1066.2,236,1054.3,239.8"/>
				</defs>
				<clipPath id="SVGID_26_">
					<use xlink:href="#SVGID_25_"  style="overflow:visible;"/>
				</clipPath>
				<g class="st21">
					
						<linearGradient id="SVGID_27_" gradientUnits="userSpaceOnUse" x1="-801.62" y1="-1.3677" x2="-800.62" y2="-1.3677" gradientTransform="matrix(109.2994 5.3456 -5.3456 109.2994 88643.7031 4689.0317)">
						<stop  offset="0" style="stop-color:#ADCFF1"/>
						<stop  offset="8.000000e-02" style="stop-color:#ADCFF1"/>
						<stop  offset="0.78" style="stop-color:#FFFFFF"/>
						<stop  offset="1" style="stop-color:#FFFFFF"/>
					</linearGradient>
					<polygon class="st22" points="1023.7,279 1026.1,228.8 1118.4,233.3 1115.9,283.5 					"/>
				</g>
			</g>
			<g>
				<defs>
					<path id="SVGID_28_" d="M1423.9,101.8c-77.6,24.8-88.6,67.1-88.6,67.1c-10.4,29.6,17,42.2,17,42.2
						c76.6,27.4,203.6,20.5,234.1,12c5.1-1.6,9.8-4.4,13.6-8.2V110.4c-1.5-1.7-3.1-3.3-4.7-4.8C1575,86.5,1553.1,79,1527.6,79
						C1498.7,79,1465.1,88.6,1423.9,101.8"/>
				</defs>
				<clipPath id="SVGID_29_">
					<use xlink:href="#SVGID_28_"  style="overflow:visible;"/>
				</clipPath>
				<g class="st23">
					
						<linearGradient id="SVGID_30_" gradientUnits="userSpaceOnUse" x1="-806.88" y1="-1.0961" x2="-805.88" y2="-1.0961" gradientTransform="matrix(379.786 18.5747 -18.5747 379.786 307773.4375 15557.1045)">
						<stop  offset="0" style="stop-color:#ADCFF1"/>
						<stop  offset="8.000000e-02" style="stop-color:#ADCFF1"/>
						<stop  offset="0.78" style="stop-color:#FFFFFF"/>
						<stop  offset="1" style="stop-color:#FFFFFF"/>
					</linearGradient>
					<polygon class="st24" points="1317.3,238 1325.7,65.6 1607.9,79.4 1599.4,251.8 					"/>
				</g>
			</g>
			<path class="st25" d="M772.9,530.6c0,0,441.4-8.2,560.9-6.7c114.1,1.4,277.8-67.4,352.5-39.2l-1.1,160.9
				C1685.2,645.7,775.2,556,772.9,530.6"/>
			<g>
				<defs>
					<path id="SVGID_31_" d="M1283.3,542.4c7.2,5.2,16.2,5.6,18.1,5.7l1.3,39.3h7.6c0,0-2.2-35.9-2.6-45c6.5,1.6,13.5-1.6,16.5-4.5
						c16.5,2.8,17.9-5.6,17.9-5.6h-2.1c-1.7,2.3-4.2,3.8-7.1,4.2c-2.6,0.4-5.3,0.2-7.7-0.8l1.8-3.7h-2.8c-0.3,0.7-2.1,4.4-7.7,6.3
						c-2.8,0.9-5.7,1.1-8.6,0.7v-7.4l-6.8-0.2l0.4,13.4c-1.2,0-12.1,0.2-18.7-5.8c-2.5-2.1-4-5.1-4.2-8.3l-2.6-0.3
						C1276,531.7,1276.6,537.6,1283.3,542.4"/>
				</defs>
				<clipPath id="SVGID_32_">
					<use xlink:href="#SVGID_31_"  style="overflow:visible;"/>
				</clipPath>
				<g class="st26">
					
						<linearGradient id="SVGID_33_" gradientUnits="userSpaceOnUse" x1="-809.14" y1="6.4548" x2="-808.14" y2="6.4548" gradientTransform="matrix(-2.1155 -108.2093 108.2093 -2.1155 -1100.6335 -86956.5078)">
						<stop  offset="0" style="stop-color:#9C5E58"/>
						<stop  offset="1.000000e-02" style="stop-color:#9C5E58"/>
						<stop  offset="4.000000e-02" style="stop-color:#A1625C"/>
						<stop  offset="0.21" style="stop-color:#B26E69"/>
						<stop  offset="0.39" style="stop-color:#BC7671"/>
						<stop  offset="0.61" style="stop-color:#BF7874"/>
						<stop  offset="1" style="stop-color:#BF7874"/>
					</linearGradient>
					<polygon class="st27" points="1274.8,530.3 1342.2,529 1343.3,587.4 1275.9,588.7 					"/>
				</g>
			</g>
			<g>
				<defs>
					<path id="SVGID_34_" d="M1257.3,510.8c-38.7,14.2,3.5,18.8,3.5,18.8s38,1.6,69.1,1.9c20.1,0.6,50.8-5.8,20.9-20.7
						c-11.7-5.1-26-6.8-39.9-6.8C1283.2,504,1257.3,510.8,1257.3,510.8"/>
				</defs>
				<clipPath id="SVGID_35_">
					<use xlink:href="#SVGID_34_"  style="overflow:visible;"/>
				</clipPath>
				<g class="st28">
					
						<linearGradient id="SVGID_36_" gradientUnits="userSpaceOnUse" x1="-805.19" y1="9.3675" x2="-804.19" y2="9.3675" gradientTransform="matrix(24.9008 -68.4516 68.4516 24.9008 20698.2227 -54803.8477)">
						<stop  offset="0" style="stop-color:#3CBBE1"/>
						<stop  offset="8.000000e-02" style="stop-color:#3CBBE1"/>
						<stop  offset="9.000000e-02" style="stop-color:#3DBCE0"/>
						<stop  offset="0.55" style="stop-color:#62D4C9"/>
						<stop  offset="0.79" style="stop-color:#70DDC0"/>
						<stop  offset="1" style="stop-color:#70DDC0"/>
					</linearGradient>
					<polygon class="st29" points="1209.6,528.8 1237.6,452 1389.8,507.3 1361.8,584.2 					"/>
				</g>
			</g>
			<path class="st30" d="M1126.9,510.4c0.7,3,1.9,6,3.5,8.6c1.6,2.8,2.9,4.8,5.6,6.5c2.3,1.4,4.8,2.3,7.4,2.7v-17.3l5.5,0.1v10.6
				c0,0,12.1,1.4,13.8-10.2h1.7c0,0,1.4,13.2-15.2,14.8l-1.1,48.7h-5.1l0.2-40.2c-3.8-1.6-7.2-3.9-10.2-6.8c-4.9-4.6-7.7-11-8-17.7
				h1.1L1126.9,510.4"/>
			<path class="st31" d="M1107.5,489.9c0,0,51.7-15.6,83,0c26.2,14.4,12.5,21.1-18.6,21.1c-27.6-0.2-61.3-1.9-61.3-1.9
				S1073.2,504.4,1107.5,489.9"/>
			<g>
				<defs>
					<path id="SVGID_37_" d="M1106.2,490.6c-34.3,14.4,3.1,19,3.1,19s33.7,1.7,61.3,1.9c27.3,0,48.7-4.5,18.6-20.9
						c-10.4-5.1-23.1-6.9-35.4-6.9C1129.2,483.8,1106.2,490.6,1106.2,490.6"/>
				</defs>
				<clipPath id="SVGID_38_">
					<use xlink:href="#SVGID_37_"  style="overflow:visible;"/>
				</clipPath>
				<g class="st32">
					
						<linearGradient id="SVGID_39_" gradientUnits="userSpaceOnUse" x1="-805.02" y1="8.2931" x2="-804.02" y2="8.2931" gradientTransform="matrix(30.9581 -73.1812 73.1812 30.9581 25445.6055 -58636.2305)">
						<stop  offset="0" style="stop-color:#3CBBE2"/>
						<stop  offset="0.18" style="stop-color:#3CBBE2"/>
						<stop  offset="0.32" style="stop-color:#55CEE6"/>
						<stop  offset="0.48" style="stop-color:#67DDE9"/>
						<stop  offset="0.64" style="stop-color:#72E5EA"/>
						<stop  offset="0.81" style="stop-color:#76E8EB"/>
						<stop  offset="1" style="stop-color:#76E8EB"/>
					</linearGradient>
					<polygon class="st33" points="1061.9,507.3 1094.2,430.9 1229.1,487.9 1196.8,564.3 					"/>
				</g>
			</g>
			<path class="st34" d="M1627.8,650.2c0,0-168.6-52.1-289.4-52.1c0,0-56-61-157.9-19.9c0,0-60.4-39.1-101.9-22.6
				c0,0-64.5-46.6-168.3-15.8c0,0-336.8-2.1-813.3-11l83.9,30.9c0,0-279.3,35.7-286.9,32.9s-15.1,186.5-15.1,186.5L1663,792.8
				L1627.8,650.2z"/>
			<g>
				<defs>
					<path id="SVGID_40_" d="M251.5,494.8c-31.3-8.1-53.8-1.1-53.8-1.1c-35.8,11.4-17.9,29.5-17.9,29.5
						c-107.5,7.5-44.1,25.9-44.1,25.9l15.2,3.5l678.4,4.5l33.1-5.5c19.3-11.5-68.9-9.5-68.9-9.5c-34.9-25.8-106.2-10.9-106.2-10.9
						c-25.8-27-74.5-12.9-74.5-12.9c-54.5-33.2-100.7-2-100.7-2s-11.6-23.9-54.4-32.9s-80.8,4.1-80.8,4.1
						c-23.5-9.2-43.8-12.4-60.9-12.4C273.8,474.9,251.5,494.8,251.5,494.8"/>
				</defs>
				<clipPath id="SVGID_41_">
					<use xlink:href="#SVGID_40_"  style="overflow:visible;"/>
				</clipPath>
				<g class="st35">
					
						<linearGradient id="SVGID_42_" gradientUnits="userSpaceOnUse" x1="-807.95" y1="-0.1285" x2="-806.95" y2="-0.1285" gradientTransform="matrix(432.6199 -382.8843 382.8843 432.6199 349874.375 -308614.7813)">
						<stop  offset="0" style="stop-color:#1AA74F"/>
						<stop  offset="0.2" style="stop-color:#1AA74F"/>
						<stop  offset="0.32" style="stop-color:#1EBC56"/>
						<stop  offset="0.51" style="stop-color:#22D45D"/>
						<stop  offset="0.68" style="stop-color:#25E261"/>
						<stop  offset="0.82" style="stop-color:#26E763"/>
						<stop  offset="1" style="stop-color:#26E763"/>
					</linearGradient>
					<polygon class="st36" points="31.2,510.6 526.1,72.6 922.6,520.6 427.7,958.5 					"/>
				</g>
			</g>
			<g>
				<defs>
					<path id="SVGID_43_" d="M1458.1,518.4c0,0-45.8-4-66.9,4c-30,11.4-23.1,18.8-23.1,18.8s-36.8,0-63.1,25.1
						c0,0-174.6,6.5-182.4,15.9l215.2-3.7l262.2,0.1v-58.5c-11.3-1.6-22.7-2-34.1-1.3c0,0-25.3-9.8-53.2-10.6c-1,0-2,0-3,0
						C1482.9,508.2,1458,518.4,1458.1,518.4"/>
				</defs>
				<clipPath id="SVGID_44_">
					<use xlink:href="#SVGID_43_"  style="overflow:visible;"/>
				</clipPath>
				<g class="st37">
					
						<linearGradient id="SVGID_45_" gradientUnits="userSpaceOnUse" x1="-810.45" y1="1.4886" x2="-809.45" y2="1.4886" gradientTransform="matrix(-136.1124 -239.3094 239.3094 -136.1124 -109230.8984 -193066.3438)">
						<stop  offset="0" style="stop-color:#21607B"/>
						<stop  offset="0.23" style="stop-color:#238C77"/>
						<stop  offset="0.45" style="stop-color:#25AF74"/>
						<stop  offset="0.62" style="stop-color:#27C472"/>
						<stop  offset="0.74" style="stop-color:#27CC71"/>
						<stop  offset="1" style="stop-color:#27CC71"/>
					</linearGradient>
					<polygon class="st38" points="1090.8,526.2 1483.3,302.9 1631.8,564 1239.3,787.2 					"/>
				</g>
			</g>
			<g>
				<defs>
					<path id="SVGID_46_" d="M391.4,521.6c0,0-32.1-4.3-57,14.1c0,0-5.6-7.4-19.3-6.1s-25.7,17.8-31.3,33.2l-1.5,6.8l383.3,2.2
						c0,0-23-18.1-67.1-12c0,0-8,2.5-5.6-7.4c2.1-8.4-0.7-20-24.9-13.5c-13.7,3.7-24.9,12.3-24.9,12.3s-3.2,1.8,0-5.5
						s-0.8-13.5-12.9-13.5s-23.3,6.1-23.3,6.1s-8-11-28.9-12.3s-30.5,3.7-30.5,3.7s-4.8-15.4-30.5-16.6h-1.3
						C402.6,513,391.4,521.6,391.4,521.6"/>
				</defs>
				<clipPath id="SVGID_47_">
					<use xlink:href="#SVGID_46_"  style="overflow:visible;"/>
				</clipPath>
				<g class="st39">
					
						<linearGradient id="SVGID_48_" gradientUnits="userSpaceOnUse" x1="-810.27" y1="0.7724" x2="-809.27" y2="0.7724" gradientTransform="matrix(-218.5338 -301.1173 301.1173 -218.5338 -176743.0313 -243155.5625)">
						<stop  offset="0" style="stop-color:#10A159"/>
						<stop  offset="2.000000e-02" style="stop-color:#10A159"/>
						<stop  offset="0.22" style="stop-color:#12A45A"/>
						<stop  offset="0.35" style="stop-color:#17AC5E"/>
						<stop  offset="0.46" style="stop-color:#20BB64"/>
						<stop  offset="0.55" style="stop-color:#2DD06D"/>
						<stop  offset="0.59" style="stop-color:#33DA71"/>
						<stop  offset="1" style="stop-color:#33DA71"/>
					</linearGradient>
					<polygon class="st40" points="254.4,533.2 533.4,330.7 693.6,551.4 414.6,753.8 					"/>
				</g>
			</g>
			<g>
				<defs>
					<path id="SVGID_49_" d="M50,501.1c-8.9-3.4-18.5-4.9-28-4.3c-7.6,0.5-15.1,2.5-22,5.7v102.3l315.5-16l18.3-9.6
						c9.8-18-40.4-11.6-40.4-11.6c-1.1-27.9-61.8-12.4-61.8-12.4c-5.3-20-43.9-16.7-43.9-16.7c-18.4-14.6-57.7,0.8-57.7,0.8
						s6.8-28.3-18.6-40.2c-7.6-3.6-16.2-4.8-24.5-4.8C67.7,494.4,50,501.2,50,501.1"/>
				</defs>
				<clipPath id="SVGID_50_">
					<use xlink:href="#SVGID_49_"  style="overflow:visible;"/>
				</clipPath>
				<g class="st41">
					
						<linearGradient id="SVGID_51_" gradientUnits="userSpaceOnUse" x1="-806.84" y1="-1.9348" x2="-805.84" y2="-1.9348" gradientTransform="matrix(326.1 -111.35 -122.36 -279.5 262795.125 -89747.25)">
						<stop  offset="0" style="stop-color:#219F68"/>
						<stop  offset="3.000000e-02" style="stop-color:#219F68"/>
						<stop  offset="0.76" style="stop-color:#3CDA88"/>
						<stop  offset="0.94" style="stop-color:#43EA90"/>
						<stop  offset="1" style="stop-color:#43EA90"/>
					</linearGradient>
					<polygon class="st42" points="44.7,706.9 385.8,590.5 299,392.3 -42.1,508.8 					"/>
				</g>
			</g>
			<g>
				<defs>
					<path id="SVGID_52_" d="M1424.2,558.8c0,0-23-6-38.1,1.2s-12.6,19-12.6,19s-20.1-8.3-32.8,4.5c0,0-23.6-4.1-26.4,10.3
						c0,0-27.1-9.2-37.6,8.7c0,0-34.9-4.5-47.3,7.6h29.5l236.4-0.8l14.2-1.3c0,0,6.6-14.5-15.6-20.7c0,0,12.7-10.7,0-19.8
						c0,0-9.3-7.5-25.4-2.8c0,0-8.4-9.9-25.2-9.9C1436.8,555,1430.3,556.4,1424.2,558.8"/>
				</defs>
				<clipPath id="SVGID_53_">
					<use xlink:href="#SVGID_52_"  style="overflow:visible;"/>
				</clipPath>
				<g class="st43">
					
						<linearGradient id="SVGID_54_" gradientUnits="userSpaceOnUse" x1="-810.01" y1="4.6731" x2="-809.01" y2="4.6731" gradientTransform="matrix(-24.6539 -138.127 138.127 -24.6539 -19226.002 -111094.6875)">
						<stop  offset="0" style="stop-color:#5FC687"/>
						<stop  offset="0.55" style="stop-color:#5FC687"/>
						<stop  offset="0.62" style="stop-color:#67CA89"/>
						<stop  offset="0.73" style="stop-color:#7DD68D"/>
						<stop  offset="0.85" style="stop-color:#9EE793"/>
						<stop  offset="1" style="stop-color:#9EE793"/>
					</linearGradient>
					<polygon class="st44" points="1219.5,554.7 1507.4,503.4 1526.1,608.5 1238.3,659.9 					"/>
				</g>
			</g>
			<g>
				<defs>
					<path id="SVGID_55_" d="M958.9,522c-37.4,8-38.4,26.8-38.4,26.8s-41.7-24.3-98.6-0.3c0,0-41.2-13.7-73.1,7.7
						c0,0-54.2-20.9-104.1,5.8c0,0-78.5-3-67.6,5.4l6.7,3.9l692.8,12.3l12.3-5.3c0,0,62.4-11.7-42.9-18.8c0,0,46.6-4.6,11.7-13.2
						c0,0-35.6-24.6-81.5-7.8c0,0-58.7-35.7-122.8-7.4c0,0-24.4-12.6-61-12.6C981,518.5,969.8,519.7,958.9,522"/>
				</defs>
				<clipPath id="SVGID_56_">
					<use xlink:href="#SVGID_55_"  style="overflow:visible;"/>
				</clipPath>
				<g class="st45">
					
						<linearGradient id="SVGID_57_" gradientUnits="userSpaceOnUse" x1="-806.77" y1="-5.5501" x2="-805.77" y2="-5.5501" gradientTransform="matrix(71.1645 -144.1171 -144.1171 -71.1645 57535.3164 -116046.6484)">
						<stop  offset="0" style="stop-color:#1AA74F"/>
						<stop  offset="0.95" style="stop-color:#26E763"/>
						<stop  offset="1" style="stop-color:#26E763"/>
					</linearGradient>
					<polygon class="st46" points="534,567.8 720,191.1 1383.1,518.6 1197.1,895.2 					"/>
				</g>
			</g>
			<path class="st47" d="M250,680.5c0,0-47.1-6.2-45.8-23.2S250,680.5,250,680.5"/>
			<path class="st47" d="M259.1,687.3c0,0-26.1-42.5-45.8-53.3s34-11.7,45.8,32.8V687.3z"/>
			<path class="st47" d="M261.1,681.6c0,0-13.2-33.1,36-34.8C319.3,646,261.1,681.6,261.1,681.6"/>
			<path class="st47" d="M1126.3,583.5c0,0-27.1-3.5-26.3-13.3S1126.3,583.5,1126.3,583.5"/>
			<path class="st47" d="M1131.5,587.5c0,0-15-24.4-26.3-30.6s19.5-6.7,26.3,18.8V587.5z"/>
			<path class="st47" d="M1132.7,584.2c0,0-7.6-19,20.7-20C1166.1,563.8,1132.7,584.2,1132.7,584.2"/>
			<path class="st47" d="M1293.3,588c0,0-17.2-2.3-16.8-8.5S1293.3,588,1293.3,588"/>
			<path class="st47" d="M1296.7,590.5c0,0-9.6-15.6-16.8-19.5s12.4-4.3,16.8,12V590.5z"/>
			<path class="st47" d="M1297.4,588.4c0,0-4.8-12.1,13.2-12.7C1318.7,575.4,1297.4,588.4,1297.4,588.4"/>
			<g>
				<defs>
					<path id="SVGID_58_" d="M556.5,512.9c-9.8,1,0.3,44.9,0.3,44.9s-12.3-41.2-17.8-31.3c-3.9,7.1,4.7,20.8,10,28.2
						c-17.5-22.5-21.6-22.5-21.7-18.8c-0.1,4,22.9,26.5,22.9,26.5s-12.7-11.4-25.8-19.1s-18.6-1-2.2,9.5s18.4,12.6,18.4,12.6
						c-22-5.8-49.4-12-38.6-3.1s33.6,10.8,33.6,10.8l31.5,2.3c47.1-16.6,36.6-27,28.6-27.2s-22.7,11.7-27.6,12.2s-6.1-1.4-6.1-1.4
						c3.2-0.1,39.7-23.1,24.8-24.8s-26.6,22-26.6,22s5.9-43.3-3.5-43.3C556.7,512.8,556.6,512.8,556.5,512.9"/>
				</defs>
				<clipPath id="SVGID_59_">
					<use xlink:href="#SVGID_58_"  style="overflow:visible;"/>
				</clipPath>
				<g class="st48">
					
						<linearGradient id="SVGID_60_" gradientUnits="userSpaceOnUse" x1="-801.41" y1="2.6855" x2="-800.41" y2="2.6855" gradientTransform="matrix(85.5883 -42.5237 42.5237 85.5883 68983.2656 -33741.4336)">
						<stop  offset="0" style="stop-color:#1AA74F"/>
						<stop  offset="0.86" style="stop-color:#26E763"/>
						<stop  offset="1" style="stop-color:#26E763"/>
					</linearGradient>
					<polygon class="st49" points="466.3,525.2 590,463.8 639.2,563 515.6,624.4 					"/>
				</g>
			</g>
			<path class="st50" d="M269.6,771.7c210.2,12.1,789-26.3,944.5-48.3c142.9-20.2,392.8-50.3,425.7,10.1c4,7.3,1.9,11.7,2.9,66.2
				c0.8,42.8,2.8,77.6,4.4,100.2L-29.7,973.2L-39,761.4c0.9,0.3,18.1,3.3,33,15.6L269.6,771.7z"/>
			<path class="st51" d="M-267.8,825.9c0,0,125.6-60.9,400.3,6.8s599,59.3,741.1,34.8s111-129.6,395.3-132.5
				c211.2-2.2,526.2,31.7,526.2,31.7l113.7,212.1l-848.8,23.4l-1323.8,10.7L-267.8,825.9z"/>
		</g>
	</g>
</g>
</svg>
