<?xml version="1.0" encoding="utf-8"?>
<!-- Generator: Adobe Illustrator 25.2.3, SVG Export Plug-In . SVG Version: 6.00 Build 0)  -->
<svg version="1.1" id="Layer_1" xmlns="http://www.w3.org/2000/svg" xmlns:xlink="http://www.w3.org/1999/xlink" x="0px" y="0px"
	 viewBox="0 0 1600 900" style="enable-background:new 0 0 1600 900;" xml:space="preserve">
<style type="text/css">
	.st0{fill:#052A4F;}
	.st1{opacity:0.4;}
	.st2{opacity:0.3;fill:#3D0685;enable-background:new    ;}
	.st3{clip-path:url(#SVGID_2_);}
	.st4{fill:#EC008C;}
	.st5{fill:#F400F4;}
	.st6{fill:#7AC943;}
	.st7{fill:#A62CA2;}
	.st8{fill:#29ABE2;}
	.st9{fill:#D6058B;}
	.st10{fill:#E133E5;}
	.st11{fill:#F210F9;}
	.st12{fill:#FF9CC2;}
	.st13{fill:#FBBE00;}
	.st14{fill:#581600;}
	.st15{fill:#6AE01E;}
	.st16{fill:#FFF6ED;}
	.st17{fill:#2C275B;}
	.st18{fill:#FFFFFF;}
	.st19{fill:#EF5925;}
	.st20{fill:#E7412B;}
	.st21{fill:#FF00C9;}
	.st22{fill:#FFB000;}
	.st23{fill:#E63D11;}
	.st24{fill:#D8E52C;}
	.st25{fill:#FDEBDB;}
	.st26{fill:#14DEE2;}
	.st27{fill:#D40075;}
	.st28{fill:#260000;}
	.st29{fill:#F8AF00;}
	.st30{fill:#E84F35;}
	.st31{fill:#FFCD00;}
	.st32{fill:#4E3F87;}
	.st33{fill:#312782;}
	.st34{fill:#89D1F5;}
</style>
<g id="Layer_12">
	<rect class="st0" width="1600" height="900"/>
	<g class="st1">
		<ellipse class="st2" cx="297.5" cy="699.9" rx="85.1" ry="67.9"/>
		<ellipse class="st2" cx="469.1" cy="747.5" rx="78.3" ry="62.5"/>
		<ellipse class="st2" cx="445.8" cy="592" rx="85.1" ry="67.9"/>
		<ellipse class="st2" cx="482.2" cy="156.7" rx="76.9" ry="61.3"/>
		<ellipse class="st2" cx="252.4" cy="451.5" rx="92.4" ry="73.7"/>
		<ellipse class="st2" cx="390.5" cy="309.9" rx="85.1" ry="67.9"/>
		<ellipse class="st2" cx="463.3" cy="449.2" rx="63.8" ry="50.9"/>
		<ellipse class="st2" cx="1265.4" cy="361" rx="96.7" ry="77.2"/>
		<ellipse class="st2" cx="1193.4" cy="191.9" rx="63.8" ry="50.9"/>
		<ellipse class="st2" cx="1110.6" cy="443.8" rx="63.8" ry="50.9"/>
		<path class="st2" d="M1350.6,463.7c-49.4,0-89.5,32-89.5,71.4c0,2.7,0.2,5.4,0.6,8.1c-6.2-1.1-12.5-1.7-18.8-1.7
			c-47,0-85.1,30.4-85.1,67.9s38.1,67.9,85.1,67.9s85.1-30.4,85.1-67.9c0-1.8-0.1-3.5-0.3-5.3c7.5,1.6,15.2,2.4,22.8,2.3
			c49.4,0,89.4-32,89.4-71.4S1400,463.7,1350.6,463.7z"/>
		<ellipse class="st2" cx="1111.3" cy="699.2" rx="63.8" ry="50.9"/>
		<ellipse class="st2" cx="1034.9" cy="157.9" rx="85.1" ry="67.9"/>
	</g>
	<g>
		<defs>
			<rect id="SVGID_1_" width="1600" height="900"/>
		</defs>
		<clipPath id="SVGID_2_">
			<use xlink:href="#SVGID_1_"  style="overflow:visible;"/>
		</clipPath>
		<g class="st3">
			<path class="st4" d="M889.3,683.7c5,0,10-4,10.2-9.1s-4.6-8.8-9.5-8.8s-10,4-10.2,9.1S884.3,683.7,889.3,683.7"/>
			<path class="st5" d="M1095,204.4c4.5,0,9-3.6,9.2-8.3s-4.1-7.9-8.6-7.9s-9,3.6-9.2,8.3S1090.6,204.4,1095,204.4"/>
			<path class="st6" d="M542.1,386.8c4.5,0,9-3.6,9.2-8.3s-4.1-7.9-8.6-7.9s-9,3.6-9.2,8.3S537.6,386.8,542.1,386.8"/>
			<path class="st6" d="M1227.5,280.3c4.5,0,9-3.6,9.2-8.3s-4.1-7.9-8.6-7.9s-9,3.6-9.2,8.3S1223.1,280.3,1227.5,280.3"/>
			<path class="st7" d="M888.4,323.1c4.5,0,9-3.6,9.2-8.3s-4.1-7.9-8.6-7.9s-9,3.6-9.2,8.3S884,323.1,888.4,323.1"/>
			<path class="st5" d="M1228.2,401.5c4.5,0,9-3.6,9.2-8.3s-4.1-7.9-8.6-7.9s-9,3.6-9.2,8.3S1223.7,401.5,1228.2,401.5"/>
			<path class="st6" d="M758.3,669.8c4.5,0,9-3.6,9.2-8.3s-4.1-7.9-8.6-7.9s-9,3.6-9.2,8.3S753.8,669.8,758.3,669.8"/>
			<path class="st6" d="M615,683.2c4.5,0,9-3.6,9.2-8.3s-4.2-7.9-8.6-7.9s-9,3.6-9.2,8.3S610.5,683.2,615,683.2"/>
			<path class="st6" d="M523.1,416.2c2.2,0,4-1.6,4.2-3.8c-0.1-2-1.7-3.7-3.8-3.6c0,0-0.1,0-0.1,0c-2.2,0-4,1.6-4.2,3.8
				c0,2,1.7,3.6,3.8,3.6C523,416.2,523.1,416.2,523.1,416.2"/>
			<path class="st5" d="M1086.2,361.3c4.5,0,9-3.6,9.2-8.3s-4.1-7.9-8.6-7.9s-9,3.6-9.2,8.3S1081.8,361.3,1086.2,361.3"/>
			<path class="st4" d="M1067.3,390.7c2.2,0,4-1.6,4.2-3.8c0-2-1.7-3.7-3.7-3.6c-0.1,0-0.1,0-0.2,0c-2.2,0-4,1.6-4.2,3.8
				c0,2,1.7,3.7,3.8,3.6C1067.2,390.7,1067.3,390.7,1067.3,390.7"/>
			<path class="st7" d="M382.8,393c2.2,0,4-1.6,4.2-3.8c0-2-1.7-3.7-3.8-3.6c-0.1,0-0.1,0-0.2,0c-2.2,0-4,1.6-4.2,3.8
				c0,2,1.7,3.7,3.8,3.6C382.7,393,382.7,393,382.8,393"/>
			<path class="st6" d="M375.5,566.7c2.2,0,4-1.6,4.2-3.8c0-2-1.7-3.6-3.8-3.6c-0.1,0-0.1,0-0.2,0c-2.2,0-4,1.6-4.2,3.8
				c0,2,1.7,3.6,3.8,3.6C375.4,566.7,375.5,566.7,375.5,566.7"/>
			<path class="st4" d="M371.3,334.8c-0.2,2.2,1.3,4.1,3.5,4.5c2,0.1,3.8-1.5,3.9-3.5c0-0.1,0-0.1,0-0.2c0.2-2.2-1.3-4.1-3.5-4.5
				c-2-0.1-3.8,1.5-3.9,3.5C371.3,334.7,371.3,334.7,371.3,334.8"/>
			<path class="st6" d="M831,456.1c2.2,0,4-1.6,4.2-3.8c-0.1-2-1.7-3.7-3.8-3.6c0,0-0.1,0-0.1,0c-2.2,0-4,1.6-4.2,3.8
				c0,2,1.7,3.7,3.7,3.6C830.9,456.1,830.9,456.1,831,456.1"/>
			<path class="st6" d="M634.2,474.3c2.2,0,4-1.6,4.2-3.8c0-2-1.7-3.7-3.8-3.6c0,0-0.1,0-0.1,0c-2.2,0-4,1.6-4.2,3.8
				c0,2,1.7,3.7,3.7,3.6C634.1,474.3,634.2,474.3,634.2,474.3"/>
			<path class="st6" d="M896.8,353.3c2.2,0,4-1.6,4.2-3.8c0-2-1.7-3.6-3.8-3.6c-0.1,0-0.1,0-0.2,0c-2.2,0-4,1.6-4.2,3.8
				c0,2,1.7,3.7,3.8,3.6C896.7,353.3,896.8,353.3,896.8,353.3"/>
			<path class="st4" d="M589,708.8c2.2,0,4-1.6,4.2-3.8c0-2-1.7-3.6-3.8-3.6c-0.1,0-0.1,0-0.2,0c-2.2,0-4,1.6-4.2,3.8
				c0,2,1.7,3.6,3.8,3.6C588.9,708.9,588.9,708.9,589,708.8"/>
			<path class="st4" d="M597.5,184.1c2.2,0,4-1.6,4.2-3.8c0-2-1.7-3.6-3.8-3.6c-0.1,0-0.1,0-0.2,0c-2.2,0-4,1.6-4.2,3.8
				c0,2,1.7,3.6,3.8,3.6C597.4,184.1,597.5,184.1,597.5,184.1"/>
			<path class="st7" d="M745.7,649.3c2.2,0,4-1.6,4.2-3.8c-0.1-2-1.8-3.6-3.8-3.6c0,0-0.1,0-0.1,0c-2.2,0-4,1.6-4.2,3.8
				c0,2,1.7,3.7,3.8,3.6C745.6,649.4,745.7,649.4,745.7,649.3"/>
			<path class="st6" d="M1195,319.4c-4.5,0.6-8.5,4.7-8.1,9.3s5.1,7.3,9.5,6.8s8.5-4.7,8.1-9.3S1199.4,318.9,1195,319.4"/>
			<path class="st7" d="M1210.1,338.2c-2.1,0.3-3.7,2.1-3.7,4.3c0.3,2,2.2,3.4,4.2,3.1c0.1,0,0.1,0,0.2,0c2.1-0.3,3.7-2.1,3.7-4.3
				c-0.3-2-2.2-3.4-4.2-3.1C1210.2,338.2,1210.1,338.2,1210.1,338.2"/>
			<path class="st6" d="M1189.9,380.8c-2.1,0.3-3.7,2.1-3.7,4.3c0.3,2,2.2,3.4,4.2,3.1c0.1,0,0.1,0,0.2,0c2.1-0.2,3.8-2.1,3.7-4.3
				c-0.3-2-2.2-3.4-4.2-3.1C1190,380.7,1189.9,380.7,1189.9,380.8"/>
			<path class="st4" d="M472.5,184.4c3.5-2.8,4.9-8.4,2.1-12.1s-8.1-3.7-11.6-0.9s-4.9,8.4-2.1,12.1S469,187.2,472.5,184.4"/>
			<path class="st6" d="M450,176.1c1.7-1.3,2.2-3.7,1-5.6c-1.3-1.6-3.6-1.8-5.2-0.5c0,0-0.1,0.1-0.1,0.1c-1.7,1.3-2.2,3.7-1,5.6
				c1.3,1.6,3.6,1.8,5.2,0.5C449.9,176.1,450,176.1,450,176.1"/>
			<path class="st7" d="M1167.7,166.8c2.5,1.3,5.5,0.5,7-1.9c1.3-2.4-0.1-5.2-2.4-6.4c-2.5-1.3-5.5-0.5-7,1.9
				C1164,162.9,1165.4,165.6,1167.7,166.8"/>
			<path class="st7" d="M988.6,249.7c2.2,0,4-1.6,4.2-3.8c0-2-1.7-3.6-3.8-3.6c-0.1,0-0.1,0-0.2,0c-2.2,0-4,1.6-4.2,3.8
				c0,2,1.7,3.6,3.8,3.6C988.5,249.7,988.6,249.7,988.6,249.7"/>
			<path class="st6" d="M690.2,282.9c2.9,0,5.9-2.3,6-5.4s-2.7-5.1-5.6-5.1s-5.8,2.3-6,5.4S687.3,282.9,690.2,282.9"/>
			<path class="st6" d="M696.8,303.2c2.2,0,4-1.6,4.2-3.8c0-2-1.7-3.6-3.8-3.6c-0.1,0-0.1,0-0.2,0c-2.2,0-4,1.6-4.2,3.8
				c0,2,1.7,3.6,3.8,3.6C696.7,303.2,696.8,303.2,696.8,303.2"/>
			<path class="st8" d="M642.1,504c2.9,0,5.2-2.2,5.5-5c0.1-2.9-2.5-4.7-5.2-4.7c-2.8,0-5.2,2.1-5.5,5
				C636.8,502.1,639.4,504,642.1,504"/>
			<path class="st6" d="M367,434.3c2.8,0,5.2-2.1,5.5-5c0.1-2.9-2.5-4.7-5.1-4.7c-2.8,0-5.2,2.1-5.5,4.9
				C361.8,432.4,364.3,434.3,367,434.3"/>
			<path class="st6" d="M1199.3,218.7c2.2,0,4-1.6,4.2-3.8c0-2-1.7-3.7-3.7-3.6c-0.1,0-0.1,0-0.2,0c-2.2,0-4,1.6-4.2,3.8
				c0,2,1.7,3.7,3.7,3.6C1199.2,218.7,1199.3,218.7,1199.3,218.7"/>
			<path class="st6" d="M1113.1,174.3c2.2,0,4-1.6,4.2-3.8c0-2-1.7-3.7-3.8-3.6c-0.1,0-0.1,0-0.2,0c-2.2,0-4,1.6-4.2,3.8
				c0,2,1.7,3.7,3.7,3.6C1112.9,174.3,1113,174.3,1113.1,174.3"/>
			<path class="st6" d="M977.3,230c4.5,0,9-3.6,9.2-8.3s-4.1-7.9-8.6-7.9s-9,3.6-9.2,8.3S972.8,230,977.3,230"/>
			<path class="st6" d="M420.1,240.1c2.7-12.1,3.4-22.2,6.7-33.8c2.5,7.4,9.4,33,9.4,33s26.4,2.2,33.7,3.1
				c-11.5,5.1-34.7,10.5-34.7,10.5s-3,16.8-7.1,31.6c-2.9-10.2-5.2-20.5-6.7-30.9c0,0-22.2-2-35.6-6.1
				C397.3,244.8,406.7,242.8,420.1,240.1"/>
			<path class="st4" d="M392.4,279.6c1.1-4.9,1.4-9,2.7-13.8c1,3,3.9,13.5,3.9,13.5s10.7,0.9,13.8,1.3c-4.7,2.1-14.1,4.3-14.1,4.3
				s-1.2,6.9-2.9,12.9c-1.2-4.1-2.1-8.4-2.7-12.6c0,0-9-0.8-14.5-2.5C383.1,281.6,387,280.8,392.4,279.6"/>
			<path class="st6" d="M563.3,157.6c1.1-4.9,1.4-9.1,2.7-13.8c1,3,3.8,13.4,3.8,13.4s10.7,0.9,13.8,1.3c-4.7,2.1-14.2,4.3-14.2,4.3
				s-1.2,6.9-2.9,12.9c-1.2-4.1-2.1-8.4-2.7-12.6c0,0-9-0.8-14.5-2.5C554,159.6,557.8,158.8,563.3,157.6"/>
			<path class="st6" d="M622.4,285.8c0.8-3.7,1-6.8,2-10.3c0.8,2.3,2.9,10.1,2.9,10.1s8,0.7,10.3,1c-3.5,1.3-7,2.4-10.6,3.2
				c0,0-0.9,5.1-2.2,9.7c-0.9-3.1-1.5-6.3-2-9.5c-3.7-0.3-7.3-1-10.9-1.9C615.5,287.2,618.4,286.6,622.4,285.8"/>
			<path class="st7" d="M834.6,171.9c1.1-4.9,1.4-9.1,2.7-13.8c1,3,3.8,13.4,3.8,13.4s10.8,0.9,13.8,1.3c-4.7,2.1-14.1,4.3-14.1,4.3
				s-1.2,6.9-2.9,12.9c-1.2-4.1-2.1-8.4-2.7-12.6c0,0-9.1-0.8-14.5-2.5C825.3,173.8,829.2,173,834.6,171.9"/>
			<path class="st4" d="M986.5,685.7c1.8-7.9,2.2-14.5,4.3-22c1.7,4.8,6.1,21.5,6.1,21.5s17.2,1.5,22,2c-7.5,3.3-22.6,6.8-22.6,6.8
				s-2,11-4.6,20.6c-1.9-6.6-3.4-13.4-4.4-20.2c0,0-14.5-1.3-23.2-3.9C971.6,688.8,977.7,687.4,986.5,685.7"/>
			<path class="st6" d="M1056,730.4c1.8-7.9,2.2-14.5,4.3-22c1.7,4.8,6.2,21.5,6.2,21.5s17.2,1.4,22,2c-7.5,3.3-22.6,6.8-22.6,6.8
				s-2,11-4.6,20.6c-1.9-6.6-3.4-13.4-4.4-20.2c0,0-14.5-1.3-23.2-4C1041.1,733.4,1047.3,732.1,1056,730.4"/>
			<path class="st6" d="M1203.9,625.9c1.4-6.4,1.8-11.7,3.5-17.8c1.3,3.9,5,17.4,5,17.4s13.9,1.2,17.8,1.6c-6,2.7-18.3,5.5-18.3,5.5
				s-1.6,8.8-3.7,16.6c-1.6-5.3-2.7-10.8-3.6-16.3c0,0-11.7-1.1-18.8-3.2C1191.8,628.4,1196.8,627.3,1203.9,625.9"/>
			<path class="st6" d="M505.6,679.2c1.7-7.8,2.2-14.4,4.3-21.9c1.6,4.8,6.1,21.4,6.1,21.4s17.1,1.4,21.8,2
				c-7.4,3.3-22.5,6.8-22.5,6.8s-2,10.9-4.6,20.5c-1.9-6.6-3.3-13.2-4.4-20c0,0-14.4-1.3-23.1-3.9
				C490.8,682.3,496.9,681,505.6,679.2"/>
			<path class="st6" d="M318.1,329.2c1.7-7.5,2.1-13.8,4.1-21c1.6,4.6,5.9,20.5,5.9,20.5s16.4,1.4,20.9,1.9
				c-7.1,3.2-21.5,6.5-21.5,6.5s-1.9,10.4-4.4,19.6c-1.8-6.3-3.2-12.7-4.2-19.2c0,0-13.8-1.3-22.1-3.8
				C303.9,332.1,309.7,330.8,318.1,329.2"/>
			<path class="st6" d="M1120,298.1c0.3-3.5-0.3-7.2-0.8-10.7c-0.3-2-0.6-4-0.9-6c5.3-1.4,10.5-2.9,15.8-4.2c0.6-0.2,1-0.7,1.1-1.4
				c0.1-0.8-0.3-1.5-1-1.9c-3.2-1.7-6.6-3.2-10-4.4c-2-0.8-4-1.6-5.9-2.3c0.1-2,0.2-3.9,0.3-5.9c0.3-3.9,0.3-7.8,0-11.6
				c-0.1-1-1-1.7-2-1.5c-0.4,0.1-0.8,0.3-1.1,0.6c-3.5,4.4-6.9,8.9-10.9,12.8c-5.6,0.1-11.2-0.5-16.8-0.7c-1-0.1-1.8,0.5-2,1.5
				c-0.1,0.6,0.1,1.2,0.6,1.6c4,3.6,7.6,7.5,11.4,11.2c-3.6,4.3-6.9,8.7-10.2,13.2c-0.6,0.8-0.4,1.9,0.4,2.5
				c0.5,0.4,1.1,0.4,1.6,0.3c5.6-1.6,11.1-3.6,16.6-5.8c3.4,4.6,6.9,9.1,10.6,13.5C1117.8,299.9,1119.9,299.8,1120,298.1
				 M1106.2,281.6c-4.2,1.6-8.3,3.3-12.6,4.7c2.6-3.4,5.2-6.8,8-10.1c0.6-0.7,0.5-1.8-0.3-2.4c-3.2-2.9-6.2-6.1-9.3-9.2
				c4.5,0.3,9,0.6,13.5,0.5c0.5,0,0.9-0.2,1.1-0.6l0,0c3.1-3,6-6.3,8.6-9.7c0,2.1-0.1,4.1-0.2,6.2c-0.1,2.4-0.2,4.9-0.4,7.3
				c-0.1,0.8,0.3,1.5,1,1.9c2.3,0.8,4.6,1.7,6.9,2.6c2,0.8,4,1.6,6,2.4c-4.3,1.1-8.6,2.3-12.8,3.5c-0.7,0.3-1.2,1-1.1,1.8
				c0.4,2.4,0.7,4.8,1.1,7.3c0.2,1.7,0.4,3.4,0.6,5.2c-2.8-3.4-5.4-7-8.1-10.5C1107.7,281.6,1106.9,281.4,1106.2,281.6"/>
			<path class="st9" d="M796.9,224c1.2-1,2-2.4,2.2-4l0.2-7.2c0-1.4,0.7-1.7,1.6-0.6l4.7,5.7c1,1.1,2.6,1.6,4.1,1.3l7.3-1.8
				c1.3-0.3,1.7,0.3,0.8,1.3l-4.1,5.1c-0.9,1.1-0.8,2.7,0.2,3.6l5.5,5.3c1,1,0.7,1.6-0.7,1.4l-7.7-1.2c-1.5-0.1-3,0.6-3.8,1.9
				l-4.3,6.8c-0.7,1.2-1.3,1-1.3-0.4l-0.2-8.1c0-1.4-1.1-2.6-2.5-2.6l-7.3-0.4c-1.4-0.1-1.6-0.8-0.5-1.6L796.9,224z"/>
			<path class="st10" d="M699.8,223.3c1-0.8,1.6-2,1.8-3.3l0.2-5.9c0-1.1,0.6-1.4,1.3-0.5l3.9,4.7c0.9,0.9,2.1,1.3,3.3,1l5.9-1.4
				c1.1-0.3,1.4,0.2,0.7,1.1l-3.4,4.1c-0.8,0.9-0.7,2.2,0.1,3l4.5,4.3c0.8,0.8,0.6,1.3-0.6,1.1l-6.3-1c-1.2-0.1-2.4,0.5-3.1,1.5
				l-3.5,5.5c-0.6,1-1.1,0.8-1.1-0.3l-0.2-6.7c0-1.2-0.9-2.1-2.1-2.2l-6-0.3c-1.1,0-1.3-0.6-0.4-1.3L699.8,223.3z"/>
			<path class="st8" d="M696,694.7c6.1-6.7,8.2-17.3,3.7-25.4c-2.1-3.8-5.8-6.6-10-7.5c-4-0.7-8.2,0-11.7,2.1
				c-7.3,4.1-12.7,13.7-7.9,21.7c2.3,3.6,6.2,5.8,10.4,5.9c4.7,0.1,9.1-2.4,11.5-6.5c1.3-2.4,1.7-5.2,1-7.8
				c-0.9-2.7-3.2-4.6-6.1-4.9c-3.1-0.4-6.2,1.3-7.6,4.1c-1.4,2.7-0.7,5.9,1.7,7.7c1.4,1.2,4.3-1.6,2.7-3c-1.4-1.1-1.9-3-1-4.6
				c0.3-0.5,0.7-0.8,1.3-0.9c1-0.2,2,0,2.9,0.5c3.4,1.6,3.3,6.5,1.3,9c-2.5,2.9-6.6,3.8-10,2.2c-3.7-1.6-6.2-5.2-6.3-9.2
				c0-1.9,0.4-3.8,1.3-5.5c0.8-1.6,1.9-3,3.2-4.2c2.6-2.4,6.1-3.7,9.7-3.6c4.1,0.1,7.6,2.7,9.8,6c2.4,3.7,2.9,8.3,2.2,12.5
				c-0.6,3.7-2.2,7.1-4.7,9.8c-0.5,0.6-1,1.7-0.1,2.3C694.3,695.8,695.3,695.5,696,694.7"/>
			<path class="st7" d="M752.8,709.1c-8.8,4.5-15,14.6-13.6,24.5c0.7,4.7,3.4,8.9,7.4,11.6c3.8,2.3,8.3,3.1,12.7,2.4
				c9.1-1.4,18.2-9.1,16.4-19.1c-1-4.5-4.1-8.3-8.4-10c-4.8-1.9-10.3-1.1-14.3,2.2c-2.3,1.9-3.7,4.6-4,7.5c-0.1,3.1,1.5,6,4.3,7.3
				c3.1,1.6,6.8,1.1,9.3-1.3c2.4-2.2,2.9-5.8,1.2-8.5c-1-1.7-5.1,0-3.9,2c1.1,1.6,0.7,3.8-0.7,5.1c-0.5,0.4-1.1,0.5-1.6,0.4
				c-1.1-0.2-2-0.8-2.8-1.6c-2.9-3-0.8-7.9,2.1-9.7c3.5-2.2,8.2-1.2,11.1,1.6c3.2,3,4.3,7.6,2.9,11.8c-0.7,1.9-1.9,3.7-3.4,5.1
				c-1.4,1.3-3,2.3-4.8,3c-3.6,1.5-7.7,1.5-11.3,0c-4.1-1.7-6.7-5.7-7.7-9.9c-1.1-4.7,0.2-9.5,2.5-13.6c2-3.5,4.9-6.4,8.5-8.2
				c0.8-0.4,1.6-1.4,1-2.3S753.8,708.7,752.8,709.1"/>
			<path class="st11" d="M468.4,533.6c10.8,3.6,24.1,0.6,31.1-8.6c3.3-4.4,4.6-10,3.5-15.4c-1.2-5-4.2-9.4-8.3-12.4
				c-8.5-6.3-22.2-7.6-28.9,2c-2.9,4.4-3.5,10.1-1.5,15c2.3,5.4,7.4,9.2,13.3,9.9c3.4,0.3,6.8-0.6,9.5-2.8c2.6-2.4,3.6-6.1,2.5-9.5
				c-1.2-3.8-4.6-6.4-8.6-6.6c-3.8-0.2-7.1,2.3-8,5.9c-0.6,2.2,4.1,4.2,4.8,1.6c0.5-2.2,2.5-3.7,4.8-3.5c0.7,0.1,1.3,0.4,1.7,1
				c0.7,1,1,2.3,0.9,3.5c-0.1,4.8-5.9,7.1-9.7,6.1c-4.6-1.2-7.6-5.7-7.7-10.4c-0.1-5.1,2.8-9.8,7.4-12c2.2-1,4.6-1.4,6.9-1.3
				c2.2,0.1,4.4,0.6,6.4,1.5c4.1,1.8,7.4,5.2,9.1,9.4c1.9,4.7,0.8,10.1-1.9,14.3c-3,4.6-8,7.5-13.3,8.9c-4.5,1.2-9.2,1.1-13.6-0.3
				c-1-0.3-2.5-0.2-2.7,1S467.3,533.2,468.4,533.6"/>
			<path class="st4" d="M436.2,625.3c-4,4.1-5.4,10.8-2.8,16c1.3,2.5,3.5,4.2,6.2,4.9c2.5,0.5,5.2,0.1,7.4-1.1
				c4.7-2.5,8.2-8.4,5.3-13.5c-1.4-2.3-3.8-3.7-6.5-3.9c-3-0.1-5.8,1.4-7.4,3.9c-0.9,1.5-1.2,3.2-0.8,4.9c0.5,1.7,2,2.9,3.7,3.2
				c2,0.3,3.9-0.7,4.9-2.5c0.9-1.7,0.5-3.7-1-4.9c-0.9-0.8-2.8,1-1.8,1.8c0.9,0.7,1.1,1.9,0.6,2.9c-0.2,0.3-0.5,0.5-0.8,0.5
				c-0.6,0.1-1.3,0-1.8-0.3c-2.1-1.1-2-4.2-0.7-5.7c1.6-1.8,4.2-2.3,6.4-1.2c2.3,1.1,3.8,3.4,3.9,5.9c0,1.2-0.3,2.4-0.9,3.4
				c-0.5,1-1.2,1.8-2,2.6c-1.7,1.5-3.9,2.3-6.2,2.1c-2.6-0.3-4.8-1.8-6.1-4c-1.4-2.4-1.8-5.2-1.2-7.9c0.4-2.3,1.5-4.4,3.1-6.1
				c0.4-0.4,0.6-1.1,0.1-1.4C437.3,624.7,436.6,624.8,436.2,625.3"/>
			<path class="st8" d="M505.8,448.3c-4,4.1-5.4,10.8-2.8,16c1.3,2.5,3.5,4.2,6.2,4.9c2.5,0.5,5.2,0.1,7.4-1.1
				c4.7-2.5,8.2-8.4,5.3-13.5c-1.4-2.3-3.8-3.7-6.5-3.9c-3-0.1-5.8,1.4-7.4,3.9c-0.9,1.5-1.2,3.2-0.8,4.9c0.5,1.7,2,2.9,3.7,3.2
				c2,0.3,3.9-0.7,4.9-2.5c0.9-1.7,0.5-3.7-1-4.9c-0.9-0.8-2.8,1-1.8,1.8c0.9,0.7,1.1,1.9,0.6,2.9c-0.2,0.3-0.5,0.5-0.8,0.5
				c-0.6,0.1-1.3,0-1.8-0.3c-2.1-1.1-2-4.2-0.7-5.7c1.6-1.8,4.2-2.3,6.4-1.2c2.3,1.1,3.8,3.4,3.8,5.9c0,1.2-0.3,2.4-0.9,3.4
				c-0.5,1-1.2,1.8-2.1,2.6c-1.7,1.5-3.9,2.3-6.2,2.1c-2.5-0.3-4.8-1.7-6.1-4c-1.4-2.4-1.8-5.2-1.2-7.9c0.4-2.3,1.5-4.4,3.1-6.1
				c0.4-0.4,0.6-1.1,0.1-1.4C506.8,447.7,506.2,447.9,505.8,448.3"/>
			<path class="st4" d="M384.1,493.8c-1.7-0.9-3.8-0.8-5.4,0.2c-0.4,0.2-0.7,0.5-1,0.8c-0.4-0.5-0.7-1-1-1.5
				c-0.5-1.1-0.7-2.3-0.5-3.5c0-0.2,0.1-0.3,0.1-0.5c1.3,1,2.9,1.6,4.6,1.6c1.9,0,4.7-1,3.9-3.4c-0.6-2-3.4-2.1-5.1-1.9
				c-1.1,0.1-2.1,0.5-3.1,1c-0.3-0.5-0.6-1.1-0.8-1.7c-0.3-1-0.4-2-0.3-3c0.4,0.2,0.8,0.4,1.2,0.5c2.4,1,5.4,1.1,7.6-0.5
				c1.5-1.1,2-3.2,0.5-4.6c-1.8-1.7-5-1.7-7.2-0.8c-1.3,0.5-2.4,1.4-3.2,2.6c-0.8-0.7-1.4-1.5-1.9-2.4c-0.4-0.9-2.5-0.2-2.1,0.6
				c0.7,1.5,1.8,2.8,3.2,3.6c-0.6,2.2-0.3,4.5,0.8,6.5c0.1,0.2,0.2,0.4,0.4,0.6c-0.3,0.4-0.5,0.8-0.7,1.2c-0.7,2.4-0.1,5,1.7,6.8
				c0.2,0.2,0.3,0.3,0.5,0.5c-1.3,3.3,0.5,8.1,2.4,10.6c0.5,0.7,2.5-0.1,1.9-0.9c-1.7-2.2-2.6-4.9-2.6-7.7c0-0.4,0-0.7,0.1-1.1
				c1.6,0.4,3.4,0.2,4.9-0.5c0.8-0.3,1.4-0.9,1.7-1.7C385.1,494.7,384.7,494.1,384.1,493.8 M376.7,479.3c1.2-1.6,3.4-2.2,5.3-1.5
				c1.6,0.5,2.4,2.2,1.2,3.4c-0.7,0.6-1.6,0.8-2.5,0.8c-1.3-0.1-2.6-0.5-3.7-1.2c-0.3-0.1-0.5-0.3-0.8-0.4
				C376.3,480,376.5,479.6,376.7,479.3 M377.7,487.8c1.2-0.7,3.5-1.2,4.6-0.1c0.2,0.2,0.4,0.5,0.4,0.9c0,0.2,0,0.3,0,0.5
				c0,0.1-0.1,0.2-0.2,0.3c0.1-0.1-0.1,0-0.1,0.1l0,0h-0.1h0h-0.1l-0.2,0.1c-0.5,0.1-1,0.1-1.5,0c-1.2-0.2-2.2-0.8-3-1.6
				L377.7,487.8 M382.6,495.7c-0.2,0.1-0.4,0.2-0.5,0.3c-1,0.4-2.1,0.4-3-0.1c0.2-0.3,0.3-0.5,0.6-0.7c0.2-0.2,0.5-0.4,0.8-0.5
				c0.3-0.1,0.7-0.1,1-0.1c0.6,0,1.1,0.3,1.4,0.7c0-0.1,0,0.1,0,0.1s0,0.1,0,0.1s-0.1,0.1,0,0C382.8,495.7,382.8,495.6,382.6,495.7"
				/>
			<path class="st4" d="M524,596.8c-1.7-0.9-3.8-0.8-5.4,0.2c-0.4,0.2-0.7,0.5-1,0.8c-0.4-0.5-0.7-1-1-1.5c-0.5-1.1-0.7-2.3-0.5-3.5
				c0-0.2,0.1-0.3,0.1-0.5c1.3,1,2.9,1.6,4.6,1.6c1.9,0,4.7-1,3.9-3.4c-0.7-2-3.4-2.1-5.1-1.8c-1.1,0.1-2.1,0.5-3.1,1
				c-0.3-0.5-0.6-1.1-0.8-1.7c-0.3-1-0.4-2-0.3-3c0.4,0.2,0.8,0.4,1.2,0.6c2.4,1,5.4,1.1,7.6-0.6c1.5-1.2,2-3.2,0.5-4.6
				c-1.8-1.7-5-1.7-7.2-0.8c-1.3,0.5-2.4,1.4-3.2,2.6c-0.8-0.7-1.5-1.5-1.9-2.4c-0.4-0.9-2.5-0.3-2.1,0.6c0.7,1.5,1.8,2.8,3.2,3.7
				c-0.6,2.2-0.3,4.5,0.8,6.5c0.1,0.2,0.2,0.4,0.4,0.6c-0.3,0.4-0.5,0.8-0.7,1.3c-0.7,2.4-0.1,5,1.7,6.8c0.2,0.2,0.3,0.3,0.5,0.5
				c-1.3,3.3,0.5,8.1,2.4,10.6c0.5,0.7,2.5-0.1,1.9-0.9c-1.7-2.2-2.6-4.9-2.6-7.7c0-0.4,0-0.7,0.1-1.1c1.6,0.4,3.4,0.2,4.9-0.5
				c0.8-0.3,1.4-0.9,1.7-1.7C524.9,597.6,524.5,597,524,596.8 M516.6,582.3c1.2-1.6,3.4-2.2,5.3-1.5c1.6,0.5,2.4,2.2,1.2,3.4
				c-0.7,0.6-1.6,0.9-2.5,0.8c-1.3-0.1-2.6-0.5-3.7-1.2c-0.3-0.1-0.5-0.3-0.8-0.4C516.2,582.9,516.4,582.6,516.6,582.3 M517.6,590.7
				c1.2-0.7,3.5-1.2,4.6-0.1c0.2,0.2,0.4,0.5,0.4,0.9c0,0.2,0,0.3,0,0.5c0,0.2-0.1,0.2-0.2,0.3c0.1-0.1-0.1,0.1-0.1,0.1l0,0h-0.1
				l0,0h-0.1l-0.2,0c-0.5,0.1-1,0.1-1.5,0C519.4,592.2,518.4,591.6,517.6,590.7l0.1-0.1 M522.6,598.6c-0.2,0.1-0.4,0.2-0.5,0.3
				c-1,0.4-2.1,0.4-3-0.1c0.2-0.3,0.4-0.5,0.6-0.7c0.2-0.2,0.5-0.4,0.8-0.5c0.3-0.1,0.7-0.1,1-0.1c0.6,0,1.1,0.3,1.4,0.7
				c0-0.1,0,0.1,0,0.1c0,0,0,0.1,0,0.1c0,0.1-0.1,0.1,0,0C522.7,598.6,522.7,598.5,522.6,598.6"/>
			<polyline class="st5" points="522.1,227.5 522.1,227.5 522.1,227.5 522.1,227.5 522.1,227.5 			"/>
			<path class="st11" d="M541,185.2c-0.7-0.9-2-1.1-3-0.5c-3.2,2-6.6,3.8-10.1,5.3c-4-2.5-8.5-3.9-13.2-4.1
				c-3.6-0.2-12.5,1.3-11,6.8c0.6,2.2,3,3.2,4.9,3.8c3.2,1,6.9,0.6,10.2,0c2.7-0.5,5.4-1.2,8-2.1c2.7,2.2,4.7,5.1,3.8,8.6
				c-0.4,1.5-1.1,2.9-1.9,4.1c-1.2-0.5-2.5-0.9-3.8-1.1c-2.4-0.4-4.9-0.4-7.3,0.1c-1.8,0.3-3.9,0.9-5.3,2.2
				c-1.4,1.3-1.5,3.5-0.1,4.9c0.1,0.1,0.2,0.2,0.2,0.2c1.9,1.9,4.5,2.9,7.2,2.9c3.4-0.1,6.6-1.4,9.1-3.6c2.4,3.4,2.9,7.8,1.3,11.7
				c-0.2,0.5-0.5,0.9-0.8,1.3c-1.7-2.2-4.4-3.3-7.1-2.8c-3.3,0.6-6.2,4.6-3.4,7.5c1.6,1.6,4.4,1.5,6.4,1.2c0.7-0.1,1.3-0.2,2-0.4
				c0.4,1.5,0.5,3,0.3,4.6c-0.5,5.4-2.9,10.4-3.8,15.7c-0.4,2.5,4.1,2.2,4.5-0.2c1-6.3,4.2-12.2,3.8-18.7c-0.1-1.1-0.3-2.3-0.7-3.3
				c0.4-0.3,0.7-0.6,1-0.9c3.4-3.7,3.8-9.1,2.3-13.7c-0.6-1.8-1.5-3.5-2.8-5c0.7-0.8,1.2-1.7,1.8-2.7c1.4-2.4,2-5.2,1.5-7.9
				c-0.6-2.5-2-4.7-3.9-6.4c3.1-1.4,6-3,8.8-4.8C540.9,187.3,541.6,186.2,541,185.2 M522,227.2L522,227.2 M524.3,227.9
				c-0.7,0.1-1.3,0-2-0.2l-0.2-0.1c0,0,0-0.1-0.1-0.1s0,0,0,0.1v-0.1l0,0l0,0v-0.1c0,0,0,0,0-0.1c0,0,0,0.1,0,0.1
				c0.3,0.2,0-0.2,0-0.1l0,0c0,0,0-0.1,0-0.1l0.1-0.2c-0.1,0.2,0,0,0.1-0.2c0,0.1,0.4-0.3,0.3-0.2h0.1l0,0l0.2-0.1h0.3
				c-0.7,0,0.7,0.2,0.2,0c0.3,0.1,0.5,0.2,0.7,0.3c0.4,0.3,0.8,0.6,1.1,0.9L524.3,227.9 M515.5,210.6L515.5,210.6 M515.4,210.8
				L515.4,210.8L515.4,210.8L515.4,210.8 M516.9,211.9c-0.4-0.3-0.8-0.6-1.2-0.9c-0.1-0.1-0.1-0.1-0.2-0.2l0,0
				c0.2-0.1,0.7-0.3,0.7-0.3c0.5-0.2,0.9-0.3,1.4-0.4c2-0.4,4-0.4,6-0.1c0.7,0.1,1.3,0.3,1.9,0.5c-1.6,1.4-3.7,2.2-5.8,2.3
				C518.7,212.7,517.7,212.4,516.9,211.9 M517.5,193.1c-2.7,0.4-5.8,0.6-8.3-0.5c-0.3-0.1-0.6-0.3-0.8-0.6c0,0-0.3-0.4-0.3-0.3
				l-0.1-0.2c0,0.1,0,0,0-0.1c0,0,0-0.1,0-0.1c0,0.1,0.4-0.4,0.1-0.1c0.2-0.3,0.5-0.4,0.8-0.6c0.4-0.2,0.9-0.4,1.3-0.4
				c1.5-0.3,3-0.5,4.4-0.4c2.6,0.2,5.2,0.9,7.5,2l0.4,0.2C520.8,192.4,519.2,192.8,517.5,193.1"/>
			<path class="st4" d="M1149.4,563.4c-3.3-3.5-8.7-3.8-12.3-0.7c-2.3,1.9-3.9,4.6-4.3,7.6c-3.1-1.1-6.6-0.9-9.5,0.6
				c-4.4,2.3-6.4,7.5-4.7,12.2c1.6,4.7,6.3,7.1,10.8,8.3c4.7,1.2,9.4,1.4,14.2,1.8c0.2,0,0.4,0,0.6,0c1.1,0.1,2.1-0.6,2.6-1.6
				c0-0.1,0.1-0.2,0.1-0.2C1149.8,582.9,1157,571.4,1149.4,563.4 M1124.2,583.2c-1-1.6-1.4-3.4-1.2-5.2c0.2-1.5,1-2.8,2.2-3.7
				c1-0.6,2.1-0.9,3.3-0.8c1.9,0.2,3.6,1.1,4.8,2.5c1.4,1.4,4.7-0.2,4.4-2.2c-0.5-3.1,0.5-6.8,3-8.8c0.4-0.3,0.8-0.5,1.2-0.6
				c0.3-0.1,0.7-0.1,1,0c1.8,0.5,3,2.2,3.9,3.7c1.9,3.3,0.8,7.7-0.3,11s-2.6,6.7-3.8,10c-3.1-0.1-6.1-0.5-9.2-1
				C1130,587.5,1126.3,586.2,1124.2,583.2"/>
			<path class="st8" d="M949.4,182.6c-8.1-1.9-22.6-4.6-24.6-14c-2.3-11.2,11.1-15.6,17.4-6.7c0-10.1,11.3-17,16.8-6.5
				C963.3,163.6,953.7,174.6,949.4,182.6"/>
			<path class="st8" d="M1019.6,173.2c-1.8-5.1-5.6-13.9-1.3-18.3c5.3-5.3,12.4,0.4,9.9,7c5.5-3.6,13.2,0,9.5,6.7
				C1034.8,173.9,1025.5,172.6,1019.6,173.2"/>
			<path class="st5" d="M844.6,752.8c-6.4,0.9-17.5,3.2-21.7-2.9c-4.9-7.4,3.4-14.4,10.5-9.8c-2.9-7.3,3.2-15.4,10.1-9.5
				C849.1,735.2,845.3,745.8,844.6,752.8"/>
			<path class="st5" d="M704.3,481.2c-6.4,0.9-17.5,3.2-21.7-2.9c-4.9-7.4,3.4-14.4,10.5-9.8c-2.9-7.3,3.2-15.4,10.1-9.5
				C708.8,463.6,705,474.2,704.3,481.2"/>
			<path class="st4" d="M808.8,724.5c-2.2-4.5-6.5-12.1-2.9-16.6c4.3-5.3,11.4-0.8,9.7,5.5c4.7-3.8,12.1-1.2,9.3,5.2
				C822.7,723.7,814,723.4,808.8,724.5"/>
			<path class="st8" d="M790.4,705.3c-2.2-0.3-6.1-0.6-6.9-3c-0.9-2.9,2.5-4.4,4.4-2.3c-0.3-2.7,2.5-4.8,4.2-2.2
				C793.5,699.8,791.3,703,790.4,705.3"/>
			<path class="st8" d="M453.4,443.5c-9.4-0.6-26.1-0.9-30.1-11c-4.7-12.1,9.5-19.6,18.2-10.8c-1.9-11.4,9.5-21.1,17.5-10.5
				C465.4,419.7,456.6,433.7,453.4,443.5"/>
			<path class="st12" d="M453.4,443.5c-8.1-1.8-21.2-3.4-24.3-11.1c-3.6-9.3,8.3-12.3,15-5.6c-1.5-8.7,4.9-16,10.4-13
				C462.7,418.3,455.5,434.9,453.4,443.5"/>
			<path class="st6" d="M1027.4,240.9c0.9-8.4,1.6-23.4,10.8-26.7c11.1-3.9,17.3,9.1,9.1,16.7c10.3-1.4,18.7,9.1,8.8,16.1
				C1048.5,252.4,1036.1,244,1027.4,240.9"/>
			<path class="st12" d="M1027.4,240.9c1.9-7.3,3.7-19,10.7-21.5c8.5-3,10.8,7.9,4.6,13.7c7.9-1,14.2,4.9,11.3,9.8
				C1049.8,250.1,1035.1,243.1,1027.4,240.9"/>
			<path class="st6" d="M904.5,665.6c-2.6-3.2-6.2-5.5-10.2-6.3c-6.9-1.7-14.1,0.4-19.1,5.4c-0.8,0.1-1.6,0.6-2,1.4
				c-0.4,0.9-0.7,1.8-1,2.8c-0.4,0.7-0.7,1.5-1,2.3c-0.2,0.5-0.3,0.9-0.5,1.4s0.2,1,0.7,1.2c-0.1,2.5,0.4,5,1.5,7.2
				c2,4.2,5.6,7.4,9.9,9c4.6,1.7,9.6,1.6,14.1-0.4c4.8-2.3,8.4-6.7,9.7-11.8C907.8,673.5,907,669,904.5,665.6 M898.7,683.3
				c-0.5,0.7-1.1,1.3-1.8,1.9c-0.5,0.4-1,0.8-1.6,1.1c-1.1,0.7-2.4,1-3.7,1.1c-1.3,0.1-2.7,0-4-0.4c-1.6-0.4-3.1-1.1-4.4-2
				c-5.6-3.6-7.5-10.2-5.8-16.3c0.6-1,1.2-1.9,2-2.8c1.2-1.4,2.8-2.4,4.5-3.1l0,0l0.2-0.1c0.2-0.1,0.5-0.1,0.7-0.2l0.7-0.2l0.4-0.1
				c0.4-0.1,0.9-0.1,1.3-0.2h0.7h0.5c1.9,0,3.7,0.4,5.5,1.2c3.4,1.3,6,4,7.3,7.4C902.6,675,901.3,679.9,898.7,683.3"/>
			<path class="st4" d="M1188.8,157.1c-3.9-5.4-10.3-8.9-16.7-10.4c-11.5-2.7-23.6,0.7-31.3,8.8c-1.4,0.2-2.6,1.1-3.3,2.3
				c-0.6,1.5-1.2,3-1.6,4.5c-0.6,1.2-1.2,2.4-1.6,3.7c-0.3,0.7-0.5,1.5-0.8,2.3c-0.3,1,0.3,1.6,1.1,2c-0.1,4.1,0.7,8.1,2.4,11.8
				c3.3,6.8,9.2,12.1,16.3,14.8c7.5,2.9,15.8,2.6,23.1-0.6c8-3.6,13.6-11.1,15.9-19.4C1194.2,170.1,1192.9,162.7,1188.8,157.1
				 M1179.3,186.2c-0.9,1.1-1.9,2.2-2.9,3.1c-0.8,0.7-1.7,1.3-2.6,1.8c-1.9,1.1-4,1.7-6.1,1.9c-2.2,0.2-4.4,0-6.6-0.6
				c-2.6-0.7-5-1.8-7.2-3.3c-9.1-5.9-12.2-16.7-9.6-26.7c0.9-1.6,2-3.2,3.2-4.6c2-2.3,4.6-4,7.4-5h0.1l0.3-0.1l1.2-0.3
				c0.4-0.1,0.8-0.2,1.2-0.3l0.7-0.1c0.7-0.1,1.4-0.2,2.1-0.2c0.4,0,0.8,0,1.2-0.1h0.9c3.1,0,6.2,0.7,9,1.9c5.5,2.2,9.9,6.6,12,12.1
				C1185.8,172.6,1183.7,180.6,1179.3,186.2"/>
			<path class="st6" d="M724,175.2c-3.3-2.6-7.9-2.5-11.2,0.1c-0.2,0.2-0.4,0.4-0.5,0.7c-2.4,3.6-1.5,8.4,1.9,11
				c4,2.9,9.2,1.5,12-2.3C728.5,181.5,727,177.3,724,175.2 M722.4,182.5c-0.6,0.9-1.6,1.5-2.6,1.8c0.2,0-0.5,0.1-0.6,0.1h-0.2
				l-0.3-0.1c-0.2,0-0.3-0.1-0.5-0.1c0.2,0.1,0.1,0.1-0.1,0s-0.9-0.5-0.7-0.4c-0.9-0.6-1.5-1.4-1.7-2.5c-0.1-0.4-0.1-0.9,0-1.3
				c0.1-0.6,0.3-1.1,0.6-1.6l0.4-0.3l0.2-0.1l0.3-0.1c0.1,0,0.7-0.1,0.6-0.1c0.2,0,0.5,0,0.7,0h0.2h0.3c0.3,0.1,0.6,0.1,0.8,0.2h0.1
				l0.4,0.2c0.3,0.2,0.6,0.3,1,0.5c-0.3-0.2,0.3,0.3,0.4,0.3s0.4,0.4,0.5,0.5c-0.2-0.2,0.3,0.4,0.3,0.4s0.3,0.5,0.3,0.5
				c0.1,0.2,0.1,0.3,0.1,0.5c-0.1-0.3,0,0.3,0,0.5C722.7,181.8,722.6,182.1,722.4,182.5"/>
			<path class="st6" d="M932,457.7c-4.7-3.3-10.8-3.6-15.3,0.2c-0.3,0.3-0.5,0.6-0.7,1c-3,4.9-2.2,11.4,2.6,14.9
				c5.5,4,12.5,2.1,16.3-3.2C938.1,466.3,936,460.6,932,457.7 M929.7,467.5c-0.9,1.2-2.1,2-3.5,2.4c-0.3,0-0.6,0-0.9,0.1
				c-0.1,0-0.2,0-0.3,0l-0.5-0.1l-0.6-0.2l-0.2-0.1c-0.2-0.1-1.2-0.7-1-0.5c-1.2-0.8-2-2-2.3-3.3c-0.1-0.6-0.1-1.2,0-1.8
				c0.1-0.8,0.4-1.5,0.8-2.2l0.5-0.4l0.3-0.1l0.3-0.1c0.1,0,0.9-0.2,0.8-0.2c0.3,0,0.7,0,1,0h0.3l0.4,0.1c0.4,0.1,0.8,0.2,1.2,0.3
				h0.1l0.5,0.2c0.4,0.2,0.9,0.4,1.3,0.7c-0.4-0.3,0.4,0.4,0.5,0.4c0.3,0.2,0.5,0.5,0.7,0.7c-0.2-0.2,0.3,0.5,0.4,0.6
				s0.3,0.7,0.4,0.7c0.1,0.2,0.1,0.5,0.2,0.7c-0.1-0.4,0,0.5,0,0.6C930.2,466.6,930,467.1,929.7,467.5"/>
			<path class="st8" d="M496.8,335.3c-5.3,11-22.7,4.9-17.5-6.9S502.1,323.6,496.8,335.3 M473.5,332.5c-4.7,2.3-10.5,8.2-6.2,13.6
				c3.9,4.7,10.1,1.2,14.4-1.5c-1,4.7-0.8,12.8,5.4,12c5.8-0.4,7.8-8,7-12.8c10.1,13.2,18.3-6.6,7.4-9.3
				c11.7,3.5,11.7-13.6,0.4-10.9c10.9-3.5,1.2-19.4-10.1-7.4c-1.2-4.3-1.5-10.5-8.2-9.3c-6.2,1.2-6.4,7.8-3.3,12
				C468.4,312.1,459.5,328.4,473.5,332.5"/>
			<path class="st7" d="M1126,667.4c-4.8,9.8-20.4,4.4-15.7-6.2S1130.8,656.9,1126,667.4 M1105.2,664.9c-4.2,2.1-9.4,7.3-5.6,12.2
				c3.5,4.2,9.1,1,12.9-1.4c-0.9,4.2-0.7,11.5,4.9,10.8c5.2-0.3,7-7.2,6.3-11.5c9.1,11.8,16.4-5.9,6.6-8.4
				c10.4,3.1,10.4-12.2,0.3-9.8c9.8-3.1,1-17.4-9.1-6.6c-1-3.8-1.4-9.4-7.3-8.4c-5.6,1-5.8,7-3,10.8
				C1100.6,646.6,1092.6,661.2,1105.2,664.9"/>
			<path class="st8" d="M966.7,751.5c-2.8,5.9-12.2,2.6-9.4-3.7S969.5,745.2,966.7,751.5 M954.2,749.9c-2.5,1.3-5.6,4.4-3.3,7.3
				c2.1,2.5,5.4,0.6,7.7-0.8c-0.5,2.5-0.4,6.9,2.9,6.5c3.1-0.2,4.2-4.3,3.8-6.9c5.4,7.1,9.8-3.5,4-5c6.3,1.9,6.3-7.3,0.2-5.8
				c5.8-1.9,0.6-10.5-5.4-4c-0.6-2.3-0.8-5.6-4.4-5c-3.3,0.6-3.4,4.2-1.8,6.5C951.5,739,946.7,747.7,954.2,749.9"/>
			<path class="st8" d="M781.2,160.5c-4.8,10-20.7,4.4-15.9-6.3S786,149.9,781.2,160.5 M760,158c-4.3,2.1-9.6,7.4-5.7,12.4
				c3.5,4.3,9.2,1.1,13.1-1.4c-0.9,4.3-0.7,11.7,5,11c5.3-0.4,7.1-7.3,6.4-11.7c9.2,12.1,16.7-6,6.7-8.5c10.6,3.2,10.6-12.4,0.3-9.9
				c9.9-3.2,1.1-17.7-9.2-6.7c-1.1-3.9-1.4-9.6-7.5-8.5c-5.7,1.1-5.8,7.1-3,11C755.4,139.4,747.3,154.3,760,158"/>
			<path class="st4" d="M785.5,456.9c-2.2,4.6-9.4,2-7.2-2.9S787.7,452,785.5,456.9 M775.8,455.7c-1.9,1-4.3,3.4-2.6,5.6
				c1.6,1.9,4.2,0.5,6-0.6c-0.4,1.9-0.3,5.3,2.3,5c2.4-0.2,3.2-3.3,2.9-5.3c4.2,5.5,7.6-2.7,3.1-3.9c4.8,1.5,4.8-5.6,0.2-4.5
				c4.5-1.5,0.5-8.1-4.2-3.1c-0.5-1.8-0.6-4.4-3.4-3.9c-2.6,0.5-2.7,3.2-1.4,5C773.8,447.3,770.1,454,775.8,455.7"/>
			<path class="st13" d="M331.3,182.2c0,0-1.5,14.8-1.6,18.3c0,0-9.2,1.5-13,2.4c3.8,2.7,7.9,5.2,12,7.4c0,0-1.5,11.4-1.7,14.5
				c4.2-3.5,7.8-7.6,10.6-12.3c0,0,9.9,3.8,13.6,5.3c0,0-4.2-9.8-4.7-11.8c0,0,5.3-6.2,8-10.3c0,0-10.9,1.2-13.9,1.8
				C340.6,197.4,331.7,182.6,331.3,182.2"/>
			<path class="st14" d="M338,201.3c0.2,0.7,0,1.4-0.5,1.4s-0.9-0.4-1-1.1s0-1.4,0.5-1.4S337.9,200.5,338,201.3"/>
			<path class="st14" d="M334.7,201.9c0.2,0.7,0,1.4-0.5,1.5s-0.9-0.4-1-1.1s0-1.4,0.5-1.4S334.6,201.2,334.7,201.9"/>
			<path class="st14" d="M331.1,204.8c0.9,1.4,3.3,2.1,4.9,1.9c2-0.3,4.1-1.4,4.6-3.5c0-0.2-0.2-0.3-0.3-0.1
				c-0.8,1.6-2.3,2.8-4.1,3.1C334.2,206.5,332.8,205.4,331.1,204.8L331.1,204.8"/>
			<path class="st4" d="M390.2,643.4c0,0,0.6-11.6,0.8-14.6c0,0,6.5,9.4,8.3,13.9c0,0,13.8,0.2,16.5,0.5c0,0-6.4,7.5-8.4,9.3
				c0,0,2.2,12.2,2.9,14.6c0,0-8.9-5.1-12.3-7.4c0,0-6.7,8.3-9,10.2c0,0-1.3-10.3-1-15.5c0,0-11.5-5.6-15.1-7.3
				C373,647.2,387.8,643.9,390.2,643.4"/>
			<path class="st14" d="M394.8,649c0.1,0.7-0.1,1.3-0.4,1.4s-0.8-0.4-0.9-1.1s0.1-1.3,0.4-1.4S394.6,648.3,394.8,649"/>
			<path class="st14" d="M397.1,648.8c0,0.7-0.2,1.3-0.6,1.3s-0.7-0.5-0.7-1.3s0.2-1.3,0.6-1.3S397.1,648.1,397.1,648.8"/>
			<path class="st14" d="M391,651.2c0.3,2,2.9,3.2,4.8,2.9c2-0.3,3.6-1.6,4.3-3.5c0.1-0.3-0.3-0.5-0.4-0.2c-0.9,1.5-2,2.8-3.8,3.1
				C393.7,653.8,392.6,652.4,391,651.2C391.1,651.1,391,651.1,391,651.2"/>
			<path class="st13" d="M1188.5,524.8c-0.2,1.7-1.3,10.1-1.8,14.6c0,0-8.7,3-12.7,5.1l13,3.2c0,0,0.4,11,0.6,14.3
				c0,0,7.6-11,9.1-13c0,0,10.4,5,13.3,6c0,0-3.4-9.5-5-12.7c0,0,3.9-6.7,5.3-10.1c0,0-7.4,2.3-11.4,3.5c0,0-9.1-10-10.3-11.1
				L1188.5,524.8z"/>
			<path class="st14" d="M1193.6,541.2c0.2,0.6,0.2,1.2-0.1,1.3s-0.7-0.3-0.9-1s-0.2-1.2,0.1-1.3S1193.3,540.5,1193.6,541.2"/>
			<path class="st14" d="M1196.2,540.4c0.1,0.7,0,1.2-0.3,1.3s-0.7-0.4-0.8-1.1s0.1-1.2,0.4-1.3S1196.1,539.8,1196.2,540.4"/>
			<path class="st14" d="M1190.5,543.2c1.2,1.2,2.9,1.8,4.5,1.5c1.9-0.3,3.2-1.7,4.3-3.2c0.1-0.2-0.2-0.5-0.3-0.3
				c-1.1,1.3-2.1,2.5-3.8,3s-3.1-0.5-4.6-1.1C1190.5,543,1190.4,543.1,1190.5,543.2"/>
			<polygon class="st15" points="711.9,413.5 724.1,264.6 674.5,265.9 667.8,331.9 643.1,287.1 627.3,335.6 599.5,275 559.1,280.7 
				608.8,432.2 649.1,425.6 651.6,362.6 668.3,414.4 			"/>
			<path class="st16" d="M613,326.8c0,0-8.1-1.1-9.9,11.1C603.1,337.9,614.2,335.5,613,326.8"/>
			<path class="st16" d="M618,343.6c0,0-8.1-1.1-9.9,11.1C608.1,354.8,619.2,352.3,618,343.6"/>
			<path class="st16" d="M623.1,360.9c0,0-8.1-1.1-9.9,11.1C613.2,372,624.3,369.5,623.1,360.9"/>
			<path class="st16" d="M628.2,378.3c0,0-8.1-1.1-9.9,11.1C618.4,389.4,629.5,386.9,628.2,378.3"/>
			<path class="st16" d="M632.6,393c0,0-8.1-1.1-9.9,11.1C622.8,404.1,633.8,401.7,632.6,393"/>
			<path class="st16" d="M584.5,335.3c0,0,6.2-5.4,14.3,4C598.8,339.3,588.2,343.3,584.5,335.3"/>
			<path class="st16" d="M589.5,352.1c0,0,6.2-5.4,14.3,4C603.8,356.1,593.1,360.1,589.5,352.1"/>
			<path class="st16" d="M594.5,369.3c0,0,6.2-5.4,14.3,4C608.9,373.3,598.2,377.3,594.5,369.3"/>
			<path class="st16" d="M599.7,386.7c0,0,6.2-5.4,14.3,4C614,390.7,603.4,394.7,599.7,386.7"/>
			<path class="st16" d="M604,401.5c0,0,6.2-5.4,14.3,4C618.4,405.5,607.8,409.4,604,401.5"/>
			<polygon class="st16" points="595.3,322 622.9,415.3 624.5,414.9 596.8,321.5 			"/>
			<path class="st17" d="M574.4,303c11.2-1.3,7,18.6,19.7,17.1c6.1-0.8,8.5-6.1,7.3-11.8c-1.2-5.4-3.5-8.4,1.4-12.5
				c-4.1,1.3-7.7,1.7-9.2,6.5c-0.5-1.3-3.3-7.5-5.7-8.4c-2.7,2.1-1.2,7.2-1,10.3C583.5,301,578.4,300.5,574.4,303"/>
			<path class="st16" d="M710,317.8c0,0-7.1-4.1-13.4,6.5C696.6,324.3,707.8,326.3,710,317.8"/>
			<path class="st16" d="M708.2,335.3c0,0-7.1-4.1-13.4,6.5C694.9,341.8,706.1,343.7,708.2,335.3"/>
			<path class="st16" d="M706.4,353.1c0,0-7.1-4.1-13.4,6.5C693,359.7,704.2,361.6,706.4,353.1"/>
			<path class="st16" d="M704.5,371.2c0,0-7.1-4.1-13.4,6.5C691.2,377.7,702.4,379.6,704.5,371.2"/>
			<path class="st16" d="M703,386.5c0,0-7.1-4.1-13.4,6.5C689.6,393,700.8,394.9,703,386.5"/>
			<path class="st16" d="M680.4,314.7c0,0,7.8-2.6,11.8,9.1C692.2,323.9,680.8,323.5,680.4,314.7"/>
			<path class="st16" d="M678.6,332.2c0,0,7.8-2.6,11.7,9.1C690.4,341.3,679,340.9,678.6,332.2"/>
			<path class="st16" d="M676.8,350.1c0,0,7.8-2.6,11.7,9.1C688.5,359.2,677.2,358.8,676.8,350.1"/>
			<path class="st16" d="M674.9,368.1c0,0,7.8-2.6,11.7,9.1C686.7,377.3,675.3,376.9,674.9,368.1"/>
			<path class="st16" d="M673.3,383.4c0,0,7.8-2.6,11.8,9.1C685.1,392.6,673.8,392.2,673.3,383.4"/>
			<polygon class="st16" points="695.5,306.6 685.5,403.4 687.1,403.6 697.1,306.7 			"/>
			<path class="st17" d="M683.4,281.1c10.8,3.1-0.7,19.9,11.8,23.3c6,1.6,10.2-2.5,11.3-8.2c1-5.5,0-9,6.1-11
				c-4.3-0.4-7.8-1.3-11,2.5c0-1.4-0.2-8.1-2.1-9.9c-3.3,0.9-3.9,6.2-4.9,9.1C692.5,282.7,688,280.4,683.4,281.1"/>
			<path class="st8" d="M798.2,358.6c0,0,1.9-53.2-36.8-50.5s-39,96.7,7.6,98.5c24.2,0.9,28.9-22.2,29-30.5l-16.3,0.9
				c0,0,0.3,10-11.2,10.3c-14.9,0.3-14.2-27.8-14.2-27.8L798.2,358.6z M764,324c9.7-0.4,10.2,19.4,10.2,19.4l-17.3,0.9
				C756.6,338.8,757.1,324.4,764,324"/>
			<path class="st17" d="M741.7,373.9c-0.6,1.3,1.7,4.3,4,2.1S743.5,370.2,741.7,373.9"/>
			<path class="st17" d="M741.8,341.1c-0.6,1.3,1.7,4.3,4,2.1S743.6,337.4,741.8,341.1"/>
			<path class="st17" d="M758.9,314.3c-0.6,1.3,1.7,4.3,4,2.1S760.7,310.6,758.9,314.3"/>
			<path class="st17" d="M783.9,330.2c-0.6,1.2,1.7,4.3,4,2.1S785.7,326.5,783.9,330.2"/>
			<path class="st17" d="M773.3,350.8c-0.6,1.3,1.7,4.3,4,2.1S775.1,347.1,773.3,350.8"/>
			<path class="st17" d="M787.8,381.8c-0.6,1.3,1.7,4.3,4,2.1S789.6,378.1,787.8,381.8"/>
			<path class="st17" d="M764.3,397.4c-0.6,1.3,1.7,4.3,4,2.1S766.1,393.7,764.3,397.4"/>
			<path class="st18" d="M747.6,358.6l-4.5,9.2h1.2l-4.6-9.1v0.6l4.5-9.2H743l4.6,9.1L747.6,358.6z M743,349.5l-4.5,9.2l-0.1,0.3
				l0.2,0.3l4.6,9.1l0.6,1.2l0.6-1.2l4.5-9.2l0.1-0.3l-0.2-0.3l-4.6-9.1l-0.6-1.2L743,349.5z"/>
			<path class="st18" d="M783.6,347l3.3-9.7l-1.2,0.2l5.7,8.5l-0.1-0.6l-3.3,9.6l1.2-0.1l-5.7-8.5L783.6,347z M789.3,355.5l3.3-9.6
				l0.1-0.3l-0.2-0.3l-5.7-8.5l-0.7-1.1l-0.4,1.3l-3.3,9.6l-0.1,0.3l0.2,0.3l5.7,8.5l0.8,1.1L789.3,355.5z"/>
			<path class="st18" d="M760.2,347.9l8.4,5.8l0.2-1.2l-9.7,3.2l0.6,0.1l-8.4-5.7l-0.2,1.2l9.7-3.2L760.2,347.9z M750.5,351.1
				l8.4,5.8l0.3,0.2l0.3-0.1l9.7-3.2l1.3-0.4l-1.1-0.8l-8.4-5.8l-0.3-0.2l-0.3,0.1l-9.7,3.2l-1.3,0.4L750.5,351.1z"/>
			<path class="st18" d="M776.7,392.5l9.4-3.9l-0.9-0.8l-2.7,9.9l0.4-0.4l-9.4,3.9l0.9,0.8l2.6-9.9L776.7,392.5z M774,402.4l9.4-3.9
				l0.3-0.1l0.1-0.3l2.7-9.9l0.3-1.3l-1.2,0.5l-9.4,3.9l-0.3,0.1l-0.1,0.3l-2.7,9.9l-0.3,1.3L774,402.4z"/>
			<path class="st18" d="M756.5,384.3l3,9.7l0.9-0.8l-9.6-3.5l0.4,0.4l-3-9.8l-0.9,0.8l9.6,3.5L756.5,384.3z M746.9,380.7l3,9.8
				l0.1,0.3l0.3,0.1l9.6,3.5l1.3,0.5l-0.4-1.3l-3-9.8l-0.1-0.3l-0.3-0.1l-9.6-3.5l-1.3-0.5L746.9,380.7z"/>
			<path class="st18" d="M754.1,327.5l-8.2,6.1l1.1,0.5l0.2-10.2l-0.3,0.5l8.2-6.1l-1.1-0.5l-0.2,10.2L754.1,327.5z M754.3,317.3
				l-8.2,6.1l-0.3,0.2v0.3l-0.2,10.2v1.3l1.1-0.8l8.2-6.1l0.3-0.2V328l0.2-10.2v-1.3L754.3,317.3z"/>
			<path class="st18" d="M773.7,323.5l-5.4-8.7l-0.6,1l10.2,1l-0.5-0.3l5.4,8.7l0.6-1l-10.2-1L773.7,323.5z M783.8,324.5l-5.4-8.7
				l-0.2-0.3H778l-10.2-1l-1.3-0.1l0.7,1.1l5.4,8.7l0.2,0.3h0.3l10.2,1l1.3,0.1L783.8,324.5z"/>
			<path class="st19" d="M808.2,502l28.5-3.3l1.7,20.8c8.4-11.1,21.7-17.4,35.6-16.8c27.3,1,45.7,38,43.6,111.7h-38.6
				c0,0,6.7-77.9-19.8-78.1c-8.1-0.1-11.7,5.1-16.2,11.7l6.2,69.2l-36.2,0.5L808.2,502z"/>
			<path class="st18" d="M826.3,548c1.8-2.9-3.7-6-4.6-2.4c-0.4,1.3,0.2,2.6,1.4,3.2C824.2,549.3,825.5,549,826.3,548"/>
			<path class="st18" d="M898.4,566.3c1.8-2.9-3.7-6-4.6-2.4c-0.4,1.3,0.2,2.7,1.4,3.2C896.3,567.6,897.6,567.3,898.4,566.3"/>
			<path class="st18" d="M862,523.9c1.8-2.9-3.7-6-4.6-2.4c-0.4,1.3,0.2,2.7,1.4,3.2C859.9,525.2,861.2,524.9,862,523.9"/>
			<path class="st18" d="M830.3,605.5c1.8-2.9-3.7-6-4.6-2.4c-0.4,1.3,0.2,2.7,1.4,3.2C828.2,606.8,829.5,606.5,830.3,605.5"/>
			<path class="st18" d="M822.3,510.1c0.2,2.1,0.3,4.4,0.3,6.6h0.3c1.1-1.8,2.6-3.2,3.9-5c0.1,0,0.3,0,0.4,0.1
				c-0.8,1.8-2.7,3.3-3.5,5c-0.4,0.4-0.7,0.8-1,1.2c2.6,0,5.5-0.3,7.8-0.2c-0.2,0.8-1.1,0.7-1.7,0.7c-1.8,0-3.3,0.3-5.3,0.2
				l-0.1,0.1c1.8,2.1,4.5,3.5,5.5,6c-0.1,0.1-0.2,0.1-0.3,0.1c-1.8-2.2-3.8-3.7-5.8-5.7c-0.2,3.1,0.4,6.1-0.1,9.3
				c-0.3-0.3-0.5-0.6-0.6-1c0-3-0.2-5.7-0.3-8.7l-0.6,0.6c-1.4,1.7-2.3,4.3-4.4,5.3h-0.1c0.1-0.7,1-1,1.2-1.8l2.8-4
				c-0.7-0.1-1.5-0.1-2.2,0c-1.4-0.2-2.8,0.1-4.2-0.3c-0.1-0.1-0.4-0.3-0.3-0.5c0.9-0.3,1.8,0.1,2.9,0c1.4-0.1,2.8,0,4.3-0.2
				c-1.8-1.7-3.6-3.6-5.2-5.5c0.2-0.4,0.7,0,0.9,0.1c1.6,1.6,3,3.2,4.8,4.7l0.1-0.2c-0.2-2.8-0.1-5.8-0.3-8.4
				C822.6,508.5,822,509.8,822.3,510.1"/>
			<path class="st18" d="M826.3,565.7c0.2,2.1,0.3,4.4,0.3,6.7h0.3c1.1-1.8,2.6-3.2,3.9-5c0.2,0,0.3,0,0.3,0.1
				c-0.8,1.8-2.7,3.3-3.5,5c-0.3,0.4-0.8,0.8-1,1.2c2.6,0,5.5-0.3,7.8-0.2c-0.2,0.8-1.1,0.7-1.7,0.8c-1.8,0-3.3,0.3-5.3,0.2
				l-0.1,0.1c1.8,2.1,4.5,3.5,5.5,6c-0.1,0.1-0.2,0.1-0.3,0.1c-1.8-2.2-3.8-3.7-5.8-5.7c-0.2,3.1,0.3,6.1-0.1,9.3
				c-0.3-0.3-0.5-0.6-0.6-1c0-3-0.2-5.7-0.3-8.7l-0.6,0.6c-1.4,1.7-2.3,4.3-4.4,5.3h-0.1c0.1-0.7,1-1,1.2-1.7l2.8-4.1
				c-0.7-0.1-1.5-0.1-2.2,0c-1.4-0.2-2.8,0.1-4.2-0.3c-0.1-0.1-0.4-0.3-0.3-0.5c0.9-0.3,1.8,0.1,2.9,0c1.4-0.1,2.8,0,4.4-0.2
				c-1.8-1.7-3.6-3.6-5.2-5.5c0.2-0.4,0.7,0,0.9,0.1c1.6,1.6,3.1,3.2,4.8,4.7l0.1-0.2c-0.2-2.8-0.1-5.8-0.3-8.4
				C826.5,564.1,825.9,565.4,826.3,565.7"/>
			<path class="st18" d="M892.2,530.8c0.2,2.1,0.3,4.4,0.3,6.7h0.3c1.1-1.8,2.6-3.2,3.9-5c0.1,0,0.3,0,0.3,0.1
				c-0.8,1.8-2.7,3.4-3.5,5c-0.3,0.5-0.8,0.8-1,1.2c2.6,0,5.5-0.3,7.8-0.2c-0.2,0.8-1.1,0.7-1.7,0.8c-1.8,0-3.3,0.3-5.3,0.2
				l-0.1,0.1c1.8,2.1,4.5,3.5,5.5,6c-0.1,0.1-0.2,0.1-0.3,0.1c-1.7-2.2-3.8-3.7-5.7-5.7c-0.2,3.1,0.3,6.1-0.1,9.3
				c-0.3-0.3-0.5-0.6-0.6-1c0-3-0.2-5.7-0.3-8.7l-0.6,0.6c-1.4,1.7-2.3,4.3-4.4,5.3h-0.1c0.1-0.7,1-1,1.2-1.7l2.8-4
				c-0.7-0.1-1.5-0.1-2.2,0c-1.4-0.2-2.8,0.1-4.2-0.3c-0.1-0.1-0.4-0.3-0.3-0.5c0.9-0.3,1.8,0.1,2.9,0c1.4-0.1,2.8,0,4.3-0.2
				c-1.8-1.7-3.6-3.6-5.2-5.5c0.2-0.4,0.7,0,0.9,0.1c1.6,1.6,3,3.2,4.8,4.7l0.1-0.2c-0.2-2.8-0.1-5.8-0.3-8.4
				C892.4,529.2,891.8,530.6,892.2,530.8"/>
			<path class="st18" d="M899.6,584.3c0.2,2.1,0.3,4.4,0.3,6.7h0.3c1.1-1.8,2.6-3.2,3.9-5c0.1,0,0.3,0,0.3,0.1
				c-0.8,1.8-2.7,3.3-3.5,5c-0.3,0.4-0.8,0.8-1,1.2c2.6,0,5.5-0.3,7.8-0.2c-0.2,0.8-1.1,0.7-1.7,0.7c-1.8,0-3.4,0.3-5.3,0.2
				l-0.1,0.1c1.8,2.1,4.5,3.5,5.5,6c-0.1,0.1-0.2,0.1-0.3,0.1c-1.7-2.2-3.8-3.7-5.7-5.7c-0.2,3.1,0.3,6.1-0.1,9.3
				c-0.3-0.3-0.5-0.6-0.6-1c0-3-0.2-5.7-0.3-8.7l-0.6,0.6c-1.4,1.7-2.3,4.3-4.4,5.3H894c0.1-0.7,1-1,1.2-1.7l2.8-4
				c-0.7-0.1-1.5-0.1-2.2,0c-1.4-0.2-2.8,0.1-4.2-0.3c-0.1-0.1-0.4-0.3-0.3-0.5c0.9-0.3,1.8,0.1,2.9,0c1.4-0.1,2.8,0,4.3-0.2
				c-1.8-1.7-3.6-3.6-5.2-5.5c0.2-0.4,0.7,0,0.9,0.1c1.5,1.6,3.1,3.2,4.8,4.7l0.1-0.2c-0.2-2.8-0.1-5.8-0.3-8.4
				c1-0.4,0.4,0.9,0.7,1.2"/>
			<path class="st13" d="M708.3,519c-25,36-8.9,70.5,9.5,86.8c20.9,18.6,64.6,17.6,72.9-30.1C800.5,519.2,742.7,469.5,708.3,519
				 M754.1,560.4c5.3,1.4,16.8,8.5,13.9,15.1c-4.3,9.6-17.7,0.7-21.8-5.7c0.5,10.2-8,31.5-17.5,17.2c-3.9-5.9-1.4-13.8,8.4-24.3
				c-12.7-1.7-24.3-9.1-19.4-18c3.3-6,17.2-0.6,22.8,6.4c-3.3-6.5-6.2-32.3,7.5-28.6c11.8,3.2,0.9,28.9,0.9,28.9
				c6.3-5.8,19.5-12.4,24.5-4.9C779.4,555.4,764,562.1,754.1,560.4"/>
			<path class="st20" d="M711.1,525.1c-0.6,1.7,2.8,5.4,5.5,2.3S712.9,520,711.1,525.1"/>
			<path class="st20" d="M721.1,513.6c-0.6,1.7,2.8,5.4,5.5,2.3S723,508.5,721.1,513.6"/>
			<path class="st20" d="M732.5,508.7c-0.6,1.7,2.8,5.4,5.5,2.3S734.4,503.7,732.5,508.7"/>
			<path class="st20" d="M745.9,508.4c-0.6,1.7,2.8,5.4,5.5,2.3S747.8,503.3,745.9,508.4"/>
			<path class="st20" d="M758.7,516c-0.6,1.7,2.8,5.4,5.5,2.3S760.6,510.9,758.7,516"/>
			<path class="st20" d="M769,526.2c-0.6,1.7,2.8,5.4,5.5,2.3S770.9,521.1,769,526.2"/>
			<path class="st20" d="M776,538.6c-0.6,1.7,2.7,5.4,5.5,2.3S777.9,533.5,776,538.6"/>
			<path class="st20" d="M780.3,552.4c-0.6,1.7,2.8,5.4,5.5,2.3S782.1,547.3,780.3,552.4"/>
			<path class="st20" d="M781.6,568c-0.6,1.7,2.8,5.4,5.5,2.3S783.4,562.9,781.6,568"/>
			<path class="st20" d="M778.2,579.7c-0.7,1.7,2.7,5.4,5.5,2.3S780.1,574.6,778.2,579.7"/>
			<path class="st20" d="M772.1,591.3c-0.6,1.7,2.8,5.4,5.5,2.3S774,586.2,772.1,591.3"/>
			<path class="st20" d="M762.4,602.3c-0.6,1.7,2.8,5.4,5.5,2.3S764.2,597.2,762.4,602.3"/>
			<path class="st20" d="M748.3,608.6c-0.6,1.7,2.8,5.4,5.5,2.3S750.2,603.5,748.3,608.6"/>
			<path class="st20" d="M703.4,537.5c-0.6,1.7,2.8,5.4,5.5,2.3S705.3,532.4,703.4,537.5"/>
			<path class="st20" d="M700.3,551.6c-0.6,1.7,2.8,5.4,5.5,2.3S702.2,546.5,700.3,551.6"/>
			<path class="st20" d="M700.3,566.5c-0.6,1.7,2.7,5.4,5.5,2.3S702.2,561.4,700.3,566.5"/>
			<path class="st20" d="M705,580.3c-0.6,1.7,2.7,5.4,5.5,2.3S706.9,575.2,705,580.3"/>
			<path class="st20" d="M711.5,591.2c-0.7,1.7,2.7,5.4,5.5,2.3S713.3,586.1,711.5,591.2"/>
			<path class="st20" d="M721.4,602.2c-0.6,1.7,2.8,5.4,5.5,2.3S723.3,597.1,721.4,602.2"/>
			<path class="st20" d="M733.4,608.7c-0.6,1.7,2.8,5.4,5.5,2.3S735.2,603.6,733.4,608.7"/>
			<path class="st21" d="M1018,571.3c0,0,17-66.6-32.6-73.8S909.7,609,968,624c30.3,7.8,42.6-20.1,44.9-30.5l-20.8-3.3
				c0,0-2.4,12.7-16.9,9.9c-18.8-3.7-10.3-39-10.3-39L1018,571.3z M984.3,518.3c12.3,2.2,7.5,27.3,7.5,27.3l-22-3.6
				C970.9,534.9,975.5,516.8,984.3,518.3"/>
			<path class="st18" d="M942.4,575.2c-1.1,1.4,1,5.9,4.4,3.8S945.7,571,942.4,575.2"/>
			<path class="st18" d="M951.6,533.8c-1.1,1.4,1,5.9,4.4,3.8S954.9,529.5,951.6,533.8"/>
			<path class="st18" d="M980.6,504.6c-1.1,1.4,1,5.9,4.4,3.8S983.8,500.4,980.6,504.6"/>
			<path class="st18" d="M1007.7,531.6c-1.1,1.4,1,5.9,4.4,3.8S1010.9,527.4,1007.7,531.6"/>
			<path class="st18" d="M988.8,554.6c-1.1,1.4,1,5.9,4.4,3.8S992,550.4,988.8,554.6"/>
			<path class="st18" d="M998.5,597.7c-1.1,1.4,1,5.9,4.4,3.8S1001.8,593.5,998.5,597.7"/>
			<path class="st18" d="M964.5,611c-1.1,1.4,1,5.9,4.4,3.8S967.8,606.8,964.5,611"/>
			<path class="st18" d="M954.1,557.5l-8.2,10.4l1.5,0.3l-3.3-12.8l-0.2,0.7l8.2-10.4l-1.5-0.3l3.3,12.8L954.1,557.5z M950.8,544.7
				l-8.2,10.4l-0.3,0.3l0.1,0.4l3.3,12.8l0.4,1.7l1.1-1.4l8.2-10.4l0.3-0.3l-0.1-0.4l-3.3-12.8l-0.4-1.7L950.8,544.7z"/>
			<path class="st18" d="M1002.8,552.7l6.8-11.3l-1.5-0.1l4.8,12.3l0.1-0.8l-6.8,11.3l1.5,0.1l-4.8-12.3L1002.8,552.7z M1007.6,565
				l6.8-11.3l0.2-0.4l-0.2-0.4l-4.8-12.3l-0.7-1.6l-0.9,1.5l-6.8,11.3l-0.2,0.4l0.2,0.4l4.8,12.3l0.6,1.6L1007.6,565z"/>
			<path class="st18" d="M973,547.4l9,9.6l0.5-1.4l-13.1,1.3l0.7,0.3l-9.1-9.6l-0.5,1.4l13.1-1.4L973,547.4z M959.9,548.7l9.1,9.6
				l0.3,0.3h0.4l13.1-1.4l1.7-0.2l-1.2-1.3l-9.1-9.6l-0.3-0.3h-0.4l-13.1,1.4l-1.7,0.2L959.9,548.7z"/>
			<path class="st18" d="M981.6,608.3l13-2.3l-0.9-1.2l-6,11.7l0.6-0.5l-13,2.3l0.9,1.2l6-11.7L981.6,608.3z M975.6,620l13-2.3
				l0.4-0.1l0.2-0.4l6-11.7l0.8-1.5l-1.7,0.3l-13,2.3l-0.4,0.1l-0.2,0.4l-6,11.7l-0.8,1.5L975.6,620z"/>
			<path class="st18" d="M958.3,592.3l1.2,13.1l1.3-0.8l-11.1-7.1l0.4,0.7l-1.2-13.1l-1.3,0.8l11.1,7.1L958.3,592.3z M947.2,585.2
				l1.2,13.1v0.4l0.4,0.2l11.1,7.1l1.5,0.9l-0.2-1.7l-1.2-13.1v-0.4l-0.4-0.2l-11.1-7.1l-1.5-0.9L947.2,585.2z"/>
			<path class="st18" d="M970.9,520l-12,5.4l1.2,1l3-12.8l-0.5,0.6l12-5.4l-1.2-1l-3,12.8L970.9,520z M973.9,507.2l-12,5.4l-0.4,0.2
				l-0.1,0.4l-3,12.8l-0.4,1.7l1.6-0.7l12-5.4l0.4-0.2l0.1-0.4l3-12.8l0.4-1.7L973.9,507.2z"/>
			<path class="st18" d="M996.7,520.3l-4.4-12.4l-1.1,1.2l12.5,4.1l-0.5-0.5l4.4,12.4l1.1-1.1l-12.5-4.1L996.7,520.3z M1009.2,524.4
				l-4.4-12.4l-0.1-0.4l-0.4-0.1l-12.5-4.1l-1.7-0.5l0.6,1.6l4.4,12.4l0.1,0.4l0.4,0.1l12.5,4.1l1.7,0.5L1009.2,524.4z"/>
			<polygon class="st22" points="927,416 1007.4,407.6 1004.9,366.9 963.5,371.1 954.7,245.3 904.4,251.2 			"/>
			<path class="st23" d="M928.3,330.3c0,0,6.8-0.2,6.7-10.5C935,319.8,926.2,323.3,928.3,330.3"/>
			<path class="st23" d="M924.7,263.5c2.4,1.6,5.4,4.2,5.6,7.2c0.1,2-1,3.3-2.4,4.9c-0.9,0.9-1.6,2-2.3,3.1
				c-1.1,2.1-1.3,3.9-0.7,5.5c1.1,2.9,4.7,4.4,8.2,5.8c1.8,0.6,3.6,1.5,5.2,2.6c6.3,4.8,2.4,12.8-0.4,18.7l-0.2,0.4
				c-3,6.2-1.5,13.6,4.2,20.1s8.5,11.8,6.9,20.1c-0.6,2.7-1.7,5.2-3.2,7.5c-1.9,3.3-3.8,6.8-3.2,11.9c0.5,4,2.5,7.2,4.3,10.3
				c1.7,2.8,3.3,5.4,3.9,8.5c0.7,3.5,0.2,7.1-1.5,10.2l1.2,0.7c1.8-3.4,2.4-7.4,1.6-11.2c-0.7-3.4-2.4-6.2-4.1-9
				c-1.9-3.1-3.7-6-4.2-9.7c-0.6-4.6,1.1-7.7,3-11c1.5-2.4,2.7-5.1,3.3-7.9c1.7-8.9-1.3-14.5-7.2-21.3c-2.5-2.9-7.9-10.5-4-18.6
				l0.2-0.5c2.8-5.9,7.2-14.9,0-20.4c-1.7-1.1-3.6-2.1-5.5-2.8c-3.2-1.3-6.6-2.6-7.4-5c-0.4-1.5-0.2-3.1,0.7-4.4
				c0.6-1,1.3-2,2.1-2.8c1.4-1.6,2.9-3.4,2.7-5.9c-0.2-2.9-2.3-5.7-6.2-8.3L924.7,263.5z"/>
			<path class="st23" d="M936.8,396.3c0,0,7.4,2.9,11.8-8.3C948.7,388.1,937.7,387.9,936.8,396.3"/>
			<path class="st23" d="M950.7,398.9c0,0-8-0.1-8.2,11.9C942.4,410.8,952.8,407.1,950.7,398.9"/>
			<path class="st23" d="M929.6,375.6c0,0,7.4,2.9,11.8-8.3C941.5,367.3,930.5,367.1,929.6,375.6"/>
			<path class="st23" d="M927.1,271.9c0,0-4.6-3.7-10.2,3.2C916.9,275.1,924.6,277.7,927.1,271.9"/>
			<path class="st23" d="M950,379.7c0,0,2.3,7.6,13.8,4.2C963.8,383.9,957.1,375.1,950,379.7"/>
			<path class="st23" d="M939,319.5c0,0,2.3,7.6,13.8,4.2C952.8,323.7,946.1,314.9,939,319.5"/>
			<path class="st23" d="M909.8,254.6c0,0-1.4,14.9,18.5,11.1C928.3,265.7,923.8,247.6,909.8,254.6"/>
			<path class="st23" d="M928,306.8c0,0,7.8-1.8,5.2-13.5C933.2,293.3,923.9,299.3,928,306.8"/>
			<path class="st23" d="M929.8,262.4c0,0,2.9,7.4,14.1,3.1C943.9,265.5,936.6,257.3,929.8,262.4"/>
			<path class="st23" d="M955.2,306.8c0,0,0.8-7.9-11.2-9.1C944,297.7,946.8,308.3,955.2,306.8"/>
			<path class="st23" d="M935.7,348.3c0,0,7.9,0.4,8.6-11.6C944.3,336.7,933.8,340.1,935.7,348.3"/>
			<path class="st23" d="M958,372.3c0,0,0.6-7.9-11.3-8.9C946.7,363.4,949.7,374,958,372.3"/>
			<path class="st23" d="M930.7,280.8c0,0,2.3,7.6,13.8,4.2C944.5,285,937.8,276.3,930.7,280.8"/>
			<path class="st23" d="M935.1,403.3c-0.7-0.8-1.9-0.9-2.7-0.3c-0.8,0.7-0.9,1.9-0.3,2.7c1.5,1.9,4.1,0.5,3.3-1.9
				C935.3,403.7,935.2,403.5,935.1,403.3"/>
			<path class="st23" d="M995.7,398.8c-0.7-0.8-1.9-0.9-2.7-0.3c-0.8,0.7-0.9,1.9-0.3,2.7c1.5,1.9,4.1,0.5,3.3-1.9
				C995.9,399.2,995.8,399,995.7,398.8"/>
			<path class="st23" d="M935.7,358.8c-0.7-0.8-1.9-0.9-2.7-0.3s-0.9,1.9-0.3,2.7c1.5,1.9,4.1,0.5,3.3-1.9
				C935.9,359.2,935.7,359,935.7,358.8"/>
			<path class="st23" d="M954.1,331.9c-0.6-0.9-1.8-1.1-2.7-0.5s-1.1,1.8-0.5,2.7c0.1,0.1,0.2,0.2,0.3,0.3c1.5,1.9,4.1,0.5,3.3-1.9
				C954.3,332.3,954.2,332.1,954.1,331.9"/>
			<path class="st23" d="M959.7,402.2c-0.6-0.9-1.8-1-2.7-0.4s-1,1.8-0.4,2.7c0,0.1,0.1,0.1,0.2,0.2c1.5,1.9,4.1,0.5,3.3-1.9
				C960,402.6,959.9,402.4,959.7,402.2"/>
			<path class="st23" d="M926.9,315c-0.7-0.8-1.9-0.9-2.7-0.3c-0.8,0.7-0.9,1.9-0.3,2.7l0,0c1.5,1.9,4.1,0.5,3.3-1.9
				C927.1,315.4,927,315.2,926.9,315"/>
			<path class="st23" d="M948.9,289.4c-0.7-0.8-1.9-0.9-2.7-0.3c-0.8,0.7-0.9,1.9-0.3,2.7c1.5,1.9,4.1,0.5,3.3-1.9
				C949.1,289.8,949,289.6,948.9,289.4"/>
			<path class="st23" d="M924.6,290.7c-0.7-0.8-1.9-0.9-2.7-0.3s-0.9,1.9-0.3,2.7c1.5,1.9,4.1,0.5,3.3-1.9
				C924.8,291.1,924.7,290.9,924.6,290.7"/>
			<path class="st23" d="M943.6,254.5c-0.7-0.8-1.9-0.9-2.7-0.3s-0.9,1.9-0.3,2.7l0,0c1.5,1.9,4.1,0.5,3.3-1.9
				C943.8,254.9,943.7,254.7,943.6,254.5"/>
			<path class="st23" d="M981.5,384.6c-0.7-0.8-1.9-0.9-2.7-0.3c-0.8,0.7-0.9,1.9-0.3,2.7c1.5,1.9,4.1,0.5,3.3-1.9
				C981.7,385,981.6,384.8,981.5,384.6"/>
			<path class="st23" d="M928.6,338.7c-0.6-0.9-1.8-1.1-2.7-0.5s-1.1,1.8-0.5,2.7c0.1,0.1,0.2,0.2,0.3,0.3c1.5,1.9,4.1,0.5,3.3-1.9
				C928.8,339.1,928.7,338.9,928.6,338.7"/>
			<path class="st23" d="M945.3,272.5c-0.7-0.8-1.9-0.9-2.7-0.3c-0.8,0.7-0.9,1.9-0.3,2.7c1.5,1.9,4.1,0.5,3.3-1.9
				C945.5,272.9,945.4,272.7,945.3,272.5"/>
			<path class="st23" d="M961.2,390c-0.6-0.9-1.8-1.1-2.7-0.5s-1.1,1.8-0.5,2.7c0.1,0.1,0.2,0.2,0.3,0.3c1.5,1.9,4.1,0.5,3.3-1.9
				C961.4,390.4,961.3,390.2,961.2,390"/>
			<path class="st23" d="M935.2,384.3c-0.6-0.9-1.8-1-2.7-0.4s-1,1.8-0.4,2.7c0,0.1,0.1,0.1,0.1,0.2c1.5,1.9,4.1,0.5,3.3-1.9
				C935.4,384.7,935.3,384.5,935.2,384.3"/>
			<path class="st23" d="M992.9,384.4c1.2,4.1,3.5,6.3,5.6,5.4c4-1.8-2.1-6.2-3.8-7.1c1.5,0.8,6.9,1.3,6.9-2.1c0-2.9-6-1.5-7.7-0.5
				c1.1-2.2-0.1-8.1-2.5-6.3c-1.6,1.3-1.7,4.9-0.4,6.9c-2.2-1.5-5.6-1.2-5.9,0.3c-0.4,2.1,2.9,2.8,5.4,2.1c-3,2-4.8,5.6-1.6,6.2
				C991.7,389.8,992.9,384.4,992.9,384.4"/>
			<path class="st23" d="M974.6,398c1.3-0.1,7.7-0.1,7.2,2.9c-0.4,2.5-7.5,0.8-8.6-1.3c0.6,2.9-1.5,8-3.4,4.6c-1-1.7,1-4.7,1.7-5.8
				c-2.3,1.1-8.3,2.1-8.2-0.9c0.1-2.5,6.3-2.1,7.9-2c-2.2-1.7-4.2-8.1-1.6-9.6c4.5-2.5,5.6,7.1,4.5,9.9c0.5-0.7,5.8-7,6.5-3
				C981.2,395.3,974.6,398,974.6,398"/>
			<polygon class="st24" points="816.6,417.3 888.8,421.5 892.4,385.2 855.2,382.9 865.5,270.6 820.3,268.6 			"/>
			<path class="st25" d="M830,341.8c0,0,6.1,0.8,7.4-8.3C837.4,333.5,829.1,335.4,830,341.8"/>
			<path class="st25" d="M836.4,282.3c1.9,1.8,4.2,4.5,3.9,7.2c-0.2,1.8-1.4,2.8-2.8,4c-0.9,0.7-1.7,1.5-2.5,2.4
				c-1.1,1.3-1.7,3-1.4,4.8c0.5,2.7,3.5,4.5,6.4,6.3c1.5,0.8,2.9,1.8,4.2,3c4.9,5.2,0.3,11.7-3,16.4l-0.3,0.4
				c-3.5,5.1-3.2,11.8,0.9,18.4s5.8,11.6,3.2,18.7c-0.9,2.3-2.2,4.4-3.9,6.2c-2.2,2.7-4.4,5.4-4.5,10c-0.1,3.6,1.2,6.7,2.4,9.7
				c1.2,2.5,2,5.3,2.2,8.1c0.1,3.2-0.9,6.3-2.8,8.8l1,0.8c2.1-2.8,3.2-6.2,3.1-9.6c-0.3-2.9-1.1-5.8-2.3-8.5c-1.2-3-2.4-5.8-2.3-9.2
				c0.1-4.2,2.1-6.7,4.2-9.3c1.7-1.9,3.1-4.1,4.1-6.5c2.8-7.6,0.9-13-3.3-19.8c-1.8-2.9-5.5-10.4-0.9-17l0.3-0.4
				c3.4-4.8,8.5-12.1,2.9-18c-1.3-1.3-2.9-2.3-4.5-3.2c-2.7-1.6-5.4-3.3-5.8-5.5c-0.2-1.4,0.3-2.8,1.2-3.8c0.7-0.8,1.4-1.6,2.3-2.2
				c1.5-1.3,3.1-2.5,3.3-4.8c0.2-2.6-1.2-5.3-4.3-8.2L836.4,282.3z"/>
			<path class="st25" d="M828,401.4c0,0,6.1,3.6,11.7-5.6C839.7,395.8,830,394,828,401.4"/>
			<path class="st25" d="M839.9,405.7c0,0-7-1.3-9,9.3C830.9,415,840.6,413.2,839.9,405.7"/>
			<path class="st25" d="M824.7,382c0,0,6.1,3.6,11.6-5.6C836.3,376.4,826.6,374.7,824.7,382"/>
			<path class="st25" d="M837.3,290.1c0,0-3.5-3.9-9.5,1.4C827.8,291.5,834.3,294.9,837.3,290.1"/>
			<path class="st25" d="M842,388.6c0,0,1,7,11.6,5.7C853.6,394.3,849,385.6,842,388.6"/>
			<path class="st25" d="M841,333.9c0,0,1,7,11.6,5.7C852.6,339.5,848,330.9,841,333.9"/>
			<path class="st25" d="M824.6,272.4c0,0-3.4,12.9,14.7,12.4C839.3,284.8,837.9,268.2,824.6,272.4"/>
			<path class="st25" d="M833.1,321c0,0,7.1-0.4,6.5-11.2C839.6,309.8,830.6,313.8,833.1,321"/>
			<path class="st25" d="M841.1,282.1c0,0,1.5,7,12,4.8C853.1,286.9,847.8,278.6,841.1,282.1"/>
			<path class="st25" d="M857.1,325c0,0,1.8-6.9-8.6-9.6C848.5,315.4,849.5,325.2,857.1,325"/>
			<path class="st25" d="M834,358.9c0,0,7,1.5,9.2-9C843.2,349.9,833.5,351.3,834,358.9"/>
			<path class="st25" d="M850.2,383.2c0,0,1.7-6.9-8.7-9.5C841.5,373.7,842.6,383.5,850.2,383.2"/>
			<path class="st25" d="M839.2,298.5c0,0,1,7,11.6,5.7C850.8,304.2,846.2,295.5,839.2,298.5"/>
			<path class="st17" d="M825.5,407.3c-0.5-0.8-1.6-1.1-2.4-0.6c-0.8,0.5-1.1,1.6-0.6,2.4c1.1,1.9,3.6,1.1,3.2-1.2
				C825.6,407.7,825.6,407.5,825.5,407.3"/>
			<path class="st25" d="M879.7,412c-0.5-0.8-1.6-1.1-2.4-0.6c-0.8,0.5-1.1,1.6-0.6,2.4c1.1,1.9,3.6,1.1,3.2-1.2
				C879.8,412.4,879.7,412.2,879.7,412"/>
			<path class="st17" d="M832.4,368.1c-0.5-0.8-1.6-1.1-2.4-0.6c-0.8,0.5-1.1,1.6-0.6,2.4c1.1,1.9,3.6,1.1,3.2-1.2
				C832.5,368.5,832.4,368.3,832.4,368.1"/>
			<path class="st17" d="M852.5,347c-0.5-0.8-1.6-1.1-2.4-0.6c-0.8,0.5-1.1,1.6-0.6,2.4c1.1,1.9,3.6,1.1,3.2-1.2
				C852.6,347.4,852.6,347.2,852.5,347"/>
			<path class="st17" d="M847.4,409.8c-0.5-0.8-1.6-1.1-2.4-0.6c-0.8,0.5-1.1,1.6-0.6,2.4c0.3,0.9,1.3,1.3,2.2,0.9
				c0.8-0.3,1.3-1.3,1-2.1C847.5,410.2,847.5,410,847.4,409.8"/>
			<path class="st17" d="M831,328.2c-0.5-0.8-1.6-1.1-2.4-0.6c-0.8,0.5-1.1,1.6-0.6,2.4c0.4,0.8,1.4,1.2,2.2,0.8
				c0.8-0.3,1.1-1.2,0.9-2C831.1,328.6,831.1,328.4,831,328.2"/>
			<path class="st17" d="M854,308.7c-0.5-0.8-1.6-1.1-2.4-0.6c-0.8,0.5-1.1,1.6-0.6,2.4c1.1,1.9,3.6,1.1,3.2-1.2
				C854.1,309.1,854.1,308.9,854,308.7"/>
			<path class="st17" d="M832.5,306.4c-0.5-0.8-1.6-1.1-2.4-0.6c-0.8,0.5-1.1,1.6-0.6,2.4c1.1,1.9,3.6,1.1,3.2-1.2
				C832.6,306.7,832.5,306.5,832.5,306.4"/>
			<path class="st17" d="M854.4,277.1c-0.5-0.8-1.6-1.1-2.4-0.6c-0.8,0.5-1.1,1.6-0.6,2.4c1.1,1.9,3.6,1.1,3.2-1.2
				C854.5,277.5,854.5,277.3,854.4,277.1"/>
			<path class="st25" d="M869.2,397.5c-0.5-0.8-1.6-1.1-2.4-0.6c-0.8,0.5-1.1,1.6-0.6,2.4c1.1,1.9,3.6,1.1,3.2-1.2
				C869.3,397.8,869.2,397.6,869.2,397.5"/>
			<path class="st25" d="M829,349.3c-0.5-0.8-1.6-1.1-2.4-0.6c-0.8,0.5-1.1,1.6-0.6,2.4l0,0c1.1,1.9,3.6,1.1,3.2-1.2
				C829.1,349.7,829.1,349.5,829,349.3"/>
			<path class="st25" d="M853.3,293.3c-0.5-0.8-1.6-1.1-2.4-0.6c-0.8,0.5-1.1,1.6-0.6,2.4c1.1,1.9,3.6,1.1,3.2-1.2
				C853.5,293.7,853.4,293.5,853.3,293.3"/>
			<path class="st25" d="M850.4,399.3c-0.5-0.8-1.6-1.1-2.4-0.6s-1.1,1.6-0.6,2.4c1.1,1.9,3.6,1.1,3.2-1.2
				C850.6,399.7,850.5,399.5,850.4,399.3"/>
			<path class="st25" d="M828.3,390.5c-0.5-0.8-1.6-1.1-2.4-0.6c-0.8,0.5-1.1,1.6-0.6,2.4l0,0c1.1,1.9,3.6,1.1,3.2-1.2
				C828.4,390.9,828.4,390.7,828.3,390.5"/>
			<path class="st17" d="M879.2,398.9c0.5,3.8,2.2,6.1,4.2,5.6c3.8-1-1-5.8-2.3-6.8c1.2,0.9,5.9,2.2,6.4-0.9
				c0.4-2.5-5.1-2.2-6.7-1.5c1.3-1.8,1.1-7.2-1.3-5.9c-1.6,0.9-2.2,4.1-1.3,6c-1.7-1.6-4.8-1.9-5.2-0.6c-0.6,1.8,2.2,2.9,4.5,2.6
				c-3,1.3-5.1,4.2-2.3,5.3C877.4,403.5,879.2,398.9,879.2,398.9"/>
			<path class="st17" d="M861.1,408.3c1.2,0.1,6.8,1,6,3.5c-0.7,2.2-6.8-0.4-7.4-2.4c0.1,2.6-2.4,6.8-3.7,3.6
				c-0.7-1.7,1.5-4,2.4-4.9c-2.2,0.7-7.6,0.6-7.1-2c0.4-2.1,5.9-1,7.3-0.7c-1.8-1.8-2.5-7.8,0-8.7c4.3-1.6,3.9,7.1,2.6,9.4
				c0.6-0.5,6.1-5.4,6.2-1.8C867.4,406.8,861.2,408.3,861.1,408.3"/>
			<path class="st26" d="M1079.2,440.6l-1.7,0.4l-0.2,1.7c-0.1,1.1-9.8,107.9-10.3,131.8v1.9l30,6.8l0.5-2.3
				c2.8-12.7,27.4-124.1,26.9-131.4l-0.1-1.3l-1.2-0.6C1122.1,447.1,1099.6,436.4,1079.2,440.6"/>
			<path class="st26" d="M1077,591c-8.9,1.5-16.7,8.3-18.9,16.4c-0.3,1.2-0.6,2.5-0.8,3.8c-1.6,10.6,2.9,19.1,12.5,23.7
				c11.2,5.3,21.7,2.5,27.5-7.3c4.1-7,5.3-16.1,3-22.6C1097.3,596.7,1087.8,589.2,1077,591"/>
			<path class="st17" d="M1081.4,598.3c-0.3,2-0.3,4.5-0.8,6.1c0.4,2.2-0.7,4.8-0.5,7l8.8-8c0.4,0,0.8-0.3,1.1,0.2l-0.1,0.5
				c-2.9,3.3-6.8,5.6-9.5,9.1c3.8,0.8,8.4,0.4,12.4,0.6c0.3-0.3,1-0.6,1.3-0.1c-1.8,1.8-4.7,1.5-7.3,1.5c-2.1,0.3-4.2-0.9-6.3-0.3
				c1.2,2.9,4.3,4.6,5.2,7.7c-0.7,0.3-1.1-0.3-1.8-0.5c-1.6-1.8-2.8-4.1-4.5-5.7c-1,4.1,0.6,9.3-2.2,12.9c-0.7-0.4-0.4-1.3-0.3-1.9
				c0-3.6,0.7-7.7,0.7-11.2c-2.3,1.5-3.6,4.5-6.5,5.9c-0.2-0.2-0.5-0.1-0.5-0.4c1.2-2.3,3.5-4.2,5.4-6.2l0.5-0.4
				c-1.3-1.2-3.9-0.9-5.7-1.4l-6.2-0.7c-0.3-0.1-0.6-0.7-0.3-1c4.2,0.3,8.6,0.2,12.7,1.3c-2.2-2.7-4-5.6-5.5-8.7
				c0.3-0.3,0.8-0.3,1.2-0.1c1.9,2.7,3.1,5.1,5.4,7.5l0.3-1c0.4-4.4,1.1-9.5,1.7-13.9c0.8-0.2,1.1,0.6,1.1,1.2"/>
			<path class="st18" d="M1111,486.6c0,0-7-4.5-13.8,6C1097.2,492.6,1108.4,495.1,1111,486.6"/>
			<path class="st18" d="M1108.4,504.2c0,0-7-4.5-13.8,6C1094.5,510.2,1105.8,512.7,1108.4,504.2"/>
			<path class="st18" d="M1105.7,522.2c0,0-7-4.5-13.8,6C1091.9,528.2,1103.1,530.7,1105.7,522.2"/>
			<path class="st18" d="M1103,540.4c0,0-7-4.5-13.8,6C1089.2,546.4,1100.4,548.9,1103,540.4"/>
			<path class="st18" d="M1100.7,555.9c0,0-7-4.5-13.8,6C1086.9,561.9,1098.2,564.3,1100.7,555.9"/>
			<path class="st18" d="M1081.1,482.2c0,0,8-2.3,11.5,9.8C1092.6,492,1081.1,491.1,1081.1,482.2"/>
			<path class="st18" d="M1078.5,499.8c0,0,8-2.3,11.5,9.8C1090,509.6,1078.5,508.7,1078.5,499.8"/>
			<path class="st18" d="M1075.8,517.8c0,0,8-2.3,11.5,9.8C1087.3,527.6,1075.9,526.7,1075.8,517.8"/>
			<path class="st18" d="M1073.2,536c0,0,8-2.3,11.5,9.8C1084.6,545.8,1073.2,544.9,1073.2,536"/>
			<path class="st18" d="M1070.9,551.5c0,0,8-2.3,11.5,9.8C1082.4,561.2,1070.9,560.3,1070.9,551.5"/>
			
				<rect x="1041" y="522.7" transform="matrix(0.1459 -0.9893 0.9893 0.1459 413.3181 1525.7441)" class="st18" width="98.7" height="1.6"/>
			<path class="st27" d="M1085.6,448.3c10.8,3.6-1.6,20.1,10.9,24.1c6,1.9,10.5-2,11.8-7.8c1.2-5.5,0.4-9.1,6.6-10.9
				c-4.3-0.6-7.8-1.7-11.2,2c0.1-1.4,0.2-8.3-1.7-10.1c-3.4,0.8-4.2,6.1-5.3,9C1094.8,450.3,1090.3,447.7,1085.6,448.3"/>
			<path class="st12" d="M679,554.3c-6.1-64.6-52.5-84.1-88-83c-12.8,0.4-45.4,5.4-45.4,5.4l21.9,178.8c0,0,32.1-2.2,45.2-5.2
				C644.9,642.9,685.1,619.6,679,554.3 M603.8,606.5l-10.3-87.7c10.5-1.7,39.5-0.4,44.8,32.3C646.6,603.4,603.8,606.5,603.8,606.5"
				/>
			<polygon class="st18" points="567.7,522.4 571.9,507.2 579.5,521 575.2,536.2 			"/>
			<polygon class="st18" points="598.5,489.1 611.2,498.5 595.5,500.6 582.8,491.2 			"/>
			<polygon class="st18" points="649.9,516.5 655.6,531.2 641.3,524.6 635.6,509.9 			"/>
			<polygon class="st18" points="663.2,575 655.4,589 651.3,573.5 659,559.5 			"/>
			<polygon class="st18" points="631.3,623.4 616.4,628.7 623.4,614.5 638.3,609.3 			"/>
			<polygon class="st28" points="569.3,486.5 571.2,500.7 572,500.5 570.1,486.4 			"/>
			<polygon class="st28" points="576.9,492.3 564.3,494.1 564.4,494.9 577,493.1 			"/>
			<polygon class="st28" points="576.1,497 565.7,489.6 565.3,490.3 575.6,497.6 			"/>
			<polygon class="st28" points="573.7,488 566.9,498.8 567.6,499.2 574.4,488.5 			"/>
			<polygon class="st28" points="622.9,495 624.9,509.1 625.7,509 623.7,494.9 			"/>
			<polygon class="st28" points="630.6,500.8 618,502.5 618.1,503.3 630.7,501.6 			"/>
			<polygon class="st28" points="629.7,505.4 619.4,498 618.9,498.7 629.3,506.1 			"/>
			<polygon class="st28" points="627.4,496.5 620.6,507.2 621.3,507.6 628,496.9 			"/>
			
				<rect x="657.9" y="538.1" transform="matrix(0.9905 -0.1373 0.1373 0.9905 -68.7349 95.5382)" class="st28" width="0.9" height="16.1"/>
			<polygon class="st28" points="665.4,544.8 651.2,546.7 651.3,547.7 665.5,545.7 			"/>
			<polygon class="st28" points="664.5,550 652.8,541.7 652.2,542.4 663.9,550.7 			"/>
			<polygon class="st28" points="661.8,539.9 654.1,552 654.9,552.5 662.5,540.4 			"/>
			<polygon class="st28" points="646.7,593.2 648.7,607.3 649.5,607.2 647.5,593.1 			"/>
			<polygon class="st28" points="654.4,599 641.8,600.8 641.9,601.6 654.5,599.8 			"/>
			<polygon class="st28" points="653.5,603.7 643.2,596.3 642.7,596.9 653.1,604.3 			"/>
			<polygon class="st28" points="651.2,594.7 644.4,605.5 645.1,605.9 651.9,595.1 			"/>
			<polygon class="st28" points="603.7,622.3 605.6,636.4 606.4,636.3 604.5,622.2 			"/>
			<polygon class="st28" points="611.3,628.1 598.7,629.9 598.8,630.7 611.4,628.9 			"/>
			<polygon class="st28" points="610.5,632.8 600.1,625.4 599.6,626 610,633.4 			"/>
			<polygon class="st28" points="608.1,623.8 601.3,634.6 602,635 608.8,624.2 			"/>
			<polygon class="st18" points="572.5,576.5 576.8,561.3 584.3,575.2 580,590.3 			"/>
			<polygon class="st28" points="574.1,540.6 576.1,554.8 576.9,554.7 574.9,540.5 			"/>
			<polygon class="st28" points="581.8,546.4 569.1,548.2 569.3,549 581.9,547.2 			"/>
			<polygon class="st28" points="580.9,551.1 570.5,543.7 570.1,544.4 580.5,551.7 			"/>
			<polygon class="st28" points="578.6,542.1 571.8,552.9 572.5,553.3 579.3,542.5 			"/>
			<polygon class="st18" points="579.7,630 584,614.8 591.5,628.7 587.2,643.9 			"/>
			<polygon class="st28" points="578.9,594.2 580.9,608.3 581.7,608.2 579.7,594.1 			"/>
			<polygon class="st28" points="586.5,600 573.9,601.7 574,602.5 586.7,600.8 			"/>
			<polygon class="st28" points="585.7,604.6 575.3,597.3 574.9,597.9 585.2,605.3 			"/>
			<polygon class="st28" points="583.3,595.7 576.5,606.4 577.2,606.9 584,596.1 			"/>
			<path class="st29" d="M318.5,591.7v21.5c0,0.2-0.2,0.3-0.4,0.3c-0.2,0-0.3-0.1-0.3-0.3v-21.5c0-0.2,0.2-0.3,0.4-0.3
				C318.4,591.4,318.5,591.5,318.5,591.7"/>
			<path class="st29" d="M328.1,603c-7,0-14-0.4-21,0.6c-0.5,0.1-0.6-0.6-0.2-0.7c7-1,14.1-0.7,21.1-0.6c0.2,0,0.3,0.2,0.3,0.4
				C328.3,602.9,328.2,603,328.1,603"/>
			<path class="st29" d="M312.4,595.8c1.9,5.1,8,7.4,11.5,11.2c0.3,0.3-0.2,0.9-0.5,0.5c-3.6-3.9-9.7-6.3-11.7-11.5
				C311.5,595.5,312.3,595.3,312.4,595.8"/>
			<path class="st29" d="M324.5,596.4c-2.3,1.4-4.1,3.9-5.7,6c-1.9,2.3-3.6,4.8-5.4,7.2c-0.3,0.4-0.9,0-0.6-0.4
				c1.8-2.5,3.6-4.9,5.5-7.3c1.7-2.1,3.5-4.7,5.8-6.1c0.2-0.1,0.4,0,0.5,0.2C324.6,596.2,324.6,596.4,324.5,596.4"/>
			<path class="st30" d="M326.5,627.8v15.3c0,0.1,0.2,0.2,0.3,0.2c0.1,0,0.2-0.1,0.2-0.2v-15.3c0-0.1-0.2-0.2-0.3-0.2
				C326.6,627.6,326.5,627.7,326.5,627.8"/>
			<path class="st30" d="M319.7,635.8c5,0,10-0.3,14.9,0.4c0.3,0,0.5-0.5,0.1-0.5c-5-0.7-10-0.5-15.1-0.5c-0.1,0-0.3,0.1-0.3,0.3
				S319.5,635.8,319.7,635.8"/>
			<path class="st30" d="M330.8,630.7c-1.4,3.6-5.7,5.3-8.2,8c-0.2,0.3,0.1,0.6,0.4,0.4c2.6-2.8,6.9-4.5,8.3-8.2
				C331.4,630.6,330.9,630.4,330.8,630.7"/>
			<path class="st30" d="M322.3,631.2c1.6,1,2.9,2.8,4.1,4.2c1.3,1.7,2.6,3.4,3.8,5.1c0.2,0.3,0.6,0,0.5-0.3
				c-1.3-1.8-2.6-3.5-3.9-5.2c-1.1-1.7-2.5-3.1-4.2-4.3c-0.1,0-0.3,0-0.3,0.2C322.1,631,322.2,631.1,322.3,631.2"/>
			<path class="st31" d="M540.5,714.5c0.3,3.5,0.5,7.3,0.5,11.1l0.4-0.1c1.9-3.1,4.4-5.4,6.5-8.3c0.2,0,0.4,0,0.6,0.2
				c-1.4,3.1-4.4,5.6-5.9,8.4c-0.5,0.7-1.3,1.3-1.6,2c4.3,0.1,9.2-0.4,13-0.4c-0.4,1.3-1.8,1.1-2.9,1.2c-3.1-0.1-5.6,0.4-8.8,0.3
				l-0.1,0.1c3,3.6,7.5,5.9,9.2,10.1c-0.1,0.2-0.3,0.2-0.5,0.2c-2.9-3.6-6.4-6.2-9.6-9.5c-0.3,5.2,0.6,10.2-0.2,15.6
				c-0.5-0.4-0.9-1.1-0.9-1.7c0-5-0.3-9.6-0.4-14.5l-1,1c-2.4,2.9-3.8,7.1-7.3,9l-0.2-0.1c0.2-1.2,1.6-1.7,2-2.9l4.7-6.8
				c-1.1-0.4-2.3,0-3.6,0c-2.3-0.3-4.7,0.2-7.1-0.4c-0.2-0.2-0.7-0.4-0.4-0.8c1.5-0.5,3,0.2,4.8,0.1c2.3-0.1,4.7-0.1,7.3-0.4
				c-3.1-2.9-6-6-8.7-9.2c0.4-0.7,1.1-0.1,1.5,0.2c2.6,2.7,5.1,5.4,8,7.9l0.1-0.3c-0.3-4.7-0.1-9.8-0.4-14.1c1.6-0.7,0.7,1.5,1.2,2"
				/>
			<path class="st31" d="M478.5,561.7v23.5c0,0.2-0.2,0.4-0.4,0.4c-0.2,0-0.4-0.2-0.4-0.4v-23.5c0-0.2,0.2-0.4,0.4-0.4
				C478.4,561.3,478.5,561.5,478.5,561.7"/>
			<path class="st31" d="M489,574.1c-7.7,0-15.4-0.4-23,0.7c-0.5,0.1-0.7-0.7-0.2-0.8c7.7-1.1,15.5-0.7,23.2-0.7
				c0.2,0,0.4,0.2,0.3,0.5C489.3,573.9,489.2,574.1,489,574.1"/>
			<path class="st31" d="M471.8,566.2c2.1,5.5,8.8,8.1,12.6,12.3c0.3,0.4-0.2,0.9-0.6,0.6c-4-4.3-10.6-6.9-12.8-12.6
				C470.9,565.9,471.6,565.7,471.8,566.2"/>
			<path class="st31" d="M485,566.9c-2.5,1.5-4.5,4.3-6.3,6.5c-2,2.6-4,5.3-5.9,7.9c-0.3,0.4-1,0-0.7-0.4c2-2.7,4-5.4,6-8.1
				c1.8-2.3,3.8-5.1,6.4-6.6c0.2-0.1,0.4-0.1,0.5,0.1C485.2,566.5,485.2,566.8,485,566.9"/>
			<path class="st29" d="M1156.3,209.6v21.5c0,0.2-0.2,0.3-0.4,0.3c-0.2,0-0.3-0.1-0.3-0.3v-21.5c0-0.2,0.2-0.3,0.4-0.3
				C1156.2,209.3,1156.3,209.5,1156.3,209.6"/>
			<path class="st29" d="M1165.8,220.9c-7,0-14-0.4-20.9,0.6c-0.5,0.1-0.7-0.6-0.2-0.7c7-1,14.1-0.7,21.1-0.6c0.2,0,0.3,0.2,0.3,0.4
				C1166.1,220.8,1166,220.9,1165.8,220.9"/>
			<path class="st29" d="M1150.2,213.7c1.9,5.1,8,7.4,11.5,11.2c0.3,0.4-0.2,0.9-0.5,0.5c-3.6-3.9-9.7-6.3-11.7-11.5
				C1149.3,213.5,1150,213.3,1150.2,213.7"/>
			<path class="st29" d="M1162.2,214.4c-2.3,1.4-4.1,3.9-5.7,6c-1.9,2.3-3.6,4.8-5.4,7.2c-0.3,0.4-0.9,0-0.6-0.4
				c1.8-2.5,3.6-4.9,5.5-7.4c1.7-2.1,3.5-4.7,5.8-6.1c0.2-0.1,0.4,0,0.5,0.2C1162.4,214.1,1162.4,214.3,1162.2,214.4"/>
			<path class="st30" d="M1164.2,245.7V261c0,0.1,0.1,0.3,0.3,0.3s0.3-0.1,0.3-0.3v-15.3c0-0.1-0.1-0.3-0.3-0.3
				S1164.2,245.6,1164.2,245.7L1164.2,245.7"/>
			<path class="st30" d="M1157.5,253.8c5,0,10-0.3,14.9,0.4c0.3,0.1,0.5-0.4,0.1-0.5c-5-0.7-10-0.5-15-0.4c-0.1,0-0.3,0.1-0.3,0.3
				C1157.3,253.7,1157.4,253.8,1157.5,253.8"/>
			<path class="st30" d="M1168.6,248.7c-1.4,3.6-5.7,5.3-8.2,8c-0.2,0.2,0.1,0.6,0.4,0.4c2.6-2.8,6.9-4.5,8.3-8.2
				C1169.2,248.5,1168.7,248.4,1168.6,248.7"/>
			<path class="st30" d="M1160,249.1c1.7,1,2.9,2.8,4.1,4.2c1.3,1.7,2.6,3.4,3.8,5.1c0.2,0.3,0.6,0,0.4-0.3
				c-1.3-1.8-2.6-3.5-3.9-5.2c-1.2-1.5-2.5-3.3-4.2-4.3C1160,248.5,1159.7,248.9,1160,249.1"/>
			<path class="st31" d="M1271.7,296.4c0.3,3.5,0.5,7.3,0.5,11.1l0.4-0.1c1.9-3.1,4.4-5.4,6.5-8.3c0.2-0.1,0.4,0,0.6,0.2
				c-1.4,3.1-4.4,5.6-5.9,8.4c-0.5,0.7-1.3,1.3-1.6,2c4.3,0.1,9.2-0.5,13-0.4c-0.4,1.3-1.8,1.1-2.9,1.2c-3-0.1-5.6,0.4-8.8,0.3
				l-0.1,0.1c3,3.6,7.5,5.9,9.2,10.1c-0.1,0.2-0.3,0.2-0.5,0.2c-2.9-3.6-6.4-6.2-9.6-9.5c-0.3,5.2,0.6,10.2-0.2,15.6
				c-0.5-0.4-0.9-1.1-0.9-1.7c0-5-0.3-9.6-0.4-14.5l-1,1c-2.4,2.9-3.8,7.1-7.3,8.9l-0.2-0.1c0.2-1.2,1.6-1.7,2-2.9l4.7-6.8
				c-1.1-0.4-2.3,0-3.6,0c-2.3-0.3-4.7,0.2-7.1-0.4c-0.2-0.2-0.7-0.4-0.4-0.8c1.4-0.5,3,0.2,4.8,0.1c2.3-0.1,4.7-0.1,7.3-0.4
				c-3.1-2.9-6-6-8.7-9.2c0.4-0.6,1.1-0.1,1.4,0.2c2.6,2.7,5.1,5.4,8,7.9l0.1-0.3c-0.3-4.7-0.1-9.8-0.4-14.1c1.6-0.7,0.7,1.5,1.2,2"
				/>
			<path class="st31" d="M256.1,313.2c0.3,3.5,0.5,7.3,0.5,11.1l0.4-0.1c1.9-3.1,4.4-5.4,6.5-8.3c0.2-0.1,0.5,0,0.6,0.2
				c-1.4,3.1-4.4,5.6-5.9,8.4c-0.5,0.7-1.3,1.3-1.6,2c4.3,0.1,9.2-0.4,13-0.4c-0.4,1.3-1.8,1.1-2.9,1.2c-3.1-0.1-5.6,0.4-8.8,0.3
				l-0.1,0.1c3,3.6,7.5,5.9,9.2,10.1c-0.1,0.2-0.3,0.2-0.5,0.2c-2.9-3.6-6.4-6.2-9.6-9.5c-0.3,5.2,0.6,10.2-0.1,15.6
				c-0.5-0.4-0.9-1.1-0.9-1.7c0-5-0.3-9.6-0.4-14.5l-0.9,1c-2.3,3-3.8,7.2-7.3,9l-0.2-0.1c0.1-1.2,1.6-1.7,2-2.9l4.7-6.8
				c-1.1-0.4-2.3,0-3.6,0c-2.3-0.3-4.7,0.2-7.1-0.4c-0.2-0.2-0.6-0.4-0.4-0.8c1.5-0.5,3,0.2,4.8,0.1c2.3-0.1,4.7-0.1,7.3-0.4
				c-3.1-2.9-6-6-8.7-9.2c0.4-0.7,1.1-0.1,1.4,0.2c2.6,2.7,5.1,5.4,8,7.9l0.1-0.3c-0.3-4.6-0.1-9.8-0.4-14.1
				C256.5,310.5,255.5,312.8,256.1,313.2"/>
			<path class="st31" d="M1288.2,196.6v23.5c0,0.2-0.2,0.4-0.4,0.4s-0.4-0.2-0.4-0.4v-23.5c0-0.2,0.2-0.4,0.4-0.4
				S1288.2,196.4,1288.2,196.6L1288.2,196.6"/>
			<path class="st31" d="M1298.7,209.1c-7.7,0-15.4-0.4-23,0.7c-0.5,0.1-0.7-0.7-0.2-0.8c7.7-1.1,15.4-0.7,23.2-0.7
				c0.2,0,0.4,0.2,0.4,0.4C1299,208.9,1298.9,209,1298.7,209.1"/>
			<path class="st31" d="M1281.5,201.2c2.1,5.6,8.8,8.1,12.6,12.3c0.3,0.4-0.2,0.9-0.6,0.6c-4-4.3-10.6-6.9-12.8-12.6
				C1280.5,200.9,1281.3,200.7,1281.5,201.2"/>
			<path class="st31" d="M1294.7,201.8c-2.5,1.5-4.5,4.3-6.3,6.5c-2,2.6-4,5.2-5.9,7.9c-0.3,0.4-1,0-0.7-0.4c2-2.7,4-5.4,6-8
				c1.8-2.3,3.8-5.1,6.4-6.6c0.2-0.1,0.4-0.1,0.6,0.1C1294.9,201.5,1294.9,201.8,1294.7,201.8L1294.7,201.8"/>
			<path class="st32" d="M1051.6,681.7c2.7-1.5,7.8-2.7,8.9,0.4c1.3,3.6-4.6,4.7-7.9,3.2c1.7,1,5.1,4.4,3.5,6.4
				c-2.3,3-6.2-1.3-7.1-3.8c-0.7,3.6-5.4,10.2-7.5,4.5c-0.9-2.4,0.7-4.9,5-7.7c-4.3-1.7-7.6-5.2-5.2-7.9c1.6-1.8,6,1.2,7.3,4.1
				c-0.6-2.5,0.6-11.7,5-9.3C1057.6,673.7,1051.6,681.7,1051.6,681.7"/>
			<path class="st33" d="M1168.6,685.2c0.3,2.5,0.6,5.4,0.7,8.1l0.3-0.1c1.3-2.3,3-4.1,4.5-6.3c0.2,0,0.3,0,0.4,0.1
				c-0.9,2.3-3.1,4.2-4,6.3c-0.4,0.5-0.8,1-1.1,1.5c3.1-0.1,6.7-0.6,9.5-0.7c-0.2,1-1.3,0.9-2.1,1c-2.2,0-4.1,0.5-6.4,0.5l-0.1,0.1
				c2.3,2.5,5.7,4.1,7,7.1c-0.1,0.1-0.2,0.2-0.4,0.2c-2.3-2.6-4.9-4.3-7.3-6.6c0,3.8,0.8,7.4,0.4,11.4c-0.4-0.3-0.7-0.7-0.8-1.2
				c-0.2-3.6-0.5-7-0.8-10.6l-0.7,0.8c-1.7,2.2-2.5,5.3-5.1,6.8h-0.2c0.1-0.8,1.1-1.3,1.4-2.2l3.2-5.1c-0.9-0.1-1.8-0.1-2.7,0.1
				c-1.7-0.1-3.4,0.3-5.2-0.1c-0.2-0.2-0.5-0.3-0.3-0.6c1-0.4,2.2,0.1,3.5-0.1c1.7-0.2,3.5-0.2,5.3-0.5c-2.3-2-4.6-4.2-6.7-6.4
				c0.3-0.5,0.8-0.1,1.1,0.1c2,1.9,3.9,3.8,6.1,5.5l0.1-0.2c-0.4-3.4-0.4-7.1-0.8-10.3C1168.8,683.2,1168.2,684.9,1168.6,685.2"/>
			<path class="st34" d="M1278.8,676.6c0.2,2.8,0.4,5.9,0.4,8.9h0.3c1.5-2.5,3.5-4.3,5.2-6.7c0.2,0,0.4,0,0.5,0.2
				c-1.1,2.5-3.6,4.5-4.7,6.7c-0.5,0.5-0.9,1.1-1.3,1.6c3.4,0,7.3-0.4,10.4-0.3c-0.3,1-1.4,0.9-2.3,1c-2.4-0.1-4.5,0.3-7,0.2
				l-0.1,0.1c2.4,2.9,6,4.7,7.3,8.1c-0.1,0.1-0.2,0.2-0.4,0.2c-2.3-2.9-5.1-5-7.7-7.6c-0.2,4.1,0.5,8.2-0.1,12.5
				c-0.4-0.4-0.7-0.9-0.8-1.4c0-4-0.2-7.7-0.3-11.7l-0.8,0.8c-1.9,2.3-3,5.7-5.9,7.2l-0.2-0.1c0.1-0.9,1.3-1.4,1.6-2.3l3.8-5.4
				c-0.9-0.3-1.9,0-2.9,0c-1.9-0.2-3.8,0.2-5.7-0.3c-0.2-0.2-0.5-0.3-0.3-0.7c1.2-0.4,2.4,0.2,3.8,0.1c1.9-0.1,3.8-0.1,5.8-0.3
				c-2.5-2.3-4.8-4.8-7-7.3c0.3-0.5,0.9-0.1,1.2,0.2c2.1,2.2,4.1,4.3,6.4,6.3l0.1-0.2c-0.2-3.7-0.1-7.8-0.3-11.3
				C1279.2,674.5,1278.5,676.3,1278.8,676.6"/>
			<path class="st34" d="M308.3,443.3c0.2,2.8,0.4,5.9,0.4,8.9l0.4,0c1.5-2.5,3.5-4.3,5.2-6.6c0.2,0,0.4,0,0.5,0.2
				c-1.1,2.5-3.5,4.5-4.7,6.7c-0.5,0.5-0.9,1.1-1.3,1.6c3.4,0,7.3-0.4,10.4-0.3c-0.3,1-1.5,0.9-2.3,1c-2.5-0.1-4.5,0.3-7,0.2
				l-0.1,0.1c2.4,2.9,6,4.7,7.3,8.1c-0.1,0.1-0.2,0.2-0.4,0.2c-2.3-2.9-5.1-5-7.7-7.6c-0.2,4.1,0.5,8.2-0.1,12.5
				c-0.4-0.4-0.7-0.9-0.8-1.4c0-4-0.2-7.7-0.4-11.7l-0.8,0.8c-1.9,2.3-3,5.7-5.9,7.2l-0.2-0.1c0.1-0.9,1.3-1.4,1.6-2.3l3.8-5.4
				c-0.9-0.3-1.9,0-2.9,0c-1.9-0.2-3.8,0.2-5.7-0.3c-0.2-0.2-0.5-0.4-0.3-0.6c1.2-0.4,2.4,0.2,3.8,0.1c1.9-0.1,3.8-0.1,5.8-0.3
				c-2.5-2.3-4.8-4.8-7-7.3c0.3-0.5,0.9-0.1,1.2,0.2c2.1,2.2,4.1,4.3,6.4,6.3l0.1-0.2c-0.2-3.7-0.1-7.8-0.4-11.3
				C308.7,441.2,307.9,443,308.3,443.3"/>
			<path class="st34" d="M260.3,157.7c0.2,2.8,0.4,5.9,0.4,8.9h0.4c1.5-2.5,3.5-4.3,5.2-6.6c0.2,0,0.4,0,0.5,0.2
				c-1.1,2.4-3.6,4.5-4.7,6.7c-0.4,0.6-1,1-1.3,1.6c3.4,0.1,7.3-0.4,10.4-0.3c-0.3,1-1.5,0.9-2.3,1c-2.5-0.1-4.5,0.4-7.1,0.2
				l-0.1,0.1c2.4,2.9,6,4.7,7.3,8.1c-0.1,0.1-0.2,0.2-0.4,0.2c-2.3-2.9-5.1-4.9-7.7-7.6c-0.2,4.1,0.5,8.2-0.1,12.5
				c-0.4-0.4-0.7-0.9-0.8-1.4c0-4-0.2-7.7-0.4-11.7l-0.8,0.8c-1.9,2.3-3,5.7-5.9,7.2l-0.2-0.1c0.1-0.9,1.3-1.4,1.6-2.3l3.8-5.4
				c-0.9-0.3-1.9,0-2.9,0c-1.9-0.2-3.8,0.2-5.7-0.3c-0.2-0.2-0.5-0.4-0.3-0.6c1.2-0.4,2.4,0.2,3.8,0.1c1.9-0.1,3.8-0.1,5.8-0.3
				c-2.5-2.3-4.8-4.8-7-7.3c0.3-0.5,0.9-0.1,1.2,0.2c2.1,2.2,4.1,4.3,6.4,6.3l0.1-0.2c-0.2-3.7-0.1-7.8-0.4-11.3
				C260.6,155.7,259.9,157.5,260.3,157.7"/>
			<path class="st34" d="M1253.3,435.6c0.2,2.8,0.4,5.9,0.4,8.9l0.3,0c1.5-2.5,3.5-4.3,5.2-6.6c0.2,0,0.4,0,0.5,0.2
				c-1.1,2.5-3.6,4.5-4.7,6.7c-0.5,0.5-0.9,1.1-1.3,1.6c3.4,0.1,7.3-0.4,10.4-0.3c-0.3,1-1.4,0.9-2.3,1c-2.4-0.1-4.5,0.4-7,0.2
				l-0.1,0.1c2.4,2.9,6,4.7,7.3,8.1c-0.1,0.1-0.2,0.2-0.4,0.2c-2.3-2.9-5.1-5-7.7-7.6c-0.2,4.1,0.5,8.2-0.1,12.5
				c-0.4-0.4-0.7-0.9-0.8-1.4c0-4-0.2-7.7-0.3-11.7l-0.8,0.8c-1.9,2.3-3,5.7-5.9,7.2l-0.2-0.1c0.1-0.9,1.3-1.4,1.6-2.3l3.8-5.4
				c-0.9-0.3-1.9,0-2.9,0c-1.9-0.2-3.8,0.2-5.7-0.3c-0.2-0.2-0.5-0.4-0.3-0.6c1.2-0.4,2.4,0.2,3.8,0.1c1.9-0.1,3.8-0.1,5.8-0.3
				c-2.5-2.3-4.8-4.8-7-7.3c0.3-0.5,0.9-0.1,1.2,0.2c2.1,2.1,4.1,4.3,6.4,6.3l0.1-0.2c-0.2-3.7-0.1-7.8-0.3-11.3
				C1253.7,433.4,1252.9,435.2,1253.3,435.6"/>
		</g>
	</g>
</g>
</svg>
