<svg id="Layer_1" data-name="Layer 1" xmlns="http://www.w3.org/2000/svg" xmlns:xlink="http://www.w3.org/1999/xlink" viewBox="0 0 1600 900"><defs><style>.cls-1{fill:none;}.cls-2{clip-path:url(#clip-path);}.cls-3{fill:url(#Áåçûìÿííûé_ãðàäèåíò_712);}.cls-4{fill:#f8e2b9;}.cls-5{fill:#ebd4ab;}.cls-6{fill:#f7d6a1;}.cls-7{fill:#f0b081;}.cls-8{fill:#794d3b;}.cls-9{fill:#5c3829;}.cls-10{fill:#fbfeb7;}.cls-10,.cls-11,.cls-12{fill-rule:evenodd;}.cls-11{fill:#ffa745;}.cls-12{fill:#d46255;}.cls-13,.cls-14,.cls-15,.cls-16{font-size:55.23px;}.cls-13{fill:#c24502;}.cls-13,.cls-14,.cls-15,.cls-16,.cls-19,.cls-20,.cls-21,.cls-22,.cls-23{font-family:CoopHeavy;}.cls-14{fill:#a5d042;}.cls-15{fill:#4bcaed;}.cls-16{fill:#ed6c8a;}.cls-17{fill:#fff;}.cls-18,.cls-22{fill:#818dbd;}.cls-19{font-size:89.5px;}.cls-19,.cls-20,.cls-23{fill:#34a2a2;}.cls-19,.cls-20,.cls-21,.cls-23{stroke:#f9f9f9;}.cls-19,.cls-20,.cls-21,.cls-22,.cls-23{stroke-miterlimit:10;}.cls-20{font-size:74.72px;}.cls-21{font-size:76.07px;fill:#da717c;}.cls-22{font-size:73.49px;stroke:#f9f7f8;}.cls-23{font-size:68.62px;}</style><clipPath id="clip-path"><rect class="cls-1" width="1600" height="900"/></clipPath><linearGradient id="Áåçûìÿííûé_ãðàäèåíò_712" x1="800" y1="899.61" x2="800" y2="-71.34" gradientUnits="userSpaceOnUse"><stop offset="0" stop-color="#ccfcd0"/><stop offset="0.37" stop-color="#b1efcf"/><stop offset="0.75" stop-color="#9ce5cd"/><stop offset="1" stop-color="#94e1cd"/></linearGradient></defs><g class="cls-2"><polygon class="cls-3" points="-158.88 -62.61 -160 917.39 1755.6 914.22 1760 -62.02 -158.88 -62.61"/><polygon class="cls-4" points="1759.2 983.63 1756.48 714.02 -160.03 715.55 -159.01 998.95 1759.2 983.63"/><path class="cls-5" d="M1757.38,874.55l-1916.64-.61c0,1,0,2,0,3.08H1757.84C1757.69,876.2,1757.54,875.37,1757.38,874.55Z"/><path class="cls-5" d="M1756.45,783l-1915.88-.61c0,1,0,2.06.05,3.08H1756.91C1756.75,784.62,1756.6,783.8,1756.45,783Z"/><polygon class="cls-5" points="-157.91 922.65 140.29 740.91 136.77 737.98 -158.6 915.37 -157.91 922.65"/><polygon class="cls-5" points="124.21 995.32 371.3 734.4 366.65 732.35 114.11 995.57 124.21 995.32"/><polygon class="cls-5" points="458.04 992.42 615.75 703.8 611.23 703.01 451.25 991.32 458.04 992.42"/><polygon class="cls-5" points="799.79 989.89 817.95 705.12 813.88 706.22 793.93 989.75 799.79 989.89"/><polygon class="cls-5" points="1148.31 987.74 1041.36 706.41 1038.07 709.13 1141.84 987.53 1148.31 987.74"/><polygon class="cls-5" points="1508.18 984.44 1254.49 724.04 1252.41 728.12 1499.32 984.88 1508.18 984.44"/><polygon class="cls-5" points="1757.48 890.87 1488.54 706.58 1487.28 710.96 1757.07 898.43 1757.48 890.87"/><polygon class="cls-6" points="-160 743.73 1756.63 739.75 1756.65 700.03 -160 704.02 -160 743.73"/><rect class="cls-7" x="-50.74" y="128.48" width="221.1" height="248.37"/><rect class="cls-8" x="-35.05" y="146.1" width="189.72" height="213.12"/><polygon class="cls-9" points="150.54 146.1 150.54 354.51 -35.05 354.51 -35.05 359.22 154.67 359.22 154.67 146.1 150.54 146.1"/><polygon class="cls-10" points="-26.57 171.73 39.68 171.71 39.73 232.56 -26.49 232.59 -26.57 171.73"/><polygon class="cls-11" points="-22.23 174.86 35.3 174.86 35.38 222.13 -22.16 222.16 -22.23 174.86"/><polygon class="cls-12" points="3.94 163.88 4.62 163.84 4.95 163.84 5.02 164.35 5.15 165.2 5.18 164.38 5.22 163.84 5.61 163.85 6.23 163.79 6.35 164.64 6.44 163.83 7.66 163.82 7.68 164.05 7.8 164.9 7.84 164.08 7.89 163.81 9 163.78 9.21 173.83 7.55 173.87 7.47 173.36 7.33 172.56 7.3 173.38 7.21 173.86 6.05 173.88 5.9 172.86 5.83 173.9 4.88 173.95 4.79 173.16 4.66 172.36 4.62 173.18 4.54 173.94 4.16 173.93 3.94 163.88"/><polygon class="cls-10" points="77.27 187.97 143.52 187.95 143.56 248.8 77.35 248.82 77.27 187.97"/><polygon class="cls-11" points="81.61 191.09 139.14 191.09 139.21 238.37 81.67 238.4 81.61 191.09"/><polygon class="cls-12" points="107.78 180.12 108.45 180.07 108.78 180.07 108.86 180.59 108.98 181.44 109.02 180.62 109.06 180.07 109.45 180.08 110.06 180.03 110.19 180.88 110.28 180.06 111.5 180.06 111.51 180.28 111.64 181.13 111.67 180.31 111.72 180.04 112.83 180.02 113.05 190.06 111.38 190.1 111.31 189.59 111.17 188.79 111.14 189.62 111.05 190.1 109.89 190.11 109.73 189.09 109.66 190.13 108.71 190.18 108.63 189.39 108.49 188.59 108.46 189.42 108.38 190.18 108 190.17 107.78 180.12"/><polygon class="cls-10" points="-6.14 257.01 60.11 256.99 60.15 317.84 -6.06 317.87 -6.14 257.01"/><polygon class="cls-11" points="-1.8 260.13 55.73 260.14 55.81 307.41 -1.73 307.44 -1.8 260.13"/><polygon class="cls-12" points="24.37 249.16 25.04 249.12 25.37 249.12 25.45 249.63 25.58 250.48 25.61 249.66 25.65 249.11 26.04 249.13 26.66 249.07 26.78 249.92 26.87 249.11 28.09 249.1 28.11 249.33 28.23 250.18 28.27 249.35 28.32 249.09 29.43 249.06 29.64 259.11 27.98 259.14 27.9 258.63 27.76 257.84 27.73 258.66 27.64 259.14 26.48 259.16 26.33 258.13 26.25 259.17 25.3 259.23 25.22 258.44 25.09 257.64 25.05 258.46 24.97 259.22 24.59 259.21 24.37 249.16"/><polygon class="cls-11" points="80.85 284.11 138.38 284.11 138.45 331.38 80.91 331.41 80.85 284.11"/><polygon class="cls-12" points="107.02 275.38 107.69 275.34 108.02 275.34 108.1 275.85 108.22 276.7 108.26 275.88 108.3 275.34 108.69 275.35 109.3 275.29 109.43 276.14 109.52 275.33 110.74 275.32 110.75 275.55 110.88 276.4 110.92 275.58 110.96 275.31 112.07 275.28 112.29 285.33 110.62 285.37 110.55 284.86 110.41 284.06 110.38 284.88 110.29 285.36 109.13 285.38 108.97 284.36 108.9 285.39 107.95 285.45 107.87 284.66 107.73 283.86 107.7 284.69 107.62 285.44 107.23 285.43 107.02 275.38"/><text class="cls-13" transform="translate(-8.45 215.36)">A</text><text class="cls-14" transform="translate(97.24 233.2)">B</text><text class="cls-15" transform="translate(12.47 302.74)">C</text><text class="cls-16" transform="translate(100.47 324.57)">D</text><rect class="cls-7" x="1431.29" y="128.71" width="221.1" height="248.37"/><rect class="cls-8" x="1446.98" y="146.34" width="189.72" height="213.12"/><polygon class="cls-9" points="1632.57 146.34 1632.57 354.74 1446.98 354.74 1446.98 359.46 1636.69 359.46 1636.69 146.34 1632.57 146.34"/><path class="cls-17" d="M1518.82,241.38l.13-1.26a23,23,0,0,1,3.25-9.49c1.78-3,5.17-6.74,10.36-11.55,4-3.73,6.46-6.26,7.32-7.52a8.9,8.9,0,0,0,1.67-4.89,5.17,5.17,0,0,0-1.29-3.84,5,5,0,0,0-3.68-1.29,4.88,4.88,0,0,0-3.68,1.36q-1.38,1.41-1.61,4.94l-.08,1.18-11.32-1.13.12-1.15c.57-5.27,2.42-9.14,5.49-11.49a18.14,18.14,0,0,1,11.31-3.48c4.93,0,8.88,1.37,11.75,4.07A13.51,13.51,0,0,1,1552.9,206a17.48,17.48,0,0,1-1.22,6.48,25.73,25.73,0,0,1-3.79,6.31,56.41,56.41,0,0,1-6,6.15c-2.83,2.59-4.62,4.31-5.34,5.12l-.52.61h16.9v10.68Z"/><path class="cls-18" d="M1551.76,231.85v8.39h-31.67a21.84,21.84,0,0,1,3.08-9q2.58-4.26,10.16-11.3,6.12-5.7,7.49-7.72a9.89,9.89,0,0,0,1.87-5.53,6.28,6.28,0,0,0-1.62-4.64,6.9,6.9,0,0,0-9,.07c-1.11,1.14-1.76,3-1.93,5.66l-9-.9q.8-7.46,5-10.7a16.89,16.89,0,0,1,10.61-3.25q7,0,11,3.76a12.34,12.34,0,0,1,4,9.36,16.32,16.32,0,0,1-1.14,6.06,24.93,24.93,0,0,1-3.62,6,58.7,58.7,0,0,1-5.92,6c-2.85,2.62-4.66,4.35-5.41,5.21a14.5,14.5,0,0,0-1.85,2.51Z"/><polygon class="cls-12" points="1535.02 186.68 1535.58 186.67 1535.86 186.69 1535.9 187.12 1535.96 187.84 1536.03 187.15 1536.09 186.7 1536.41 186.73 1536.93 186.71 1536.99 187.43 1537.11 186.75 1538.12 186.8 1538.13 186.99 1538.19 187.71 1538.26 187.02 1538.31 186.8 1539.24 186.83 1538.95 195.21 1537.56 195.17 1537.52 194.74 1537.44 194.06 1537.38 194.75 1537.28 195.15 1536.31 195.11 1536.23 194.25 1536.12 195.11 1535.33 195.11 1535.3 194.45 1535.22 193.78 1535.15 194.46 1535.05 195.09 1534.73 195.06 1535.02 186.68"/><text class="cls-19" transform="translate(1469.34 229.79)">1</text><polygon class="cls-12" points="1481.25 167.48 1481.81 167.47 1482.09 167.49 1482.13 167.92 1482.19 168.63 1482.26 167.95 1482.32 167.5 1482.64 167.53 1483.16 167.51 1483.23 168.22 1483.34 167.55 1484.35 167.6 1484.36 167.79 1484.42 168.51 1484.49 167.82 1484.54 167.6 1485.47 167.63 1485.18 176.01 1483.79 175.97 1483.75 175.54 1483.67 174.87 1483.61 175.55 1483.51 175.95 1482.54 175.91 1482.46 175.05 1482.36 175.91 1481.56 175.91 1481.53 175.25 1481.45 174.58 1481.38 175.26 1481.28 175.89 1480.96 175.86 1481.25 167.48"/><text class="cls-20" transform="translate(1581.53 223) scale(0.98 1)">3</text><text class="cls-21" transform="translate(1460.07 333.52)">4</text><polygon class="cls-12" points="1597.56 168.25 1598.12 168.24 1598.4 168.26 1598.44 168.69 1598.5 169.41 1598.57 168.72 1598.63 168.27 1598.95 168.3 1599.47 168.28 1599.54 169 1599.65 168.32 1600.66 168.37 1600.66 168.56 1600.73 169.28 1600.8 168.59 1600.85 168.37 1601.78 168.4 1601.49 176.78 1600.1 176.74 1600.06 176.31 1599.98 175.63 1599.92 176.32 1599.82 176.72 1598.85 176.68 1598.77 175.82 1598.66 176.68 1597.87 176.68 1597.84 176.02 1597.76 175.35 1597.69 176.03 1597.59 176.66 1597.27 176.63 1597.56 168.25"/><polygon class="cls-12" points="1483.81 277.7 1484.38 277.69 1484.65 277.71 1484.69 278.14 1484.76 278.86 1484.83 278.17 1484.88 277.72 1485.2 277.75 1485.72 277.73 1485.79 278.45 1485.9 277.77 1486.92 277.82 1486.92 278.01 1486.98 278.73 1487.05 278.04 1487.1 277.82 1488.03 277.85 1487.74 286.23 1486.35 286.19 1486.31 285.76 1486.24 285.09 1486.17 285.77 1486.08 286.17 1485.11 286.13 1485.03 285.27 1484.92 286.13 1484.12 286.13 1484.09 285.47 1484.02 284.8 1483.95 285.48 1483.85 286.11 1483.53 286.08 1483.81 277.7"/><text class="cls-22" transform="translate(1582.5 333.55)">6</text><text class="cls-23" transform="translate(1531.5 307.1)">5</text><polygon class="cls-12" points="1546.68 255.89 1547.24 255.88 1547.52 255.9 1547.55 256.33 1547.62 257.05 1547.69 256.36 1547.75 255.91 1548.07 255.94 1548.59 255.92 1548.65 256.63 1548.76 255.96 1549.78 256.01 1549.78 256.2 1549.85 256.92 1549.91 256.23 1549.97 256.01 1550.89 256.04 1550.61 264.42 1549.21 264.38 1549.17 263.95 1549.1 263.27 1549.03 263.96 1548.94 264.36 1547.97 264.32 1547.89 263.46 1547.78 264.32 1546.98 264.32 1546.95 263.66 1546.88 262.99 1546.81 263.67 1546.71 264.3 1546.39 264.27 1546.68 255.89"/></g></svg>