<svg id="Layer_1" data-name="Layer 1" xmlns="http://www.w3.org/2000/svg" viewBox="0 0 230 128"><defs><style>.cls-1{fill:#421f0d;}.cls-2{fill:#60301b;}.cls-3{fill:#db8f5d;}</style></defs><path class="cls-1" d="M122.77,7.43C46.49,6.19,27.3,38.2,16.34,52.84s-14.51,31.22-12,36.6,13.62,5.46,15-4.1,7-26.05,13.3-26.55-2.19,14,13.46,14.39S56.88,61,61.73,58.42,72.53,60.28,71,77s-9.39,27.91-9.24,38.58,17.38,12.78,19.72-1.11-1.25-21.58-.31-32.25S93.66,74.8,94,83.11s-1.84,13.57,7.82,13,3.6-14.57,4.07-30.31,24.26-10.53,24.26.51-2.75,19.23,8.57,19.36,10.68-8.57,8.8-18.74-2.92-22.91,10.65-23.24,12.91,12.54,11.64,28.94c-1.09,14-1.54,21.32-2.25,31.27s19.93,13.92,21.34-.47-8-32.15-6.81-46.8,17.61-9.08,18.86.69,1.88,23.18,15,21.27,11-13.64,9.08-20S198.84,8.67,122.77,7.43Z"/><path class="cls-2" d="M50.54,50.9a1.5,1.5,0,0,1,.53-2C57.38,43.93,62.84,38.55,69.61,34c6-4.08,12.44-7.8,19-11.34,8.79-4.76,18.05-9,26.93-13.68-62.83,1.09-91,33.26-100,50.59S3.66,90,11.81,86.78c1.87-.73,2.5-2.74,2.27-7.27s2.11-14.84,7.33-25.84,20.92-14.31,18.31-3.48S43,69.71,46.6,67.4C50.06,65.21,46.05,56.59,50.54,50.9Z"/><path class="cls-2" d="M93.42,24.76A221.56,221.56,0,0,0,72.57,37.1,171.35,171.35,0,0,0,58.74,48.21a18.73,18.73,0,0,1,12.15,7.33q10-8.79,19.52-17.85C98.7,29.84,107,22,115.3,14.14l1-1C108.75,17.06,101,20.75,93.42,24.76Z"/><path class="cls-2" d="M72.93,77.2c-2.18,13.6-5.65,26.71-7.44,33.62-2.19,8.43,2.82,10.58,6.37,6,3.33-4.35,3-29,4.22-42.35C75,75.34,74,76.26,72.93,77.2Z"/><path class="cls-2" d="M145.19,10.85c-3.78-.58-7.7-1-11.82-1.38-2.89,3-5.9,5.88-8.94,8.75Q111.55,30.39,98.69,42.56,92,48.89,85.17,55.08C104.53,39.83,125.27,25.66,145.19,10.85Z"/><path class="cls-2" d="M140.55,54.8A123,123,0,0,1,135,69.72a39,39,0,0,1-1.58,5c-2.61,6.44,1,9.93,7.72,6.87C147.23,78.75,143.34,67.07,140.55,54.8Z"/><path class="cls-2" d="M130.08,42.33A22.18,22.18,0,0,1,132.16,45c1.78-2.24,3.54-4.49,5.31-6.73,6.5-8.2,13.13-16.34,19.19-24.74-11,8.27-22.25,16.31-33.44,24.4A16.43,16.43,0,0,1,130.08,42.33Z"/><path class="cls-2" d="M164,36c1.1-6.71,2.08-13.43,2.89-20.17h0c-3.75,5.29-7.74,10.46-11.8,15.6A13.32,13.32,0,0,1,164,36Z"/><path class="cls-2" d="M174.42,74.86c.77,5.3,1.68,10.59,2.57,15.88.07-2.09.11-4.4.15-7,.1-8.43-.5-18.25-1-26.64-.41,2.48-.95,4.94-1.58,7.39A70.33,70.33,0,0,1,174.42,74.86Z"/><path class="cls-2" d="M174,102.84c-.62-4.24-1.33-8.48-2-12.71-2.17,7.7-4.71,12.76-.86,14.32,1.56.63,2.7.49,3.55-.46A1.86,1.86,0,0,1,174,102.84Z"/><path class="cls-2" d="M189.73,26c-2.46-1.43-5.07-2.81-7.86-4.14a97,97,0,0,1-2.26,10.73Q184.66,29.23,189.73,26Z"/><path class="cls-2" d="M218.46,52.67C214.9,46.41,207,36.92,193.72,28.38c-3,1.93-6,3.88-8.94,5.82,4.67.38,10.45,3.75,15.52,12.68,10.23,18,5.84,26.3,13.57,27.79S226.45,66.73,218.46,52.67Z"/><path class="cls-2" d="M99.78,55.21Q96.69,57.57,93.63,60c1.66,2.22,3.14,5.59,4,10.66,2.5,14.81-3.51,21.06.21,22.66s6.36-4.38,4-17C100,66.58,99.17,61.69,99.78,55.21Z"/><path class="cls-3" d="M96,43.41c-.83-.11-2.25-8.85-.92-10.11s8.74-.59,9.37,0S96.58,43.49,96,43.41Z"/><path class="cls-3" d="M75.3,13.88c-2.48-1.26-13.57-2.07-14.92-2.07s-9.71,10.84-9.29,10.84a131.1,131.1,0,0,0,12.84-4C69.55,16.51,75.3,13.88,75.3,13.88Z"/><path class="cls-3" d="M116.1,10.2c.11-.58,8.81-6.39,10.27-6.47s6.58,3,7.36,3.23-2.71,4.89-3.22,5.4S115.86,11.4,116.1,10.2Z"/><path class="cls-3" d="M177.48,18.16c-1.26-.39-10.6,2.11-10.62,2.79s3.6,5.25,5.31,6.22,11.18,1.66,11.33.67S178.26,18.41,177.48,18.16Z"/><path class="cls-3" d="M149.15,25.11c-1.07-.35-6.89,8.19-6.5,8.81s4.23,5.27,5,5.21S150.14,25.44,149.15,25.11Z"/><path class="cls-3" d="M140.77,19.78c-.37-.57-7-.59-7.84.06s-.56,4.53,0,4.59S141.27,20.52,140.77,19.78Z"/><path class="cls-3" d="M87.54,25c-.93-.27-8.28-.81-9.53-.44s-7.28,9.16-7,9.79,13.62-4.83,15.18-6.25S88.21,25.18,87.54,25Z"/><path class="cls-3" d="M52.66,31.87c.81-1.93-5-2.79-7-2.73S38.18,36.52,39,36.83,52.34,32.62,52.66,31.87Z"/><path class="cls-3" d="M202,34.34c-1.11,0,1.54,7.66,2.27,7.91s5.21-4.65,5-4.84S204,34.37,202,34.34Z"/></svg>