<svg id="Layer_1" data-name="Layer 1" xmlns="http://www.w3.org/2000/svg" viewBox="0 0 280 210"><defs><style>.cls-1{opacity:0.2;}.cls-2{fill:#44210a;}.cls-3{fill:#ffb515;}.cls-4{fill:#fee384;}.cls-5{fill:#e07210;}.cls-6{fill:#c46987;}.cls-7{fill:#c44b27;}.cls-8{fill:#fef2dd;}</style></defs><ellipse class="cls-1" cx="144.02" cy="181.05" rx="122.94" ry="25.29"/><path class="cls-2" d="M269.43,61.92S163.59,90.25,9.88,65.12L34.72,172h.19l.11.42c1,1.91,3.14,4.6,8.42,7.65,7.24,4.65,19.5,8.66,35.13,11.62,3.32.71,6.4,1.24,9.26,1.58a376.38,376.38,0,0,0,55.43,3.86c54.18,0,98.93-10,106.08-23.11a14.2,14.2,0,0,0,1.4-2.05c4.46-17.38,6.12-36.18,9.06-54,2.51-15.09,5.23-30.1,7.77-45.17.61-3.63,1.24-7.27,1.86-10.89"/><path class="cls-3" d="M276.34,30.92c-6.45-8-33.07-.26-58.34,11-21.8-3.89-48.83-6.18-78.12-6.18-30,0-57.55,2.4-79.62,6.46C35.16,31.08,8.92,23.48,2.52,31.45c0,0-4.15,3.75,5.05,38,1.28,2.23,3.84,5.37,10.31,8.94,8.85,5.42,23.83,10.11,42.92,13.58,4.07.82,7.84,1.43,11.34,1.85a481.17,481.17,0,0,0,67.74,4.51c66.24,0,121-11.76,129.68-27a15,15,0,0,0,1.71-2.4c9.2-34.22,5.07-37.95,5.07-37.95"/><path class="cls-4" d="M277.71,34.92c0,17.27-61.7,31.27-137.83,31.27S2.05,52.19,2.05,34.92,63.77,3.65,139.88,3.65s137.83,14,137.83,31.27"/><path class="cls-5" d="M263.6,34.86c0,13-55.22,23.44-123.33,23.44S16.93,47.81,16.93,34.86,72.15,11.43,140.27,11.43,263.6,21.91,263.6,34.86"/><path class="cls-6" d="M262.84,100.2q-1.41,8.13-2.79,16.28c-.23,2-.46,3.62-.58,4.37l3.37-20.65M12,75l.2.21v0L12,75"/><path class="cls-7" d="M56.14,91c1.52.31,3.08.6,4.67.89q6.09,1.23,11.33,1.85a481.27,481.27,0,0,0,67.74,4.5c12.71,0,25-.43,36.61-1.24-11.68.41-22.55.6-32.67.6-39.73,0-67.9-2.89-87.68-6.6m210.71-16.4c-11,8.12-30.37,13.84-49.08,17.51,23.94-4.25,41.61-10.4,49.08-17.51"/><path class="cls-6" d="M259.47,120.85l-.08.48s0-.17.08-.48M12,75a0,0,0,0,1,0,0v0"/><path class="cls-8" d="M23.26,122.71l.51,3.11.22,0Z"/></svg>