<svg xmlns="http://www.w3.org/2000/svg" viewBox="0 0 172.17 337.09"><defs><style>.cls-1{isolation:isolate;}.cls-2{fill:#984c00;}.cls-3{fill:#f6a328;}.cls-4{fill:#575756;}.cls-16,.cls-4{mix-blend-mode:screen;}.cls-5{opacity:0.2;}.cls-6{fill:#fff;}.cls-7{fill:#ffd349;}.cls-8{fill:#fed857;}.cls-9{fill:#ffe988;}.cls-10{fill:#f5a820;}.cls-11{fill:#fdc901;}.cls-12{fill:#eddd7d;}.cls-13{fill:#e8b831;}.cls-14{fill:#ebb242;}.cls-15{fill:#ffd54e;}.cls-16{fill:#3c3c3b;}</style></defs><g class="cls-1"><g id="Layer_1" data-name="Layer 1"><path class="cls-2" d="M164.14,336.63h0c-4.19,1.42-9.73-.53-11.15-4.71L75.88,94.9c-1.42-4.19-1-8.13,3.13-9.55h0c4.19-1.42,6.88,1.49,8.29,5.68l82.82,235.08C171.54,330.3,168.32,335.21,164.14,336.63Z"/><path class="cls-3" d="M137.17,283.3,153,331.92c1.42,4.18,7,6.13,11.15,4.71s7.4-6.33,6-10.52l-17-48.22Z"/><rect class="cls-4" x="140.21" y="177.42" width="2.71" height="155.43" rx="0.76" transform="translate(-75.98 60.69) rotate(-19.18)"/><path class="cls-4" d="M114.43,178.51h0a1.37,1.37,0,0,1-1.73-.84L93,121a1.37,1.37,0,0,1,.84-1.73h0a1.37,1.37,0,0,1,1.73.84l19.72,56.71A1.36,1.36,0,0,1,114.43,178.51Z"/><g class="cls-5"><path class="cls-6" d="M165.22,333.83a7.64,7.64,0,0,1-9.78-5.06l-73.55-222s-.48-4.73,2.62-6c2.91-1.21,5-.28,6.91,2L87.3,91c-1.41-4.19-4.1-7.1-8.29-5.68a5.23,5.23,0,0,0-3.55,3.37l0,.07c-.07.23-.13.46-.18.7v.05a8.2,8.2,0,0,0,0,2.48l0,.2c0,.21.06.43.1.65a2.38,2.38,0,0,1,0,.26c0,.21.1.42.16.64l.06.25c.08.29.17.58.27.88l77.11,237c1.42,4.18,7,6.13,11.15,4.71a9.71,9.71,0,0,0,6.17-7A9.78,9.78,0,0,1,165.22,333.83Z"/></g><polygon class="cls-7" points="72.97 67.49 72.97 67.49 72.97 67.49 72.97 67.49"/><rect class="cls-7" x="72.97" y="67.49" transform="translate(-19.86 103.02) rotate(-63.71)"/><polygon class="cls-8" points="72.97 67.49 72.97 67.49 82.47 36.96 50.1 0 72.97 67.49 72.97 67.49"/><polygon class="cls-9" points="130.09 24.89 82.47 36.96 72.97 67.49 130.09 24.89"/><polygon class="cls-10" points="72.97 67.49 72.97 67.49 104.94 67.09 130.09 24.89 72.97 67.49"/><polygon class="cls-3" points="51.79 135.53 83.22 97.78 72.97 67.49 51.79 135.53"/><polygon class="cls-3" points="72.97 67.49 1.71 68.38 47.33 86.61 72.97 67.49 72.97 67.49"/><polygon class="cls-11" points="72.97 67.49 47.33 86.61 51.79 135.53 72.97 67.49 72.97 67.49"/><polygon class="cls-12" points="1.71 68.38 72.97 67.49 72.97 67.49 46.86 49.02 1.71 68.38"/><polygon class="cls-11" points="46.86 49.02 72.97 67.49 50.1 0 46.86 49.02"/><polygon class="cls-13" points="72.97 67.49 83.22 97.78 131.13 108.66 72.97 67.49 72.97 67.49"/><polygon class="cls-14" points="72.97 67.49 72.97 67.49 131.13 108.66 104.94 67.09 72.97 67.49"/><polygon class="cls-15" points="81.01 91.25 56.35 120.87 52.86 82.49 17.07 68.19 52.49 53 55.03 14.55 80.42 43.54 117.78 34.08 98.05 67.18 118.6 99.78 81.01 91.25"/><polygon class="cls-16" points="55.03 14.55 52.49 53 17.07 68.19 52.86 82.49 19.22 68.11 53.28 53.83 55.03 14.55"/><path class="cls-16" d="M52.86,82.49l.44,4.82c22-10.1,37.42-28.15,42-47.54l-14.9,3.77L55,14.55,52.49,53,17.07,68.19Z"/></g></g></svg>