<svg xmlns="http://www.w3.org/2000/svg" xmlns:xlink="http://www.w3.org/1999/xlink" viewBox="0 0 256 80"><defs><style>.cls-1{isolation:isolate;}.cls-2{fill:#333;}.cls-3{opacity:0.2;mix-blend-mode:screen;fill:url(#White_Black);}.cls-4{fill:#191919;}</style><linearGradient id="White_Black" x1="1.87" y1="56.48" x2="254.13" y2="56.48" gradientUnits="userSpaceOnUse"><stop offset="0" stop-color="#fff"/><stop offset="1"/></linearGradient></defs><g class="cls-1"><g id="Layer_1" data-name="Layer 1"><ellipse class="cls-2" cx="128" cy="40" rx="126.13" ry="35.47"/><path class="cls-3" d="M128,70.43c-66.65,0-121.21-14.53-125.81-33A10.74,10.74,0,0,0,1.87,40C1.87,59.59,58.34,75.47,128,75.47S254.13,59.59,254.13,40a10.74,10.74,0,0,0-.32-2.52C249.21,55.9,194.65,70.43,128,70.43Z"/><ellipse class="cls-4" cx="128" cy="33.71" rx="75.57" ry="21.25"/><path d="M128,18.75c37.93,0,69.33,7.86,74.74,18.1a6.67,6.67,0,0,0,.83-3.14c0-11.74-33.83-21.25-75.57-21.25S52.43,22,52.43,33.71a6.67,6.67,0,0,0,.83,3.14C58.67,26.61,90.07,18.75,128,18.75Z"/></g></g></svg>