<svg xmlns="http://www.w3.org/2000/svg" xmlns:xlink="http://www.w3.org/1999/xlink" viewBox="0 0 256 215"><defs><style>.cls-1{fill:none;}.cls-2{isolation:isolate;}.cls-3{opacity:0.4;}.cls-4{clip-path:url(#clip-path);}.cls-5,.cls-9{fill:#292929;}.cls-6{fill:#c62f36;}.cls-11,.cls-7,.cls-8{opacity:0.2;mix-blend-mode:screen;}.cls-7{fill:url(#White_Black);}.cls-8{fill:url(#White_Black-2);}.cls-9{opacity:0.17;mix-blend-mode:multiply;}.cls-10{fill:#333;}.cls-11{fill:url(#White_Black-3);}.cls-12{fill:#191919;}</style><clipPath id="clip-path"><path class="cls-1" d="M254.13,6.17C254.13,17,236,27.71,208,33.71c7,91,23,110,22,135-3,46-186,56-205,0,4-27,17-73,23-135C19,26.71,1.87,17,1.87,6.17A11.42,11.42,0,0,1,3.6.29c.11.12,20.18.28,48.89.46,13.51,17,48.36,19.83,75.51,20,26.44.12,64-4,75.36-19.24,29.22.11,49.71.18,49.74.15A10.88,10.88,0,0,1,254.13,6.17Z"/></clipPath><linearGradient id="White_Black" x1="26.72" y1="103.44" x2="128.1" y2="103.44" gradientUnits="userSpaceOnUse"><stop offset="0" stop-color="#fff"/><stop offset="1"/></linearGradient><linearGradient id="White_Black-2" x1="80.61" y1="-30.58" x2="68.7" y2="214.32" xlink:href="#White_Black"/><linearGradient id="White_Black-3" x1="1.87" y1="22.65" x2="254.13" y2="22.65" xlink:href="#White_Black"/></defs><g class="cls-2"><g id="Layer_1" data-name="Layer 1"><ellipse class="cls-3" cx="128" cy="173.71" rx="120" ry="41"/><g class="cls-4"><path class="cls-5" d="M128,204.19h-.39a245.31,245.31,0,0,1-34.43-2.32c-18.72-2.59-35.76-7.3-47.89-13.68-13-6.86-20.43-15.65-18.15-25.86C35.66,124.17,45.34,79,48,43.33,49.17,27.57,49,13.67,46.7,3c0-.11-.05-.21-.07-.32h.13c6.84.57,14.7.88,23.26,1,10.2.18,21.4.13,33,0l20.19-.2,3.52,0v0h2.53v0c30,.27,59.69.89,80.11-.82-2.25,10.32-2.53,23.75-1.48,39,2.47,35.93,12.32,81.9,21,120.66C234.55,187.75,180.28,204.43,128,204.19Z"/><path class="cls-6" d="M46.52,58.46s24.66,8.71,73.24,8.71c58.92,0,89.72-8.71,89.72-8.71-2.58-22.13-3.16-41.81-.1-55.79-20.43,1.71-50.15,1.1-80.12.83v0l-1.26,0-1.27,0v0c-30,.27-59.68.88-80.11-.83C49.67,16.65,49.1,36.33,46.52,58.46Z"/><path class="cls-7" d="M127.6,204.19a245.31,245.31,0,0,1-34.43-2.32c-18.72-2.59-35.76-7.3-47.89-13.68-13-6.86-20.43-15.65-18.15-25.86,12.3-55,27-124.54,19.57-159.33a2.84,2.84,0,0,1,.06-.31c6.84.57,14.7.88,23.26,1,10.2.18,21.4.13,33,0l20.19-.2C125.82,62.13,129.43,168.82,127.6,204.19Z"/><path class="cls-8" d="M103,3.73c-1.52,43.63-6.88,164.13-9.85,198.14-18.72-2.59-35.76-7.3-47.89-13.68C47.62,167.78,66.07,36.63,70,3.72,80.22,3.9,91.42,3.85,103,3.73Z"/><path class="cls-9" d="M207.89,41.67C163.81,55.84,79.49,53.32,48,43.33,49.17,27.57,49,13.67,46.7,3c0-.11-.05-.21-.07-.32h.13c6.84.57,14.7.88,23.26,1,10.2.18,21.4.13,33,0l20.19-.2,3.52,0v0h2.53v0c30,.27,59.69.89,80.11-.82C207.12,13,206.84,26.43,207.89,41.67Z"/><ellipse class="cls-10" cx="128" cy="6.17" rx="126.13" ry="35.47"/><path class="cls-11" d="M128,36.61C61.35,36.61,6.79,22.07,2.19,3.66a10.73,10.73,0,0,0-.32,2.51C1.87,25.76,58.34,41.64,128,41.64S254.13,25.76,254.13,6.17a10.73,10.73,0,0,0-.32-2.51C249.21,22.07,194.65,36.61,128,36.61Z"/><ellipse class="cls-12" cx="128" cy="-0.12" rx="75.57" ry="21.25"/><path d="M128-15.08c37.93,0,69.33,7.86,74.74,18.11a6.74,6.74,0,0,0,.83-3.15c0-11.74-33.83-21.25-75.57-21.25S52.43-11.86,52.43-.12A6.74,6.74,0,0,0,53.26,3C58.67-7.22,90.07-15.08,128-15.08Z"/></g></g></g></svg>