<svg xmlns="http://www.w3.org/2000/svg" xmlns:xlink="http://www.w3.org/1999/xlink" viewBox="0 0 397.65 627.72"><defs><style>.cls-1{isolation:isolate;}.cls-2{opacity:0.28;}.cls-13,.cls-2{mix-blend-mode:multiply;}.cls-11,.cls-3{fill:#f2b5a5;}.cls-3{stroke:#7a3e32;}.cls-17,.cls-20,.cls-21,.cls-3,.cls-5,.cls-7,.cls-8{stroke-miterlimit:10;}.cls-21,.cls-3,.cls-5{stroke-width:2px;}.cls-4{fill:#241e5e;}.cls-5{stroke:#bf753d;fill:url(#linear-gradient);}.cls-6{fill:#bf753d;}.cls-7,.cls-9{fill:#fff;}.cls-7{stroke:#262c60;}.cls-20,.cls-7{stroke-width:0.75px;}.cls-8{fill:#ef4c48;stroke:#161549;}.cls-10{fill:#4c2d1c;}.cls-12{fill:#7a3e32;}.cls-14{fill:url(#Áåçûìÿííûé_ãðàäèåíò_140);}.cls-15{fill:#a65635;}.cls-16{fill:#5d1322;}.cls-17,.cls-19,.cls-20{fill:#f9f4f4;}.cls-17,.cls-20{stroke:#704312;}.cls-18{fill:#281818;}.cls-21{fill:none;stroke:#5b58d6;stroke-dasharray:5;}.cls-22{fill:#0e0e30;opacity:0.49;}</style><linearGradient id="linear-gradient" x1="318.83" y1="303.56" x2="114.91" y2="185.83" gradientUnits="userSpaceOnUse"><stop offset="0" stop-color="#fbb040"/><stop offset="1" stop-color="#f7941d"/></linearGradient><linearGradient id="Áåçûìÿííûé_ãðàäèåíò_140" x1="-5089.76" y1="2172.86" x2="-5061.42" y2="2143.02" gradientTransform="matrix(0.48, 0.41, -0.06, 0.65, 2731.81, 759.43)" gradientUnits="userSpaceOnUse"><stop offset="0.12" stop-color="#d48f4a"/><stop offset="0.22" stop-color="#d59350"/><stop offset="0.36" stop-color="#da9d61"/><stop offset="0.52" stop-color="#e0af7e"/><stop offset="0.69" stop-color="#eac7a5"/><stop offset="0.87" stop-color="#f5e6d7"/><stop offset="1" stop-color="#fff"/></linearGradient></defs><g class="cls-1"><g id="Layer_1" data-name="Layer 1"><ellipse class="cls-2" cx="259.57" cy="595.99" rx="128.27" ry="24.23"/><path class="cls-3" d="M185.34,267.2H163.56a6.92,6.92,0,0,0-4.88,2c-3.84,3.83-12.51,12.05-18.82,15a1.32,1.32,0,0,0-.67,1.76c.62,1.3,2.23,2.83,6.4,1,6.4-2.75,12.33-7.48,16.9-7.48s14,0,14,2-9.59,6.3-12.33,11a14.42,14.42,0,0,0-1.87,7,1.36,1.36,0,0,0,2.21,1.09c3.46-2.79,10.8-8.06,16.88-8.06,8.29,0,22.61-9.84,25.25-11.41s-1-20.93-20.85-14A1.32,1.32,0,0,1,185.34,267.2Z"/><path class="cls-3" d="M115.17,42.33s-9.48,23.18-3.54,55.84c0,0-15.77,6.46-1.94,19,0,0,7.63,31.75,28.9,34,1.39.14,12.74-1.74,16.1-6.94,0,0,5.54,7.74,5.77,15.05s41.31-3.86,34.54-14.5c-1.6-2.51-7.31-15.53-6.63-31.29S136.52,36.28,115.17,42.33Z"/><path class="cls-3" d="M118.71,197.07c-1.25-.6-26.95,14.85-29.92,14.39-6-12.73-24.56-22.52-37-45.45-1.57.81,4.32-21-2.81-27-3.4-2.86-11.58-1.93-14.77-13.35-.43-1.51-11-1.39-10.51,6.74l.46,5.08c-2.12-3.58-11.62-6-7.77,6.17-3-3.08-9.26.67-2.74,10.73,0,0-11.36.09,5,12.11,8.28,6.08,13.41,9.13,13.41,9.13s26.67,66.93,48.14,68.53,52-16.45,52-16.45S140.41,207.58,118.71,197.07Z"/><path class="cls-3" d="M275.5,167.38C296.31,182.85,315.4,196.25,324,205c0,0,6,5.51-8.36,25s-48.65,42.83-48.65,42.83l-7.62-25.52a5.44,5.44,0,0,0,6.6-3.16c2.22-4.63,15.41-29.74,21.24-28.88,0,0-18.65-11.48-23.27-13S252.71,183,275.5,167.38Z"/><path class="cls-4" d="M194.57,318.82l-9.76,24.88a6.79,6.79,0,0,0-.15,4.86c.29.77.22,2.05-1,4.17-2.69,4.8-5.3,7.2-2.23,13.37S170,440.44,170,440.44l46.86,13s5.76-1.37,1.92-5.48,3.07-3.77,3.07-3.77,2.69-.34,1.92-4.11,20.79-36.25,20.79-36.25l13-30.83s24.68-18.23,25.83-34.68-4.91-31.52-4.91-31.52Z"/><path class="cls-4" d="M228.94,334.7l5.11,19.4s3.51,5.7,2.74,10.63-8.17,5.47-3.76,9.93,1,82.57,1,82.57l45.06-2.76s4.34-2.84-.07-5.3,1.39-4.15,1.39-4.15,2.11-1.07.34-4.11,5.36-39.53,5.36-39.53l10.74-28.89s15.59-18,10.27-48.88C304.76,309.76,296,297.5,296,297.5Z"/><path class="cls-5" d="M106.52,200.36s.66,22.24,19.27,35.87a2.15,2.15,0,0,0,2.61-.06l25.34-13.48s-1,5.79,10.42,23c10.62,15.94,13.57,29.15,16.45,38.21,0,0,4.56,35.86,5.48,58.24,0,0,68.94,28.9,122.16-20.21,0,0-22-74.8-33.2-96.73,0,0-3.18-11.43-8.66-17.09l11.17,9s32.91-27.49,7.13-44.61a33.3,33.3,0,0,0-3.13-1.79C272.73,166,246.4,146.07,245,145.8c-11.05-2.21-50.43-6.31-103.33,21.91a39.63,39.63,0,0,0-11.3,10C124,186.67,112.58,197.1,106.52,200.36Z"/><path class="cls-6" d="M245.36,150.25a16.63,16.63,0,0,1,3,2.51c.94.93,1.77,2,2.62,3a49.64,49.64,0,0,1,4.27,6.67,78,78,0,0,1,6,14.64c.41,1.26.74,2.53,1.06,3.81l1,3.82c.51,2.59,1.08,5.15,1.49,7.75s.75,5.2,1,7.81.42,5.23.54,7.84c-.56-2.56-1-5.13-1.51-7.7l-1.58-7.66-1.8-7.59-1-3.76c-.33-1.25-.67-2.51-1.09-3.73l-1.15-3.72-1.33-3.65c-.4-1.23-.94-2.4-1.42-3.61s-1-2.37-1.57-3.54C251.68,158.49,249.18,153.85,245.36,150.25Z"/><path class="cls-6" d="M140.52,171.49a8.15,8.15,0,0,1,3.2,1.17,15.88,15.88,0,0,1,2.77,2.05l.65.58.58.64c.38.44.77.86,1.15,1.31l1,1.41a11.64,11.64,0,0,1,.93,1.46A39.3,39.3,0,0,1,155.42,193c.11.56.25,1.12.32,1.69l.21,1.7.4,3.4.13,3.41c0,1.13.13,2.27.05,3.4-.09,2.27-.15,4.54-.37,6.79s-.55,4.5-.91,6.72c-.08-2.26-.07-4.51-.07-6.76,0-1.12-.07-2.24-.1-3.36l-.11-3.36c-.12-2.23-.34-4.45-.5-6.67l-.46-3.3-.22-1.65c-.08-.55-.22-1.09-.33-1.63l-.66-3.25-.91-3.18a42,42,0,0,0-2.45-6.12c-.44-1-1.1-1.89-1.63-2.86l-1-1.33-.49-.66-.55-.61a16.12,16.12,0,0,0-2.39-2.28,9.78,9.78,0,0,0-1.37-.94,4,4,0,0,0-.73-.4A3.55,3.55,0,0,0,140.52,171.49Z"/><path class="cls-7" d="M242.12,579.9a4.28,4.28,0,0,0,2.46,3.32c2.17.87,9.52,2.91,23.28,2.4s26.3,0,26.3,0,20.7,2,26.53-1.84c0,0,.91-.34.8-2s-.6-2-.07-3.14-.67-.58-.67-.58-51.05-.17-51.57-.14Z"/><path class="cls-8" d="M242.29,580.25S231,569.68,247.78,561a32,32,0,0,1,20.08,0l23.33-11.93s9.53-5.55,3.56,6.17c0,0-.12,9.68,23.73,1.33,0,0,4.8,8.86,2.4,21.3C316.42,584.17,249.5,584.85,242.29,580.25Z"/><path class="cls-9" d="M274.32,569.62a16.36,16.36,0,0,0-2.34-5,10.45,10.45,0,0,0-1.83-2,18.76,18.76,0,0,0-2.29-1.63,6.92,6.92,0,0,1,2.75,1,9.39,9.39,0,0,1,1.2.9,11.78,11.78,0,0,1,1,1.14,8.51,8.51,0,0,1,1.29,2.68A7.17,7.17,0,0,1,274.32,569.62Z"/><path class="cls-9" d="M277.06,568.19a16,16,0,0,0-2.34-5,10.16,10.16,0,0,0-1.83-2,20,20,0,0,0-2.29-1.64,6.94,6.94,0,0,1,2.75,1,7.37,7.37,0,0,1,1.2.9,9.57,9.57,0,0,1,1,1.13,8.62,8.62,0,0,1,1.29,2.68A7.17,7.17,0,0,1,277.06,568.19Z"/><path class="cls-9" d="M280.29,566.48a16.13,16.13,0,0,0-2.34-5,10.14,10.14,0,0,0-1.83-2,18,18,0,0,0-2.29-1.63,6.92,6.92,0,0,1,2.75,1,8.74,8.74,0,0,1,1.2.9,10.54,10.54,0,0,1,1,1.14,8.41,8.41,0,0,1,1.29,2.68A7.17,7.17,0,0,1,280.29,566.48Z"/><path class="cls-4" d="M278.34,452S314,518.46,321.55,556.07c-2,4.81-27.46,12.61-35.25-2.57,0,0,.49-4.79-1.71-6.08-4.1-2.41-.66-4.1-2.52-6.09s-2.63-1.45-5.43-4.81S237.08,473.57,233.89,460,262.13,429.09,278.34,452Z"/><path class="cls-7" d="M166.39,601.64c0,.09.43,3,2.6,3.85s10.58,2.49,23.14,2.41c13.77-.09,28.5-.54,28.5-.54s18.51,2,24.33-1.84c0,0,.92-.34.8-2s-.6-2-.07-3.14-.67-.57-.67-.57-51.05-.18-51.57-.15Z"/><path class="cls-8" d="M166.56,602s-11.32-10.57,5.5-19.26a31.94,31.94,0,0,1,20.07,0l23.34-11.93S225,565.25,219,577c0,0-.13,9.68,23.72,1.33,0,0,4.8,8.86,2.4,21.3C240.69,605.91,173.77,606.59,166.56,602Z"/><path class="cls-9" d="M198.59,591.36a16,16,0,0,0-2.34-5,10.19,10.19,0,0,0-1.83-2,18.76,18.76,0,0,0-2.29-1.63,6.92,6.92,0,0,1,2.75,1,8.06,8.06,0,0,1,1.2.91,9.57,9.57,0,0,1,1,1.13,8.51,8.51,0,0,1,1.29,2.68A7.17,7.17,0,0,1,198.59,591.36Z"/><path class="cls-9" d="M201.33,589.93a16.19,16.19,0,0,0-2.34-5,10.14,10.14,0,0,0-1.83-2,19.12,19.12,0,0,0-2.29-1.64,6.94,6.94,0,0,1,2.75,1,7.37,7.37,0,0,1,1.2.9,9.57,9.57,0,0,1,1,1.13,8.62,8.62,0,0,1,1.29,2.68A7.19,7.19,0,0,1,201.33,589.93Z"/><path class="cls-9" d="M204.57,588.22a16.22,16.22,0,0,0-2.35-5,10.19,10.19,0,0,0-1.83-2,18,18,0,0,0-2.29-1.63,6.87,6.87,0,0,1,2.75,1,8.17,8.17,0,0,1,1.2.9,10.54,10.54,0,0,1,1,1.14,8.51,8.51,0,0,1,1.29,2.68A7.36,7.36,0,0,1,204.57,588.22Z"/><path class="cls-10" d="M91.57,57.31c-.91.66,1.08-39.76,50.81-47.15,0,0,12.17-7,31.13,1.76,0,0,20.75-4.07,26.48,20.49,0,0,24,.27,23.26,26.66,0,0,10.76,11.26,0,34.84,0,0-2.32,13.37-17.9,27.09,0,0-14.93,10.83-14.26,17.73,0,0-31.19-8.93-21.52-42,0,0,4-22.87-16.61-15.48,0,0,2.92,15.87-5.09,18.67,0,0,3.65-11.63-2.89-16.91s-15-6.33-15.07-16.89-17.59,7-17.59,7-3.94-8.06,10-16.16a30.91,30.91,0,0,0-24,18.3S96.23,54.5,114.12,48.87C114.12,48.87,103.74,48.52,91.57,57.31Z"/><path class="cls-11" d="M156.87,91.66S150,83,158.3,79.51s19.89.85,16.12,17.75S155.77,112.45,155,109.37"/><path class="cls-12" d="M156.87,91.66a13.61,13.61,0,0,1-2.42-3.92A7.37,7.37,0,0,1,154,83a6.35,6.35,0,0,1,3.19-3.68,13.87,13.87,0,0,1,4.53-1.57,14.3,14.3,0,0,1,4.84,0c.4.08.8.21,1.19.32l.6.16.57.25c.37.17.76.33,1.13.52l1,.68a4.93,4.93,0,0,1,1,.79,12.34,12.34,0,0,1,.89.88,11.34,11.34,0,0,1,1.4,2.06l.57,1.1.4,1.17a12.19,12.19,0,0,1,.56,2.37,26.19,26.19,0,0,1-.57,9.44,22,22,0,0,1-3.94,8.59,14.37,14.37,0,0,1-7.83,5.19,12.53,12.53,0,0,1-4.68.25,8.42,8.42,0,0,1-2.26-.62,2.75,2.75,0,0,1-1.62-1.58,2.61,2.61,0,0,0,1.73,1.3,8.18,8.18,0,0,0,2.2.37,11.7,11.7,0,0,0,4.36-.66,13.76,13.76,0,0,0,6.86-5.19,21.89,21.89,0,0,0,3.34-8.06,25.47,25.47,0,0,0,.44-8.72A10.56,10.56,0,0,0,170,81.26l-.85-.6c-.31-.17-.63-.3-.94-.46l-.47-.23-.5-.15c-.34-.1-.67-.23-1-.31a13.79,13.79,0,0,0-2.12-.26,11.92,11.92,0,0,0-2.15.06,13.39,13.39,0,0,0-4.14,1.18,5.31,5.31,0,0,0-2.88,2.84,6.62,6.62,0,0,0,0,4.24,12.47,12.47,0,0,0,.81,2.1A14.87,14.87,0,0,0,156.87,91.66Z"/><g class="cls-13"><path class="cls-14" d="M158.63,90.33s9.51-6.45,10.18,6.25c.11,2.06-3.4,7.07-6.41,8.83a7.93,7.93,0,0,1-6.71.73s5.2-.67,6.91-15.5Z"/></g><path class="cls-15" d="M168.8,94.25a13.91,13.91,0,0,1,0,2.33,6.51,6.51,0,0,0-.46-1.57,10.35,10.35,0,0,0-1.75-2.78c-1.41-1.61-3.39-1.85-5.45-1.39a11.56,11.56,0,0,1-2.64.36l-.94,0,1.06-.89a7.25,7.25,0,0,1,2.83-1.58c2.22-.48,4.42-.29,6,1.62A6.79,6.79,0,0,1,168.8,94.25Z"/><path class="cls-15" d="M155.69,106.14c1.71-.35,3.79-2.78,5.22-6.16a45.7,45.7,0,0,0,2.86-10.72l-1.6.62a39.77,39.77,0,0,1-1.84,9.56C159.28,102.52,157.48,105.25,155.69,106.14Z"/><path class="cls-10" d="M132.07,86.36s-7.51-12.48-15.14-9.83c-.6.21-.24,3-.87,3.36-.44.22-1.77-2.12-1.77-2.12a12.8,12.8,0,0,0,.16,3.18,1.61,1.61,0,0,0,2,1.06c5.5-1,13.36,4,13.36,4C132.47,87.52,133.34,88.28,132.07,86.36Z"/><path class="cls-16" d="M122.58,129.85a8.91,8.91,0,0,1,5.62,5.74,1.27,1.27,0,0,1-1.69,1.54,7.81,7.81,0,0,1-3.06-1.95c-1.36-1.61-3.18-3.14-2.42-4.75A1.23,1.23,0,0,1,122.58,129.85Z"/><path class="cls-17" d="M118.07,99.76c2.48,3.11,6.61,2.91,9.24-.44s2.75-8.59.28-11.7-6.61-2.91-9.24.44-2.75,8.59-.28,11.7"/><path class="cls-18" d="M117.18,96.14c0,2.94,1.8,5.33,4,5.35s4.09-2.35,4.1-5.28-1.8-5.33-4-5.35-4.08,2.35-4.1,5.28"/><path class="cls-19" d="M122.18,94.3a1.93,1.93,0,1,0,1.93-1.75,1.85,1.85,0,0,0-1.93,1.75"/><path class="cls-12" d="M24.35,138a52.35,52.35,0,0,0,3,5,21.27,21.27,0,0,0,1.81,2.21,17.19,17.19,0,0,0,2.25,1.85,6.75,6.75,0,0,1-2.76-1.27,10.83,10.83,0,0,1-2.12-2.21,13.8,13.8,0,0,1-1.43-2.68A10.45,10.45,0,0,1,24.35,138Z"/><path class="cls-12" d="M16.85,143.31a8.88,8.88,0,0,0,1,2.25q.64,1,1.35,2.07A47.67,47.67,0,0,1,22,151.88a15.21,15.21,0,0,1-3.57-3.68,11.28,11.28,0,0,1-1.23-2.3A4.61,4.61,0,0,1,16.85,143.31Z"/><path class="cls-12" d="M13.64,154.36a1.57,1.57,0,0,1,.86.35,8,8,0,0,1,.71.56c.44.38.84.78,1.26,1.17l1.21,1.18c.41.38.83.76,1.27,1.2a5.59,5.59,0,0,1-3.18-1.66,9.21,9.21,0,0,1-1.14-1.37A11.32,11.32,0,0,0,13.64,154.36Z"/><path class="cls-20" d="M36.44,113.09C34.21,114.57,32.33,142,32.33,142s7.38,5.82,9.59,2.29c1.14-1.83,3-28.32,3-28.32S44.2,107.93,36.44,113.09Z"/><path class="cls-11" d="M43.45,145.43c-.07-2.07,0-5.72,0-7.77a5.81,5.81,0,0,0-.63-2.75c-3.59-7.21,1.73-9.21,1.73-9.21s1.82,3.86,3.53,4.89,7.1,14.91,3.5,23.77"/><path class="cls-12" d="M43.45,145.43c-.25-1.77-.36-3.55-.46-5.32-.06-.88-.07-1.79-.11-2.64a5.59,5.59,0,0,0-.69-2.23,10,10,0,0,1-1.45-5.52,5.78,5.78,0,0,1,1-2.94,5.9,5.9,0,0,1,2.47-2l.81-.36.43.86a23.55,23.55,0,0,0,1.87,3.15,6,6,0,0,0,1.11,1.21l.13.1.14.1.19.15a3.22,3.22,0,0,1,.44.5,8.12,8.12,0,0,1,.58.92,31,31,0,0,1,2.6,7.53,33.71,33.71,0,0,1,.79,7.82,18.12,18.12,0,0,1-1.71,7.6,20.71,20.71,0,0,0,.7-7.58A37.9,37.9,0,0,0,51,139.32a33.1,33.1,0,0,0-2.72-7,6.51,6.51,0,0,0-.45-.7l-.19-.22h0s0,0,0-.05l-.27-.18a7.59,7.59,0,0,1-1.53-1.59,19.64,19.64,0,0,1-2.07-3.5l1.24.51a3.92,3.92,0,0,0-1.61,1.29,4.05,4.05,0,0,0-.78,2,9.3,9.3,0,0,0,1,4.68,6.36,6.36,0,0,1,.58,2.88l-.2,2.66Z"/><path class="cls-4" d="M214.6,443.12S242.42,528,245.76,574c0,0-13.3,8-27.08,5.6,0,0,1.72-4.64-2.91-5.76s-1.56-5.23-3.17-7.89-1-2.43-3.39-6.88-37.5-96.73-39.16-113.36S201.16,413.29,214.6,443.12Z"/><polyline class="cls-21" points="207.87 350.56 188.37 447.41 228.94 577.87"/><polyline class="cls-21" points="259.32 394.42 253.24 456.09 308.25 560.99"/><path class="cls-22" d="M283.53,356.5s-6.42,22.27-37.77,44.48l-10.58,17.47-.74,28.5,18.8-30.83S291.79,398.64,283.53,356.5Z"/></g></g></svg>