<svg xmlns="http://www.w3.org/2000/svg" xmlns:xlink="http://www.w3.org/1999/xlink" viewBox="0 0 779.53 188.68"><defs><style>.cls-1{mask:url(#mask);filter:url(#luminosity-noclip-2);}.cls-11,.cls-13,.cls-14,.cls-16,.cls-2,.cls-4,.cls-47,.cls-49,.cls-5,.cls-50,.cls-52,.cls-54,.cls-55,.cls-56,.cls-57,.cls-58,.cls-59,.cls-60,.cls-63,.cls-64,.cls-65,.cls-66,.cls-67,.cls-68,.cls-69,.cls-7,.cls-70,.cls-71,.cls-72,.cls-9{fill-rule:evenodd;}.Graphic-Style-4,.cls-11,.cls-2,.cls-42,.cls-62,.cls-7{mix-blend-mode:multiply;}.cls-2{fill:url(#New_Gradient_Swatch_2);}.cls-3{mask:url(#mask-2);}.cls-4{fill:url(#New_Gradient_Swatch_3);}.cls-5,.cls-52{fill:#c29233;}.cls-6{mask:url(#mask-3);filter:url(#luminosity-noclip-4);}.cls-7{fill:url(#New_Gradient_Swatch_2-2);}.cls-8{mask:url(#mask-4);}.cls-9{fill:url(#New_Gradient_Swatch_3-2);}.cls-10{mask:url(#mask-5);filter:url(#luminosity-noclip-6);}.cls-11{fill:url(#New_Gradient_Swatch_2-3);}.cls-12{mask:url(#mask-6);}.cls-13{fill:url(#New_Gradient_Swatch_3-3);}.cls-14,.cls-93{fill:#fff;}.cls-15{isolation:isolate;}.cls-16,.cls-17{opacity:0.2;}.cls-18{fill:#b3b3b3;}.cls-19{fill:#e6e6e6;}.cls-20{fill:#0072bf;}.cls-21{fill:#0083db;}.cls-22{fill:#000054;}.cls-23{fill:#000078;}.cls-24{fill:#2e3192;}.cls-25{fill:#fbc673;}.cls-26{fill:#ccc;}.cls-27{fill:#f2f2f2;}.cls-28{fill:#e69e4b;}.cls-29{fill:#fbe4bf;}.cls-30{fill:#6ea4fb;}.cls-31{fill:url(#linear-gradient);}.cls-32{fill:#5c3f00;}.cls-33{fill:#cc6300;}.cls-34{fill:#f90;}.cls-35{fill:#f77c00;}.cls-36{fill:#ffc163;}.cls-37{fill:#ffae00;}.cls-38{fill:#ffd77a;}.cls-39{fill:#e39900;}.cls-40{fill:url(#linear-gradient-2);}.cls-41{fill:url(#linear-gradient-3);}.Graphic-Style-4{fill:url(#radial-gradient);}.cls-42{fill:url(#radial-gradient-2);}.cls-43{fill:url(#linear-gradient-4);}.cls-44{fill:url(#linear-gradient-5);}.cls-45{fill:url(#linear-gradient-6);}.cls-46{fill:url(#linear-gradient-7);}.cls-47{fill:#d18d2e;}.cls-48{mask:url(#mask-7);}.cls-49{fill:#8e5109;opacity:0.55;}.cls-50{fill:url(#linear-gradient-8);}.cls-51{mask:url(#mask-8);}.cls-52{opacity:0.53;}.cls-53{mask:url(#mask-9);}.cls-54{fill:#eb0600;}.cls-55{fill:#ff6f00;}.cls-56{fill:#ffed00;}.cls-57{fill:#9ac200;}.cls-58{fill:#1db6ff;}.cls-59{fill:#1d71b8;}.cls-60{fill:#662483;}.cls-61{mask:url(#mask-10);}.cls-63{fill:#c90600;}.cls-64,.cls-92{fill:#e66f00;}.cls-65{fill:#eda800;}.cls-66{fill:#1d8cff;}.cls-67{fill:#baf500;}.cls-68{fill:#36e3ff;}.cls-69{fill:#ffff5e;}.cls-70{fill:#33b5ff;}.cls-71{fill:#9162a6;}.cls-72{fill:#ff626b;}.cls-73{fill:#2980b9;}.cls-74{fill:#ecf0f1;}.cls-75{fill:#231f20;opacity:0.05;}.cls-76{fill:#34495e;}.cls-77{fill:#16a085;}.cls-78{fill:#1abc9c;}.cls-79{fill:#d35400;}.cls-80{fill:#e67e22;}.cls-81{fill:#ffcf9c;}.cls-82{fill:#ecba84;}.cls-83{fill:#c6794d;}.cls-84{fill:#83b520;}.cls-85{fill:#bbdf67;}.cls-86{fill:#43771e;}.cls-87{fill:#a44aa0;}.cls-88{fill:#530254;}.cls-89{fill:#c499c8;}.cls-90{fill:#913916;}.cls-91{fill:#b0abba;}.cls-93{opacity:0.7;}.cls-94{opacity:0.4;}.cls-95{fill:#c9bed1;}.cls-96{filter:url(#luminosity-noclip-5);}.cls-97{filter:url(#luminosity-noclip-3);}.cls-98{filter:url(#luminosity-noclip);}</style><filter id="luminosity-noclip" x="337.99" y="-8057.28" width="20.95" height="32766" filterUnits="userSpaceOnUse" color-interpolation-filters="sRGB"><feFlood flood-color="#fff" result="bg"/><feBlend in="SourceGraphic" in2="bg"/></filter><mask id="mask" x="337.99" y="-8057.28" width="20.95" height="32766" maskUnits="userSpaceOnUse"><g class="cls-98"/></mask><linearGradient id="New_Gradient_Swatch_2" x1="224.99" y1="301.48" x2="210.19" y2="302.42" gradientTransform="translate(252.92 -242.34) rotate(21.88)" gradientUnits="userSpaceOnUse"><stop offset="0" stop-color="#fff"/><stop offset="1"/></linearGradient><filter id="luminosity-noclip-2" x="337.99" y="111.92" width="20.95" height="16.88" filterUnits="userSpaceOnUse" color-interpolation-filters="sRGB"><feFlood flood-color="#fff" result="bg"/><feBlend in="SourceGraphic" in2="bg"/></filter><mask id="mask-2" x="337.99" y="111.92" width="20.95" height="16.88" maskUnits="userSpaceOnUse"><g class="cls-1"><path class="cls-2" d="M342.67,122.2s8,9.79,12.46,5.52,5.82-7.54-.55-10.6-14.65-6.39-16.31-4.78S342.67,122.2,342.67,122.2Z"/></g></mask><linearGradient id="New_Gradient_Swatch_3" x1="224.99" y1="301.48" x2="210.19" y2="302.42" gradientTransform="translate(252.92 -242.34) rotate(21.88)" gradientUnits="userSpaceOnUse"><stop offset="0" stop-color="#fff"/><stop offset="1" stop-color="#fff"/></linearGradient><filter id="luminosity-noclip-3" x="225.77" y="-8057.28" width="52.67" height="32766" filterUnits="userSpaceOnUse" color-interpolation-filters="sRGB"><feFlood flood-color="#fff" result="bg"/><feBlend in="SourceGraphic" in2="bg"/></filter><mask id="mask-3" x="225.77" y="-8057.28" width="52.67" height="32766" maskUnits="userSpaceOnUse"><g class="cls-97"/></mask><linearGradient id="New_Gradient_Swatch_2-2" x1="143.54" y1="361.49" x2="165.04" y2="358.32" xlink:href="#New_Gradient_Swatch_2"/><filter id="luminosity-noclip-4" x="225.77" y="128.45" width="52.67" height="35.03" filterUnits="userSpaceOnUse" color-interpolation-filters="sRGB"><feFlood flood-color="#fff" result="bg"/><feBlend in="SourceGraphic" in2="bg"/></filter><mask id="mask-4" x="225.77" y="128.45" width="52.67" height="35.03" maskUnits="userSpaceOnUse"><g class="cls-6"><path class="cls-7" d="M225.86,128.45s5.08,17.61,36.21,27.07,11.44,10.29-6.35,3.53S224.54,137.41,225.86,128.45Z"/></g></mask><linearGradient id="New_Gradient_Swatch_3-2" x1="143.54" y1="361.49" x2="165.04" y2="358.32" xlink:href="#New_Gradient_Swatch_3"/><filter id="luminosity-noclip-5" x="360.52" y="-8057.28" width="19.76" height="32766" filterUnits="userSpaceOnUse" color-interpolation-filters="sRGB"><feFlood flood-color="#fff" result="bg"/><feBlend in="SourceGraphic" in2="bg"/></filter><mask id="mask-5" x="360.52" y="-8057.28" width="19.76" height="32766" maskUnits="userSpaceOnUse"><g class="cls-96"/></mask><linearGradient id="New_Gradient_Swatch_2-3" x1="247.3" y1="303.85" x2="253.8" y2="302.89" xlink:href="#New_Gradient_Swatch_2"/><filter id="luminosity-noclip-6" x="360.52" y="121.26" width="19.76" height="21.79" filterUnits="userSpaceOnUse" color-interpolation-filters="sRGB"><feFlood flood-color="#fff" result="bg"/><feBlend in="SourceGraphic" in2="bg"/></filter><mask id="mask-6" x="360.52" y="121.26" width="19.76" height="21.79" maskUnits="userSpaceOnUse"><g class="cls-10"><path class="cls-11" d="M366.19,143.05s-10.39-11-3.05-17.94,19.83-3,16.62.22S366.19,143.05,366.19,143.05Z"/></g></mask><linearGradient id="New_Gradient_Swatch_3-3" x1="247.3" y1="303.85" x2="253.8" y2="302.89" xlink:href="#New_Gradient_Swatch_3"/><linearGradient id="linear-gradient" x1="478.71" y1="71.61" x2="483.86" y2="80.52" gradientUnits="userSpaceOnUse"><stop offset="0" stop-color="#ff99c7"/><stop offset="0.51" stop-color="#ff54a0"/><stop offset="0.62" stop-color="#f14f97"/><stop offset="0.85" stop-color="#cd407e"/><stop offset="0.92" stop-color="#bf3b75"/><stop offset="0.94" stop-color="#ba3972"/><stop offset="0.96" stop-color="#aa3468"/><stop offset="0.99" stop-color="#902c59"/><stop offset="1" stop-color="#822850"/></linearGradient><linearGradient id="linear-gradient-2" x1="423.19" y1="104.05" x2="428.24" y2="112.8" gradientUnits="userSpaceOnUse"><stop offset="0" stop-color="#fff5d6"/><stop offset="0.51" stop-color="#fad4a0"/><stop offset="0.59" stop-color="#f6cd99"/><stop offset="0.72" stop-color="#eab887"/><stop offset="0.88" stop-color="#d69769"/><stop offset="1" stop-color="#c4794e"/></linearGradient><linearGradient id="linear-gradient-3" x1="418.14" y1="109.57" x2="420.63" y2="113.87" gradientUnits="userSpaceOnUse"><stop offset="0" stop-color="#514d73"/><stop offset="0.51" stop-color="#2e2c42"/><stop offset="0.68" stop-color="#29273b"/><stop offset="0.94" stop-color="#1b1a26"/><stop offset="1" stop-color="#171621"/></linearGradient><radialGradient id="radial-gradient" cx="468.18" cy="84.04" r="8.05" gradientUnits="userSpaceOnUse"><stop offset="0.92" stop-color="#fff"/><stop offset="0.94" stop-color="#fdfdfd"/><stop offset="0.95" stop-color="#f8f6f5"/><stop offset="0.96" stop-color="#eeebe8"/><stop offset="0.97" stop-color="#e0dbd5"/><stop offset="0.97" stop-color="#cfc6bd"/><stop offset="0.98" stop-color="#b9ac9e"/><stop offset="0.99" stop-color="#9e8d7b"/><stop offset="0.99" stop-color="#806951"/><stop offset="1" stop-color="#5f4223"/><stop offset="1" stop-color="#452300"/></radialGradient><radialGradient id="radial-gradient-2" cx="475.08" cy="80.34" r="7.78" gradientUnits="userSpaceOnUse"><stop offset="0.92" stop-color="#45003b"/><stop offset="0.92" stop-color="#612759"/><stop offset="0.93" stop-color="#8b5f84"/><stop offset="0.95" stop-color="#ae90aa"/><stop offset="0.96" stop-color="#cbb8c9"/><stop offset="0.97" stop-color="#e2d7e0"/><stop offset="0.98" stop-color="#f2edf1"/><stop offset="0.99" stop-color="#fcfafc"/><stop offset="1" stop-color="#fff"/></radialGradient><linearGradient id="linear-gradient-4" x1="473.58" y1="74.01" x2="479.01" y2="83.41" gradientUnits="userSpaceOnUse"><stop offset="0" stop-color="#fffae3"/><stop offset="0.04" stop-color="#fffae1"/><stop offset="0.06" stop-color="#fff8da"/><stop offset="0.07" stop-color="#fff6ce"/><stop offset="0.08" stop-color="#fff2be"/><stop offset="0.08" stop-color="#ffeea8"/><stop offset="0.09" stop-color="#ffe88c"/><stop offset="0.1" stop-color="#ffe26c"/><stop offset="0.1" stop-color="#ffda46"/><stop offset="0.11" stop-color="#ffd21d"/><stop offset="0.11" stop-color="#fc0"/><stop offset="0.12" stop-color="#fac700"/><stop offset="0.13" stop-color="#ecba00"/><stop offset="0.15" stop-color="#d4a400"/><stop offset="0.16" stop-color="#b48500"/><stop offset="0.18" stop-color="#8a5e00"/><stop offset="0.18" stop-color="#835700"/><stop offset="0.19" stop-color="#976900"/><stop offset="0.22" stop-color="#c39400"/><stop offset="0.25" stop-color="#e4b200"/><stop offset="0.27" stop-color="#f8c500"/><stop offset="0.28" stop-color="#fc0"/><stop offset="0.29" stop-color="#ffcd05"/><stop offset="0.31" stop-color="#ffd013"/><stop offset="0.32" stop-color="#ffd52b"/><stop offset="0.34" stop-color="#ffdb4b"/><stop offset="0.35" stop-color="#ffe476"/><stop offset="0.37" stop-color="#fea"/><stop offset="0.39" stop-color="#fffae6"/><stop offset="0.39" stop-color="#fff"/><stop offset="0.4" stop-color="#fffdf4"/><stop offset="0.42" stop-color="#fff7d7"/><stop offset="0.44" stop-color="#ffeea8"/><stop offset="0.47" stop-color="#ffe066"/><stop offset="0.5" stop-color="#ffd014"/><stop offset="0.51" stop-color="#fc0"/><stop offset="0.56" stop-color="#fdca00"/><stop offset="0.58" stop-color="#f6c400"/><stop offset="0.6" stop-color="#ebb900"/><stop offset="0.61" stop-color="#daaa00"/><stop offset="0.62" stop-color="#c49500"/><stop offset="0.63" stop-color="#a87c00"/><stop offset="0.63" stop-color="#895f00"/><stop offset="0.64" stop-color="#825900"/><stop offset="0.68" stop-color="#b58600"/><stop offset="0.74" stop-color="#ffc800"/><stop offset="0.8" stop-color="#fdc600"/><stop offset="0.82" stop-color="#f6c000"/><stop offset="0.84" stop-color="#ebb600"/><stop offset="0.85" stop-color="#daa700"/><stop offset="0.86" stop-color="#c49300"/><stop offset="0.87" stop-color="#bf8f00"/><stop offset="1" stop-color="#a67a00"/></linearGradient><linearGradient id="linear-gradient-5" x1="474" y1="73.77" x2="479.43" y2="83.17" gradientUnits="userSpaceOnUse"><stop offset="0" stop-color="#835700"/><stop offset="0.01" stop-color="#976900"/><stop offset="0.03" stop-color="#c39400"/><stop offset="0.05" stop-color="#e4b200"/><stop offset="0.07" stop-color="#f8c500"/><stop offset="0.08" stop-color="#fc0"/><stop offset="0.09" stop-color="#ffcd05"/><stop offset="0.1" stop-color="#ffd013"/><stop offset="0.11" stop-color="#ffd52b"/><stop offset="0.13" stop-color="#ffdb4b"/><stop offset="0.14" stop-color="#ffe476"/><stop offset="0.15" stop-color="#ffeea9"/><stop offset="0.16" stop-color="#fffae3"/><stop offset="0.2" stop-color="#fffae1"/><stop offset="0.21" stop-color="#fff8da"/><stop offset="0.22" stop-color="#fff6ce"/><stop offset="0.23" stop-color="#fff2be"/><stop offset="0.24" stop-color="#ffeea8"/><stop offset="0.24" stop-color="#ffe88c"/><stop offset="0.25" stop-color="#ffe26c"/><stop offset="0.25" stop-color="#ffda46"/><stop offset="0.26" stop-color="#ffd21d"/><stop offset="0.26" stop-color="#fc0"/><stop offset="0.3" stop-color="#fac800"/><stop offset="0.35" stop-color="#ecba00"/><stop offset="0.4" stop-color="#d4a500"/><stop offset="0.45" stop-color="#b48700"/><stop offset="0.5" stop-color="#8a6000"/><stop offset="0.51" stop-color="#825900"/><stop offset="0.6" stop-color="#b58600"/><stop offset="0.72" stop-color="#ffc800"/><stop offset="0.75" stop-color="#eab500"/><stop offset="0.83" stop-color="#bd8e00"/><stop offset="0.9" stop-color="#9d7100"/><stop offset="0.96" stop-color="#895f00"/><stop offset="1" stop-color="#825900"/></linearGradient><linearGradient id="linear-gradient-6" x1="470.67" y1="75.69" x2="476.1" y2="85.09" gradientUnits="userSpaceOnUse"><stop offset="0" stop-color="#fffae3"/><stop offset="0.02" stop-color="#fff3c2"/><stop offset="0.08" stop-color="#ffe270"/><stop offset="0.11" stop-color="#ffd83d"/><stop offset="0.13" stop-color="#ffd942"/><stop offset="0.15" stop-color="#ffdc50"/><stop offset="0.17" stop-color="#ffe168"/><stop offset="0.19" stop-color="#ffe788"/><stop offset="0.22" stop-color="#fff0b3"/><stop offset="0.24" stop-color="#fffae6"/><stop offset="0.25" stop-color="#fff"/><stop offset="0.27" stop-color="#fffdf4"/><stop offset="0.31" stop-color="#fff7d7"/><stop offset="0.36" stop-color="#ffeea8"/><stop offset="0.42" stop-color="#ffe066"/><stop offset="0.49" stop-color="#ffd014"/><stop offset="0.51" stop-color="#fc0"/><stop offset="0.57" stop-color="#e7b600"/><stop offset="0.7" stop-color="#a97c00"/><stop offset="0.7" stop-color="#a67a00"/><stop offset="0.77" stop-color="#f2b600"/><stop offset="0.94" stop-color="#825900"/></linearGradient><linearGradient id="linear-gradient-7" x1="476.72" y1="72.2" x2="482.15" y2="81.6" gradientUnits="userSpaceOnUse"><stop offset="0" stop-color="#f0cc39"/><stop offset="0.04" stop-color="#ebc836"/><stop offset="0.08" stop-color="#ddbb2f"/><stop offset="0.13" stop-color="#c6a522"/><stop offset="0.17" stop-color="#a58711"/><stop offset="0.21" stop-color="#856a00"/><stop offset="0.25" stop-color="#ad8a00"/><stop offset="0.29" stop-color="#d9ae00"/><stop offset="0.32" stop-color="#f5c400"/><stop offset="0.34" stop-color="#fc0"/><stop offset="0.43" stop-color="#e7b600"/><stop offset="0.61" stop-color="#a97d00"/><stop offset="0.63" stop-color="#a17600"/><stop offset="0.79" stop-color="#755100"/><stop offset="0.82" stop-color="#a87a00"/><stop offset="0.87" stop-color="#f2b600"/><stop offset="0.96" stop-color="#664600"/></linearGradient><mask id="mask-7" x="317.61" y="109.31" width="41.33" height="19.48" maskUnits="userSpaceOnUse"><g class="cls-3"><path class="cls-4" d="M342.67,122.2s8,9.79,12.46,5.52,5.82-7.54-.55-10.6-14.65-6.39-16.31-4.78S342.67,122.2,342.67,122.2Z"/></g></mask><linearGradient id="linear-gradient-8" x1="211.27" y1="334.91" x2="163.82" y2="300.62" gradientTransform="translate(252.92 -242.34) rotate(21.88)" gradientUnits="userSpaceOnUse"><stop offset="0" stop-color="#f6d38c"/><stop offset="1" stop-color="#f5c45f"/></linearGradient><mask id="mask-8" x="231.54" y="88.14" width="160.21" height="76.67" maskUnits="userSpaceOnUse"><path class="cls-5" d="M387.35,108s-.48,4.36-23.82,2.58-32.92-4.37-62.68.39l-29.76,4.75s38-7,60-5.54,54.47,3.66,59.06,1.7-1.15,4.1-7.56,4.31S351.88,115,351.88,115s28.39,4.32,33.28,3.49S391.58,110.72,387.35,108Z"/><path class="cls-5" d="M364.33,133.18s-1.92,2.27-23,4.42-52.13,3.11-52.13,3.11L336,140c15.79-.24,27.05-3.06,30-5.41s1.61,1.66,0,2.53-8.95,6.53-25.09,6.37-40.48-.06-54.66,4.37-21.65,8.52-21.65,8.52l13.92,1.29S289.67,147,310,146.28s46.28.11,54.49-2.67,10-6.09,10-6.09Z"/><path class="cls-5" d="M289.31,159.25a61.57,61.57,0,0,1,25-5.64c14.23-.11,21.94,2.74,21.94,2.74l5-1s-11.73-5.47-31.54-2.79S282,161.64,282,161.64Z"/><path class="cls-5" d="M237.51,143.25s18.86-7.86,34.21-10.81l15.36-2.94s-29.05,3-37.78,5.83S233.45,143.9,237.51,143.25Z"/><path class="cls-5" d="M277.71,125.73c12,.35,29.84-3.71,19.85-3.42S268.2,125.46,277.71,125.73Z"/></mask><mask id="mask-9" x="225.77" y="110.21" width="161.3" height="54.6" maskUnits="userSpaceOnUse"><g class="cls-8"><path class="cls-9" d="M225.86,128.45s5.08,17.61,36.21,27.07,11.44,10.29-6.35,3.53S224.54,137.41,225.86,128.45Z"/></g><g class="cls-12"><path class="cls-13" d="M366.19,143.05s-10.39-11-3.05-17.94,19.83-3,16.62.22S366.19,143.05,366.19,143.05Z"/></g></mask><mask id="mask-10" x="234.49" y="93.92" width="143.56" height="72.66" maskUnits="userSpaceOnUse"><path class="cls-14" d="M303.25,139s2.09,6.15,14.91,6.37,10.61-7.51,10.61-7.51a7.9,7.9,0,0,1,2.21,7.72c-1.18,4.84-10.67,8.62-15.51,7.44s-13.28-5.71-14.13-6.43.6-8.12.6-8.12Z"/><path class="cls-14" d="M290.1,140.58s4.31,4.39-8,4.77-18.64-3.7-18.18-5.79-7.58-5.7-7.58-5.7-5.83,4.11-10.74.24-4.1-9.62-2.92-12.56-7.93,5.55-8.2,10,10.38,20.49,18,24.3,32.63,14.24,36,9.54,9.77-12,8.8-18.12-7-8.12-7-8.12Z"/><path class="cls-14" d="M250.1,109.7s1.56,3.67,8.3,3,15-6.13,14.67-8.16.32,9.62.32,9.62-8.52,4.18-12.64,4-12-2.18-15-3.36S250.1,109.7,250.1,109.7Z"/><path class="cls-14" d="M279.1,99s2.94,5,10.46,4.2,14.93-5,14.93-5a9.66,9.66,0,0,1-.14,6c-1.18,2.94,0,10.27-9.24,6.92s-22-6.58-22-6.58Z"/><path class="cls-14" d="M311.62,96.45s3.33,4,13,4.46,12.11-2.73,12.11-2.73l10.86-.57s-1,3.4,7.19,6.68,16,1.86,17.4-1.74,7.59,0,5.36,3.67-9.63,7.91-16.1,8-14.72-2.11-27.48-3.44-24.15.56-25.84-.89S306.72,96.37,311.62,96.45Z"/></mask></defs><g class="cls-15"><g id="Layer_1" data-name="Layer 1"><path class="cls-16" d="M386.73,126.92a2.52,2.52,0,0,0,.21-.25,6.92,6.92,0,0,0,.52-.69.44.44,0,0,0,.08-.11c.18-.27.34-.54.49-.82l.12-.24c.11-.21.2-.42.29-.64a2,2,0,0,0,.1-.26,7.92,7.92,0,0,0,.26-.78l0-.09c.08-.3.15-.61.2-.91l0-.19c0-.25.06-.5.08-.75,0-.07,0-.14,0-.21,0-.3,0-.6,0-.9v0c0-.32,0-.65-.07-1a.28.28,0,0,1,0-.09c0-.29-.09-.58-.15-.86l0-.14a13.88,13.88,0,0,0-5.75-8.39C365.53,97.78,338.65,90.27,295.79,96c-41.87,5.62-66.47,25.16-61.49,44.9l0,0c.12.48.25,1,.41,1.44,6.53,20.21,35.65,28,70.68,28.38S366.42,161,366.94,150a40.17,40.17,0,0,1,.53-5.14q.06-.33.12-.63c.06-.3.13-.58.2-.87s.09-.38.14-.56.18-.6.28-.9c0-.13.08-.28.13-.41.15-.41.32-.81.49-1.19L369,140c.14-.27.27-.53.42-.78s.18-.28.27-.42.28-.43.43-.64l.32-.42c.16-.2.33-.4.5-.59l.35-.39.63-.6.33-.32c.34-.29.69-.57,1.06-.85l.29-.21c.3-.21.61-.43.93-.64l.51-.31c.28-.18.56-.35.86-.52l.58-.33.95-.5.62-.31,1.13-.54.57-.28c.6-.27,1.21-.54,1.86-.81.41-.18.81-.37,1.18-.57l.35-.18.76-.45.33-.21q.43-.29.84-.6l.1-.07c.29-.23.55-.47.81-.71l.23-.24A6.51,6.51,0,0,0,386.73,126.92Zm-57.52,2.45c1.48-.84,4.06-1.64,8.5-2.1,10-1.06,16.81.51,18,3.18C349.48,133.1,333.8,132.91,329.21,129.37Z"/><path class="cls-17" d="M763.34,137.23a3.76,3.76,0,0,0-.83-2.52,2.72,2.72,0,0,0-.24-.24,1.53,1.53,0,0,0-.22-.16l-.06,0a.94.94,0,0,0-.65-.13l-4.21.82c0-.08-.11-.14-.16-.21l-.09-.11-.13-.15a2.67,2.67,0,0,0-1.24-.79,1.36,1.36,0,0,0-.6,0l-45.74,8.75a1.14,1.14,0,0,0-.48.21l-.15,0a1.28,1.28,0,0,0-.39,0l-24.32,4.65a1.25,1.25,0,0,0-.45.18,1.4,1.4,0,0,0-.5,0h0l-2.78.53a100.71,100.71,0,0,0-17.52,5l-6.45,2.5h0a.42.42,0,0,0-.23.28v0l-1.56.25a.73.73,0,0,0-.53.41h0l0,.06,0,.06a.06.06,0,0,1,0,0v.06a.06.06,0,0,0,0,0v.1s0,0,0,.06a0,0,0,0,0,0,0,.7.7,0,0,0,.18.34l.06.06h0a.61.61,0,0,0,.22.13.79.79,0,0,0,.37,0l1.68-.32a.55.55,0,0,0,.39.19.38.38,0,0,0,.34-.3.58.58,0,0,0,0-.14.58.58,0,0,1,0,.14.38.38,0,0,1-.34.3l7.87-.14a100.77,100.77,0,0,0,17.15-1.77l3.27-.62a1.11,1.11,0,0,0,.45-.19,1.41,1.41,0,0,0,.5,0l5.38-1,7.91-1.51,11-2.11a1.26,1.26,0,0,0,.48-.2h0a1.41,1.41,0,0,0,.54,0l12.53-2.4-.47,1.35,34-6.5a1.87,1.87,0,0,0,1.55-1.09l.48-1.38v0a1.29,1.29,0,0,0,0-.65l3.24-.63a.79.79,0,0,0,.54-.4l0,0a1.56,1.56,0,0,0,.11-.26h0A2.06,2.06,0,0,0,763.34,137.23ZM656.68,155.75a.44.44,0,0,1,.08.11A.44.44,0,0,0,656.68,155.75Zm.25.45-.06-.16Zm-.07-.18-.07-.12Zm.08.2a1.58,1.58,0,0,1,.09.42,2,2,0,0,1,0,.25A1.45,1.45,0,0,0,656.94,156.22Zm101.64-15.66-.19.09.19-.09.24-.17h0C758.75,140.45,758.66,140.5,758.58,140.56Zm.36-.29,0,0Zm.2-.25a.91.91,0,0,0,.07-.14A.91.91,0,0,1,759.14,140Zm-.13.17a.64.64,0,0,0,.1-.13A.64.64,0,0,1,759,140.19Z"/><path class="cls-18" d="M761.42,135.61h0a1,1,0,0,1-.12.26l0,0a.81.81,0,0,1-.54.4l-5.22,1a1.31,1.31,0,0,1-1.17-.57l-.22-.29,7.4-1.41A2.06,2.06,0,0,1,761.42,135.61Z"/><path class="cls-19" d="M761.53,135l-7.4,1.41a3.47,3.47,0,0,1-.5-2.8,1,1,0,0,1,.68-.69l5.22-1a.94.94,0,0,1,.65.13l.06,0a1.53,1.53,0,0,1,.22.16,1.75,1.75,0,0,1,.23.24A3.77,3.77,0,0,1,761.53,135Z"/><path class="cls-20" d="M756.3,137.68a1.89,1.89,0,0,1-.63.93,1.16,1.16,0,0,1-.52.23l-45.74,8.76a1.41,1.41,0,0,1-.54,0,2,2,0,0,0,.67-1,4,4,0,0,0,.19-1.31l46.76-8.95a5.1,5.1,0,0,1-.06.8h0a2.86,2.86,0,0,1-.07.28Z"/><path class="cls-21" d="M756.49,136.37l-46.76,8.95-2.84.54a5.81,5.81,0,0,1-.67-4.45,1.81,1.81,0,0,1,.66-1,1.14,1.14,0,0,1,.48-.21l45.74-8.75a1.36,1.36,0,0,1,.6,0,2.67,2.67,0,0,1,1.24.79l.13.15.09.11A6.38,6.38,0,0,1,756.49,136.37Z"/><path class="cls-22" d="M709.54,146.63a2,2,0,0,1-.67,1h0a1.26,1.26,0,0,1-.48.2l-11,2.11-7.91,1.51-5.39,1a1.41,1.41,0,0,1-.5,0l.06,0a2,2,0,0,0,.65-.95,3.92,3.92,0,0,0,.19-1.31l22.43-4.29,2.84-.54A4,4,0,0,1,709.54,146.63Z"/><path class="cls-23" d="M709.73,145.32l-2.84.54-22.43,4.29-2.91.56a5.84,5.84,0,0,1-.68-4.46,1.88,1.88,0,0,1,.7-1,1.25,1.25,0,0,1,.45-.18l24.32-4.65a1.28,1.28,0,0,1,.39,0l.15,0a2.66,2.66,0,0,1,1.43,1A6.28,6.28,0,0,1,709.73,145.32Z"/><path class="cls-24" d="M655.17,154.86a.38.38,0,0,1-.35.3.63.63,0,0,1-.44-.25,1.5,1.5,0,0,1-.31-1.31.46.46,0,0,1,.24-.28c.16-.06.36,0,.55.23A1.49,1.49,0,0,1,655.17,154.86Z"/><path class="cls-20" d="M684.27,151.46a2,2,0,0,1-.65.95l-.06,0a1,1,0,0,1-.44.19l-3.27.62A100.77,100.77,0,0,1,662.7,155l-7.87.14a.38.38,0,0,0,.34-.3,1.32,1.32,0,0,0,.05-.41l13.67-1.64q4.51-.54,9-1.4l3.68-.7,2.91-.56A3.92,3.92,0,0,1,684.27,151.46Z"/><path class="cls-21" d="M684.46,150.15l-2.91.56-3.68.7q-4.47.85-9,1.4l-13.67,1.64a1.67,1.67,0,0,0-.36-.9c-.19-.22-.39-.29-.55-.23l6.46-2.5a100.71,100.71,0,0,1,17.52-5l2.78-.53h0a1.4,1.4,0,0,1,.5,0l.15,0a2.83,2.83,0,0,1,1.32.93A6.33,6.33,0,0,1,684.46,150.15Z"/><path class="cls-25" d="M655.05,154.45l-3,.57a.69.69,0,0,1-.11-.67l0-.07a.72.72,0,0,1,.53-.41l1.93-.31h0a.41.41,0,0,1,.35.18A1.17,1.17,0,0,1,655.05,154.45Z"/><path class="cls-26" d="M756.92,137.92l0,0-.16.14a2.15,2.15,0,0,0-.34-.7c0-.07,0-.15,0-.22h0a5.21,5.21,0,0,0,0-1.67l.26.3h0C757.36,136.59,757.41,137.38,756.92,137.92Z"/><path class="cls-27" d="M757.45,136.69a2.58,2.58,0,0,0-.54-.93l-.56-.66c0,.14,0,.27.07.4l.26.3h0c.68.79.73,1.58.24,2.12l0,0-.16.14a2.45,2.45,0,0,1-1,.4l-29.8,5.7-2-.41c-.68-.14-1.26,0-1.46.37l-.54,1,33.95-6.49a2.68,2.68,0,0,0,.87-.31l.25-.17,0,0,.06-.06.06-.06a1.29,1.29,0,0,0,.23-.36.36.36,0,0,0,0-.09A1.5,1.5,0,0,0,757.45,136.69Z"/><path class="cls-18" d="M757.45,137.58,757,139a1.87,1.87,0,0,1-1.55,1.09l-33.95,6.5.48-1.38,33.95-6.49a3,3,0,0,0,.86-.31l.25-.17A1.45,1.45,0,0,0,757.45,137.58Z"/><path class="cls-28" d="M655,154.68a.28.28,0,0,1-.2.22h0l-2,.39a.78.78,0,0,1-.37,0,.61.61,0,0,1-.22-.13h0a.38.38,0,0,1-.11-.11l3-.57A.53.53,0,0,1,655,154.68Z"/><path class="cls-29" d="M652.93,154.81a.56.56,0,0,1-.71.34l-.05,0h0a.71.71,0,0,1-.22-.79.14.14,0,0,0,0-.06.56.56,0,0,1,1,.53Z"/><path class="cls-30" d="M652.93,154.81a.56.56,0,0,1-.71.34l-.05,0h0a.71.71,0,0,1-.25-.4.69.69,0,0,0,.2.25h0l0,0a.56.56,0,0,0,.71-.34.5.5,0,0,0,0-.27A.56.56,0,0,1,652.93,154.81Z"/><path class="cls-17" d="M487.57,79.47a8.07,8.07,0,0,0-3.9-6.16,3.27,3.27,0,0,0-2.67-.49c-.09,0-.7.35-1.46.75h0l-.29.16-.2.11-.34.18-.46.25-.05,0-.8.43a1.9,1.9,0,0,0-.67.23l-.16.09a2,2,0,0,1,.34-.12,2.74,2.74,0,0,0-.4.15h0l-.12.07-.73.42h0l0,0-.8.46h0l-.37.21h0l-.48.28h0l-.37.21h0l-.48.28h0l-.38.21h0l-.47.28h0l-.37.21h0l-1.18.68h0l-.21.12h0a1.82,1.82,0,0,0-.45.38l-45,26h0l-3.86,5.7-.16.24-3.2,4.71,6-.88h0l.12,0,6.66-1,2.3-1h0L475.59,88h0l.69-.4a1.82,1.82,0,0,0,.41-.15l1.73-1h0l.46-.27h0l.38-.22h0l.47-.27h0l.22-.12.63-.37h0L481,85l.5-.29h0l.25-.14,1-.59.16-.13-.16.13.21-.12a1.87,1.87,0,0,0,.49-.44l1.87-1.16h0c.81-.51,1.52-1,1.6-1A2.33,2.33,0,0,0,487.57,79.47Zm-59.24,23.91-1,.57h0l.95-.55-.94.55Zm48.86-28.55h0Zm5.95,8.85s0-.06.06-.09h0A.7.7,0,0,1,483.14,83.68Z"/><path class="cls-31" d="M482.19,71.41a3.21,3.21,0,0,0-2.67-.48c-.22.08-4.44,2.35-4.58,2.43L481.19,82c.12-.07,4-2.47,4.23-2.64a2.32,2.32,0,0,0,.68-1.81A8.1,8.1,0,0,0,482.19,71.41Z"/><path class="cls-32" d="M476.22,83.49a2.28,2.28,0,0,1-1,2.11,3.15,3.15,0,0,1-3.1-.38,8.47,8.47,0,0,1-4.1-6.47,2.26,2.26,0,0,1,1-2.1,3.12,3.12,0,0,1,3.1.37C474.38,78.33,476.22,81.22,476.22,83.49Z"/><polygon class="cls-33" points="476.84 81.33 476.84 84.57 476.76 84.62 431.41 110.8 431.41 107.56 476.84 81.33"/><polygon class="cls-34" points="474.54 77.7 429.11 103.92 425.86 102.05 471.29 75.83 474.54 77.7"/><polygon class="cls-35" points="476.84 81.33 431.41 107.56 429.11 103.92 474.54 77.7 476.84 81.33"/><polygon class="cls-36" points="423.55 103.02 468.98 76.79 471.28 75.82 425.85 102.05 423.55 103.02"/><polygon class="cls-37" points="429.11 103.92 434.76 100.61 440.43 97.31 451.77 90.73 463.14 84.19 468.83 80.94 474.54 77.7 468.88 81.02 463.21 84.32 451.87 90.89 440.5 97.43 434.81 100.69 429.11 103.92"/><polygon class="cls-38" points="425.86 102.05 431.52 98.74 437.19 95.44 448.54 88.87 459.91 82.33 465.6 79.07 471.29 75.82 465.63 79.13 459.96 82.42 448.61 88.99 437.25 95.53 431.56 98.8 425.86 102.05"/><polygon class="cls-39" points="476.84 81.33 471.18 84.65 465.52 87.95 454.17 94.52 442.8 101.06 437.11 104.32 431.41 107.56 437.06 104.24 442.73 100.94 454.08 94.36 465.44 87.83 471.14 84.57 476.84 81.33"/><path class="cls-40" d="M431.41,107.56v3.25l-2.3,1-6.67,1a1,1,0,0,0,.72-1.07,3.9,3.9,0,0,0-1.88-3c-.67-.39-1.27-.37-1.6,0l3.87-5.7,2.3-1,3.26,1.87Z"/><path class="cls-41" d="M423.16,111.7a1,1,0,0,1-.72,1.07h-.12l-6,.89,3.2-4.72.16-.23c.33-.35.93-.37,1.6,0A3.9,3.9,0,0,1,423.16,111.7Z"/><path class="Graphic-Style-4" d="M476.84,81.33v3.24l-.08.05-2.65,1.53a2.54,2.54,0,0,0,.59-1.78,8.47,8.47,0,0,0-4.1-6.47,3.69,3.69,0,0,0-2.51-.59l.89-.52,2.3-1,3.25,1.88Z"/><path class="cls-42" d="M483.81,77.44v3L481.31,82a3.16,3.16,0,0,0,.24-1.29c0-2.4-1.94-5.48-4.35-6.86a4.7,4.7,0,0,0-1.86-.66l.06,0,.12-.07.07,0,2.48-1.33,3.31,1.91Z"/><path class="cls-43" d="M482.24,80a2.26,2.26,0,0,1-1,2.1l-6,3.48a2.28,2.28,0,0,0,1-2.11c0-2.27-1.84-5.16-4.1-6.47a3.12,3.12,0,0,0-3.1-.37l6-3.48a3.15,3.15,0,0,1,3.1.38A8.47,8.47,0,0,1,482.24,80Z"/><path class="cls-44" d="M481.73,80.41a2.72,2.72,0,0,1-.52,1.73l-.39.22a2.37,2.37,0,0,0,.79-2c0-2.28-1.85-5.2-4.13-6.51a3.38,3.38,0,0,0-2.83-.5l.38-.22a3.88,3.88,0,0,1,2.51.62C479.85,75.13,481.73,78.1,481.73,80.41Zm-5-6.12a3.89,3.89,0,0,0-2.52-.62l-.37.22a3.38,3.38,0,0,1,2.83.5c2.28,1.31,4.13,4.23,4.13,6.51a2.39,2.39,0,0,1-.79,2l.39-.23a2.72,2.72,0,0,0,.52-1.73C480.88,78.59,479,75.62,476.69,74.29Zm-.85.49a3.88,3.88,0,0,0-2.51-.62l-.38.21a3.42,3.42,0,0,1,2.83.51c2.28,1.31,4.13,4.23,4.13,6.51a2.37,2.37,0,0,1-.79,2l.39-.23a2.72,2.72,0,0,0,.52-1.73C480,79.08,478.15,76.11,475.84,74.78Zm-.85.49a3.88,3.88,0,0,0-2.51-.62l-.38.22a3.38,3.38,0,0,1,2.83.5c2.28,1.31,4.13,4.23,4.13,6.51a2.36,2.36,0,0,1-.78,2l.38-.22a2.7,2.7,0,0,0,.52-1.73C479.18,79.57,477.3,76.6,475,75.27Zm-.85.49a3.89,3.89,0,0,0-2.52-.62l-.37.22a3.38,3.38,0,0,1,2.83.5c2.28,1.31,4.14,4.23,4.14,6.51a2.37,2.37,0,0,1-.79,1.95l.38-.22a2.72,2.72,0,0,0,.52-1.73C478.33,80.06,476.45,77.09,474.14,75.76Zm-.85.49a3.88,3.88,0,0,0-2.51-.62l-.38.21a3.42,3.42,0,0,1,2.83.51c2.28,1.31,4.14,4.24,4.14,6.51a2.38,2.38,0,0,1-.78,1.94l.37-.21a2.72,2.72,0,0,0,.52-1.73C477.48,80.55,475.6,77.58,473.29,76.25Z"/><path class="cls-45" d="M476.43,83.37a2.28,2.28,0,0,1-1,2.11l-.21.12a2.28,2.28,0,0,0,1-2.11c0-2.27-1.84-5.16-4.1-6.47a3.12,3.12,0,0,0-3.1-.37l.21-.13h0a3.15,3.15,0,0,1,3.1.38C474.59,78.2,476.43,81.1,476.43,83.37Z"/><path class="cls-46" d="M482.45,79.89a2.26,2.26,0,0,1-1,2.11l-.2.12a2.27,2.27,0,0,0,1-2.1c0-2.27-1.83-5.17-4.1-6.48a3.22,3.22,0,0,0-3.05-.4l.16-.09a3.17,3.17,0,0,1,3.1.37C480.62,74.73,482.45,77.63,482.45,79.89Z"/><path class="cls-47" d="M325.53,126.89s-2.94-4.15,10.07-5.52,20.59,1.67,17.46,5.79,11.23-1.6,3.56-8.47-22.8-10.7-24.2-9-13,6.84-14.62,9.12S325.53,126.89,325.53,126.89Z"/><g class="cls-48"><path class="cls-49" d="M325.53,126.89s-2.94-4.15,10.07-5.52,20.59,1.67,17.46,5.79,11.23-1.6,3.56-8.47-22.8-10.7-24.2-9-13,6.84-14.62,9.12S325.53,126.89,325.53,126.89Z"/></g><path class="cls-50" d="M381.05,103.71c-17.63-11.83-44.5-19.34-87.37-13.6S226,116.2,232.58,136.42s35.66,28,70.68,28.39,61.05-9.68,61.57-20.71,3.48-14.73,14.68-19.51S387.94,108.33,381.05,103.71Zm-55,18.44c-3.15-7.38,16.89-8.65,23.9-5.39C371.74,126.89,329.15,129.52,326,122.15Z"/><path class="cls-47" d="M386.24,110.21c2,5.11.69,11.21-6.73,14.38-9.41,4-13,7.27-14.22,14.74-1-6.05-5.39-13.15,6.56-16.35C387.16,118.88,386.24,110.23,386.24,110.21ZM364.83,144.1c-3.31,6.5-32.77,17.13-67.12,15.06-30.75-1.86-57.4-9.51-65.54-24.18.12.48.25,1,.41,1.44,6.54,20.21,35.66,28,70.68,28.39S364.31,155.13,364.83,144.1Z"/><g class="cls-51"><path class="cls-52" d="M381.05,103.71c-17.63-11.83-44.5-19.34-87.37-13.6S226,116.2,232.58,136.42s35.66,28,70.68,28.39,61.05-9.68,61.57-20.71,3.48-14.73,14.68-19.51S387.94,108.33,381.05,103.71Zm-55,18.44c-3.15-7.38,16.89-8.65,23.9-5.39C371.74,126.89,329.15,129.52,326,122.15Z"/></g><g class="cls-53"><path class="cls-49" d="M386.24,110.21c2,5.11.69,11.21-6.73,14.38-9.41,4-13,7.27-14.22,14.74-1-6.05-5.39-13.15,6.56-16.35C387.16,118.88,386.24,110.23,386.24,110.21ZM364.83,144.1c-3.31,6.5-32.77,17.13-67.12,15.06-30.75-1.86-57.4-9.51-65.54-24.18.12.48.25,1,.41,1.44,6.54,20.21,35.66,28,70.68,28.39S364.31,155.13,364.83,144.1Z"/></g><path class="cls-54" d="M367.27,100.18c-6.71-4.75-28.81-3.22-19.64,3.45S379.49,108.81,367.27,100.18Z"/><path class="cls-55" d="M332.31,95.57c-7.18-4-29-.16-19.17,5.5S345.37,102.86,332.31,95.57Z"/><path class="cls-56" d="M299,96.3c-7.58-3.19-28.83,3-18.45,7.58S312.78,102.12,299,96.3Z"/><path class="cls-57" d="M266.82,103.55c-7.37-1.57-25.08,8.89-14.95,11.21S280.23,106.4,266.82,103.55Z"/><path class="cls-58" d="M248,120.61c-6.39-1.66-12.1,14.93-.19,17.51S258.36,123.32,248,120.61Z"/><path class="cls-59" d="M289.23,140.12c-4.21-7.68-26.18-2.94-23.41,3.54S297.12,154.53,289.23,140.12Z"/><path class="cls-60" d="M327.35,138.56c-4.2-7.68-26.17-2.95-23.41,3.54S335.25,153,327.35,138.56Z"/><g class="cls-61"><g class="cls-62"><path class="cls-63" d="M367.27,100.18c-6.71-4.75-28.81-3.22-19.64,3.45S379.49,108.81,367.27,100.18Z"/><path class="cls-64" d="M332.31,95.57c-7.18-4-29-.16-19.17,5.5S345.37,102.86,332.31,95.57Z"/><path class="cls-65" d="M299,96.3c-7.58-3.19-28.83,3-18.45,7.58S312.78,102.12,299,96.3Z"/><path class="cls-57" d="M266.82,103.55c-7.37-1.57-25.08,8.89-14.95,11.21S280.23,106.4,266.82,103.55Z"/><path class="cls-66" d="M248,120.61c-6.39-1.66-12.1,14.93-.19,17.51S258.36,123.32,248,120.61Z"/><path class="cls-59" d="M289.23,140.12c-4.21-7.68-26.18-2.94-23.41,3.54S297.12,154.53,289.23,140.12Z"/><path class="cls-60" d="M327.35,138.56c-4.2-7.68-26.17-2.95-23.41,3.54S335.25,153,327.35,138.56Z"/></g></g><path class="cls-67" d="M259.5,110.57c-1.69-1.28-7.42.82-4.71,1.65S261.63,112.19,259.5,110.57Z"/><path class="cls-68" d="M252,135c-.27.66-1.75.69-3.32.06s-2.61-1.68-2.35-2.34,1.75-.69,3.32-.06S252.23,134.35,252,135Z"/><path class="cls-69" d="M288.43,102.82c-.25.61-1.91.52-3.71-.21s-3.07-1.8-2.83-2.41,1.91-.52,3.71.21S288.67,102.21,288.43,102.82Z"/><path class="cls-70" d="M272.08,142.9c-.25.63-1.46.74-2.7.25s-2-1.41-1.77-2.05,1.46-.74,2.69-.24S272.33,142.27,272.08,142.9Z"/><path class="cls-71" d="M312,143.43c-.26.66-1.68.71-3.15.12s-2.46-1.61-2.19-2.27,1.68-.72,3.15-.13S312.26,142.76,312,143.43Z"/><path class="cls-72" d="M358.33,105c-.2.49-1.65.36-3.24-.28s-2.73-1.55-2.54-2,1.64-.35,3.24.29S358.52,104.47,358.33,105Z"/><polygon class="cls-17" points="144.43 89.4 123.34 89.4 78.67 89.4 16.18 89.4 16.18 90.74 16.18 96.09 16.18 98.48 16.18 99.82 78.67 99.82 123.34 99.82 144.43 99.82 151.72 99.82 151.72 89.4 144.43 89.4"/><path class="cls-73" d="M26.74,52.4H88.53A8.37,8.37,0,0,0,96.9,44h0a8.37,8.37,0,0,0-8.37-8.37H26.74Z"/><path class="cls-73" d="M58.47,52.4h61.79A8.37,8.37,0,0,0,128.63,44h0a8.37,8.37,0,0,0-8.37-8.37H58.47Z"/><path class="cls-74" d="M26.74,50.57H69.13A6.54,6.54,0,0,0,75.68,44h0a6.54,6.54,0,0,0-6.55-6.54H26.74Z"/><path class="cls-75" d="M26.74,46.35v4.22H69.13a6.53,6.53,0,0,0,6.12-4.22Z"/><rect class="cls-76" x="95.78" y="52.4" width="49.88" height="13.81"/><rect class="cls-76" x="37.46" y="52.4" width="58.32" height="13.81"/><rect class="cls-74" x="102.18" y="54.17" width="43.48" height="10.27"/><rect class="cls-75" x="102.18" y="60.93" width="43.48" height="3.51"/><rect class="cls-77" x="21.64" y="66.21" width="53.76" height="24.05" transform="translate(97.05 156.48) rotate(180)"/><rect class="cls-77" x="75.41" y="66.21" width="62.86" height="24.05" transform="translate(213.67 156.48) rotate(180)"/><rect class="cls-74" x="21.64" y="69.3" width="46.86" height="17.88" transform="translate(90.14 156.48) rotate(180)"/><rect class="cls-78" x="113.84" y="66.21" width="18.14" height="24.05"/><rect class="cls-75" x="21.64" y="81.66" width="46.86" height="5.51"/><rect class="cls-79" x="88.74" y="17.97" width="48.22" height="18.18"/><rect class="cls-79" x="32.36" y="17.97" width="56.38" height="18.18"/><rect class="cls-74" x="92.68" y="20.3" width="44.29" height="13.51"/><rect class="cls-80" x="37.99" y="20.3" width="47.76" height="13.51" transform="translate(123.74 54.11) rotate(180)"/><rect class="cls-75" x="92.68" y="27.06" width="44.29" height="6.76"/><path class="cls-17" d="M575.25,132.15l-.23-3h0l-2.58-2.8-76.2,5.82a5.16,5.16,0,0,0-1.19.31h-.1L484.86,137l-5.26,2.29L478,140l.16,0-.41.17,4.82,1.14-.08,0,6.49,1.82,7,2.18.66,0a5.39,5.39,0,0,0,.65,0l76.21-5.82,2.11-3.87Z"/><polygon class="cls-81" points="483.55 137.45 497.01 141.67 498.86 141.53 497.88 128.71 496.03 128.85 483.33 134.59 483.55 137.45"/><polygon class="cls-82" points="483.55 137.45 498.66 138.85 498.1 131.52 483.36 134.92 483.55 137.45"/><polygon class="cls-83" points="498.04 137.98 485.91 136.76 483.57 137.67 497.65 141.62 498.43 141.56 498.04 137.98"/><polygon class="cls-84" points="486.31 138.27 478.83 136.5 487.83 132.59 487.01 135.65 486.31 138.27"/><polygon class="cls-85" points="479.08 136.37 487.56 134.12 487.83 132.7 479.08 136.37"/><path class="cls-85" d="M498.32,141.57l-.21-2.68-.56-7.33s-2.45.32-2.58-1.35c-.11-1.38,2.35-1.68,2.35-1.68l76.21-5.82,2.62,2.85.49,6.41-2.12,3.78Z"/><path class="cls-84" d="M576.15,125.51l.48,6.31-78.6,6s-2.9-.44-3.09-2.87c-.2-2.66,2.61-3.45,2.61-3.45Z"/><path class="cls-86" d="M574.53,135.85l2.11-3.88L498,138s-2.35,0-2.3,1.91,2.58,1.78,2.58,1.78Z"/><path class="cls-17" d="M138.22,151.39l.88-.15,3.86-.6-.38-.2.15.05-1.54-.79-4.95-2.62-9.41-5.18h-.1a5,5,0,0,0-1.13-.39L52,130.08l-2.72,2.53h0v.05h0l0,.29-.89,5.76h0l0,.14,1.76,3.92,73.58,11.42a3.75,3.75,0,0,0,.64,0l.64.1,6.92-1.59,6.44-1.27Z"/><polygon class="cls-81" points="138.85 148.16 125.45 151.24 123.67 150.96 125.59 138.58 127.38 138.86 139.28 145.4 138.85 148.16"/><polygon class="cls-82" points="138.85 148.16 124.07 148.38 125.17 141.31 139.23 145.72 138.85 148.16"/><polygon class="cls-83" points="124.73 147.58 136.6 147.31 138.82 148.38 124.84 151.15 124.09 151.03 124.73 147.58"/><polygon class="cls-87" points="136.11 148.75 143.51 147.6 135.06 143.12 135.62 146.16 136.11 148.75"/><polygon class="cls-88" points="143.03 147.62 135.83 147.41 135.89 148.84 143.03 147.62"/><polygon class="cls-89" points="143.28 147.45 135.2 144.62 135.04 143.22 143.28 147.45"/><path class="cls-89" d="M124.19,151.05l.4-2.59,1.1-7.07s2.36.49,2.61-1.13c.21-1.33-2.15-1.8-2.15-1.8L52.57,127l-2.77,2.57-1,6.19,1.77,3.83Z"/><path class="cls-87" d="M49.81,129.56l-1,6.1,75.89,11.77s2.86-.2,3.22-2.55c.4-2.57-2.27-3.55-2.27-3.55Z"/><path class="cls-88" d="M50.6,139.72l-1.76-3.92,75.89,11.78s2.28.2,2.09,2-2.64,1.53-2.64,1.53Z"/><path class="cls-17" d="M442.59,160.48,376,146l-16.82-3.56-.11.28a4.54,4.54,0,0,0-1.8-4.18c-4.34-3.3-10.35,1.17-15.73-3.12-2.57-2-2.89-3.46-1.52,1.48,3.3,11.89,12.14,13.06,15,11.53a13,13,0,0,0,2.44-1.63h0l17.69,3.39,66.76,13.54c.67.14,9.21,1.18,9.4.28S443.26,160.62,442.59,160.48Z"/><path class="cls-90" d="M376.24,143.91l66.56,14.47c.67.14,8.9,2.64,8.71,3.55s-8.73-.15-9.4-.29l-66.76-13.53Z"/><polygon class="cls-91" points="359.42 140.35 357.66 144.71 375.35 148.1 376.24 143.91 359.42 140.35"/><path class="cls-92" d="M358.48,143.56s2.45-4.52-1-7.11c-4.34-3.29-10.35,1.17-15.73-3.12-2.57-2-2.89-3.46-1.52,1.48,3.31,11.89,12.14,13.06,15,11.53C358.53,144.54,358.48,143.56,358.48,143.56Z"/><polygon class="cls-93" points="359.25 141.69 359.15 142.02 375.78 145.95 376.18 144.61 359.25 141.69"/><g class="cls-94"><path class="cls-95" d="M340.43,133.61s7.62,10.21,11.17,5.94c1.56-1.87.45-3.42-4.35-3C343.29,136.88,340.43,133.61,340.43,133.61Z"/></g></g></g></svg>