<svg id="Layer_1" data-name="Layer 1" xmlns="http://www.w3.org/2000/svg" viewBox="0 0 682.92 162.09"><defs><style>.cls-1{fill:#3d3d99;}.cls-2{fill:#fff;}</style></defs><path class="cls-1" d="M108.21,126.16c-16.94,0-30.89-7.25-40.34-21a10.75,10.75,0,0,1-.38-11.61A204.22,204.22,0,0,1,79.84,75.78C73.14,70.25,67.54,62.42,67.23,51c-.47-15.13,9.83-31.26,30.44-32.72,1.11-.08,2.23-.12,3.33-.12,17.36,0,32.5,10.07,40.51,26.93a10.75,10.75,0,0,1-4.85,14.2c-2.69,1.36-5.21,2.79-7.42,4.13,10,6.77,15.68,16.24,15.94,27.18.15,9.69-3.13,18.16-9.48,24.61C128.82,122.15,118.8,126.16,108.21,126.16Z"/><path class="cls-1" d="M138.57,126.54A10.76,10.76,0,0,1,128,114.11c2.31-14.51,1.36-36.81-.77-51.35a10.72,10.72,0,0,1,.75-5.77,17,17,0,0,1-1.86-4.35c-2.68-9.6,2.37-19.54,12-23.73a23.92,23.92,0,0,1,9.7-2.1c9,0,16.6,5.37,18.8,13.35,0,.06,0,.12,0,.18a20,20,0,0,1-1.19,13.79,10.85,10.85,0,0,1,.88,5.08c-1,13.51.19,40.26,1.82,52.68a10.75,10.75,0,0,1-9.5,12.07c-.09,0-9.17,1-18.45,2.45A11.6,11.6,0,0,1,138.57,126.54Z"/><path class="cls-1" d="M184.7,157.67a38.29,38.29,0,0,1-3.84-.2,30.81,30.81,0,0,1-22.8-13.26c-6-8.82-7.49-20.74-4.11-32.72a10.79,10.79,0,0,1,1-2.42c-3.73-7.12-5.07-16-3.69-25.35,2.9-18.85,18.7-34.14,35.23-34.14h.59a30.1,30.1,0,0,1,3.7.3,10.79,10.79,0,0,1,6.46-3.46c8-1.16,17.48-1.93,17.88-2s.57,0,.85,0a10.74,10.74,0,0,1,10.73,10.17l.22,4c.94,16.59,2.23,39.31-2.71,61.68S203.27,157.67,184.7,157.67Z"/><path class="cls-1" d="M266.68,126.28a11,11,0,0,1-2.54-.3,128.84,128.84,0,0,0-17.44-2.74A10.7,10.7,0,0,1,241,124.9a125.44,125.44,0,0,0-15.47,1.26,10.75,10.75,0,0,1-8.87-2.71,10.75,10.75,0,0,1-3.45-8.61c1.66-25.56.7-68.37-2.09-93.48a10.73,10.73,0,0,1,8.45-11.69c10.05-2.14,20.65-4.12,21.09-4.2a11,11,0,0,1,2-.18,10.75,10.75,0,0,1,10.66,12.09c-1,7.74-1.86,19.21-2.47,31.49h.83a32,32,0,0,1,4.55.33l.14,0a25.9,25.9,0,0,1,17.75,11.35c8,11.78,9,31.07,3.11,57.34a10.74,10.74,0,0,1-10.48,8.38Z"/><path class="cls-1" d="M295.18,126.21a28.86,28.86,0,0,1-5.21-.48c-10.06-1.82-25.8-10.5-24.3-47.16a8.62,8.62,0,0,1-.71-.63,10.72,10.72,0,0,1-3.24-8.18c.27-6.1,1.06-11.72,1.1-12a10.74,10.74,0,0,1,6.93-8.57c.85-3.77,1.83-7.54,2.94-11.28a10.75,10.75,0,0,1,10.3-7.7h.16c8.59.13,17.14.5,17.5.51a10.75,10.75,0,0,1,9.48,14.81c-.2.49-.4,1-.59,1.47a10.77,10.77,0,0,1,8.36,12.49,78.33,78.33,0,0,0-1.2,11.83,10.74,10.74,0,0,1-3.8,8.2,10.9,10.9,0,0,1-1.36,1c3.72,1.52,6.24,2.68,6.42,2.76a10.74,10.74,0,0,1,6.2,10.94C321.58,117.82,307.5,126.21,295.18,126.21Z"/><path class="cls-1" d="M374.83,128.17a11.4,11.4,0,0,1-2-.19,80.18,80.18,0,0,0-13.31-1.16c-1.06,0-2.09,0-3.07.08h-.55a10.74,10.74,0,0,1-10.74-10.39c-.86-25.93-6.08-61.15-12.13-81.92a10.75,10.75,0,0,1,10.32-13.75h1.16a159.75,159.75,0,0,0,21.28-1.63,10.19,10.19,0,0,1,1.65-.13,10.75,10.75,0,0,1,10.73,11.23c-.1,2.3-.16,4.83-.18,7.52a10.53,10.53,0,0,1,2.76-.42H381a10.76,10.76,0,0,1,5.18,1.33c-.13-4.09-.32-7.85-.58-11a10.74,10.74,0,0,1,10.71-11.61h.46c.12,0,12,.51,24.06,1.13a10.75,10.75,0,0,1,9.83,13.5C425,52,420.48,85,419.2,114.75A10.75,10.75,0,0,1,408.47,125h-.39c-.9,0-1.79,0-2.67,0a94.69,94.69,0,0,0-15.07,1.25,10.53,10.53,0,0,1-1.94.18,10.72,10.72,0,0,1-5.72-1.65A10.11,10.11,0,0,1,381.3,126,10.73,10.73,0,0,1,374.83,128.17Z"/><path class="cls-1" d="M437.38,126.2c-12,0-27.43-7-31.54-26.93-2.95-14.15.42-29.85,8.59-40C420.27,52.05,428.23,48,436.86,48h.27c17.61,0,31.33,16.13,32.62,38.36s-11.16,38.47-30.29,39.82C438.76,126.18,438.08,126.2,437.38,126.2Z"/><path class="cls-1" d="M461.91,127.16a10.75,10.75,0,0,1-10.72-11.52c1.68-23.24,1.59-41.49-.29-54.25a10.74,10.74,0,0,1,10.33-12.3c2.74-.09,8.3-.69,11.47-1.92a10.93,10.93,0,0,1,3.89-.72,10.71,10.71,0,0,1,6.34,2.07,29.7,29.7,0,0,1,7.22-.91,26.29,26.29,0,0,1,4.48.38c6.47,1.08,21.68,6.61,21.19,34.36A10.75,10.75,0,0,1,506,92.86a83.54,83.54,0,0,0-16,3.63,13.24,13.24,0,0,1-1.47.38c.53,5.86,1.18,11.24,1.86,15.42a10.74,10.74,0,0,1-10.6,12.49h-1.2a48.15,48.15,0,0,0-13.43,1.88A10.79,10.79,0,0,1,461.91,127.16Z"/><path class="cls-1" d="M542.21,126.28a10.74,10.74,0,0,1-7.53-3.08l-.1-.09a35.15,35.15,0,0,1-4.52.41h-.79c-18.53,0-31.72-13.79-32.06-33.53-.4-19.34,11.16-40.09,31.19-41.28h.19l1.27,0c.86,0,1.71,0,2.56.11C531.81,38,530.87,28,529.7,20A10.73,10.73,0,0,1,539.78,7.69,115.45,115.45,0,0,0,558.4,4.74a10.74,10.74,0,0,1,13.3,11.7c-2.72,22.7-4.77,73.21-2,96.45a10.73,10.73,0,0,1-10.67,12,10.94,10.94,0,0,1-1.71-.13h0s-.27,0-.82,0a95.16,95.16,0,0,0-12.43,1.38A10.43,10.43,0,0,1,542.21,126.28Z"/><path class="cls-1" d="M585.25,126.16c-13.44-.19-23.88-5.54-32-16.36A10.74,10.74,0,0,1,553,97.34,83,83,0,0,1,559.56,89a24.64,24.64,0,0,1-5.25-14.32,25.51,25.51,0,0,1,6.41-18.34c3.44-3.82,9.83-8.48,20.75-9,.63,0,1.22,0,1.79,0,15.79,0,27.84,9.62,33.07,26.39A10.75,10.75,0,0,1,615,82.82a10.93,10.93,0,0,1-3.12,3.09,22,22,0,0,1,5,15.07c-.38,14.84-13.2,25.18-31.17,25.18Z"/><path class="cls-2" d="M108.21,108.25c-12.55,0-23.71-5-31.49-16.31A201.65,201.65,0,0,1,89.27,74C95,85.16,108.84,90.43,113.48,85.16c3.77-4.14,0-10.79-12-16.31C90,63.58,78.35,57.43,78,43.5c-.25-8,4.52-20.58,20.45-21.7s27.48,8.28,33.38,20.7a129.91,129.91,0,0,0-17.69,10.92c-1.88-5.4-6.65-9.41-11-9.41-3.52,0-5.27,2.5-4.9,5.39.51,5.4,5.78,7.28,14.81,10.67,13.43,4.76,21.21,13.17,21.46,23.59C134.69,100.22,120.89,108.25,108.21,108.25Z"/><path class="cls-2" d="M149.62,47.39c-5.78,1.89-11.92,0-13.18-4.77-1.25-4.39,1-8.9,6-11,5.78-2.63,12.43-.75,13.81,4.27C157.4,40.24,155.89,45.26,149.62,47.39Zm-11.05,61.24c2.51-15.81,1.51-39.15-.75-54.59a126.22,126.22,0,0,0,17.82-2.76c-1,14.06.13,41.41,1.88,54.84C157.52,106.12,148.24,107.12,138.57,108.63Z"/><path class="cls-2" d="M213.73,110.76c-3.64,16.06-15,30.62-31.74,28.86-15.81-1.63-22.09-16.81-17.7-32.37a98.81,98.81,0,0,0,19.08,6c-1,4-.63,9.54,3,10.41,5,1.13,11.67-6.52,14.05-19.57.5-3,1-5.9,1.26-8.66-5,7.15-13.05,11.92-21.71,11.42-14.81-1-20.08-15.18-18.07-28.73,2-13,12.92-25.23,25-25a19.18,19.18,0,0,1,14.05,6.39c-.62-3.13-1.25-6.39-2.13-9.66C206.58,48.77,216,48,216,48,216.87,64.33,218.75,88.05,213.73,110.76ZM183,73.49c-4.52,5.77-4.14,11.05-2.13,13.68,3.26,4.27,10.16,2.51,13.93-2.26,3.51-4.39,4.14-10.92,1.75-14S187.13,68.35,183,73.49Z"/><path class="cls-2" d="M247.48,105.36c6.65-18.82,4.14-36-1-37.51-2.76-.76-5.15.75-7.28,3.64,0,13.67.5,26.35,1.76,35.51a135.25,135.25,0,0,0-17.07,1.38c1.76-27.11.63-70.52-2.13-95.37,10-2.13,20.83-4.14,20.83-4.14-1.38,10.92-2.64,29.36-3.14,48.06a18.73,18.73,0,0,1,15.18-4.27c15.19,2.39,19.33,23.47,12.05,55.72A138,138,0,0,0,247.48,105.36Z"/><path class="cls-2" d="M291.9,108c-14.56-2.64-17.19-23.34-14.81-45.17-2.88.12-4.64.25-4.64.25.25-5.65,1-10.92,1-10.92l5.27-.25A166.78,166.78,0,0,1,283,33.84c8.53.13,17.19.5,17.19.5A107.24,107.24,0,0,0,294.91,51l12.42-.63A89.1,89.1,0,0,0,306,64.21a125,125,0,0,0-13.55-1.38c-2.63,15.68-1.88,28,.88,29s4.27-5,4.14-12.29c8.41,2.88,16.06,6.4,16.06,6.4C311.6,103.11,302.19,109.88,291.9,108Z"/><path class="cls-2" d="M408.46,107.12a102.78,102.78,0,0,0-20.07,1.38s-.63-17.82-5.9-31.74c-6.15,16.18-7.66,33.5-7.66,33.5A89.46,89.46,0,0,0,355.89,109c-.88-26.47-6.15-62.61-12.55-84.57a166.58,166.58,0,0,0,24.09-1.76A355.43,355.43,0,0,0,369.56,74c4.27-10.16,9-23.33,11.42-33,3.26,11,8,24.22,14.18,34.26,2.26-17.32,2.26-41.53,1.13-55.59,0,0,11.8.5,24,1.13C414.74,41.5,409.84,75,408.46,107.12Z"/><path class="cls-2" d="M438.7,108.25c-7.4.5-19.2-3.14-22.34-18.32-3.64-17.44,4.9-38.27,20.58-38.4C448.24,51.41,458,62.45,459,79.77,459.91,94.82,452.88,107.25,438.7,108.25Zm-2-38.14c-5.39.5-8.66,9.28-7.28,17.19,1,6.65,4.52,9.41,7.91,9,5-.5,7.65-7,7.15-13.68C443.84,74.75,440.46,69.85,436.69,70.11Z"/><path class="cls-2" d="M486.63,79.14c.25-7-1.38-11.54-3.77-12-2.13-.37-4.39.38-6.27,3.64a327.22,327.22,0,0,0,3.26,36.14,59,59,0,0,0-17.94,2.38c1.25-17.31,2.13-39.52-.38-56.59,0,0,8.91-.25,15.06-2.63-.13,2-.25,4.26-.25,6.65,4.77-4.39,11.42-6.15,16.44-5.27,8.28,1.38,12.54,9.53,12.29,23.59C496.67,75.75,486.63,79.14,486.63,79.14Z"/><path class="cls-2" d="M559,107c-4.64-.76-16.81,1.38-16.81,1.38a67,67,0,0,0,.75-7.66,20.82,20.82,0,0,1-13.17,4.9c-12.17.25-21.58-8.41-21.84-23-.25-12.17,6.28-29.48,21.08-30.36a18.25,18.25,0,0,1,14.81,6.52,415,415,0,0,0-3.51-47.55A126,126,0,0,0,561,8C558.4,30,556,81.65,559,107ZM535.68,70.36c-5.52-1-11.41,4.14-12.17,11.41-.5,5.78,3.77,9.67,8.41,9.29,4.89-.25,8.53-3.39,9.66-9.79C542.59,75.75,540.7,71.23,535.68,70.36Z"/><path class="cls-2" d="M585.37,108.25c-8.91-.13-16.81-3.14-23.46-12a86.79,86.79,0,0,1,11.29-13c4.26,8.66,11.92,10.8,13.8,8.54,1.51-1.88.5-5.15-7.65-8.66C571.94,79.89,565.42,75.25,565,67c-.37-6.65,3.77-15.44,16.94-16.06,14.18-.63,21.08,9.16,24.09,18.82a49.69,49.69,0,0,0-16.18,4.77c-3.77-9.79-9.92-9.41-9.41-5.52,1.5,10.54,26.1,8.4,25.72,24.59C606,103.23,596.66,108.38,585.37,108.25Z"/></svg>