<svg xmlns="http://www.w3.org/2000/svg" xmlns:xlink="http://www.w3.org/1999/xlink" viewBox="0 0 232.68 310.34"><defs><style>.cls-1{isolation:isolate;}.cls-11,.cls-12,.cls-2,.cls-3,.cls-30,.cls-41{stroke:#99501f;}.cls-11,.cls-12,.cls-14,.cls-19,.cls-2,.cls-23,.cls-24,.cls-25,.cls-26,.cls-3,.cls-30,.cls-31,.cls-34,.cls-38,.cls-41,.cls-5{stroke-miterlimit:10;}.cls-2{fill:url(#Áåçûìÿííûé_ãðàäèåíò_94);}.cls-3{fill:url(#Áåçûìÿííûé_ãðàäèåíò_94-2);}.cls-4{opacity:0.28;}.cls-17,.cls-20,.cls-27,.cls-4,.cls-9{mix-blend-mode:multiply;}.cls-5{fill:#ebc34b;}.cls-24,.cls-5{stroke:#603919;}.cls-6{fill:#597800;}.cls-7{fill:url(#linear-gradient);}.cls-8{fill:url(#Áåçûìÿííûé_ãðàäèåíò_67);}.cls-9{opacity:0.35;}.cls-10{fill:#e28c6a;}.cls-11{fill:url(#Áåçûìÿííûé_ãðàäèåíò_94-3);}.cls-12{fill:url(#Áåçûìÿííûé_ãðàäèåíò_94-4);}.cls-13{fill:url(#Áåçûìÿííûé_ãðàäèåíò_98);}.cls-14,.cls-34{stroke:#20307f;}.cls-14{fill:url(#Áåçûìÿííûé_ãðàäèåíò_88);}.cls-15{fill:url(#Áåçûìÿííûé_ãðàäèåíò_98-2);}.cls-16,.cls-38{fill:#fff;}.cls-17,.cls-36{opacity:0.23;}.cls-17{fill:url(#Áåçûìÿííûé_ãðàäèåíò_98-4);}.cls-18{fill:#94d143;}.cls-19{fill:none;stroke:#5b7f21;}.cls-21{fill:url(#Áåçûìÿííûé_ãðàäèåíò_140);}.cls-22,.cls-33{fill:#a65635;}.cls-23,.cls-25{stroke:#476e7f;}.cls-23{fill:url(#Áåçûìÿííûé_ãðàäèåíò_41);}.cls-24,.cls-26{fill:#ff262c;}.cls-25{fill:url(#Áåçûìÿííûé_ãðàäèåíò_41-2);}.cls-26{stroke:#5e1919;}.cls-27{opacity:0.45;}.cls-28{fill:url(#Áåçûìÿííûé_ãðàäèåíò_132);}.cls-29,.cls-31{fill:#c30c24;}.cls-30{fill:url(#Áåçûìÿííûé_ãðàäèåíò_30);}.cls-31{stroke:#420909;}.cls-32{fill:#2e1b2d;}.cls-33,.cls-37{opacity:0.34;}.cls-34{fill:url(#Áåçûìÿííûé_ãðàäèåíò_125);}.cls-35{fill:#f72e0f;}.cls-35,.cls-36{mix-blend-mode:screen;}.cls-36,.cls-37,.cls-44{fill:#22bdf0;}.cls-38{stroke:#1e2317;}.cls-39{fill:#522f24;}.cls-40{fill:#964f3c;}.cls-41{fill:url(#linear-gradient-2);}.cls-42{fill:#99501f;}.cls-43{fill:#fffbf8;}.cls-45{fill:#ed7e7e;}</style><linearGradient id="Áåçûìÿííûé_ãðàäèåíò_94" x1="1241.33" y1="196.41" x2="1251.41" y2="196.41" gradientTransform="matrix(-1, 0, 0, 1, 1454.43, 0)" gradientUnits="userSpaceOnUse"><stop offset="0.12" stop-color="#ffc185"/><stop offset="0.22" stop-color="#f1b17a"/><stop offset="0.42" stop-color="#da9669"/><stop offset="0.61" stop-color="#cc865e"/><stop offset="0.75" stop-color="#c7805a"/></linearGradient><linearGradient id="Áåçûìÿííûé_ãðàäèåíò_94-2" x1="1244.33" y1="200.54" x2="1254.41" y2="200.54" xlink:href="#Áåçûìÿííûé_ãðàäèåíò_94"/><linearGradient id="linear-gradient" x1="1374" y1="-18.25" x2="1316.04" y2="126.02" gradientTransform="matrix(-1, 0, 0, 1, 1454.43, 0)" gradientUnits="userSpaceOnUse"><stop offset="0.2" stop-color="#691414"/><stop offset="0.41" stop-color="#5f1712"/><stop offset="0.76" stop-color="#43210b"/><stop offset="0.77" stop-color="#42210b"/></linearGradient><radialGradient id="Áåçûìÿííûé_ãðàäèåíò_67" cx="1266.86" cy="742.99" r="94.68" gradientTransform="matrix(-1.25, 0, 0, 1.12, 1732.63, -706.14)" gradientUnits="userSpaceOnUse"><stop offset="0" stop-color="#ffce9e"/><stop offset="0.45" stop-color="#ffce9e"/><stop offset="0.56" stop-color="#f8c495"/><stop offset="0.76" stop-color="#e4a87d"/><stop offset="1" stop-color="#c7805a"/></radialGradient><linearGradient id="Áåçûìÿííûé_ãðàäèåíò_94-3" x1="1249.04" y1="204.25" x2="1259.13" y2="204.25" xlink:href="#Áåçûìÿííûé_ãðàäèåíò_94"/><linearGradient id="Áåçûìÿííûé_ãðàäèåíò_94-4" x1="1264.66" y1="205.26" x2="1342.73" y2="205.26" xlink:href="#Áåçûìÿííûé_ãðàäèåíò_94"/><linearGradient id="Áåçûìÿííûé_ãðàäèåíò_98" x1="1307.66" y1="177.49" x2="1337.45" y2="211.26" gradientTransform="matrix(-1, 0, 0, 1, 1454.43, 0)" gradientUnits="userSpaceOnUse"><stop offset="0.2" stop-color="#94d143"/><stop offset="0.98" stop-color="#78a836"/></linearGradient><linearGradient id="Áåçûìÿííûé_ãðàäèåíò_88" x1="1264.22" y1="242.66" x2="1345.1" y2="274.13" gradientTransform="matrix(-1, 0, 0, 1, 1454.43, 0)" gradientUnits="userSpaceOnUse"><stop offset="0.12" stop-color="#22bdf0"/><stop offset="0.25" stop-color="#1bb6e9"/><stop offset="0.69" stop-color="#07a1d4"/><stop offset="0.98" stop-color="#009acc"/></linearGradient><linearGradient id="Áåçûìÿííûé_ãðàäèåíò_98-2" x1="1339.36" y1="193.96" x2="1412.52" y2="241.02" xlink:href="#Áåçûìÿííûé_ãðàäèåíò_98"/><linearGradient id="Áåçûìÿííûé_ãðàäèåíò_98-4" x1="1339.06" y1="196.69" x2="1411.28" y2="243.15" xlink:href="#Áåçûìÿííûé_ãðàäèåíò_98"/><linearGradient id="Áåçûìÿííûé_ãðàäèåíò_140" x1="-2960.14" y1="1004.5" x2="-2935.98" y2="979.05" gradientTransform="matrix(-0.48, 0.41, 0.06, 0.65, -1408.24, 656.21)" gradientUnits="userSpaceOnUse"><stop offset="0.12" stop-color="#d48f4a"/><stop offset="0.22" stop-color="#d59350"/><stop offset="0.36" stop-color="#da9d61"/><stop offset="0.52" stop-color="#e0af7e"/><stop offset="0.69" stop-color="#eac7a5"/><stop offset="0.87" stop-color="#f5e6d7"/><stop offset="1" stop-color="#fff"/></linearGradient><linearGradient id="Áåçûìÿííûé_ãðàäèåíò_41" x1="1299.95" y1="241.3" x2="1381.79" y2="220.41" gradientTransform="matrix(-1, 0, 0, 1, 1454.43, 0)" gradientUnits="userSpaceOnUse"><stop offset="0.11" stop-color="#ebe2ff"/><stop offset="0.18" stop-color="#e9dfff"/><stop offset="0.64" stop-color="#dfcfff"/><stop offset="1" stop-color="#dcc9ff"/></linearGradient><linearGradient id="Áåçûìÿííûé_ãðàäèåíò_41-2" x1="1248.73" y1="186.73" x2="1283.34" y2="228.36" xlink:href="#Áåçûìÿííûé_ãðàäèåíò_41"/><linearGradient id="Áåçûìÿííûé_ãðàäèåíò_132" x1="1269.98" y1="246.41" x2="1377.31" y2="246.41" gradientTransform="matrix(-1, 0, 0, 1, 1454.43, 0)" gradientUnits="userSpaceOnUse"><stop offset="0" stop-color="#fff"/><stop offset="0.89" stop-color="#c1272d"/></linearGradient><linearGradient id="Áåçûìÿííûé_ãðàäèåíò_30" x1="1374.51" y1="220.07" x2="1414.43" y2="264.41" gradientTransform="matrix(-1, 0, 0, 1, 1454.43, 0)" gradientUnits="userSpaceOnUse"><stop offset="0.12" stop-color="#ffc185"/><stop offset="0.26" stop-color="#f1b17a"/><stop offset="0.55" stop-color="#da9669"/><stop offset="0.8" stop-color="#cc865e"/><stop offset="1" stop-color="#c7805a"/></linearGradient><linearGradient id="Áåçûìÿííûé_ãðàäèåíò_125" x1="1308.3" y1="233.12" x2="1385.77" y2="306.32" gradientTransform="matrix(-1, 0, 0, 1, 1454.43, 0)" gradientUnits="userSpaceOnUse"><stop offset="0.35" stop-color="#22bdf0"/><stop offset="0.44" stop-color="#1bb6e9"/><stop offset="0.76" stop-color="#07a1d4"/><stop offset="0.98" stop-color="#009acc"/></linearGradient><linearGradient id="linear-gradient-2" x1="1362.67" y1="235.52" x2="1370.72" y2="244.46" gradientTransform="matrix(-1, 0, 0, 1, 1454.43, 0)" gradientUnits="userSpaceOnUse"><stop offset="0.12" stop-color="#ffc185"/><stop offset="0.59" stop-color="#f1b87f"/><stop offset="1" stop-color="#ebb47c"/></linearGradient></defs><g class="cls-1"><g id="Layer_1" data-name="Layer 1"><path class="cls-2" d="M209.21,192.82s5.57.41,4.71,5-6.85,1.23-6.42-1.65S209.21,192.82,209.21,192.82Z"/><path class="cls-3" d="M206.21,196.94s5.57.42,4.72,4.95-6.86,1.24-6.43-1.65S206.21,196.94,206.21,196.94Z"/><path class="cls-4" d="M113.5,272.24c41.31-4,75.92,0,72.47,19-4.12,22.65-79.38,16.87-129.41,12.66S4,279.17,32.4,272.24C66.91,263.8,70.36,276.45,113.5,272.24Z"/><path class="cls-5" d="M154.76,279.39s26.41-22.69,34.17-10.2c2.23,3.61-.28,12.34-13,19-11.93,6.27-25.17,10.46-35.72,4.17C118.52,279.39,154.76,279.39,154.76,279.39Z"/><path class="cls-5" d="M118.37,285.87s-.93,6.26-10.82,10.74-24.35,3.78-26-.48,14.42-18.61,18-18.73S118.37,285.87,118.37,285.87Z"/><path class="cls-6" d="M148.37,221.69c3,2.47,19.71-21.45,12.85-28.05l-15.85,5v16.09Z"/><path class="cls-7" d="M82.08,152c-14,7.33-33.85-9.48-38.14-25.15S51.66,79,52.09,66.22s5.57-39.59,29.56-55.67S148.49,6,166.49,15.91,201.62,39.41,203.33,53s-22.7,37.12-26.13,47.43,3.43,23.91,8.14,19.79,9-3.3,3.85,7.42c0,0,3.43-6.6,8.15-3.3S191.77,145,174.2,152.41s-63.41,2.06-70.27-4.54c0,0,1.47,2.51-4.53,2.51S86.79,149.52,82.08,152Z"/><path class="cls-8" d="M65.25,88.49a6.74,6.74,0,0,1,7.2-.68l.27.37h0l.36.53,0,0c.11.17.23.34.34.52l0,.08.31.5a.75.75,0,0,0,.07.12l.28.5s0,.1.08.16.17.31.26.47a1.86,1.86,0,0,0,.1.2c.07.15.15.31.22.47s.07.15.11.23.14.3.2.45l.12.27c.06.15.12.29.17.44l.12.31c0,.14.11.28.16.43s.07.22.11.33.09.28.13.42.08.25.11.37l.12.41c0,.13.06.27.1.4l.09.4.09.43c0,.13,0,.26.08.38s0,.33.07.49l.06.35.06.56c0,.1,0,.2,0,.3l.06.87q0,.5.06,1c0,.31.05.61.09.91h0a19,19,0,0,0,3,8.71l.32.43,0,.05.29.35.13.15.23.24c.12.13.25.25.37.37,1.4,1.26,2.86,1.66,4,1,3-1.65,1.29-7,1.29-7s.65,4.36-2.28,3.6c-.44-.11-.19.08-.8-.3-2.49-1.52,3.17-5.87,6.5-9.65C92,97.27,92.34,95.84,93,93c5.92,3.63,9.29,1.72,19.86-.76,17.56-4.13,23.13-16.91,23.13-16.91-1.71,4.95-1.28,13.2,6,9.9s11.57-14.85,11.57-14.85-5.57,16.91,4.71,12A39.39,39.39,0,0,0,176,64.47c-.06,13-3.94,26.4-3.94,48.73,0,19.9-15.79,39.88-50.27,35.12-2.25,3.67-3.43,4.9-3.43,10.27,0,10.75,6.85,5.77,6.85,5.77s-8.14,17.74-18,16.09-24-19-24-19l5-9.25c4.75-1.78,8.68-4.41,10.86-7.66,7.71-11.55,4.28-28.45.42-26.39-2.07,1.11-3.52,4.36-4.42,7.13.54-5.71-1-13.61-3.29-14.55-3-1.24-2,5.6-8.39,4.36A4.78,4.78,0,0,1,81.23,114c-.21-.61-.41-1.22-.61-1.84l-.73.33c-4.11,1.79-10.09,3.14-14.21-1.32A34.25,34.25,0,0,1,62,106.49C58.12,100.39,57.77,94.05,65.25,88.49Z"/><g class="cls-9"><path class="cls-10" d="M77.83,105.62A16.55,16.55,0,0,0,80,110.2l.32.43,0,.05.29.35.13.15.23.24c.12.13.25.25.37.37,1.4,1.26,2.86,1.66,4,1,3-1.65,1.29-7,1.29-7s.65,4.36-2.28,3.6c-.44-.11-.21.25-.83-.13-2.48-1.52-2.63-3.16,1.39-6.2,3.86-2.91,5.32-7.24,8.12-10.24,5.91,3.63,9.17,1.84,19.74-.64,12.57-3,19-10.34,21.64-14.31-13.36,22.07-28.88,16.45-38.17,23-2.89,2-4.16,5.86-3.7,10.47a2,2,0,0,0-.77-.6c-3-1.24-2,5.6-8.39,4.36A4.78,4.78,0,0,1,81.23,114c-.21-.61-.41-1.22-.61-1.84l-.73.33a21.82,21.82,0,0,1-4.16,1.36A27.23,27.23,0,0,0,77.83,105.62Z"/><path class="cls-10" d="M99.1,144.57a29,29,0,0,0,4.48-13.24c-.81,2.46-.2,7,7.45,11.75s10.78,5.24,10.78,5.24a33.83,33.83,0,0,0-3.8,9c-2.31,10.51,7.22,7,7.22,7s-8.14,17.74-18,16.09-24-19-24-19l5-9.25C93,150.45,96.92,147.82,99.1,144.57Z"/><path class="cls-10" d="M96.32,122.18a26.94,26.94,0,0,0-1.22,3.13,30.37,30.37,0,0,0,0-5.55C95.43,120.57,95.86,121.37,96.32,122.18Z"/></g><path class="cls-11" d="M201.5,200.65s5.57.42,4.71,4.95-6.85,1.24-6.42-1.65S201.5,200.65,201.5,200.65Z"/><path class="cls-12" d="M158.87,195.91s13.49,3.09,32.13-.82-13.28,18.35-13.28,18.35-18.85,4.74-31.49,1c0,0,3-14.64,6-16.5A16,16,0,0,1,158.87,195.91Z"/><path class="cls-13" d="M161.22,193.64c2.7,1.33-11.14,6.6-12.85,28.05,0,0-26.14-13.61-32.14-28.87S124,157.35,124,157.35s3,0,5.14,5.37S138.51,182.51,161.22,193.64Z"/><path class="cls-14" d="M146.94,278.46s19.79-6.62,29.08-11.94c10.08-5.77,25.62-20.11,13.77-33.42-6-6.79-58.27,12.92-59.13,13.47s-25.14,9.34-26.28,12.92,13.43,15.67,14.28,16.22S146.94,278.46,146.94,278.46Z"/><path class="cls-15" d="M135.52,246s-16.51-2-18-26c-1.71-27.63,6.43-62.69,6.43-62.69l-5.57-2.47S118,166,109,163.54s-15.57-11-16-14.3c0,0-10.28.83-14,2.75-7.44,3.86-42,72.86-28,117.94,0,0,13.86-5.36,21.57-6.18S135.52,246,135.52,246Z"/><path class="cls-15" d="M135.52,246s-16.51-2-18-26c-1.71-27.63,6.43-62.69,6.43-62.69l-5.57-2.47S118,166,109,163.54s-15.57-11-16-14.3c0,0-10.28.83-14,2.75-7.44,3.86-42,72.86-28,117.94,0,0,13.86-5.36,21.57-6.18S135.52,246,135.52,246Z"/><path class="cls-16" d="M115.4,196.72c-12.54,2.91-26.55,1.9-38.9-1.15-1.57-.38-.77-2,.63-1.65a93.6,93.6,0,0,0,19.1,2.74,130.11,130.11,0,0,0,18.93-1C116,195.56,116.27,196.52,115.4,196.72Z"/><path class="cls-16" d="M111.65,204.31c-10.65,3.5-23.27,3.25-34.23,1.26-1.61-.29-.78-1.91.63-1.65a83.58,83.58,0,0,0,16.5,1.39,127.53,127.53,0,0,0,16.55-1.84C111.67,203.38,112.46,204.05,111.65,204.31Z"/><path class="cls-16" d="M117.55,212.36a56.91,56.91,0,0,1-10.34,2.19,102.49,102.49,0,0,1-10.79,1.14c-7,.32-14.4-.32-20.79-3.05-1.76-.75,0-2.31,1.46-1.76a49,49,0,0,0,20,3c3.51-.15,7-.53,10.49-1a92.34,92.34,0,0,1,9.67-1.27C117.72,211.55,118.16,212.14,117.55,212.36Z"/><path class="cls-16" d="M116.74,188.29c-2.53,1.23-5.88,1.47-8.71,1.75a76.67,76.67,0,0,1-10.28.3,82.63,82.63,0,0,1-9.56-.88q-2.44-.36-4.86-.9c-1.25-.27-2.79-.35-3.56-1.36-.35-.46.06-.87.58-1,1.41-.35,2.69.19,4.07.49s2.77.57,4.16.8a75.15,75.15,0,0,0,9.49,1,83.45,83.45,0,0,0,9.22-.17c3-.21,6.12-.91,9.13-.78C116.93,187.55,117.31,188,116.74,188.29Z"/><path class="cls-17" d="M65.89,246.82c2.47,5,8.33,7.4,13.89,8.68a113.91,113.91,0,0,0,16.34,2.2c-11,3.13-20.67,5.74-23.59,6.05-7.71.82-21.57,6.18-21.57,6.18-8.35-26.9.59-62.32,10.73-87.33q2,27.45,2.63,55C64.39,240.72,64.48,244,65.89,246.82Z"/><path class="cls-6" d="M117.84,164.64a7.63,7.63,0,0,0,1.09-1.11,6.94,6.94,0,0,0,.79-1.3,6.79,6.79,0,0,1-1.88,2.11,9.87,9.87,0,0,1-3.32,1.58,13.51,13.51,0,0,1-3.7.4,21.71,21.71,0,0,1-4-.53,39.24,39.24,0,0,1-3.9-1,10.2,10.2,0,0,1-3.45-1.9,31,31,0,0,1-2.8-2.81,47.23,47.23,0,0,1-4.3-5.16,15.83,15.83,0,0,1-1.17-2,16.89,16.89,0,0,0,1,2.21,28.55,28.55,0,0,0,4,5.27,33.27,33.27,0,0,0,2.9,2.92,10.35,10.35,0,0,0,1.73,1.18,13.16,13.16,0,0,0,1.94.83c1.34.43,2.68.77,4,1.07a21.62,21.62,0,0,0,4.18.51,11.8,11.8,0,0,0,3.64-.49A9.17,9.17,0,0,0,117.84,164.64Z"/><path class="cls-6" d="M84.07,260.92l-2.86.79-2.88.76c-1.92.49-3.84,1-5.8,1.28,1.85-.26,3.66-.67,5.47-1.08s3.62-.87,5.42-1.34c9.22-2.36,18.5-5,27.77-7.75q12.21-3.6,24.41-7.32l1.08-.33-1.13-.17a12,12,0,0,1-2.16-.54,17.67,17.67,0,0,1-2.08-.83,19.86,19.86,0,0,1-3.78-2.34,22.58,22.58,0,0,1-5.68-6.71,30.47,30.47,0,0,1-1.83-4,36.64,36.64,0,0,1-1.23-4.2,49.65,49.65,0,0,1-1.09-8.69,196.16,196.16,0,0,1,.67-25.24c.24-2.95.54-5.89.88-8.83q-.65,4.54-1.13,9.09a163.74,163.74,0,0,0-1,24.72,49.86,49.86,0,0,0,1.06,8.84l.25,1.09.3,1.08c.19.73.46,1.43.69,2.14a31.38,31.38,0,0,0,1.85,4.1,23.07,23.07,0,0,0,5.82,6.94,21,21,0,0,0,3.91,2.43,18.38,18.38,0,0,0,2.16.87,13.11,13.11,0,0,0,2.28.57l0-.5q-12.54,3.82-25.12,7.54C101.52,255.89,92.76,258.5,84.07,260.92Z"/><path class="cls-6" d="M118,158a15.29,15.29,0,0,0,.42-3.15,14.94,14.94,0,0,1-.6,2.9,11.29,11.29,0,0,1-1.63,3.41,5.86,5.86,0,0,1-3,2.2,6.28,6.28,0,0,1-2,.24,9,9,0,0,1-2.05-.33l-1-.31c-.34-.12-.68-.21-1-.35a19.56,19.56,0,0,1-1.93-.86c-.31-.16-.63-.3-.93-.47l-.91-.54-.45-.27-.44-.29-.86-.59a28.55,28.55,0,0,1-3.2-2.7,27.62,27.62,0,0,1-4.45-5.42,8.47,8.47,0,0,1-1-2.26,8.08,8.08,0,0,0,.79,2.42,20.78,20.78,0,0,0,4.17,5.57,30.52,30.52,0,0,0,3.31,2.79l.9.62.45.3.47.28.94.55,1,.5a20.91,20.91,0,0,0,2,.88c.34.15.7.24,1.05.36s.69.23,1,.32a9.75,9.75,0,0,0,2.22.32,6.59,6.59,0,0,0,2.24-.34,6,6,0,0,0,3-2.37A10.28,10.28,0,0,0,118,158Z"/><path class="cls-18" d="M79,152c-5.16,0-27.42,19-36,35.88s-8.72,32.3,1.14,38.08,19.42-10.86,19.42-10.86a71.8,71.8,0,0,1,5.57-28.87C75.53,170.55,84.53,152,79,152Z"/><path class="cls-19" d="M43.27,187.87C51.84,171,74.1,152,79.26,152c3.71-1.92,14-2.75,14-2.75.43,3.3,7,11.83,16,14.3s9.43-8.66,9.43-8.66l5.57,2.47s3,0,5.14,5.37,9.43,19.79,32.14,30.92c2.7,1.33-11.14,6.6-12.86,28.05,0,0-22.23-11.58-30.39-25.35a168.16,168.16,0,0,0-.46,23.7c1.49,24,18,26,18,26s-55.27,16.9-63,17.73-21.56,6.18-21.56,6.18c-4-13-4-28-1.81-42.8A8.37,8.37,0,0,1,44.41,226C34.56,220.17,34.7,204.78,43.27,187.87Z"/><path class="cls-6" d="M48.68,227A8.61,8.61,0,0,1,44.11,226a8.65,8.65,0,0,0,4.28,1.32,9.6,9.6,0,0,0,2.91-.4A13.73,13.73,0,0,0,54,225.69,21.65,21.65,0,0,0,58.53,222a38.49,38.49,0,0,0,5.24-6.83l0-.06v-.08a56.67,56.67,0,0,1,.3-7.81,78.21,78.21,0,0,1,1.21-7.76,98.21,98.21,0,0,1,2.62-9.88c.36-1.14.78-2.26,1.17-3.4-.47,1.15-1,2.28-1.42,3.44a60.05,60.05,0,0,0-2.86,9.63,74.68,74.68,0,0,0-1.24,7.86,57,57,0,0,0-.31,7.95l0-.14a37.4,37.4,0,0,1-5.36,6.94c-.64.64-1.31,1.25-2,1.83a20.94,20.94,0,0,1-2.19,1.58,14.73,14.73,0,0,1-2.43,1.18A10.34,10.34,0,0,1,48.68,227Z"/><g class="cls-20"><path class="cls-21" d="M72.73,94.57s-7.9-5.77-8.46,5.6c-.09,1.85,2.82,6.33,5.33,7.91a6.19,6.19,0,0,0,5.58.65s-4.32-.6-5.74-13.88Z"/></g><path class="cls-22" d="M64.27,98.09a13.12,13.12,0,0,0,0,2.08,6.11,6.11,0,0,1,.38-1.41,9.54,9.54,0,0,1,1.45-2.48A4.18,4.18,0,0,1,70.64,95a9.37,9.37,0,0,0,2.19.33h.78l-.88-.8a5.8,5.8,0,0,0-2.35-1.41c-1.84-.43-3.67-.26-5,1.45A6.45,6.45,0,0,0,64.27,98.09Z"/><path class="cls-22" d="M75.18,108.73c-1.42-.31-3.15-2.49-4.34-5.52a42.74,42.74,0,0,1-2.38-9.59l1.33.56a37.08,37.08,0,0,0,1.54,8.55C72.2,105.48,73.69,107.93,75.18,108.73Z"/><path class="cls-23" d="M96.9,206.7l3.31.52-2.63-1.56,1-1.18,1.4.22-1.06-.63,4.36-5.34a362.14,362.14,0,0,1,68.84,16.77l-2,5.5L131.8,258.94l-44.27-3Z"/><path class="cls-24" d="M132.47,263l-56.08-3.26,18.85-53.88L170.08,221l-21.51,32.51q-2.87,1.55-5.75,3.19C139.34,258.7,135.86,260.82,132.47,263Z"/><path class="cls-25" d="M172.08,215.5c16.28-22.27,28.28-34.64,28.28-34.64l2.1,1-1,1.76,1.73-1.39,1.51.71-.67,1.23,1.21-1L207,184l-.68,1.25,1.22-1,2.69,1.27L208.93,188l2.43-1.95L215.5,188s-9.72,11.27-10.29,12.09-32.28,34.64-32.28,34.64l-5.14-1.92Z"/><path class="cls-16" d="M205.66,192.28l2.09-2.09-2.12,1.8c-1.81,1.54-3.6,3.15-5.35,4.81q-5.59,5.32-11,10.82c-1.54,1.56-3,3.16-4.43,4.78l-1.5,1.72,1.71-1.63c1.53-1.45,3.06-2.94,4.56-4.46q5.49-5.59,11.18-11Q203.28,194.69,205.66,192.28Z"/><path class="cls-16" d="M201.85,191.71c.65-.67,1.32-1.33,2-2l-2,1.7c-1.73,1.46-3.41,3-5,4.63q-5.21,5.17-9.94,10.75c-1.35,1.59-2.62,3.22-3.8,4.87l-1.25,1.77,1.47-1.69c1.31-1.5,2.63-3,3.94-4.57q4.8-5.66,10.09-10.9Z"/><path class="cls-16" d="M197.7,191.39c.54-.63,1.11-1.24,1.67-1.85-.58.52-1.17,1-1.74,1.58a52.84,52.84,0,0,0-4.23,4.36,100.79,100.79,0,0,0-7.91,10.32,48.23,48.23,0,0,0-2.8,4.71l-.87,1.71,1.1-1.66,3-4.43a102.11,102.11,0,0,1,8-10.44C195.17,194.24,196.44,192.8,197.7,191.39Z"/><path class="cls-16" d="M195.28,191.5c.54-.62,1.12-1.21,1.68-1.81-.58.51-1.18,1-1.75,1.54a46.14,46.14,0,0,0-4.19,4.31,76.47,76.47,0,0,0-7.5,10.43,43.86,43.86,0,0,0-2.47,4.82l-.73,1.74,1-1.7,2.67-4.55a76.52,76.52,0,0,1,7.58-10.53Q193.39,193.59,195.28,191.5Z"/><path class="cls-16" d="M155.79,215.45a17.24,17.24,0,0,0,4.65-.08,16.59,16.59,0,0,1-4.34-.12c-1.83-.26-3.65-.71-5.48-1.13s-3.67-.87-5.5-1.31c-7.85-1.89-15.64-4.06-23.63-5.47a72.66,72.66,0,0,0-10.22-1.15c-.6,0-1.2,0-1.8-.05l-1.8,0,1.85.13.93.07.92.1c3.28.32,6.6.81,9.91,1.4,8.09,1.42,16,3.64,24,5.56q2.63.63,5.25,1.17C152.27,214.9,154,215.26,155.79,215.45Z"/><path class="cls-16" d="M150.1,211.83a38.79,38.79,0,0,0,3.84,1c-1.2-.32-2.37-.73-3.53-1.16a76.39,76.39,0,0,0-9.09-3.25c-1.7-.41-3.42-.64-5.14-.88l-5.14-.71-10.29-1.41c-2.93-.4-5.85-.75-8.73-1l-3.07-.31,3.14.54c2.78.48,5.62.92,8.48,1.31L131,207.38l5.23.72a47,47,0,0,1,5.17.91C144.39,209.75,147.21,210.92,150.1,211.83Z"/><path class="cls-16" d="M156.4,216.42A33.91,33.91,0,0,1,161,218a35.54,35.54,0,0,0-4.24-1.73,84.8,84.8,0,0,0-11.59-2.68c-8.38-1.53-16.76-3-25.17-4.47-3.58-.61-7.17-1.14-10.7-1.59l-3.77-.47,3.85.7c3.42.63,6.91,1.25,10.41,1.84,8.54,1.44,17.06,3,25.59,4.55C149.11,214.84,152.83,215.43,156.4,216.42Z"/><path class="cls-26" d="M170.08,221a10.74,10.74,0,0,0,9.71-1.93L157.24,249c-4.64,2.32-9.53,4.91-14.42,7.72Z"/><g class="cls-27"><path class="cls-28" d="M155.84,244.91c10.18-3.59,18.89-10.2,28.61-14.83l-7.92,10c-5,2.14-11.46,5.06-18.56,8.61l-1.85.94-.19.1-1.73.89,0,0-3.83,2h0c-.34.18-.68.36-1,.55h0c-1.91,1-3.82,2.09-5.75,3.19-3.48,2-7,4.12-10.35,6.32l-56.08-3.26,9.77-27.93c9.48,5.89,19.56,10.93,30.4,13.86C129.87,248.8,143.57,249.22,155.84,244.91Z"/></g><polygon class="cls-16" points="128.66 254.26 139.8 240.66 102.52 233.65 99.52 248.49 128.66 254.26"/><path class="cls-29" d="M75.77,259.6l16.47-47.09c.79-2.26,1.59-4.53,2.38-6.8a.67.67,0,0,1,.79-.43l25.26,5.11L161,218.53l9.29,1.87c.81.17.47,1.36-.34,1.19l-25.27-5.1-40.29-8.14-9.28-1.88.79-.43L79.39,253.13q-1.2,3.39-2.38,6.8C76.74,260.68,75.5,260.36,75.77,259.6Z"/><path class="cls-30" d="M47.25,227.32c9.43,4.68,30.25.54,30.25.54a15.45,15.45,0,0,0,3.2,4c2.26,5.13,28.07,8,28.66,4.38.86-2-17-3.39-17.57-4.9.85.57,18.82,3.15,20.53,1.35,2.58-4.92-14.42-3.06-18.37-6.89l1,.27c2.85.82,14.65,2.13,15.85.6,3.29-4.15-10.26-2.94-17.26-8.92a4.72,4.72,0,0,1-2.07-2.41c1.48-2.52,4.38-6.94,2.07-7.83-2.86-1.1-6,2.2-8.29,4.12a45.22,45.22,0,0,0-4,3.85c-.85-.27-6.42,2.34-18.14-2.89-7.65-3.41-8.71-6.73-15-4.53S35.78,221.63,47.25,227.32Zm42.87-3.22"/><path class="cls-31" d="M157.24,249l22.55-29.91s37.71-33.54,38-32.71c.22.64-29.05,37.69-42,54-5,2.14-11.47,5.06-18.56,8.61C154.75,250.23,159.84,247.59,157.24,249Z"/><path class="cls-29" d="M179.34,218.64c11.33-10.09,22.62-20.27,34.33-30,.61-.51,3.74-3.82,4.67-2.62.49.63-.62,1.25-1.11.62.79,1,.81-.2.3.53a5.65,5.65,0,0,1-.94.71c-1,.81-2,1.66-3.05,2.5-3.06,2.57-6.09,5.19-9.1,7.81q-9.93,8.63-19.76,17.35l-4.44,3.94C179.64,220.05,178.73,219.18,179.34,218.64Z"/><path class="cls-32" d="M178.93,220.17c1.1-.88-4.28-5.22-6.85-4.67s-2.86,4.4-2,5.5S175.51,222.92,178.93,220.17Z"/><path class="cls-29" d="M142.27,256.39l23.81-31.2,3.44-4.5a.7.7,0,0,1,.73-.29,10.19,10.19,0,0,0,9.09-1.76c.51-.45,1.46.15,1,.75l-19.71,26.13-2.85,3.77c-.48.64-1.59,0-1.11-.62l19.71-26.13,1-1.31a12.32,12.32,0,0,1-7,.46l-23.52,30.82q-1.73,2.25-3.44,4.51C142.89,257.65,141.78,257,142.27,256.39Z"/><path class="cls-33" d="M158.53,122.8a10,10,0,0,1-9.28,2.79c-6-1.09.26-1.09,2.55-2.19S159.69,121.41,158.53,122.8Z"/><path class="cls-34" d="M153.08,279.42c2.54,2-6.71,10.45-14.14,10.72s-43.13-10.58-44-10.86c-6,7.48-16.49,10-22.42,10.16-11.93.38-21.17-11.59-21.28-20.88-.09-7.5,37.42-21.17,44.56-22s13.19-.49,20.28,4.94C120.32,254.75,142.35,271,153.08,279.42Z"/><path class="cls-35" d="M158,243.13c1.93-3.09,16.07-20,15.21-20.62a1.79,1.79,0,0,0-2.57.41c-.43.83-15.64,21-15.64,21S157.37,244.16,158,243.13Z"/><path class="cls-35" d="M165.51,223.75c1.07-.21,2.14-1.65.64-1.65s-68.55-14.64-69-13.82a1.16,1.16,0,0,0,.85,1.65C98.67,210.14,165.51,223.75,165.51,223.75Z"/><path class="cls-36" d="M135.09,272.41c-1.92-2.77-2.57.41-5.57-3.71S124.71,262.37,118,258s-8.14-7.84-12.86-7.84-9,5.36-6.42,9.07.43,3.3,6.85,5,3.43-.41,11.57,3.3S141.09,281.07,135.09,272.41Z"/><path class="cls-37" d="M93.1,251.38c2.45,2.65,2.57,5.36,0,7s-27.85,11.13-29.57,8.25,2.57-5.37,5.57-5.78S89.67,247.67,93.1,251.38Z"/><ellipse class="cls-38" cx="132.05" cy="109.35" rx="8.14" ry="9.18"/><ellipse class="cls-38" cx="164.65" cy="106.34" rx="6.57" ry="8.45"/><path class="cls-39" d="M133.52,106c4.2,0,5.88,4.32,5.62,8.17a13,13,0,0,1-4.4,3.85c-2.48,1.08-5.23.36-7.86-1.7C125.47,111.11,129,106,133.52,106Z"/><path class="cls-39" d="M165.63,102.14c3.74,0,4.52,5.29,4.84,8.1-.58,3.21-6.18,6.45-9.5,2.9C159.67,108.32,162.16,102.14,165.63,102.14Z"/><path class="cls-40" d="M169,106.34s2.72,6.81-4.32,7.33A8.52,8.52,0,0,0,169,106.34Z"/><path class="cls-40" d="M137.43,110s2.72,6.82-4.33,7.34A8.55,8.55,0,0,0,137.43,110Z"/><circle class="cls-16" cx="162.38" cy="105.07" r="1.76"/><circle class="cls-16" cx="129.26" cy="108.41" r="1.76"/><path class="cls-41" d="M90.62,235.36c1.53,1,8.1,3.26,10.61,3.79a.78.78,0,0,1,.13,1.49c-3.51,1.28-16,.2-20.66-8.76"/><path class="cls-42" d="M103.16,134.29a6.77,6.77,0,0,0,1.37,2.6l.45.57.51.52c.32.36.7.67,1.05,1a37.79,37.79,0,0,0,4.76,3.42c1.7,1,3.42,2,5.19,2.95.9.44,1.76,1,2.66,1.44s1.79,1,2.66,1.53a30.55,30.55,0,0,1-6-1.55,32.27,32.27,0,0,1-5.6-2.67,21.09,21.09,0,0,1-4.82-4,11.32,11.32,0,0,1-1.74-2.68A5.34,5.34,0,0,1,103.16,134.29Z"/><path class="cls-39" d="M140.19,90.8v3.5s-16.25-4.2-18.38,4.46c0,0,0-10.32,14.14-7.44a2.25,2.25,0,0,1,2,1.32c.45,1.27.55-1.84.55-1.84l.68,2.31Z"/><path class="cls-39" d="M158.43,88.1v3.5s12.58-4.2,14.23,4.46c0,0,0-10.32-10.95-7.43a1.71,1.71,0,0,0-1.54,1.31c-.35,1.28-.42-1.84-.42-1.84l-.53,2.31Z"/><path class="cls-43" d="M172.08,271.59a13.6,13.6,0,0,1,2.39,2A23,23,0,0,1,176.4,276a20.87,20.87,0,0,1,1.57,2.62,12.77,12.77,0,0,1,1.11,2.94,13.26,13.26,0,0,1-2.4-2,20.72,20.72,0,0,1-1.92-2.37,21.49,21.49,0,0,1-1.57-2.61A13,13,0,0,1,172.08,271.59Z"/><path class="cls-43" d="M169.07,273.7a13.23,13.23,0,0,1,2.39,2.05,21.83,21.83,0,0,1,1.93,2.36,20.87,20.87,0,0,1,1.57,2.62,12.77,12.77,0,0,1,1.11,2.94,12.86,12.86,0,0,1-2.39-2,19.78,19.78,0,0,1-1.93-2.37,21.49,21.49,0,0,1-1.57-2.61A13.51,13.51,0,0,1,169.07,273.7Z"/><path class="cls-43" d="M165.57,275.47a13.19,13.19,0,0,1,2.39,2,23,23,0,0,1,1.93,2.37,20.87,20.87,0,0,1,1.57,2.62,12.77,12.77,0,0,1,1.11,2.94,12.86,12.86,0,0,1-2.39-2,20.61,20.61,0,0,1-1.93-2.37,20.87,20.87,0,0,1-1.57-2.62A12.77,12.77,0,0,1,165.57,275.47Z"/><path class="cls-43" d="M99.15,281.6a13.67,13.67,0,0,1,2.4,2,21.62,21.62,0,0,1,1.92,2.37,20.94,20.94,0,0,1,1.58,2.62,13.75,13.75,0,0,1,1.11,2.94,12.92,12.92,0,0,1-2.4-2,20.72,20.72,0,0,1-1.92-2.37,20.94,20.94,0,0,1-1.58-2.62A13.75,13.75,0,0,1,99.15,281.6Z"/><path class="cls-43" d="M96.15,283.71a14,14,0,0,1,2.39,2,21.62,21.62,0,0,1,1.92,2.37,19.8,19.8,0,0,1,1.58,2.62,13.24,13.24,0,0,1,1.11,2.94,13.26,13.26,0,0,1-2.4-2,20.72,20.72,0,0,1-1.92-2.37,22.92,22.92,0,0,1-1.58-2.61A13.49,13.49,0,0,1,96.15,283.71Z"/><path class="cls-43" d="M92.65,285.48a13.54,13.54,0,0,1,2.39,2A21.62,21.62,0,0,1,97,289.89a19.8,19.8,0,0,1,1.58,2.62,13.24,13.24,0,0,1,1.11,2.94,13.26,13.26,0,0,1-2.4-2A21.62,21.62,0,0,1,95.33,291a20.94,20.94,0,0,1-1.58-2.62A13.22,13.22,0,0,1,92.65,285.48Z"/><path class="cls-44" d="M180.13,24.34S96.74-4.43,73.61,86.16C66.24,46.28,123.91-9.35,180.13,24.34Z"/><path class="cls-45" d="M122.93,127l11.68,4.9s.18,1.22,1.84.7,5,1.69,8.31,1.15S129.26,140.22,122.93,127Z"/><path class="cls-45" d="M142.08,134.48l-18.4-5.79C121.81,138.51,139.38,143,142.08,134.48Z"/><path class="cls-22" d="M146.23,124.36a1.82,1.82,0,0,0,.48.58,4.33,4.33,0,0,0,2.54.65,14.87,14.87,0,0,0,2.73-.23,16.84,16.84,0,0,0,3.43-.91,9.34,9.34,0,0,0,1.56-.75,3.69,3.69,0,0,0,.65-.49,1.79,1.79,0,0,0,.22-.28c0-.05,0-.1,0-.13a.62.62,0,0,0,0-.15,7.1,7.1,0,0,0-.37-2.3,2.68,2.68,0,0,0-.56-1,1.52,1.52,0,0,0-1-.47l-.37,0-.38.07.4-.16a3.39,3.39,0,0,1,.44-.08,1.71,1.71,0,0,1,1.2.39,2.93,2.93,0,0,1,.75,1,5.81,5.81,0,0,1,.53,2.38.78.78,0,0,1,0,.26.88.88,0,0,1-.07.3,1.55,1.55,0,0,1-.31.46,4.16,4.16,0,0,1-.77.63,10.27,10.27,0,0,1-1.7.83,18.33,18.33,0,0,1-3.63,1,10.73,10.73,0,0,1-2.83.11,5.82,5.82,0,0,1-1.39-.29,2.91,2.91,0,0,1-1.19-.73A1.89,1.89,0,0,1,146.23,124.36Z"/><path class="cls-22" d="M121.26,125.7a4.18,4.18,0,0,1,.65-.53l0,0,.19-.13a1,1,0,0,1,.81-.07l.13,0-.1.11a1.76,1.76,0,0,1-.51.45l-.27.18a.83.83,0,0,0,.07.13,15,15,0,0,0,2.4,3.3,25,25,0,0,0,3.13,2.76,17,17,0,0,0,4.72,2.57,15.48,15.48,0,0,0,5.4.3,72.23,72.23,0,0,0,7.59-1.11l1.14-.23-1.24.42a34.11,34.11,0,0,1-7.28,1.53,16.9,16.9,0,0,1-5.75-.3,17.69,17.69,0,0,1-5-2.73,18.77,18.77,0,0,1-3.08-2.89,12.28,12.28,0,0,1-2.13-3.52l-.06-.16a4,4,0,0,0-.37.34,2.25,2.25,0,0,1-.65.44l-.13.06v-.13A1.12,1.12,0,0,1,121.26,125.7Z"/></g></g></svg>