<svg xmlns="http://www.w3.org/2000/svg" viewBox="0 0 248.8 398.87"><defs><style>.cls-1{isolation:isolate;}.cls-2{fill:#a55858;}.cls-17,.cls-3,.cls-5{opacity:0.2;}.cls-4{fill:#8c4646;}.cls-25,.cls-28,.cls-5{fill:#fff;}.cls-6{fill:#a75136;}.cls-7{fill:#22b0d3;}.cls-10,.cls-16,.cls-8,.cls-9{fill:#14737c;}.cls-25,.cls-8{opacity:0.5;}.cls-9{opacity:0.7;}.cls-11{fill:#bfd856;}.cls-12{fill:#586d0f;}.cls-13{fill:#b1ba43;}.cls-14,.cls-15{fill:#dce869;}.cls-14,.cls-20{opacity:0.6;}.cls-15{opacity:0.8;}.cls-16{opacity:0.3;mix-blend-mode:multiply;}.cls-17{fill:#8ddae2;mix-blend-mode:screen;}.cls-18{fill:#44b4a6;}.cls-19,.cls-20{fill:#2b4f68;}.cls-21{fill:#ed8707;}.cls-22{fill:#cf4809;}.cls-23{fill:#e5393b;}.cls-24{fill:#f0c01a;}.cls-26{fill:#1d3d4f;}.cls-27{fill:#f46067;}</style></defs><g class="cls-1"><g id="Layer_1" data-name="Layer 1"><rect class="cls-2" x="194.83" y="28.05" width="5.37" height="10.13" transform="translate(43.02 -94.32) rotate(30)"/><ellipse class="cls-3" cx="161.05" cy="210.26" rx="33.87" ry="7.19"/><rect class="cls-4" x="124.3" y="150.21" width="5.37" height="10.13" transform="translate(94.65 -42.69) rotate(30)"/><rect class="cls-4" x="142.12" y="182.99" width="38.52" height="5.46" rx="2.73"/><path class="cls-4" d="M177.91,188.45h-33s-.83,5.59-4.22,8.49h41.49C178.74,194,177.91,188.45,177.91,188.45Z"/><rect class="cls-4" x="135.12" y="196.94" width="52.52" height="13.92" rx="6.96"/><path class="cls-5" d="M179.51,184.38a2.06,2.06,0,0,0-1.6-.75h-33a2.06,2.06,0,0,0-1.6.75Z"/><path class="cls-5" d="M185.83,198.59a3.69,3.69,0,0,0-2.53-1H139.47a3.69,3.69,0,0,0-2.53,1Z"/><path class="cls-3" d="M178.17,189.67c-.19-.74-.26-1.22-.26-1.22h-33s-.07.48-.26,1.22Z"/><polygon class="cls-4" points="165.64 171.01 157.13 171.01 156.12 182.99 166.65 182.99 165.64 171.01"/><path class="cls-6" d="M201.83,25.65A80.5,80.5,0,0,0,192,20.84,2.77,2.77,0,0,0,188.57,22h0A2.76,2.76,0,0,0,190,26a65.35,65.35,0,0,1,9.14,4.38c33.16,19.14,45.13,64.15,24.77,99.41S158.56,177.18,125.4,158A64.91,64.91,0,0,1,117,152.3a2.77,2.77,0,0,0-4.13.77h0a2.76,2.76,0,0,0,.68,3.56,80.2,80.2,0,0,0,9.09,6.12,79.15,79.15,0,0,0,79.15-137.1Z"/><circle class="cls-7" cx="164.88" cy="95.16" r="65.84"/><path class="cls-8" d="M119.07,82.52c13.41,5.35,2.75,10.33.92,18.7-1.4,6.35,8.55,21.89,1.66,26-5.16,3.06-28.85-34-11-41.88Z"/><path class="cls-9" d="M181.77,131.8c7.25,2.16,16.49,8,13.11,14.73-2.63,5.22-14.26,9.5-20.18,10.71-5.32,1.08-18.39-3.12-16.95-10.11,1.15-5.54,13.25-8.44,17.06-13.13Z"/><path class="cls-10" d="M196.82,124.36c-2.51,2.47-6.89,6.92-11.24,7.93-10.54,2.46-2.22-2.47-.67-5.36,1.17-2.17-.4-6,3.15-8.24,3.84-2.38,8.07-.87,9.19,1.52Z"/><path class="cls-11" d="M181.3,97.29c-1.65,3.23-4.29,6.26-1.29,9.55-.19.15-.33.4-.56.56a3.11,3.11,0,0,1,1.29,3.56c-.28,1.07-1,1-1.35,1.77-.37,1,.51,1.33.42,2.15-.27,2.42-4,3.63-5.68,4.82-2.43,1.73-4.59,4-7.1,5.63s-5.66.45-7.77,2.89a13.62,13.62,0,0,0-2.25,3.56c-.5,1.44,0,3.12-.84,4.44-.9,1.51-1.79,1.46-2.34,3.38-.43,1.47-.94,3-1.5,4.49a5.87,5.87,0,0,1-.75,1.92c-.54.57-1.22.3-1.5.54-1.12,1-.78,2.32-1.53,3.35a6.74,6.74,0,0,1-6.75,2.42,5.38,5.38,0,0,0-1.65-.21c.11-1.21,1.25-.82,2-1.28,1.46-.87.7-.6.89-2.21a11.21,11.21,0,0,0,0-2.09c0-1-.94-1.51-.17-2.59a1,1,0,0,1-.94-1.32c-1.81-.39-5.29-3.45-3.17-5.23-2.92-1.7-4.83-2.44-5.4-6-.22-1.37-.13-3.12-.7-4.35-.66-1.41-2.26-2.37-3.29-3.46a17.21,17.21,0,0,1-4.21-7.2c-.69-3.11.59-5.56-.89-8.42s-3.87-6.49-.09-7.82c3.39-1.19,6.23-1,9.7-1,.58-2.3,3.43-.5,4.87-.17.37-1.73,2.62-.3,3.75-.39a6.2,6.2,0,0,0-.93-1.65c.54-.72,1.29-1.28,1.75-2s.44-1.6,1.11-2.06c1.76-1.21,4.41,0,6.14.48,2.69.66,3.18-.57,5.29-1.59.35-.17,1-.26,1.26-.42a9.89,9.89,0,0,0,1-1c.9-.4,1.95.1,2.06-1.27,3.21.32,5.41,2.72,8.95,1.84a7.63,7.63,0,0,1,1.73-.52c.92.23.36.65,1,1.13,1.83,1.28.87.4,1.92-1,1,1.06,4.57,6.65,5.62,6.2Z"/><path class="cls-12" d="M141.75,152.55a5.32,5.32,0,0,0-1.59-.21l-.27,0,0-.27c.09-1,.79-1.11,1.35-1.22a2.59,2.59,0,0,0,.79-.24c.84-.5.83-.52.79-.88a4.17,4.17,0,0,1,0-1.16,8.87,8.87,0,0,0,0-1.71v-.34a2.63,2.63,0,0,0-.24-.84,1.67,1.67,0,0,1-.06-1.61,1.22,1.22,0,0,1-.83-1.29c-1.32-.4-3.35-2-3.75-3.56a1.87,1.87,0,0,1,.44-1.8l-.57-.33c-2.49-1.43-4.14-2.37-4.67-5.71-.08-.46-.11-.94-.16-1.46a8.59,8.59,0,0,0-.52-2.83,7.67,7.67,0,0,0-2.07-2.32,13.84,13.84,0,0,1-1.17-1.08A17.58,17.58,0,0,1,125,116.4a13.45,13.45,0,0,1-.18-3.7,8.5,8.5,0,0,0-.68-4.66l-.41-.78c-1-1.91-2.17-4.07-1.54-5.69a3,3,0,0,1,2-1.68,19.92,19.92,0,0,1,7-1l1.72,0h.86a1.55,1.55,0,0,1,1.6-1.16,7.42,7.42,0,0,1,2.39.62c.32.12.62.23.89.31a1.18,1.18,0,0,1,1.23-.8,5.77,5.77,0,0,1,1.43.26c.32.08.63.16.9.2a6,6,0,0,0-.76-1.26l-.11-.14.1-.15a10.44,10.44,0,0,1,.83-.92,7.64,7.64,0,0,0,.92-1.08,3.58,3.58,0,0,0,.31-.74,2.59,2.59,0,0,1,.86-1.39,3.34,3.34,0,0,1,1.95-.55,11.2,11.2,0,0,1,3.25.67l1.13.33a5.46,5.46,0,0,0,1.3.18,4,4,0,0,0,2.35-.9,11.2,11.2,0,0,1,1.48-.86,3.65,3.65,0,0,1,.66-.22,2.61,2.61,0,0,0,.58-.19,12.5,12.5,0,0,0,.9-.88l.19.13-.09-.21h.05a3.36,3.36,0,0,1,.88-.2c.6-.07.93-.11,1-.86l0-.23.23,0a12.55,12.55,0,0,1,3.54,1,10.06,10.06,0,0,0,3.84,1,6,6,0,0,0,1.5-.19l.51-.18a2.83,2.83,0,0,1,1.32-.33c.6.14.71.39.8.7a.71.71,0,0,0,.32.46,5.92,5.92,0,0,0,.91.57,1.14,1.14,0,0,0,.07-.22,3.77,3.77,0,0,1,.62-1.31l.16-.21.19.19c.32.33.85,1.06,1.47,1.9,1.18,1.59,3.15,4.26,3.84,4.26h0l.08,0,2.22.66-.12.25c-.27.52-.56,1-.84,1.53-1.49,2.63-2.9,5.11-.49,7.75l.17.19-.2.15a2.08,2.08,0,0,0-.2.21l-.14.16A3.26,3.26,0,0,1,181,111a2,2,0,0,1-.82,1.17,1.39,1.39,0,0,0-.53.63,1.09,1.09,0,0,0,.16,1.05,1.69,1.69,0,0,1,.27,1c-.21,1.92-2.4,3.1-4.15,4a18.09,18.09,0,0,0-1.62.94c-1.08.77-2.13,1.67-3.14,2.54a37.13,37.13,0,0,1-4,3.1,8.92,8.92,0,0,1-3.6,1.09c-1.53.22-3,.44-4.12,1.75a13,13,0,0,0-2.21,3.48,7.1,7.1,0,0,0-.28,1.9,5.45,5.45,0,0,1-.58,2.59,6.24,6.24,0,0,1-1.1,1.34,3.87,3.87,0,0,0-1.22,2c-.39,1.34-.88,2.82-1.5,4.51-.06.16-.11.36-.17.57a3.44,3.44,0,0,1-.63,1.43,1.68,1.68,0,0,1-1.17.49.83.83,0,0,0-.34.07,3,3,0,0,0-.89,1.78,4.17,4.17,0,0,1-.61,1.53,7,7,0,0,1-5.52,2.69h0A5.86,5.86,0,0,1,141.75,152.55Zm38.51-53.84c.24-.42.48-.85.7-1.27L179.43,97h-.14c-.86,0-2.35-1.93-4.21-4.45-.5-.67-.94-1.26-1.24-1.63a3.16,3.16,0,0,0-.38.91c-.07.27-.16.57-.48.57s-.52-.17-1.22-.66a1.16,1.16,0,0,1-.5-.72c0-.19-.08-.28-.46-.37h0a4.79,4.79,0,0,0-1,.31,5.88,5.88,0,0,1-.57.2,6.4,6.4,0,0,1-1.61.2,10.69,10.69,0,0,1-4-1,12.66,12.66,0,0,0-3.18-1c-.16.9-.8,1-1.37,1.05a3.06,3.06,0,0,0-.73.15l-.41.42a6.86,6.86,0,0,1-.59.53,2.54,2.54,0,0,1-.71.25,4,4,0,0,0-.58.19,11.84,11.84,0,0,0-1.43.83,4.42,4.42,0,0,1-2.6,1,5.78,5.78,0,0,1-1.41-.19c-.36-.09-.75-.21-1.16-.34a11.2,11.2,0,0,0-3.11-.65,3,3,0,0,0-1.69.47,2.24,2.24,0,0,0-.68,1.16,3.94,3.94,0,0,1-.36.84,6.77,6.77,0,0,1-1,1.15c-.23.24-.47.48-.68.74a6.09,6.09,0,0,1,.86,1.57l.1.29-.3,0h-.13a5.36,5.36,0,0,1-1.26-.23,5.57,5.57,0,0,0-1.31-.25A.76.76,0,0,0,139,99l-.05.24-.22-.06a8.88,8.88,0,0,1-1.17-.39,7.17,7.17,0,0,0-2.22-.58,1.11,1.11,0,0,0-1.2,1l0,.18h-.18l-1,0h-1.71a19.63,19.63,0,0,0-6.87,1,2.58,2.58,0,0,0-1.71,1.41c-.55,1.42.55,3.48,1.52,5.3l.41.79a8.76,8.76,0,0,1,.73,4.89,12.84,12.84,0,0,0,.18,3.57,17,17,0,0,0,4.15,7.1c.34.35.73.69,1.14,1a7.94,7.94,0,0,1,2.19,2.48,8.88,8.88,0,0,1,.57,3c0,.5.08,1,.15,1.41.5,3.13,2,4,4.44,5.39l.84.48.29.17-.25.21a1.46,1.46,0,0,0-.53,1.56c.37,1.5,2.44,3,3.6,3.27l.21,0,0,.22a.82.82,0,0,0,.76,1.05l.36.07-.22.3a1.22,1.22,0,0,0-.06,1.44,2.87,2.87,0,0,1,.27,1l0,.34a9.77,9.77,0,0,1,0,1.79,3.74,3.74,0,0,0,0,1c.08.61,0,.76-1,1.34a2.86,2.86,0,0,1-.94.3c-.52.1-.81.17-.93.54a6.2,6.2,0,0,1,1.43.23,5.45,5.45,0,0,0,1.36.17h0a6.55,6.55,0,0,0,5.14-2.51,3.58,3.58,0,0,0,.53-1.36,3.53,3.53,0,0,1,1-2,1.1,1.1,0,0,1,.6-.19,1.25,1.25,0,0,0,.89-.34,3.15,3.15,0,0,0,.51-1.23c.06-.22.12-.43.18-.61.62-1.68,1.11-3.14,1.49-4.48a4.28,4.28,0,0,1,1.35-2.18,6.06,6.06,0,0,0,1-1.25,5,5,0,0,0,.52-2.38,7,7,0,0,1,.3-2,14,14,0,0,1,2.3-3.63c1.25-1.45,2.85-1.69,4.41-1.92a8.3,8.3,0,0,0,3.41-1,35.39,35.39,0,0,0,3.92-3.06c1-.87,2.07-1.78,3.17-2.56a17.93,17.93,0,0,1,1.66-1c1.75-1,3.73-2,3.92-3.69a1.26,1.26,0,0,0-.23-.76,1.57,1.57,0,0,1-.17-1.44,1.86,1.86,0,0,1,.67-.83,1.51,1.51,0,0,0,.66-.92,2.89,2.89,0,0,0-1.21-3.32l-.25-.2.27-.18a1.48,1.48,0,0,0,.28-.28l.09-.09C177.26,104,178.79,101.31,180.26,98.71Z"/><path class="cls-11" d="M182.05,96.92c1.51.48,2.65,1.45,4.26.51A3.39,3.39,0,0,0,188,94.11c0-1.53-.95-3.3.37-4.11,1.64-1,3.48.78,5,.91.29-1.85-3.16-9.29,1.29-7,2.67,1.34,3.38,5.84,6.94,5.36.63-3.59.36-13.34-3.9-13.82-1.44-.17-2.78.16-4.12-.37-1.18-.48-2.12-1.67-3.41-1.84-3.21-.42-2.64,3.92-5.2,4.47-1.23-1.28-.56-2.84-.19-4.33a3.92,3.92,0,0,0-.88-4.15c-1.46-1.8-8-4.58-5.27-7.45a24.32,24.32,0,0,1-2.22-3.19,17,17,0,0,0-3.25-2.61c1.3-1.23-2.87-3.53-3.88-4.1,0,.43-.23.68-.25,1.07-.86.17-4.48-2.55-4.09-3.53.68-1.73,4.24,1.89,3.78-2,.22,0,.47-.07.7-.07-1.11-1.36-2.61-.37-3.92-1.08-1-.57-1.57-2.15-1.88-3.19,1-.94,2.19-.43,3.2-1.67s1.35-2.56,3.34-2.42c-.35,2.33,1.54.6,2.27.4,1.47-.4,2.31.44,3.72.54a11,11,0,0,0,.21,3.15c.36,1,1.21,1.32,1.69,2.24.37.71-.13,2.45.93,2.78,1.3.41.34-1.76.41-2.37,1.3-.07,3.3.22,4.46-.36,1.72-.85,0-1.63-1.31-2.52-1.76-1.23-6.42-3.61-4.47-6.32a2.83,2.83,0,0,0-2.83-.37c-.76.45-1.31,2,.35,1.71,0,.23,0,.48,0,.69-1.68.47-7.6.43-3.37-1.5-.07-.91-.95-.84-1.81-.74a4.34,4.34,0,0,0,0-.51c2.27-.63,5.12-.47,7.44-.62-1-.86-.28-1.64-.52-2.75,1.65.2,4.06,1.1,3.75,3.12,1.84.24.89,2.3,2,3.22a11.41,11.41,0,0,0,4.47,1.84c.46-2.92,5.5,2.08,6.24.25a13,13,0,0,1,9.71,3.11,18.44,18.44,0,0,0,4.26,2.53c2.39,1.28,1.89,2.32,2.45,4.59-.86.25-5.54-2.45-6.16-3.36-1.15,1.2.35,1.73.89,2.69s.4,2.54,1.21,3.51c1,1.19,1.75.58,2.21,2.06.5,1.63.08,2.38,1.09,3.74,1.41,1.91,3.59,3.87,4.71,5.81,1.28,2.19.86,5,2.45,7.11-2.59,2.51-1.78,7.12-.59,9.92-.3.06-.57.35-.89.41,0,1.7-1.18,2.38-1,4a3.86,3.86,0,0,1-.68,0c-.82-1.5.92-3.46,1.1-5,.13-1.16.15-4.58-.76-5.26-1.22.74,0,2.61-.23,3.72s-1.44,2.54-1.88,3.74c-1,2.76-.48,5.67-3.32,7.11a23.33,23.33,0,0,1-4.68,1.54c-1.53.38-2.89-.08-4.12.19s-2.36,1.54-3.56,2c-1.44.57-3.07-.21-4.35.37-.6.28-1.11,1.5-1.59,2-1,1-1.4.79-2.62,1.27-1.82.71-3.89,3-4.91.74Z"/><path class="cls-12" d="M182.4,99.45l-.67-2.88.39.13c.36.11.7.26,1,.39a4.78,4.78,0,0,0,1.81.5,2.45,2.45,0,0,0,1.24-.36,3.13,3.13,0,0,0,1.61-3.12,7.71,7.71,0,0,0-.16-1.41c-.19-1.11-.4-2.26.65-2.9a2.25,2.25,0,0,1,1.22-.34,5.7,5.7,0,0,1,2.25.66,7.38,7.38,0,0,0,1.46.52,13.61,13.61,0,0,0-.45-2.46c-.43-1.85-.89-3.77-.25-4.58a1,1,0,0,1,.86-.38,3.36,3.36,0,0,1,1.46.44,8,8,0,0,1,2.63,2.64c1,1.4,2,2.72,3.68,2.72h.32c.48-3,.31-9.41-1.73-12.12a2.86,2.86,0,0,0-2-1.26,7.89,7.89,0,0,0-1,0h-.92a5.7,5.7,0,0,1-2.21-.34,7.22,7.22,0,0,1-1.44-.86,4.43,4.43,0,0,0-1.92-1,2.55,2.55,0,0,0-.39,0c-1.31,0-1.83,1-2.39,2.11s-1.08,2.11-2.34,2.38l-.12,0-.09-.1c-1.17-1.21-.78-2.61-.41-4,.05-.19.11-.39.15-.58a3.69,3.69,0,0,0-.83-4,12.79,12.79,0,0,0-2.09-1.7C180,66.37,178,65,177.82,63.36a2.17,2.17,0,0,1,.56-1.62A9.23,9.23,0,0,1,177.13,60a11.37,11.37,0,0,0-.84-1.29,8.36,8.36,0,0,0-2.09-1.76c-.37-.26-.76-.52-1.12-.81l-.21-.17.2-.18a.48.48,0,0,0,.17-.44c-.09-.71-1.33-1.76-3.69-3.11a2.39,2.39,0,0,1-.11.32,1.47,1.47,0,0,0-.11.38v.19l-.18,0H169c-.86,0-3.15-1.63-4-2.81a1.17,1.17,0,0,1-.26-1,1,1,0,0,1,1-.64,4.57,4.57,0,0,1,1.11.2,4.42,4.42,0,0,0,1,.18.57.57,0,0,0,.47-.17c.21-.23.26-.72.18-1.47l0-.24.24,0,.19,0a2.51,2.51,0,0,0-1.6-.37h-.17a3.41,3.41,0,0,1-1.73-.32c-1.17-.63-1.71-2.38-2-3.32l0-.14.11-.09a3.25,3.25,0,0,1,1.54-.75,2.71,2.71,0,0,0,1.64-.91c.21-.27.4-.53.58-.79a3,3,0,0,1,2.64-1.72h.31l.25,0,0,.25c-.1.63,0,.83,0,.88s.05,0,.14,0a2.92,2.92,0,0,0,1.06-.44,3.35,3.35,0,0,1,.73-.35,3.17,3.17,0,0,1,.85-.12,4.8,4.8,0,0,1,1.55.32,5.89,5.89,0,0,0,1.39.33h.21v.21c0,.31,0,.66,0,1a5.89,5.89,0,0,0,.2,2.09,3.19,3.19,0,0,0,.82,1.12,4.89,4.89,0,0,1,.86,1.1,3.19,3.19,0,0,1,.2,1.14c0,.82.1,1.37.59,1.52l.21,0c.09,0,.11,0,.12,0,.14-.18,0-.87-.1-1.29a3.38,3.38,0,0,1-.13-.88l0-.2h2.3a5.57,5.57,0,0,0,2.28-.35c.37-.18.58-.37.58-.53,0-.32-.69-.79-1.32-1.19l-.6-.4c-.23-.16-.52-.35-.83-.54-1.62-1-3.84-2.47-4.17-4.21a2.27,2.27,0,0,1,.36-1.73,2.64,2.64,0,0,0-1.48-.39,1.93,1.93,0,0,0-.93.19,1.27,1.27,0,0,0-.61,1.09c0,.15.2.22.46.22l.34,0,.25,0,0,.25c0,.13,0,.27,0,.4s0,.21,0,.29l0,.19-.19.05a10.44,10.44,0,0,1-2.51.26c-1.64,0-2.53-.25-2.64-.75s.36-.85,1.47-1.37c-.07-.26-.26-.42-.82-.42a5.92,5.92,0,0,0-.71,0l-.3,0,0-.3a3.09,3.09,0,0,0,0-.43l0-.21.2,0A22.91,22.91,0,0,1,175.8,35c.56,0,1.09,0,1.6-.05a1.88,1.88,0,0,1-.23-1.46,3.24,3.24,0,0,0,0-1l-.06-.32.32,0a5.47,5.47,0,0,1,3.52,1.65,2.24,2.24,0,0,1,.46,1.51c1,.24,1.17,1.07,1.3,1.81a2.14,2.14,0,0,0,.61,1.42,12,12,0,0,0,4.13,1.78,1.12,1.12,0,0,1,1.17-.93,7,7,0,0,1,2.52.86,6.4,6.4,0,0,0,2.08.74.42.42,0,0,0,.45-.27l.05-.13h.14c.41,0,.83-.06,1.24-.06a13.15,13.15,0,0,1,8.64,3.22,11.31,11.31,0,0,0,2.91,1.83l1.31.67a3.68,3.68,0,0,1,2.3,3.36c.06.41.14.87.26,1.39l.06.22-.22.06-.19,0c-1.12,0-5-2.2-6-3.25-.4.52-.13.84.42,1.4a3.86,3.86,0,0,1,.68.82,5.72,5.72,0,0,1,.49,1.6,4.06,4.06,0,0,0,.69,1.87,2.72,2.72,0,0,0,1.07.79,1.82,1.82,0,0,1,1.18,1.35,7.71,7.71,0,0,1,.31,1.59,3.79,3.79,0,0,0,.74,2.08c.58.78,1.3,1.58,2,2.36a23.27,23.27,0,0,1,2.73,3.47,10.6,10.6,0,0,1,1.07,3.34,9.2,9.2,0,0,0,1.37,3.75l.12.16-.15.15c-2.43,2.34-1.81,6.67-.54,9.66l.11.26-.28.06a1.23,1.23,0,0,0-.33.16,1.84,1.84,0,0,1-.37.19,4.47,4.47,0,0,1-.54,1.9,3.44,3.44,0,0,0-.46,2l0,.24h-.24a4.45,4.45,0,0,1-.73,0h-.12l-.06-.11c-.57-1,0-2.23.46-3.38a6.72,6.72,0,0,0,.61-1.78c.16-1.34.09-4.15-.54-4.93-.41.37-.32,1-.12,1.88a3.53,3.53,0,0,1,.13,1.59,8.54,8.54,0,0,1-1,2.06,11.26,11.26,0,0,0-.89,1.71,15.71,15.71,0,0,0-.62,2.45c-.37,1.92-.72,3.73-2.82,4.79A24,24,0,0,1,203.82,93a6.25,6.25,0,0,1-1.49.16q-.48,0-.93,0l-.82,0a4.51,4.51,0,0,0-.89.08,5.76,5.76,0,0,0-1.92,1,7.63,7.63,0,0,1-1.6,1,3.7,3.7,0,0,1-1.45.24c-.3,0-.6,0-.89,0l-.83,0a2.8,2.8,0,0,0-1.17.2,3.07,3.07,0,0,0-.9,1.08,4.27,4.27,0,0,1-.63.84,3.46,3.46,0,0,1-1.8,1c-.25.08-.54.16-.9.3a10.16,10.16,0,0,0-1.44.77,5.11,5.11,0,0,1-2.32,1h0A1.58,1.58,0,0,1,182.4,99.45ZM193.86,95c.28,0,.58,0,.86,0a3.43,3.43,0,0,0,1.28-.21,7.61,7.61,0,0,0,1.5-.91,6.05,6.05,0,0,1,2.09-1.11,4.78,4.78,0,0,1,1-.09l.85,0c.29,0,.59,0,.9,0a5.69,5.69,0,0,0,1.37-.15,23.07,23.07,0,0,0,4.63-1.53c1.89-1,2.21-2.58,2.58-4.46a16.29,16.29,0,0,1,.63-2.52,10.88,10.88,0,0,1,.93-1.78,8.74,8.74,0,0,0,.94-1.94,3.44,3.44,0,0,0-.13-1.38c-.2-.91-.43-1.93.47-2.48l.13-.08.13.09a3.2,3.2,0,0,1,.79,2,7.32,7.32,0,0,1,1.59-6,9.74,9.74,0,0,1-1.33-3.77,10.7,10.7,0,0,0-1-3.2,22.69,22.69,0,0,0-2.68-3.39c-.71-.78-1.43-1.6-2-2.39a4.16,4.16,0,0,1-.83-2.31,7.81,7.81,0,0,0-.29-1.5,1.41,1.41,0,0,0-.93-1.07,3.19,3.19,0,0,1-1.23-.91,4.46,4.46,0,0,1-.8-2.08,5.27,5.27,0,0,0-.44-1.47,3.59,3.59,0,0,0-.6-.71c-.54-.56-1.22-1.24-.26-2.25l.2-.21.16.24A16.82,16.82,0,0,0,210,50.8c-.09-.42-.15-.79-.2-1.13a3.25,3.25,0,0,0-2.06-3c-.49-.26-.9-.46-1.3-.66a11.71,11.71,0,0,1-3-1.9A12.74,12.74,0,0,0,195.09,41c-.35,0-.71,0-1.07.05a.86.86,0,0,1-.81.43,6.53,6.53,0,0,1-2.28-.79,6.72,6.72,0,0,0-2.32-.81c-.31,0-.65.08-.75.74l0,.19h-.19A11.82,11.82,0,0,1,183,38.9a2.69,2.69,0,0,1-.77-1.71c-.15-.86-.28-1.35-1.13-1.46l-.23,0,0-.23a1.76,1.76,0,0,0-.34-1.39,4.72,4.72,0,0,0-2.9-1.42,4.62,4.62,0,0,1,0,.85,1.32,1.32,0,0,0,.43,1.44l.43.38-.57,0c-.67,0-1.37.06-2.1.08a23.33,23.33,0,0,0-5.11.49V36l.5,0c.82,0,1.25.34,1.3,1l0,.16-.15.06c-1.38.63-1.36.92-1.36.92s.61.38,2.18.38a11.47,11.47,0,0,0,2.22-.19v-.25h-.15c-.66,0-.85-.35-.91-.57a1.68,1.68,0,0,1,.82-1.61,2.41,2.41,0,0,1,1.17-.26,2.68,2.68,0,0,1,2,.69l.11.14-.11.14a1.92,1.92,0,0,0-.39,1.53c.3,1.54,2.51,3,4,3.9l.84.55c.19.14.4.27.59.4.85.54,1.57,1,1.54,1.61,0,.35-.3.65-.85.92a5.81,5.81,0,0,1-2.48.4l-.83,0h-1c0,.15.06.34.1.53.15.65.29,1.33,0,1.68a.57.57,0,0,1-.48.21,1.22,1.22,0,0,1-.35-.06c-.83-.26-.88-1.19-.92-1.93a2.68,2.68,0,0,0-.15-1,3.93,3.93,0,0,0-.77-1,3.75,3.75,0,0,1-.93-1.28,6.3,6.3,0,0,1-.22-2.27c0-.26,0-.52,0-.76a6.18,6.18,0,0,1-1.3-.33,4.48,4.48,0,0,0-1.4-.29,2.67,2.67,0,0,0-.73.1,4.15,4.15,0,0,0-.62.3,3.12,3.12,0,0,1-1.29.51.67.67,0,0,1-.5-.21,1.31,1.31,0,0,1-.18-1c-1.24,0-1.68.62-2.3,1.51-.18.27-.37.54-.6.83a3.14,3.14,0,0,1-1.88,1.06,3.11,3.11,0,0,0-1.24.54c.28.9.78,2.39,1.73,2.9a3,3,0,0,0,1.51.27h.17a2.61,2.61,0,0,1,2.31.88l.3.37h-.48l-.44,0h0a2.09,2.09,0,0,1-.31,1.61,1,1,0,0,1-.82.33,4.64,4.64,0,0,1-1.12-.2,4.4,4.4,0,0,0-1-.19.53.53,0,0,0-.58.36c0,.11,0,.34.22.61a8.38,8.38,0,0,0,3.46,2.59,2.09,2.09,0,0,1,.11-.3,1,1,0,0,0,.11-.51l-.05-.45.47.27c1.71,1,4,2.39,4.16,3.59a.92.92,0,0,1-.14.63c.29.22.59.43.91.64a8.75,8.75,0,0,1,2.19,1.87,11.64,11.64,0,0,1,.87,1.33,8.44,8.44,0,0,0,1.33,1.84l.16.16-.15.16a1.83,1.83,0,0,0-.59,1.43c.13,1.37,2.11,2.79,3.69,3.93A12.17,12.17,0,0,1,184.15,69a4.15,4.15,0,0,1,.93,4.35c-.05.2-.11.4-.16.59-.34,1.25-.67,2.43.2,3.43.95-.27,1.41-1.16,1.89-2.1.6-1.17,1.22-2.37,2.81-2.37a3.4,3.4,0,0,1,.45,0A4.85,4.85,0,0,1,192.4,74a6.5,6.5,0,0,0,1.34.8,5.15,5.15,0,0,0,2,.31h.92c.3,0,.69,0,1.1,0a3.4,3.4,0,0,1,2.32,1.45c2.26,3,2.27,9.83,1.78,12.65l0,.17-.17,0a5.09,5.09,0,0,1-.55,0c-1.93,0-3-1.48-4.06-2.91a7.68,7.68,0,0,0-2.46-2.51,3,3,0,0,0-1.25-.39.58.58,0,0,0-.49.21c-.5.63,0,2.6.34,4.18a10.09,10.09,0,0,1,.44,2.87l0,.22-.21,0a6.14,6.14,0,0,1-1.85-.6,5.56,5.56,0,0,0-2.06-.61,1.85,1.85,0,0,0-1,.27c-.77.48-.61,1.38-.43,2.42a7.58,7.58,0,0,1,.17,1.5,3.64,3.64,0,0,1-1.84,3.51,2.89,2.89,0,0,1-1.48.43,5.05,5.05,0,0,1-2-.54l-.6-.24.46,2c.34.72.74.8,1,.8h0a4.9,4.9,0,0,0,2.08-.89,11,11,0,0,1,1.51-.8,8.42,8.42,0,0,1,.94-.31,3.14,3.14,0,0,0,1.61-.91,5.16,5.16,0,0,0,.56-.77A2.32,2.32,0,0,1,193,94.91C193.29,94.91,193.58,94.93,193.86,95Zm20.62-10.16a4,4,0,0,0,.5-1.87v-.2l.2,0a1.31,1.31,0,0,0,.4-.19l.22-.12a14.45,14.45,0,0,1-.95-3.56,18.1,18.1,0,0,1,0,3.15,7.26,7.26,0,0,1-.65,1.92c-.44,1-.9,2-.53,2.86H214A4,4,0,0,1,214.48,84.79Z"/><path class="cls-13" d="M176.62,32.35a2.09,2.09,0,0,1-.22.71,19.07,19.07,0,0,0-5.93.44c-.05.17,0,.33-.06.5-2-.1-2.46,1.17-4.27,2a16.84,16.84,0,0,1-4.65,1.14c0-1.59,1.54-2.49,2.38-3.66-.42-.21-.45-.57-.71-.76,1.32-.31.94-1.23,2.23-1.54a28.13,28.13,0,0,1,3.56,0c1.84-.09,4.94-.74,6.55.2Z"/><path class="cls-12" d="M161.25,37.18a4.37,4.37,0,0,1,1.57-2.82,10.5,10.5,0,0,0,.72-.79,1.43,1.43,0,0,1-.33-.39,1,1,0,0,0-.19-.24l-.4-.3.49-.11a1.5,1.5,0,0,0,1-.69,1.94,1.94,0,0,1,1.22-.84,4.74,4.74,0,0,1,1-.09c.39,0,.82,0,1.23,0s1,.05,1.32,0,.91-.07,1.43-.12a24.49,24.49,0,0,1,2.61-.18,5.22,5.22,0,0,1,2.64.53l1.25,1v.12a2.39,2.39,0,0,1-.24.79l-.07.14h-.15c-.5,0-1.11,0-1.76,0a13.78,13.78,0,0,0-3.95.42.28.28,0,0,0,0,.09,1.06,1.06,0,0,1,0,.29l0,.18h-.2a3.48,3.48,0,0,0-2.56,1,8.21,8.21,0,0,1-1.6,1,11.21,11.21,0,0,1-3.4.93l-1.31.23-.28.06Zm9-3.42h0a.91.91,0,0,1,0-.31l0-.12.11,0a13.38,13.38,0,0,1,4.24-.49c.59,0,1.15,0,1.62,0a1.39,1.39,0,0,0,.12-.38l-1-.84a4.86,4.86,0,0,0-2.39-.46c-.84,0-1.76.1-2.56.18-.53.05-1,.1-1.45.12a13.32,13.32,0,0,1-1.37,0c-.41,0-.83,0-1.21,0a4.35,4.35,0,0,0-.94.08,1.47,1.47,0,0,0-1,.67,2,2,0,0,1-.91.76l0,0a.93.93,0,0,0,.38.38l.24.12-.16.22a8.85,8.85,0,0,1-.9,1,4.3,4.3,0,0,0-1.41,2.22l1-.18a10.65,10.65,0,0,0,3.28-.89,8,8,0,0,0,1.52-1,4,4,0,0,1,2.63-1.08Z"/><path class="cls-13" d="M189.91,82.51c-1.36-.73-1.21-1.79-2.76-2.3s-2.05.06-3.61.05a6.21,6.21,0,0,0-3.32.42,20.67,20.67,0,0,1-3.58.92c.81,1.92,3.56,1.51,5.2,2-.12-.2-.17-.68-.33-.92a2.35,2.35,0,0,0,2-1.14c1.25.79,1.79-.33,3-.17s1.45,1.05,2.43,1.5Z"/><path class="cls-12" d="M181.77,83.83a10.93,10.93,0,0,0-1.59-.27c-1.47-.18-3.13-.38-3.75-1.86l-.11-.27.44-.09a19.42,19.42,0,0,0,3.37-.88,5,5,0,0,1,2.62-.45l.8,0h0a7.28,7.28,0,0,0,1.35-.14,5.8,5.8,0,0,1,1-.12,3.94,3.94,0,0,1,1.26.22,3.11,3.11,0,0,1,1.65,1.26,3.16,3.16,0,0,0,1.14,1l.44.24-1.49.6-.09,0a3.93,3.93,0,0,1-1.06-.75,2.29,2.29,0,0,0-1.31-.73l-.2,0a2.51,2.51,0,0,0-.93.24,2.47,2.47,0,0,1-1,.24,1.81,1.81,0,0,1-.79-.2,2.56,2.56,0,0,1-1.78,1c0,.09.06.19.08.28a2.1,2.1,0,0,0,.11.33l.29.51Zm1.9-2.47a1.46,1.46,0,0,0,.75.24,2.11,2.11,0,0,0,.79-.21,3,3,0,0,1,1.1-.26h.26a2.86,2.86,0,0,1,1.56.85,4,4,0,0,0,.85.64l.42-.17a4.22,4.22,0,0,1-.89-.92,2.65,2.65,0,0,0-1.43-1.11,3.55,3.55,0,0,0-1.11-.19,5.33,5.33,0,0,0-.95.11,7.84,7.84,0,0,1-1.43.14h-.05l-.81,0h-.53a4.77,4.77,0,0,0-1.9.43,19,19,0,0,1-3.31.88c.6,1,1.94,1.17,3.24,1.32.44.06.86.11,1.25.19a1.63,1.63,0,0,0-.17-.45l-.23-.34.41,0a2.16,2.16,0,0,0,1.85-1l.12-.23Z"/><path class="cls-13" d="M179.24,84.57c.27-.48,2.95-.14,3.53.7A5,5,0,0,1,180,86c0-.18,0-.33-.06-.51a14.29,14.29,0,0,0-1.66-.4Z"/><path class="cls-12" d="M180,86.27l-.16,0,0-.16a1.49,1.49,0,0,1,0-.28.28.28,0,0,0,0-.09l-.36-.1a7.34,7.34,0,0,0-1.11-.26l-.68-.08,1.48-.89a1.26,1.26,0,0,1,1-.27c.89,0,2.43.32,2.91,1l.15.21-.23.13a5.38,5.38,0,0,1-2.58.8H180Zm.06-1.68a1.27,1.27,0,0,0-.61.09l0,.06-.47.28c.2,0,.39.1.58.15l.49.14.13,0,0,.13a1.33,1.33,0,0,1,0,.32v0h.08a4.69,4.69,0,0,0,2.09-.61A4.53,4.53,0,0,0,180.05,84.59Z"/><path class="cls-13" d="M175.31,83.26a3.86,3.86,0,0,1,2.6.89c-.87.44-1.48,0-2.37,0a12.45,12.45,0,0,1-2.15.28c-.61-.18-1-1-1.64-1.35s-1.52-.11-2.17-.81a2.73,2.73,0,0,1,1.59-.73c0-.19-.11-.31-.15-.49,1.73-.5,3.5.34,5.19.74a2.77,2.77,0,0,0,0,.5c-.47,0-.64.31-.91.41Z"/><path class="cls-12" d="M173.33,84.65a2.24,2.24,0,0,1-1-.74,2.73,2.73,0,0,0-.71-.62,2.68,2.68,0,0,0-.86-.23,2.12,2.12,0,0,1-1.38-.63l-.18-.19.23-.17a3.28,3.28,0,0,1,1.41-.73,1.37,1.37,0,0,1-.07-.24l-.05-.21.21-.07a4.62,4.62,0,0,1,1.19-.16,10.43,10.43,0,0,1,2.9.57c.4.12.81.24,1.22.33l.19,0,0,.2c0,.08,0,.38,0,.46l0,.29-.29,0a.62.62,0,0,0-.48.18,1.09,1.09,0,0,1-.17.13V83a4,4,0,0,1,2.53,1l.24.22-.29.15a1.89,1.89,0,0,1-.89.22,4.52,4.52,0,0,1-.75-.09,3.63,3.63,0,0,0-.83-.1,5.85,5.85,0,0,0-.82.14,6.05,6.05,0,0,1-1.11.16A1.23,1.23,0,0,1,173.33,84.65Zm3.14-.63a2.48,2.48,0,0,0,1,0,3.84,3.84,0,0,0-2.13-.58h-.23v-1l.15,0a.83.83,0,0,0,.2-.13,1.2,1.2,0,0,1,.54-.28V82l-1.06-.29a10,10,0,0,0-2.76-.55,4.41,4.41,0,0,0-.83.08,1.87,1.87,0,0,1,.08.28l0,.26-.25,0a2.27,2.27,0,0,0-1.25.52,2,2,0,0,0,.92.31,3.12,3.12,0,0,1,1,.27,3.21,3.21,0,0,1,.84.72,1.86,1.86,0,0,0,.75.61.54.54,0,0,0,.17,0,5.57,5.57,0,0,0,1-.16,6.15,6.15,0,0,1,.89-.14h.09A4.31,4.31,0,0,1,176.47,84Z"/><path class="cls-13" d="M166.32,80.45c.84.21,2,.29,2.46,1.31-.57.89-2.46.16-3-.56Z"/><path class="cls-12" d="M165.58,81.34l-.11-.14.76-1,.15,0,.42.1A2.71,2.71,0,0,1,169,81.67l0,.11-.07.1a1.2,1.2,0,0,1-1.09.52h0A3.28,3.28,0,0,1,165.58,81.34Zm1.12-.57-.28-.06-.36.47a3,3,0,0,0,1.82.76.82.82,0,0,0,.62-.21C168.15,81.08,167.41,80.93,166.7,80.77Z"/><path class="cls-11" d="M102.12,77.27c.47-.31,1.38-2.42,1.87-2.44,1.1-.06,1.06,1.3.78,2,2.26,0,.89,2.41,3,1.72,1.24-.41,2.7-2.69,3.69-3.61a17.25,17.25,0,0,1,1.72-1.79c.66-.46,1.91-.53,2.45-1,1.29-1.06.69-2.27,1.07-3.75A16,16,0,0,1,119,63.83c.84-1.19,2.39-1.86,2.9-3.22.62-1.67.07-4.2.42-6a23.64,23.64,0,0,1,1.44-5A9.55,9.55,0,0,1,126.22,46c1.22-.88,2.31-.37,3.62-.88s6.37-3.32,5.39-5.06a6.27,6.27,0,0,1,2.46-1.5c1.38-.4,2,0,3-.94s.81-1.38,2-1.87c.88-.35,2.08-.57,3-.91,0,.32.11.75.06,1.07,1.21-.1,3.47-.72,3.88-2-1.13-.41-3.95.41-4.12-1.14-4.45,1.46-10.07,3.16-14.36,6.19,1.27,1.73-1.34,3-2.5,4-1.74,1.53-3,2.38-2.79-.69-2.27,1-7.42,6.48-9,8.41-4.19,5.22-8.76,11.64-10.11,14.41A109.84,109.84,0,0,0,102.12,77.27Z"/><path class="cls-12" d="M106.1,78.05a1.16,1.16,0,0,0-1.3-1h-.37l.12-.32a1.83,1.83,0,0,0,0-1.49.53.53,0,0,0-.49-.23h0c-.19,0-.63.78-.89,1.21a4.26,4.26,0,0,1-.87,1.19l-.54.36.19-.62A109.5,109.5,0,0,1,106.59,65c1.29-2.65,5.65-8.86,10.14-14.46,1.34-1.68,6.62-7.41,9-8.47l.36-.16,0,.39c-.1,1.16.05,1.58.19,1.73a.24.24,0,0,0,.2.09c.45,0,1.27-.67,2-1.33.24-.21.53-.42.84-.65,1.47-1.1,2.45-2,1.63-3.07l-.14-.19.19-.14c4-2.83,9.23-4.52,13.42-5.89l1-.33.27-.09,0,.29c.07.66.79.8,2,.8h.63a4.22,4.22,0,0,1,1.35.15l.21.08-.07.21c-.43,1.36-2.73,2-4.08,2.15l-.29,0,0-.29a1.5,1.5,0,0,0,0-.46l0-.25c-.35.12-.73.22-1.1.32-.53.15-1.09.3-1.54.48a2.31,2.31,0,0,0-1.17,1,4.72,4.72,0,0,1-.78.88,3,3,0,0,1-1.93.76,6.71,6.71,0,0,0-1.2.23,5.07,5.07,0,0,0-2.06,1.2l-.17.14a1.3,1.3,0,0,1,0,.93c-.66,1.83-4.63,3.91-5.58,4.28a5.19,5.19,0,0,1-1.62.29,3.34,3.34,0,0,0-1.94.56A9.59,9.59,0,0,0,124,49.66a23.34,23.34,0,0,0-1.43,5,12.76,12.76,0,0,0-.11,2.59,9.77,9.77,0,0,1-.32,3.44,5.29,5.29,0,0,1-1.68,2A7.09,7.09,0,0,0,119.21,64a15.9,15.9,0,0,0-2.31,4.55,6.67,6.67,0,0,0-.15,1.37,2.88,2.88,0,0,1-1,2.51,3.74,3.74,0,0,1-1.29.53,4.15,4.15,0,0,0-1.18.45,6,6,0,0,0-1,1,10.16,10.16,0,0,1-.68.76,14.24,14.24,0,0,0-1.07,1.2,8,8,0,0,1-2.71,2.46,2.23,2.23,0,0,1-.7.13C106.45,78.94,106.26,78.45,106.1,78.05Zm39.83-43.21a2,2,0,0,0,0,.47c0,.1,0,.2,0,.3,1.21-.15,2.82-.69,3.32-1.57a5.56,5.56,0,0,0-.95-.06h-.63c-.79,0-2.08,0-2.39-.94l-.77.25c-4.1,1.34-9.18,3-13.1,5.7.88,1.48-.7,2.65-1.86,3.52-.3.22-.59.43-.81.63-1,.87-1.75,1.44-2.32,1.44a.73.73,0,0,1-.55-.23,2.4,2.4,0,0,1-.33-1.68c-2.34,1.31-7,6.27-8.52,8.16-4.47,5.58-8.8,11.76-10.08,14.37a99.84,99.84,0,0,0-4.17,10.64c.46-.76.79-1.23,1.13-1.25a1,1,0,0,1,1,.43,2.1,2.1,0,0,1,.15,1.62,1.6,1.6,0,0,1,1.46,1.24c.16.41.24.6.58.6a2.09,2.09,0,0,0,.56-.11,7.84,7.84,0,0,0,2.49-2.32,15,15,0,0,1,1.11-1.24c.21-.21.43-.46.65-.72A6,6,0,0,1,113,73a4.53,4.53,0,0,1,1.31-.51,3.39,3.39,0,0,0,1.12-.44,2.45,2.45,0,0,0,.83-2.17,6.51,6.51,0,0,1,.16-1.46,16.31,16.31,0,0,1,2.38-4.71,7.39,7.39,0,0,1,1.33-1.35,4.73,4.73,0,0,0,1.54-1.82,9.44,9.44,0,0,0,.29-3.27,12.42,12.42,0,0,1,.13-2.69,23.28,23.28,0,0,1,1.45-5.1,9.74,9.74,0,0,1,2.51-3.7,3.76,3.76,0,0,1,2.19-.64,5,5,0,0,0,1.48-.26c1.08-.42,4.74-2.42,5.31-4a.84.84,0,0,0,0-.73l-.09-.17.15-.12.3-.25a5.6,5.6,0,0,1,2.23-1.29,7,7,0,0,1,1.28-.24,2.61,2.61,0,0,0,1.68-.65,4.4,4.4,0,0,0,.71-.81,2.72,2.72,0,0,1,1.36-1.1,15.86,15.86,0,0,1,1.6-.5c.47-.13,1-.26,1.37-.42l.38-.14Z"/><path class="cls-14" d="M153.7,96.56c11.44.38,18.72-3.94,16.81,9.36-.89,6.16,1.81,6.44-4.67,10.06-5.1,2.85-8.39.31-13.8,1.38-4,.79-6.73,5.38-11.44,4.46-1.63-.31-10.42-7.18-11.28-9.35-4.48-11.45,12.44-6.58,17.83-12.17Z"/><path class="cls-15" d="M188.33,47c14.26-.76,14.3,13,14.83,23.25-9.77-.22-9.18.91-15.53-5.7C184.21,61,177,56.24,182.71,52.57Z"/><path class="cls-16" d="M175.86,143.23a65.86,65.86,0,0,1-61.32-89.84,65.84,65.84,0,1,0,111.81,66.26A65.67,65.67,0,0,1,175.86,143.23Z"/><ellipse class="cls-17" cx="148.46" cy="64.28" rx="27.3" ry="23.77" transform="matrix(0.55, -0.84, 0.84, 0.55, 13.5, 153.49)"/><ellipse class="cls-3" cx="91.62" cy="349.5" rx="84.24" ry="28.72"/><path class="cls-10" d="M84.53,177.11c-1.67-4.66-5.5-11.78-2.46-14.79,4.26-4.21,14.68-7.22,27-5.64,9.21,1.18,12.88,3.81,14.89,9.49,1.55,4.37-1.12,10.15-6.5,16.32-1.45,0-2.23.3-3.91-.32,5.08-7.68,5.23-13.48,1.67-16.36-2.9-2.36-27-6-28.93.36A10.81,10.81,0,0,0,89,176.62Z"/><path class="cls-18" d="M81.38,168c-.18-16.42,34.12-9,40.86-4.68-4.9-6.61-13.44-7.1-21.16-7.51-5.48-.29-18.62,1.81-19.88,8.58Z"/><path class="cls-19" d="M142.15,191.65s13.83-15.05,22.17-8.29c25.54,20.71,25.61,49,31.28,73.47s12.54,30,6.65,56.45c-4.33,19.46-35.85,31-35.85,31l2.2-13.19s18.85-1.24,24.17-18.81c6.14-20.28.35-39.69-5.09-54-6.66-17.55-10.6-64.76-28.15-68.7-10.78-2.42-9,17.6-9,17.6Z"/><path class="cls-18" d="M179.49,223.35c3.51-1.95,6.77-4,10.61-4.36,5.07,21.88,6.58,45,16.52,65.54-4.64,2-13.11,3.73-13.11,3.73-5.64-8.64-8.89-26.77-11.87-44.1Z"/><path class="cls-19" d="M193.34,288.67l-.14-.21c-5.87-9-9.22-28.53-11.92-44.23v0l-2.18-21,.21-.12,1.12-.63c3.16-1.78,6.13-3.46,9.63-3.78l.32,0,.07.31c1.53,6.56,2.75,13.33,3.93,19.89C197.14,254.14,200,270,207,284.37l.17.35-.36.15c-4.62,1.94-13.09,3.73-13.17,3.75ZM182,244.11c2.66,15.52,6,34.79,11.67,43.74a95.36,95.36,0,0,0,12.43-3.51c-6.86-14.35-9.7-30.14-12.46-45.42-1.16-6.44-2.36-13.1-3.84-19.53-3.21.38-6,2-9,3.65l-.92.51Z"/><path class="cls-20" d="M185.68,219.83s-3.3,33.4,14.42,66.39c0,0-6.38,1.68-7,1.68-4.84-10.4-8.66-21.15-10.34-32.47-1.77-12-3.51-20-3.22-32.08Z"/><path class="cls-21" d="M79.56,177.7c29.88-3.81,68.85,9.64,78.19,34.8,12.4,33.37,9.34,67.24,9.5,87.38.16,19.44,3.31,41.62-.3,47.53-3.38,5.52-23.43,16.35-30.58,19.07-5.48,2.07-16.21,2.07-16.21,2.07s10.73,0,7.87-72.63c-1.9-48.39-2.38-93.91-41.95-104.39-32.72-8.68-52.38,11.94-52.38,11.94S44.64,182.16,79.56,177.7Z"/><path class="cls-22" d="M129.53,342.23c13.2,1.24,32.71-4.69,38.7-16.4,0,0,2,11.51-.41,18.46s-6.53,10.15-17.92,15.53c-15.55,7.34-22.56,12.47-35.62,8.32,3.11-1.17,10-4.92,12.72-8.83Z"/><path class="cls-22" d="M77.66,177.86c15.47-3.42,34.45-.26,46.81,3.62,15.47,4.84,18.4,8.77,25.27,16,14.56,15.32,20.81,37.38,22.79,56.95,1.39,13.75,1.59,55.06,1.59,62.4,0,6.86-1.74,20.82-7.72,27.47-3.56,4-8.25,9.58-17.49,11.57,7.84-27.48,7.59-68,2.74-96-2.2-12.67-2.8-26.19-6.92-38.41-4.21-12.47-10.8-26.49-21.92-32.65C109.48,181.43,77.66,177.86,77.66,177.86Z"/><path class="cls-18" d="M136.49,342.23C158.76,340.5,171.72,331,171.72,331s1.51-2,1.68-7.4A150.75,150.75,0,0,1,137.12,334Z"/><path class="cls-19" d="M136.09,342.63l.69-8.94.29,0c.19,0,18.81-2.62,36.18-10.38l.54-.24,0,.59c-.17,5.5-1.69,7.53-1.76,7.61l0,0,0,0a52.56,52.56,0,0,1-9.34,5,82.67,82.67,0,0,1-26.08,6.29Zm1.38-8.29-.58,7.49a81.68,81.68,0,0,0,25.42-6.2,52.06,52.06,0,0,0,9.14-4.88c.19-.29,1.33-2.16,1.56-6.56A153.36,153.36,0,0,1,137.47,334.34Z"/><path class="cls-18" d="M59.57,183.55s14.62-4.62,35.51-1.76c12.81,1.76,20,3.2,30,9.7,10.46,6.8,19,19.65,21,37.69C148.62,252,150.57,283,150.57,283h2.73s1.3-51.91-4.85-66.8c-2.66-6.46-6.32-19.36-22.55-28.59-18.83-10.7-50.09-10.55-57.45-7.76C66.2,180.7,59.57,183.55,59.57,183.55Z"/><path class="cls-19" d="M153.66,283.37h-3.43l0-.35c0-.31-2-31.29-4.49-53.79-1.82-16.37-9.42-30-20.84-37.43-9.81-6.37-16.62-7.83-29.84-9.64a100.3,100.3,0,0,0-13.61-.94c-13.11,0-21.65,2.65-21.73,2.68l-.26-.69c.07,0,6.66-2.86,8.89-3.71,2.7-1,8.21-1.63,14.74-1.63,6.21,0,27.65.68,43,9.42,14.76,8.39,19.23,19.86,21.9,26.71.28.73.56,1.43.81,2.05,2.57,6.22,4.17,19.38,4.76,39.12.44,14.68.12,27.71.12,27.84Zm-2.74-.74h2c.09-4.64.95-52.29-4.83-66.29-.26-.64-.53-1.34-.82-2.08-2.63-6.75-7-18.07-21.58-26.33-15.21-8.65-36.49-9.32-42.65-9.32-6.35,0-11.9.61-14.48,1.58-1,.39-3,1.2-4.78,2a91.08,91.08,0,0,1,17.62-1.66,100.16,100.16,0,0,1,13.71.94c13,1.78,20.25,3.33,30.15,9.75a44.1,44.1,0,0,1,13.79,14.75,58.6,58.6,0,0,1,7.38,23.21C148.82,250.38,150.7,279.16,150.92,282.63Z"/><path class="cls-23" d="M81.68,185c31.22.15,50.69,18.25,54.31,49.55,5.2,44.94,7.74,109.59-8.58,130.62-7.64,9.84-37.34,3.93-60.95,2.27-23.83-1.67-37.52-7.29-46.87-16.57-12-11.88-5.05-58.44-.29-82.67,3.52-17.91,3.38-41,10.06-56.9S56.19,184.89,81.68,185Z"/><path class="cls-24" d="M88.89,189.41c21.41,3.11,39.49,13.28,42.88,42.88C135.6,265.83,142.14,342,125.72,361c-11.44,13.24-37.39,4.28-58.71,3.1-22.56-1.25-37-5.27-45-14.84-13.76-16.52-2.72-56.83.54-79.95,3.4-24.15,3.78-43,11.14-59C43,190.19,74,187.25,88.89,189.41Z"/><path class="cls-25" d="M111.88,202.93c-10.83-8.77-66.92-14.17-69.41,5.44-1.63,12.82,48,12.84,62.81,9.79C115.85,216,122.25,211.32,111.88,202.93Z"/><polygon class="cls-23" points="48.48 225.16 109.11 228.88 107.33 247.74 48.39 244.19 48.48 225.16"/><path class="cls-24" d="M104.87,245.72l-54.4-3.17.08-16,.39,0,55.49,3.29Zm-53.66-3.86,53,3.08,1.41-14.4-54.34-3.22Z"/><polygon class="cls-18" points="51.51 233.09 105.28 235.99 104.65 240.47 51.51 236.63 51.51 233.09"/><path class="cls-19" d="M105,240.86,51.14,237V232.7l54.57,2.94Zm-53.09-4.57,52.45,3.78.53-3.74-53-2.85Z"/><path class="cls-19" d="M28.62,277.78c-5.3,20.33-9.16,58.1,2.17,66,10.42,7.28,61.81,17.76,78.8,11.32,11.24-4.26,17.31-13.95,18.15-31.31.89-18.53-1.56-39.24-1.56-39.24Z"/><path class="cls-18" d="M25.51,285.25c-4.77,20.16-12.56,52.23,10.36,63C46.61,353.34,81,357.49,95.13,357s21-11.35,21.79-29.78c.79-19.36,2.5-41.22,2.5-41.22Z"/><path class="cls-19" d="M92.62,357.4c-15.11,0-46.62-3.94-56.91-8.79A25.15,25.15,0,0,1,23.64,337c-2.25-4.44-3.49-10-3.7-16.42-.37-11.83,2.66-24.64,5.09-34.93l.18-.76,94.61.74,0,.4c0,.21-1.72,22.07-2.5,41.21-.38,9.43-2.38,16.77-5.94,21.81-3.72,5.27-9.17,8.07-16.2,8.32C94.37,357.38,93.52,357.4,92.62,357.4ZM25.8,285.62l-.05.19c-2.42,10.25-5.44,23-5.07,34.73C21.12,334.32,26.14,343.29,36,348c10.21,4.81,41.55,8.71,56.6,8.71.89,0,1.74,0,2.5,0,6.79-.24,12-2.94,15.63-8s5.42-12.12,5.8-21.41c.72-17.73,2.24-37.8,2.48-40.85Z"/><path class="cls-19" d="M91.36,354.62h0c-14.45,0-44.26-3.55-54.27-8.26A24.22,24.22,0,0,1,25.5,335.2,37.51,37.51,0,0,1,22,319.44c-.36-11.35,2.55-23.63,4.88-33.51l.18-.74,90.49.71,0,.4c0,.21-1.75,21.16-2.49,39.51-.76,18.62-7.86,28.3-21.11,28.77C93.11,354.61,92.26,354.62,91.36,354.62ZM27.6,285.93l0,.17c-2.32,9.83-5.22,22.07-4.86,33.32.41,13.21,5.23,21.8,14.71,26.27,4.39,2.07,13.3,4.13,25.06,5.8a227.07,227.07,0,0,0,28.89,2.39h0c.89,0,1.73,0,2.49,0,6.51-.23,11.52-2.78,14.91-7.6,3.28-4.66,5.13-11.54,5.49-20.46.69-17,2.22-36.17,2.46-39.15Z"/><path class="cls-26" d="M125.92,284.51c-3,4.09-3.26,8.25-4.06,12.65-1.06,5.7-5.54,10.2-9.75,13.59,1.85-5.16,5.68-13.75,5.13-19.47-.28-2.85-1.48-4.94.21-7.69,1.15-1.86,4.7-4.66,5.76-1.79Z"/><path class="cls-23" d="M126.18,284.56s-2.45-4.05-6.07,2.3c-1.65,2.91.52,15.36-4.81,21.4-7.74,8.77-30.39,4-44.66,2.93-15.9-1.21-44.39-2.31-46.33-10.05s-1.18-25.08,3.83-28,21.25.22,44,1.05c20.51.74,42.88,2.9,47.59,4.63A12,12,0,0,1,126.18,284.56Z"/><path class="cls-24" d="M29.71,275.93l-.23.34c-.08.11-.16.25-.27.42l-.16.28-.18.32a21.59,21.59,0,0,0-1.73,4.19c-.28.93-.55,2-.78,3.13a35,35,0,0,0-.52,3.77c-.06.67-.1,1.37-.12,2.09s0,1.46,0,2.22a25,25,0,0,0,.62,4.73,8.21,8.21,0,0,0,1,2.29,8,8,0,0,0,1.7,1.94,13.63,13.63,0,0,0,4.87,2.45,39.8,39.8,0,0,0,5.75,1.18l3,.42c1,.15,2,.27,3.09.41,4.16.52,8.46,1,12.84,1.44s8.82.87,13.28,1.26,8.9.76,13.29,1.08l3.28.22c1.09.08,2.17.15,3.24.2,2.15.11,4.27.15,6.36.08,1,0,2.07-.11,3.08-.21s2-.25,3-.44a18.43,18.43,0,0,0,5.47-1.93,11.42,11.42,0,0,0,2.24-1.64,10.41,10.41,0,0,0,1.69-2.08l.09-.15.08-.14.16-.29.15-.29.14-.3c.18-.39.34-.8.48-1.2a20.73,20.73,0,0,0,.66-2.45,32.48,32.48,0,0,0,.57-4.75c.08-1.52.07-3,0-4.33,0-.34,0-.67,0-1s0-.66,0-1a7.61,7.61,0,0,1,.33-1.83,5.89,5.89,0,0,1,1.76-2.72,6.43,6.43,0,0,1,2.3-1.26,7.72,7.72,0,0,1,1.89-.36,5.18,5.18,0,0,1,1.2,0,1.44,1.44,0,0,1,.29.09.18.18,0,0,1,.08.07.3.3,0,0,0-.08-.07,1,1,0,0,0-.29-.08,4.44,4.44,0,0,0-1.19,0,7.88,7.88,0,0,0-1.88.39,6.52,6.52,0,0,0-2.23,1.29,5.67,5.67,0,0,0-1.67,2.67,7.36,7.36,0,0,0-.3,1.79c0,.31,0,.64,0,1l.06,1c.08,1.37.11,2.82.06,4.36a30.52,30.52,0,0,1-.51,4.8,17.83,17.83,0,0,1-.65,2.51,13,13,0,0,1-.48,1.26l-.14.31-.15.3-.16.3-.09.15-.09.15a10.79,10.79,0,0,1-1.74,2.21,12.56,12.56,0,0,1-2.32,1.74,19,19,0,0,1-5.61,2.05,38,38,0,0,1-6.18.71c-2.11.09-4.25.06-6.41,0-1.08,0-2.17-.11-3.26-.18s-2.18-.14-3.28-.22c-4.39-.3-8.85-.66-13.31-1s-8.91-.83-13.29-1.29-8.68-1-12.84-1.51c-2.09-.27-4.12-.55-6.12-.87a40.32,40.32,0,0,1-5.82-1.26,14.23,14.23,0,0,1-5-2.61A8.28,8.28,0,0,1,27,299.94a8.7,8.7,0,0,1-1-2.43,24.89,24.89,0,0,1-.57-4.81c0-.76,0-1.51,0-2.24s.08-1.43.15-2.11c.15-1.36.36-2.63.6-3.78a29.84,29.84,0,0,1,.85-3.14A21.65,21.65,0,0,1,28,279c.15-.35.31-.66.46-.95s.28-.54.42-.77L29,277l.17-.27.28-.42Z"/><path class="cls-27" d="M33.41,275.84c-13.5,3.58-.13,8.36,6.33,9,9,.87,18.13,1.32,27.19,1.72,12.77.57,46.23,2.81,45.77-2.77-.55-6.68-24.06-5.29-30.63-5.85C71.39,277,33.41,275.84,33.41,275.84Z"/><path class="cls-19" d="M39,285.56s-2,23.28-3,28.81c-1.29,7.59-3.84,18.05,3.3,18.05,6.8,0,7.18-11.85,7.75-16.86,1-8.84,2.48-30,2.48-30Z"/><path class="cls-19" d="M89.88,289.64S88.42,313,87.06,318.45s-5.26,18.05,1.89,18c7.49,0,8-11.92,9-16.85s2.47-30,2.47-30Z"/><path class="cls-28" d="M95.78,317.9l-8.15-.59A5.11,5.11,0,0,0,82.17,322l-.09,1.27a5.1,5.1,0,0,0,4.72,5.46l8.15.59a5.1,5.1,0,0,0,5.46-4.72l.09-1.27A5.11,5.11,0,0,0,95.78,317.9Zm2.14,6.32a3.51,3.51,0,0,1-3.94,3l-5.92-.42a3.52,3.52,0,0,1-3.46-3.55l.06-.82a3.51,3.51,0,0,1,3.94-3l5.92.43A3.51,3.51,0,0,1,98,323.4Z"/><path class="cls-19" d="M95.32,329.59h0l-.39,0L86.79,329a5.33,5.33,0,0,1-4.93-5.69L82,322a5.34,5.34,0,0,1,5.31-4.94h.39l8.14.59a5.32,5.32,0,0,1,4.93,5.69l-.09,1.27A5.34,5.34,0,0,1,95.32,329.59Zm-8.06-12.07a4.9,4.9,0,0,0-4.87,4.53l-.09,1.27a4.88,4.88,0,0,0,4.52,5.22l8.15.59h.35a4.9,4.9,0,0,0,4.87-4.53l.09-1.27a4.89,4.89,0,0,0-4.52-5.22l-8.14-.59Zm7,10H94L88.05,327a3.75,3.75,0,0,1-3.67-3.79l.06-.82a3.71,3.71,0,0,1,3.85-3.23l.32,0,5.92.42a3.75,3.75,0,0,1,3.67,3.79l-.06.82A3.71,3.71,0,0,1,94.29,327.47Zm-6-7.83a3.27,3.27,0,0,0-3.41,2.82l-.06.81a3.31,3.31,0,0,0,3.26,3.32L94,327h.29a3.26,3.26,0,0,0,3.41-2.81l.06-.82a3.3,3.3,0,0,0-3.26-3.31l-5.92-.43Z"/><path class="cls-28" d="M45.24,313.88l-8.15-.59A5.11,5.11,0,0,0,31.63,318l-.09,1.27a5.11,5.11,0,0,0,4.72,5.46l8.15.58a5.1,5.1,0,0,0,5.46-4.72l.09-1.27A5.11,5.11,0,0,0,45.24,313.88Zm2.14,6.32a3.52,3.52,0,0,1-3.94,3l-5.92-.43a3.52,3.52,0,0,1-3.46-3.55l.06-.82a3.51,3.51,0,0,1,3.94-3l5.92.43a3.52,3.52,0,0,1,3.46,3.55Z"/><path class="cls-19" d="M44.78,325.57h0l-.39,0L36.25,325a5.34,5.34,0,0,1-4.93-5.7l.09-1.27a5.34,5.34,0,0,1,5.31-4.94h.39l8.14.59a5.32,5.32,0,0,1,4.93,5.7l-.09,1.27A5.34,5.34,0,0,1,44.78,325.57ZM36.72,313.5A4.9,4.9,0,0,0,31.85,318l-.09,1.27a4.88,4.88,0,0,0,4.52,5.22l8.14.59.36,0a4.9,4.9,0,0,0,4.87-4.54l.09-1.27a4.89,4.89,0,0,0-4.52-5.22l-8.15-.59Zm7,9.95h-.32L37.51,323a3.74,3.74,0,0,1-3.67-3.79l.06-.81a3.71,3.71,0,0,1,3.85-3.23h.32l5.92.43a3.73,3.73,0,0,1,3.67,3.78l-.06.82A3.71,3.71,0,0,1,43.75,323.45Zm-6-7.83a3.27,3.27,0,0,0-3.41,2.82l-.06.82a3.31,3.31,0,0,0,3.26,3.31l5.92.43h.29a3.27,3.27,0,0,0,3.41-2.82l.06-.82A3.3,3.3,0,0,0,44,316.06L38,315.63Z"/><polygon class="cls-18" points="86.76 287.25 86.48 294.1 103.08 295.01 103.87 287.96 86.76 287.25"/><path class="cls-19" d="M103.41,295.39l-17.32-.95.32-7.57,17.87.73Zm-16.55-1.64,15.9.87.7-6.31-16.34-.68Z"/><polygon class="cls-18" points="36.05 283.53 35.57 290.37 52.15 291.73 53.13 284.71 36.05 283.53"/><path class="cls-19" d="M52.46,292.13,35.18,290.7l.53-7.56,17.84,1.23ZM36,290l15.86,1.31.88-6.29-16.32-1.13Z"/><path class="cls-19" d="M106.81,254c-6.07,3.1-7.56-12.36-7.56-12.36l3-1.55S112.48,251.07,106.81,254Z"/><path class="cls-18" d="M105.07,253c-4.73,2.41-6-11.59-6-11.59l2.32-1.21S109.48,250.75,105.07,253Z"/><path class="cls-19" d="M104,253.65c-1.79,0-3.22-2.09-4.26-6.21a43.76,43.76,0,0,1-1-6l0-.25,2.82-1.46.19.25c.23.31,5.81,7.66,4.94,11.49a2.68,2.68,0,0,1-1.43,1.85A2.62,2.62,0,0,1,104,253.65Zm-4.51-12c.33,3.37,1.69,11.29,4.51,11.29a2.08,2.08,0,0,0,1.94-1.6c.71-3.13-3.66-9.32-4.63-10.64Z"/><path class="cls-18" d="M102.19,239.26a2.63,2.63,0,1,1-2.62-2.63A2.62,2.62,0,0,1,102.19,239.26Z"/><path class="cls-19" d="M99.57,242.26a3,3,0,1,1,3-3A3,3,0,0,1,99.57,242.26Zm0-5.26a2.26,2.26,0,1,0,2.25,2.26A2.26,2.26,0,0,0,99.57,237Z"/><path class="cls-19" d="M159.17,296.94c-6.06,3.1-7.55-12.36-7.55-12.36l3-1.55S164.84,294.05,159.17,296.94Z"/><path class="cls-18" d="M157.43,296c-4.72,2.41-6-11.59-6-11.59l2.32-1.21S161.85,293.73,157.43,296Z"/><path class="cls-19" d="M156.37,296.63c-1.79,0-3.22-2.09-4.25-6.21a43.76,43.76,0,0,1-1-6l0-.25,2.82-1.46.18.25c.24.31,5.81,7.66,4.94,11.49a2.63,2.63,0,0,1-1.43,1.85A2.59,2.59,0,0,1,156.37,296.63Zm-4.5-12c.32,3.37,1.69,11.29,4.5,11.29a2,2,0,0,0,.9-.24,1.93,1.93,0,0,0,1-1.36c.71-3.13-3.66-9.32-4.62-10.64Z"/><path class="cls-18" d="M155,282.4a2.63,2.63,0,1,1-2.62-2.63A2.62,2.62,0,0,1,155,282.4Z"/><path class="cls-19" d="M152.41,285.4a3,3,0,1,1,3-3A3,3,0,0,1,152.41,285.4Zm0-5.26a2.26,2.26,0,1,0,2.25,2.26A2.26,2.26,0,0,0,152.41,280.14Z"/></g></g></svg>