<svg id="Layer_1" data-name="Layer 1" xmlns="http://www.w3.org/2000/svg" viewBox="0 0 1222.33 631.66"><defs><style>.cls-1{fill:#f3b98a;}.cls-2{fill:#2a9150;}.cls-3{fill:#1e0e00;opacity:0.15;}.cls-4{fill:#9f7757;}.cls-5{fill:#393e56;}.cls-6{fill:#fdad55;}.cls-7{fill:#eee;}</style></defs><rect class="cls-1" x="24.07" y="13.01" width="1174.18" height="577.56"/><rect class="cls-2" x="56.18" y="28.8" width="1109.97" height="546.56"/><polygon class="cls-3" points="48.37 23.09 48.37 28.8 48.37 34.51 48.37 575.36 63.99 575.36 63.99 34.51 1158.34 34.51 1158.34 575.36 1173.95 575.36 1173.95 34.51 1173.95 28.8 1173.95 23.09 48.37 23.09"/><rect class="cls-4" x="8.28" y="582.74" width="1205.76" height="27.61"/><rect class="cls-3" x="8.28" y="610.34" width="1205.76" height="8.31"/><rect class="cls-5" x="177.1" y="539.55" width="83.09" height="34.47" transform="translate(437.29 1113.57) rotate(180)"/><rect class="cls-6" x="177.1" y="549.99" width="83.09" height="24.04" transform="translate(437.29 1124.01) rotate(180)"/><path class="cls-7" d="M163.16,573.8H105.78c-4.69,0-8.49-2.15-8.49-4.8h0c0-2.64,3.8-4.79,8.49-4.79h57.38c4.68,0,8.48,2.15,8.48,4.79h0C171.64,571.65,167.84,573.8,163.16,573.8Z"/><path class="cls-3" d="M171.64,569H97.29a3.32,3.32,0,0,1,1-2.27h72.33A3.32,3.32,0,0,1,171.64,569Z"/></svg>