<svg id="Layer_1" data-name="Layer 1" xmlns="http://www.w3.org/2000/svg" xmlns:xlink="http://www.w3.org/1999/xlink" viewBox="0 0 2101.88 1187.49"><defs><style>.cls-1{fill:none;}.cls-2{fill:url(#Áåçûìÿííûé_ãðàäèåíò_712);}.cls-3{fill:#f8e2b9;}.cls-4{fill:#ebd4ab;}.cls-5{fill:#f7d6a1;}.cls-6{font-size:14.33px;font-family:MyriadPro-Regular, Myriad Pro;}.cls-18,.cls-7{fill:#fff;}.cls-11,.cls-12,.cls-13,.cls-7{fill-rule:evenodd;}.cls-8{fill:#f0b081;}.cls-9{fill:#794d3b;}.cls-10{fill:#5c3829;}.cls-11{fill:#fbfeb7;}.cls-12{fill:#ffa745;}.cls-13{fill:#d46255;}.cls-14,.cls-15,.cls-16,.cls-17{font-size:55.23px;}.cls-14{fill:#c24502;}.cls-14,.cls-15,.cls-16,.cls-17,.cls-20,.cls-21,.cls-22,.cls-23,.cls-24{font-family:CoopHeavy;}.cls-15{fill:#a5d042;}.cls-16{fill:#4bcaed;}.cls-17{fill:#ed6c8a;}.cls-19,.cls-23{fill:#818dbd;}.cls-20{font-size:89.5px;}.cls-20,.cls-21,.cls-24{fill:#34a2a2;}.cls-20,.cls-21,.cls-22,.cls-24{stroke:#f9f9f9;}.cls-20,.cls-21,.cls-22,.cls-23,.cls-24{stroke-miterlimit:10;}.cls-21{font-size:74.72px;}.cls-22{font-size:76.07px;fill:#da717c;}.cls-23{font-size:73.49px;stroke:#f9f7f8;}.cls-24{font-size:68.62px;}</style><linearGradient id="Áåçûìÿííûé_ãðàäèåíò_712" x1="1017.51" y1="838.62" x2="1017.51" y2="6.57" gradientUnits="userSpaceOnUse"><stop offset="0" stop-color="#ccfcd0"/><stop offset="0.37" stop-color="#b1efcf"/><stop offset="0.75" stop-color="#9ce5cd"/><stop offset="1" stop-color="#94e1cd"/></linearGradient></defs><rect class="cls-1" x="221.82" y="110.24" width="1600" height="900"/><polygon class="cls-2" points="46.54 14.05 45.41 853.86 1985.14 851.14 1989.6 14.56 46.54 14.05"/><path class="cls-3" d="M150.88,1136.55c145.76,9.54,291,24.36,437,30.86q218,9.71,436.43,3.79,108.38-2.94,216.59-9.74c72-4.52,143.72-11.87,215.71-15.75,138.22-7.45,277.06-4.56,414.67-20.59,36.81-5.22,73.58-10.63,110.58-14.39,23-2.34,45.93-4.46,68.86-7,13.85-2.21,27.64-4.79,41.29-7.91-.34-2.77-.67-5.54-1-8.3q-3.28-22.17-7-44.26c-7.93-46.43-17.54-92.65-29.45-138.27l-111.85-75.71H109L10.78,870.15c-.08,86.27.75,172.71,6.14,258.84Q83.93,1132.17,150.88,1136.55Z"/><path class="cls-4" d="M2059.8,1077.81H14.15c0,1,.09,2.09.14,3.13h2046C2060.11,1079.9,2060,1078.85,2059.8,1077.81Z"/><path class="cls-4" d="M2044.41,989.3,11.57,988.68c0,1,0,2.06,0,3.09H2044.89Z"/><path class="cls-4" d="M2042.72,897.72,9.88,897.11l.06,3.08H2043.21C2043.05,899.37,2042.89,898.54,2042.72,897.72Z"/><path class="cls-4" d="M13.68,1066.26l345.55-210.6-3.52-2.93L13.39,1058.31C13.49,1061,13.58,1063.61,13.68,1066.26Z"/><path class="cls-4" d="M306.82,1148.43,590.24,849.15l-4.65-2L297.21,1147.67Z"/><path class="cls-4" d="M642.69,1169.91l192-351.37-4.52-.78L634.91,1169.64C637.5,1169.74,640.1,1169.82,642.69,1169.91Z"/><path class="cls-4" d="M1009.81,1171.2l4.68-.14,22.4-351.2-4.08,1.1-24.63,350.28Z"/><path class="cls-4" d="M1384.93,1149,1260.3,821.16l-3.29,2.71,121.36,325.63Z"/><path class="cls-4" d="M1760,1132.91,1473.43,838.78l-2.08,4.09,279.51,290.66Z"/><path class="cls-4" d="M2057.19,1061,1707.48,821.33l-1.26,4.38,352.48,244.93C2058.21,1067.41,2057.7,1064.19,2057.19,1061Z"/><polygon class="cls-5" points="31.93 858.47 1996.32 854.5 1996.35 814.78 31.93 818.77 31.93 858.47"/><text class="cls-6" transform="translate(865.39 459.86)"> </text><rect class="cls-1" x="61.07" y="17.77" width="1910.2" height="1074.49"/><rect class="cls-1" x="61.07" y="16.5" width="1910.2" height="1074.49"/><path class="cls-7" d="M610.15,572c.21.14.21.78.1,1C610,572.79,610.07,572.13,610.15,572Z"/><path class="cls-7" d="M620.64,574a28.84,28.84,0,0,1-8.4,0A58.94,58.94,0,0,0,620.64,574Z"/><path class="cls-7" d="M620.44,575.14h.15a17.25,17.25,0,0,1-4.65.23,9.26,9.26,0,0,1-2.31-.08C615.85,575.12,618.53,575.45,620.44,575.14Z"/><path class="cls-7" d="M619.55,575.62a26.58,26.58,0,0,1-6.87-.1C614.88,575.52,617.7,575.8,619.55,575.62Z"/><path class="cls-7" d="M624,577.71a.61.61,0,0,1,.19.58C624,578.25,623.78,577.79,624,577.71Z"/><path class="cls-7" d="M623.39,582.39c.41.23.6.29.54.85-.24.06-.23-.09-.2-.26a32.69,32.69,0,0,0-.28,4.76c-.12,2.19.58,4.81-.21,6.5,0-1.25,0-2.57,0-3.94-.08-2-.12-4.1,0-6A16.38,16.38,0,0,1,623.39,582.39Z"/><path class="cls-7" d="M616.46,602.19c.1,0,.38-.07.36.07S616.39,602.35,616.46,602.19Z"/><path class="cls-7" d="M617.59,599.52c-.21.09-.38,0-.73,0C617,599.37,617.34,599.45,617.59,599.52Z"/><path class="cls-7" d="M653.7,572.42c.21.14.21.78.1,1C653.58,573.26,653.62,572.6,653.7,572.42Z"/><path class="cls-7" d="M663.37,574.94h.22a25.68,25.68,0,0,1-7.31-.12C658.42,574.86,661.09,575.11,663.37,574.94Z"/><path class="cls-7" d="M664,575.61h.15a17.25,17.25,0,0,1-4.65.23,9.26,9.26,0,0,1-2.31-.08C659.4,575.59,662.08,575.92,664,575.61Z"/><path class="cls-7" d="M663.1,576.09a26.14,26.14,0,0,1-6.87-.1C658.43,576,661.25,576.27,663.1,576.09Z"/><path class="cls-7" d="M663.16,576.35a19.17,19.17,0,0,1-6.58-.09A45,45,0,0,0,663.16,576.35Z"/><path class="cls-7" d="M667.57,578.18a.61.61,0,0,1,.2.58C667.51,578.72,667.33,578.26,667.57,578.18Z"/><path class="cls-7" d="M666.94,582.86c.41.24.6.29.54.85-.24.06-.23-.09-.2-.26a32.69,32.69,0,0,0-.28,4.76c-.12,2.19.58,4.81-.21,6.5,0-1.25,0-2.56,0-3.93-.08-2-.12-4.11,0-6.06A16.66,16.66,0,0,1,666.94,582.86Z"/><path class="cls-7" d="M660,602.66c.1,0,.37-.06.36.07S659.94,602.82,660,602.66Z"/><path class="cls-7" d="M661.14,600c-.21.09-.38,0-.73,0C660.56,599.84,660.89,599.92,661.14,600Z"/><rect class="cls-8" x="168.2" y="243.22" width="221.1" height="248.37"/><rect class="cls-9" x="183.89" y="260.85" width="189.72" height="213.12"/><polygon class="cls-10" points="369.48 260.85 369.48 469.25 183.89 469.25 183.89 473.97 373.61 473.97 373.61 260.85 369.48 260.85"/><polygon class="cls-11" points="192.37 286.48 258.62 286.46 258.67 347.31 192.45 347.34 192.37 286.48"/><polygon class="cls-12" points="196.71 289.6 254.24 289.61 254.32 336.88 196.78 336.91 196.71 289.6"/><polygon class="cls-13" points="222.88 278.63 223.55 278.58 223.88 278.59 223.96 279.1 224.09 279.95 224.12 279.13 224.16 278.58 224.55 278.59 225.17 278.54 225.29 279.39 225.38 278.58 226.6 278.57 226.62 278.79 226.74 279.65 226.78 278.82 226.83 278.56 227.94 278.53 228.15 288.58 226.49 288.61 226.41 288.1 226.28 287.3 226.24 288.13 226.16 288.61 224.99 288.63 224.84 287.6 224.76 288.64 223.81 288.69 223.73 287.91 223.6 287.11 223.56 287.93 223.48 288.69 223.1 288.68 222.88 278.63"/><polygon class="cls-11" points="296.21 302.71 362.46 302.69 362.5 363.54 296.29 363.57 296.21 302.71"/><polygon class="cls-12" points="300.55 305.84 358.08 305.84 358.15 353.11 300.61 353.14 300.55 305.84"/><polygon class="cls-13" points="326.72 294.87 327.39 294.82 327.72 294.82 327.8 295.33 327.92 296.19 327.96 295.36 328 294.82 328.38 294.83 329 294.77 329.13 295.62 329.22 294.81 330.44 294.81 330.45 295.03 330.58 295.88 330.62 295.06 330.66 294.79 331.77 294.76 331.99 304.81 330.32 304.85 330.25 304.34 330.11 303.54 330.08 304.36 329.99 304.85 328.83 304.86 328.67 303.84 328.6 304.88 327.65 304.93 327.57 304.14 327.43 303.34 327.4 304.17 327.32 304.93 326.94 304.91 326.72 294.87"/><polygon class="cls-11" points="212.8 371.76 279.05 371.74 279.09 432.59 212.88 432.61 212.8 371.76"/><polygon class="cls-12" points="217.14 374.88 274.67 374.88 274.75 422.15 217.21 422.19 217.14 374.88"/><polygon class="cls-13" points="243.31 363.91 243.98 363.86 244.31 363.87 244.39 364.38 244.52 365.23 244.55 364.4 244.59 363.86 244.98 363.87 245.6 363.82 245.72 364.67 245.81 363.85 247.03 363.85 247.04 364.07 247.17 364.92 247.21 364.1 247.25 363.83 248.37 363.81 248.58 373.86 246.91 373.89 246.84 373.38 246.7 372.58 246.67 373.41 246.58 373.89 245.42 373.9 245.27 372.88 245.19 373.92 244.24 373.97 244.16 373.18 244.03 372.38 243.99 373.21 243.91 373.97 243.53 373.96 243.31 363.91"/><polygon class="cls-12" points="299.79 398.86 357.32 398.86 357.39 446.13 299.85 446.16 299.79 398.86"/><polygon class="cls-13" points="325.96 390.13 326.63 390.08 326.96 390.09 327.04 390.6 327.16 391.45 327.2 390.63 327.24 390.08 327.62 390.1 328.24 390.04 328.37 390.89 328.46 390.08 329.68 390.07 329.69 390.3 329.82 391.15 329.85 390.32 329.9 390.06 331.01 390.03 331.23 400.08 329.56 400.11 329.49 399.6 329.35 398.81 329.32 399.63 329.23 400.11 328.06 400.13 327.91 399.1 327.84 400.14 326.89 400.19 326.81 399.41 326.67 398.61 326.64 399.43 326.56 400.19 326.17 400.18 325.96 390.13"/><text class="cls-14" transform="translate(210.49 330.1)">A</text><text class="cls-15" transform="translate(316.18 347.94)">B</text><text class="cls-16" transform="translate(231.41 417.49)">C</text><text class="cls-17" transform="translate(319.41 439.31)">D</text><rect class="cls-8" x="1650.22" y="243.46" width="221.1" height="248.37"/><rect class="cls-9" x="1665.92" y="261.09" width="189.72" height="213.12"/><polygon class="cls-10" points="1851.51 261.09 1851.51 469.49 1665.92 469.49 1665.92 474.2 1855.63 474.2 1855.63 261.09 1851.51 261.09"/><path class="cls-18" d="M1737.76,356.13l.13-1.27a23.05,23.05,0,0,1,3.25-9.49c1.78-2.95,5.17-6.73,10.36-11.54,4-3.73,6.46-6.26,7.32-7.53a8.87,8.87,0,0,0,1.67-4.88,5.2,5.2,0,0,0-1.29-3.84,5.77,5.77,0,0,0-7.36.07c-.92.93-1.46,2.59-1.61,4.94l-.08,1.18-11.32-1.14.12-1.14c.57-5.27,2.42-9.14,5.49-11.49a18.14,18.14,0,0,1,11.31-3.49c4.93,0,8.88,1.38,11.74,4.08a13.46,13.46,0,0,1,4.35,10.18,17.3,17.3,0,0,1-1.23,6.49,25.54,25.54,0,0,1-3.78,6.31,57.39,57.39,0,0,1-6,6.15c-2.83,2.59-4.62,4.31-5.34,5.12l-.52.61h16.9v10.68Z"/><path class="cls-19" d="M1770.7,346.59V355H1739a21.8,21.8,0,0,1,3.08-9q2.58-4.28,10.16-11.31,6.12-5.69,7.49-7.71a9.91,9.91,0,0,0,1.87-5.53,6.26,6.26,0,0,0-1.63-4.65,6.9,6.9,0,0,0-9,.08c-1.12,1.14-1.76,3-1.93,5.66l-9-.9q.79-7.46,5.05-10.71a17,17,0,0,1,10.61-3.24q7,0,11,3.76a12.32,12.32,0,0,1,4,9.35,16.05,16.05,0,0,1-1.15,6.06,24.55,24.55,0,0,1-3.61,6,58.54,58.54,0,0,1-5.92,6c-2.85,2.61-4.66,4.35-5.41,5.2a15.3,15.3,0,0,0-1.85,2.51Z"/><polygon class="cls-13" points="1753.96 301.43 1754.52 301.42 1754.8 301.44 1754.84 301.87 1754.9 302.58 1754.97 301.9 1755.03 301.44 1755.35 301.47 1755.87 301.46 1755.93 302.17 1756.05 301.5 1757.06 301.55 1757.07 301.74 1757.13 302.45 1757.2 301.77 1757.25 301.55 1758.18 301.58 1757.89 309.96 1756.5 309.91 1756.46 309.48 1756.38 308.81 1756.32 309.5 1756.22 309.89 1755.25 309.85 1755.17 308.99 1755.06 309.86 1754.27 309.86 1754.24 309.19 1754.16 308.52 1754.09 309.21 1753.99 309.84 1753.67 309.81 1753.96 301.43"/><text class="cls-20" transform="translate(1688.28 344.54)">1</text><polygon class="cls-13" points="1700.19 282.23 1700.75 282.22 1701.03 282.24 1701.07 282.67 1701.13 283.38 1701.2 282.7 1701.26 282.25 1701.58 282.27 1702.1 282.25 1702.17 282.97 1702.28 282.3 1703.29 282.35 1703.3 282.54 1703.36 283.25 1703.43 282.57 1703.48 282.35 1704.41 282.38 1704.12 290.76 1702.73 290.71 1702.69 290.28 1702.61 289.61 1702.55 290.3 1702.45 290.69 1701.48 290.65 1701.4 289.79 1701.29 290.65 1700.5 290.65 1700.47 289.99 1700.39 289.32 1700.33 290.01 1700.22 290.64 1699.9 290.61 1700.19 282.23"/><text class="cls-21" transform="translate(1800.46 337.74) scale(0.98 1)">3</text><text class="cls-22" transform="translate(1679 448.27)">4</text><polygon class="cls-13" points="1816.5 283 1817.06 282.99 1817.34 283.01 1817.38 283.44 1817.44 284.15 1817.51 283.47 1817.57 283.01 1817.89 283.04 1818.41 283.03 1818.47 283.74 1818.59 283.07 1819.6 283.12 1819.6 283.31 1819.67 284.02 1819.74 283.34 1819.79 283.12 1820.72 283.15 1820.43 291.53 1819.04 291.48 1819 291.05 1818.92 290.38 1818.86 291.07 1818.76 291.46 1817.79 291.42 1817.71 290.56 1817.6 291.43 1816.81 291.43 1816.78 290.76 1816.7 290.09 1816.63 290.78 1816.53 291.41 1816.21 291.38 1816.5 283"/><polygon class="cls-13" points="1702.75 392.45 1703.32 392.44 1703.59 392.46 1703.63 392.89 1703.7 393.6 1703.76 392.92 1703.82 392.47 1704.14 392.5 1704.66 392.48 1704.73 393.19 1704.84 392.52 1705.86 392.57 1705.86 392.76 1705.92 393.47 1705.99 392.79 1706.04 392.57 1706.97 392.6 1706.68 400.98 1705.29 400.93 1705.25 400.5 1705.18 399.83 1705.11 400.52 1705.02 400.92 1704.04 400.87 1703.97 400.01 1703.86 400.88 1703.06 400.88 1703.03 400.21 1702.95 399.54 1702.89 400.23 1702.79 400.86 1702.47 400.83 1702.75 392.45"/><text class="cls-23" transform="translate(1801.44 448.3)">6</text><polygon class="cls-13" points="1822.63 394.29 1823.19 394.28 1823.47 394.3 1823.51 394.73 1823.57 395.44 1823.64 394.76 1823.7 394.31 1824.02 394.33 1824.54 394.32 1824.6 395.03 1824.71 394.36 1825.73 394.41 1825.73 394.6 1825.8 395.31 1825.87 394.63 1825.92 394.41 1826.85 394.44 1826.56 402.82 1825.17 402.77 1825.13 402.34 1825.05 401.67 1824.98 402.36 1824.89 402.75 1823.92 402.71 1823.84 401.86 1823.73 402.72 1822.94 402.72 1822.91 402.06 1822.83 401.38 1822.76 402.07 1822.66 402.7 1822.34 402.67 1822.63 394.29"/><text class="cls-24" transform="translate(1750.44 421.85)">5</text><polygon class="cls-13" points="1765.62 370.64 1766.18 370.63 1766.45 370.65 1766.49 371.08 1766.56 371.79 1766.63 371.11 1766.69 370.65 1767.01 370.68 1767.53 370.67 1767.59 371.38 1767.7 370.71 1768.72 370.76 1768.72 370.95 1768.79 371.66 1768.85 370.98 1768.9 370.76 1769.83 370.79 1769.55 379.17 1768.15 379.12 1768.12 378.69 1768.04 378.02 1767.97 378.71 1767.88 379.1 1766.91 379.06 1766.83 378.2 1766.72 379.06 1765.92 379.06 1765.89 378.4 1765.82 377.73 1765.75 378.42 1765.65 379.05 1765.33 379.02 1765.62 370.64"/><rect class="cls-1" x="61.07" y="16.5" width="1910.2" height="1074.49"/><rect class="cls-1" x="61.07" y="16.5" width="1910.2" height="1074.49"/></svg>