<svg id="Layer_1" data-name="Layer 1" xmlns="http://www.w3.org/2000/svg" viewBox="0 0 433.38 221.91"><defs><style>.cls-1{fill:#3d3d99;}.cls-2{fill:#fff;}</style></defs><path class="cls-1" d="M30.13,99.8A7.7,7.7,0,0,1,22.52,91a230.26,230.26,0,0,0,1.2-48.23q-3.57.64-6.45,1.39a7.68,7.68,0,0,1-9.64-7.28,137.74,137.74,0,0,0-2-19.38,7.69,7.69,0,0,1,7.14-9.09C18.69,8.06,25,7.91,31,7.77c10.29-.25,20.93-.5,29.74-1.63a7.93,7.93,0,0,1,1-.07,7.7,7.7,0,0,1,7.69,7.78c0,.1-.1,10,.22,19.18A7.7,7.7,0,0,1,62,41a4.87,4.87,0,0,1-.54,0c-2.73-.19-5.28-.31-7.73-.36.28,19,1.6,37.24,3.57,48.89a7.71,7.71,0,0,1-7.32,9c-9,.31-19,1.27-19.06,1.28A6.12,6.12,0,0,1,30.13,99.8Z"/><path class="cls-1" d="M79,99.36a7.63,7.63,0,0,1-.82,0c-.1,0-4-.42-9-.42-1.55,0-3.06,0-4.46.12h-.45a7.69,7.69,0,0,1-7.64-6.84C55.25,80.13,51.06,57,46.38,45.55A7.69,7.69,0,0,1,53.2,34.93c.27,0,6.6-.24,13.88-.24,1.23,0,2.48,0,3.74,0a7.69,7.69,0,0,1,7.6,7.69v.23a7.65,7.65,0,0,1,3.93-1.43l.55,0a7.71,7.71,0,0,1,4.42,1.4c.13-2.26.17-3.56.17-3.6a7.7,7.7,0,0,1,7.7-7.45,5.43,5.43,0,0,1,.57,0c8.8.66,16.91,1.52,17.25,1.56a7.68,7.68,0,0,1,6.48,10.08C115.76,54.39,111,76,109.77,90.33a7.71,7.71,0,0,1-7.67,7.06h-.31c-.88,0-1.74,0-2.57,0a64.54,64.54,0,0,0-10.43.81,8,8,0,0,1-1.38.12A7.75,7.75,0,0,1,84,97.47,7.68,7.68,0,0,1,79,99.36Z"/><path class="cls-1" d="M130,98.63c-9.83,0-22.52-5.81-25.91-22.19-2.48-11.9.33-25.07,7.17-33.55,4.78-5.93,11.28-9.22,18.3-9.28h.23c14.47,0,25.75,13.43,26.82,31.94,1.07,18.33-9.17,31.91-24.91,33C131.15,98.61,130.59,98.63,130,98.63Z"/><path class="cls-1" d="M178.34,100.35a7.71,7.71,0,0,1-7.5-9.45c3.6-15.42,2.6-55.34-.79-70.76a7.71,7.71,0,0,1,7.11-9.34c.08,0,9.12-.54,16.28-3.57a7.69,7.69,0,0,1,10.65,7.89A335.12,335.12,0,0,0,203,61.82,63.27,63.27,0,0,1,217,59.51h.34A7.71,7.71,0,0,1,225,67.76a129.36,129.36,0,0,0,.1,17.25,7.7,7.7,0,0,1-7.12,8.3,177.87,177.87,0,0,0-37.48,6.74A7.7,7.7,0,0,1,178.34,100.35Z"/><path class="cls-1" d="M242.3,98c-10.54,0-24.45-6.36-29-24.3-2.9-11.53-.81-23.75,5.45-31.91a25.22,25.22,0,0,1,20-10h.53c16.38,0,26.91,11.37,28.43,30.52l.22.21a7.71,7.71,0,0,1,2.43,5.66c-.14,20.79-14.14,29-26.09,29.79C243.7,98,243,98,242.3,98Z"/><path class="cls-1" d="M283,98.64a23.66,23.66,0,0,1-4.25-.39c-8.32-1.51-21.37-8.86-19.81-40.4a7.49,7.49,0,0,1-1.18-.94,7.73,7.73,0,0,1-2.32-5.85c.24-5.25.92-10.09.95-10.29a7.7,7.7,0,0,1,5.82-6.4c.78-3.57,1.71-7.16,2.76-10.71a7.69,7.69,0,0,1,7.38-5.52h.11c7.48.11,14.94.44,15.25.45a7.69,7.69,0,0,1,6.79,10.6q-.7,1.71-1.32,3.45h.45a7.69,7.69,0,0,1,7.57,9.1,70,70,0,0,0-1.08,10.66,7.69,7.69,0,0,1-7.7,7.69l-.64,0c5.72,2.16,10.21,4.21,10.44,4.32a7.69,7.69,0,0,1,4.44,7.83C304.53,91.7,293.05,98.64,283,98.64Z"/><path class="cls-1" d="M318.23,98.64a23.66,23.66,0,0,1-4.25-.39c-8.32-1.51-21.37-8.86-19.82-40.4a7,7,0,0,1-1.17-.94,7.69,7.69,0,0,1-2.32-5.85c.23-5.25.92-10.09.95-10.29a7.7,7.7,0,0,1,5.82-6.4c.78-3.57,1.7-7.16,2.75-10.71a7.7,7.7,0,0,1,7.38-5.52h.11c7.49.11,14.94.44,15.26.45a7.69,7.69,0,0,1,6.78,10.6q-.69,1.71-1.32,3.45h.46a7.68,7.68,0,0,1,7.56,9.1,70,70,0,0,0-1.08,10.66,7.69,7.69,0,0,1-7.69,7.69l-.64,0c5.72,2.16,10.2,4.21,10.43,4.32a7.69,7.69,0,0,1,4.44,7.83C339.75,91.7,328.26,98.64,318.23,98.64Z"/><path class="cls-1" d="M358.15,98c-10.54,0-24.45-6.36-29-24.3-2.9-11.53-.81-23.75,5.45-31.91a25.2,25.2,0,0,1,20-10h.53c16.38,0,26.91,11.37,28.43,30.52l.22.21a7.71,7.71,0,0,1,2.43,5.66c-.14,20.79-14.14,29-26.09,29.79C359.55,98,358.84,98,358.15,98Z"/><path class="cls-1" d="M382.39,99.47a7.69,7.69,0,0,1-7.67-8.25c1.48-20.44,1.39-36.52-.27-47.81a7.7,7.7,0,0,1,7.39-8.81c1.81-.05,7.25-.48,10.61-1.78a7.7,7.7,0,0,1,7.32,1c.21.15.41.32.61.49a24.44,24.44,0,0,1,6.7-1,20.6,20.6,0,0,1,3.63.31C416,34.49,428.23,39,427.83,62a7.7,7.7,0,0,1-7,7.53,75.57,75.57,0,0,0-14.36,3.25,7.67,7.67,0,0,1-2.45.4h-.13c.5,5.82,1.12,11.21,1.79,15.3a7.7,7.7,0,0,1-7.59,9H397a43.88,43.88,0,0,0-12.27,1.73A7.72,7.72,0,0,1,382.39,99.47Z"/><path class="cls-2" d="M45.93,27.2c0,20,1.21,42.9,3.73,57.82-9.33.33-19.53,1.31-19.53,1.31,2.2-14.92,3-37.41.44-58.14a116.44,116.44,0,0,0-15.25,2.74A143.41,143.41,0,0,0,13.23,10.3c15.8-.88,34-.44,48.5-2.3,0,0-.11,10.09.22,19.53A149.26,149.26,0,0,0,45.93,27.2Z"/><path class="cls-2" d="M102.1,83.92a72.91,72.91,0,0,0-14.7.88,86.4,86.4,0,0,0-4.17-14.59A81.77,81.77,0,0,0,79,85.89a101.62,101.62,0,0,0-14.7-.32C62.82,72.84,58.54,49.14,53.5,36.85c0,0,8.66-.33,17.22-.22,0,11,1.1,21.73,3.18,29.52a153,153,0,0,0,9-23s4.83,10.75,9.32,21.39a304.78,304.78,0,0,0,3-31c8.77.66,17,1.54,17,1.54C108.13,47.17,103.3,69.44,102.1,83.92Z"/><path class="cls-2" d="M131.17,85.13c-6.48.44-16.79-2.75-19.53-16-3.18-15.25,4.28-33.46,18-33.57,9.88-.11,18.43,9.54,19.31,24.68C149.71,73.39,143.57,84.25,131.17,85.13Zm-1.76-33.36c-4.72.44-7.57,8.12-6.36,15,.88,5.82,4,8.23,6.91,7.9,4.39-.44,6.69-6.14,6.25-12C135.67,55.83,132.7,51.55,129.41,51.77Z"/><path class="cls-2" d="M178.34,86.88c3.84-16.46,2.85-57.71-.77-74.16,0,0,10.31-.55,18.87-4.17-1.65,15.69-2.19,42.46-.22,57.93,6-2.42,13.6-4.72,21.07-5.05a136.33,136.33,0,0,0,.1,18.43A186.42,186.42,0,0,0,178.34,86.88Z"/><path class="cls-2" d="M243.83,84.47c-9.1.66-19.53-4.5-23-18.43C217,50.79,223.65,33.89,238.9,33.67c14.59-.22,20.62,11,21.28,25.13a187,187,0,0,0-26.88,2.52c.55,6.91,3.07,12.4,6.69,12.07,3.41-.33,4.06-4.94,3.3-9.11,0,0,10-1.32,19.41-2C262.6,78.21,252.61,83.92,243.83,84.47Zm-5.15-39.61c-2.64.44-4.5,4-5.27,8.89a90.1,90.1,0,0,0,11.52-1.1C244.27,47.93,242.08,44.42,238.68,44.86Z"/><path class="cls-2" d="M280.15,84.91c-12.73-2.31-15-20.41-12.95-39.5-2.52.11-4.06.22-4.06.22.22-4.94.88-9.55.88-9.55l4.61-.21a142.33,142.33,0,0,1,3.73-15.8c7.46.11,15,.44,15,.44a92.81,92.81,0,0,0-4.61,14.59l10.86-.55a77.52,77.52,0,0,0-1.21,12.07,111,111,0,0,0-11.85-1.21c-2.3,13.71-1.64,24.47.77,25.34S285.08,66.37,285,60c7.35,2.53,14,5.6,14,5.6C297.37,80.63,289.14,86.55,280.15,84.91Z"/><path class="cls-2" d="M315.36,84.91c-12.73-2.31-15-20.41-12.94-39.5-2.53.11-4.06.22-4.06.22.22-4.94.87-9.55.87-9.55l4.61-.21a147,147,0,0,1,3.73-15.8c7.46.11,15,.44,15,.44A93.87,93.87,0,0,0,318,35.1l10.87-.55a77.52,77.52,0,0,0-1.21,12.07,111,111,0,0,0-11.85-1.21c-2.3,13.71-1.65,24.47.77,25.34s3.73-4.38,3.62-10.75c7.35,2.53,14,5.6,14,5.6C332.59,80.63,324.36,86.55,315.36,84.91Z"/><path class="cls-2" d="M359.68,84.47c-9.1.66-19.53-4.5-23-18.43-3.84-15.25,2.86-32.15,18.11-32.37,14.59-.22,20.62,11,21.28,25.13a187,187,0,0,0-26.88,2.52c.55,6.91,3.07,12.4,6.69,12.07,3.4-.33,4.06-4.94,3.29-9.11,0,0,10-1.32,19.42-2C378.44,78.21,368.46,83.92,359.68,84.47Zm-5.15-39.61c-2.64.44-4.5,4-5.27,8.89a90.1,90.1,0,0,0,11.52-1.1C360.12,47.93,357.93,44.42,354.53,44.86Z"/><path class="cls-2" d="M404,59.67c.22-6.14-1.2-10.09-3.29-10.53-1.86-.33-3.84.33-5.48,3.18a284.91,284.91,0,0,0,2.85,31.6A51.7,51.7,0,0,0,382.39,86c1.1-15.14,1.87-34.56-.33-49.48,0,0,7.79-.22,13.17-2.3C395.12,36,395,38,395,40a17.81,17.81,0,0,1,14.37-4.6c7.24,1.2,11,8.33,10.75,20.62A84.18,84.18,0,0,0,404,59.67Z"/><path class="cls-1" d="M129,215.84a6.93,6.93,0,0,1-1.43-.14,73.71,73.71,0,0,0-12-1c-.95,0-1.89,0-2.77.07h-.4a7.69,7.69,0,0,1-7.69-7.44C104,184.51,99.37,153.53,94,135.25a7.69,7.69,0,0,1,7.39-9.84h1A140.16,140.16,0,0,0,121.31,124a7.81,7.81,0,0,1,1.18-.09,7.7,7.7,0,0,1,7.69,8c-.12,2.76-.18,5.93-.17,9.3a7.78,7.78,0,0,1,4.16-1.33h.18a7.69,7.69,0,0,1,6.3,3.28c-.08-5.1-.28-9.8-.59-13.62a7.69,7.69,0,0,1,7.67-8.31h.33c.1,0,10.47.45,21,1a7.68,7.68,0,0,1,7,9.66c-5,18.71-8.94,47.69-10.06,73.83a7.7,7.7,0,0,1-7.68,7.37h-.28c-.81,0-1.61,0-2.4,0a82.34,82.34,0,0,0-13.48,1.13,8.16,8.16,0,0,1-1.39.12,7.76,7.76,0,0,1-4.83-1.69c-.17-.14-.33-.28-.48-.43a7.53,7.53,0,0,1-1.92,2.1A7.65,7.65,0,0,1,129,215.84Z"/><path class="cls-1" d="M183.65,214.12c-9.83,0-22.52-5.81-25.91-22.19-2.48-11.89.33-25.07,7.17-33.55,4.78-5.92,11.28-9.22,18.3-9.27h.23c14.47,0,25.75,13.43,26.82,31.94,1.07,18.33-9.17,31.91-24.91,33C184.79,214.1,184.23,214.12,183.65,214.12Z"/><path class="cls-1" d="M205.1,215a7.69,7.69,0,0,1-7.67-8.25c1.48-20.44,1.39-36.53-.27-47.8a7.69,7.69,0,0,1,7.39-8.81c1.81-.06,7.25-.49,10.61-1.79a7.7,7.7,0,0,1,7.32,1l.61.49a24.82,24.82,0,0,1,6.7-1,21.59,21.59,0,0,1,3.63.31c5.24.87,17.53,5.4,17.12,28.34a7.7,7.7,0,0,1-7,7.53,76.42,76.42,0,0,0-14.36,3.25,7.67,7.67,0,0,1-2.45.4h-.13c.5,5.83,1.12,11.21,1.79,15.31a7.7,7.7,0,0,1-7.59,8.94h-1a43.88,43.88,0,0,0-12.27,1.73A7.72,7.72,0,0,1,205.1,215Z"/><path class="cls-1" d="M275.32,214.19a7.71,7.71,0,0,1-5.4-2.2,8.54,8.54,0,0,1-.64-.71,28.16,28.16,0,0,1-4.63.5H264c-15.22,0-26.05-11.37-26.33-27.65-.33-16.11,9.18-33.38,25.67-34.36h.13l1,0a24.6,24.6,0,0,1,4.05.33c-.53-10.22-1.4-19.79-2.51-27.39a7.7,7.7,0,0,1,7.22-8.79,103.6,103.6,0,0,0,16.62-2.63,7.5,7.5,0,0,1,1.88-.23,7.69,7.69,0,0,1,7.64,8.61c-2.39,19.93-4.18,64.29-1.75,84.74A7.7,7.7,0,0,1,290,213a7.41,7.41,0,0,1-1.24-.1,8.24,8.24,0,0,0-1,0,84.72,84.72,0,0,0-11.16,1.23A7.35,7.35,0,0,1,275.32,214.19Z"/><path class="cls-1" d="M313,214.08c-11.17-.15-19.87-4.61-26.59-13.62a7.69,7.69,0,0,1-.2-8.92,74.27,74.27,0,0,1,6.57-8.22,20,20,0,0,1-5.15-12.68,20.57,20.57,0,0,1,5.17-14.77c2.79-3.1,8-6.88,17-7.3.52,0,1,0,1.49,0,13,0,23,8,27.29,21.89a7.71,7.71,0,0,1-5,9.63A17.6,17.6,0,0,1,339,193.73c-.32,12-10.82,20.36-25.56,20.36Z"/><path class="cls-2" d="M158.37,199.63a89.94,89.94,0,0,0-17.55,1.21s-.55-15.58-5.16-27.76A124.08,124.08,0,0,0,129,202.37a78.51,78.51,0,0,0-16.57-1.09c-.77-23.15-5.37-54.75-11-73.95a146.26,146.26,0,0,0,21.07-1.54,310.18,310.18,0,0,0,1.86,44.88,219.72,219.72,0,0,0,10-28.86c2.86,9.66,7,21.18,12.4,29.95,2-15.14,2-36.31,1-48.6,0,0,10.31.44,21,1C163.86,142.25,159.58,171.54,158.37,199.63Z"/><path class="cls-2" d="M184.81,200.62c-6.48.44-16.79-2.74-19.53-16-3.18-15.25,4.28-33.46,18-33.57,9.88-.11,18.43,9.54,19.31,24.68C203.35,188.88,197.21,199.74,184.81,200.62Zm-1.76-33.35c-4.72.44-7.57,8.11-6.36,15,.88,5.81,3.95,8.23,6.91,7.9,4.39-.44,6.69-6.15,6.26-12C189.31,171.33,186.34,167.05,183.05,167.27Z"/><path class="cls-2" d="M226.72,175.17c.21-6.15-1.21-10.1-3.3-10.54-1.86-.33-3.84.33-5.48,3.18a284.91,284.91,0,0,0,2.85,31.6,51.53,51.53,0,0,0-15.69,2.09c1.1-15.14,1.87-34.56-.33-49.48,0,0,7.79-.22,13.17-2.31-.11,1.76-.22,3.73-.22,5.82a17.81,17.81,0,0,1,14.37-4.61c7.24,1.21,11,8.34,10.75,20.62A83.64,83.64,0,0,0,226.72,175.17Z"/><path class="cls-2" d="M290,199.52c-4.06-.66-14.71,1.21-14.71,1.21A60.15,60.15,0,0,0,276,194a18.14,18.14,0,0,1-11.52,4.27c-10.64.22-18.87-7.35-19.09-20.07-.22-10.64,5.49-25.79,18.43-26.55a16,16,0,0,1,12.95,5.7,363.27,363.27,0,0,0-3.07-41.58,109.81,109.81,0,0,0,18.1-2.85C289.47,132.16,287.38,177.36,290,199.52Zm-20.41-32c-4.83-.88-10,3.62-10.64,10-.44,5.05,3.29,8.45,7.35,8.12,4.28-.22,7.46-3,8.45-8.56C275.64,172.2,274,168.25,269.61,167.49Z"/><path class="cls-2" d="M313.05,200.62c-7.79-.11-14.7-2.74-20.52-10.53a75.47,75.47,0,0,1,9.88-11.41c3.73,7.57,10.42,9.43,12.07,7.46,1.31-1.65.44-4.5-6.7-7.57-6.47-2.75-12.17-6.81-12.5-14-.33-5.81,3.29-13.49,14.81-14,12.4-.55,18.43,8,21.06,16.46A43.47,43.47,0,0,0,317,171.11c-3.29-8.56-8.67-8.23-8.23-4.83,1.32,9.21,22.82,7.35,22.49,21.5C331,196.23,322.92,200.73,313.05,200.62Z"/></svg>