<svg id="Layer_1" data-name="Layer 1" xmlns="http://www.w3.org/2000/svg" viewBox="0 0 180 280"><defs><style>.cls-1{opacity:0.2;}.cls-2{fill:#161616;}.cls-3{fill:#ff9f2c;stroke:#84480d;}.cls-15,.cls-3,.cls-5,.cls-9{stroke-miterlimit:10;}.cls-4{fill:#b5650d;}.cls-5{fill:#35467a;stroke:#1d2c54;}.cls-6{fill:#233559;}.cls-7{fill:#2b3245;}.cls-8{fill:#35374c;}.cls-9{fill:#eee1b7;stroke:#3d3c21;stroke-width:2px;}.cls-10{fill:#efd9ca;}.cls-11{fill:#fff;}.cls-12{fill:#1b1b26;}.cls-13{fill:#191928;}.cls-14{fill:#f9f5f2;}.cls-15{fill:#faa02c;stroke:#af6617;}.cls-16{fill:#c7323e;}.cls-17{fill:#ad886f;}</style></defs><g class="cls-1"><ellipse class="cls-2" cx="95.72" cy="256.5" rx="83" ry="23"/></g><path class="cls-3" d="M133.65,233.38s-2.35,8.79,2.07,15.76c2.92,4.61-5.22,8.09-5.22,8.09l-18.29,13a2.77,2.77,0,0,1-3.81-.56c-1.43-1.84-4.35-3.53-10-.19,0,0-.85-7.79-9.12-3.1,0,0,4-6.21-4.68-3.9L94,256a27.43,27.43,0,0,1,2.46-1.55c5-2.74,10.53-4.5,15.92-6.23l5.73-1.83.61-9.58S128.24,224.6,133.65,233.38Z"/><path class="cls-4" d="M98.26,269.43a11.89,11.89,0,0,1,2.16-6.88,18.36,18.36,0,0,1,4.87-4.95,19.52,19.52,0,0,1,6.25-2.83,17.83,17.83,0,0,1,3.44-.49,14.63,14.63,0,0,1,3.62.36l.13.38c-2,.81-3.88,1.65-5.76,2.61a44.75,44.75,0,0,0-5.4,3.26,38.77,38.77,0,0,0-4.9,3.94,29.12,29.12,0,0,0-2.16,2.29,18.86,18.86,0,0,0-1.89,2.5Z"/><path class="cls-4" d="M89.72,265.32A12.49,12.49,0,0,1,92.39,259a20.06,20.06,0,0,1,4.87-4.6,21.86,21.86,0,0,1,6-2.82,21.21,21.21,0,0,1,3.26-.68,16.29,16.29,0,0,1,3.42,0l.1.28c-1.94.79-3.86,1.6-5.72,2.54a48.38,48.38,0,0,0-5.39,3.16,39.52,39.52,0,0,0-4.9,3.85A28.82,28.82,0,0,0,91.87,263,18.69,18.69,0,0,0,90,265.47Z"/><path class="cls-4" d="M117.08,246.57a5.31,5.31,0,0,1,1.9-2.24,8.25,8.25,0,0,1,2.48-1.16,10,10,0,0,1,5.12,0,10.77,10.77,0,0,1,4.35,2.28,10.93,10.93,0,0,1,1.67,1.9,9.57,9.57,0,0,1,1.15,2.52l-.2.35c-1.29-.65-2.58-1.27-3.89-1.84A27.92,27.92,0,0,0,125.6,247a18.13,18.13,0,0,0-4.19-.67,13.5,13.5,0,0,0-2.11.11,7.29,7.29,0,0,0-2,.45Z"/><path class="cls-3" d="M83.23,233.06s-2.16,1.88,1.52,9.28c2.42,4.88-5.16,7.5-5.16,7.5L60,260.92a2.79,2.79,0,0,1-3.73-.95c-1.23-2-4-4-9.89-1.23,0,0,0-7.83-8.75-4,0,0,4.63-5.75-4.25-4.36l9.95-5.54a25.06,25.06,0,0,1,2.6-1.28c5.22-2.22,10.94-3.39,16.48-4.55l5.89-1.22-.88-7.94S78.76,223.77,83.23,233.06Z"/><path class="cls-4" d="M46.26,258.63A11.91,11.91,0,0,1,49.12,252a18.47,18.47,0,0,1,5.36-4.41,19.47,19.47,0,0,1,6.5-2.16,17.48,17.48,0,0,1,3.47-.14A14.38,14.38,0,0,1,68,246l.1.39c-2,.6-4,1.24-6,2a46.37,46.37,0,0,0-5.71,2.68,38,38,0,0,0-5.28,3.41,27.58,27.58,0,0,0-2.39,2.06,19.2,19.2,0,0,0-2.14,2.28Z"/><path class="cls-4" d="M38.19,253.66a12.36,12.36,0,0,1,3.31-6,19.66,19.66,0,0,1,5.32-4.08,21.94,21.94,0,0,1,6.27-2.18,22.92,22.92,0,0,1,3.31-.34,16.44,16.44,0,0,1,3.4.36l.08.29c-2,.58-4,1.19-6,1.93a47.75,47.75,0,0,0-5.69,2.59A38.55,38.55,0,0,0,43,249.57a28.75,28.75,0,0,0-2.39,2,19,19,0,0,0-2.14,2.26Z"/><path class="cls-4" d="M67.34,237.84a5.55,5.55,0,0,1,2.12-2,8.41,8.41,0,0,1,2.59-.9,10,10,0,0,1,5.1.53,10.7,10.7,0,0,1,4.09,2.71,11.33,11.33,0,0,1,1.46,2.07,9.69,9.69,0,0,1,.89,2.63l-.24.32c-1.22-.78-2.44-1.53-3.68-2.23a26.08,26.08,0,0,0-3.9-1.74,17.62,17.62,0,0,0-4.1-1.1,12.39,12.39,0,0,0-2.11-.12,7.48,7.48,0,0,0-2.07.24Z"/><path class="cls-5" d="M56.43,144.54s-33.33,39.24,8.36,74.51C64.79,219.05,91.83,183.38,56.43,144.54Z"/><path class="cls-6" d="M67.28,230.21c0-1.44,2-5.64,1.31-9.51C55.37,195.61,44.16,162,81.38,131.56,106,111.45,117,116.18,123.31,175.44c-7.3,47.61-36.54,54.05-37.73,57.76l-.85,1.71c-1.14,1.29.43,4.77-1.26,5.09-3.84.72-13.61-1.43-15.54-4.78A45.83,45.83,0,0,1,67.28,230.21Z"/><path class="cls-7" d="M60.52,71.79c-.72,1.93-5.71,36.35-47.64,39.79,0,0-21-1.8-6.53,14.39s48.11,18.26,66.67-5.8S60.52,71.79,60.52,71.79Z"/><path class="cls-8" d="M57.43,55.4c-.06-2.68-12.61-9.13.63-35.59s59.22-22.68,77.29-6.88c13.11,11.48,21.28,26.3,19.12,65-1.34,23.89,17.8,68.42,18.49,98.32s-10.59,48.23-38.77,58.29-74.57,8.12-91.07-24.93,4.47-96.24,11.69-116S57.75,71.28,57.43,55.4Z"/><path class="cls-9" d="M51.37,219.13C91.85,250.8,131,213,134.65,175.83c3-30.46-4.62-63.21-7.46-94.86-.63-6.94-1-13.82-1-20.61,0,0,2.52-35.51-18.55-42.61-15.86-5.34-27.05,3.77-28.07,18.82-.33,5-1.4,9.68.68,15.63,0,0-5.26,7.71-13.91-1.16a26.9,26.9,0,0,0,4.1-9,21.31,21.31,0,0,0-1.65-15.3C63,15.63,49.54,28.68,54.27,44.56v0c.63,2.09.7,8.52.64,22.18-.11,26.76-6.87,43.3-11.45,63.92S29.63,202.12,51.37,219.13Z"/><path class="cls-10" d="M54.75,44.56c-1.34-4.91,1.34-22.75,9.68-18.74,6.11,2.94,6.06,11,5.55,16.15,1.08-4.29,1.54-9.19-1.37-14.77C62.88,16.21,50,28.68,54.75,44.56Z"/><ellipse class="cls-11" cx="92.16" cy="41.58" rx="9.66" ry="8.33" transform="translate(47.32 132.19) rotate(-87.96)"/><path class="cls-12" d="M83.87,41.28a10.51,10.51,0,0,0,2.07,6.56,7.57,7.57,0,0,0,5.89,3A7.47,7.47,0,0,0,97.57,48,10.54,10.54,0,0,0,98,35.58a7.45,7.45,0,0,0-5.53-3.3,7.56,7.56,0,0,0-6.09,2.6A10.47,10.47,0,0,0,83.87,41.28Zm-.07,0a10.6,10.6,0,0,1,2.47-6.52,7.62,7.62,0,0,1,12.27.43,10.79,10.79,0,0,1-.48,13.21A7.61,7.61,0,0,1,85.8,48,10.61,10.61,0,0,1,83.8,41.28Z"/><ellipse class="cls-13" cx="88.25" cy="41.51" rx="6.89" ry="4.46" transform="translate(40.55 126.58) rotate(-85.91)"/><ellipse class="cls-14" cx="90.48" cy="37.09" rx="1.87" ry="1.66" transform="translate(47.03 124.69) rotate(-85.91)"/><ellipse class="cls-11" cx="64.28" cy="40.67" rx="8.11" ry="5.14" transform="translate(23.25 104.72) rotate(-89.68)"/><path class="cls-12" d="M59.18,40.4a11.46,11.46,0,0,0,1.09,5.07,6.42,6.42,0,0,0,1.55,2,3.71,3.71,0,0,0,2.2.92c1.62,0,2.89-1.26,3.61-2.7a10.6,10.6,0,0,0,1.11-4.79,10.9,10.9,0,0,0-.86-4.86,7,7,0,0,0-1.3-2,3.6,3.6,0,0,0-2-1.09c-1.6-.22-3.16,1-4,2.48A11.08,11.08,0,0,0,59.18,40.4Zm-.08,0a11.25,11.25,0,0,1,1.28-5.08,6.24,6.24,0,0,1,1.7-2,3.71,3.71,0,0,1,2.49-.78A4.12,4.12,0,0,1,67,33.63a7.28,7.28,0,0,1,1.52,2.16,11.69,11.69,0,0,1,1,5.15A11.15,11.15,0,0,1,68.19,46a6.24,6.24,0,0,1-1.7,2,3.69,3.69,0,0,1-2.5.77,4.09,4.09,0,0,1-2.37-1.11,7.14,7.14,0,0,1-1.51-2.16A11.71,11.71,0,0,1,59.1,40.4Z"/><ellipse class="cls-13" cx="61.98" cy="40.81" rx="3.26" ry="5.75"/><ellipse class="cls-14" cx="62.95" cy="37.18" rx="1.05" ry="1.56"/><path class="cls-15" d="M70.5,72.22C75.28,72.54,93.07,60.46,93,57v0a.2.2,0,0,0,0-.13c0-.12-.37,0-.94.18-.12,0-.26.08-.42.11a7.51,7.51,0,0,1-3.24.27c-3.39-.62-8.68-7.35-15.7-12.34a2.44,2.44,0,0,0-.55-.29,1.21,1.21,0,0,0-.42-.16,1.66,1.66,0,0,0-.48-.08.83.83,0,0,0-.35,0,1.87,1.87,0,0,0-.4.07,1,1,0,0,0-.41.13l-.07,0a2.3,2.3,0,0,0-.39.19,4.1,4.1,0,0,0-.43.26c-3.65,2.43-7.07,10.7-9.6,10.31a0,0,0,0,0,0,0,1.77,1.77,0,0,0-.32,0c-.6-.05-1.8,0-2,.8a4.92,4.92,0,0,0,0,.65.55.55,0,0,1,0,.17C57.14,60.34,67.81,72,70.5,72.22Z"/><path class="cls-16" d="M66.65,65.39c5.92.07,10.93-2.6,13.4-3.61,2.27-.93,12-4.71,12-4.71S76.13,61.56,73.8,61.61c-4.18.09-8.27-3.53-8.27-3.53s-2.41,2.31-4.07,1.71A3.9,3.9,0,0,1,60,59.2C60.78,60.86,62.75,65.34,66.65,65.39Z"/><path class="cls-15" d="M59,58.43a9.86,9.86,0,0,0,1.81,1.09c2.6,1.11,4.73-1.44,4.73-1.44a14.92,14.92,0,0,0,8.27,3.53c1.89.22,8.92-1.52,11.68-2.23C89.35,58.36,93,57,93,57v0c-.07-.09-.4-.05-.92,0-.12,0-.26.08-.42.11a7.51,7.51,0,0,1-3.24.27c-3.39-.62-8.68-7.35-15.7-12.34a2.44,2.44,0,0,0-.55-.29,1.21,1.21,0,0,0-.42-.16,1.66,1.66,0,0,0-.48-.08.83.83,0,0,0-.35,0,1.87,1.87,0,0,0-.4.07,1,1,0,0,0-.41.13l-.07,0a2.3,2.3,0,0,0-.39.19,4.1,4.1,0,0,0-.43.26c-3.65,2.43-7.07,10.7-9.6,10.31a0,0,0,0,0,0,0,1.77,1.77,0,0,0-.32,0c-.6-.05-1.8,0-2,.8A10,10,0,0,0,59,58.43Z"/><path class="cls-8" d="M126.24,65.39c.23,1.84-.14,31.82-19.54,42.42C67.08,129.44,66,152.78,76.79,157c12.73,5,73-13.51,77.12-48.57"/><path class="cls-17" d="M91,55.75a5.57,5.57,0,0,1,2.36.21,1.3,1.3,0,0,1,.74.65,1.84,1.84,0,0,1,.13,1,9,9,0,0,1-.67,2.25c-.31.75-.66,1.49-1,2.26a11.26,11.26,0,0,0,1.45-2,6.54,6.54,0,0,0,.85-2.41,2.37,2.37,0,0,0-.22-1.37,1.8,1.8,0,0,0-1.13-.85,3.24,3.24,0,0,0-1.31-.06A4.52,4.52,0,0,0,91,55.75Z"/><path class="cls-17" d="M59.66,55.15a4.15,4.15,0,0,0-1.17-.33,2.66,2.66,0,0,0-1.27.12,1.68,1.68,0,0,0-.59.37,2,2,0,0,0-.39.59,2.87,2.87,0,0,0-.13,1.32,7.38,7.38,0,0,0,.79,2.33,11.67,11.67,0,0,0,1.33,2c-.28-.76-.59-1.49-.87-2.22a10.6,10.6,0,0,1-.6-2.2,1.55,1.55,0,0,1,.67-1.74,2.71,2.71,0,0,1,1-.26A6.65,6.65,0,0,1,59.66,55.15Z"/><path class="cls-8" d="M172.35,182.26c-7.29,47.61-31.93,55.13-38.4,60h0a7.83,7.83,0,0,1-4.49,2.55c-3.83.68-9.43.16-11.91-2.53,0,0-3.48-5.32-3.45-6.49,0-1.44,5.34-4.94,4.61-8.81-13.22-25.09-21.81-58.39,15.42-88.8"/><path class="cls-8" d="M108.63,112.72c-1-2.54-26.38-2-26.84,5.1s12.89-1.18,7.82,12.11S116.69,132.62,108.63,112.72Z"/><path class="cls-7" d="M37.08,104.15c1.78,1.22-3.18,13.59-8.74,11.84s3.21-6-8-7.26S23.1,94.6,37.08,104.15Z"/></svg>