<svg id="Layer_1" data-name="Layer 1" xmlns="http://www.w3.org/2000/svg" viewBox="0 0 182.01 281.5"><defs><style>.cls-1{opacity:0.2;}.cls-2{fill:#161616;}.cls-3{fill:#ff9f2c;stroke:#84480d;}.cls-15,.cls-19,.cls-3,.cls-5,.cls-9{stroke-miterlimit:10;}.cls-4{fill:#b5650d;}.cls-5{fill:#35467a;stroke:#1d2c54;}.cls-6{fill:#233559;}.cls-7{fill:#2b3245;}.cls-8{fill:#35374c;}.cls-18,.cls-9{fill:#eee1b7;}.cls-9{stroke:#3d3c21;}.cls-19,.cls-9{stroke-width:2px;}.cls-10{fill:#efd9ca;}.cls-11,.cls-19{fill:#fff;}.cls-12{fill:#1b1b26;}.cls-13{fill:#191928;}.cls-14{fill:#f9f5f2;}.cls-15{fill:#faa02c;stroke:#af6617;}.cls-16{fill:#c7323e;}.cls-17{fill:#ad886f;}.cls-19{stroke:#1b1b26;}.cls-20{fill:#fcfbfa;}.cls-21{fill:#aa2939;}.cls-22{fill:#8e7c4d;}</style></defs><g class="cls-1"><ellipse class="cls-2" cx="97.69" cy="257.67" rx="83.31" ry="23.08"/></g><path class="cls-3" d="M135.72,233.77s-2.39,8.92,2.09,16c3,4.67-5.29,8.2-5.29,8.2L114,271.19a2.83,2.83,0,0,1-3.87-.56c-1.44-1.86-4.4-3.58-10.1-.2,0,0-.85-7.89-9.25-3.14,0,0,4.06-6.29-4.75-4l9.45-6.64c.81-.57,1.64-1.09,2.49-1.57,5-2.78,10.68-4.57,16.15-6.31L119.9,247l.62-9.72S130.23,224.87,135.72,233.77Z"/><path class="cls-4" d="M99.83,270.34a12.08,12.08,0,0,1,2.21-7,19,19,0,0,1,4.94-5,19.83,19.83,0,0,1,6.33-2.88,18.26,18.26,0,0,1,3.48-.51,14.88,14.88,0,0,1,3.66.35l.14.37c-2,.83-4,1.68-5.85,2.65a48.25,48.25,0,0,0-5.48,3.3,39.1,39.1,0,0,0-5,4A28.21,28.21,0,0,0,102.1,268a19.37,19.37,0,0,0-1.92,2.53Z"/><path class="cls-4" d="M91.16,266.17a12.67,12.67,0,0,1,2.73-6.36,20.24,20.24,0,0,1,4.94-4.66,22.45,22.45,0,0,1,6.09-2.86,20.61,20.61,0,0,1,3.3-.7,17.38,17.38,0,0,1,3.46,0l.1.28-2.93,1.23c-1,.45-1.94.85-2.88,1.35a48.1,48.1,0,0,0-5.46,3.2,40,40,0,0,0-5,3.91,26.32,26.32,0,0,0-2.2,2.28,18.36,18.36,0,0,0-1.92,2.49Z"/><path class="cls-4" d="M118.91,247.15a5.38,5.38,0,0,1,1.93-2.24,8.2,8.2,0,0,1,2.51-1.17,10.1,10.1,0,0,1,5.18,0,11,11,0,0,1,4.41,2.3,11.54,11.54,0,0,1,1.7,1.91,9.91,9.91,0,0,1,1.18,2.54l-.2.34c-1.31-.65-2.62-1.28-4-1.86a27.55,27.55,0,0,0-4.12-1.35,18,18,0,0,0-4.25-.67,13.94,13.94,0,0,0-2.14.1,7.89,7.89,0,0,0-2.07.46Z"/><path class="cls-3" d="M84.58,233.45s-2.19,1.91,1.53,9.41c2.46,4.95-5.23,7.6-5.23,7.6L61.05,261.7a2.81,2.81,0,0,1-3.78-1c-1.25-2-4-4-10-1.25,0,0,0-7.94-8.87-4.08,0,0,4.69-5.84-4.32-4.42l10.09-5.63a29.35,29.35,0,0,1,2.64-1.3c5.3-2.24,11.1-3.43,16.72-4.6l6-1.25-.89-8.05S80,224,84.58,233.45Z"/><path class="cls-4" d="M47.08,259.38A12.13,12.13,0,0,1,50,252.69a18.8,18.8,0,0,1,5.44-4.46A19.74,19.74,0,0,1,62,246a18.76,18.76,0,0,1,3.52-.15,15.1,15.1,0,0,1,3.61.72l.09.39c-2,.62-4.09,1.26-6.09,2a46.23,46.23,0,0,0-5.79,2.72A38.27,38.27,0,0,0,52,255.2a30.11,30.11,0,0,0-2.42,2.08,19.75,19.75,0,0,0-2.17,2.32Z"/><path class="cls-4" d="M38.89,254.34a12.62,12.62,0,0,1,3.38-6,20.05,20.05,0,0,1,5.4-4.13A22.39,22.39,0,0,1,54,242a22,22,0,0,1,3.35-.36,17,17,0,0,1,3.45.35l.07.29-3,.91c-1,.35-2,.65-3,1a49,49,0,0,0-5.76,2.63,38.51,38.51,0,0,0-5.35,3.37,31.47,31.47,0,0,0-2.43,2,18.66,18.66,0,0,0-2.16,2.29Z"/><path class="cls-4" d="M68.46,238.3a5.55,5.55,0,0,1,2.15-2,8.29,8.29,0,0,1,2.63-.9,10.14,10.14,0,0,1,5.15.54,10.88,10.88,0,0,1,4.15,2.74A12.22,12.22,0,0,1,84,240.73a10.2,10.2,0,0,1,.91,2.65l-.24.32c-1.23-.79-2.47-1.55-3.73-2.27a27.94,27.94,0,0,0-4-1.76,18.15,18.15,0,0,0-4.16-1.12,15.27,15.27,0,0,0-2.14-.12,7.7,7.7,0,0,0-2.1.25Z"/><path class="cls-5" d="M57.39,143.68s-33.8,39.8,8.48,75.56C65.87,219.24,93.3,183.06,57.39,143.68Z"/><path class="cls-6" d="M68.4,230.56c0-1.47,2.06-5.72,1.33-9.65-13.41-25.44-24.79-59.55,13-90.39,25-20.4,36.14-15.6,42.52,44.5-7.4,48.28-37.06,54.81-38.26,58.57l-.86,1.74c-1.16,1.3.43,4.84-1.28,5.16-3.9.73-13.8-1.46-15.76-4.85A46.75,46.75,0,0,1,68.4,230.56Z"/><path class="cls-7" d="M61.09,91.85c-.72,2-5.79,36.87-48.32,40.36,0,0-21.26-1.83-6.62,14.59s48.8,18.51,67.62-5.88S61.09,91.85,61.09,91.85Z"/><path class="cls-8" d="M58.4,53.28c0-2.72-14.44,4.76-1-22.07s59-35.52,77.29-19.49c13.31,11.64,25.77,26,22.15,64.36-2.27,24.16,18.06,69.4,18.76,99.72s-10.74,48.91-39.32,59.11-75.64,8.24-92.38-25.28S48.43,112,55.75,92,58.73,69.38,58.4,53.28Z"/><path class="cls-9" d="M52.26,219.32c41.05,32.12,80.73-6.26,84.47-43.91,3.07-30.89-3-65.06-5.85-97.16-.64-7-2.75-13-2.75-19.94,0,0,2.56-36-18.82-43.22C93.23,9.68,81.88,18.92,80.84,34.18c-.33,5-1.41,9.82.69,15.85,0,0-5.33,7.82-14.11-1.17a27.16,27.16,0,0,0,4.17-9.11,21.66,21.66,0,0,0-1.68-15.52c-5.82-11.28-19.51,2-14.7,18.06v0c.63,2.12.7,8.63.64,22.49-.11,27.14-7,43.91-11.62,64.82S30.21,202.07,52.26,219.32Z"/><path class="cls-10" d="M55.69,42.29c-1.36-5,1.36-23.07,9.82-19,6.19,3,6.15,11.2,5.63,16.38,1.09-4.35,1.56-9.32-1.39-15C63.94,13.53,50.88,26.19,55.69,42.29Z"/><ellipse class="cls-11" cx="93.63" cy="39.26" rx="9.79" ry="8.45" transform="matrix(0.04, -1, 1, 0.04, 51.05, 131.43)"/><path class="cls-12" d="M85.29,39a11.08,11.08,0,0,0,.5,3.49,9.56,9.56,0,0,0,1.7,3,7.17,7.17,0,0,0,5.83,2.6,6.83,6.83,0,0,0,5.07-3,9.3,9.3,0,0,0,1.36-2.66,9.79,9.79,0,0,0,.53-3,9.38,9.38,0,0,0-.32-3,8.8,8.8,0,0,0-1.16-2.75A6.8,6.8,0,0,0,94,30.42a7.2,7.2,0,0,0-6,2.18A9.3,9.3,0,0,0,86,35.51,11.34,11.34,0,0,0,85.29,39Zm-.2,0A10.84,10.84,0,0,1,87.6,32.3a7.81,7.81,0,0,1,12.59.42,11,11,0,0,1-.49,13.53,7.8,7.8,0,0,1-12.58-.48A10.8,10.8,0,0,1,85.09,39Z"/><ellipse class="cls-13" cx="95.41" cy="39.32" rx="6.99" ry="6.22" transform="translate(49.39 131.68) rotate(-85.91)"/><ellipse class="cls-14" cx="92.94" cy="34.71" rx="1.89" ry="1.68" transform="translate(51.68 124.94) rotate(-85.91)"/><ellipse class="cls-11" cx="65.35" cy="38.34" rx="8.22" ry="5.22" transform="translate(26.64 103.48) rotate(-89.68)"/><path class="cls-12" d="M60.24,38.07a13.57,13.57,0,0,0,.28,2.63,9,9,0,0,0,.95,2.42A6,6,0,0,0,63.13,45a3.14,3.14,0,0,0,2,.63c1.29-.12,2.21-1.27,2.76-2.62a9.52,9.52,0,0,0,.63-2.13,11.53,11.53,0,0,0,.24-2.28,12.47,12.47,0,0,0-.12-2.29,9.54,9.54,0,0,0-.52-2.2,4.13,4.13,0,0,0-2.56-3c-1.27-.35-2.9.59-3.83,2a8.66,8.66,0,0,0-1.09,2.37A12.58,12.58,0,0,0,60.24,38.07Zm-.2,0a11.58,11.58,0,0,1,1.29-5.19,6.45,6.45,0,0,1,1.74-2.08A3.81,3.81,0,0,1,65.65,30a4.2,4.2,0,0,1,2.48,1.14,7.3,7.3,0,0,1,1.57,2.21,12,12,0,0,1,1.07,5.28,11.7,11.7,0,0,1-1.35,5.21,6.41,6.41,0,0,1-1.77,2.07,3.84,3.84,0,0,1-2.6.8,4.17,4.17,0,0,1-2.45-1.16,7.29,7.29,0,0,1-1.55-2.22A11.86,11.86,0,0,1,60,38.07Z"/><ellipse class="cls-13" cx="66.43" cy="37.47" rx="3.95" ry="5.83"/><ellipse class="cls-14" cx="64.01" cy="34.8" rx="1.07" ry="1.58"/><path class="cls-15" d="M71.66,70.34c4.85.32,22.89-11.93,22.78-15.4l0,0a.15.15,0,0,0,0-.13c0-.12-.37,0-1,.18l-.42.12a7.75,7.75,0,0,1-3.29.27c-3.44-.63-8.8-7.45-15.93-12.51a2,2,0,0,0-.56-.3,1,1,0,0,0-.42-.16,1.4,1.4,0,0,0-.49-.08.83.83,0,0,0-.35,0,2.07,2.07,0,0,0-.41.07,1,1,0,0,0-.41.13l-.07,0a2.8,2.8,0,0,0-.4.19,3.39,3.39,0,0,0-.43.27c-3.7,2.46-7.18,10.84-9.74,10.45,0,0,0,0,0,0a1.77,1.77,0,0,0-.32,0c-.61,0-1.83,0-2.06.82a3.84,3.84,0,0,0,0,.65.55.55,0,0,1,0,.17C58.12,58.29,68.93,70.16,71.66,70.34Z"/><path class="cls-16" d="M67.76,63.41c6,.08,11.09-2.63,13.59-3.67C83.65,58.8,93.49,55,93.49,55S77.37,59.53,75,59.58c-4.24.09-8.39-3.59-8.39-3.59s-2.44,2.35-4.12,1.75a4.16,4.16,0,0,1-1.5-.61C61.8,58.82,63.81,63.36,67.76,63.41Z"/><path class="cls-15" d="M60,56.35a9.61,9.61,0,0,0,1.83,1.11c2.64,1.12,4.8-1.47,4.8-1.47A15.16,15.16,0,0,0,75,59.58c1.92.22,9-1.54,11.85-2.26,3.92-1,7.58-2.38,7.58-2.38l0,0c-.07-.09-.4-.05-.93,0l-.42.12a7.75,7.75,0,0,1-3.29.27c-3.44-.63-8.8-7.45-15.93-12.51a2,2,0,0,0-.56-.3,1,1,0,0,0-.42-.16,1.4,1.4,0,0,0-.49-.08.83.83,0,0,0-.35,0,2.07,2.07,0,0,0-.41.07,1,1,0,0,0-.41.13l-.07,0a2.8,2.8,0,0,0-.4.19,3.39,3.39,0,0,0-.43.27c-3.7,2.46-7.18,10.84-9.74,10.45,0,0,0,0,0,0a1.77,1.77,0,0,0-.32,0c-.61,0-1.83,0-2.06.82A10.31,10.31,0,0,0,60,56.35Z"/><path class="cls-8" d="M131.55,67.94c.23,1.86,2.33,42.75-17.34,53.49C74,143.37,73,167,83.87,171.37c12.91,5.11,74-13.71,78.22-49.26"/><path class="cls-17" d="M92.47,53.63a5.88,5.88,0,0,1,2.39.21,1.32,1.32,0,0,1,.75.67,1.87,1.87,0,0,1,.13,1,9.45,9.45,0,0,1-.67,2.29c-.32.75-.68,1.5-1,2.28a12,12,0,0,0,1.47-2.06,7,7,0,0,0,.87-2.45,2.47,2.47,0,0,0-.24-1.39A1.75,1.75,0,0,0,95,53.36a3.49,3.49,0,0,0-1.32-.07A5.09,5.09,0,0,0,92.47,53.63Z"/><path class="cls-17" d="M60.67,53a4.29,4.29,0,0,0-1.19-.34,2.7,2.7,0,0,0-1.28.12,1.65,1.65,0,0,0-.6.38,1.86,1.86,0,0,0-.4.6,2.92,2.92,0,0,0-.13,1.33,7.3,7.3,0,0,0,.8,2.37,12.51,12.51,0,0,0,1.34,2c-.28-.76-.59-1.5-.87-2.24a10.29,10.29,0,0,1-.61-2.23,1.58,1.58,0,0,1,.67-1.77A3.06,3.06,0,0,1,59.48,53,7.92,7.92,0,0,1,60.67,53Z"/><path class="cls-8" d="M175,181.93c-7.4,48.29-32.39,55.92-38.95,60.87h0a8,8,0,0,1-4.55,2.58c-3.89.69-9.56.17-12.09-2.56,0,0-3.52-5.4-3.49-6.58,0-1.47,5.41-5,4.67-8.94-13.4-25.44-22.11-59.21,15.64-90.05"/><path class="cls-8" d="M113.25,125.74c-1-2.57-26.76-2-27.23,5.18S99.1,129.72,94,143.2,121.43,145.92,113.25,125.74Z"/><path class="cls-7" d="M36.42,125.57c1.81,1.23-3.22,13.78-8.87,12s3.27-6.13-8.1-7.36S22.25,115.88,36.42,125.57Z"/><path class="cls-18" d="M130.88,86.54C118.64,94.8,105,98.63,89.65,99.45c-36.07,1.94-37.34-12-38.08-25a.25.25,0,0,0,0-.08s-11.05-9.25-9.41-27.77,15.09-37,46-44.06S144,9.85,154,39.87C159.8,57.18,147.53,75.28,130.88,86.54Z"/><path class="cls-8" d="M130.65,88.33C133.3,70,124.85,46.07,117,35.54c-9.26-12.4-25.84-20.61-40.92-7.47s1.64,37,1.64,37L65.16,63.76C62.92,41.06,50.07,44.5,50.07,44.5c-14,9.41,2.24,29.32,2.24,29.32l-.74.62a.25.25,0,0,0,0-.08s-11.05-9.25-9.41-27.77,15.09-37,46-44.06S145.26,9.46,154,39.87C161.35,65.26,147.31,77.08,130.65,88.33Z"/><path class="cls-19" d="M94.11,47.17c-1.89-5.07-7.16-7.76-11.77-6s-6.81,7.26-4.92,12.33,7.17,7.76,11.78,6S96,52.23,94.11,47.17Z"/><path class="cls-13" d="M87,51c-2-2.69-5.33-3.63-7.43-2.1s-2.16,5-.16,7.65,5.33,3.64,7.42,2.1S89,53.72,87,51Z"/><path class="cls-20" d="M87,50.58a1.55,1.55,0,0,0-2-1,1.66,1.66,0,1,0,2,1Z"/><path class="cls-19" d="M64.71,59.11c-1.61-4.22-5.62-6.63-9-5.39S51,59.4,52.58,63.62s5.62,6.64,9,5.39S66.31,63.33,64.71,59.11Z"/><path class="cls-13" d="M60.39,61.75c-1.67-2.26-4.44-3.07-6.2-1.8s-1.84,4.14-.18,6.41,4.44,3.07,6.2,1.79S62.05,64,60.39,61.75Z"/><path class="cls-20" d="M59.66,60.55a1.42,1.42,0,0,0-1.67-1,1.38,1.38,0,0,0-.57,1.86,1.41,1.41,0,0,0,1.67,1A1.4,1.4,0,0,0,59.66,60.55Z"/><path class="cls-15" d="M77,89.09c5-1.45,18.45-20.32,17-23.76l0,0a.25.25,0,0,0,0-.14c-.08-.11-.38.12-.88.53-.11.08-.24.18-.39.27a8,8,0,0,1-3.19,1.48c-3.7.62-11.7-4.27-20.78-6.74a2.38,2.38,0,0,0-.68-.1,1.16,1.16,0,0,0-.49,0,1.65,1.65,0,0,0-.51.09.82.82,0,0,0-.36.14,1.41,1.41,0,0,0-.38.21,1.44,1.44,0,0,0-.37.28.09.09,0,0,0-.06.06,2,2,0,0,0-.33.33,2.36,2.36,0,0,0-.33.42c-2.78,3.83-3.07,13.51-5.8,14,0,0,0,0,0,0a2.75,2.75,0,0,0-.34.1c-.63.17-1.84.64-1.76,1.57a5.8,5.8,0,0,0,.27.65.51.51,0,0,1,.07.17C58.75,82,74.15,89.91,77,89.09Z"/><path class="cls-21" d="M70.39,83.57c6.07-2.12,10.14-6.7,12.26-8.65C84.6,73.14,93,65.7,93,65.7S78.57,76.16,76.21,77.08c-4.22,1.63-9.79-.54-9.79-.54s-1.56,3.24-3.48,3.25a4.45,4.45,0,0,1-1.73-.05C62.65,81.13,66.41,85,70.39,83.57Z"/><path class="cls-15" d="M59.89,79.32a10.35,10.35,0,0,0,2.27.44c3.08.16,4.26-3.22,4.26-3.22a16.46,16.46,0,0,0,9.79.54c2-.48,8.51-4.86,11.05-6.6C90.81,68,94,65.33,94,65.33l0,0c-.11-.07-.43.1-.92.39-.11.08-.24.18-.39.27a8,8,0,0,1-3.19,1.48c-3.7.62-11.7-4.27-20.78-6.74a2.38,2.38,0,0,0-.68-.1,1.16,1.16,0,0,0-.49,0,1.65,1.65,0,0,0-.51.09.82.82,0,0,0-.36.14,1.41,1.41,0,0,0-.38.21,1.44,1.44,0,0,0-.37.28.09.09,0,0,0-.06.06,2,2,0,0,0-.33.33,2.36,2.36,0,0,0-.33.42c-2.78,3.83-3.07,13.51-5.8,14,0,0,0,0,0,0a2.75,2.75,0,0,0-.34.1c-.63.17-1.84.64-1.76,1.57A11.62,11.62,0,0,0,59.89,79.32Z"/><path class="cls-22" d="M53.26,74.13a17,17,0,0,0-.67,4.44,21.71,21.71,0,0,0,.08,2.28,21,21,0,0,0,.4,2.24,16.1,16.1,0,0,0,4.54,7.78,11.93,11.93,0,0,0,1.75,1.51c.64.44,1.23,1,1.91,1.33l2,1.13a7,7,0,0,0,1.07.5l1.09.45a40.93,40.93,0,0,0,9.11,2.49,64.15,64.15,0,0,0,19-.39,90.55,90.55,0,0,0,18.46-5.08,90.46,90.46,0,0,1-18.38,5.57,64.91,64.91,0,0,1-19.23.89A42.08,42.08,0,0,1,65,97l-1.15-.43a7,7,0,0,1-1.12-.5L60.57,94.9c-.73-.39-1.38-.92-2.07-1.37A13.58,13.58,0,0,1,56.58,92a17.84,17.84,0,0,1-5.21-8.43,23.49,23.49,0,0,1-.5-2.47,21.13,21.13,0,0,1-.15-2.51,18.76,18.76,0,0,1,.64-5Z"/></svg>