<svg id="Layer_1" data-name="Layer 1" xmlns="http://www.w3.org/2000/svg" viewBox="0 0 220 460"><defs><style>.cls-1{opacity:0.3;}.cls-2{fill:#919fab;}.cls-3{fill:#2e3d49;}.cls-4{fill:#a9bac8;}.cls-15,.cls-5{fill:#b2c8d8;}.cls-5{stroke:#405260;}.cls-22,.cls-5,.cls-6{stroke-miterlimit:10;}.cls-6{fill:#ea8690;stroke:#59301e;}.cls-7{fill:#d6747d;}.cls-8{fill:#c7d6e2;}.cls-9{fill:#99b7c9;}.cls-10{fill:#cadcea;}.cls-11{fill:#becfdc;}.cls-12{fill:#d6e3eb;}.cls-13{fill:#8a96a1;}.cls-14{fill:#fff;}.cls-16{fill:#c3beba;}.cls-17{fill:#592c0e;}.cls-18{fill:#842c1a;}.cls-19{fill:#23110a;}.cls-20{fill:#f1d8be;}.cls-21{fill:#3c1212;}.cls-22{fill:#cb6c82;stroke:#b24461;}.cls-23{fill:gray;}.cls-24{fill:#a2494f;}.cls-25{fill:#cb666b;}.cls-26{fill:#dcaaa9;}.cls-27{fill:#7b373b;}</style></defs><ellipse class="cls-1" cx="89.62" cy="434.85" rx="86.36" ry="21.67"/><path class="cls-2" d="M157.62,427a30.17,30.17,0,0,1-7.88,10.4c16,2.68,27.17-18.08,26.45-26.79a31.42,31.42,0,0,0-3.16,1.3Z"/><path class="cls-3" d="M173.5,411.41l-.53.24h-.06L157.45,426.8l-.06.08a30.25,30.25,0,0,1-7.82,10.31l-.36.32.48.08a17,17,0,0,0,7-.26c12.45-3.08,20.39-19.45,19.79-26.79l0-.28-.29.08A20.25,20.25,0,0,0,173.5,411.41Zm-17,25.46a16.56,16.56,0,0,1-6.27.33,31.08,31.08,0,0,0,7.57-10.12l15.32-15,.55-.25a21.72,21.72,0,0,1,2.26-.95C176.33,418.22,168.58,433.89,156.54,436.87Z"/><path class="cls-4" d="M165.78,403.21a15.9,15.9,0,0,0-9.27,3.68s4.58,17.92-6.77,30.15a39.62,39.62,0,0,0,12-6.19s-1.2-.35-3.62-.88c18.15-10.85,15.87-24.53,15.59-28.73-2.46,2.06-8.21,4.29-8.21,4.29A4.4,4.4,0,0,1,165.78,403.21Z"/><path class="cls-3" d="M165.71,405.19a3.93,3.93,0,0,1,.3-1.89l.15-.35-.39,0a17.56,17.56,0,0,0-2.89.45,15.45,15.45,0,0,0-6.54,3.31l-.1.09,0,.13c0,.18,4.42,17.94-6.71,29.93l-.57.62.82-.24A40.18,40.18,0,0,0,161.89,431l.35-.28-.43-.13s-1-.3-3.07-.75c16.73-10.26,15.68-23,15.28-27.84q0-.45-.06-.81l0-.47-.38.32C171.47,402.81,166.92,404.71,165.71,405.19Zm7.82-3.11c.4,4.8,1.44,17.54-15.54,27.7l-.51.3.58.12c1.55.34,2.6.6,3.15.75a40,40,0,0,1-10.72,5.62c10.1-11.59,6.68-27.94,6.3-29.6a15.5,15.5,0,0,1,6.2-3.09,16.76,16.76,0,0,1,2.42-.41,4.9,4.9,0,0,0-.15,2.11l.05.28.28-.11a42.07,42.07,0,0,0,7.91-4Z"/><path class="cls-5" d="M84.26,178.51l-2-23.4S77.44,75.93,57.82,51.56C43.46,28,16.34,4.35,10.76,3.48c-1.94-.3-3.57,11.1-5.62,22.1s-8.09,69.57,22.6,100.55c41.82,41.37,44.89,53.19,45.39,57.75Z"/><path class="cls-6" d="M15.9,59.21c.08,2.68.23,5.41.43,8.14A145.05,145.05,0,0,0,19.8,90.89s0,0,0,0c.05.23.12.46.17.68a66.58,66.58,0,0,0,3,9.26c11.45,27.22,49,49.22,49,49.22S67.91,116.92,60,84c-.06-.25-.11-.49-.18-.74C57,71.62,50.94,60.6,44.25,51.2A165.84,165.84,0,0,0,17.51,22.07C16.7,24.79,15.24,41,15.9,59.21Z"/><path class="cls-7" d="M20.66,92.22a64.74,64.74,0,0,0,3,9c11.15,26.53,47.7,48,47.7,48s-4-32.31-11.66-64.37l0,0s-.46,30.95-3.83,38.34c0,0-26.73-14-35-30.62C20.77,92.41,20.71,92.32,20.66,92.22Z"/><path class="cls-5" d="M116.05,185.14l5.39-22.85s16.37-77.62,39.34-98.85c17.65-21.18,47.94-40.64,53.59-40.68,2,0,1.91,11.5,2.32,22.68s-2.17,70-37.07,96.16c-47.43,34.8-52.2,46.05-53.35,50.48Z"/><path class="cls-6" d="M201.13,77.14c-.48,2.64-1,5.31-1.61,8a145.79,145.79,0,0,1-6.88,22.78l0,0c-.08.21-.18.43-.27.64a66.71,66.71,0,0,1-4.35,8.71c-15.31,25.26-55.65,41.53-55.65,41.53s8.88-32.21,21.52-63.61c.1-.23.18-.47.28-.7,4.5-11.12,12.11-21.13,20.11-29.44A166.33,166.33,0,0,1,205,40.16C205.38,43,204.45,59.23,201.13,77.14Z"/><path class="cls-7" d="M191.59,109.09a65.23,65.23,0,0,1-4.24,8.49C172.43,142.19,133.13,158,133.13,158s8.65-31.37,21-62l0,0s-4.07,30.69-1.81,38.49c0,0,28.48-9.94,39.07-25.17A2.22,2.22,0,0,1,191.59,109.09Z"/><path class="cls-4" d="M30.51,352.61S9.15,366.08,10.28,391.69c1,22.65,17.18,31.86,25.68,34.26,4.34,1.22,27.09,4.41,33.85,1C24.33,409.79,30.51,352.61,30.51,352.61Z"/><path class="cls-8" d="M30.51,352.61S9.15,366.08,10.28,391.69a40.68,40.68,0,0,0,3.21,14.52c8.58,17.13,35.51,12,33.41,4.9C26.72,387.66,30.51,352.61,30.51,352.61Z"/><path class="cls-4" d="M30.51,352.61S9.15,366.08,10.28,391.69a40.68,40.68,0,0,0,3.21,14.52c.19.37.39.73.59,1.08-6.11-15.4.41-31.42,11.76-42.16a23.87,23.87,0,0,1,4.41-3.54A76.18,76.18,0,0,1,30.51,352.61Z"/><path class="cls-3" d="M33.39,383.3a98.18,98.18,0,0,1-2.59-30.66l.07-.6-.53.33c-.21.14-21.48,13.86-20.36,39.33.9,20.34,14.51,31.3,25.9,34.51A108,108,0,0,0,52,428.47h0c6.13.45,14.22.6,17.93-1.28l.55-.28-.59-.23C46.55,417.87,37.16,398.23,33.39,383.3Zm18.67,44.61h0a107,107,0,0,1-16-2.23c-11.2-3.16-24.59-14-25.47-34-1-22.93,16.36-36.22,19.59-38.49a99.56,99.56,0,0,0,2.66,30.22C36.58,398.34,45.92,418,69.07,427,65.26,428.49,57.8,428.34,52.06,427.91Z"/><path class="cls-8" d="M145.46,318.16l-41.83,14.92s2.44,31.24,4.73,52.4,33.88,38,58.68,30.62c15.17-33.3-2.79-54.49-12.86-66.42S143.45,326.6,145.46,318.16Z"/><path class="cls-3" d="M154.47,349.58l-.06-.08c-8.33-9.87-11.25-20.4-8.67-31.28l.12-.5L103.32,332.9l0,.2c0,.32,2.46,31.49,4.72,52.4.87,8,6,15.84,14.31,22A56.05,56.05,0,0,0,150.81,418a45.25,45.25,0,0,0,16.32-1.66l.13,0,.05-.12c6.59-14.45,7.62-28.37,3.07-41.35C166.53,363.87,159.56,355.61,154.47,349.58Zm12.35,66.29a44.69,44.69,0,0,1-16,1.59,55.32,55.32,0,0,1-28.12-10.37c-8.23-6.1-13.23-13.78-14.08-21.64-2.17-20-4.49-49.42-4.71-52.18l41.11-14.67c-2.41,10.88.58,21.39,8.9,31.25l.06.07C164.41,362.25,181.8,382.86,166.82,415.87Z"/><path class="cls-8" d="M130.29,275.07l-23.23,2-4.55,41.07c15.55,13.88,41.76,5.41,41.76,5.41a14.39,14.39,0,0,1-1,4.68,31.14,31.14,0,0,0,7.52-31.16C145.66,280.25,130.29,275.07,130.29,275.07Z"/><path class="cls-3" d="M130.38,274.81l-.06,0-23.29,2,.06.55,23.16-2c1,.37,15.39,5.83,20.22,21.81A31.08,31.08,0,0,1,144,327.08a13.52,13.52,0,0,0,.6-3.49l0-.41-.41.13c-.26.09-26.22,8.26-41.46-5.34l-.4.4C116.74,331.25,140.53,325,144,324a14.33,14.33,0,0,1-1,4.18l-.54,1.24,1-.93A31.66,31.66,0,0,0,151,297C146,280.23,130.54,274.86,130.38,274.81Z"/><path class="cls-9" d="M109.17,302s10.86-4.09,6.31-13.38a4.65,4.65,0,0,1,2.9.77s-4-10.27-9.31-12.72-52.41-3.39-52.41-3.39-12.52,2-14.54,15.39c4.06-2.91,6.6-3.29,6.6-3.29s-9.81,6.7-3.38,23.82c3.27-4.24,3-4.82,3.27-4.24a33.24,33.24,0,0,1,.54,6.1c-.09,1.12-1.44,16.35-9.85,27.91-10,13.81-16.87,24.22-13.88,47.95l3.48-4.41s-5.47,13.36,8.91,27l.18-4.47S46.44,434.92,98.65,429c16.23-15.59,21.29-72.21,7.69-88.5A53.26,53.26,0,0,0,109.17,302Z"/><path class="cls-10" d="M91.73,279.14c1.81-1.78,3.91-2.23,5.79-4.11-15.61-1.23-40.86-1.74-40.86-1.74s-12.52,2-14.54,15.39c4.06-2.91,6.6-3.29,6.6-3.29s-9.81,6.7-3.38,23.82c3.27-4.24,3-4.82,3.27-4.24a33.24,33.24,0,0,1,.54,6.1c-.09,1.12-1.44,16.35-9.85,27.91-10,13.81-16.87,24.22-13.88,47.95l3.48-4.41s-5.47,13.36,8.91,27l.18-4.47s4,10.05,22.8,7.79c17.31-2.08,33.62-14.69,34.29-56.05.13-7.49.23-19.22-2.36-26.85C92.4,329,117.73,293,91.73,279.14Z"/><path class="cls-11" d="M47.47,282.88c1-3.44,4-6.8,6.82-8.94a17.9,17.9,0,0,0-12.17,14.74c4.06-2.91,6.6-3.29,6.6-3.29s-9.81,6.7-3.38,23.82c3.27-4.24,3-4.82,3.27-4.24a33.24,33.24,0,0,1,.54,6.1c-.09,1.12-1.44,16.35-9.85,27.91-10,13.81-16.87,24.22-13.88,47.95l3.48-4.41s-5.47,13.36,8.91,27c-9.1-17-6.28-29.29-2-43.1-.74.08-5.25,5.07-7.33,9.25,3.42-24.37,15.75-33.26,15.77-33.4,1.3-17.68,7.89-24.83,8.23-45.6-1.79,2.94-3.91,3.53-5.55,5.74-1.69-9.87,4-17.14,8.14-20.76C52.5,281.57,49.32,281.89,47.47,282.88Z"/><path class="cls-3" d="M109.54,302.17c1.07-.45,5.18-2.4,6.75-6.17a8.68,8.68,0,0,0-.35-7.09,4.27,4.27,0,0,1,2.25.7l.85.68-.38-1c-.16-.43-4.08-10.41-9.47-12.88-1.44-.66-5.72-1.24-13.08-1.79C80.61,273.5,56.9,273,56.61,273c-.13,0-12.76,2.16-14.79,15.62l-.1.68.57-.41a21.58,21.58,0,0,1,5.29-2.9c-2.33,2.3-7.7,9.49-2.52,23.29l.19.5.33-.43a45.11,45.11,0,0,0,2.78-3.94.56.56,0,0,1,0-.08,38.75,38.75,0,0,1,.44,5.7c-.05.65-1.27,16.05-9.79,27.77C28.46,353.41,22.23,363.93,25.13,387l.08.7,3-3.77c-.93,3.89-2.16,14.84,9.42,25.83l.48.46.14-3.65a31.92,31.92,0,0,0,7,10c5.4,5.32,15.6,11.94,33.56,13.27a108.42,108.42,0,0,0,19.92-.55h.11l.07-.07C106.43,421.9,112.22,405,114,385s-1-36.94-7.29-44.58A54.21,54.21,0,0,0,109.54,302.17ZM113.39,385c-1.74,19.78-7.44,36.53-14.88,43.75a107.81,107.81,0,0,1-19.71.53c-34-2.5-40.47-24-40.53-24.25l-.5-1.78-.23,5.66c-13.47-13.19-8.42-26.12-8.37-26.25l.78-1.9-4.32,5.48c-2.67-22.35,3.5-32.73,13.91-47.06,8.62-11.85,9.85-27.39,9.9-28a33.13,33.13,0,0,0-.56-6.23c-.07-.16-.15-.35-.37-.36s-.35.13-.66.63-1,1.63-2.42,3.47c-5.9-16.34,3.37-22.93,3.46-23l1-.68-1.21.18c-.1,0-2.42.38-6.15,2.93,2.28-12.45,14.07-14.46,14.13-14.48.24,0,23.94.49,39.42,1.63,7.18.53,11.51,1.11,12.87,1.73,4.35,2,7.84,9.45,8.86,11.83a5.52,5.52,0,0,0-2.33-.41H115l.19.38a8.36,8.36,0,0,1,.52,7.05c-1.68,4-6.63,5.95-6.68,6l-.26.1.1.25a53.51,53.51,0,0,1-2.83,38.25l-.07.15.11.14C112.34,348.11,115.13,365.09,113.39,385Z"/><path class="cls-8" d="M123.05,354.57c-61.11,23.85-35.28,66.79-24.45,77.06,14.68-4.52,27.39,1.59,31.4,3.43s13.19,5.73,20,3.57c19-11.47,19.42-36.77,19.42-36.77Z"/><path class="cls-4" d="M98.44,431.47c-20.17-39.16,3.84-63.93,22.57-76.08C62.83,379.28,87.64,421.06,98.44,431.47Z"/><path class="cls-3" d="M149.87,438.37c-4.71,1.48-11.35.28-19.74-3.56l-.3-.14c-4.16-1.91-16.78-7.7-31.15-3.36-7.22-6.93-17.26-23.95-13.83-40.64,3.1-15.07,16-27.13,38.32-35.84a103.85,103.85,0,0,0-10.07,3.84c-16.5,8.31-26.18,19-28.83,31.89-3.93,19.14,8.86,36.28,14.12,41.26l.13.13.17-.06c14.22-4.37,26.76,1.39,30.88,3.28l.3.14Q138,439,144,439.48a16.21,16.21,0,0,0,6.09-.59l.06,0c13.07-7.87,17.41-22.37,18.85-30.68a18.74,18.74,0,0,0,.11-6.32C169.12,402.11,168.52,427.11,149.87,438.37Z"/><path class="cls-4" d="M127.83,430.37c-6.51-5-26.76-11.2-31.76,5.5-1.8,6,4.55,5.09,4.55,5.09s-.93,2.77-.2,3.49c1,1,5.75,2.19,9.33,1.76-.72,1.16-.53,1.85.19,2.11,6.13,2.22,31.39-.4,29.28-9.93C138.84,436.7,134.22,435.28,127.83,430.37Z"/><path class="cls-12" d="M130.26,432.14c-.78-.54-1.59-1.12-2.43-1.77-6.51-5-26.76-11.2-31.76,5.5a7.18,7.18,0,0,0-.23,1,2.41,2.41,0,0,0,1,1.22,4.91,4.91,0,0,0,5.42-1.28c-.95,5,6.58,7.13,10.9,4.65-1.21,2.41-.16,3.6,6.29,3.65,3.49,0,11.09-1.6,14.19-5.85C135.76,436.25,132.32,433.43,130.26,432.14Z"/><path class="cls-3" d="M135.54,435.11a68.89,68.89,0,0,1-7.53-4.95,31,31,0,0,0-15.15-5.39c-8.69-.64-14.76,3.28-17.08,11-.51,1.73-.42,3.09.28,4a4.21,4.21,0,0,0,3.15,1.44,8.72,8.72,0,0,0,1,0c-.26.88-.68,2.7,0,3.36.87.85,3.75,1.68,6.57,1.89a17,17,0,0,0,2.47,0,1.75,1.75,0,0,0-.17,1.34,1.23,1.23,0,0,0,.77.7,14.67,14.67,0,0,0,3.78.67c7.21.53,20.06-1.31,24.44-6a5.25,5.25,0,0,0,1.45-4.88C139.28,437.32,137.87,436.49,135.54,435.11Zm2.07,7.74c-4.25,4.58-16.86,6.37-24,5.84a14.35,14.35,0,0,1-3.61-.63.63.63,0,0,1-.42-.37c-.08-.21-.08-.61.38-1.34l.11-.69-.41.27a14.56,14.56,0,0,1-2.9,0c-2.87-.21-5.51-1.06-6.18-1.72-.42-.41-.09-2.12.28-3.2l.14-.43-.47.07a6.79,6.79,0,0,1-1.32,0,3.65,3.65,0,0,1-2.72-1.2c-.59-.8-.65-2-.19-3.56,2.87-9.57,10.54-11.06,16.47-10.62a30.36,30.36,0,0,1,14.83,5.26,71.41,71.41,0,0,0,7.58,5c2.12,1.25,3.53,2.07,3.7,2.86A4.72,4.72,0,0,1,137.61,442.85Z"/><path class="cls-3" d="M100.35,440.87l.55.19c4.55-12.28,11.86-12.51,11.93-12.51S105,428.19,100.35,440.87Z"/><path class="cls-3" d="M109.21,446.44l.54.24a29.08,29.08,0,0,1,11.75-11.92A23.93,23.93,0,0,0,109.21,446.44Z"/><path class="cls-4" d="M50.93,422.2c-3.77-1.12-15.46-1.7-20.32,1.39-3.53,2.25-6.92,7-5.21,10.44,1.34,2.68,6.61,2.63,6.61,2.63,1,4.08,15.1,6.52,19.48.6,4.2.58,9.68-1.44,10-5.89S54.69,423.31,50.93,422.2Z"/><path class="cls-12" d="M50.78,422.14c-3.76-1.12-15.45-1.7-20.31,1.4-2.54,1.61-5,4.53-5.55,7.32,1.67,2.51,6.58,2.52,8.42-.86-1.21,3.08,1.17,5.94,5.36,6.59,6.66,1,12.27-.26,12.24-6.51,3,6.33,10.83,1.5,8.66-2.53A18,18,0,0,0,50.78,422.14Z"/><path class="cls-3" d="M51,421.93a26.5,26.5,0,0,0-5.09-.78c-5.2-.38-12,0-15.48,2.21-3.9,2.48-7,7.31-5.3,10.79,1,2.09,4.2,2.62,6,2.75l.66,0c.79,2.3,5.07,3.79,9,4.08,4.83.35,8.86-.94,10.83-3.46,4.49.53,9.83-1.75,10.16-6.17S55.35,423.22,51,421.93Zm1.17,15.12-.64-.07-.18,0-.11.14c-1.81,2.46-5.7,3.72-10.41,3.37-4.42-.32-8.09-2-8.54-3.86l0-.22H32s-.33,0-.83,0c-1.34-.1-4.56-.54-5.51-2.44-1.69-3.38,1.88-8,5.11-10.09s10.23-2.47,15.1-2.11a26,26,0,0,1,5,.75c3.52,1.05,10.67,4.59,10.36,8.89C60.91,435.26,56.29,437.35,52.18,437.05Z"/><path class="cls-3" d="M31.72,436.65l.59,0c.19-7.14,4-10.7,4.07-10.74S31.88,429.05,31.72,436.65Z"/><path class="cls-3" d="M51.2,437.21l.59.09a14.12,14.12,0,0,0-1.31-8.69A20.54,20.54,0,0,1,51.2,437.21Z"/><path class="cls-8" d="M83.12,333.16,97,343.51c9.87.58,26.67-4.62,32.67-9.77-1.86,3.08-1.93,4.12-1.93,4.12s10.39-1.21,16.58-14.28L122.2,299.89C95.75,299.49,83.12,333.16,83.12,333.16Z"/><path class="cls-4" d="M83.12,333.16l3.31,2.48c5.81-13.84,13.43-28.72,35.89-35.46C92.75,302.06,83.12,333.16,83.12,333.16Z"/><path class="cls-3" d="M128.07,337.51a18.22,18.22,0,0,1,1.8-3.63l.92-1.53-1.37,1.18c-6.13,5.27-22.73,10.24-32.36,9.7L83.47,333.07c1.07-2.7,13.81-33.28,38.72-32.9a28,28,0,0,0-10,1c-19.7,6.37-29.29,31.62-29.4,31.92l-.07.18,14.07,10.53h.09c9.18.55,24.71-3.91,31.7-8.91a9.22,9.22,0,0,0-1.24,3l0,.34.35,0c.11,0,10.63-1.39,16.82-14.45l-.54-.23C138.66,334.73,130.08,337.1,128.07,337.51Z"/><path class="cls-4" d="M49.14,310.51c-.27-3.09-.57-5.63-.57-5.63l-3.2,4.19s-6.48-15.45,3.35-23.68c-2.13.13-6.6,3.29-6.6,3.29s.57-10.76,13.26-15.16c0,0-28-4.11-38.76,26L20,298.39S8.75,312,22.73,329l1-5.24a47.72,47.72,0,0,0,27.67,22C52.84,340,62,332.12,62,332.12S57.49,316.91,49.14,310.51Z"/><path class="cls-8" d="M48.72,285.39c-2.13.13-6.6,3.29-6.6,3.29s.57-10.76,13.26-15.16c0,0-28-4.11-38.76,26L20,298.39S8.75,312,22.73,329l1-5.24s.13.26.39.72l.15-1.94c7.37,9.73,22.63,21,29.56,13.36,5.53-6.13-6.48-15.54-8.6-27.19C44.28,306.17,39.84,292.83,48.72,285.39Z"/><path class="cls-4" d="M16.62,299.54,20,298.39s-10.86,13.17,2.16,29.78c-5.2-9.21-4.87-23,4.82-31.42-1.11.3-3.31-.61-4.42-.23,8.58-17.46,25.66-22.82,26.38-23.06C40,274.19,24.13,278.57,16.62,299.54Z"/><path class="cls-13" d="M57,337c.22-.25.45-.49.67-.73l-.89.07Z"/><path class="cls-3" d="M49.42,310.37c-.26-3-.56-5.5-.56-5.52l-.09-.73-3.31,4.36c-1-2.69-5.13-15.69,3.45-22.88l.65-.54-.86.05c-1.76.11-4.94,2.12-6.22,3,.37-2.33,2.38-10.63,13-14.31l1.07-.37-1.13-.17s-.4-.06-1.1-.11c-4.64-.34-28.31-.68-38,26.32l-.2.55L19.19,299c-2.05,3.07-8.83,15.44,3.31,30.17l.41.5.94-5.05A48.9,48.9,0,0,0,51.29,346l.3.1.07-.29c1.42-5.62,10.44-13.42,10.53-13.49l.14-.12,0-.16C62.23,331.89,57.69,316.8,49.42,310.37Zm1.75,35A47.79,47.79,0,0,1,24,323.59l-.4-.81-1,5.5c-13-16.37-2.48-29.59-2.37-29.72l.63-.77-3.72,1.28c9.56-25.77,32.18-25.72,37-25.39-11.64,4.65-12.31,14.88-12.32,15l0,.6.5-.36a27.86,27.86,0,0,1,5.44-3C39,294.3,45,309,45.1,309.17l.2.48,3.06-4c.11,1,.3,2.82.48,4.9v.12l.1.08c7.72,5.91,12.19,19.64,12.71,21.3C60.49,333.05,52.75,340,51.17,345.39Z"/><path class="cls-3" d="M57.94,316.33A25.08,25.08,0,0,1,49.15,310l-.46.34c2.47,3,5.77,4.81,9,6.53,4,2.17,7.85,4.23,9.9,8.61C67.55,325.43,66.73,320.65,57.94,316.33Z"/><path class="cls-4" d="M61.5,331.8c-4.62-.62-12.81,4.88-13.57,9.5-1.07,6.56,3.14,14.59,3.14,14.59s4.11,8.51,12.66.84c3.22.42,8.57.29,7.13-13.84C70.25,336.82,64.43,332.2,61.5,331.8Z"/><path class="cls-12" d="M70.86,342.89c-.61-6.07-6.43-10.69-9.36-11.09-4.62-.62-12.81,4.88-13.57,9.5-.73,4.45,1,9.56,2.14,12.4,2.51.7,5.27,0,6.38-2.54,2,4.62,7.56,5.78,9-2.14,2.4,4.94,5.81,2.76,5.6-2.82C71.05,345.19,71,344.1,70.86,342.89Z"/><path class="cls-3" d="M61.54,331.53c-4.93-.68-13.15,5.15-13.9,9.72-1.08,6.58,3,14.43,3.16,14.76.08.16,1.93,3.9,5.79,4.19h0c2.24.16,4.68-.9,7.24-3.17l.66.06A5.55,5.55,0,0,0,69,355.73c2.12-2.05,2.83-6.25,2.16-12.86C70.53,336.65,64.49,331.92,61.54,331.53Zm7,23.8a4.89,4.89,0,0,1-4,1.2,6.1,6.1,0,0,1-.76-.08h-.14l-.1.09c-2.48,2.22-4.8,3.27-6.9,3.11-3.5-.26-5.27-3.83-5.29-3.87s-4.16-8-3.12-14.43c.68-4.16,8.3-9.63,13-9.29l.29,0c2.79.37,8.51,4.88,9.11,10.84C71.21,349.26,70.54,353.44,68.58,355.33Z"/><path class="cls-3" d="M63.91,344s3.59,5.55-.44,12.63l.52.26a14.18,14.18,0,0,0,2-7.75A8.1,8.1,0,0,0,63.91,344Z"/><path class="cls-4" d="M50.65,348.35c-4.34-2-7.07-.46-7.54,2.18s2.28,7.16,8.36,6.07,8-7.58,6.17-11.56Z"/><path class="cls-12" d="M53.47,346.25l-2.73,2.06c-3.68-2.18-7.71-.46-7.63,2.22.21,7.18,16,3.16,14.64-5.62Z"/><path class="cls-14" d="M50.57,348.22c-3.62-2-8.53-.75-7.21,4,1.59-3.1,3.76-4.45,7.34-3.8C50.64,348.3,50.62,348.31,50.57,348.22Z"/><path class="cls-3" d="M57,352.37a7.85,7.85,0,0,1-5.56,3.95,6.94,6.94,0,0,1-6.28-1.51,5.05,5.05,0,0,1-1.73-4.24,3.6,3.6,0,0,1,2-2.62,6.37,6.37,0,0,1,5.38.39,5.52,5.52,0,0,0-5.65-.89,4.11,4.11,0,0,0-2.31,3,5.57,5.57,0,0,0,1.89,4.72A7,7,0,0,0,49.06,357a9.87,9.87,0,0,0,2.46-.14,8.39,8.39,0,0,0,6-4.24,7.41,7.41,0,0,0,0-7.63A8.54,8.54,0,0,1,57,352.37Z"/><path class="cls-4" d="M83.12,333.16c-3.75,0-15.91,8.44-9.65,21.91,1.66,7.54,9.47,9.93,13.2,5.45,2.07-1.88,2.83-7.28,2.83-7.28s8.5.07,7.85-8.49C96.63,339.75,86.67,333.2,83.12,333.16Z"/><path class="cls-12" d="M83.12,333.16c-3.72-.48-15.91,8.44-9.65,21.91a10.18,10.18,0,0,0,3.69,6A2.76,2.76,0,0,0,81,359.85c1.3-1.58-.16-5,1.22-7.71-.81,3.57.53,7.09,4.5,8.34,1.32-1.23,2.1-3.89,2.48-5.62-.6-.27-.76,0-1.55-.46C93,349.19,91.52,334.25,83.12,333.16Z"/><path class="cls-14" d="M73.47,355.07a10.51,10.51,0,0,0,2.7,5.15c-2.47-5.34-.63-8.15,0-13a32,32,0,0,0-2,3.21c-1.61-6.76,3-14.35,10.18-16.9a2.64,2.64,0,0,0-1.2-.37C79.6,332.72,67.21,341.6,73.47,355.07Z"/><path class="cls-3" d="M83.34,332.89h-.22c-1.93,0-6.12,2.13-9,6.21-2.3,3.31-4.33,8.79-1,16.06,1.14,5.12,4.9,7.64,8.13,7.88a6.43,6.43,0,0,0,5.56-2.31c1.89-1.72,2.7-6.13,2.88-7.21a9.24,9.24,0,0,0,5.91-2.41,7.78,7.78,0,0,0,2-6.39C96.92,339.64,87,333.16,83.34,332.89Zm11.9,17.83A8.9,8.9,0,0,1,89.5,353l-.14.17-.15.07c0,.05-.78,5.33-2.77,7.14a5.89,5.89,0,0,1-5.08,2.14c-3-.23-6.53-2.62-7.6-7.47l0-.05c-3.28-7.06-1.32-12.36.91-15.56,2.69-3.87,6.71-6,8.47-6h.18c3.56.26,13.06,6.47,13.76,11.32A7.31,7.31,0,0,1,95.24,350.72Z"/><path class="cls-12" d="M91,353a4.65,4.65,0,0,0-3.45,1.6L83,349.82c-2,3.42-1.71,7.27-.06,8.81,1.83,1.7,9.62,4.63,11-.31C94.82,355.27,92.29,353,91,353Z"/><path class="cls-12" d="M87.64,354.5,83,349.82c-2,3.42-1.71,7.27-.06,8.81a10.32,10.32,0,0,0,3.51,1.82c3.52.8,4.32-2.27,3.69-3.67A4.19,4.19,0,0,0,87.64,354.5Z"/><path class="cls-3" d="M91,352.68a4.46,4.46,0,0,0-3.5,1.86,5.52,5.52,0,0,1,3.47-1.3,3.17,3.17,0,0,1,2,1.36,4.06,4.06,0,0,1,.68,3.65,3.23,3.23,0,0,1-2.46,2.37c-2.76.69-6.87-1.05-8.09-2.19-1.48-1.38-1.86-5,.11-8.48,0,0-3.73,5.32-.52,8.88.94,1.05,3.86,2.29,6.48,2.48a6.73,6.73,0,0,0,2.17-.15,3.76,3.76,0,0,0,2.88-2.76,4.57,4.57,0,0,0-.77-4.12A3.83,3.83,0,0,0,91,352.68Z"/><path class="cls-3" d="M73.17,355.05l.59,0c.46-6.85,4-10.18,4.08-10.21S73.65,348,73.17,355.05Z"/><path class="cls-15" d="M108.93,167.27a11.13,11.13,0,0,1,4.41-3.6c-9.53-3.15-17.14,1.12-23.48,4.85-4.74-4-18.5-5.84-18.5-5.84A28.54,28.54,0,0,1,74.3,167c-10.23-3.69-17.21-1.41-17.21-1.41s8,1.15,11.18,2.92C32.14,171,27.64,206.05,26.47,220c0,0,26.92,24.08,137.11,10.09C162.21,164.19,108.93,167.27,108.93,167.27Z"/><path class="cls-8" d="M140.46,224.57c7.46-28.32.93-48.76-13.8-54.55a53.1,53.1,0,0,0-17.73-2.75,11.13,11.13,0,0,1,4.41-3.6c-9.53-3.15-17.14,1.12-23.48,4.85-4.74-4-18.5-5.84-18.5-5.84A28.54,28.54,0,0,1,74.3,167c-10.23-3.69-17.21-1.41-17.21-1.41s8,1.15,11.18,2.92C32.14,171,27.64,206.05,26.47,220c0,0,24.83,22.2,124.37,11.58C147.43,227,146.54,224,140.46,224.57Z"/><path class="cls-15" d="M89.86,168.52c-4.74-4-18.5-5.84-18.5-5.84A28.54,28.54,0,0,1,74.3,167c-10.23-3.69-17.21-1.41-17.21-1.41s8,1.15,11.18,2.92C32.14,171,27.64,206.05,26.47,220c0,0,1.5.81,3.76,2.09a61.09,61.09,0,0,1,13.42-38.6c7.17-9,18.75-12.94,30.56-12.63-1.85-1.72-2.32-2.64-5-3.63a65.47,65.47,0,0,1,11.18,2.22,28.76,28.76,0,0,0-4.32-4.28c4.7.35,13.7,5.39,13.85,5.36,8.1-4.91,13.88-7.05,22.84-7C103.52,160.69,96.08,164.86,89.86,168.52Z"/><path class="cls-3" d="M143,178.49c-13.9-11.24-30.15-11.58-33.45-11.52a10.4,10.4,0,0,1,3.93-3l.7-.28-.73-.24a22,22,0,0,0-5.23-1.06c-7.39-.54-13.68,3.1-18.31,5.83C85,164.27,72,162.48,71.4,162.41l-.74-.1.47.55a29.09,29.09,0,0,1,2.54,3.58,34.89,34.89,0,0,0-8.61-1.79,22.62,22.62,0,0,0-8.06.64l-1.13.37,1.18.17c.07,0,6.7,1,10.17,2.44-24.53,2.16-38.43,20.26-41.14,52.39l.25.2.12.36c.12.1,12.32,9.75,52.59,12.71,23.6,1.74,52.06.53,84.58-3.61l.26,0v-.24C163.38,206.65,156.36,189.3,143,178.49Zm-63.9,54.88c-38.08-2.8-51-12.5-52.31-13.53,2.75-32.17,16.72-49.36,41.52-51.09l.93-.06-.8-.46c-2.37-1.34-7.4-2.31-9.87-2.73a26.1,26.1,0,0,1,6.47-.29,34.44,34.44,0,0,1,9.17,2l.71.25-.34-.64A28.37,28.37,0,0,0,72,163.07c2.88.44,13.62,2.29,17.62,5.66l.17.14.19-.11c4.57-2.7,10.85-6.39,18.14-5.85a21.17,21.17,0,0,1,4.39.81,11.61,11.61,0,0,0-3.86,3.39l-.32.47.58,0a32.9,32.9,0,0,1,4.31.1c11.43.84,48.77,7.81,50,62.15C130.91,233.9,102.58,235.1,79.08,233.37Z"/><path d="M101.75,193.7c-6.64,0-12,7-11.94,15.63s5.44,15.69,12.08,15.72,12-7,11.94-15.63S108.38,193.72,101.75,193.7Z"/><path class="cls-16" d="M101.73,195.46c-6.39,0-11.54,6.58-11.51,14.75s5.25,14.81,11.65,14.84,11.54-6.58,11.51-14.76S108.13,195.48,101.73,195.46Z"/><path class="cls-14" d="M101.73,195.46c-6.39,0-11.59,6.58-11.51,14.75.12,11.37,22.44,16.23,23.16.08C113.74,202.13,108.13,195.48,101.73,195.46Z"/><path d="M101.73,195.18c-6.54,0-11.84,6.72-11.8,15,0,8,5,14.63,11.27,15.09.22,0,.45,0,.67,0a10.6,10.6,0,0,0,8.4-4.42,17.11,17.11,0,0,0,3.4-10.61C113.63,202,108.33,195.21,101.73,195.18Zm8.07,25.4a10,10,0,0,1-7.93,4.19c-6.27,0-11.31-6.58-11.35-14.56s5-14.5,11.21-14.47l.63,0c6,.44,10.69,6.82,10.72,14.53A16.63,16.63,0,0,1,109.8,220.58Z"/><path d="M55.48,193.29c-4.85-.95-10.09,4.47-11.71,12.12s1,14.62,5.86,15.57,10.1-4.47,11.71-12.12S60.33,194.24,55.48,193.29Z"/><path class="cls-16" d="M55.12,194.86c-4.67-.92-9.68,4.19-11.21,11.4s1,13.8,5.69,14.72,9.68-4.19,11.21-11.4S59.78,195.78,55.12,194.86Z"/><path class="cls-14" d="M55.12,194.86c-4.67-.92-10,4.14-11.21,11.4-2.61,15.14,14.55,13.05,16.9,3.32C62.54,202.41,59.78,195.78,55.12,194.86Z"/><path class="cls-17" d="M55.26,203.74c-2.69-.34-5.29,2.54-5.8,6.42s1.26,7.31,4,7.64,5.29-2.53,5.8-6.42S58,204.08,55.26,203.74Z"/><path class="cls-18" d="M55.72,214c-2.45,1-4.86-.22-6.34-2.12.11,3.14,1.74,5.67,4,6,2.69.34,5.29-2.53,5.8-6.42,0-.14,0-.28.05-.43A7.25,7.25,0,0,1,55.72,214Z"/><path d="M55,207.4c-1.57-.2-3.08,1.48-3.38,3.74s.73,4.26,2.31,4.46,3.08-1.48,3.38-3.74S56.56,207.6,55,207.4Z"/><path class="cls-19" d="M55.31,203.43c-2.93-.37-5.65,2.64-6.18,6.69s1.37,7.63,4.24,8a3.71,3.71,0,0,0,.47,0c2.75,0,5.21-2.88,5.71-6.71a9.12,9.12,0,0,0-.81-5.33A4.61,4.61,0,0,0,55.31,203.43Zm3.58,7.91c-.48,3.66-2.91,6.47-5.43,6.15s-4.16-3.58-3.67-7.29c.45-3.47,2.67-6.18,5.05-6.17l.38,0a4,4,0,0,1,2.93,2.32A8.5,8.5,0,0,1,58.89,211.34Z"/><path class="cls-14" d="M52.33,207.85A1.6,1.6,0,0,0,50.39,209a1.54,1.54,0,0,0,1.2,1.85,1.61,1.61,0,0,0,1.94-1.13A1.53,1.53,0,0,0,52.33,207.85Z"/><path class="cls-14" d="M55.9,206.78a.94.94,0,0,0-1.12.65.88.88,0,0,0,.69,1.06.94.94,0,0,0,1.12-.65A.9.9,0,0,0,55.9,206.78Z"/><path d="M55.18,194.59a5.93,5.93,0,0,0-.72-.1c-4.69-.35-9.35,4.69-10.84,11.71-1.55,7.35,1.11,14.1,5.92,15.05a5.93,5.93,0,0,0,.72.1h0c4.69.34,9.35-4.69,10.84-11.71a17.76,17.76,0,0,0-.54-9.87C59.45,196.89,57.54,195.05,55.18,194.59Zm5.34,14.93c-1.41,6.64-5.89,11.59-10.22,11.27a4.48,4.48,0,0,1-.64-.08c-4.5-.89-6.95-7.34-5.46-14.4,1.4-6.63,5.89-11.58,10.22-11.26a4.66,4.66,0,0,1,.64.08c2.15.43,3.91,2.14,4.95,4.82A17.27,17.27,0,0,1,60.52,209.52Z"/><path class="cls-17" d="M103.92,204.34c-3.31,0-5.9,3.94-5.8,8.71s2.87,8.6,6.18,8.56,5.9-3.93,5.8-8.7S107.23,204.3,103.92,204.34Z"/><path class="cls-18" d="M110.1,212.91a12.85,12.85,0,0,0-.23-2.09,8.11,8.11,0,0,1-6.07,5.5c-2.21.48-4-.6-5.59-2.06.5,4.19,3.06,7.39,6.09,7.35C107.6,221.58,110.2,217.68,110.1,212.91Z"/><path d="M104.26,208.8c-1.93,0-3.44,2.3-3.38,5.08s1.67,5,3.6,5,3.44-2.3,3.38-5.08S106.19,208.78,104.26,208.8Z"/><path class="cls-19" d="M108.54,206.61a5.68,5.68,0,0,0-4.63-2.65c-3.58,0-6.3,4.12-6.19,9.09s3.06,9,6.58,8.95a5.25,5.25,0,0,0,.57-.05c3.31-.44,5.73-4.33,5.63-9A11.23,11.23,0,0,0,108.54,206.61Zm-4.25,14.62c-3.08,0-5.67-3.63-5.77-8.19-.09-4.26,2.08-7.9,5-8.28l.46,0a4.93,4.93,0,0,1,3.95,2.32,10.42,10.42,0,0,1,1.81,5.87C109.79,217.4,107.38,221.2,104.29,221.23Z"/><path class="cls-4" d="M162,229.47c-24-10.67-59.1-2.27-63.68-3-6.19-1-18.86-10.25-32.13-11.2-9.49-.68-15.7,4.37-19.5,5.35-6.43,1.66-19.07-8.82-31.44,10.56.37,1,5.84-1,5.84-1s-7.71,4.19-5.35,16.39a14.76,14.76,0,0,1,3.38-3.67s-.41,21.52,38,31.07l34.65,5.13c23.54,1.74,54.42-1.56,65.49-15.3a16.77,16.77,0,0,1-.79,5.35s9.92-.76,11.87-16.47a9.18,9.18,0,0,1,3.07,3.77S179.87,237.41,162,229.47Z"/><path class="cls-12" d="M136.18,224.4c0-.09.08-.18.13-.27-18-.8-34.87,2.83-37.95,2.33-6.19-1-18.86-10.25-32.13-11.2-9.49-.68-15.7,4.37-19.5,5.35-6.43,1.66-19.07-8.82-31.44,10.56.37,1,5.84-1,5.84-1s-7.71,4.19-5.35,16.39a14.76,14.76,0,0,1,3.38-3.67s-.41,21.52,38,31.07L75,280.89,91.8,279.1l.4,0c14.06-.5,55.75-11,56.47-31.43a11.81,11.81,0,0,1,2.53,5.78c3.9-4.75,1.37-10.53-.62-15.71a6.88,6.88,0,0,1,4.46,3.68C153.89,233,146.31,223.46,136.18,224.4Z"/><path class="cls-20" d="M46.73,220.61c.09,0-.92.06-2.5.08A7.32,7.32,0,0,0,46.73,220.61Z"/><path class="cls-4" d="M24.14,237.55c-1.85,1-3.34,1.16-5.19,2.14,1.44-6.23,6.54-9.22,9-11.93a12.33,12.33,0,0,0-6.63.4c5.14-7.09,15.55-7.6,21.3-7.48.58,0,1.12,0,1.6,0-6.65-.71-18.09-6.51-28.94,10.48.37,1,5.84-1,5.84-1s-7.71,4.19-5.35,16.39a14.76,14.76,0,0,1,3.38-3.67s-.37,19.6,33,29.68C36.69,264.9,21.79,251.37,24.14,237.55Z"/><path class="cls-14" d="M47.45,225.07c4.7-3.44,11.15-4.45,17.35-5.55a85.06,85.06,0,0,0-9.35.06s-12.75,1.11-15.32,11.87c-1.06,4.44.61,6,1.09,9.35C42.14,234.27,41.66,229.15,47.45,225.07Z"/><path class="cls-3" d="M162.16,229.22c-18.39-8.2-42.9-5.25-56.06-3.67a46.57,46.57,0,0,1-7.69.64c-2.29-.37-5.56-1.93-9.35-3.73-6.43-3.06-14.44-6.86-22.75-7.47h-.06c-6.86-.49-12,2-15.79,3.77a23.06,23.06,0,0,1-3.81,1.59c-1.65.43-3.78,0-6.25-.48C33.56,218.52,24.2,216.67,15,231l-.07.11,0,.13a.62.62,0,0,0,.36.36c.75.33,2.73-.16,4.22-.61-2.15,1.93-5.83,6.68-4.1,15.63l.14.74.4-.64a14.54,14.54,0,0,1,2.85-3.23c.11,1.58.78,6.13,4.64,11.52,4.15,5.8,12.94,13.63,31.32,18.63a10.13,10.13,0,0,0,2.43,0c-19.74-4.9-29-13-33.24-18.95-4.62-6.43-4.58-11.78-4.58-11.83v-.58l-.49.35a15.42,15.42,0,0,0-3,3.13c-1.86-11.31,5.26-15.35,5.34-15.39l-.26-.5c-1.69.61-4.59,1.45-5.36,1.19,8.91-13.82,18-12,24.63-10.72,2.54.5,4.73.93,6.52.47a24.5,24.5,0,0,0,3.92-1.63c3.7-1.77,8.78-4.19,15.48-3.71h.05c8.2.61,16.15,4.38,22.54,7.42,3.83,1.82,7.14,3.4,9.52,3.78,1.12.18,3.8-.14,7.86-.63,13.1-1.58,37.49-4.51,55.74,3.61,15.58,6.94,10.75,22.72,9.54,26a8.52,8.52,0,0,0-2.89-3.29l-.39-.22-.06.42c-1.65,13.4-9.25,15.78-11.16,16.16a15.28,15.28,0,0,0,.68-5l-.09-.69-.44.55c-10.62,13.18-40.54,17.22-65.47,15.39a77.86,77.86,0,0,0,14.64.94c20.77-.54,41.8-5,50.8-15.4a19.15,19.15,0,0,1-.81,4.51l-.12.39.43,0c.1,0,10-.94,12.07-16.27a9.66,9.66,0,0,1,2.57,3.39l.27.62.27-.61C171.85,256.38,180.05,237.18,162.16,229.22Z"/><path class="cls-3" d="M55.5,269.83a7.53,7.53,0,0,0,5.65,3,8.7,8.7,0,0,0,6.63-2A11.08,11.08,0,0,1,55.5,269.83Z"/><path d="M56.86,178.82c-5,1.41-8.5,10.24-8.13,10.64,0,0,5-6.62,7.69-7.36a6.67,6.67,0,0,1,4.76.31S60.7,177.74,56.86,178.82Z"/><path d="M94.25,182.13s8.7-3.18,14.93,5.45C106.48,179.27,101.94,176.24,94.25,182.13Z"/><path class="cls-14" d="M101.15,209.78a1.87,1.87,0,1,0,1.79,2A1.92,1.92,0,0,0,101.15,209.78Z"/><path class="cls-14" d="M105.24,207.91a1.09,1.09,0,0,0-1.22,1,1.13,1.13,0,0,0,2.25.2A1.09,1.09,0,0,0,105.24,207.91Z"/><path class="cls-21" d="M43.12,239.26c-.29-.92,18.2,13.74,49.92-.54C76.37,265,80.31,266.43,62,265.52,45.4,263.72,60.07,257.9,43.12,239.26Z"/><path class="cls-22" d="M54.74,262.86s9.44,4.91,19.56.6-4.52-11.29-9.19-8.26c-1.59-2.65-15.89-2-10.37,7.66"/><path class="cls-14" d="M59,256a3,3,0,0,0,3.26-.9,4.21,4.21,0,0,0,4.28.13c2-1.18,1.27-17.86,1.27-17.86L55,237.77S54.73,254.19,59,256Z"/><path class="cls-16" d="M61.42,250.41c0-.17-.07-.33-.11-.5A3,3,0,0,0,61.42,250.41Z"/><path class="cls-16" d="M67.78,237.35l-2.46.08c.44,5.15,1.46,12.62.31,15.35-.9,2.11-3.67-.48-4.21-2.37.17,1.07-.28,2.83-1.57,3.08-1.46.09-2.3-.17-3.47-1.73.58,2.09,1.41,3.72,2.59,4.22a3,3,0,0,0,3.26-.9,4.21,4.21,0,0,0,4.28.13C68.52,254,67.78,237.35,67.78,237.35Z"/><polygon class="cls-23" points="61.92 255.12 59.86 240.6 60.48 240.53 62.54 255.04 61.92 255.12"/><path class="cls-23" d="M59.76,256.47a2.93,2.93,0,0,1-.92-.22c-4.38-1.84-4.13-17.81-4.11-18.48v-.28L68.08,237v.3c.13,2.81.64,16.91-1.41,18.12a4.42,4.42,0,0,1-4.39,0A3.33,3.33,0,0,1,59.76,256.47Zm-4.41-18.41c-.06,4.71.49,16.28,3.74,17.65h0a2.62,2.62,0,0,0,2.89-.82l.18-.22.25.17a3.86,3.86,0,0,0,3.93.12c1.33-.79,1.41-10.9,1.14-17.3Z"/><path class="cls-12" d="M56.29,220.25s-12.92-.24-15.38,9.11,1.33,15.7,9.67,16.8,9.62-5.95,9.62-5.95,5.41,5.48,12.2,6.06,16.31-.15,15.8-10.79c-.38-8.11-7.31-13.68-16.11-14.58A128,128,0,0,0,56.29,220.25Z"/><path class="cls-4" d="M88.2,235.48c-.36-7.62-6.5-13-14.53-14.37,7.39,3.93,10.71,10.58,8,16.79-1.79,4.29-9,5-14.09,3.24-4.9-1.78-9-7.66-9.15-11.66a33.62,33.62,0,0,1-1,7.35,8.57,8.57,0,0,1-6.94,5.91,16.77,16.77,0,0,1-7.52-.41l-.32-.09a12,12,0,0,0,7.91,3.92c8.33,1.11,9.62-5.95,9.62-5.95s5.41,5.48,12.2,6.06S88.71,246.12,88.2,235.48Z"/><path class="cls-3" d="M51.36,246.46l-.83-.09a12.79,12.79,0,0,1-7.46-3.31c-3.12-3-4-7.93-2.47-13.75,1.3-4.92,5.49-7.18,8.78-8.21A23.73,23.73,0,0,1,56.27,220a128.88,128.88,0,0,1,15.85.65,20.52,20.52,0,0,1,11.42,4.67,14.09,14.09,0,0,1,5,10.12c.2,4.26-1.19,7.34-4.14,9.17-2.7,1.67-6.73,2.29-12,1.83-5.82-.49-10.56-4.41-12-5.73a7.94,7.94,0,0,1-4.06,4.89A9.64,9.64,0,0,1,51.36,246.46ZM68.5,220.8c-6.94-.51-12.12-.34-12.18-.34h0a23.8,23.8,0,0,0-6.66,1c-4.58,1.44-7.42,4.1-8.42,7.91-1.5,5.71-.66,10.48,2.36,13.42a12.05,12.05,0,0,0,7,3.12,9.24,9.24,0,0,0,5.32-.66,7.7,7.7,0,0,0,3.94-5.11l.11-.55.46.47c.06.06,5.41,5.4,12,6,5.09.44,9-.15,11.53-1.74,2.81-1.74,4.14-4.72,3.94-8.85-.36-7.66-6.73-13.43-15.83-14.36C70.84,221,69.65,220.88,68.5,220.8Z"/><path class="cls-24" d="M47.36,222.46c-1.62,2.52,4.13,10.08,11.52,10.63,4.58.33,19.91-4.81,17.9-9.58C74.31,217.65,50.31,217.84,47.36,222.46Z"/><path class="cls-25" d="M48.5,222.67c-.57.88.16,2.37,1.54,4,4.72,3.41,12.72,3.3,18.37.62,3-1.42,6.44-5,4.14-6.43C65.32,218.15,50.83,219,48.5,222.67Z"/><path class="cls-26" d="M57.13,220.69c-3.32.38-5.78,1.41-5.49,2.3s3.23,1.29,6.55.9,5.78-1.42,5.49-2.3S60.45,220.3,57.13,220.69Z"/><path class="cls-27" d="M58.86,233.3a14.94,14.94,0,0,1-9.73-5.05c-2-2.29-2.85-4.65-2.06-5.89,1.8-2.8,10.69-3.93,18-3.39l.28,0c6.46.51,10.72,2.14,11.7,4.47.55,1.31-.06,2.7-1.82,4.15C71.17,231,62.14,233.54,58.86,233.3Zm6.21-13.91c-7.16-.52-15.79.6-17.42,3.16h0c-.71,1.1.12,3.36,2,5.49a14.19,14.19,0,0,0,9.23,4.83c3.16.24,11.89-2.26,15.88-5.54,1.62-1.34,2.2-2.61,1.71-3.77-.89-2.11-5-3.66-11.14-4.15Z"/></svg>