<svg xmlns="http://www.w3.org/2000/svg" viewBox="0 0 1830 256"><defs><style>.cls-1{isolation:isolate;}.cls-2{fill:#9b4058;}.cls-3{fill:#cccbca;}.cls-4{fill:#875b59;opacity:0.3;mix-blend-mode:multiply;}</style></defs><g class="cls-1"><g id="Layer_1" data-name="Layer 1"><path class="cls-2" d="M122.52,7H.6V211.24h0c0,.32,0,.63,0,.94,0,20.32,27.29,36.8,61,36.8s61-16.48,61-36.8c0-.31,0-.62,0-.94h0Z"/><path class="cls-3" d="M244.44,7H122.52V211.24h0c0,.32,0,.63,0,.94,0,20.32,27.29,36.8,61,36.8s61-16.48,61-36.8c0-.31,0-.62,0-.94h0Z"/><path class="cls-2" d="M366.35,7H244.44V211.24h0c0,.32,0,.63,0,.94,0,20.32,27.29,36.8,61,36.8s61-16.48,61-36.8c0-.31,0-.62,0-.94h0Z"/><path class="cls-3" d="M488.27,7H366.35V211.24h0c0,.32,0,.63,0,.94,0,20.32,27.3,36.8,61,36.8s61-16.48,61-36.8c0-.31,0-.62,0-.94h0Z"/><path class="cls-2" d="M610.19,7H488.27V211.24h0c0,.32,0,.63,0,.94,0,20.32,27.29,36.8,61,36.8s61-16.48,61-36.8c0-.31,0-.62,0-.94h0Z"/><path class="cls-3" d="M732.11,7H610.19V211.24h0c0,.32,0,.63,0,.94,0,20.32,27.29,36.8,61,36.8s61-16.48,61-36.8c0-.31,0-.62,0-.94h0Z"/><path class="cls-2" d="M854,7H732.11V211.24h0c0,.32,0,.63,0,.94,0,20.32,27.29,36.8,61,36.8S854,232.5,854,212.18c0-.31,0-.62,0-.94h0Z"/><path class="cls-3" d="M975.94,7H854V211.24h0c0,.32,0,.63,0,.94,0,20.32,27.3,36.8,61,36.8s61-16.48,61-36.8c0-.31,0-.62,0-.94h0Z"/><path class="cls-2" d="M1097.86,7H975.94V211.24h0c0,.32,0,.63,0,.94,0,20.32,27.29,36.8,61,36.8s61-16.48,61-36.8c0-.31,0-.62,0-.94h0Z"/><path class="cls-3" d="M1219.78,7H1097.86V211.24h0c0,.32,0,.63,0,.94,0,20.32,27.29,36.8,61,36.8s61-16.48,61-36.8c0-.31,0-.62,0-.94h0Z"/><path class="cls-2" d="M1341.7,7H1219.78V211.24h0c0,.32,0,.63,0,.94,0,20.32,27.29,36.8,61,36.8s61-16.48,61-36.8c0-.31,0-.62,0-.94h0Z"/><path class="cls-3" d="M1463.61,7H1341.7V211.24h0c0,.32,0,.63,0,.94,0,20.32,27.29,36.8,61,36.8s61-16.48,61-36.8c0-.31,0-.62,0-.94h0Z"/><path class="cls-2" d="M1585.53,7H1463.61V211.24h0c0,.32,0,.63,0,.94,0,20.32,27.29,36.8,61,36.8s61-16.48,61-36.8c0-.31,0-.62,0-.94h0Z"/><path class="cls-3" d="M1707.45,7H1585.53V211.24h0c0,.32,0,.63,0,.94,0,20.32,27.29,36.8,61,36.8s61-16.48,61-36.8c0-.31,0-.62,0-.94h0Z"/><path class="cls-2" d="M1829.37,7H1707.45V211.24h0c0,.32,0,.63,0,.94,0,20.32,27.29,36.8,61,36.8s61-16.48,61-36.8c0-.31,0-.62,0-.94h0Z"/><rect class="cls-4" x="0.6" y="7.02" width="1828.8" height="72.74"/></g></g></svg>