<svg id="Layer_1" data-name="Layer 1" xmlns="http://www.w3.org/2000/svg" viewBox="0 0 571.19 398.87"><defs><style>.cls-1{opacity:0.2;}.cls-2{fill:#fcc64c;}.cls-3{fill:#fce3ac;}.cls-4{fill:#472113;}.cls-5{fill:#876013;}.cls-6{fill:#ff862c;}</style></defs><polygon class="cls-1" points="557.1 381.22 14.09 381.22 126.19 343.41 456.87 343.41 557.1 381.22"/><polygon class="cls-2" points="238.23 151.65 72.25 365.45 253.45 364.19 238.23 151.65"/><path class="cls-2" d="M239.29,152.25,254.8,363.9l72.78-.7-1.31-13.9-54.29.53h0a.68.68,0,0,1-.7-.58L258.05,168.93a.6.6,0,0,1,.19-.47.7.7,0,0,1,.5-.2l215.7-2.08a.71.71,0,0,1,.5.18.56.56,0,0,1,.2.46l-5.44,180.5a.67.67,0,0,1-.69.61l-53.87.52v13.9h0l71-.68L492.45,151l-175.34.48Z"/><path class="cls-2" d="M254.15,364.53l-15.6-212.82c-.19,0-.54.09-.53.26l15.43,212.6a.67.67,0,0,0,.7.58h0l74.32-.71-.61-.62Z"/><path class="cls-2" d="M327.58,363.2l-72.78.7L239.29,152.25l77.82-.75-78.48.21h-.08l15.6,212.82,73.72-.71-.26-.26Z"/><polygon class="cls-3" points="483.32 141.17 251.75 141.8 240.04 150.99 490.4 148.57 483.32 141.17"/><polygon class="cls-3" points="490.4 148.57 240.04 150.99 239.14 151.71 277.94 151.25 490.99 149.19 490.4 148.57"/><polygon class="cls-3" points="490.99 149.19 277.94 151.25 367.99 151 491.58 149.81 490.99 149.19"/><polygon class="cls-4" points="317.11 151.5 492.45 151.02 492.46 150.84 342.55 151.25 317.11 151.5"/><polygon class="cls-4" points="367.99 151 277.94 151.25 252.5 151.5 342.55 151.25 367.99 151"/><path class="cls-3" d="M348.69,200c12.91-4.87,28.83-4.7,46.52,8.62a50.27,50.27,0,0,1,19.93,40.18V347.2l53.18-.52,5.41-179.25L259.49,169.5l13.13,179.08,53.53-.52-9.09-96.45C315,229.28,327.71,207.89,348.69,200Z"/><path class="cls-3" d="M272,349.2,258.75,168.88l215.7-2.08L469,347.3l-53.86.52v.63l53.87-.52a.67.67,0,0,0,.69-.61l5.44-180.5a.56.56,0,0,0-.2-.46.71.71,0,0,0-.5-.18l-215.7,2.08a.7.7,0,0,0-.5.2.6.6,0,0,0-.19.47l13.22,180.32a.68.68,0,0,0,.7.58h0l54.29-.53-.06-.62Z"/><polygon class="cls-3" points="474.45 166.8 258.75 168.88 271.97 349.2 326.21 348.68 326.15 348.06 272.62 348.57 259.49 169.5 473.73 167.43 468.32 346.69 415.14 347.2 415.14 347.82 469 347.3 474.45 166.8"/><path class="cls-5" d="M337.14,355.61l-1.42-13-9.09-97.84a51.94,51.94,0,0,1,12.79-39.33c-15.36,10.13-24.13,28.53-22.36,47.62l9.09,97.83,1.43,13h.3v-.08Z"/><polygon class="cls-3" points="492.7 150.68 501.59 150.69 495.77 363.34 483.55 363.81 492.7 150.68"/><polygon class="cls-6" points="374.6 17.65 492.57 150.8 238.9 152.53 374.6 17.65"/><polygon class="cls-3" points="374.6 17.65 492.45 151.02 502.37 150.19 383.75 18.05 374.6 17.65"/></svg>