<svg id="Layer_1" data-name="Layer 1" xmlns="http://www.w3.org/2000/svg" viewBox="0 0 1600 360"><defs><style>.cls-1{fill:#b7cc6a;}.cls-2{fill:#123306;opacity:0.56;}.cls-3{fill:#2e3f0a;}.cls-4{fill:#5f720f;}</style></defs><rect class="cls-1" x="-0.72" y="10.04" width="1600" height="339.86"/><path class="cls-2" d="M.28,284.31s543.19,50,784,38.12c250-12.29,826.63-80,816.27-60.88v87.88l-1601.3.46Z"/><path class="cls-3" d="M1559,228.18s.94-45-23.32-46.9-27.37,17.82-27.37,17.82a200.51,200.51,0,0,0-5.61-23.63c-2.76-12-6.81-22.72-12.66-25.46-15.74-17.32-31.82,8-23.93,41.87-1.84,25.65,1.72,53.35,1.72,53.35s-14-12.16-25.07-6.85-12.34,14.9-12.34,14.9-18.87-49-46.77-27.05c-26.28,22,1.7,63.69,1.7,63.69s-42.94-13.39-51.53,9.38,9.52,31.25,9.52,31.25c-50.06-5.19-65.26,7.29-59.8,19.41h314.62l2.43-.89V203.59C1578.51,204.92,1559,228.18,1559,228.18Z"/><path class="cls-3" d="M190.75,327.28a21.66,21.66,0,0,0-14-13.56s56.26-10.1,37.39-39C195,247.25,145,266.82,145,266.82S167,229.29,143.87,218s-35.45,4.13-35.45,4.13a162.19,162.19,0,0,0,5.5-22.15c2.89-11.23,3.89-21.86-.63-26.49-7.49-20.86-35.22-6-43.27,25.76C56.2,220.14,46.77,244.9,46.77,244.9s-8.16-15.81-21.61-15.74S6,236.8,6,236.8s1.67-19.53-6.69-32V349.14h180C181.15,347.71,194.29,337.47,190.75,327.28Z"/><path class="cls-4" d="M1598.62,268.31v81.12l-181.23.41s-17.26-14.21-3.46-22.84a33.49,33.49,0,0,1,27.62-3.46s-6.9-19,6.9-32.79,43.16,6.9,43.16,6.9-13.81-12.08-5.18-22.43,22.44,5.17,24.16,5.17S1502,254.5,1521,245.87s41.42,34.52,41.42,34.52S1579.63,252.78,1598.62,268.31Z"/><path class="cls-4" d="M-.72,277.7v71.83l127,.36s12.09-12.58,2.42-20.23a19.15,19.15,0,0,0-19.35-3.05s4.84-16.82-4.84-29-30.22,6.11-30.22,6.11,9.67-10.7,3.63-19.87S62.16,288.4,61,288.4s6-22.93-7.26-30.57-29,30.57-29,30.57S12.58,263.94-.72,277.7Z"/></svg>