<svg id="Layer_1" data-name="Layer 1" xmlns="http://www.w3.org/2000/svg" viewBox="0 0 571.19 398.87"><defs><style>.cls-1{opacity:0.2;}.cls-2{fill:#fcc64c;}.cls-3{fill:#fce3ac;}.cls-4{fill:#472113;}.cls-5{fill:#876013;}.cls-6{fill:#ff862c;}</style></defs><polygon class="cls-1" points="447.94 384.96 123.25 384.96 190.28 347.14 388 347.14 447.94 384.96"/><path class="cls-2" d="M402.6,148.51,387.78,360.16l-69.55-.7,1.26-13.89,51.88.52h0a.65.65,0,0,0,.67-.58l12.63-180.32a.58.58,0,0,0-.18-.46.64.64,0,0,0-.48-.2l-206.1-2.09a.74.74,0,0,0-.49.19.64.64,0,0,0-.19.45l5.2,180.5a.64.64,0,0,0,.66.61l51.47.52v13.91h0l-67.8-.69-6.07-210.65,167.55.48Z"/><path class="cls-2" d="M388.4,360.79,403.31,148c.18,0,.51.1.5.27l-14.74,212.6a.66.66,0,0,1-.67.58h0l-71-.72.58-.62Z"/><path class="cls-2" d="M318.23,359.46l69.55.7L402.6,148.51l-74.36-.75,75,.22h.08L388.4,360.79,318,360.08l.24-.26Z"/><polygon class="cls-3" points="169.42 137.43 390.7 138.06 401.88 147.26 162.65 144.84 169.42 137.43"/><polygon class="cls-3" points="162.65 144.84 401.88 147.26 402.75 147.97 365.67 147.52 162.09 145.46 162.65 144.84"/><polygon class="cls-3" points="162.09 145.46 365.67 147.52 279.63 147.27 161.52 146.08 162.09 145.46"/><polygon class="cls-4" points="328.24 147.76 160.69 147.28 160.69 147.11 303.93 147.52 328.24 147.76"/><polygon class="cls-4" points="279.63 147.27 365.67 147.52 389.98 147.76 303.93 147.52 279.63 147.27"/><path class="cls-3" d="M298.06,196.24c-12.33-4.87-27.54-4.7-44.45,8.63a51.1,51.1,0,0,0-19.05,40.18v98.41L183.75,343,178.58,163.7l204.71,2.07L370.75,344.84l-51.15-.52,8.68-96.45C330.29,225.55,318.11,204.15,298.06,196.24Z"/><path class="cls-3" d="M371.37,345.47,384,165.15,177.9,163.07l5.2,180.5,51.46.52v.62l-51.47-.52a.64.64,0,0,1-.66-.61l-5.2-180.5a.64.64,0,0,1,.19-.45.74.74,0,0,1,.49-.19L384,164.53a.64.64,0,0,1,.48.2.58.58,0,0,1,.18.46L372,345.51a.65.65,0,0,1-.67.58h0l-51.88-.52.05-.62Z"/><polygon class="cls-3" points="177.9 163.07 384.01 165.15 371.37 345.47 319.54 344.95 319.6 344.32 370.75 344.84 383.29 165.77 178.58 163.7 183.75 342.95 234.56 343.46 234.56 344.09 183.1 343.57 177.9 163.07"/><path class="cls-5" d="M309.1,351.88l1.36-13,8.69-97.84a53.56,53.56,0,0,0-12.22-39.32c14.67,10.12,23.05,28.53,21.35,47.61L319.6,347.2l-1.37,13H318v-.08Z"/><polygon class="cls-3" points="160.45 146.94 151.96 146.96 157.52 359.6 169.2 360.08 160.45 146.94"/><polygon class="cls-6" points="273.3 13.91 160.58 147.07 402.98 148.8 273.3 13.91"/><polygon class="cls-3" points="273.3 13.91 160.69 147.28 151.22 146.45 264.56 14.31 273.3 13.91"/></svg>