<svg id="Layer_1" data-name="Layer 1" xmlns="http://www.w3.org/2000/svg" viewBox="0 0 615.52 228.64"><defs><style>.cls-1{fill:#5430cb;}.cls-2{fill:#7efdb9;stroke:#00a79d;stroke-miterlimit:10;stroke-width:3px;}</style></defs><path class="cls-1" d="M558.31,218.86c-6.72-1-9.44-7.07-11.65-11.92-2.6-5.7-3.77-9-3.26-12.64a11,11,0,0,1,7.74-9,22.55,22.55,0,0,1-2.39-13.64c.83-5.74,4.09-13.75,15.13-18.86a36.38,36.38,0,0,1,21.43-3c7.1,1.16,9.51,7.17,11.6,12.46,2.42,6.11,3.16,8.83,2.61,12a12.33,12.33,0,0,1-4.86,7.63,10.43,10.43,0,0,1-1.95,1.22A23.59,23.59,0,0,1,594.52,197a26.09,26.09,0,0,1-3,8.25l-.07.12a21,21,0,0,1-7.33,7.71,46,46,0,0,1-11.78,4.87l-.13,0A35.09,35.09,0,0,1,558.31,218.86Z"/><path class="cls-1" d="M515.74,211.67c-9.68-1.23-17.51-5.88-22.75-13.53-4.79-7-6.77-15.27-5.77-24.6a36.19,36.19,0,0,1,10.95-22.83c6.21-5.94,18-9.12,26.32-7.82.52.08,1.06.15,1.58.24.31-2.92.57-5.22.79-7a12,12,0,0,1,10.76-10.62,11.18,11.18,0,0,1,2.24,0c1.95.17,4.76.44,8.16.58,4.12.18,6.2.13,7.12.13a12.18,12.18,0,0,1,3,.06l.16,0c6.37,1,10.72,6.19,10.42,12.29a9.66,9.66,0,0,1-.13,1.24,10.09,10.09,0,0,1-.62,2.28c-.1.38-.45,1.76-.45,1.79-.83,3.15-1.72,7.38-2.71,12.5-1.14,5.94-2.34,12.82-3.5,20.45-1.87,12.38-2.87,21.23-3,26.3,0,.09,0,.19,0,.28a20.2,20.2,0,0,1-.19,2.25,11.37,11.37,0,0,1-11.57,9.6c-1.2,0-3.3-.18-13.89-1.64a15.94,15.94,0,0,1-6.71-2.35A30.59,30.59,0,0,1,515.74,211.67Z"/><path class="cls-1" d="M469,206.11c-3.38-.33-6.08-.7-8.24-1.13l-.16,0a12.29,12.29,0,0,1-9.87-13.11q.33-3.79,1-11.36t1-11.23a57.31,57.31,0,0,0-.35-15.5c0-.19-.07-.38-.1-.58a13.31,13.31,0,0,1-.11-3.07,11.56,11.56,0,0,1,9.24-10.32,12.26,12.26,0,0,1,2.34-.28c1.62,0,4.15-.05,7.3-.27,8.54-.59,8.76-.77,10-.64a12.68,12.68,0,0,1,6.66,2.94,28.23,28.23,0,0,1,8.33-.35c10.13,1.12,13,8.6,12.41,13.32a48.43,48.43,0,0,1-1,5c-.39,1.66-.56,2.51-.62,2.87-.11.78-.2,1.85-.32,3.09-.23,2.59-.31,3.52-.37,4-.84,7.09-7,11.78-14.32,11l-1.26-.16q-.06.62-.12,1.29-.39,4.26-.62,6.33c0,.38-.12,1.31-.2,3.36s-.19,3.64-.31,4.78a12,12,0,0,1-12.52,10.66C475,206.65,472.38,206.45,469,206.11Zm22.92-52.89"/><path class="cls-1" d="M430,203.42c-9.78-.73-17.81-4.52-24-11.34a33.94,33.94,0,0,1-8.62-25.18c.54-10.09,4.42-18.37,11-24.57,6.39-6,18.47-9.05,26.78-8.44s19.51,5.29,25,12a34.25,34.25,0,0,1,7.65,25.74c-1,10-5.05,18.07-12.06,24S440.08,204.17,430,203.42Z"/><path class="cls-1" d="M374.81,199.57c-5.41-.22-7.34-.5-8.85-.94a13.17,13.17,0,0,1-4.88-2.36,11.62,11.62,0,0,1-2-2.1,11.44,11.44,0,0,1-1.56,1.55,12.53,12.53,0,0,1-6.45,2.63,52,52,0,0,1-7.95.24c-5.8-.13-7.78-.36-9.33-.76a12.89,12.89,0,0,1-8.38-7.33c-6.18-13.37-19-30.79-19.69-45.45-.13-2.55.08-6.51.26-11.71.17-4.92.26-8.61.26-11a11.92,11.92,0,0,1,12.22-12.22c2.06,0,5,.11,9.07.33,3.64.19,6.39.31,8.16.34a12.67,12.67,0,0,1,8.79,3.58,13.23,13.23,0,0,1,7.21-3l.46,0a91.49,91.49,0,0,1,10.08-.07,64.87,64.87,0,0,1,8.69.72,15.5,15.5,0,0,1,7.9,3.46,12.71,12.71,0,0,1,9-3c1.81.08,4.62.14,8.37.18,4.15,0,7.2.13,9.32.25a12.06,12.06,0,0,1,11.37,13.29c-.15,2.37-.29,6-.42,10.81-.14,5.16-.29,8.93-.46,11.52-.15,2.42-.3,2.66-3.85,9.1-1.7,3.09-4.25,7.7-7.6,13.84-8.88,16.31-10.94,20.19-11.7,21.5a14.34,14.34,0,0,1-2.18,3,12.34,12.34,0,0,1-6.35,3.39l-.24.05C382.46,199.7,380.52,199.81,374.81,199.57Z"/><path class="cls-1" d="M265.94,198.74c-3.4.09-6.11,0-8.31-.11h-.16a12.28,12.28,0,0,1-11.4-11.8c-.1-2.54-.22-6.34-.38-11.4s-.28-8.76-.37-11.27a57.26,57.26,0,0,0-2.25-15.34c-.06-.19-.12-.38-.17-.57a13.24,13.24,0,0,1-.48-3,11.53,11.53,0,0,1,7.88-11.37,11.2,11.2,0,0,1,2.3-.56c1.6-.22,4.1-.57,7.19-1.17,8.4-1.64,8.59-1.84,9.88-1.87a12.51,12.51,0,0,1,7,2.1,28.05,28.05,0,0,1,8.22-1.38c10.17-.13,13.9,6.95,13.93,11.7a50.74,50.74,0,0,1-.34,5.09c-.18,1.69-.25,2.55-.25,2.92,0,.79,0,1.86.06,3.11.08,2.58.12,3.52.12,4,0,7.14-5.48,12.55-12.85,12.65-.38,0-.79,0-1.26,0,0,.42,0,.85,0,1.3q.13,4.28.16,6.36c0,.38,0,1.31.21,3.35s.27,3.64.28,4.79a12,12,0,0,1-11.1,12.12C272,198.53,269.38,198.65,265.94,198.74Zm18.22-33.53-2-21.78"/><path class="cls-1" d="M231.31,201.07A37.82,37.82,0,0,1,205.25,193c-6.72-5.38-11.82-16.38-12.19-24.86-.42-9.71,2.14-18.61,7.73-25.61s16.88-11.92,25.55-12.11c9.06-.19,17.77,2.67,24.42,8.95A32.11,32.11,0,0,1,261,162.18c.14,5.13-1.39,8.95-3.67,11.62,1.89,3.52,2.62,5.82,2.69,8.2a12.55,12.55,0,0,1-3.38,8.52C251.05,197.07,239.82,201.22,231.31,201.07Z"/><path class="cls-1" d="M187.15,203.2c-12.82,2-24.84-6.43-26.13-19.11-.22-2.21-.39-5.44-.61-9.78q-.06-1.27-.12-2.4a11.65,11.65,0,0,1-6.29-9.39c-.07-.79-.11-1.79-.13-3.14,0-1.12-.05-1.49-.05-1.51,0-.2-.08-.84-.32-2.39s-.39-2.73-.47-3.62a11.21,11.21,0,0,1,4.33-9.76c-.23-1.88-.37-3.06-.43-3.49,0-.21-.06-.43-.08-.64a31.83,31.83,0,0,1-.07-6.13,11.92,11.92,0,0,1,10.92-11,29.87,29.87,0,0,1,6.42.34c1.7.25,2.37.29,2.5.3h.44c1.57.09,4.07.22,7.33.32,6.52.21,11.59,4.61,12,10.64.05.79.08,1.74.09,2.86l.25,0c6.82-.44,12.46,4.25,12.83,10.63a40.29,40.29,0,0,1-.06,4.43c-.08,1.57-.05,2.11-.05,2.13,0,.7.11,1.72.22,3.07.13,1.55.21,2.73.26,3.54a11.38,11.38,0,0,1-2.64,8,11.55,11.55,0,0,1,5.12,9,47.58,47.58,0,0,1-.12,5.63,29.1,29.1,0,0,0-.11,2.94,13.14,13.14,0,0,1-2,8.28,15.07,15.07,0,0,1-4.67,4.3A39.1,39.1,0,0,1,187.15,203.2Z"/><path class="cls-1" d="M150.67,206.29c-12.78,2.28-25-5.87-26.56-18.53-.27-2.2-.52-5.42-.83-9.77-.06-.84-.12-1.64-.18-2.39a11.62,11.62,0,0,1-6.49-9.24c-.09-.8-.16-1.79-.2-3.13,0-1.13-.08-1.5-.09-1.52,0-.19-.1-.83-.37-2.38s-.45-2.72-.55-3.61a11.21,11.21,0,0,1,4.11-9.85c-.27-1.88-.44-3.06-.51-3.49l-.09-.63a31.79,31.79,0,0,1-.2-6.13,11.92,11.92,0,0,1,10.67-11.27,29.45,29.45,0,0,1,6.43.2c1.7.2,2.38.23,2.51.24h.44c1.58,0,4.08.13,7.34.16,6.52.06,11.7,4.35,12.22,10.37.07.79.12,1.74.16,2.85l.25,0c6.82-.59,12.55,4,13.06,10.35a38,38,0,0,1,.05,4.42c-.05,1.58,0,2.11,0,2.13.06.7.16,1.72.29,3.06.16,1.55.27,2.73.34,3.54a11.37,11.37,0,0,1-2.46,8,11.55,11.55,0,0,1,5.32,8.92,47.18,47.18,0,0,1,0,5.63,28.25,28.25,0,0,0,0,2.94,13.11,13.11,0,0,1-1.77,8.3,14.89,14.89,0,0,1-4.59,4.42A39.18,39.18,0,0,1,150.67,206.29Z"/><path class="cls-1" d="M110,211.21c-8.43,1.48-19.87-1.36-26.63-6.17s-13-15.45-14-23.88c-1.13-9.66.76-18.72,5.83-26.12s16-13.14,24.63-14c9-.86,18,1.35,25.05,7.12a32,32,0,0,1,11.94,22c.53,5.12-.72,9-2.8,11.86,2.15,3.37,3.05,5.62,3.29,8a12.42,12.42,0,0,1-2.74,8.72C129.46,205.76,118.54,210.73,110,211.21Z"/><path class="cls-1" d="M77.84,214.86c-2.81.39-6.35.83-10.84,1.37-4.17.52-6.25.78-10.42,1.33-5.53.78-8.29,1.18-13.82,2l-.77.14c-1.57.25-3.52.5-6,.76a11.66,11.66,0,0,1-1.18.06,12.15,12.15,0,0,1-12.19-10.09c-.6-3.44-1.45-8.63-2.52-15.43s-1.88-11.79-2.45-15.09-1.65-8.78-3.1-15.83c-1.49-7.21-2.58-12.75-3.23-16.47-1.15-6.58,3.39-12.5,10.58-13.7,1.18-.2,2.81-.42,5-.67s3.3-.41,3.83-.49,1.84-.33,4.21-.83,4.12-.84,5.41-1a12.08,12.08,0,0,1,9.1,2.15A11.18,11.18,0,0,1,54,141.08c0,.09.06.83.06.83.47,5.76,1.33,14.56,2.58,26.13.7,4.76,1,7.14,1.74,11.9l3.6-.71c6-1.2,10.35-2,13.44-2.4a11.82,11.82,0,0,1,13.68,10A84.27,84.27,0,0,1,89.8,203a12.39,12.39,0,0,1-6.67,10.44A16.19,16.19,0,0,1,77.84,214.86Z"/><path class="cls-2" d="M69.79,214.07c-2.78.4-6.43.84-10.9,1.38-5.83.71-9.48,1.22-10.91,1.41-5.81.83-8.72,1.25-14.53,2.14a38.19,38.19,0,0,1-6.29.83,1.68,1.68,0,0,1-1.72-1.58q-1.1-6.39-3.15-19.17T19.15,179.9q-1.18-6.79-3.88-20.32t-3.89-20.31c-.15-.86.28-1.38,1.3-1.56s2.54-.37,4.58-.6,3.55-.42,4.54-.58,2.77-.54,4.95-1,3.84-.83,5-1c.51-.09.8.25.89,1l.07.77c1.19,11.15,2.58,22.29,4,33.42,1,6.2,1.47,9.31,2.46,15.51.81,5,1.37,8.75,1.82,11,.09.46.22.93.33,1.4a.91.91,0,0,0,.88.76l1.27-.21q4.41-.71,13.14-2.62c5.82-1.27,10.21-2.1,13.16-2.52a1.2,1.2,0,0,1,1.52,1.16,109.17,109.17,0,0,1,1.27,17.56c0,1-.26,1.7-.75,2A8.5,8.5,0,0,1,69.79,214.07Z"/><path class="cls-2" d="M120.05,174c.44,4-.38,6.37-2.46,7.17-.35.12-3.76.91-10.08,2.5-3.81,1-9.54,2.3-17.14,4a8.28,8.28,0,0,0,4.94,5.3,13,13,0,0,0,6.7.83,16.51,16.51,0,0,0,8.45-3.91l3.41-3.28c.74.32,2.13,2.19,4.17,5.63s3.1,5.66,3.22,6.64a3,3,0,0,1-.58,1.45c-3.39,5.61-9.23,8.9-17.56,9.94-7.72,1-14.29-1-19.78-5.75s-9.15-11.93-10.46-21.2Q71,169.77,76.46,160.17a22,22,0,0,1,17.22-11.39c6.46-.82,12.29,1.28,17.42,6.28A30.24,30.24,0,0,1,120.05,174Zm-17.83-1.56a10.11,10.11,0,0,0-3-6.16,6.57,6.57,0,0,0-5.6-2.12,6.09,6.09,0,0,0-4.79,3.8,12.12,12.12,0,0,0-1,7c.14,1.06.67,1.53,1.6,1.41a77.66,77.66,0,0,0,11.25-2.81C101.77,173.24,102.28,172.86,102.22,172.42Z"/><path class="cls-2" d="M160.1,184.91c.11,1.18.14,3,.11,5.43s0,4.21.11,5.33a5.08,5.08,0,0,1-.1,2.19,6.07,6.07,0,0,1-1.5,1.51,25,25,0,0,1-13.56,5.53c-9.39.93-14.55-2.9-15.49-11.62q-.42-3.9-1-11.77t-1-11.77c-.18-1.74-1.12-2.52-2.82-2.33a5.83,5.83,0,0,0-.65.07c-.28.05-.51.12-.64.13-1.26.14-2-.32-2.07-1.39-.07-.63-.14-1.6-.2-2.91s-.12-2.28-.19-2.91c-.1-.83-.28-2.09-.55-3.77s-.45-2.95-.54-3.78.94-1.34,3.07-1.65c1.2-.18,1.82-.64,1.84-1.4a50.61,50.61,0,0,0-.56-7.12c-.67-5.06-1-7.49-1-7.26-.49-4.57-.37-6.9.38-7a16.52,16.52,0,0,1,4,.29,34.3,34.3,0,0,0,4.12.47c1.71.05,4.42.21,8,.34.86,0,1.32.29,1.37.88q.24,2.37.37,7.2t.38,7.26c.18,1.94.77,2.86,1.74,2.76,1.18-.11,3-.34,5.33-.68s4.17-.57,5.39-.68c.74-.06,1.13.2,1.19.79.08.91.12,2.28.11,4.11s0,3.21.12,4.12.22,2.33.42,4.14.34,3.2.42,4.15-.37,1.28-1.33,1.37c-.67.06-1.79.13-3.36.22s-2.68.16-3.35.22l-3.74.36c-.5.05-.67,1-.5,2.68.1.95.22,2.37.41,4.21s.37,3.29.46,4.2c.33,3.32.86,5.6,1.61,6.78,1,1.61,2.88,2.29,5.47,2.05a13.64,13.64,0,0,0,3.47-1,13.08,13.08,0,0,1,3.17-1C159.64,183.63,160,184,160.1,184.91Z"/><path class="cls-2" d="M198.31,182c.07,1.19.07,3,0,5.43s-.09,4.21,0,5.34a4.92,4.92,0,0,1-.16,2.19,6,6,0,0,1-1.52,1.47,25,25,0,0,1-13.68,5.22c-9.41.71-14.48-3.24-15.22-12q-.33-3.91-.74-11.8T166.21,166a2.28,2.28,0,0,0-2.77-2.39c-.13,0-.37,0-.64,0s-.52.11-.65.12q-1.89.17-2-1.44c-.05-.63-.1-1.6-.13-2.91s-.07-2.29-.13-2.92q-.1-1.25-.45-3.78c-.24-1.69-.39-3-.46-3.79s1-1.32,3.11-1.58c1.21-.15,1.83-.59,1.87-1.35a51,51,0,0,0-.4-7.14c-.55-5.07-.84-7.51-.82-7.28-.39-4.58-.21-6.91.54-7a16,16,0,0,1,4,.39,36,36,0,0,0,4.1.56c1.72.09,4.41.31,7.95.52.86,0,1.31.32,1.36.92q.16,2.37.2,7.2t.2,7.27c.15,1.94.71,2.87,1.68,2.8,1.18-.09,3-.28,5.35-.56s4.18-.47,5.39-.55c.74-.05,1.14.22,1.17.81.07.91.07,2.29,0,4.12s0,3.2,0,4.11.17,2.34.32,4.16.27,3.2.33,4.15-.4,1.28-1.37,1.34c-.66,0-1.78.09-3.35.14s-2.69.1-3.36.15l-3.74.27c-.5,0-.69.93-.56,2.67.07,1,.16,2.37.31,4.21s.3,3.3.36,4.21c.25,3.33.73,5.62,1.46,6.82,1,1.63,2.82,2.36,5.42,2.17a13.23,13.23,0,0,0,3.48-.92,13.36,13.36,0,0,1,3.19-.9C197.87,180.67,198.25,181.08,198.31,182Z"/><path class="cls-2" d="M248.24,164.53c.14,4-.85,6.32-3,7-.37.09-3.82.62-10.23,1.72-3.87.67-9.68,1.57-17.37,2.7a8.25,8.25,0,0,0,4.51,5.66,12.93,12.93,0,0,0,6.6,1.34,16.47,16.47,0,0,0,8.72-3.25l3.64-3c.71.37,2,2.35,3.72,5.93s2.66,5.88,2.7,6.87a2.93,2.93,0,0,1-.69,1.4c-3.8,5.34-9.86,8.17-18.23,8.57-7.76.38-14.15-2.06-19.25-7.25s-8.2-12.59-8.8-21.93c-.58-9.11,1.18-16.72,5.33-22.81a22,22,0,0,1,18-10.05c6.49-.31,12.13,2.23,16.86,7.6A30.23,30.23,0,0,1,248.24,164.53Zm-17.62-2.92a10.12,10.12,0,0,0-2.51-6.37,6.52,6.52,0,0,0-5.4-2.54,6.08,6.08,0,0,0-5.06,3.42,12.19,12.19,0,0,0-1.54,6.94c.06,1.07.56,1.58,1.49,1.53a78.28,78.28,0,0,0,11.41-2C230.1,162.39,230.64,162.05,230.62,161.61Z"/><path class="cls-2" d="M286.76,158.85c0,1.55-.69,2.33-2.12,2.35-.63,0-1.56,0-2.78-.11s-2.12-.12-2.72-.11c-2.77.05-4.64.61-5.62,1.66s-1.43,3.14-1.37,6.28q.06,2.55.24,7.76c.13,3.47.2,6.06.24,7.76,0,1.15.13,2.87.31,5.15s.28,4,.3,5.08c0,1-.51,1.5-1.58,1.64-1.56.2-4,.33-7.19.41a62.14,62.14,0,0,1-7.45-.14,1.76,1.76,0,0,1-1.68-1.92q-.15-4.75-.4-14.24t-.4-14.25q-.45-14-2.9-22.95a4.32,4.32,0,0,1-.13-.89,1.15,1.15,0,0,1,.72-1.22c1.57-.46,4.65-.75,8.1-1.55,5.2-1.21,8.05-2.05,8.22-2.06.6,0,1,1.23,1.24,3.73s.56,3.73,1,3.73c-.48,0,.88-1.07,4.07-3.21a17.17,17.17,0,0,1,9.32-3.28c1.89,0,2.84.44,2.85,1.39,0,1.15-.07,2.78-.24,4.88-.18,2.26-.29,3.91-.3,4.89,0,1.13,0,2.68.11,4.58C286.68,156.54,286.75,158.1,286.76,158.85Z"/><path class="cls-2" d="M408.4,145.74c0,.12-3.69,7.92-10.68,23.42-4,8.9-8,17.87-12,26.75a7.65,7.65,0,0,1-.59,1.16,1.63,1.63,0,0,1-.95.49,36.23,36.23,0,0,1-7,.05,34.66,34.66,0,0,1-6.49-.61,4.55,4.55,0,0,1-1.16-.52,5,5,0,0,1-.59-1.16c-.18-.44-1-3.27-2.49-8.48-1.92-6.69-2.88-10-4.84-16.72-2.42,6.61-3.62,9.92-6,16.55-.61,1.88-1.61,4.59-3,8.13a7.55,7.55,0,0,1-.72,1.2,2.52,2.52,0,0,1-1.14.36,66.08,66.08,0,0,1-13.46-.3c-.54-.17-1-.75-1.34-1.75-6.46-16.9-17-35.81-18.93-51.52-.34-2.75.14-7.92.36-14.25s.34-11.08.36-14.25c0-1.31.36-2,1-2,2,0,4.91.13,8.87.38s6.93.39,8.92.42a1,1,0,0,1,1.16,1.15c-.06,3.18-.27,8-.63,14.37s-.57,11.19-.63,14.36c0,1.19,1.15,5,3.48,11.43,2.08,5.75,3.61,9.66,4.56,11.7.48,1.05.8,1.57,1,1.57s1-1.88,2.18-5.66c3.38-10.6,5.18-16.86,5.3-18.8.22-3.64.35-8.3.42-13.92.09-8.11.18-12.8.21-14a3.28,3.28,0,0,1,.19-1.33,2.14,2.14,0,0,1,1.15-.36,68.19,68.19,0,0,1,9.05-.08c6.55.21,9.8.88,9.76,2-.1,2.65-.34,6.78-.73,12.36q-.56,8.13-.67,12.36c0,1.21-.07,1.82-.11,3-.08,2,1.42,8.53,4.41,19.53,1,3.82,1.62,5.73,1.86,5.74s.52-.49,1.06-1.5c1-1.9,2.66-5.71,5-11.34,2.56-6.14,3.93-9.83,4-11q.22-4.81.3-14.44t.3-14.37q0-1.08,1.23-1,3,.15,9.13.16c4.07,0,7.11.1,9.14.21.65,0,.92.85.83,2.44q-.27,4.69-.55,14.07T408.4,145.74Z"/><path class="cls-2" d="M461.78,173.59q-1.25,13.51-8.86,21.31a23.51,23.51,0,0,1-35.75-2.63c-4.28-5.85-6.18-13.12-5.64-21.83.57-9.19,3.29-16.51,8.23-21.93s11.37-7.85,19.2-7.25c7.63.59,13.58,3.91,17.78,9.92S462.6,164.66,461.78,173.59Zm-16.3-1.42a14.29,14.29,0,0,0-1.76-8.47,7.4,7.4,0,0,0-6.07-4.09,7.64,7.64,0,0,0-6.78,3.19,14,14,0,0,0-3,8,14.28,14.28,0,0,0,1.78,8.42,7.45,7.45,0,0,0,12.81,1A14.4,14.4,0,0,0,445.48,172.17Z"/><path class="cls-2" d="M501.58,169.89c-.18,1.54-1,2.22-2.4,2.06-.63-.07-1.55-.23-2.75-.46s-2.1-.39-2.69-.45q-4.14-.47-5.79.92t-2.16,6q-.27,2.55-.75,7.73t-.75,7.73c-.12,1.15-.24,2.86-.35,5.14s-.23,4-.35,5.08c-.1.95-.7,1.43-1.78,1.43-1.57,0-4-.18-7.19-.51a59.78,59.78,0,0,1-7.38-1.09,1.75,1.75,0,0,1-1.42-2.11q.46-4.74,1.41-14.18T468.65,173q1.34-13.92,0-23.13a4.68,4.68,0,0,1,0-.9,1.15,1.15,0,0,1,.87-1.11c1.62-.26,4.72-.15,8.25-.51,5.31-.54,8.24-1,8.41-1,.61.06.87,1.34.77,3.85s.08,3.78.51,3.82c-.47,0,1-.94,4.46-2.66a17.28,17.28,0,0,1,9.67-2.07c1.88.22,2.77.8,2.66,1.75-.14,1.14-.43,2.75-.87,4.81-.46,2.21-.78,3.84-.91,4.81-.15,1.12-.3,2.67-.47,4.56C501.8,167.59,501.67,169.14,501.58,169.89Z"/><path class="cls-2" d="M567.19,130.85c.13-.86-.19.43-1,3.83-1,4.28-2.15,9.84-3.38,16.58-1.41,7.63-2.91,16.41-4.35,26.19-1.69,11.5-3.47,23.11-4.08,34.77,0,.76-.09,1.24-.12,1.43a.75.75,0,0,1-.84.66c-1.19,0-5.5-.54-12.91-1.59-1.75-.25-2.82-.91-2.84-1.67,0-1.31.34-3,.43-4.51a1.84,1.84,0,0,0-.26-1,3.54,3.54,0,0,0-.83.6,16.77,16.77,0,0,1-14,4.47c-6.84-.9-11.95-4.49-15.38-10.83-3.27-6-4.44-13.27-3.44-21.75s3.82-15.43,8.47-20.5a19.92,19.92,0,0,1,18.22-6.69A13.9,13.9,0,0,1,542,158.11q.57,1,.87,1.08c.3,0,.53-.45.67-1.47q.63-4.54,1.69-13.59t1.68-13.52c.16-1.14.58-1.82,1.09-1.84,1.95-.05,5.31.48,9.08.58,6.78.18,10,0,9.26-.14C567,129.33,567.34,129.87,567.19,130.85Zm-26.82,51.37a13,13,0,0,0-1.59-8.54,8.2,8.2,0,0,0-6.15-4.41,7.54,7.54,0,0,0-7,2.65,14.51,14.51,0,0,0-3.5,8.1,13.83,13.83,0,0,0,1.37,8.4,7.69,7.69,0,0,0,5.93,4.38,8.07,8.07,0,0,0,7.08-2.64A13.63,13.63,0,0,0,540.37,182.22Z"/><path class="cls-2" d="M598.33,172.69a3,3,0,0,1-1,1.46,9.82,9.82,0,0,0-2.71-.9,8.13,8.13,0,0,0-5.19.69,6,6,0,0,0-3.23,4.59c-.23,1.37.33,3.25,1.65,5.65a57.55,57.55,0,0,1,3.61,7.19,19.53,19.53,0,0,1,.86,10,22.81,22.81,0,0,1-2.08,6.17,12.9,12.9,0,0,1-3.75,4.91,33.92,33.92,0,0,1-9.46,4.93,21.3,21.3,0,0,1-10,1.15c-.64-.1-1.75-2.46-3.33-7.06s-2.32-7.38-2.18-8.32a.63.63,0,0,1,.64-.57c2.36-.15,4.93-.15,7.13-.44a5.67,5.67,0,0,0,5.18-4.72q.42-2.58-1.54-6.39c-2.35-4.44-3.59-6.78-3.69-7a17.39,17.39,0,0,1-1.13-9.33c.92-5.88,4.23-10.52,10-13.79a22.93,22.93,0,0,1,15.51-3.05c.54.09,1.51,2.41,2.89,7S598.46,172,598.33,172.69Z"/><path class="cls-1" d="M375.46,109.9c-8.92,0-20.14-4.76-26.54-10.53-6.21-5.61-11-17-11-25.24s4.39-19.94,11-25.6C357,41.63,368,38.55,378.6,39l1,.05c9.1.24,21.21,5,27.76,11.26,6.14,5.9,10.32,17.69,9.83,26s-5.76,19.51-12.33,24.85c-7,5.7-19.44,9.34-28.47,8.77Zm2.06-33.36h.17a2.51,2.51,0,0,0,.19-.18,2.62,2.62,0,0,0,.69-2,2.73,2.73,0,0,0-.73-2.07l0-.06h-.28a1.15,1.15,0,0,0-.19.17,2.43,2.43,0,0,0-.75,1.89,2.52,2.52,0,0,0,.61,2,1.4,1.4,0,0,0,.2.21Z"/><path class="cls-1" d="M279.86,108.89a28.27,28.27,0,0,1-6.31-.4c-4.92-1.06-9.09-4.95-16.14-14.76a141.64,141.64,0,0,1-9.53-14.65l0-.09c-1.72-3.24-2.69-7.89-3.07-14.54-.5-9-.33-12.08.09-14,0-.06,0-.12.05-.19,1.15-4.71,5.52-7.94,11.09-8.19.8,0,1.77-.07,2.9-.09,1.6,0,3.53-.08,5.8-.1s4,0,5.51-.07l2.57-.06H273a11.71,11.71,0,0,1,8.55,3.33A11.45,11.45,0,0,1,290,41.39l6.57-.18,1.19-.05a10.43,10.43,0,0,1,1.38-.09l.69,0,1,0c.93,0,2,0,3.26,0s2.5,0,4,.07a7,7,0,0,1,.92.06,11.54,11.54,0,0,1,6.9,3.1,11.2,11.2,0,0,1,8.32-3.46c1.75,0,4.48-.05,8.11-.13,3.89-.09,6.75-.11,8.74-.09h.24c5.48.15,9.86,3.32,11.16,8,.56,2,.9,5.16.77,14.08-.1,6.77-.87,11.43-2.41,14.66-.8,1.68-2.62,4.93-8.48,13.6-6,9-8.4,11.72-9.81,13.09-3.86,3.73-9.78,4.2-14.51,4.22h-2.28a31.2,31.2,0,0,1-6.48-.52,14.61,14.61,0,0,1-6.11-3l-.16-.13a30.46,30.46,0,0,1-3.78-4,32.63,32.63,0,0,1-3.09,3.83c-3.61,3.69-9.29,4.31-14.39,4.45Z"/><path class="cls-1" d="M219.88,112a76.38,76.38,0,0,1-8.21.11l-.23,0c-5.61-.47-9.69-4.16-10.13-9.22-.37-4.26-.72-10.67-1-19.07-.32-8.18-.65-14.36-1-18.36-.14-1.67-.47-4.74-1-9.15-3.73.52-7,.91-9.8,1.16l-.24,0c-5.91.42-10.75-3-11.25-8a23.23,23.23,0,0,1,.48-6c.36-2.31.51-3.33.56-3.74,0-1.57-.06-3.15-.06-4.71,0-10.22,6.38-12.37,10.12-12.7h.21c.16,0,.65,0,1.47-.05h.47c4.64.12,11.14-.09,19.32-.55,2.77-.16,5.79-.34,9-.56,3.43-.23,10-1,19.61-2.17,8.36-1,8.37-1,8.78-1l.54,0a12.58,12.58,0,0,1,7.33,1.74,9,9,0,0,1,4.13,6.89c0,.17,0,.34,0,.5.05,1.09.07,2.51.07,4.33,0,2.22,0,3.22.06,3.61a22.43,22.43,0,0,0,.44,2.74,33.56,33.56,0,0,1,.71,5c.25,5.43-4.29,9.71-10.55,10l-.55,0c-1.3,0-4,.07-8.18.1.16,4.28.3,7.53.43,9.72.24,4,.79,10.23,1.63,18.39.86,8.39,1.42,14.8,1.66,19.07a9.55,9.55,0,0,1-4.59,8.82,13.74,13.74,0,0,1-5.13,1.69,111.74,111.74,0,0,1-11.34,1.21C222.26,111.84,221,111.91,219.88,112Z"/><path class="cls-2" d="M252.53,43.82c0,.74-.37,1.13-1.22,1.18-1.47.07-7.31.08-17.53.2q.57,14,.94,19.54.42,6.54,1.82,19.6t1.81,19.6c.05.7-.09,1.16-.41,1.36a6.92,6.92,0,0,1-1.54.38,89,89,0,0,1-9.74,1.13,78.19,78.19,0,0,1-10.07.34,1.64,1.64,0,0,1-1.7-1.59q-.54-6.51-1-19.6t-1-19.6q-.36-4.3-2-19.18c-7.68,1.37-13.8,2.31-18.39,2.75-.62.06-1-.1-1-.46a27.67,27.67,0,0,1,.4-4.33c.36-2.62.59-4.25.6-4.79,0-1.68-.08-3.49-.08-5.23,0-2.77.35-4.21,1-4.27l.83,0c9.41.2,18.88-.53,28.23-1.18,3.51-.24,10-1.08,19.44-2.33,5.08-.68,7.64-1,7.68-1a3.3,3.3,0,0,1,1.36.07c.13.08.25.46.3,1.06.08,1,.08,2.39.1,4.16,0,2,.05,3.35.1,4.16a29.76,29.76,0,0,0,.59,4A31.18,31.18,0,0,1,252.53,43.82Z"/><path class="cls-2" d="M341.56,64.1q-.12,8.64-1.58,12a136.06,136.06,0,0,1-7.47,13.12c-4,6.57-6.72,10.69-8.21,12.28-1,1.07-3.45,1.6-7.34,1.62a32.61,32.61,0,0,1-6.12-.29,4.49,4.49,0,0,1-2-1.08c-2.14-2.05-5.47-7.09-10.09-15.1-4.57,8.41-7.63,13.57-9.28,15.46-.87,1-3.29,1.52-7.25,1.65a27.55,27.55,0,0,1-5.46-.15c-1.87-.45-5.15-4.35-9.91-11.65a142.5,142.5,0,0,1-8.51-14.37q-1.65-3.46-2.08-11.94c-.34-6.82-.37-11,0-12.54a1.86,1.86,0,0,1,1.95-1.53q2.66-.14,8-.2c3.55,0,6.21-.08,8-.14.88,0,1.35.56,1.39,1.78s.06,2.7.06,4.9,0,3.84.06,4.91c.16,4.47.4,7.78.69,9.9.11.81,1.2,2.85,3.25,6.13s3.3,4.91,3.75,4.9c.68,0,1.9-1.71,3.59-5a44.23,44.23,0,0,0,2.73-6.25q.63-2,.44-10c0-1.11-.18-2.76-.44-5s-.42-3.83-.44-4.9.4-1.73,1.28-1.75c1.08,0,3.22-.09,6.42-.19l2.37-.1-.2,0q-.15,0-.09,0h.41l1.5,0a52.6,52.6,0,0,1,6.42,0c.82.06,1.28.67,1.3,1.7q0,2.1-.22,6.41c-.16,2.86-.23,5-.22,6.4a32.68,32.68,0,0,0,.54,7.14,47.82,47.82,0,0,0,2.79,6c1.72,3.3,2.92,5,3.6,5s1.93-1.7,3.77-5.07,2.71-5.33,2.82-6.32q.22-2.1.2-19.62c0-1.3.38-1.94,1.16-1.94,1.77,0,4.44-.06,8-.15s6.24-.12,8-.1a1.87,1.87,0,0,1,1.95,1.57C341.48,53.12,341.65,57.3,341.56,64.1Z"/><path class="cls-2" d="M402.55,77.82c-.5,8.41-3.53,15.07-9,20s-12.37,7.25-20.78,6.94c-8.15-.3-14.77-3.07-19.95-8.35s-7.75-12-7.62-20.1c.14-8.57,2.83-15.5,8.17-20.72s12.54-7.72,21.51-7.38c8.73.32,15.69,3.28,20.79,8.78S403,69.48,402.55,77.82Zm-18.62-1A11.66,11.66,0,0,0,381.48,69a9,9,0,0,0-7.12-3.64,9.31,9.31,0,0,0-7.56,3.17,11.37,11.37,0,0,0-3,7.57,11.57,11.57,0,0,0,2.48,7.78,9.54,9.54,0,0,0,14.62.55A11.73,11.73,0,0,0,383.93,76.85Z"/></svg>