<svg id="Layer_1" data-name="Layer 1" xmlns="http://www.w3.org/2000/svg" viewBox="0 0 271.7 316.85"><defs><style>.cls-1{opacity:0.2;}.cls-2,.cls-28{fill:#ffc599;}.cls-3{fill:#472113;}.cls-4{fill:#5b1163;stroke:#060d33;}.cls-11,.cls-26,.cls-28,.cls-4,.cls-6,.cls-7{stroke-miterlimit:10;}.cls-5{fill:#060d33;}.cls-6{fill:#b5095f;}.cls-6,.cls-7{stroke:#541625;}.cls-7{fill:#ed0dff;}.cls-8{fill:#ea985d;}.cls-9{opacity:0.25;}.cls-10{fill:#e94a23;}.cls-11{fill:#6d340d;stroke:#351906;}.cls-12{fill:#00ffce;}.cls-13{fill:#4faa99;}.cls-14{fill:#00bdff;}.cls-15{opacity:0.38;}.cls-16{fill:#231f20;}.cls-17{fill:#fff;}.cls-18{fill:#9e5643;}.cls-19{fill:#3d2d17;}.cls-20{fill:#db9d8f;}.cls-21{fill:#8c3d36;}.cls-22{fill:#f5968e;}.cls-23{fill:#f48678;}.cls-24,.cls-26{fill:#fff7f4;}.cls-25{fill:#d26653;}.cls-26{stroke:#9e5643;stroke-width:0.75px;}.cls-27{fill:#e6efef;}.cls-28{stroke:#72442e;}</style></defs><path class="cls-1" d="M181.79,263.37c-13.08.57-25,2.63-34.3,5.61-10.14-3.31-24.74-5-40.9-4.34-30.08,1.3-54.11,10.51-53.67,20.57s25.17,17.16,55.25,15.86a134.48,134.48,0,0,0,34.3-5.6c10.13,3.3,24.74,5,40.9,4.33,30.08-1.3,54.11-10.51,53.67-20.57S211.87,262.07,181.79,263.37Z"/><path class="cls-2" d="M108.56,250.11c-5.1-14.92-11.16-29.43-19.39-42.76,8.64-8.67,18.16-16.6,28.9-22.45l.53,2.37c2.68,9.8,7.7,36.09,10.31,51.66a35.12,35.12,0,0,1-3.27,21.64c-4.6,9.12-11,21.88-13.17,26.05l-1,2c-.08.16-.13.37-.3.42s-.56-.17-.75-.22l-1.59-.51q-1.59-.51-3.15-1.08-2.42-.89-4.78-1.89c2.59-11.66,5.26-23.43,7.57-35.24Z"/><path class="cls-3" d="M111.07,289.57a1.9,1.9,0,0,1-.69-.19l-.15-.06-1.6-.51c-1.06-.35-2.13-.71-3.17-1.09-1.61-.59-3.22-1.22-4.8-1.89a.51.51,0,0,1-.3-.59l.81-3.64c2.3-10.33,4.68-21,6.76-31.59,0,0,0-.06,0-.08-5.88-17.15-12-30.6-19.21-42.32a.5.5,0,0,1,.07-.63c9.87-9.9,19.36-17.27,29-22.53a.51.51,0,0,1,.45,0,.5.5,0,0,1,.29.36l.53,2.37c2.73,10,7.84,36.9,10.32,51.69a35.48,35.48,0,0,1-3.32,22c-4.85,9.6-11.06,21.92-13.18,26l-.09.18c-.31.62-.63,1.23-1,1.84a.36.36,0,0,1,0,.09.87.87,0,0,1-.58.58Zm-9.62-4.52c1.44.6,2.9,1.17,4.36,1.7,1,.38,2.09.74,3.14,1.09l1.58.5.25.09.15.06a.93.93,0,0,1,0-.1l.94-1.82.09-.18c2.11-4.12,8.33-16.44,13.17-26.05A34.39,34.39,0,0,0,128.41,239c-2.48-14.77-7.57-41.65-10.3-51.61l-.39-1.73c-9.27,5.13-18.4,12.25-27.9,21.74C97,219.2,103.16,232.72,109,249.94a.52.52,0,0,1-.06.47l-.1.1c-2.07,10.49-4.43,21.08-6.71,31.32Z"/><path class="cls-2" d="M160.3,247c-11.5-16.88-17.52-25.52-27.34-39.87,5.59-10.88,6.42-18.63,14.87-27.47l1.23,2.1c7.75,11.94,18.75,33.43,24.73,45.42a57.74,57.74,0,0,1,5.58,18.29c1,8.16,2.43,19.52,2.85,26.11,0,.65.09,1.31.12,2,0,.16.08.33,0,.45a2.41,2.41,0,0,1-.75.22l-1.61.44c-1.07.29-2.15.56-3.23.82q-2.51.58-5,1.07c-3.67-9.84-7.34-19.79-11.33-29.59Z"/><path class="cls-3" d="M171.69,277a.52.52,0,0,1-.48-.33L170,273.56c-3.21-8.62-6.52-17.52-10.06-26.2a.52.52,0,0,1-.1-.11c-6.77-9.93-11.72-17.13-16.51-24.08l-10.83-15.79a.51.51,0,0,1,0-.52c1.82-3.54,3.12-6.7,4.37-9.77,2.59-6.33,4.83-11.8,10.59-17.82a.53.53,0,0,1,.43-.16.52.52,0,0,1,.38.26l1.23,2.09c7.78,12,18.84,33.61,24.75,45.45a57.77,57.77,0,0,1,5.62,18.46c.88,6.74,2.41,19.1,2.86,26.13l0,.19c0,.59.07,1.19.11,1.79v.07a.83.83,0,0,1-.21.78,1.52,1.52,0,0,1-.8.31l-.17,0-1.61.45c-1.06.28-2.15.56-3.24.82-1.67.39-3.37.75-5,1.07Zm-11.11-30.56a.51.51,0,0,1,.25.27c3.58,8.77,6.93,17.77,10.18,26.47l1,2.72c1.52-.29,3.06-.62,4.57-1,1.08-.26,2.16-.53,3.22-.81l1.59-.44.26-.06.18,0a.2.2,0,0,1,0-.07c0-.59-.07-1.18-.11-1.78v-.18c-.45-7-2-19.34-2.85-26.07a57,57,0,0,0-5.53-18.14c-5.9-11.81-16.94-33.41-24.7-45.36l-.9-1.53c-5.28,5.69-7.43,10.95-9.91,17-1.23,3-2.5,6.11-4.27,9.57,4,5.8,7.32,10.66,10.67,15.53C149,229.49,153.89,236.64,160.58,246.46Z"/><path class="cls-4" d="M182.62,263.34c-3.39,1.45-7.32,3.3-11.24,4.72-.44.16-.87.32-1.31.46a34.57,34.57,0,0,1-6.53,1.62c-2.18-7.25-8-21-11.82-27.49a93.7,93.7,0,0,0-12.28-17l-.15-.16c-1.92,1.23-4.25,2.6-6.16,3.83a.28.28,0,0,0,0,.09c.88,7.69.86,19.41-1.85,26.62-3.92,10.44-6.22,13-11.27,22.92a120.84,120.84,0,0,1-14.55-3.73l-1.14-.38c-1.27-.43-2.53-.89-3.76-1.37,1.46-8.2,3.21-14.34,4.67-22.55-2.84-10.43-9.19-22.94-12.59-34l3.74-2.3.53-.32c8.36-5,16.79-9.7,25.39-14l1.1-.55c10.34-5.17,20.9-9.87,31.84-14.2,5.92,11.38,15.85,31.15,21.24,41.91A44,44,0,0,1,181,243.24C181.5,249.43,182.2,257.74,182.62,263.34Z"/><path class="cls-5" d="M171.34,268.06c-.43.16-.87.32-1.3.46a104.1,104.1,0,0,0-8.33-17.32.62.62,0,0,1,.1-.74l.61-.61a7.56,7.56,0,0,0-1.84,0c-.44.06-1-.41-.68-.88s0-1-.28-1.46-.65-1-1-1.51c-.7-1.07-1.39-2.14-2.08-3.21l-4-6.22c-2.72-4.21-5.48-8.4-8.09-12.69a.54.54,0,0,1,0-.1c-.69.21-1.37.43-2,.67s-1.5.54-2.24.84l-.74.31-.49.21c-.14.06-.87.46-1.09.59,0,0-1.1.65-1.38.82-1.14.69-2.24,1.41-3.35,2.14-2.29,1.52-4.54,3.12-6.83,4.66-.25.17-.55-.22-.33-.42a60.38,60.38,0,0,1,5.49-4.2c1.77-1.22,3.58-2.4,5.41-3.53-1.25-2.31-2.49-4.64-3.73-7q-5.12-9.52-10.84-18.69-2.58-4.17-5.27-8.27c-.39-.6.56-1.14,1-.56q2.54,3.68,4.92,7.47c.17.27.34.54.5.81q3.9,6.27,7.46,12.73c2.37,4.28,4.63,8.63,6.6,13.11a107.94,107.94,0,0,1,15.7-7.93c.55-.22.94.72.4.94-2.12.91-4.24,1.85-6.32,2.85-.87.42-1.72.85-2.58,1.28.73-.23,1.47-.44,2.21-.62a.5.5,0,0,1,.27,1c-.64.17-1.26.35-1.89.54,3,4.38,5.92,8.87,8.84,13.32q2.16,3.31,4.34,6.63c.74,1.13,1.51,2.26,2.23,3.42a3.37,3.37,0,0,1,.61,1.68,9.51,9.51,0,0,1,2.6.23.62.62,0,0,1,.27,1L163,251A106.44,106.44,0,0,1,171.34,268.06Z"/><path class="cls-5" d="M112.11,256.25a5.62,5.62,0,0,1-1.92,0l-3.12,12.44c-.55,2.17-1.09,4.35-1.64,6.53l-1.14-.38s0,0,0-.05c.54-2.14,1.09-4.28,1.63-6.42l3.28-12.94c-.42-.1-.84-.2-1.28-.26-.68-.12-.42-1.05.15-1.11l2.37-.26c-.94-3-1.91-5.92-2.91-8.87q-5.17-15.3-11.18-30.31c-.32-.81-.64-1.61-1-2.41-.12-.3.39-.51.51-.21.33.77.66,1.53,1,2.3,1,2.25,1.87,4.5,2.79,6.76q6.6,16.31,12,33.06a.55.55,0,0,1-.53.69s0,0,0,0c.31.1.63.22.94.35S112.74,256.16,112.11,256.25Z"/><path class="cls-2" d="M118.22,124.09c10.65-.58,21.47-.23,32.13,0,7.86-6.51,16.43-14.13,23.76-21.22a5.64,5.64,0,0,0-.8-3.15,20.22,20.22,0,0,1-1.46-3,2,2,0,0,1,.43-2.31,2.16,2.16,0,0,1,2.14.19,9.7,9.7,0,0,1,3.92,3.78c1.41-2,4.35-6.36,5.63-5.63.39.22.45.77.43,1.23a4.56,4.56,0,0,1-1,2.68,10.17,10.17,0,0,1,3-2.5,1.6,1.6,0,0,1,1.13-.25,1.21,1.21,0,0,1,.76,1.34,3.54,3.54,0,0,1-.72,1.5c-.64.89-1.3,1.76-2,2.61a4.14,4.14,0,0,0,1.36-.9,3.16,3.16,0,0,1,1.34-.76,1.17,1.17,0,0,1,1.33.57,1.58,1.58,0,0,1-.34,1.45,7.85,7.85,0,0,1-2.4,2.26,5.59,5.59,0,0,1,2.2-.94c.71-.09,1.36,0,1.46.75.23,1.57-5.75,4.91-9.17,6.77-4.86,8.26-11.92,18.39-17.32,26.3-2.37,3.47-4.89,7-8.45,9.23-3.33,2.08-7.29,2.84-11.17,3.49q-12.51,2.09-25.19,3C119.08,141.7,118.36,133,118.22,124.09Z"/><path class="cls-3" d="M119.21,151.13a.52.52,0,0,1-.35-.14.51.51,0,0,1-.16-.37c-.07-4.45-.28-8.92-.49-13.24s-.43-8.81-.5-13.28a.51.51,0,0,1,.49-.52c9.27-.51,18.79-.31,28-.11l4,.08c8-6.67,16.35-14.09,23.45-20.94a5.55,5.55,0,0,0-.76-2.68c-.14-.27-.29-.53-.43-.79a11.79,11.79,0,0,1-1.06-2.24A2.48,2.48,0,0,1,172,94a2.55,2.55,0,0,1,2.67.15,10.27,10.27,0,0,1,3.71,3.31h0c2.35-3.3,4.41-5.95,5.85-5.14a1.72,1.72,0,0,1,.69,1.7,4.75,4.75,0,0,1,0,.53,10.17,10.17,0,0,1,1.28-.82,2,2,0,0,1,1.5-.3,1.73,1.73,0,0,1,1.14,1.9,3.7,3.7,0,0,1-.82,1.73l-.19.27a2.91,2.91,0,0,1,.39-.12,1.7,1.7,0,0,1,1.9.88,2,2,0,0,1-.39,1.93c-.12.18-.24.35-.37.51,1.38-.06,1.66.81,1.72,1.2.21,1.45-2.4,3.48-9.31,7.24-4.25,7.19-10,15.63-15.13,23.08l-2.14,3.12c-2.5,3.67-5.05,7.15-8.6,9.37-3.37,2.11-7.29,2.89-11.35,3.57-8.33,1.38-16.83,2.4-25.24,3Zm-.46-26.55c.07,4.28.28,8.58.48,12.75s.41,8.45.48,12.73c8.21-.61,16.49-1.61,24.61-3,4-.65,7.77-1.41,11-3.42,3.38-2.11,5.76-5.36,8.3-9.08l2.13-3.12c5.13-7.48,10.93-16,15.16-23.15a.61.61,0,0,1,.2-.19c8.22-4.46,9-5.85,8.91-6.25,0-.12-.06-.41-.89-.31a4.86,4.86,0,0,0-1.63.63l-.37.24a.51.51,0,0,1-.69-.16.52.52,0,0,1,.13-.7l.38-.25a7.19,7.19,0,0,0,1.89-1.88c.2-.29.41-.7.3-1a.69.69,0,0,0-.75-.27,2.9,2.9,0,0,0-1.13.66l-.2.17a3.93,3.93,0,0,1-1.34.83.52.52,0,0,1-.54-.82c.68-.84,1.34-1.71,2-2.59a2.85,2.85,0,0,0,.63-1.27c0-.31-.11-.71-.38-.78a1.26,1.26,0,0,0-.76.21,9.64,9.64,0,0,0-2.73,2.23,1.34,1.34,0,0,1-.11.14.51.51,0,0,1-.8-.63l.1-.14a4,4,0,0,0,.8-2.25c0-.48-.07-.71-.17-.77-.34-.2-1.4.49-4.5,4.84l-.46.65a.48.48,0,0,1-.44.21.52.52,0,0,1-.42-.26,9.23,9.23,0,0,0-3.7-3.58c-.41-.21-1.17-.53-1.62-.21s-.43,1.08-.23,1.72a12.07,12.07,0,0,0,1,2.06c.15.27.31.54.45.82a6.16,6.16,0,0,1,.85,3.44.46.46,0,0,1-.15.31c-7.19,6.94-15.64,14.49-23.79,21.25a.49.49,0,0,1-.34.12l-4.17-.09C137.15,124.3,127.83,124.1,118.75,124.58Z"/><path class="cls-6" d="M140.32,122.53a101.69,101.69,0,0,1,4.15,26.67c-8.15,2.42-16.91,3.28-25.41,3.57-19.42.66-13.85-27.86-13.85-27.86A84.5,84.5,0,0,1,140.32,122.53Z"/><path class="cls-7" d="M94.75,129.22a236.55,236.55,0,0,0-22.6,11.85q-.54.33-1.05.69a14.79,14.79,0,0,0-5.46,16.58c7.47,22.95,21.34,53.09,28,66.78C109.35,223,148.24,204,159,190.54c-10.28-18.33-34.66-50.8-53.28-65.79C102.42,125.89,98.69,127.43,94.75,129.22Z"/><path class="cls-2" d="M71.1,141.76c3.54,2.66,8.38,3.33,12.81,2.75,3.94-.51,8-2,10.39-5.18,2.21-2.88,2.62-7.3.45-10.11a236.55,236.55,0,0,0-22.6,11.85Q71.61,141.4,71.1,141.76Z"/><path class="cls-3" d="M81,145.22a17,17,0,0,1-10.2-3.05.49.49,0,0,1-.2-.42.52.52,0,0,1,.21-.41c.4-.28.75-.51,1.09-.71a236.55,236.55,0,0,1,22.65-11.88.51.51,0,0,1,.61.15c2.23,2.89,2,7.51-.45,10.74-2.21,2.86-6,4.77-10.72,5.38A23.46,23.46,0,0,1,81,145.22Zm-9-3.45A17.62,17.62,0,0,0,83.85,144c4.43-.57,8-2.35,10-5s2.35-6.63.69-9.15a239.42,239.42,0,0,0-22.17,11.65Z"/><path class="cls-2" d="M89,128.9l2.75,5a29.74,29.74,0,0,1-17,7.48c-.65-2.3-1.33-4.59-2-6.88A35.11,35.11,0,0,0,89,128.9Z"/><path class="cls-8" d="M84.52,120.7,89,128.9a35.11,35.11,0,0,1-16.22,5.59c-.8-2.65-1.61-5.3-2.36-8A60.35,60.35,0,0,1,84.52,120.7Z"/><path class="cls-3" d="M74.84,141.88a.51.51,0,0,1-.49-.37c-.63-2.23-1.29-4.43-2-6.87l-.13-.45c-.74-2.46-1.51-5-2.22-7.53a.52.52,0,0,1,.24-.58,61.07,61.07,0,0,1,14.18-5.88.51.51,0,0,1,.58.25l7.27,13.19a.52.52,0,0,1-.21.7.5.5,0,0,1-.69-.2L84.27,121.3a59.84,59.84,0,0,0-13.2,5.47c.67,2.39,1.4,4.79,2.1,7.13l.14.44c.73,2.45,1.39,4.66,2,6.89a.51.51,0,0,1-.35.63Z"/><path class="cls-2" d="M39.23,96.43C52,128,74,132.15,91.51,128.2c15.16-3.41,24.67-12.91,27.79-26.23a46.85,46.85,0,0,0,1-14.3,62.7,62.7,0,0,0-1.08-7.86,112.86,112.86,0,0,0-4.34-16.15c-2.7-7.48-6.64-15.33-13.13-20.23C95.83,39,88,37.85,80.79,38c-15.12.32-34.28,5.13-42.92,18.69C30.07,68.93,34.21,84,39.23,96.43Z"/><path class="cls-3" d="M80.81,129.93c-13.67,0-31.11-6.2-42.05-33.31h0c-4.87-12-9.42-27.5-1.32-40.21,10.79-16.94,35.9-18.77,43.34-18.92,9-.18,16.16,1.67,21.28,5.53,5.47,4.13,9.82,10.82,13.3,20.47a112.92,112.92,0,0,1,4.36,16.22,66.39,66.39,0,0,1,1.1,7.93,47.86,47.86,0,0,1-1,14.44c-3.24,13.81-13.25,23.26-28.17,26.62A49.51,49.51,0,0,1,80.81,129.93ZM82,38.5H80.8c-7.31.16-32,1.94-42.5,18.45-7.84,12.31-3.37,27.46,1.41,39.28h0c13.87,34.37,38.34,34.47,51.69,31.46,14.53-3.27,24.26-12.45,27.4-25.85a46.56,46.56,0,0,0,1-14.14,64.41,64.41,0,0,0-1.07-7.8,114,114,0,0,0-4.32-16.08c-3.41-9.45-7.65-16-13-20C96.74,40.29,90.2,38.5,82,38.5Z"/><g class="cls-9"><path class="cls-10" d="M71.29,112.59a4.82,4.82,0,0,1-.36.43,9.43,9.43,0,0,1-11.66,1.63c-4.2-2.59-6.15-9.32-2.05-13,4.72-4.2,14-1.5,15.52,4.77A7.35,7.35,0,0,1,71.29,112.59Z"/></g><g class="cls-9"><path class="cls-10" d="M106.05,97.68a7.39,7.39,0,0,0,3.54,5.22,4.67,4.67,0,0,0,.49.27,9.41,9.41,0,0,0,9.11-.49,47.45,47.45,0,0,0,1-14.29,6.41,6.41,0,0,0-1.33-.69C113,85.46,105.24,91.29,106.05,97.68Z"/></g><path class="cls-11" d="M35.77,104.21,22.12,74.11a4.51,4.51,0,0,1-5.54-3,5,5,0,0,1,2.92-6A9.64,9.64,0,0,1,22.26,47a13.07,13.07,0,0,1,4.93-14.25,13.07,13.07,0,0,1,15.07.48,26.1,26.1,0,0,1,2.54-6.9,7.7,7.7,0,0,1,5.38-3.91c2.28-.28,4.81,1.17,5.22,3.43a14.63,14.63,0,0,1,27.89-.09,12.21,12.21,0,0,1,23.5,6.2c3-3.87,9.57-3.51,12.93.06s3.72,9.23,1.93,13.79a6.77,6.77,0,0,1,7.42,5.95,6.78,6.78,0,0,1-6.46,7,4,4,0,0,1-.84,3.55,2.88,2.88,0,0,1-3,.52c-.23-.1-.76.43-1,.3a4.44,4.44,0,0,1-.35,5.72c-.89.88-2.87.84-4,.26A3,3,0,0,1,112,66c-1.47,2.55-5.43,2.61-7.72.78S101,61.87,100.54,59A9.77,9.77,0,0,1,81.8,60.81a10.58,10.58,0,0,1-6.12,8.81,10,10,0,0,1-10.22-1.89,4.17,4.17,0,0,1-2.2,4.46,6.84,6.84,0,0,1-5.22.28A20,20,0,0,1,53.29,70C53,79.44,51,88.56,46.36,96.76,43.39,97.64,37.86,101.93,35.77,104.21Z"/><path class="cls-3" d="M27.4,66c-.3.39-1,.24-1.27,0a2.07,2.07,0,0,1-.57-1.64,2.36,2.36,0,0,1,1.82-2.28.6.6,0,0,0,0-1.19c-2.42-.12-4-2.62-4.1-4.86a4.35,4.35,0,0,1,1.18-3.32,3.08,3.08,0,0,1,3.46-.62.28.28,0,0,0,.28-.49,3.61,3.61,0,0,0-4,.09,5,5,0,0,0-2,4,6.37,6.37,0,0,0,3.4,6A3.83,3.83,0,0,0,24.33,65,2.88,2.88,0,0,0,26,67.4a2.08,2.08,0,0,0,2.5-.75C29,66,27.89,65.39,27.4,66Z"/><path class="cls-3" d="M73.66,33.71c-1.16-3.27-3.58-6.57-7.31-6.9-3.2-.28-5.67,2.46-6.8,5.29-1.28-2.11-3.06-4.24-5.77-3.77-2.34.4-4.07,3.09-4.1,5.36a.3.3,0,0,0,.59.08C51,32,51.78,29.66,54,29.33c2.67-.4,4.24,2.53,5.19,4.52.23.49,1,.31,1.09-.14.83-2.67,2.95-6,6.18-5.6s4.79,3.48,6,6.12C72.74,34.92,73.91,34.43,73.66,33.71Z"/><path class="cls-3" d="M111.13,49.24a5.66,5.66,0,0,0-6.92-8.81c-.45-2.43-1.2-5-3.47-6.27a4.35,4.35,0,0,0-6.08,2c-.13.27.21.59.44.34a5.69,5.69,0,0,1,2.51-1.94,3.45,3.45,0,0,1,3.09.73c1.85,1.48,2.19,4,2.52,6.2a.58.58,0,0,0,.86.35,4.7,4.7,0,0,1,6.48.82A4.6,4.6,0,0,1,109.32,49a.7.7,0,0,0,.35,1.29,2.94,2.94,0,0,1,3,2.58,1.77,1.77,0,0,1-2.54,1.69c-.68-.28-1,.75-.47,1.12,1.91,1.3,4.25-.47,4.4-2.52A4,4,0,0,0,111.13,49.24Z"/><path class="cls-3" d="M90.86,56.54a3.11,3.11,0,0,1-4.64,1.74c-2.2-1.16-3.15-3.56-4-5.74a.61.61,0,0,0-1.09-.14,25.57,25.57,0,0,1-3,3.67,12.82,12.82,0,0,1-3.73,2.85,4.05,4.05,0,0,1-4.24-.3,10.67,10.67,0,0,1-2.52-3.32c-.19-.34-.68,0-.52.31a10,10,0,0,0,2.64,3.74A4.75,4.75,0,0,0,74.2,60a11.52,11.52,0,0,0,4.32-2.8,25.66,25.66,0,0,0,3-3.3c1,2.45,2.26,4.92,4.82,6s5.92-.19,6.08-3.14A.77.77,0,0,0,90.86,56.54Z"/><path class="cls-2" d="M51.7,104.11c1.27,4.92-.92,8.23-7.36,9.52s-13.2-2.25-14.52-8.37c-1-4.67-.08-11,6.36-12.32S49.86,97,51.7,104.11Z"/><path class="cls-8" d="M49,109.23c1.59-2.12.39-4.6-4.27-7.51s-10.2-3.41-12-.68c-1.37,2.08-1.51,5.71,3.15,8.62S46.65,112.29,49,109.23Z"/><path class="cls-3" d="M41.6,114.41c-5.91,0-11.12-3.66-12.28-9-.37-1.69-1-6,1.25-9.38a8.28,8.28,0,0,1,5.51-3.56,13,13,0,0,1,10.54,3,.51.51,0,1,1-.64.79,12,12,0,0,0-9.7-2.82,7.28,7.28,0,0,0-4.85,3.11c-1.4,2.13-1.81,5.35-1.11,8.61,1.23,5.68,7.47,9.25,13.92,8a12.44,12.44,0,0,0,5.11-2,.51.51,0,0,1,.62.81,13.29,13.29,0,0,1-5.53,2.24A14.54,14.54,0,0,1,41.6,114.41Z"/><polygon class="cls-12" points="249.8 191.65 129.63 191.15 125.49 68.06 257.05 68.61 249.8 191.65"/><path class="cls-3" d="M249.8,192.16h0l-120.18-.5a.52.52,0,0,1-.51-.5L125,68.07a.5.5,0,0,1,.14-.37.65.65,0,0,1,.37-.16l131.56.55a.51.51,0,0,1,.37.16.52.52,0,0,1,.14.39l-7.25,123A.51.51,0,0,1,249.8,192.16Zm-119.68-1.52,119.2.49,7.18-122L126,68.57Z"/><polygon class="cls-13" points="250.36 48.07 130.18 47.56 125.45 67.74 257 68.29 250.36 48.07"/><path class="cls-3" d="M257,68.8h0l-131.56-.54a.57.57,0,0,1-.4-.2.51.51,0,0,1-.09-.43l4.73-20.18a.51.51,0,0,1,.5-.4h0l120.18.5a.51.51,0,0,1,.48.36l6.65,20.22a.5.5,0,0,1-.07.46A.49.49,0,0,1,257,68.8ZM126.09,67.23l130.21.55L250,48.58l-119.39-.5Z"/><polygon class="cls-14" points="240.54 182.86 138.75 182.43 135.25 78.18 246.68 78.64 240.54 182.86"/><path class="cls-3" d="M240.54,183.37h0l-101.79-.43a.51.51,0,0,1-.51-.49l-3.5-104.26a.47.47,0,0,1,.14-.37.52.52,0,0,1,.37-.16h0l111.43.47a.52.52,0,0,1,.37.16.49.49,0,0,1,.14.38l-6.14,104.22A.51.51,0,0,1,240.54,183.37Zm-101.29-1.45,100.8.42,6.08-103.19-110.35-.46Z"/><g class="cls-15"><path class="cls-16" d="M187,107.26a4,4,0,0,1-1.67,3.24,6.2,6.2,0,0,1-4,1.33,6.27,6.27,0,0,1-4.07-1.36,4.31,4.31,0,0,1-1.74-3.33,3.91,3.91,0,0,1,1.6-3.33,6.93,6.93,0,0,1,6.36-1,5.5,5.5,0,0,1,1.81,1,5.17,5.17,0,0,1,1.24,1.54A3.91,3.91,0,0,1,187,107.26ZM176.1,148V116h9.67v32Z"/><path class="cls-16" d="M199.14,148V123h-6.39V116h6.39V108h9.53V116h8.21V123h-8.21V148Z"/></g><path class="cls-17" d="M185.11,105.24a4,4,0,0,1-1.67,3.24,6.73,6.73,0,0,1-8.07,0,4.37,4.37,0,0,1-1.75-3.33,4,4,0,0,1,1.6-3.34,6.51,6.51,0,0,1,4.22-1.35,6.3,6.3,0,0,1,2.14.37,5.55,5.55,0,0,1,1.82,1,5.17,5.17,0,0,1,1.24,1.54A4,4,0,0,1,185.11,105.24ZM174.2,146V114h9.67v32Z"/><path class="cls-17" d="M197.25,146V120.93h-6.4V114h6.4V106h9.53V114H215v6.91h-8.21V146Z"/><path class="cls-18" d="M90.43,102.06a7,7,0,0,1-2.85,0,.54.54,0,0,1-.44-.64.58.58,0,0,1,.68-.41A6,6,0,0,0,93,99.59a5.2,5.2,0,0,0,1.51-4.89.55.55,0,0,1,.44-.64h0a.58.58,0,0,1,.68.42,6.27,6.27,0,0,1-1.82,5.87A7,7,0,0,1,90.43,102.06Z"/><path class="cls-18" d="M91.82,121.66a.56.56,0,0,1,.61-.51,18,18,0,0,0,5-.18c.36-.07.57.43.23.58a9.54,9.54,0,0,1-5.31.68A.58.58,0,0,1,91.82,121.66Z"/><path class="cls-19" d="M65.79,77.56s-7.8,1.12-8.5,11.25c0,.41-.4.4-.51,0-.71-2.65-1.63-8.35,2.29-12,6.18-5.71,6.72.73,6.72.73"/><path class="cls-20" d="M78.75,109.09a15.58,15.58,0,0,1-2.08-1,4.25,4.25,0,0,0-1.81-.13c-.78.12-1.64.62-1.6,1.34,0,.57.6,1,1.18,1.2a5.24,5.24,0,0,0,3.18.16,1.49,1.49,0,0,0,1.09-.76c.15-.41-.3-.94-.73-.76Z"/><path class="cls-20" d="M103.78,104.42a11,11,0,0,1,.9-2.08,2.39,2.39,0,0,1,.88-.62,1.75,1.75,0,0,1,2,.63,1.94,1.94,0,0,1,.08,2,3.84,3.84,0,0,1-1.5,1.52,2.9,2.9,0,0,1-1.39.48,1.3,1.3,0,0,1-1.24-.62,1.16,1.16,0,0,1,.32-1.27,4,4,0,0,1,1.24-.78Z"/><path class="cls-21" d="M106,103.25a12.71,12.71,0,0,1-.23,1.53c-.63,3-2.51,8.74-6.11,11.6a12,12,0,0,1-9.57,2.23c-4.41-.82-6.77-2.52-10-5.56-1.06-1-2.2-2.12-3.54-3.41,0,0-.3-.23.06-.34a3,3,0,0,1,.64,0c2.37,0,8.78,1.68,17.32-.9,6.56-2,9.8-4.32,11-5.3a.32.32,0,0,1,.43,0,.23.23,0,0,1,0,.16"/><path class="cls-22" d="M105.76,104.78c-.63,3-2.51,8.74-6.11,11.6a12,12,0,0,1-9.57,2.23c-4.41-.82-6.77-2.52-10-5.56,3.39,2.16,8.81,4.76,14.27,3.77,7.47-1.35,10.6-9.44,11.42-12"/><path class="cls-23" d="M106,103.09a29,29,0,0,1-14.13,7.21c-8.07,1.67-13.49-.29-15.22-1a3,3,0,0,1,.64,0c2.37,0,8.78,1.68,17.32-.9,6.56-2,9.8-4.32,11-5.29a.3.3,0,0,1,.43,0"/><path class="cls-24" d="M80.3,110.14c.19,0,11,3.15,22.52-4.55,0,0-.71,4.57-8.31,6.89-8.68,2.66-14.21-2.34-14.21-2.34"/><path class="cls-25" d="M94.35,116.71a10.23,10.23,0,0,1-5.4-.33c2.65-4.35,8.94-3.16,10.15-2.09-.83,1.09-2.19,1.92-4.75,2.42"/><ellipse class="cls-26" cx="69.32" cy="90.68" rx="7.41" ry="6.86" transform="translate(-1.16 0.9) rotate(-0.73)"/><path class="cls-3" d="M75.82,91c.68,2.61-.47,5.06-4,5.85s-5.93-1.09-6.61-3.69.66-4.94,4.16-5.74S75.15,88.42,75.82,91Z"/><ellipse class="cls-24" cx="66.23" cy="89.5" rx="2.35" ry="2.17" transform="translate(-1.14 0.86) rotate(-0.73)"/><path class="cls-19" d="M98.32,71s7.59-2,12.73,7c.21.36.54.21.46-.21-.53-2.69-2.23-8.23-7.4-10C95.94,64.94,98.32,71,98.32,71"/><ellipse class="cls-26" cx="100.93" cy="84.31" rx="7.41" ry="6.86" transform="translate(-1.07 1.3) rotate(-0.73)"/><path class="cls-3" d="M95.16,87.13c.55,2.63,2.68,4.42,6.23,3.79s4.92-3.28,4.38-5.91-2.8-4.25-6.34-3.62S94.62,84.49,95.16,87.13Z"/><ellipse class="cls-24" cx="97.66" cy="82.37" rx="2.35" ry="2.17" transform="translate(-1.05 1.26) rotate(-0.73)"/><path class="cls-27" d="M170.92,282.62l20.36-6.47a38.32,38.32,0,0,1-2-7.89c1.39-.34,4.37-.85,6.31.46,2.59,1.75,3.93,9.75,3.93,9.75L172,286.63Z"/><path class="cls-3" d="M172,287.29a.72.72,0,0,1-.32-.08.67.67,0,0,1-.32-.4l-1.1-4a.66.66,0,0,1,.44-.8l19.74-6.28-.27-.85a30.12,30.12,0,0,1-1.55-6.56.67.67,0,0,1,.5-.69c1.65-.41,4.73-.87,6.84.55,2.75,1.86,4.07,9.34,4.21,10.19a.67.67,0,0,1-.47.74l-27.51,8.16Zm-.3-4.23.76,2.75,26.3-7.81c-.47-2.47-1.76-7.53-3.54-8.74-1.52-1-3.87-.76-5.23-.49a31.55,31.55,0,0,0,1.44,5.7c.16.5.31,1,.46,1.49a.65.65,0,0,1-.43.82Z"/><path class="cls-10" d="M191.28,276.15l-20.36,6.47-2.17-7.91,15.9-5.53s-1.81-4.43.9-5.32,3,4.61,3,4.61.29-.1.76-.21A38.32,38.32,0,0,0,191.28,276.15Z"/><path class="cls-3" d="M170.92,283.28a.55.55,0,0,1-.31-.08.66.66,0,0,1-.33-.4l-2.17-7.92a.68.68,0,0,1,.42-.8l15.28-5.31a6.22,6.22,0,0,1-.09-4.11,2.67,2.67,0,0,1,1.63-1.43,2.17,2.17,0,0,1,2,.24c1.23.84,1.66,3,1.82,4.15h0a.64.64,0,0,1,.55.11.69.69,0,0,1,.27.48,27.59,27.59,0,0,0,1.49,6.26c.16.5.31,1,.46,1.49a.65.65,0,0,1-.43.82l-20.36,6.47A.69.69,0,0,1,170.92,283.28Zm-1.37-8.15,1.82,6.66,19.09-6.07-.27-.85a33.41,33.41,0,0,1-1.46-5.77.63.63,0,0,1-.56-.09.63.63,0,0,1-.28-.51c-.07-1.22-.48-3.37-1.33-3.94a.83.83,0,0,0-.8-.08,1.34,1.34,0,0,0-.84.73c-.51,1.11.07,3.06.34,3.72a.67.67,0,0,1,0,.52.66.66,0,0,1-.38.35Z"/><path class="cls-3" d="M180.42,275.47a3.37,3.37,0,1,1-4-1.75A3.12,3.12,0,0,1,180.42,275.47Z"/><path class="cls-27" d="M97.46,291.8l23.34.05c0-2.88-.12-5.76.55-8.48,1.55.1,4.82.55,6.41,2.47,2.12,2.57.86,10.94.86,10.94l-31.34-.64Z"/><path class="cls-3" d="M128.62,297.47h0l-31.34-.64a.72.72,0,0,1-.49-.22.68.68,0,0,1-.19-.5l.19-4.34a.67.67,0,0,1,.68-.65h0l22.66,0v-.93a29.59,29.59,0,0,1,.56-7,.68.68,0,0,1,.71-.52c1.84.12,5.18.63,6.9,2.71,2.25,2.73,1.14,10.59,1,11.48A.69.69,0,0,1,128.62,297.47Zm-30.62-2,30,.61c.33-2.6.66-8-.79-9.8-1.26-1.53-3.84-2-5.34-2.17a30.53,30.53,0,0,0-.4,6.12v1.63a.7.7,0,0,1-.69.68h0l-22.68-.05Z"/><path class="cls-10" d="M120.8,291.85l-23.34-.05.37-8.56,18.37-.44s-.41-5,2.7-5,1.59,5.54,1.59,5.54.33,0,.86,0C120.68,286.09,120.83,289,120.8,291.85Z"/><path class="cls-3" d="M120.8,292.54h0l-23.34-.05a.68.68,0,0,1-.68-.72l.36-8.56a.69.69,0,0,1,.67-.66l17.69-.42a6.41,6.41,0,0,1,1.22-4.06,2.84,2.84,0,0,1,2.18-.95,2.34,2.34,0,0,1,2,.9c.95,1.24.71,3.44.47,4.66h0a.65.65,0,0,1,.51.28.68.68,0,0,1,.11.57,28.08,28.08,0,0,0-.52,6.69v1.63A.7.7,0,0,1,120.8,292.54Zm-22.62-1.42,21.94,0v-.93a33.93,33.93,0,0,1,.38-6.2h0a.68.68,0,0,1-.54-.27.65.65,0,0,1-.12-.6c.33-1.21.61-3.44-.06-4.3a1,1,0,0,0-.86-.37,1.57,1.57,0,0,0-1.18.5c-.86.95-.9,3-.84,3.76a.68.68,0,0,1-.18.51.65.65,0,0,1-.49.23l-17.73.42Z"/><path class="cls-3" d="M109.71,287.72c0,1.63-1.68,2.91-3.69,2.87s-3.61-1.39-3.58-3,1.69-2.91,3.7-2.87S109.75,286.09,109.71,287.72Z"/><path class="cls-28" d="M161.63,139.44c2.68-.4,6.45-.82,8-1.3a7.11,7.11,0,0,0,3-1.48,2.41,2.41,0,0,0,.57-3,3,3,0,0,0-2-.94c-1.54-.25-6,.31-9.48.9a1.48,1.48,0,0,0-.19-.35c2.78-.94,6.1-2.25,6.93-3.18.6-.68,1.23-1.61.92-2.42-1-2.64-15.27,1.37-19.9,2.75.68-3.56,2.88-7.18,1.53-10.43a2.67,2.67,0,0,0-2.76-1.9c-1.64-.08-1.46-.09-2.1,1.46a39.21,39.21,0,0,0-1.58,6.32c-.4,1.72-3.51,8-4.69,9.94-5.94,4.26-11.85,8.77-17.85,13-1.8.8-3.59,1.59-5.37,2.35L112.86,150c-8.77-2.8-17.82-5.69-26.86-7.83a.5.5,0,0,0-.61.36c-1.21,4.3-2.27,8.66-3.3,12.87S80,163.91,78.81,168.2a.51.51,0,0,0,.38.64c8.25,1.8,16.68,3.23,25.06,4.27a53.47,53.47,0,0,0,6.36.49,20.28,20.28,0,0,0,5.54-.69c4-1.12,7.46-3.73,10.91-6.54L130,164c6.2-5,13.12-10.67,18.86-15.84,7.57,1.19,17.28,3.81,18.78,1.35.75-1.22-.07-2.19-1.24-2.88-1-.58-6-1.26-8.4-1.5,2.89.18,8.57.25,10.4-.34a3.39,3.39,0,0,0,2.37-1.84,2.17,2.17,0,0,0-1.27-2.46,6.39,6.39,0,0,0-3-.4c-.75,0-3.69.09-5.58,0,.09-.07.2-.14.29-.22A3.87,3.87,0,0,0,161.63,139.44Z"/><path class="cls-6" d="M110,147.47a101.66,101.66,0,0,1-2.49,26.88c-8.49.35-17.19-.95-25.51-2.74-19-4.1-16.93-22.8-13-27.09C71.81,141.48,81.33,135.94,110,147.47Z"/></svg>