<svg id="Layer_1" data-name="Layer 1" xmlns="http://www.w3.org/2000/svg" viewBox="0 0 229.83 258.47"><defs><style>.cls-1{opacity:0.2;}.cls-2{fill:#b97556;}.cls-3{fill:#472113;}.cls-4{fill:#5eaab7;}.cls-5{fill:#991414;}.cls-20,.cls-6{fill:#ea9678;}.cls-6{stroke:#662f1e;}.cls-15,.cls-18,.cls-6,.cls-7,.cls-9{stroke-miterlimit:10;}.cls-7{fill:#2ccddd;stroke:#0b4a51;}.cls-8{fill:#0b4a51;}.cls-9{fill:#f43434;stroke:#8c1818;}.cls-10{opacity:0.25;}.cls-11,.cls-21{fill:#ad2409;}.cls-12{fill:#d3dddd;}.cls-13{fill:#fff;}.cls-14{fill:#77442d;}.cls-15{fill:#351407;stroke:#1c0a04;}.cls-16{fill:#281008;}.cls-17{fill:#3d2d17;}.cls-18,.cls-19{fill:#fff7f4;}.cls-18{stroke:#9e5643;stroke-width:0.75px;}.cls-21{opacity:0.39;}.cls-22{fill:#e6efef;}.cls-23{fill:#e94a23;}</style></defs><path class="cls-1" d="M177.9,224.36a98,98,0,0,0-25,4.09c-7.39-2.41-18-3.67-29.82-3.16-21.94,1-39.47,7.66-39.15,15s18.36,12.51,40.29,11.57a98.37,98.37,0,0,0,25-4.09c7.39,2.41,18.05,3.67,29.83,3.16,21.94-1,39.47-7.67,39.15-15S199.84,223.41,177.9,224.36Z"/><path class="cls-2" d="M78.27,100.48c-8.62,3.18-17.06,7.16-25.42,11C44.41,109,35,105.9,26.79,102.8a4.82,4.82,0,0,1-.44-2.76,16.89,16.89,0,0,0,.14-2.84c-.07-.72-.41-1.54-1.12-1.68a1.88,1.88,0,0,0-1.64.88,8.46,8.46,0,0,0-1.8,4.33c-1.79-1.06-5.62-3.53-6.38-2.52a1.13,1.13,0,0,0,.08,1.12,4,4,0,0,0,1.72,1.77,8.68,8.68,0,0,0-3.23-.95,1.36,1.36,0,0,0-1,.19,1.05,1.05,0,0,0-.15,1.32,2.92,2.92,0,0,0,1.09.94c.81.48,1.63,1,2.47,1.39a3.66,3.66,0,0,1-1.38-.25,2.9,2.9,0,0,0-1.33-.15,1,1,0,0,0-.86.91,1.36,1.36,0,0,0,.77,1,6.77,6.77,0,0,0,2.67,1,4.77,4.77,0,0,0-2.06,0c-.59.17-1.06.5-.9,1.09.35,1.32,6.23,1.92,9.58,2.22,6.66,4.87,15.71,10.46,22.69,14.87,3.07,1.93,6.27,3.86,9.85,4.4,3.34.51,6.74-.24,10-1.06q10.62-2.62,21-6.24C83.62,114.7,81.22,107.58,78.27,100.48Z"/><path class="cls-3" d="M55.52,129.53c-3.57-.54-6.77-2.42-10-4.47l-2.76-1.73c-6.59-4.15-14-8.84-19.87-13.08-6.75-.61-9.51-1.32-9.84-2.54-.09-.33-.16-1.11,1-1.54a4.25,4.25,0,0,1-.46-.27,1.72,1.72,0,0,1-1-1.4,1.47,1.47,0,0,1,1.21-1.34,2,2,0,0,1,.34,0l-.24-.14a3.3,3.3,0,0,1-1.24-1.1,1.49,1.49,0,0,1,.25-1.89,1.82,1.82,0,0,1,1.29-.28,9,9,0,0,1,1.3.21c-.08-.13-.16-.26-.23-.4a1.49,1.49,0,0,1,0-1.58c.86-1.14,3.4.26,6.38,2.07h0a8.87,8.87,0,0,1,1.8-3.88,2.18,2.18,0,0,1,2.06-1,2.14,2.14,0,0,1,1.48,2.07,10.87,10.87,0,0,1-.07,2.14c0,.26-.05.51-.07.77a4.74,4.74,0,0,0,.32,2.38c8,3,17.07,6,25.71,8.53l3.12-1.42c7.21-3.31,14.67-6.72,22.18-9.5a.44.44,0,0,1,.56.25c1.48,3.55,2.84,7.17,4.15,10.67s2.68,7.1,4.15,10.65a.43.43,0,0,1,0,.35.43.43,0,0,1-.25.23c-6.87,2.4-13.94,4.5-21,6.25a32.88,32.88,0,0,1-7.86,1.24A15.35,15.35,0,0,1,55.52,129.53ZM82,111.29c-1.27-3.36-2.58-6.83-4-10.25-7.35,2.74-14.65,6.08-21.72,9.32L53,111.86a.44.44,0,0,1-.3,0c-8.76-2.55-18-5.63-26.09-8.66a.45.45,0,0,1-.23-.2,5.34,5.34,0,0,1-.5-3c0-.27,0-.54.07-.8a10,10,0,0,0,.07-2c-.05-.58-.31-1.2-.77-1.29s-1,.41-1.2.72a8,8,0,0,0-1.71,4.1.44.44,0,0,1-.24.35.42.42,0,0,1-.42,0l-.58-.35c-3.95-2.38-5-2.56-5.22-2.29-.06.08-.06.29.12.67a3.44,3.44,0,0,0,1.4,1.5l.14.08a.44.44,0,0,1,.17.59.44.44,0,0,1-.59.18l-.14-.07a8.35,8.35,0,0,0-2.92-.83,1,1,0,0,0-.67.1.64.64,0,0,0,0,.75,2.67,2.67,0,0,0,.94.78c.8.48,1.62.94,2.44,1.38a.44.44,0,0,1,.23.46.42.42,0,0,1-.37.36,3.14,3.14,0,0,1-1.34-.19l-.22-.07a2.53,2.53,0,0,0-1.12-.13c-.25,0-.51.25-.51.47s.31.49.57.65a6.31,6.31,0,0,0,2.14.85l.38.06a.45.45,0,0,1,.35.51.43.43,0,0,1-.5.36l-.37-.06a4.37,4.37,0,0,0-1.5.06c-.7.21-.63.45-.6.56.09.33,1.16,1.17,9.18,1.89a.4.4,0,0,1,.23.08c5.8,4.24,13.3,9,19.91,13.12L46,124.32c3.28,2.07,6.27,3.82,9.67,4.34,3.23.48,6.5-.22,9.86-1.06,6.88-1.71,13.77-3.75,20.47-6.07C84.57,118.11,83.27,114.65,82,111.29Z"/><path class="cls-4" d="M58.18,107.12a87.74,87.74,0,0,0,4.91,22.74,88.48,88.48,0,0,0,21.54-5c15.82-5.48,12.12-21.26,8.29-24.52C90.19,98,81.48,94.29,58.18,107.12Z"/><path class="cls-5" d="M89.67,98.65c-4.67-1.45-14-1.19-31.49,8.47a87.74,87.74,0,0,0,4.91,22.74,122.92,122.92,0,0,0,21.54-5C100.45,119.39,89.67,98.65,89.67,98.65Z"/><path class="cls-5" d="M63.09,130.3h.07a122.77,122.77,0,0,0,21.61-5,.44.44,0,0,0,.28-.56.44.44,0,0,0-.56-.27,121.5,121.5,0,0,1-21.11,4.91,87.14,87.14,0,0,1-4.74-22c17.21-9.43,26.3-9.73,30.9-8.3a.44.44,0,1,0,.26-.85C85,96.74,75.61,97,58,106.74a.43.43,0,0,0-.22.42A88.08,88.08,0,0,0,62.67,130,.47.47,0,0,0,63.09,130.3Z"/><path class="cls-6" d="M125.78,168.22s13.23,26.46,24.84,42.24a289.46,289.46,0,0,0,19.06,23.77l4.84,2.69,6.45-2.38s-12-26.87-14.8-34.53-14.86-41.42-14.86-41.42Z"/><path class="cls-6" d="M115.08,205.77c.34-14.42,1.59-28.76,5.19-42.62C111,158.21,101.1,154.09,90.78,152l.16,2.09c.38,12.27,3.18,32.88,4.85,44.3a49.69,49.69,0,0,0,5,15.7c3.27,6.29,7.88,15,10.82,19.87l.89,1.45c.07.12.11.28.25.3a2.18,2.18,0,0,0,.64-.21c.46-.16,8.21.06,9.56-.55-2.24-8.76-6-20.26-8-29.16Z"/><path class="cls-7" d="M174.56,219l-2.6,1.32-1.31.65c-3.47,1.72-7,3.45-10.27,5.36-14-13-25.34-27.08-34-44.08-.85.34-1.63.62-2.37.89-1.59.56-3,1-4.55,1.66,0,.16,0,.34,0,.51-.7,6.94-1,21-1,21s3.67,11.51,5.12,18q-2.06,1.1-4.22,2l-1.18.49a36.16,36.16,0,0,1-12.39,2.66c-2.09-3.45-5.24-8.57-7.75-12.65A34.57,34.57,0,0,1,93,202.64c-.61-5.22-1.43-12.48-2.11-19.82h0c0-.4-.07-.78-.11-1.17-.63-7-1.12-13.88-1.21-19.12,2.54-1,5-1.94,7.49-2.94l1.15-.46c3.62-1.48,7.18-3,10.73-4.49l1-.42c11.22-4.77,22.3-9.47,34.43-13C150.39,145.82,160.13,180.4,174.56,219Z"/><path class="cls-8" d="M135.25,178.42c-2.08,1-4.19,1.91-6.33,2.75-1.63.65-3.27,1.25-4.92,1.83a.76.76,0,0,1,0,.15.44.44,0,0,1-.25.27c-1.44.66-2.89,1.3-4.35,1.9-.68.29-1.37.56-2.06.83l-.41.16a77,77,0,0,0-2.09,11.56c-.18,2-.2,3.93-.27,5.91a6.78,6.78,0,0,1-.68,3l1.73,0a.56.56,0,0,1,.4,1l-1,.77a.19.19,0,0,1,0,.1q1.88,8.91,4.16,17.72l-1.18.49q-2.17-8.67-4-17.44l-.4.05a.57.57,0,0,1-.4-1l.66-.53-1.25,0a.56.56,0,0,1-.39-.95c1.18-1,1.15-2.71,1.17-4.14,0-2,.17-3.91.4-5.86a53.77,53.77,0,0,1,2.17-10.36,47.22,47.22,0,0,1-5.38,1.81c-.26.06-.44-.32-.19-.44,2-.94,4-1.7,6-2.55a.21.21,0,0,1,.11-.1c-3.59,1-7.22,1.9-10.89,2.61-.34.06-.49-.44-.15-.52,2.21-.56,4.4-1.18,6.59-1.81,2.81-.81,5.58-1.72,8.33-2.69l0,0a24.9,24.9,0,0,1-2-3.7c-.62-1.26-1.23-2.52-1.8-3.8a155.22,155.22,0,0,1-7.7-20.79l1-.42c.08.29.17.57.25.86q2.11,7.13,4.86,14c.92,2.31,1.91,4.59,2.91,6.87.5,1.13,1,2.25,1.52,3.37a26.94,26.94,0,0,1,1.49,3.35s0,0,0,.06c4.61-1.65,9.14-3.5,13.64-5.46C135.34,177,136,178.07,135.25,178.42Z"/><path class="cls-8" d="M172,220.33l-1.31.65,0,0q-2.74-5.87-5-11.91c-.77-2-1.49-4-2.2-6.07a13.28,13.28,0,0,0-2.57-5,.7.7,0,0,1-.11-.82,7,7,0,0,1,.7-1,2.88,2.88,0,0,0-1.48.08c-.72.23-1.21-.9-.52-1.23s.53-1.07.44-1.63c-.15-.91-.46-1.8-.7-2.69-.51-1.87-1-3.75-1.55-5.62-1.75-6.26-3.64-12.47-5.92-18.56a16.79,16.79,0,0,1-5.58-1.27c-6.9-2.8-11.59-8.69-15.91-14.49-.16-.23.21-.51.39-.3,1.31,1.54,2.61,3.08,4,4.59,4.48,5,9.86,9.4,16.69,10.27l-.11-.3a105.27,105.27,0,0,0-9.3-18.79c-.18-.27.24-.5.42-.25a85.32,85.32,0,0,1,6.39,10.57,130.08,130.08,0,0,1,7.93,20.36c1.09,3.49,2.1,7,3.07,10.53.49,1.74,1,3.48,1.44,5.24a5,5,0,0,1,.08,2.1,4.42,4.42,0,0,1,1.81.55.68.68,0,0,1,.13,1.06,5.54,5.54,0,0,0-1,1.05,16.4,16.4,0,0,1,2.61,5.22c1.43,4.14,3,8.24,4.74,12.26C170.26,216.76,171.1,218.55,172,220.33Z"/><path class="cls-8" d="M99.24,166.22a21.87,21.87,0,0,1-8.35,16.6c0-.4-.07-.78-.11-1.17a21.27,21.27,0,0,0,6.33-9.94,22.87,22.87,0,0,0,0-12.12c-.06-.26-.14-.53-.22-.8-.22-.74.86-1,1.13-.31l.24.65A19.8,19.8,0,0,1,99.24,166.22Z"/><path class="cls-9" d="M78.78,105.7A203.52,203.52,0,0,1,97.63,94.38c.32-.17.65-.33,1-.47a12.75,12.75,0,0,1,14.65,3.41c13.55,15.79,29.52,39.5,36.6,50.56-8.57,10.6-44.82,24.08-59.51,26A158.9,158.9,0,0,1,80.87,143C75.3,115.93,78.78,105.7,78.78,105.7Z"/><path class="cls-9" d="M90,174a160.2,160.2,0,0,1-9.51-30.88c-5.53-26.92-2.23-37.15-2.08-37.57a.41.41,0,0,1,.17-.22A204.43,204.43,0,0,1,97.42,94c.3-.16.63-.32,1-.49A13.15,13.15,0,0,1,113.59,97c16.18,18.85,34.6,47.41,36.64,50.61a.42.42,0,0,1,0,.51c-9,11.09-45.61,24.31-59.8,26.12h-.06A.44.44,0,0,1,90,174Zm23-76.4a12.24,12.24,0,0,0-14.14-3.29c-.36.15-.67.3-1,.45A206,206,0,0,0,79.15,106c-.37,1.29-3,11.92,2.16,37a161.91,161.91,0,0,0,9.31,30.4c15.38-2.08,50.22-15.5,58.7-25.51C146.57,143.57,128.68,116,112.92,97.61Z"/><path class="cls-6" d="M41.45,70.7c-.22,21.68,11.28,35.84,31.24,36.52,15.49.53,33.45-6.57,39.16-35.29,2.25-11.33,3.34-24.76-5.23-33.88C97.12,28,80.12,27,67.28,29.13c-6.14,1-12.59,3.23-16.88,8-4.71,5.2-6.78,12.47-7.87,19.24A98.77,98.77,0,0,0,41.45,70.7Z"/><path class="cls-3" d="M84.31,71.78c0,1.55.49,2.8,1.57,2.81s1.66-1.36,1.67-2.91S87,69,85.94,69,84.33,70.22,84.31,71.78Z"/><path class="cls-3" d="M52.41,71.45c0,1.56.49,2.81,1.57,2.82s1.66-1.36,1.67-2.92-.53-2.71-1.61-2.72S52.43,69.9,52.41,71.45Z"/><path class="cls-3" d="M67.14,83.52A5.18,5.18,0,0,0,69.37,83a.44.44,0,0,0,.21-.59.45.45,0,0,0-.59-.21,4.37,4.37,0,0,1-6.24-3.89.44.44,0,1,0-.88,0,5.36,5.36,0,0,0,2.47,4.39A5.31,5.31,0,0,0,67.14,83.52Z"/><path class="cls-3" d="M78.76,100.71a7.15,7.15,0,0,1-4.92,1.19c-.34-.05-.5.44-.14.53a6.74,6.74,0,0,0,5.5-1C79.64,101.13,79.23,100.4,78.76,100.71Z"/><g class="cls-10"><path class="cls-11" d="M86.48,88.05l.38.31A8.14,8.14,0,0,0,97,87.87c3.14-2.87,3.72-8.89-.34-11.32-4.68-2.79-12.1,1-12.38,6.54A6.35,6.35,0,0,0,86.48,88.05Z"/></g><g class="cls-10"><path class="cls-11" d="M55.9,83.36a6.32,6.32,0,0,1-2.15,5l-.38.31a8.12,8.12,0,0,1-7.79,1,40.41,40.41,0,0,1-3.14-11.94,5.79,5.79,0,0,1,1-.79C48.09,74.12,55.56,77.82,55.9,83.36Z"/></g><path class="cls-12" d="M81.07,88.25a4.7,4.7,0,0,0-3.48,0c-1.35.53-2.49,1.48-3.78,2.12a21.44,21.44,0,0,1-4.09,1.53,17.2,17.2,0,0,1-2.1.39c-1.83.23-3.67.24-5.48.54a1.22,1.22,0,0,0-1.09,1.27,3.59,3.59,0,0,0,.09.81C68.09,96.79,75.71,93.62,81.07,88.25Z"/><path class="cls-13" d="M81.07,88.25c-5.36,5.37-13,8.54-19.93,6.67.4,1.75,2.15,3,3.7,3.75a14,14,0,0,0,1.51.6A15,15,0,0,0,80.2,96.92a9.67,9.67,0,0,0,1.47-1.4,6.16,6.16,0,0,0,1.62-3.74A3.51,3.51,0,0,0,81.07,88.25Z"/><path class="cls-3" d="M66.21,99.69a14.08,14.08,0,0,1-1.56-.62c-1.23-.58-4.09-2.23-4-5a1.67,1.67,0,0,1,1.46-1.71c1-.17,2.11-.25,3.14-.32.77-.06,1.57-.12,2.35-.22a14.77,14.77,0,0,0,2-.38,20.9,20.9,0,0,0,4-1.49c.53-.26,1-.59,1.54-.9a13.89,13.89,0,0,1,2.28-1.24h0a5,5,0,0,1,4.65.45,4,4,0,0,1,1.65,3.5,6.55,6.55,0,0,1-1.73,4,11.19,11.19,0,0,1-1.53,1.46,15.35,15.35,0,0,1-9.42,3.21A15.1,15.1,0,0,1,66.21,99.69Zm11.54-11h0a13,13,0,0,0-2.13,1.15,17.19,17.19,0,0,1-1.62,1,22.19,22.19,0,0,1-4.16,1.56,17.21,17.21,0,0,1-2.17.4c-.8.1-1.61.16-2.4.22-1,.07-2,.15-3.06.31a.79.79,0,0,0-.72.85c0,2.22,2.46,3.64,3.54,4.15a15.32,15.32,0,0,0,1.46.58,14.5,14.5,0,0,0,13.44-2.28,10.44,10.44,0,0,0,1.4-1.33,5.79,5.79,0,0,0,1.52-3.47A3.12,3.12,0,0,0,81.57,89a3.79,3.79,0,0,0-2.18-.66A4.55,4.55,0,0,0,77.75,88.68Z"/><path class="cls-3" d="M79.16,93.25a.43.43,0,0,0,.24-.08,23.28,23.28,0,0,0,3.6-3,.44.44,0,1,0-.62-.62,23.23,23.23,0,0,1-3.47,2.84.44.44,0,0,0-.12.61A.43.43,0,0,0,79.16,93.25Z"/><path class="cls-3" d="M65.88,97.28a24.41,24.41,0,0,0,7.45-1.16c.48-.16,1-.33,1.44-.52a.44.44,0,1,0-.33-.82c-.45.18-.92.35-1.38.5a23.45,23.45,0,0,1-10.88.82A.45.45,0,1,0,62,97,24.74,24.74,0,0,0,65.88,97.28Z"/><path class="cls-14" d="M108.06,70.33h0S108,70.35,108.06,70.33Z"/><path class="cls-3" d="M108.05,70.79a.31.31,0,0,0,.13,0,.41.41,0,0,0,.28-.25.45.45,0,0,0-.12-.51.44.44,0,0,0-.51,0,.48.48,0,0,0-.2.58A.46.46,0,0,0,108.05,70.79Z"/><path class="cls-15" d="M24.91,44.8a7.81,7.81,0,0,1,9.15-6.13A10.51,10.51,0,0,1,32.65,26a10.5,10.5,0,0,1,12.11-4.05A11.1,11.1,0,0,1,65.5,15.71,10.12,10.12,0,0,1,84,11.66,13.61,13.61,0,0,1,97.76,6.87c3.29.81,6.55,3.61,6.16,7,5.21-.69,11,4.06,11.67,9.27a12.1,12.1,0,0,1,13.47,13.09c-.22,2.39-1.47,5-3.8,5.55a9,9,0,0,1,1.45,17.54,3.35,3.35,0,0,1,2.07,3.7,5.45,5.45,0,0,1-2.68,3.6,15.56,15.56,0,0,1-4.33,1.56,3.24,3.24,0,1,1-3.9,5.17l.15-.89c-1.46,1.08-3.25,3.11-5,3.51a4.55,4.55,0,0,1-4.85-1.62,4.29,4.29,0,0,1-.1-4l.32-.12a13.19,13.19,0,0,1-5-1.61,6.25,6.25,0,0,1-3-4.19A4.14,4.14,0,0,1,102.63,60,4.34,4.34,0,0,1,97.84,59a5.9,5.9,0,0,1-1.4-4.86,9.89,9.89,0,0,1,2.26-4.84,14.58,14.58,0,0,1-4.45,1.13,4.18,4.18,0,0,1-2.79-.49,2,2,0,0,1-.82-1.81,4.54,4.54,0,0,1-5.07,2.11c-2.15-.65-4-2.7-3.4-4.86a11.78,11.78,0,0,1-5.89,7.26A16.87,16.87,0,0,1,67,54.4,12.18,12.18,0,0,1,60.1,52a6.6,6.6,0,0,1-2.46-6.53A28.44,28.44,0,0,1,54,51.11a6.5,6.5,0,0,1-3.36,2.48A2.72,2.72,0,0,1,47.5,52,2.27,2.27,0,0,1,46,54.32a2,2,0,0,1-2.35-1.57q-1.54,8.72-2.37,17.53c-.11-.21-.33.29-.45.07A5.47,5.47,0,0,1,35.07,62a4.61,4.61,0,0,1-3.33-8.58A7.82,7.82,0,0,1,24.91,44.8Z"/><path class="cls-16" d="M33.52,43.9a6.48,6.48,0,0,1,3.61-2.85,4,4,0,0,1,1-.16,11,11,0,0,1-1.77-7.08A6.4,6.4,0,0,1,38.09,30a5.26,5.26,0,0,1,4.11-1.43A8.42,8.42,0,0,1,47,30.44c.24.22-.07.53-.32.42a24.59,24.59,0,0,0-2.62-1.17,7.22,7.22,0,0,0-2.57-.37,4.31,4.31,0,0,0-3.82,2.82c-1.18,3.06,0,6.65,2,9.14a2,2,0,0,1,.8,1c.19.51-.54.88-.88.52s-.44-.48-.65-.74a3,3,0,0,0-2,.21,5.53,5.53,0,0,0-2.56,2.34,3.44,3.44,0,0,0-.11,3.25,3,3,0,0,0,2.66,1.7c.68,0,.64.94,0,1a3.77,3.77,0,0,1-3.62-2.17A4.59,4.59,0,0,1,33.52,43.9Z"/><path class="cls-16" d="M83.86,37.1c.62,1.29,1.55,3.35,3.3,3.18,1.55-.15,2.52-2.25,2.85-3.55a.52.52,0,0,1,1,0c.66,1.9,2.3,4.21,4.49,4.38,2.44.18,3.64-2.49,4.55-4.29a.22.22,0,0,1,.41.17c-.73,2.29-2.19,5.19-5,5-2.15-.14-3.83-1.85-4.83-3.72-.62,1.46-1.72,2.91-3.27,3.1-2.3.28-3.63-1.91-4.39-3.72C82.65,37,83.54,36.46,83.86,37.1Z"/><path class="cls-16" d="M49.77,38.89c.37,1.82,2.52,2.22,4,1.45,1.8-1,2.64-2.92,3.4-4.7.22-.5.91-.27,1,.14,1.12,3.07,3.34,6.49,6.87,6.94,4.21.53,7.37-3,8.68-6.59.12-.31.61-.18.5.14-1,3.14-3.07,6-6.31,7.1a7.64,7.64,0,0,1-8.29-2.71,14.46,14.46,0,0,1-2-3.28c-.89,1.82-2,3.57-4,4.29S49,41.42,48.7,39.18C48.61,38.5,49.63,38.17,49.77,38.89Z"/><path class="cls-16" d="M109.45,45.48a.26.26,0,0,1,.26.45,7.65,7.65,0,0,0-3.83,5.83,5.34,5.34,0,0,0,.67,3,3.46,3.46,0,0,0,1.08,1.14,2.12,2.12,0,0,0,1.08.39,6,6,0,0,1,.53-.34c.38-.22,1,.25.65.64a1.53,1.53,0,0,1-.71.53,3.27,3.27,0,0,0-1.45,2A1.91,1.91,0,0,0,109,61.29c.61.16.34,1-.26.94a2.68,2.68,0,0,1-2-2.94,3.76,3.76,0,0,1,1.1-2.24,3.83,3.83,0,0,1-1.31-.84,5.49,5.49,0,0,1-1.5-3.56A7.51,7.51,0,0,1,109.45,45.48Z"/><path class="cls-16" d="M102.31,24.06c1.39-1.11,3-2.24,4.8-2.3A4.55,4.55,0,0,1,111,23.84a9.47,9.47,0,0,1,1.52,4.28,7.29,7.29,0,0,1,0,1.55,6.5,6.5,0,0,1,5.07-.77,6.64,6.64,0,0,1,4.77,5.61c.13,1.29-.29,2.86-1.64,3.31-.29.1-.44-.32-.2-.47,1.25-.78,1.24-2.49.85-3.74a5.88,5.88,0,0,0-2.59-3.27,5.64,5.64,0,0,0-6.65.85,3,3,0,0,1-1,1.16c-.56.42-1-.43-.68-.88.1-.14.21-.26.32-.39a4.18,4.18,0,0,0,.5-3,8.25,8.25,0,0,0-1.23-3.51,3.31,3.31,0,0,0-3-1.64c-1.51.14-2.85,1.21-4,2.08C102.49,25.36,101.8,24.47,102.31,24.06Z"/><path class="cls-17" d="M81.11,61.79s6-2.55,9.2,4.67c.12.29.39.12.37-.23-.17-2.27-1-6.9-4.81-7.89-6-1.56-4.76,3.45-4.76,3.45"/><path class="cls-17" d="M59.05,61.79s-6-2.55-9.19,4.67c-.13.29-.4.12-.38-.23.17-2.27,1-6.9,4.81-7.89,6-1.56,4.76,3.45,4.76,3.45"/><circle class="cls-18" cx="82.4" cy="72.37" r="5.76"/><path class="cls-3" d="M87.27,73.73a3.8,3.8,0,0,1-4,4.14,4,4,0,0,1-4.37-4.12c0-2.25,1.37-4,4.17-4A3.84,3.84,0,0,1,87.27,73.73Z"/><circle class="cls-19" cx="81" cy="70.63" r="1.82"/><circle class="cls-18" cx="57.2" cy="71.82" r="5.76"/><path class="cls-3" d="M62.07,73.17A3.8,3.8,0,0,1,58,77.31a4,4,0,0,1-4.36-4.12c-.06-2.24,1.37-3.94,4.17-4A3.84,3.84,0,0,1,62.07,73.17Z"/><circle class="cls-19" cx="55.79" cy="70.08" r="1.82"/><path class="cls-20" d="M104.61,82.75c-.25,3.55,1.68,5.54,6.28,5.6s8.79-3.24,8.91-7.62c.09-3.35-1.36-7.6-6-7.66S105,77.63,104.61,82.75Z"/><path class="cls-3" d="M110.86,88.63h-.13a9.32,9.32,0,0,1-4-.82.36.36,0,0,1,.33-.64,8.44,8.44,0,0,0,3.73.75h.12c4.5,0,8.23-3.21,8.34-7.2A8,8,0,0,0,117.35,75a5,5,0,0,0-3.7-1.51,8.3,8.3,0,0,0-6.24,3.16.35.35,0,0,1-.5,0,.36.36,0,0,1,0-.5,9.06,9.06,0,0,1,6.79-3.41,5.7,5.7,0,0,1,4.2,1.72,8.9,8.9,0,0,1,2,6.23C119.79,85.11,115.74,88.63,110.86,88.63Z"/><path class="cls-21" d="M112.67,76.87A15.24,15.24,0,0,0,111,78.59c-.4.48-.77,1.17-.33,1.63s1.13.34,1.44.76-.07,1-.58,1.27-1.12.29-1.64.51a2.08,2.08,0,0,0-1.3,1.7,1.17,1.17,0,0,0,.15.73,1.67,1.67,0,0,0,1.89.52,4.44,4.44,0,0,0,1.69-1.17,14.39,14.39,0,0,0,2.78-3.49c1-2,1.59-7.7-2.41-4.18"/><path class="cls-22" d="M126.56,240.57h-18.3a32,32,0,0,0-.42-7c-1.22.08-3.79.44-5,2-1.66,2.11-.68,9-.68,9l24.58-.47Z"/><path class="cls-3" d="M101.57,244.68c-.1-.73-1-7.17.8-9.41,1.35-1.71,4-2.12,5.43-2.22a.57.57,0,0,1,.59.43,24.74,24.74,0,0,1,.43,5.76V240h17.74a.57.57,0,0,1,.57.54l.14,3.55a.55.55,0,0,1-.15.41.57.57,0,0,1-.4.18l-24.58.47h0A.56.56,0,0,1,101.57,244.68ZM126,241.13H108.26a.56.56,0,0,1-.56-.56v-1.33a26.46,26.46,0,0,0-.31-5c-1.18.13-3.17.52-4.14,1.75-1.14,1.45-.88,5.92-.63,8.05l23.5-.45Z"/><path class="cls-23" d="M108.26,240.57h18.3l-.28-7-14.41-.4s.33-4.07-2.11-4.1-1.25,4.54-1.25,4.54l-.67,0A32,32,0,0,1,108.26,240.57Z"/><path class="cls-3" d="M108.26,241.13a.56.56,0,0,1-.56-.56v-1.33a24.08,24.08,0,0,0-.41-5.5.57.57,0,0,1,.09-.46.56.56,0,0,1,.42-.23h0c-.19-1-.38-2.86.4-3.86a1.92,1.92,0,0,1,1.54-.71,2.3,2.3,0,0,1,1.7.75,5.32,5.32,0,0,1,1,3.38l13.85.37a.58.58,0,0,1,.55.54l.28,7a.57.57,0,0,1-.16.41.57.57,0,0,1-.41.17Zm0-.56Zm3.6-6.85a.56.56,0,0,1-.55-.61,4.92,4.92,0,0,0-.69-3.12,1.16,1.16,0,0,0-.87-.38h0a.72.72,0,0,0-.62.27c-.54.69-.32,2.55,0,3.57a.58.58,0,0,1-.11.49.54.54,0,0,1-.42.21,28,28,0,0,1,.29,5.09V240H126l-.24-5.91Z"/><path class="cls-3" d="M117,237.2a2.89,2.89,0,1,0,2.8-2.47A2.66,2.66,0,0,0,117,237.2Z"/><path class="cls-22" d="M182.08,239.59H165.25a29.42,29.42,0,0,0-.39-6.4c-1.12.07-3.48.4-4.63,1.85-1.52,1.94-.62,8.25-.62,8.25l22.6-.43Z"/><path class="cls-3" d="M159.1,243.37c-.1-.67-.89-6.6.73-8.65,1.24-1.58,3.66-2,5-2.05a.52.52,0,0,1,.54.4,23,23,0,0,1,.41,5.3v.7h16.31a.52.52,0,0,1,.52.5l.13,3.27a.59.59,0,0,1-.14.38.52.52,0,0,1-.37.16l-22.6.43h0A.51.51,0,0,1,159.1,243.37Zm22.48-3.26H165.25a.53.53,0,0,1-.52-.51v-1.22a24.79,24.79,0,0,0-.28-4.62c-1.09.11-2.92.48-3.81,1.61-1,1.33-.81,5.44-.58,7.4l21.61-.41Z"/><path class="cls-23" d="M165.25,239.59h16.83l-.26-6.46-13.25-.36s.3-3.75-1.95-3.78-1.14,4.18-1.14,4.18a5.71,5.71,0,0,0-.62,0A29.42,29.42,0,0,1,165.25,239.59Z"/><path class="cls-3" d="M165.25,240.1a.53.53,0,0,1-.52-.51v-1.22a22,22,0,0,0-.38-5.06.54.54,0,0,1,.09-.43.52.52,0,0,1,.38-.21h0c-.17-.93-.35-2.62.37-3.55a1.75,1.75,0,0,1,1.42-.65,2.13,2.13,0,0,1,1.56.69,4.89,4.89,0,0,1,.91,3.1l12.73.35a.52.52,0,0,1,.51.5l.26,6.46a.54.54,0,0,1-.15.38.51.51,0,0,1-.37.16Zm0-.52Zm3.3-6.29a.58.58,0,0,1-.37-.17.56.56,0,0,1-.13-.39,4.58,4.58,0,0,0-.63-2.87,1,1,0,0,0-.8-.35.65.65,0,0,0-.59.25c-.49.63-.29,2.35-.05,3.28a.53.53,0,0,1-.1.45.53.53,0,0,1-.39.2,26.16,26.16,0,0,1,.28,4.68v.7h15.77l-.22-5.44Z"/><path class="cls-3" d="M173.25,236.49a2.66,2.66,0,1,0,2.57-2.27A2.44,2.44,0,0,0,173.25,236.49Z"/><path class="cls-6" d="M23.71,119.37c-2.61.13-6.24.43-7.81.29a7.16,7.16,0,0,1-3.08-.77,2,2,0,0,1-1-2.51,2.9,2.9,0,0,1,1.74-1.19c1.42-.49,5.75-.79,9.12-.9a1.51,1.51,0,0,1,.13-.33c-2.79-.34-6.14-.89-7.08-1.56-.69-.49-1.43-1.2-1.28-2,.49-2.5,14.69-1.52,19.3-1.13-1.23-3-3.92-5.8-3.18-8.89a2.59,2.59,0,0,1,2.3-2.16c1.55-.36,1.38-.33,2.23.91a32.8,32.8,0,0,1,2.55,5.27c.66,1.44,4.64,6.39,6.08,7.89,6.33,2.68,12.67,5.59,19,8.23,1.84.38,3.67.76,5.47,1.11l3.42-1.75c7.83-4,15.93-8.16,24.13-11.65a.49.49,0,0,1,.64.2c1.85,3.57,3.58,7.2,5.25,10.72s3.38,7.14,5.23,10.69a.41.41,0,0,1,0,.36.48.48,0,0,1-.27.27c-7.51,3-15.26,5.81-23,8.2a53.38,53.38,0,0,1-5.95,1.57,21.35,21.35,0,0,1-5.35.38c-4-.26-7.68-1.95-11.41-3.8l-3.18-1.58c-6.7-3.32-14.18-7-20.48-10.55-7,2.4-15.73,6.43-17.55,4.54-.91-.94-.3-1.94.7-2.76.83-.68,5.42-2.16,7.7-2.81-2.71.68-8.07,1.75-9.9,1.56a3.24,3.24,0,0,1-2.55-1.2,1.9,1.9,0,0,1,.79-2.38,6.65,6.65,0,0,1,2.78-.89c.71-.11,3.5-.57,5.28-1l-.32-.14A2.82,2.82,0,0,1,23.71,119.37Z"/><path class="cls-5" d="M72.17,119.33a101.7,101.7,0,0,0,13.24,23.42c7.87-3.15,15.25-7.89,22.08-12.91,15.6-11.49,6.08-27.65.73-29.93C104.42,98.29,93.5,97.14,72.17,119.33Z"/><path class="cls-3" d="M85.51,143.4a.41.41,0,0,0,.21-.05c7.9-4.15,14.48-7.94,20.92-13a.54.54,0,0,0,.1-.72.46.46,0,0,0-.67-.11,132.12,132.12,0,0,1-20.42,12.7,103.27,103.27,0,0,1-12.08-22.69c14.89-16.36,24.28-19.81,29.54-19.81a.52.52,0,0,0,0-1h0c-5.47,0-15.2,3.55-30.45,20.37a.55.55,0,0,0-.1.55A104,104,0,0,0,85.12,143.2.49.49,0,0,0,85.51,143.4Z"/></svg>