<svg id="Layer_1" data-name="Layer 1" xmlns="http://www.w3.org/2000/svg" viewBox="0 0 598 342.89"><defs><style>.cls-1{opacity:0.2;}.cls-2{fill:#ffc7c7;}.cls-3{fill:#472113;}.cls-4{fill:#ff9c9c;}.cls-5{fill:#1185cc;}.cls-6{fill:#36b3f2;stroke:#144f66;}.cls-15,.cls-16,.cls-6,.cls-9{stroke-miterlimit:10;}.cls-7{fill:#21d8b4;}.cls-8{fill:#ff4e00;}.cls-9{fill:#f9beac;stroke:#560f1d;stroke-width:0.5px;}.cls-10{fill:#ff8b00;}.cls-11{opacity:0.4;}.cls-12{fill:#231f20;}.cls-13{fill:#fff;}.cls-14{fill:#6fa31c;}.cls-15{fill:#f7e669;}.cls-15,.cls-16{stroke:#685f0e;}.cls-16{fill:#e2cd07;}</style></defs><path class="cls-1" d="M531.69,265H411.19l-13.38,10.39-22.55-19.56H79.3L29.78,294.29l247.49,3.17H396.32a8.36,8.36,0,0,0-2.72,5.78c0,8.57,17,15.52,37.94,15.52,16.8,0,31-4.47,36-10.66,11.34-2.24,19.05-6.48,19.33-11.36h81.32Z"/><polygon class="cls-2" points="251.49 284.08 387.06 282.62 390.8 143.73 242.4 145.34 251.49 284.08"/><path class="cls-3" d="M251.49,284.49a.4.4,0,0,1-.4-.38L242,145.36a.38.38,0,0,1,.11-.3.39.39,0,0,1,.29-.13l148.41-1.6a.36.36,0,0,1,.29.12.41.41,0,0,1,.12.3l-3.75,138.88a.41.41,0,0,1-.4.4L251.5,284.49Zm-8.66-138.75,9,137.93,134.79-1.45,3.72-138.07Z"/><polygon class="cls-4" points="249.79 137.47 385.36 136.97 390.85 144.71 242.44 145.25 249.79 137.47"/><path class="cls-3" d="M242.44,145.39a.7.7,0,0,1-.32-.06c-.08,0-.1-.08-.06-.12l7.35-7.79a.63.63,0,0,1,.38-.09l135.56-.5h0a.57.57,0,0,1,.39.1l5.49,7.74s0,.09-.07.12a.93.93,0,0,1-.32.05l-148.4.55Zm7.65-7.79L243,145.11l147.33-.54L385,137.11Z"/><polygon class="cls-4" points="261.88 274.1 376.7 272.86 379.87 155.22 254.17 156.58 261.88 274.1"/><path class="cls-3" d="M261.88,274.5a.41.41,0,0,1-.41-.38l-7.7-117.51a.45.45,0,0,1,.1-.31.48.48,0,0,1,.3-.13l125.69-1.35a.45.45,0,0,1,.3.12.36.36,0,0,1,.11.29L377.1,272.87a.39.39,0,0,1-.4.39L261.88,274.5ZM254.61,157l7.65,116.71,114-1.24,3.15-116.82Z"/><polygon class="cls-5" points="92.36 285.79 231.4 284.18 235.38 145.28 83.17 147.05 92.36 285.79"/><path class="cls-3" d="M92.36,286.19a.38.38,0,0,1-.38-.37L82.79,147.08a.45.45,0,0,1,.1-.31.37.37,0,0,1,.28-.13l152.21-1.76a.37.37,0,0,1,.28.12.41.41,0,0,1,.1.3l-4,138.89a.38.38,0,0,1-.37.39l-139,1.61ZM83.58,147.45l9.13,137.93L231,283.77l4-138.07Z"/><polygon class="cls-6" points="91.14 141.92 230.18 141.57 235.79 146.6 83.58 147 91.14 141.92"/><polygon class="cls-7" points="103.02 275.79 220.79 274.42 224.16 156.79 95.24 158.28 103.02 275.79"/><path class="cls-3" d="M103,276.2a.4.4,0,0,1-.38-.38L94.86,158.31A.45.45,0,0,1,95,158a.37.37,0,0,1,.27-.13l128.93-1.49a.47.47,0,0,1,.27.12.46.46,0,0,1,.11.3l-3.37,117.64a.4.4,0,0,1-.38.39L103,276.2ZM95.64,158.68l7.73,116.7,117-1.36,3.35-116.82Z"/><polygon class="cls-8" points="179.33 146.47 326.17 145.25 330.23 28.7 169.48 30.05 179.33 146.47"/><path class="cls-3" d="M179.33,146.82a.41.41,0,0,1-.44-.32L169,30.07a.3.3,0,0,1,.11-.26.58.58,0,0,1,.32-.1l160.75-1.35a.55.55,0,0,1,.32.1.34.34,0,0,1,.13.25l-4.06,116.55a.42.42,0,0,1-.44.33l-146.84,1.23ZM170,30.38l9.79,115.75,146-1.22,4-115.86Z"/><polygon class="cls-9" points="177.44 24.52 323.37 24.21 329.28 28.9 169.53 29.23 177.44 24.52"/><path class="cls-3" d="M169.52,29.31a1.69,1.69,0,0,1-.35,0c-.08,0-.11-.05-.06-.08L177,24.49a.94.94,0,0,1,.41-.06l145.93-.3a1.1,1.1,0,0,1,.43.06l5.92,4.69s0,.05-.08.07a1.69,1.69,0,0,1-.35,0l-159.75.33Zm8.24-4.71-7.63,4.54,158.6-.33L323,24.3Z"/><polygon class="cls-10" points="190.58 138.09 314.95 137.05 318.38 38.34 182.23 39.48 190.58 138.09"/><path class="cls-3" d="M190.58,138.44a.41.41,0,0,1-.44-.32L181.79,39.5a.33.33,0,0,1,.12-.25.5.5,0,0,1,.32-.11L318.38,38a.64.64,0,0,1,.32.1.3.3,0,0,1,.12.25l-3.43,98.71a.4.4,0,0,1-.44.33l-124.37,1.05ZM182.7,39.82,191,137.75l123.53-1,3.41-98Z"/><g class="cls-11"><path class="cls-12" d="M148.33,230.11a14.73,14.73,0,0,1-.65-1.65,17.85,17.85,0,0,1-.42-1.86A15.64,15.64,0,0,1,136.41,231a11.93,11.93,0,0,1-4.58-.87,11.39,11.39,0,0,1-3.69-2.41,10.26,10.26,0,0,1-2.42-3.69,13,13,0,0,1-.85-4.81c0-1.95,0-3.76.16-5.43s.18-3.27.23-4.81,0-3.06,0-4.6-.18-3.15-.39-4.87H135.1c.16,1.56.25,3.07.27,4.52s0,2.88,0,4.31-.07,2.88-.15,4.35-.12,3-.12,4.69a7.29,7.29,0,0,0,.48,2.93,3.37,3.37,0,0,0,1.25,1.55,3.65,3.65,0,0,0,1.56.59,10.6,10.6,0,0,0,1.36.1,8.43,8.43,0,0,0,1.64-.27,5.52,5.52,0,0,0,2.33-1.31,8.86,8.86,0,0,0,2-3,13.53,13.53,0,0,0,.88-5.38v-13h10.23v20.81a32.81,32.81,0,0,0,.46,5.43,16.92,16.92,0,0,0,1.23,4.39Z"/><path class="cls-12" d="M203,213.37a22.78,22.78,0,0,1-1.07,7.15,16.9,16.9,0,0,1-3,5.57,13.64,13.64,0,0,1-4.67,3.61,14,14,0,0,1-6,1.27,13.77,13.77,0,0,1-4-.5,12.05,12.05,0,0,1-3.45-1.84V252.3H170V208.92c0-.52,0-1.13-.11-1.83s-.18-1.44-.31-2.22-.28-1.54-.46-2.32a15,15,0,0,0-.66-2.14h10.43a7.19,7.19,0,0,1,.56,1.39,16.36,16.36,0,0,1,.32,2,16.56,16.56,0,0,1,4.64-3.29,13,13,0,0,1,5.31-1,14.12,14.12,0,0,1,5.41,1,12,12,0,0,1,4.2,2.81,12.78,12.78,0,0,1,2.7,4.41A15.84,15.84,0,0,1,203,213.37ZM192.79,215a6.49,6.49,0,0,0-1.53-4.6,5.46,5.46,0,0,0-4.22-1.65,6.24,6.24,0,0,0-5,2.1,8.34,8.34,0,0,0-1.83,5.66v4.15a8.49,8.49,0,0,0,5.45,1.9,6.84,6.84,0,0,0,5.19-2A7.75,7.75,0,0,0,192.79,215Z"/></g><path class="cls-13" d="M146.5,227.89a13.31,13.31,0,0,1-.66-1.65,18.48,18.48,0,0,1-.42-1.86,15.64,15.64,0,0,1-10.85,4.37,11.7,11.7,0,0,1-4.57-.88,11.53,11.53,0,0,1-3.69-2.4,10.28,10.28,0,0,1-2.43-3.69A13.16,13.16,0,0,1,123,217q0-2.92.15-5.43c.1-1.67.18-3.28.23-4.81s0-3.07,0-4.6-.18-3.16-.38-4.88h10.23c.15,1.57.24,3.08.27,4.52s0,2.89,0,4.32-.08,2.87-.16,4.34-.11,3-.11,4.69a7.35,7.35,0,0,0,.48,2.94,3.41,3.41,0,0,0,1.24,1.55,3.89,3.89,0,0,0,1.56.59,10.6,10.6,0,0,0,1.36.1,8.08,8.08,0,0,0,1.65-.28,5.44,5.44,0,0,0,2.32-1.31,8.8,8.8,0,0,0,2-3,13.58,13.58,0,0,0,.88-5.39v-13H155v20.82a33,33,0,0,0,.47,5.43,16.17,16.17,0,0,0,1.23,4.39Z"/><path class="cls-13" d="M201.18,211.14a22.69,22.69,0,0,1-1.07,7.15,16.8,16.8,0,0,1-3,5.57,13.43,13.43,0,0,1-4.67,3.61,15.27,15.27,0,0,1-10,.78A12.24,12.24,0,0,1,179,226.4v23.67H168.19V206.69a16.69,16.69,0,0,0-.12-1.83c-.08-.7-.18-1.44-.31-2.21s-.28-1.55-.46-2.32a17,17,0,0,0-.65-2.15h10.42a6.66,6.66,0,0,1,.56,1.4,14.26,14.26,0,0,1,.32,2,16.29,16.29,0,0,1,4.64-3.29,13,13,0,0,1,5.31-1,14.37,14.37,0,0,1,5.42,1,12.1,12.1,0,0,1,4.19,2.82,12.9,12.9,0,0,1,2.71,4.4A16.14,16.14,0,0,1,201.18,211.14ZM191,212.74a6.51,6.51,0,0,0-1.53-4.61,5.48,5.48,0,0,0-4.21-1.64,6.26,6.26,0,0,0-5,2.1,8.33,8.33,0,0,0-1.82,5.66v4.14a8.42,8.42,0,0,0,5.44,1.91,6.81,6.81,0,0,0,5.19-2A7.72,7.72,0,0,0,191,212.74Z"/><g class="cls-11"><path class="cls-12" d="M306.56,190.44a4,4,0,0,1-1.68,3.26,6.8,6.8,0,0,1-8.12,0,4.4,4.4,0,0,1-1.75-3.36,4,4,0,0,1,1.61-3.35,7,7,0,0,1,6.4-1,5.67,5.67,0,0,1,1.82,1,5.09,5.09,0,0,1,1.25,1.55A4.07,4.07,0,0,1,306.56,190.44Zm-11,41V199.27h9.73v32.17Z"/><path class="cls-12" d="M337.12,231.44V213.19a7.52,7.52,0,0,0-.47-3,4.28,4.28,0,0,0-1.13-1.59,2.91,2.91,0,0,0-1.39-.63,7.83,7.83,0,0,0-1.25-.11,7.13,7.13,0,0,0-1.53.28,5.33,5.33,0,0,0-2.23,1.34,9,9,0,0,0-2,3.1,14.14,14.14,0,0,0-.88,5.5v13.32H316.5V210.18a36.75,36.75,0,0,0-.43-5.55,18.67,18.67,0,0,0-1.17-4.48h9.72a13.81,13.81,0,0,1,.62,1.68c.12.44.26,1.07.4,1.9a15.17,15.17,0,0,1,5-3.36,14.48,14.48,0,0,1,5.44-1.1,10.65,10.65,0,0,1,4.27.86,10.19,10.19,0,0,1,3.4,2.38,11.11,11.11,0,0,1,2.26,3.77,14.72,14.72,0,0,1,.82,5v20.14Z"/></g><path class="cls-13" d="M302.37,189.49a4,4,0,0,1-1.68,3.26,6.79,6.79,0,0,1-8.11,0,4.37,4.37,0,0,1-1.76-3.35,4,4,0,0,1,1.61-3.36,6.55,6.55,0,0,1,4.24-1.36,6.46,6.46,0,0,1,2.16.37,5.67,5.67,0,0,1,1.82,1,5.09,5.09,0,0,1,1.25,1.55A4.07,4.07,0,0,1,302.37,189.49Zm-11,41V198.32h9.72v32.17Z"/><path class="cls-13" d="M332.93,230.49V212.24a7.34,7.34,0,0,0-.47-3,4.28,4.28,0,0,0-1.13-1.59,2.91,2.91,0,0,0-1.39-.63,9.21,9.21,0,0,0-1.25-.11,7.13,7.13,0,0,0-1.53.28,5.33,5.33,0,0,0-2.23,1.34,9,9,0,0,0-2,3.1,14.14,14.14,0,0,0-.88,5.5v13.32h-9.72V209.23a36.79,36.79,0,0,0-.44-5.55,18.67,18.67,0,0,0-1.17-4.48h9.72a13.81,13.81,0,0,1,.62,1.68c.12.44.26,1.07.41,1.9a15,15,0,0,1,5-3.36,14.48,14.48,0,0,1,5.44-1.1,10.65,10.65,0,0,1,4.27.86,10.19,10.19,0,0,1,3.4,2.38,11.11,11.11,0,0,1,2.26,3.77,14.72,14.72,0,0,1,.82,5v20.14Z"/><g class="cls-11"><path d="M252.51,86.32a18.33,18.33,0,0,1-1.18,6.81,13.77,13.77,0,0,1-3.37,5,14.53,14.53,0,0,1-5.24,3.09,22.35,22.35,0,0,1-13.54,0,14.53,14.53,0,0,1-5.24-3.09,14.09,14.09,0,0,1-3.4-5,19.47,19.47,0,0,1,0-13.46,13.69,13.69,0,0,1,8.57-8,23,23,0,0,1,13.65,0,14.39,14.39,0,0,1,5.24,3,13.36,13.36,0,0,1,3.37,4.95A18.22,18.22,0,0,1,252.51,86.32Zm-9.58,0A7.17,7.17,0,0,0,241,81a7.08,7.08,0,0,0-5.2-1.9,6.68,6.68,0,0,0-5.12,1.9,7.52,7.52,0,0,0-1.78,5.34,7.94,7.94,0,0,0,1.74,5.5,6.57,6.57,0,0,0,5.16,1.94,7,7,0,0,0,5.28-1.9A7.68,7.68,0,0,0,242.93,86.32Z"/><path d="M282.17,102.26v-18a7.28,7.28,0,0,0-.47-2.91,4,4,0,0,0-1.12-1.57,2.84,2.84,0,0,0-1.36-.62,8.63,8.63,0,0,0-1.23-.1,7.37,7.37,0,0,0-1.51.27,5.35,5.35,0,0,0-2.2,1.32,9.2,9.2,0,0,0-2,3.06,14.06,14.06,0,0,0-.86,5.41v13.12h-9.57V81.32a35.43,35.43,0,0,0-.44-5.46,17.34,17.34,0,0,0-1.15-4.41h9.58a13.35,13.35,0,0,1,.61,1.65c.12.43.25,1.06.4,1.87a15,15,0,0,1,4.93-3.31,14.28,14.28,0,0,1,5.36-1.08,10.43,10.43,0,0,1,4.2.84,10.05,10.05,0,0,1,3.35,2.35,10.76,10.76,0,0,1,2.22,3.71,14.3,14.3,0,0,1,.81,4.94v19.84Z"/></g><path class="cls-13" d="M248.55,86.32a18.13,18.13,0,0,1-1.18,6.81,13.64,13.64,0,0,1-3.37,5,14.45,14.45,0,0,1-5.24,3.09,22.35,22.35,0,0,1-13.54,0A14.4,14.4,0,0,1,220,98.12a14,14,0,0,1-3.41-5,19.4,19.4,0,0,1,0-13.46,13.78,13.78,0,0,1,3.33-5,14.08,14.08,0,0,1,5.23-3.09,23,23,0,0,1,13.65,0,14.31,14.31,0,0,1,5.24,3,13.24,13.24,0,0,1,3.37,4.95A18,18,0,0,1,248.55,86.32Zm-9.57,0A7.17,7.17,0,0,0,237,81a7.07,7.07,0,0,0-5.2-1.9,6.68,6.68,0,0,0-5.12,1.9,7.52,7.52,0,0,0-1.78,5.34,7.94,7.94,0,0,0,1.74,5.5,6.57,6.57,0,0,0,5.16,1.94,7,7,0,0,0,5.28-1.9A7.64,7.64,0,0,0,239,86.32Z"/><path class="cls-13" d="M278.21,102.26v-18a7.28,7.28,0,0,0-.47-2.91,4.14,4.14,0,0,0-1.11-1.57,2.92,2.92,0,0,0-1.37-.62,8.63,8.63,0,0,0-1.23-.1,7.48,7.48,0,0,0-1.51.27,5.26,5.26,0,0,0-2.19,1.32,8.9,8.9,0,0,0-2,3.06,13.86,13.86,0,0,0-.87,5.41v13.12h-9.57V81.32a36.69,36.69,0,0,0-.43-5.46,17.72,17.72,0,0,0-1.16-4.41h9.58a13.35,13.35,0,0,1,.61,1.65c.12.43.25,1.06.4,1.87a15.07,15.07,0,0,1,4.93-3.31,14.28,14.28,0,0,1,5.36-1.08,10.43,10.43,0,0,1,4.2.84,10.05,10.05,0,0,1,3.35,2.35A10.76,10.76,0,0,1,287,77.48a14.3,14.3,0,0,1,.81,4.94v19.84Z"/><path class="cls-14" d="M415.42,117.49l7.78,154.63,116-1.64,3.2-154.78ZM478.78,242.2c-18.16,0-32.87-19.18-32.87-42.83s14.71-42.83,32.87-42.83,32.87,19.18,32.87,42.83S496.94,242.2,478.78,242.2Z"/><path class="cls-3" d="M422.82,272.15,415,117.52a.57.57,0,0,1,.1-.37.34.34,0,0,1,.28-.16l126.94-1.79h0a.33.33,0,0,1,.27.15.59.59,0,0,1,.11.36l-3.2,154.79c0,.27-.17.48-.38.48l-116,1.64h0A.45.45,0,0,1,422.82,272.15ZM542,116.2,415.83,118l7.73,153.63L538.79,270Zm-96.45,83.17c0-23.89,14.92-43.33,33.26-43.33S512,175.48,512,199.37s-14.92,43.33-33.26,43.33S445.52,223.26,445.52,199.37Zm.77,0c0,23.34,14.57,42.33,32.49,42.33s32.49-19,32.49-42.33S496.69,157,478.78,157,446.29,176,446.29,199.37Z"/><polygon class="cls-15" points="421.75 109.17 537.71 108.65 542.41 116.85 415.46 117.43 421.75 109.17"/><path class="cls-15" d="M415.15,117.52c-.07,0-.09-.09,0-.14l6.28-8.25a.48.48,0,0,1,.36-.12l116-.53a.47.47,0,0,1,.37.13l4.7,8.2s0,.1-.07.14a.64.64,0,0,1-.3.06l-126.94.58h0A.71.71,0,0,1,415.15,117.52Zm122.26-8.71L422,109.34l-6,7.92,125.93-.57Z"/><path class="cls-16" d="M533.29,128.15A.35.35,0,0,0,533,128h0l-107.52,1.52a.34.34,0,0,0-.28.16.57.57,0,0,0-.1.37l6.59,131a.44.44,0,0,0,.38.46h0l98.22-1.38a.44.44,0,0,0,.37-.48l2.72-131.11A.64.64,0,0,0,533.29,128.15Z"/><g class="cls-11"><path class="cls-12" d="M472.73,212.38a12.68,12.68,0,0,1-.56-1.52c-.11-.4-.23-1-.36-1.72a13,13,0,0,1-9.33,4,9.61,9.61,0,0,1-3.94-.81,9.82,9.82,0,0,1-3.17-2.22,9.43,9.43,0,0,1-2.08-3.41,12.78,12.78,0,0,1-.73-4.45c0-1.8,0-3.47.13-5s.15-3,.2-4.44,0-2.83,0-4.25-.16-2.92-.33-4.51h8.8c.13,1.45.2,2.84.23,4.18s0,2.67,0,4-.07,2.65-.14,4-.09,2.81-.09,4.34a7.11,7.11,0,0,0,.41,2.71,3,3,0,0,0,1.07,1.43,3.16,3.16,0,0,0,1.34.55,9.28,9.28,0,0,0,1.17.09,6.48,6.48,0,0,0,1.41-.25,4.62,4.62,0,0,0,2-1.21,8.18,8.18,0,0,0,1.76-2.81,13.5,13.5,0,0,0,.76-5V184.07h8.79v19.24a33.58,33.58,0,0,0,.4,5,16.12,16.12,0,0,0,1.06,4Z"/><path class="cls-12" d="M511.89,205.11a8.36,8.36,0,0,1-2.8,6.61q-2.8,2.44-7.88,2.45a33,33,0,0,1-6.71-.66,19.76,19.76,0,0,1-5.3-1.79l1.13-6.75q5.75,3,10.05,3a2.86,2.86,0,0,0,2.08-.63,2,2,0,0,0,.63-1.42,2.54,2.54,0,0,0-.49-1.62,7.45,7.45,0,0,0-2.42-1.55,39.16,39.16,0,0,1-4.66-2.39,15.48,15.48,0,0,1-3.18-2.48,8.37,8.37,0,0,1-1.78-2.74,9,9,0,0,1-.56-3.31,7.45,7.45,0,0,1,3.19-6.45,14.09,14.09,0,0,1,8.36-2.28,25.42,25.42,0,0,1,4.93.43,23,23,0,0,1,4.94,1.69l-1.06,6.68a15.76,15.76,0,0,0-4.55-1.82,20.37,20.37,0,0,0-4.34-.5,3,3,0,0,0-2.11.56,2,2,0,0,0-.57,1.49,2.17,2.17,0,0,0,.91,1.82,18.53,18.53,0,0,0,3.52,1.82,41.46,41.46,0,0,1,4,2.28,14.45,14.45,0,0,1,2.71,2.25,7,7,0,0,1,1.49,2.45A8.7,8.7,0,0,1,511.89,205.11Z"/></g><path class="cls-13" d="M468.84,211.52a11.4,11.4,0,0,1-.57-1.52c-.11-.39-.23-1-.36-1.72a13,13,0,0,1-9.33,4,9.53,9.53,0,0,1-3.93-.81,9.71,9.71,0,0,1-3.18-2.22,9.57,9.57,0,0,1-2.08-3.41,12.77,12.77,0,0,1-.73-4.44c0-1.81,0-3.48.13-5s.16-3,.2-4.44.05-2.83,0-4.25-.15-2.92-.33-4.51h8.8c.13,1.45.21,2.84.23,4.18s0,2.67,0,4-.07,2.65-.13,4-.1,2.81-.1,4.34a7.32,7.32,0,0,0,.41,2.71,3.08,3.08,0,0,0,1.07,1.43,3.21,3.21,0,0,0,1.34.55,9.28,9.28,0,0,0,1.17.09,6.64,6.64,0,0,0,1.42-.25,4.65,4.65,0,0,0,2-1.21,8,8,0,0,0,1.76-2.81,13.27,13.27,0,0,0,.76-5V183.21h8.8v19.24a33.54,33.54,0,0,0,.39,5,16.43,16.43,0,0,0,1.06,4.05Z"/><path class="cls-13" d="M508,204.25a8.31,8.31,0,0,1-2.8,6.61c-1.87,1.63-4.49,2.45-7.88,2.45a33.06,33.06,0,0,1-6.71-.66,19.68,19.68,0,0,1-5.29-1.79l1.12-6.74q5.76,3,10.05,3a2.89,2.89,0,0,0,2.09-.63,2,2,0,0,0,.63-1.42,2.55,2.55,0,0,0-.5-1.62,7.45,7.45,0,0,0-2.42-1.55,41.63,41.63,0,0,1-4.66-2.38,15.15,15.15,0,0,1-3.17-2.49,8.24,8.24,0,0,1-1.79-2.74,9.22,9.22,0,0,1-.56-3.31,7.44,7.44,0,0,1,3.2-6.45,14.05,14.05,0,0,1,8.35-2.28,26.23,26.23,0,0,1,4.93.43,22.8,22.8,0,0,1,4.94,1.69L506.46,191a15.7,15.7,0,0,0-4.54-1.82,20.53,20.53,0,0,0-4.35-.5,3,3,0,0,0-2.11.57,2,2,0,0,0-.56,1.48,2.19,2.19,0,0,0,.9,1.82,18.38,18.38,0,0,0,3.53,1.82,43.38,43.38,0,0,1,4,2.28,14.13,14.13,0,0,1,2.71,2.25,7.25,7.25,0,0,1,1.5,2.45A9,9,0,0,1,508,204.25Z"/></svg>