<svg id="Layer_1" data-name="Layer 1" xmlns="http://www.w3.org/2000/svg" viewBox="0 0 50 30"><defs><style>.cls-1{fill:#3d2d17;}.cls-2,.cls-4{fill:#fff7f4;}.cls-2{stroke:#9e5643;stroke-miterlimit:10;stroke-width:0.75px;}.cls-3{fill:#472113;}</style></defs><path class="cls-1" d="M35.88,10.09s6-2.54,9.19,4.68c.13.29.4.12.37-.23-.16-2.28-1-6.9-4.8-7.89-6-1.56-4.76,3.44-4.76,3.44"/><path class="cls-1" d="M14.51,7.31S8.22,4.77,4.94,12c-.13.29-.41.12-.38-.23.17-2.28,1-6.9,5-7.89,6.29-1.56,5,3.44,5,3.44"/><circle class="cls-2" cx="37.16" cy="20.68" r="5.76"/><path class="cls-3" d="M42,22A3.81,3.81,0,0,1,38,26.18a4,4,0,0,1-4.36-4.13c-.06-2.24,1.37-3.94,4.17-4A3.85,3.85,0,0,1,42,22Z"/><circle class="cls-4" cx="35.76" cy="18.94" r="1.82"/><circle class="cls-2" cx="11.96" cy="20.13" r="5.76"/><path class="cls-3" d="M16.83,21.48a3.8,3.8,0,0,1-4,4.14A4,4,0,0,1,8.41,21.5c-.05-2.25,1.37-3.94,4.18-4A3.83,3.83,0,0,1,16.83,21.48Z"/><circle class="cls-4" cx="10.56" cy="18.38" r="1.82"/></svg>