<svg id="Layer_1" data-name="Layer 1" xmlns="http://www.w3.org/2000/svg" viewBox="0 0 60 40"><defs><style>.cls-1{fill:#3d2d17;}.cls-2,.cls-4{fill:#fff7f4;}.cls-2{stroke:#9e5643;stroke-miterlimit:10;stroke-width:0.75px;}.cls-3{fill:#472113;}.cls-5{fill:#ea985d;}.cls-6{fill:#3a1b07;}</style></defs><path class="cls-1" d="M12,15.27s-7.8,1.11-8.49,11.25c0,.41-.4.4-.51,0-.72-2.65-1.63-8.35,2.29-12,6.18-5.71,6.71.73,6.71.73"/><ellipse class="cls-2" cx="15.49" cy="28.39" rx="7.41" ry="6.86" transform="translate(-0.36 0.2) rotate(-0.73)"/><path class="cls-3" d="M22,28.73c.67,2.61-.48,5.06-4,5.85s-5.94-1.09-6.62-3.69.66-4.95,4.17-5.74S21.31,26.13,22,28.73Z"/><ellipse class="cls-4" cx="12.39" cy="27.21" rx="2.35" ry="2.17" transform="translate(-0.35 0.16) rotate(-0.73)"/><path class="cls-1" d="M44.48,8.71s7.6-2,12.74,7c.2.36.54.21.45-.21-.52-2.69-2.22-8.23-7.4-10-8.16-2.81-5.79,3.25-5.79,3.25"/><ellipse class="cls-2" cx="47.09" cy="22.02" rx="7.41" ry="6.86" transform="translate(-0.28 0.61) rotate(-0.73)"/><path class="cls-3" d="M41.33,24.84c.54,2.63,2.68,4.42,6.22,3.79s4.92-3.28,4.38-5.91-2.8-4.25-6.34-3.62S40.79,22.2,41.33,24.84Z"/><ellipse class="cls-4" cx="43.83" cy="20.08" rx="2.35" ry="2.17" transform="translate(-0.25 0.56) rotate(-0.73)"/><ellipse class="cls-5" cx="15.49" cy="28.39" rx="7.41" ry="6.86" transform="translate(-0.36 0.2) rotate(-0.73)"/><ellipse class="cls-5" cx="47.09" cy="22.02" rx="7.41" ry="6.86" transform="translate(-0.28 0.61) rotate(-0.73)"/><path class="cls-6" d="M9.36,32.62a6.78,6.78,0,0,0,3.46,2,9,9,0,0,0,3.93,0A10.08,10.08,0,0,0,20.38,33,7,7,0,0,0,23,30a5.77,5.77,0,0,1-2.09,3.69A9,9,0,0,1,17,35.56a8.28,8.28,0,0,1-4.36-.2A5.59,5.59,0,0,1,9.36,32.62Z"/><path class="cls-6" d="M41,26.52a6.6,6.6,0,0,0,3.46,2,9,9,0,0,0,3.93,0A10.16,10.16,0,0,0,52,26.93a7,7,0,0,0,2.57-3.07,5.79,5.79,0,0,1-2.09,3.69,9,9,0,0,1-3.9,1.91,8.18,8.18,0,0,1-4.36-.2A5.56,5.56,0,0,1,41,26.52Z"/></svg>