<svg id="Layer_1" data-name="Layer 1" xmlns="http://www.w3.org/2000/svg" viewBox="0 0 230 250"><defs><style>.cls-1{fill:#b97556;}.cls-1,.cls-5{stroke:#662f1e;}.cls-1,.cls-15,.cls-5,.cls-6,.cls-8{stroke-miterlimit:10;}.cls-2{opacity:0.2;}.cls-3{fill:#5eaab7;}.cls-4{fill:#991414;}.cls-17,.cls-5{fill:#ea9678;}.cls-6{fill:#2ccddd;stroke:#0b4a51;}.cls-7{fill:#0b4a51;}.cls-8{fill:#f43434;stroke:#8c1818;}.cls-9{fill:#472113;}.cls-10{opacity:0.25;}.cls-11,.cls-18{fill:#ad2409;}.cls-12{fill:#d3dddd;}.cls-13{fill:#fff;}.cls-14{fill:#77442d;}.cls-15{fill:#351407;stroke:#1c0a04;}.cls-16{fill:#281008;}.cls-18{opacity:0.39;}.cls-19{fill:#e6efef;}.cls-20{fill:#e94a23;}</style></defs><path class="cls-1" d="M15.38,106.55c-2.61.12-6.25.42-7.81.28a7.11,7.11,0,0,1-3.08-.76,2,2,0,0,1-1-2.52,3,3,0,0,1,1.75-1.19c1.41-.49,5.74-.79,9.12-.89a1.4,1.4,0,0,1,.13-.34c-2.8-.33-6.15-.89-7.09-1.56-.68-.49-1.43-1.19-1.27-2,.49-2.49,14.68-1.51,19.3-1.13-1.24-3-3.92-5.79-3.18-8.89a2.56,2.56,0,0,1,2.3-2.15c1.54-.37,1.37-.34,2.23.91a33.56,33.56,0,0,1,2.55,5.26c.65,1.44,4.64,6.39,6.07,7.9,6.33,2.67,12.67,5.58,19,8.22,1.83.39,3.66.76,5.47,1.11l3.41-1.75c7.84-4,15.94-8.16,24.14-11.65a.51.51,0,0,1,.64.21c1.85,3.56,3.57,7.2,5.24,10.71s3.39,7.14,5.23,10.69a.41.41,0,0,1,0,.36.51.51,0,0,1-.27.27c-7.52,3-15.26,5.81-23,8.21a54.8,54.8,0,0,1-5.94,1.56,21,21,0,0,1-5.36.39c-4-.27-7.68-2-11.4-3.81l-3.18-1.57c-6.71-3.32-14.19-7-20.48-10.55-7,2.39-15.73,6.42-17.56,4.53-.9-.94-.3-1.94.7-2.76.83-.68,5.43-2.16,7.71-2.8-2.71.67-8.08,1.75-9.9,1.55a3.22,3.22,0,0,1-2.55-1.2,1.91,1.91,0,0,1,.79-2.38,6.45,6.45,0,0,1,2.77-.88c.72-.12,3.5-.58,5.28-1l-.31-.14A3.14,3.14,0,0,1,15.38,106.55Z"/><path class="cls-2" d="M186.41,220.13a98,98,0,0,0-25,4.08c-7.39-2.41-18-3.67-29.83-3.16-21.94.95-39.47,7.67-39.15,15s18.36,12.52,40.3,11.57a98,98,0,0,0,25-4.09c7.39,2.41,18,3.67,29.82,3.16,21.94-.94,39.47-7.66,39.15-15S208.34,219.18,186.41,220.13Z"/><path class="cls-3" d="M66.68,102.89a88,88,0,0,0,4.91,22.73,87.46,87.46,0,0,0,21.54-5c15.83-5.47,12.12-21.26,8.29-24.51C98.7,93.8,90,90.05,66.68,102.89Z"/><path class="cls-4" d="M98.18,94.41c-4.68-1.45-14-1.19-31.5,8.48a88,88,0,0,0,4.91,22.73,122,122,0,0,0,21.54-5C109,115.16,98.18,94.41,98.18,94.41Z"/><path class="cls-4" d="M71.59,126.06h.07a124,124,0,0,0,21.62-5,.44.44,0,0,0,.27-.56.45.45,0,0,0-.56-.28,121.59,121.59,0,0,1-21.1,4.92,87.25,87.25,0,0,1-4.75-22c17.22-9.44,26.31-9.73,30.91-8.31a.43.43,0,0,0,.55-.29.44.44,0,0,0-.29-.55c-4.79-1.48-14.19-1.21-31.84,8.51a.44.44,0,0,0-.23.42,88.09,88.09,0,0,0,4.94,22.85A.43.43,0,0,0,71.59,126.06Z"/><path class="cls-5" d="M134.29,164s13.23,26.46,24.83,42.24A291.5,291.5,0,0,0,178.18,230l4.85,2.68,6.45-2.38s-12-26.86-14.81-34.52-14.85-41.43-14.85-41.43Z"/><path class="cls-5" d="M123.59,201.54c.33-14.42,1.59-28.76,5.18-42.62-9.3-4.95-19.16-9.07-29.49-11.16l.16,2.09c.39,12.26,3.18,32.88,4.85,44.3a49.57,49.57,0,0,0,5.06,15.69c3.26,6.29,7.88,15,10.82,19.88l.88,1.45c.08.12.11.27.26.29s.48-.15.64-.21c.45-.15,8.21.06,9.55-.54-2.24-8.77-6-20.27-8-29.17Z"/><path class="cls-6" d="M183.07,214.78l-2.6,1.31-1.32.66c-3.46,1.72-7,3.45-10.27,5.36-14-13-25.33-27.08-34-44.08-.85.33-1.64.61-2.38.88-1.58.57-3,1-4.54,1.67q0,.24-.06.51c-.7,6.94-1,21-1,21s3.67,11.51,5.12,18c-1.37.73-2.78,1.4-4.21,2-.39.17-.79.33-1.19.48a36.35,36.35,0,0,1-12.38,2.67c-2.09-3.45-5.24-8.58-7.76-12.65a34.6,34.6,0,0,1-4.93-14.16c-.62-5.22-1.44-12.48-2.11-19.82h0c0-.39-.08-.78-.11-1.17-.63-6.95-1.13-13.88-1.21-19.11q3.8-1.44,7.49-2.94l1.14-.47q5.43-2.22,10.73-4.49l1-.42c11.22-4.76,22.29-9.46,34.43-13C158.89,141.59,168.64,176.17,183.07,214.78Z"/><path class="cls-7" d="M143.75,174.19c-2.07,1-4.18,1.9-6.32,2.75q-2.44,1-4.93,1.82a.38.38,0,0,1,0,.15.45.45,0,0,1-.25.28c-1.44.66-2.89,1.3-4.35,1.9-.68.29-1.36.56-2,.83l-.41.16a74.21,74.21,0,0,0-2.09,11.55c-.19,2-.2,3.94-.28,5.91a6.92,6.92,0,0,1-.67,3l1.73,0c.45,0,.78.65.39,1l-1,.76a.54.54,0,0,1,0,.11q1.86,8.91,4.16,17.72c-.39.17-.79.33-1.19.48q-2.16-8.67-4-17.43l-.39,0a.57.57,0,0,1-.4-1l.65-.52-1.24,0a.55.55,0,0,1-.39-.94c1.18-1,1.14-2.71,1.17-4.15,0-2,.17-3.91.39-5.85a53.61,53.61,0,0,1,2.17-10.36,44.68,44.68,0,0,1-5.38,1.8c-.26.07-.44-.31-.19-.43,2-.94,4-1.71,6-2.55a.22.22,0,0,1,.1-.11q-5.39,1.55-10.89,2.62c-.34.06-.49-.44-.14-.53,2.2-.56,4.4-1.17,6.59-1.8q4.2-1.23,8.33-2.69s0,0,0,0a23.19,23.19,0,0,1-2-3.7c-.62-1.26-1.23-2.53-1.81-3.8a156.74,156.74,0,0,1-7.7-20.8l1-.42c.07.29.16.58.25.87q2.11,7.13,4.86,14c.91,2.31,1.9,4.6,2.9,6.88.5,1.13,1,2.25,1.53,3.37a27,27,0,0,1,1.48,3.35.11.11,0,0,1,0,0c4.61-1.65,9.15-3.49,13.65-5.45C143.84,172.76,144.5,173.83,143.75,174.19Z"/><path class="cls-7" d="M180.47,216.09l-1.32.66s0,0,0,0c-1.83-3.91-3.51-7.89-5-11.91q-1.16-3-2.2-6.08a13.31,13.31,0,0,0-2.58-5,.71.71,0,0,1-.1-.82,6.81,6.81,0,0,1,.7-1,2.92,2.92,0,0,0-1.49.09c-.72.22-1.21-.91-.51-1.23s.53-1.07.43-1.63a24.7,24.7,0,0,0-.7-2.69q-.76-2.82-1.54-5.62c-1.76-6.26-3.64-12.48-5.92-18.56a17.09,17.09,0,0,1-5.59-1.27c-6.89-2.81-11.58-8.69-15.9-14.5-.17-.22.2-.51.39-.29,1.3,1.54,2.6,3.08,3.95,4.58,4.49,5,9.86,9.4,16.7,10.28l-.12-.3a105,105,0,0,0-9.3-18.8c-.18-.27.24-.5.42-.24a82.25,82.25,0,0,1,6.39,10.57,128.76,128.76,0,0,1,7.94,20.36c1.08,3.49,2.09,7,3.07,10.53.48,1.74,1,3.48,1.43,5.23a5,5,0,0,1,.09,2.1,4.35,4.35,0,0,1,1.8.56.68.68,0,0,1,.14,1.06,5.33,5.33,0,0,0-1,1,15.9,15.9,0,0,1,2.61,5.22c1.44,4.14,3,8.24,4.74,12.26C178.77,212.53,179.61,214.31,180.47,216.09Z"/><path class="cls-7" d="M107.75,162a21.86,21.86,0,0,1-4.25,12.36,22.2,22.2,0,0,1-4.1,4.23c0-.39-.08-.78-.11-1.17a21.15,21.15,0,0,0,6.32-9.94,22.83,22.83,0,0,0,0-12.11c-.07-.27-.15-.54-.22-.8-.23-.74.86-1,1.12-.31.09.21.17.42.24.64A19.83,19.83,0,0,1,107.75,162Z"/><path class="cls-8" d="M87.28,101.47a206.28,206.28,0,0,1,18.85-11.33c.32-.17.65-.32,1-.46a12.75,12.75,0,0,1,14.65,3.41c13.55,15.78,29.53,39.5,36.61,50.55-8.58,10.61-44.83,24.09-59.51,26a157.77,157.77,0,0,1-9.48-30.79C83.81,111.69,87.28,101.47,87.28,101.47Z"/><path class="cls-8" d="M98.45,169.78A161.46,161.46,0,0,1,89,138.89c-5.53-26.91-2.23-37.14-2.09-37.56a.44.44,0,0,1,.17-.23,207.12,207.12,0,0,1,18.89-11.35c.31-.16.64-.32,1-.48A13.13,13.13,0,0,1,122.1,92.8c16.18,18.85,34.59,47.41,36.64,50.6a.45.45,0,0,1,0,.52c-9,11.09-45.6,24.31-59.8,26.11h0A.45.45,0,0,1,98.45,169.78Zm23-76.41a12.28,12.28,0,0,0-14.15-3.29c-.35.16-.66.3-.94.45a202.52,202.52,0,0,0-18.68,11.22c-.37,1.29-3,11.92,2.15,37a161.82,161.82,0,0,0,9.32,30.4c15.37-2.08,50.21-15.5,58.69-25.5C155.08,139.34,137.18,111.73,121.43,93.37Z"/><path class="cls-5" d="M50,66.47C49.74,88.14,61.24,102.31,81.19,103c15.5.52,33.46-6.57,39.16-35.3,2.26-11.32,3.34-24.76-5.23-33.87-9.49-10.09-26.49-11.09-39.34-8.93-6.13,1-12.59,3.24-16.88,8C54.19,38.05,52.12,45.33,51,52.1A97.39,97.39,0,0,0,50,66.47Z"/><path class="cls-9" d="M75.65,79.29a5.21,5.21,0,0,0,2.23-.49.45.45,0,0,0,.21-.59A.44.44,0,0,0,77.5,78a4.37,4.37,0,0,1-6.24-3.9.45.45,0,0,0-.45-.43.44.44,0,0,0-.44.45,5.38,5.38,0,0,0,2.48,4.38A5.29,5.29,0,0,0,75.65,79.29Z"/><path class="cls-9" d="M87.27,96.47a7.16,7.16,0,0,1-4.92,1.19c-.35,0-.5.45-.15.54a6.77,6.77,0,0,0,5.5-1C88.14,96.89,87.73,96.17,87.27,96.47Z"/><g class="cls-10"><path class="cls-11" d="M95,83.82l.37.3a8.13,8.13,0,0,0,10.14-.49c3.14-2.87,3.71-8.89-.34-11.31-4.68-2.8-12.11,1-12.38,6.53A6.35,6.35,0,0,0,95,83.82Z"/></g><g class="cls-10"><path class="cls-11" d="M64.41,79.13a6.36,6.36,0,0,1-2.16,5c-.12.11-.24.22-.37.32a8.15,8.15,0,0,1-7.79,1,40.72,40.72,0,0,1-3.15-11.94,5.43,5.43,0,0,1,1-.79C56.6,69.89,64.06,73.58,64.41,79.13Z"/></g><path class="cls-12" d="M89.57,84a4.7,4.7,0,0,0-3.48,0c-1.34.52-2.49,1.48-3.78,2.12a20.43,20.43,0,0,1-4.08,1.52,15.37,15.37,0,0,1-2.11.4c-1.82.23-3.66.24-5.48.53a1.23,1.23,0,0,0-1.08,1.28,3.1,3.1,0,0,0,.08.81C76.6,92.56,84.22,89.39,89.57,84Z"/><path class="cls-13" d="M89.57,84c-5.35,5.38-13,8.55-19.93,6.68.4,1.75,2.16,3,3.7,3.75.5.23,1,.42,1.51.6A15,15,0,0,0,88.7,92.69a10.76,10.76,0,0,0,1.47-1.4,6.11,6.11,0,0,0,1.62-3.74A3.52,3.52,0,0,0,89.57,84Z"/><path class="cls-9" d="M74.71,95.45a15.92,15.92,0,0,1-1.56-.61c-1.23-.58-4.08-2.23-4-5a1.67,1.67,0,0,1,1.46-1.7c1.05-.17,2.11-.25,3.14-.33.78,0,1.58-.11,2.36-.21a17.13,17.13,0,0,0,2.05-.38,20.84,20.84,0,0,0,4-1.5,16,16,0,0,0,1.55-.9,13.36,13.36,0,0,1,2.27-1.23h0a5,5,0,0,1,4.65.44,4,4,0,0,1,1.66,3.5,6.67,6.67,0,0,1-1.73,4A11.28,11.28,0,0,1,89,93a15.32,15.32,0,0,1-9.42,3.2A15.15,15.15,0,0,1,74.71,95.45Zm11.54-11h0a12.6,12.6,0,0,0-2.12,1.16,18.48,18.48,0,0,1-1.62.94,21.36,21.36,0,0,1-4.17,1.56,18.51,18.51,0,0,1-2.16.41c-.8.1-1.62.16-2.4.21-1,.08-2.06.16-3.07.32a.79.79,0,0,0-.71.85c0,2.22,2.46,3.64,3.53,4.15a15.32,15.32,0,0,0,1.46.58,14.53,14.53,0,0,0,13.44-2.28A9.4,9.4,0,0,0,89.83,91a5.69,5.69,0,0,0,1.52-3.47,3.11,3.11,0,0,0-1.28-2.75,3.75,3.75,0,0,0-2.17-.65A4.55,4.55,0,0,0,86.25,84.44Z"/><path class="cls-9" d="M87.66,89a.45.45,0,0,0,.25-.07,24.9,24.9,0,0,0,3.6-3,.45.45,0,0,0-.63-.63,23,23,0,0,1-3.46,2.84.45.45,0,0,0-.13.62A.47.47,0,0,0,87.66,89Z"/><path class="cls-9" d="M74.39,93.05a24.17,24.17,0,0,0,7.45-1.17c.48-.15,1-.32,1.43-.51a.44.44,0,1,0-.32-.82c-.46.18-.92.34-1.38.49a23.47,23.47,0,0,1-10.88.83.44.44,0,0,0-.51.37.43.43,0,0,0,.36.5A23.62,23.62,0,0,0,74.39,93.05Z"/><path class="cls-14" d="M116.56,66.09v0S116.52,66.12,116.56,66.09Z"/><path class="cls-9" d="M116.55,66.55l.14,0a.45.45,0,1,0-.35-.82.48.48,0,0,0-.21.58A.47.47,0,0,0,116.55,66.55Z"/><path class="cls-15" d="M33.41,40.57a7.82,7.82,0,0,1,9.16-6.13,10.48,10.48,0,0,1-1.41-12.69,10.46,10.46,0,0,1,12.1-4.05A11.11,11.11,0,0,1,74,11.47a10.1,10.1,0,0,1,18.52-4,13.61,13.61,0,0,1,13.73-4.8c3.3.82,6.56,3.61,6.16,7,5.21-.69,11,4.07,11.67,9.28A12.1,12.1,0,0,1,137.56,32c-.21,2.38-1.46,5-3.79,5.55a9.27,9.27,0,0,1,7.93,8.18,9.27,9.27,0,0,1-6.49,9.36,3.34,3.34,0,0,1,2.07,3.7,5.42,5.42,0,0,1-2.67,3.59,15,15,0,0,1-4.34,1.56,3.24,3.24,0,1,1-3.9,5.18l.16-.89c-1.47,1.07-3.26,3.1-5,3.5a4.55,4.55,0,0,1-4.84-1.61,4.26,4.26,0,0,1-.11-4l.33-.13a12.74,12.74,0,0,1-5-1.61,6.22,6.22,0,0,1-3-4.18,4.15,4.15,0,0,1,2.25-4.39,4.34,4.34,0,0,1-4.79-1.07,5.85,5.85,0,0,1-1.4-4.86A9.93,9.93,0,0,1,107.2,45a14.52,14.52,0,0,1-4.44,1.13,4.12,4.12,0,0,1-2.79-.5,2,2,0,0,1-.82-1.81A4.56,4.56,0,0,1,94.07,46c-2.14-.64-4-2.7-3.39-4.86a11.77,11.77,0,0,1-5.89,7.27,17,17,0,0,1-9.33,1.79,12.19,12.19,0,0,1-6.86-2.4,6.62,6.62,0,0,1-2.45-6.54,28.6,28.6,0,0,1-3.64,5.64,6.42,6.42,0,0,1-3.37,2.48A2.7,2.7,0,0,1,56,47.73a2.28,2.28,0,0,1-1.48,2.36,2,2,0,0,1-2.35-1.57q-1.56,8.71-2.37,17.53c-.12-.22-.34.28-.45.07a5.47,5.47,0,0,1-5.78-8.32,4.6,4.6,0,0,1-3.32-8.58A7.82,7.82,0,0,1,33.41,40.57Z"/><path class="cls-16" d="M42,39.67a6.53,6.53,0,0,1,3.61-2.86,4,4,0,0,1,1-.15,11,11,0,0,1-1.78-7.09,6.44,6.44,0,0,1,1.71-3.85,5.25,5.25,0,0,1,4.1-1.42,8.32,8.32,0,0,1,4.84,1.91c.24.22-.06.53-.32.41a22.53,22.53,0,0,0-2.61-1.16A7.25,7.25,0,0,0,50,25.09a4.29,4.29,0,0,0-3.82,2.82c-1.18,3.05,0,6.65,2,9.14A2,2,0,0,1,49,38c.2.51-.53.88-.88.52s-.44-.49-.65-.74a3,3,0,0,0-2,.2,5.59,5.59,0,0,0-2.56,2.34,3.41,3.41,0,0,0-.1,3.25,3,3,0,0,0,2.65,1.71c.68,0,.64.94,0,1a3.75,3.75,0,0,1-3.62-2.16A4.62,4.62,0,0,1,42,39.67Z"/><path class="cls-16" d="M92.36,32.87c.63,1.28,1.55,3.34,3.31,3.17,1.54-.14,2.51-2.25,2.85-3.54a.52.52,0,0,1,1,0c.66,1.9,2.29,4.21,4.49,4.37,2.44.19,3.64-2.48,4.54-4.29a.23.23,0,0,1,.42.18c-.74,2.29-2.2,5.18-5,5-2.15-.14-3.83-1.86-4.82-3.72-.62,1.46-1.73,2.91-3.28,3.1-2.3.28-3.63-1.92-4.39-3.72C91.16,32.79,92.05,32.23,92.36,32.87Z"/><path class="cls-16" d="M58.28,34.65c.37,1.83,2.51,2.23,4,1.46,1.8-1,2.63-2.93,3.4-4.7.21-.5.9-.28,1,.14C67.81,34.62,70,38,73.57,38.49c4.2.53,7.37-3,8.68-6.59.11-.31.6-.19.5.13-1,3.14-3.07,6-6.31,7.1a7.64,7.64,0,0,1-8.29-2.71,14.07,14.07,0,0,1-2-3.28c-.88,1.83-2,3.57-4,4.29s-4.54-.24-4.86-2.48C57.11,34.26,58.13,33.94,58.28,34.65Z"/><path class="cls-16" d="M118,41.25c.3-.13.56.26.26.44a7.71,7.71,0,0,0-3.83,5.84,5.23,5.23,0,0,0,.68,3,3.57,3.57,0,0,0,1.07,1.15,2.24,2.24,0,0,0,1.08.38l.53-.34c.38-.22,1,.25.65.65a1.46,1.46,0,0,1-.71.52,3.33,3.33,0,0,0-1.45,2,1.91,1.91,0,0,0,1.28,2.15c.62.16.35,1-.26.93a2.65,2.65,0,0,1-2-2.93,3.64,3.64,0,0,1,1.09-2.24A4.06,4.06,0,0,1,115,52a5.47,5.47,0,0,1-1.5-3.56A7.51,7.51,0,0,1,118,41.25Z"/><path class="cls-16" d="M110.81,19.83c1.39-1.11,3-2.24,4.81-2.31a4.59,4.59,0,0,1,3.85,2.08A9.28,9.28,0,0,1,121,23.88a7.39,7.39,0,0,1,0,1.56,6.5,6.5,0,0,1,5.07-.77,6.63,6.63,0,0,1,4.76,5.61c.14,1.29-.29,2.85-1.64,3.31-.28.1-.44-.32-.19-.47,1.24-.78,1.23-2.49.85-3.74a5.87,5.87,0,0,0-2.6-3.27,5.64,5.64,0,0,0-6.65.85,3,3,0,0,1-.94,1.16c-.57.42-1.05-.43-.69-.89.1-.13.21-.26.32-.38a4.18,4.18,0,0,0,.5-3,8.34,8.34,0,0,0-1.23-3.52,3.28,3.28,0,0,0-3-1.63c-1.51.14-2.84,1.21-4,2.08C111,21.13,110.3,20.24,110.81,19.83Z"/><path class="cls-17" d="M113.11,78.52c-.24,3.54,1.69,5.54,6.28,5.6s8.8-3.25,8.92-7.62c.09-3.35-1.37-7.6-6-7.66S113.46,73.4,113.11,78.52Z"/><path class="cls-9" d="M119.37,84.39h-.13a9.15,9.15,0,0,1-4-.82.34.34,0,0,1-.16-.47.35.35,0,0,1,.48-.16,8.63,8.63,0,0,0,3.73.74h.13c4.5,0,8.23-3.2,8.34-7.19a8.1,8.1,0,0,0-1.85-5.72,5.05,5.05,0,0,0-3.7-1.5,8.21,8.21,0,0,0-6.24,3.16.36.36,0,0,1-.5,0,.35.35,0,0,1,0-.5,9,9,0,0,1,6.79-3.41,5.7,5.7,0,0,1,4.2,1.72c1.95,2,2.08,5,2,6.23C128.3,80.88,124.25,84.39,119.37,84.39Z"/><path class="cls-18" d="M121.17,72.64a15.06,15.06,0,0,0-1.68,1.71c-.41.48-.78,1.18-.34,1.63s1.13.34,1.45.76-.07,1-.58,1.28-1.12.28-1.65.51a2.07,2.07,0,0,0-1.3,1.7,1.24,1.24,0,0,0,.15.73,1.69,1.69,0,0,0,1.9.51,4.22,4.22,0,0,0,1.68-1.17,14.48,14.48,0,0,0,2.79-3.49c1-2,1.59-7.69-2.42-4.17"/><path class="cls-19" d="M135.07,236.34h-18.3a32.6,32.6,0,0,0-.43-7c-1.22.08-3.78.44-5,2-1.66,2.11-.68,9-.68,9l24.58-.47Z"/><path class="cls-9" d="M110.08,240.44c-.11-.72-1-7.17.79-9.4,1.35-1.71,4-2.13,5.44-2.22a.55.55,0,0,1,.58.43,25.26,25.26,0,0,1,.44,5.76v.76h17.74a.56.56,0,0,1,.56.54l.14,3.56a.53.53,0,0,1-.15.41.6.6,0,0,1-.4.18l-24.58.47h0A.56.56,0,0,1,110.08,240.44Zm24.45-3.54H116.77a.57.57,0,0,1-.57-.56V235a26.56,26.56,0,0,0-.31-5c-1.17.13-3.16.53-4.13,1.76-1.15,1.45-.89,5.91-.63,8l23.49-.45Z"/><path class="cls-20" d="M116.77,236.33h18.3l-.28-7-14.41-.39s.32-4.08-2.12-4.11-1.25,4.55-1.25,4.55a6.66,6.66,0,0,0-.67,0A32.6,32.6,0,0,1,116.77,236.33Z"/><path class="cls-9" d="M116.77,236.9a.57.57,0,0,1-.57-.56V235a24,24,0,0,0-.41-5.49.61.61,0,0,1,.1-.47.56.56,0,0,1,.41-.22h0c-.19-1-.38-2.85.41-3.86a1.93,1.93,0,0,1,1.54-.7A2.28,2.28,0,0,1,120,225a5.33,5.33,0,0,1,1,3.37l13.84.38a.56.56,0,0,1,.55.54l.28,7a.56.56,0,0,1-.56.59Zm0-.57h0Zm3.6-6.85a.55.55,0,0,1-.4-.18.56.56,0,0,1-.15-.42,5,5,0,0,0-.68-3.12,1.11,1.11,0,0,0-.88-.38h0a.69.69,0,0,0-.62.27c-.54.69-.32,2.55-.06,3.56a.57.57,0,0,1-.53.71,28.88,28.88,0,0,1,.3,5.09v.76h17.15l-.24-5.91Z"/><path class="cls-9" d="M125.46,233a2.89,2.89,0,1,0,2.81-2.47A2.67,2.67,0,0,0,125.46,233Z"/><path class="cls-19" d="M190.58,235.35H173.76a30,30,0,0,0-.4-6.39c-1.12.07-3.48.4-4.62,1.85-1.53,1.93-.63,8.25-.63,8.25l22.61-.43Z"/><path class="cls-9" d="M167.6,239.13c-.1-.67-.89-6.59.73-8.65,1.25-1.57,3.67-1.95,5-2a.53.53,0,0,1,.54.4,23.46,23.46,0,0,1,.4,5.29v.7h16.31a.52.52,0,0,1,.52.49l.13,3.28a.48.48,0,0,1-.14.37.5.5,0,0,1-.36.16l-22.61.44h0A.52.52,0,0,1,167.6,239.13Zm22.49-3.26H173.76a.51.51,0,0,1-.52-.51c0-.41,0-.82,0-1.23a24.9,24.9,0,0,0-.28-4.62c-1.08.12-2.91.49-3.8,1.62-1.05,1.33-.82,5.44-.58,7.4l21.61-.41Z"/><path class="cls-20" d="M173.76,235.35h16.82l-.26-6.46-13.25-.35s.3-3.76-1.94-3.78-1.15,4.17-1.15,4.17-.24,0-.62,0A30,30,0,0,1,173.76,235.35Z"/><path class="cls-9" d="M173.76,235.87a.51.51,0,0,1-.52-.51c0-.41,0-.82,0-1.23a22.6,22.6,0,0,0-.37-5.06.52.52,0,0,1,.47-.63h0c-.17-.93-.34-2.63.38-3.55a1.71,1.71,0,0,1,1.41-.65,2.07,2.07,0,0,1,1.56.69,4.89,4.89,0,0,1,.92,3.1l12.73.35a.51.51,0,0,1,.5.49l.26,6.46a.49.49,0,0,1-.14.38.51.51,0,0,1-.38.16Zm0-.52h0Zm3.31-6.3a.48.48,0,0,1-.37-.17.5.5,0,0,1-.14-.39,4.53,4.53,0,0,0-.63-2.87,1,1,0,0,0-.8-.34.65.65,0,0,0-.58.24c-.5.64-.3,2.35-.06,3.28a.54.54,0,0,1-.09.46.51.51,0,0,1-.39.19,27.17,27.17,0,0,1,.27,4.68v.7H190l-.21-5.44Z"/><path class="cls-9" d="M181.75,232.25a2.66,2.66,0,1,0,2.58-2.27A2.44,2.44,0,0,0,181.75,232.25Z"/></svg>