<svg id="Layer_1" data-name="Layer 1" xmlns="http://www.w3.org/2000/svg" viewBox="0 0 50 30"><defs><style>.cls-1{fill:#3d2d17;}.cls-2,.cls-4{fill:#fff7f4;}.cls-2{stroke:#9e5643;stroke-miterlimit:10;stroke-width:0.75px;}.cls-3{fill:#472113;}.cls-5{fill:#bf6b60;}.cls-6{fill:#2d0805;}</style></defs><path class="cls-1" d="M36,8.8s6-2.54,9.19,4.68c.13.29.4.12.38-.23-.17-2.28-1-6.9-4.81-7.89C34.71,3.8,36,8.8,36,8.8"/><circle class="cls-2" cx="37.28" cy="19.39" r="5.76"/><path class="cls-3" d="M42.15,20.75a3.8,3.8,0,0,1-4.06,4.13,4,4,0,0,1-4.36-4.12c-.06-2.24,1.37-3.94,4.17-4A3.84,3.84,0,0,1,42.15,20.75Z"/><circle class="cls-4" cx="35.87" cy="17.65" r="1.82"/><circle class="cls-2" cx="12.07" cy="18.83" r="5.76"/><path class="cls-3" d="M17,20.19a3.81,3.81,0,0,1-4.06,4.14,4,4,0,0,1-4.37-4.12c0-2.25,1.37-3.94,4.18-4A3.84,3.84,0,0,1,17,20.19Z"/><circle class="cls-4" cx="10.67" cy="17.09" r="1.82"/><circle class="cls-5" cx="37.28" cy="19.39" r="5.76"/><circle class="cls-5" cx="12.07" cy="18.83" r="5.76"/><path class="cls-6" d="M6.62,20.69A5.22,5.22,0,0,0,8.8,23.31,5.89,5.89,0,0,0,12,24a6.34,6.34,0,0,0,5.55-3.48,4.67,4.67,0,0,1-1.89,3.19A6.54,6.54,0,0,1,12.07,25,5.76,5.76,0,0,1,8.37,24,4.4,4.4,0,0,1,6.62,20.69Z"/><path class="cls-6" d="M31.79,21.17a5.15,5.15,0,0,0,2.28,2.63,6.28,6.28,0,0,0,3.33.69,7.48,7.48,0,0,0,3.32-.92A5.8,5.8,0,0,0,43.16,21a4.7,4.7,0,0,1-2,3.22,6.92,6.92,0,0,1-3.7,1.27,6.06,6.06,0,0,1-3.8-1A4.37,4.37,0,0,1,31.79,21.17Z"/><path class="cls-1" d="M14,8.6S8,6.06,4.82,13.28c-.13.29-.4.12-.38-.23.17-2.28,1-6.9,4.81-7.89C15.29,3.6,14,8.6,14,8.6"/></svg>