<svg id="Layer_1" data-name="Layer 1" xmlns="http://www.w3.org/2000/svg" viewBox="0 0 50 30"><defs><style>.cls-1{fill:#3d2d17;}.cls-2,.cls-4{fill:#fff7f4;}.cls-2{stroke:#9e5643;stroke-miterlimit:10;stroke-width:0.75px;}.cls-3{fill:#472113;}.cls-5{fill:#bf6b60;}.cls-6{fill:#2d0805;}</style></defs><path class="cls-1" d="M35.88,10.09s6-2.54,9.19,4.68c.13.29.4.12.37-.23-.16-2.28-1-6.9-4.8-7.89-6-1.56-4.76,3.44-4.76,3.44"/><path class="cls-1" d="M14.51,7.31S8.22,4.77,4.94,12c-.13.29-.41.12-.38-.23.17-2.28,1-6.9,5-7.89,6.29-1.56,5,3.44,5,3.44"/><circle class="cls-2" cx="37.16" cy="20.68" r="5.76"/><path class="cls-3" d="M42,22A3.81,3.81,0,0,1,38,26.18a4,4,0,0,1-4.36-4.13c-.06-2.24,1.37-3.94,4.17-4A3.85,3.85,0,0,1,42,22Z"/><circle class="cls-4" cx="35.76" cy="18.94" r="1.82"/><circle class="cls-2" cx="11.96" cy="20.13" r="5.76"/><path class="cls-3" d="M16.83,21.48a3.8,3.8,0,0,1-4,4.14A4,4,0,0,1,8.41,21.5c-.05-2.25,1.37-3.94,4.18-4A3.83,3.83,0,0,1,16.83,21.48Z"/><circle class="cls-4" cx="10.56" cy="18.38" r="1.82"/><path class="cls-5" d="M42.63,22.47a5.55,5.55,0,0,0,.29-1.79,5.76,5.76,0,1,0-11.18,1.9A20.48,20.48,0,0,0,42.63,22.47Z"/><path class="cls-5" d="M12,14.37A5.75,5.75,0,0,0,6.52,22a20.36,20.36,0,0,0,10.9-.05,5.66,5.66,0,0,0,.3-1.8A5.76,5.76,0,0,0,12,14.37Z"/><path class="cls-6" d="M6.21,21.77a27.33,27.33,0,0,0,2.89.5,22.74,22.74,0,0,0,2.85.19,24.83,24.83,0,0,0,2.85-.14c1-.09,1.91-.27,2.91-.39A9.37,9.37,0,0,1,15,23.15a11.12,11.12,0,0,1-6,0A8,8,0,0,1,6.21,21.77Z"/><path class="cls-6" d="M31.57,22.44a28,28,0,0,0,2.81.41,25.86,25.86,0,0,0,2.78.13,26.06,26.06,0,0,0,2.78-.16c.93-.09,1.85-.26,2.82-.38a11.25,11.25,0,0,1-5.6,1.49,11.88,11.88,0,0,1-2.91-.35A8.28,8.28,0,0,1,31.57,22.44Z"/></svg>