<svg id="Layer_1" data-name="Layer 1" xmlns="http://www.w3.org/2000/svg" viewBox="0 0 50 30"><defs><style>.cls-1{fill:#3d2d17;}.cls-2,.cls-4{fill:#fff7f4;}.cls-2{stroke:#9e5643;stroke-miterlimit:10;stroke-width:0.75px;}.cls-3{fill:#472113;}.cls-5{fill:#bf6b60;}.cls-6{fill:#2d0805;}</style></defs><path class="cls-1" d="M36,8.8s6-2.54,9.2,4.68c.12.29.4.12.37-.23-.16-2.28-1-6.9-4.81-7.89C34.72,3.8,36,8.8,36,8.8"/><circle class="cls-2" cx="37.29" cy="19.39" r="5.76"/><path class="cls-3" d="M42.16,20.75a3.79,3.79,0,0,1-4,4.13,4,4,0,0,1-4.37-4.12c-.05-2.24,1.37-3.94,4.17-4A3.84,3.84,0,0,1,42.16,20.75Z"/><circle class="cls-4" cx="35.89" cy="17.65" r="1.82"/><circle class="cls-2" cx="12.09" cy="18.83" r="5.76"/><path class="cls-3" d="M17,20.19a3.8,3.8,0,0,1-4.05,4.14,4,4,0,0,1-4.37-4.12c-.06-2.25,1.37-3.94,4.17-4A3.84,3.84,0,0,1,17,20.19Z"/><circle class="cls-4" cx="10.69" cy="17.09" r="1.82"/><path class="cls-5" d="M43.05,19.39a5.76,5.76,0,1,0-11.51,0A14,14,0,0,1,43.05,19.39Z"/><path class="cls-5" d="M17.81,18.28a5.75,5.75,0,0,0-11.48.55A17.88,17.88,0,0,1,17.81,18.28Z"/><path class="cls-6" d="M6.33,18.83A8.71,8.71,0,0,1,9,17.57a12.38,12.38,0,0,1,3-.49,11.74,11.74,0,0,1,5.81,1.2c-1-.05-1.95-.16-2.91-.19a27.29,27.29,0,0,0-2.86,0,27.22,27.22,0,0,0-2.84.25C8.25,18.46,7.3,18.62,6.33,18.83Z"/><path class="cls-6" d="M31.3,19.39a8.47,8.47,0,0,1,2.81-1.21,12.14,12.14,0,0,1,3.06-.36,11.69,11.69,0,0,1,5.88,1.57c-1-.13-2-.31-3-.4a25.81,25.81,0,0,0-2.91-.17,23.69,23.69,0,0,0-2.92.13C33.27,19.05,32.3,19.19,31.3,19.39Z"/><path class="cls-1" d="M14,8.6S8,6.06,4.8,13.28c-.12.29-.4.12-.37-.23.16-2.28,1-6.9,4.81-7.89C15.28,3.6,14,8.6,14,8.6"/></svg>