<svg id="Layer_1" data-name="Layer 1" xmlns="http://www.w3.org/2000/svg" viewBox="0 0 60 40"><defs><style>.cls-1{fill:#3d2d17;}.cls-2,.cls-4{fill:#fff7f4;}.cls-2{stroke:#9e5643;stroke-miterlimit:10;stroke-width:0.75px;}.cls-3{fill:#472113;}</style></defs><path class="cls-1" d="M12,15.28S4.15,16.4,3.46,26.54c0,.41-.4.39-.51,0-.72-2.65-1.63-8.35,2.29-12,6.18-5.71,6.71.73,6.71.73"/><ellipse class="cls-2" cx="15.49" cy="28.4" rx="7.41" ry="6.86" transform="translate(-0.36 0.2) rotate(-0.73)"/><path class="cls-3" d="M22,28.75c.67,2.6-.48,5.06-4,5.85s-5.94-1.09-6.62-3.7.66-4.94,4.17-5.73S21.31,26.14,22,28.75Z"/><ellipse class="cls-4" cx="12.39" cy="27.22" rx="2.35" ry="2.17" transform="translate(-0.35 0.16) rotate(-0.73)"/><path class="cls-1" d="M44.48,8.73s7.6-2,12.74,7c.2.36.54.2.45-.21-.52-2.69-2.22-8.23-7.4-10-8.16-2.82-5.79,3.25-5.79,3.25"/><ellipse class="cls-2" cx="47.09" cy="22.03" rx="7.41" ry="6.86" transform="translate(-0.28 0.61) rotate(-0.73)"/><path class="cls-3" d="M41.33,24.85c.54,2.63,2.68,4.43,6.22,3.8s4.92-3.28,4.38-5.91-2.8-4.25-6.34-3.62S40.79,22.22,41.33,24.85Z"/><ellipse class="cls-4" cx="43.83" cy="20.09" rx="2.35" ry="2.17" transform="translate(-0.25 0.56) rotate(-0.73)"/></svg>