<svg id="Layer_1" data-name="Layer 1" xmlns="http://www.w3.org/2000/svg" viewBox="0 0 110 60"><defs><style>.cls-1{fill:#ffc599;stroke:#72442e;}.cls-1,.cls-2{stroke-miterlimit:10;}.cls-2{fill:#b5095f;stroke:#541625;}</style></defs><path class="cls-1" d="M96.68,23.2c2.69-.4,6.46-.83,8-1.3a7.23,7.23,0,0,0,3-1.48,2.41,2.41,0,0,0,.57-3,3,3,0,0,0-2-1c-1.54-.24-6,.32-9.48.9a1.63,1.63,0,0,0-.19-.34c2.78-.94,6.1-2.25,6.92-3.18.61-.68,1.23-1.61.93-2.42-1-2.64-15.27,1.37-19.9,2.75.68-3.56,2.88-7.19,1.53-10.44a2.68,2.68,0,0,0-2.76-1.89c-1.64-.08-1.46-.09-2.1,1.46a39.21,39.21,0,0,0-1.58,6.32c-.4,1.72-3.52,8-4.69,9.94C69,23.84,63.1,28.35,57.1,32.58c-1.8.8-3.59,1.59-5.37,2.35l-3.81-1.22C39.15,30.92,30.09,28,21.06,25.88a.51.51,0,0,0-.61.36c-1.21,4.31-2.27,8.66-3.3,12.88S15.07,47.67,13.87,52a.51.51,0,0,0,.38.64c8.25,1.79,16.68,3.23,25.06,4.26a51.34,51.34,0,0,0,6.36.5,20.67,20.67,0,0,0,5.54-.69c4-1.12,7.46-3.73,10.91-6.54.94-.78,1.93-1.58,2.94-2.4,6.2-5,13.12-10.66,18.86-15.84,7.57,1.2,17.28,3.82,18.78,1.36.75-1.22-.07-2.19-1.24-2.89-1-.58-5.95-1.25-8.4-1.49,2.89.18,8.57.25,10.4-.34a3.38,3.38,0,0,0,2.37-1.85,2.17,2.17,0,0,0-1.27-2.45,6.26,6.26,0,0,0-3-.4c-.75,0-3.69.09-5.59,0l.3-.22A3,3,0,0,0,96.68,23.2Z"/><path class="cls-2" d="M45,31.23A101.58,101.58,0,0,1,42.53,58.1c-8.49.36-17.2-1-25.51-2.74C-2,51.27.09,32.56,4.05,28.28,6.87,25.23,16.39,19.7,45,31.23Z"/></svg>