<svg id="Layer_1" data-name="Layer 1" xmlns="http://www.w3.org/2000/svg" viewBox="0 0 50 30"><defs><style>.cls-1{fill:#3d2d17;}.cls-2,.cls-4{fill:#fff7f4;}.cls-2{stroke:#9e5643;stroke-miterlimit:10;stroke-width:0.75px;}.cls-3{fill:#472113;}.cls-5{fill:#bf6b60;}.cls-6{fill:#2d0805;}</style></defs><path class="cls-1" d="M35.88,10.09s6-2.54,9.19,4.68c.13.29.4.12.37-.23-.16-2.28-1-6.9-4.8-7.89-6-1.56-4.76,3.44-4.76,3.44"/><path class="cls-1" d="M14.51,7.31S8.22,4.77,4.94,12c-.13.29-.41.12-.38-.23.17-2.28,1-6.9,5-7.89,6.29-1.56,5,3.44,5,3.44"/><circle class="cls-2" cx="37.16" cy="20.68" r="5.76"/><path class="cls-3" d="M42,22A3.81,3.81,0,0,1,38,26.18a4,4,0,0,1-4.36-4.13c-.06-2.24,1.37-3.94,4.17-4A3.85,3.85,0,0,1,42,22Z"/><circle class="cls-4" cx="35.76" cy="18.94" r="1.82"/><circle class="cls-2" cx="11.96" cy="20.13" r="5.76"/><path class="cls-3" d="M16.83,21.48a3.8,3.8,0,0,1-4,4.14A4,4,0,0,1,8.41,21.5c-.05-2.25,1.37-3.94,4.18-4A3.83,3.83,0,0,1,16.83,21.48Z"/><circle class="cls-4" cx="10.56" cy="18.38" r="1.82"/><circle class="cls-5" cx="37.16" cy="20.68" r="5.76"/><circle class="cls-5" cx="11.96" cy="20.13" r="5.76"/><path class="cls-6" d="M6.51,22A5.22,5.22,0,0,0,8.69,24.6a5.89,5.89,0,0,0,3.22.71,6.33,6.33,0,0,0,5.55-3.48A4.65,4.65,0,0,1,15.56,25,6.48,6.48,0,0,1,12,26.31a5.76,5.76,0,0,1-3.7-1.06A4.37,4.37,0,0,1,6.51,22Z"/><path class="cls-6" d="M31.68,22.46A5.15,5.15,0,0,0,34,25.09a6.28,6.28,0,0,0,3.33.69,7.48,7.48,0,0,0,3.32-.92,5.8,5.8,0,0,0,2.44-2.55,4.7,4.7,0,0,1-2,3.22,6.92,6.92,0,0,1-3.71,1.27,6,6,0,0,1-3.79-1A4.37,4.37,0,0,1,31.68,22.46Z"/></svg>