<svg id="Layer_1" data-name="Layer 1" xmlns="http://www.w3.org/2000/svg" viewBox="0 0 50 30"><defs><style>.cls-1{fill:#3d2d17;}.cls-2,.cls-4{fill:#fff7f4;}.cls-2{stroke:#9e5643;stroke-miterlimit:10;stroke-width:0.75px;}.cls-3{fill:#472113;}</style></defs><path class="cls-1" d="M36.07,8.79s6-2.54,9.19,4.67c.13.29.4.12.37-.23-.16-2.27-1-6.9-4.8-7.89-6-1.56-4.76,3.45-4.76,3.45"/><circle class="cls-2" cx="37.35" cy="19.37" r="5.76"/><path class="cls-3" d="M42.23,20.73a3.8,3.8,0,0,1-4.06,4.14,4,4,0,0,1-4.37-4.12c0-2.25,1.38-3.95,4.18-4A3.85,3.85,0,0,1,42.23,20.73Z"/><circle class="cls-4" cx="35.95" cy="17.63" r="1.82"/><path class="cls-1" d="M13.93,8.62s-6-2.54-9.19,4.67c-.13.29-.4.13-.37-.23.16-2.27,1-6.9,4.8-7.89,6.05-1.56,4.76,3.45,4.76,3.45"/><circle class="cls-2" cx="12" cy="18.85" r="5.76"/><path class="cls-3" d="M16.87,20.21a3.81,3.81,0,0,1-4.06,4.14,4,4,0,0,1-4.36-4.12c-.06-2.25,1.37-3.95,4.17-4A3.85,3.85,0,0,1,16.87,20.21Z"/><circle class="cls-4" cx="10.59" cy="17.11" r="1.82"/></svg>