<svg id="Layer_1" data-name="Layer 1" xmlns="http://www.w3.org/2000/svg" viewBox="0 0 230 300"><defs><style>.cls-1,.cls-3{fill:#ffc599;}.cls-1{stroke:#72442e;}.cls-1,.cls-12,.cls-5,.cls-7,.cls-8{stroke-miterlimit:10;}.cls-2{opacity:0.2;}.cls-4{fill:#472113;}.cls-5{fill:#5b1163;stroke:#060d33;}.cls-6{fill:#060d33;}.cls-7{fill:#b5095f;}.cls-7,.cls-8{stroke:#541625;}.cls-8{fill:#ed0dff;}.cls-9{fill:#ea985d;}.cls-10{opacity:0.25;}.cls-11{fill:#e94a23;}.cls-12{fill:#6d340d;stroke:#351906;}.cls-13{fill:#9e5643;}.cls-14{fill:#db9d8f;}.cls-15{fill:#8c3d36;}.cls-16{fill:#f5968e;}.cls-17{fill:#f48678;}.cls-18{fill:#fff7f4;}.cls-19{fill:#d26653;}.cls-20{fill:#e6efef;}</style></defs><path class="cls-1" d="M173.89,88.21c2.38-1.31,5.77-3,7.08-4a7.22,7.22,0,0,0,2.3-2.43,2.4,2.4,0,0,0-.5-3,2.94,2.94,0,0,0-2.21-.19C179,78.9,175,81,172,82.73a1.87,1.87,0,0,0-.3-.26c2.29-1.85,4.94-4.22,5.39-5.38.34-.85.6-1.94,0-2.6-1.84-2.13-13.86,6.59-17.72,9.48-.6-3.57.22-7.74-2.18-10.32a2.68,2.68,0,0,0-3.24-.82c-1.57.49-1.41.43-1.47,2.1a39.28,39.28,0,0,0,.7,6.48c.23,1.75-.52,8.71-.95,11-4.1,6-8.08,12.33-12.24,18.37-1.41,1.37-2.82,2.73-4.22,4.06l-4,.18c-9.19.42-18.69.85-27.9,2a.51.51,0,0,0-.45.56c.36,4.45.87,8.9,1.37,13.21s1,8.75,1.36,13.19a.52.52,0,0,0,.19.36.54.54,0,0,0,.39.1c8.36-1.17,16.77-2.74,25-4.68a51.82,51.82,0,0,0,6.14-1.74,20.4,20.4,0,0,0,5-2.56c3.4-2.45,5.71-6.09,8-9.92.62-1,1.26-2.15,1.93-3.26,4.07-6.88,8.61-14.56,12.21-21.4,7.51-1.5,17.52-2.41,18.08-5.23.27-1.41-.82-2-2.17-2.28-1.12-.21-6,.88-8.39,1.5,2.77-.83,8.13-2.73,9.63-3.92a3.35,3.35,0,0,0,1.58-2.55,2.16,2.16,0,0,0-2-1.87,6.33,6.33,0,0,0-2.95.67c-.7.28-3.42,1.36-5.24,1.91.06-.1.14-.2.2-.31A3.23,3.23,0,0,0,173.89,88.21Z"/><path class="cls-2" d="M171.2,255c-13.09.56-25,2.62-34.3,5.6-10.14-3.3-24.75-5-40.9-4.33-30.08,1.3-54.11,10.51-53.68,20.57s25.17,17.15,55.25,15.86c13.09-.57,25-2.63,34.3-5.61,10.14,3.3,24.75,5,40.9,4.33,30.08-1.3,54.11-10.5,53.68-20.56S201.28,253.65,171.2,255Z"/><path class="cls-3" d="M98,241.68c-5.1-14.91-11.16-29.43-19.38-42.76,8.63-8.66,18.16-16.6,28.9-22.45l.53,2.38c2.68,9.79,7.7,36.09,10.31,51.66A35.12,35.12,0,0,1,115,252.15c-4.59,9.11-11,21.88-13.17,26-.34.67-.69,1.34-1,2-.08.16-.13.37-.29.41s-.57-.16-.76-.22l-1.58-.5c-1.06-.35-2.11-.71-3.16-1.09-1.6-.58-3.2-1.21-4.78-1.88,2.6-11.67,5.26-23.43,7.58-35.25Z"/><path class="cls-4" d="M100.47,281.14a1.72,1.72,0,0,1-.68-.19l-.16-.06-1.59-.5c-1.07-.35-2.13-.72-3.17-1.1-1.61-.58-3.23-1.22-4.81-1.89a.51.51,0,0,1-.3-.58l.81-3.64c2.31-10.33,4.69-21,6.77-31.59a.29.29,0,0,1,0-.09c-5.88-17.15-12-30.6-19.22-42.31a.52.52,0,0,1,.08-.63c9.87-9.91,19.36-17.28,29-22.54a.53.53,0,0,1,.46,0,.52.52,0,0,1,.29.35l.53,2.37c2.73,10,7.83,36.9,10.31,51.69a35.4,35.4,0,0,1-3.32,22c-4.84,9.61-11.06,21.93-13.17,26.05l-.09.18-.95,1.83a.36.36,0,0,0,0,.09.94.94,0,0,1-.59.59Zm-9.61-4.52c1.43.6,2.9,1.18,4.36,1.71,1,.37,2.08.74,3.13,1.08l1.58.5.26.1.14.06,0-.1c.32-.61.63-1.22.94-1.83l.1-.18c2.11-4.12,8.32-16.43,13.17-26a34.42,34.42,0,0,0,3.22-21.33c-2.47-14.77-7.57-41.64-10.3-51.61l-.39-1.73c-9.26,5.14-18.4,12.26-27.89,21.75,7.22,11.77,13.33,25.3,19.22,42.52a.5.5,0,0,1-.07.46.52.52,0,0,1-.1.11c-2.06,10.49-4.42,21.07-6.71,31.31Z"/><path class="cls-3" d="M149.7,238.53c-11.49-16.87-17.52-25.51-27.34-39.87,5.59-10.87,6.42-18.63,14.87-27.46l1.23,2.1c7.76,11.93,18.75,33.43,24.73,45.41a57.37,57.37,0,0,1,5.58,18.3c1.06,8.15,2.43,19.52,2.86,26.1l.12,2c0,.16.07.34-.05.45a2.26,2.26,0,0,1-.75.22c-.53.16-1.07.3-1.61.45-1.07.28-2.15.56-3.23.81-1.66.4-3.33.75-5,1.07-3.67-9.84-7.34-19.78-11.34-29.58Z"/><path class="cls-4" d="M161.1,268.59a.51.51,0,0,1-.48-.33l-1.17-3.13c-3.21-8.61-6.53-17.52-10.06-26.19a.63.63,0,0,1-.11-.12c-6.77-9.93-11.71-17.12-16.5-24.08-3.4-4.94-6.8-9.88-10.84-15.79a.49.49,0,0,1,0-.52c1.81-3.53,3.11-6.7,4.36-9.76,2.6-6.34,4.84-11.81,10.59-17.83a.53.53,0,0,1,.43-.15.52.52,0,0,1,.39.25l1.22,2.1c7.78,12,18.85,33.61,24.75,45.44a57.94,57.94,0,0,1,5.63,18.46c.87,6.74,2.41,19.1,2.86,26.14v.18c0,.6.08,1.2.11,1.79,0,0,0,.05,0,.08a.83.83,0,0,1-.22.77,1.52,1.52,0,0,1-.8.31l-.16,0-1.61.44c-1.07.29-2.16.56-3.25.82-1.67.4-3.37.76-5,1.07ZM150,238a.59.59,0,0,1,.25.27c3.57,8.77,6.93,17.77,10.17,26.47l1,2.73c1.51-.3,3-.63,4.57-1,1.07-.25,2.16-.53,3.21-.81l1.6-.44.25-.05.18,0v-.06c0-.59-.07-1.19-.11-1.78v-.19c-.45-7-2-19.34-2.86-26.06a56.88,56.88,0,0,0-5.53-18.14c-5.89-11.82-16.94-33.42-24.7-45.36l-.89-1.53c-5.28,5.69-7.44,10.94-9.92,17-1.23,3-2.5,6.11-4.26,9.58,4,5.79,7.31,10.66,10.66,15.53C138.38,221.07,143.29,228.21,150,238Z"/><path class="cls-5" d="M172,254.91c-3.38,1.45-7.31,3.3-11.24,4.73l-1.3.46a35.3,35.3,0,0,1-6.53,1.61c-2.19-7.25-8-20.95-11.83-27.48a93.39,93.39,0,0,0-12.27-17l-.15-.16c-1.92,1.23-4.25,2.59-6.17,3.82a.34.34,0,0,1,0,.1c.89,7.68.87,19.4-1.84,26.61-3.93,10.44-6.22,13-11.28,22.92a121.81,121.81,0,0,1-14.55-3.73l-1.14-.38C92.47,266,91.21,265.5,90,265c1.46-8.21,3.21-14.35,4.66-22.55-2.84-10.43-9.18-22.95-12.59-34l3.75-2.3.52-.31c8.36-5.05,16.8-9.7,25.39-14l1.11-.56c10.33-5.17,20.9-9.86,31.84-14.19,5.91,11.37,15.85,31.15,21.23,41.9a43.62,43.62,0,0,1,4.47,15.83C170.9,241,171.61,249.31,172,254.91Z"/><path class="cls-6" d="M160.75,259.64l-1.31.46a103.67,103.67,0,0,0-8.32-17.32.62.62,0,0,1,.09-.75l.61-.61a7.48,7.48,0,0,0-1.83,0c-.45.06-1-.41-.68-.88s0-1-.29-1.46-.65-1-1-1.5c-.69-1.07-1.38-2.15-2.08-3.22q-2-3.1-4-6.21c-2.72-4.21-5.49-8.41-8.09-12.7a.36.36,0,0,1,0-.09q-1,.31-2,.66c-.75.27-1.49.54-2.23.84l-.75.32-.49.21c-.14.06-.86.45-1.08.58,0,0-1.11.65-1.39.82-1.13.69-2.24,1.41-3.34,2.15-2.29,1.52-4.55,3.11-6.84,4.65-.25.17-.54-.22-.32-.41a55.75,55.75,0,0,1,5.49-4.2q2.66-1.84,5.41-3.54c-1.26-2.31-2.5-4.63-3.74-6.95-3.4-6.36-7-12.57-10.83-18.69q-2.58-4.17-5.27-8.28c-.39-.6.55-1.14,1-.56q2.55,3.69,4.92,7.47l.51.81q3.88,6.27,7.46,12.73c2.36,4.28,4.62,8.64,6.59,13.11a109.06,109.06,0,0,1,15.71-7.93c.54-.22.93.72.4.95-2.13.9-4.25,1.84-6.33,2.85-.86.41-1.72.84-2.57,1.28.72-.23,1.46-.44,2.21-.63a.51.51,0,0,1,.26,1c-.63.16-1.26.35-1.88.53,3,4.38,5.91,8.87,8.84,13.33l4.33,6.62c.74,1.14,1.52,2.27,2.24,3.42a3.5,3.5,0,0,1,.61,1.69,9.16,9.16,0,0,1,2.6.22.61.61,0,0,1,.26,1l-1.1,1.12A106.18,106.18,0,0,1,160.75,259.64Z"/><path class="cls-6" d="M101.51,247.83a6.11,6.11,0,0,1-1.91,0Q98,254,96.47,260.24q-.81,3.27-1.63,6.53l-1.14-.38a.06.06,0,0,1,0,0l1.62-6.43Q97,253.46,98.62,247c-.42-.11-.85-.2-1.28-.27-.68-.11-.42-1,.15-1.1l2.37-.27q-1.42-4.44-2.91-8.87-5.17-15.3-11.18-30.31l-1-2.4c-.13-.3.39-.51.51-.22l1,2.31c.94,2.24,1.87,4.5,2.78,6.75q6.62,16.32,12,33.06a.55.55,0,0,1-.52.7h0l.93.35C102,246.91,102.14,247.74,101.51,247.83Z"/><path class="cls-7" d="M129.72,114.11a101.61,101.61,0,0,1,4.15,26.66c-8.15,2.42-16.91,3.28-25.4,3.57-19.42.66-13.86-27.86-13.86-27.86A84.61,84.61,0,0,1,129.72,114.11Z"/><path class="cls-8" d="M84.15,120.79a242.29,242.29,0,0,0-22.59,11.85c-.37.22-.72.45-1.06.69A14.81,14.81,0,0,0,55,149.91c7.48,23,21.35,53.1,28,66.78,15.68-2.1,54.57-21.14,65.27-34.57-10.27-18.33-34.66-50.8-53.28-65.79C91.82,117.46,88.09,119,84.15,120.79Z"/><path class="cls-3" d="M60.5,133.33c3.54,2.67,8.38,3.34,12.82,2.76,3.94-.52,8-2.05,10.38-5.19,2.22-2.88,2.62-7.3.45-10.11a242.29,242.29,0,0,0-22.59,11.85C61.19,132.86,60.84,133.09,60.5,133.33Z"/><path class="cls-4" d="M70.4,136.79a17,17,0,0,1-10.2-3,.51.51,0,0,1-.21-.41.48.48,0,0,1,.22-.41c.4-.29.74-.51,1.08-.72a240,240,0,0,1,22.65-11.87.51.51,0,0,1,.62.15c2.23,2.89,2,7.5-.45,10.73-2.21,2.86-6,4.77-10.72,5.38A21.76,21.76,0,0,1,70.4,136.79Zm-9-3.45a17.53,17.53,0,0,0,11.84,2.24c4.44-.58,8-2.35,10-5s2.35-6.64.68-9.16a239.26,239.26,0,0,0-22.16,11.65Z"/><path class="cls-3" d="M78.44,120.47c.92,1.67,1.84,3.33,2.75,5a29.76,29.76,0,0,1-17,7.47c-.64-2.3-1.33-4.59-2-6.88A35,35,0,0,0,78.44,120.47Z"/><path class="cls-9" d="M73.93,112.27q2.25,4.11,4.51,8.2a35,35,0,0,1-16.22,5.59c-.8-2.65-1.6-5.3-2.35-8A60.79,60.79,0,0,1,73.93,112.27Z"/><path class="cls-4" d="M64.24,133.45a.5.5,0,0,1-.49-.37c-.62-2.22-1.29-4.43-2-6.87l-.14-.44c-.74-2.47-1.51-5-2.21-7.53a.51.51,0,0,1,.24-.59,60.42,60.42,0,0,1,14.18-5.87.52.52,0,0,1,.58.25l7.26,13.19a.5.5,0,0,1-.2.69.51.51,0,0,1-.7-.2l-7.07-12.84a60.08,60.08,0,0,0-13.2,5.48c.68,2.38,1.4,4.79,2.11,7.12l.13.45c.74,2.44,1.4,4.65,2,6.88a.52.52,0,0,1-.36.64Z"/><path class="cls-3" d="M28.64,88c12.72,31.51,34.72,35.72,52.28,31.76,15.15-3.41,24.66-12.91,27.79-26.23a47.45,47.45,0,0,0,1-14.29,62.51,62.51,0,0,0-1.09-7.86,112.51,112.51,0,0,0-4.34-16.15C101.58,47.75,97.65,39.9,91.15,35c-5.91-4.47-13.74-5.58-21-5.44-15.11.32-34.28,5.13-42.91,18.69C19.47,60.51,23.62,75.58,28.64,88Z"/><path class="cls-4" d="M70.21,121.51c-13.67,0-31.11-6.2-42-33.31h0c-4.86-12-9.41-27.51-1.32-40.22C37.64,31,62.74,29.22,70.18,29.06c9-.18,16.17,1.68,21.28,5.54,5.47,4.12,9.83,10.82,13.31,20.46a114,114,0,0,1,4.36,16.23,64.19,64.19,0,0,1,1.09,7.92,47.93,47.93,0,0,1-1,14.45C106,107.46,96,116.92,81,120.27A49.47,49.47,0,0,1,70.21,121.51Zm1.17-91.44-1.18,0c-7.31.15-32,1.93-42.49,18.45C19.86,60.85,24.34,76,29.11,87.81h0c13.88,34.37,38.35,34.46,51.7,31.45,14.52-3.26,24.25-12.44,27.4-25.85a46.79,46.79,0,0,0,1-14.13,62.31,62.31,0,0,0-1.08-7.8,111.93,111.93,0,0,0-4.32-16.08c-3.41-9.45-7.65-16-13-20C86.14,31.87,79.6,30.07,71.38,30.07Z"/><g class="cls-10"><path class="cls-11" d="M60.7,104.17l-.36.43a9.45,9.45,0,0,1-11.66,1.63c-4.2-2.59-6.15-9.33-2.06-13,4.73-4.2,14-1.5,15.53,4.77A7.37,7.37,0,0,1,60.7,104.17Z"/></g><g class="cls-10"><path class="cls-11" d="M95.46,89.26A7.31,7.31,0,0,0,99,94.47c.17.1.33.2.5.28a9.42,9.42,0,0,0,9.1-.5,47.12,47.12,0,0,0,1-14.29,6.4,6.4,0,0,0-1.33-.68C102.36,77,94.65,82.86,95.46,89.26Z"/></g><path class="cls-12" d="M25.17,95.78,11.52,65.68a4.51,4.51,0,0,1-5.54-3,5,5,0,0,1,2.93-5.95,9.64,9.64,0,0,1,2.75-18.17,13.07,13.07,0,0,1,4.93-14.25,13.09,13.09,0,0,1,15.07.48,26.25,26.25,0,0,1,2.55-6.9A7.7,7.7,0,0,1,39.59,14c2.27-.28,4.8,1.17,5.21,3.43A15,15,0,0,1,58.72,7.2a15,15,0,0,1,14,10.18,12.21,12.21,0,0,1,23.5,6.19c3-3.87,9.58-3.5,12.93.06s3.73,9.23,1.94,13.79a6.77,6.77,0,0,1,7.41,5.95,6.76,6.76,0,0,1-6.45,7,4,4,0,0,1-.84,3.56,2.88,2.88,0,0,1-3,.51c-.22-.09-.75.44-1,.31a4.41,4.41,0,0,1-.34,5.71c-.89.88-2.88.85-4,.26a3,3,0,0,1-1.46-3.17c-1.47,2.54-5.42,2.6-7.72.77S90.43,53.44,90,50.54A9.77,9.77,0,0,1,71.2,52.38a10.58,10.58,0,0,1-6.11,8.81A10,10,0,0,1,54.86,59.3a4.17,4.17,0,0,1-2.2,4.46,6.86,6.86,0,0,1-5.21.29,20.53,20.53,0,0,1-4.75-2.44c-.31,9.4-2.33,18.52-6.94,26.73C32.79,89.21,27.27,93.5,25.17,95.78Z"/><path class="cls-4" d="M16.81,57.59c-.3.39-1,.24-1.28-.05A2.14,2.14,0,0,1,15,55.9a2.36,2.36,0,0,1,1.83-2.28.6.6,0,0,0,0-1.19c-2.42-.11-4-2.61-4.1-4.86a4.34,4.34,0,0,1,1.17-3.32,3.12,3.12,0,0,1,3.46-.62.28.28,0,0,0,.29-.49,3.6,3.6,0,0,0-4,.1,5,5,0,0,0-2,3.94,6.37,6.37,0,0,0,3.41,6,3.85,3.85,0,0,0-1.32,3.43A2.92,2.92,0,0,0,15.39,59a2.1,2.1,0,0,0,2.51-.76C18.38,57.55,17.29,57,16.81,57.59Z"/><path class="cls-4" d="M100.54,40.82a6,6,0,0,0,.47-7.25A5.89,5.89,0,0,0,93.61,32c-.44-2.42-1.19-5-3.46-6.26a4.35,4.35,0,0,0-6.09,2c-.13.27.22.6.45.34A5.56,5.56,0,0,1,87,26.18a3.42,3.42,0,0,1,3.08.72c1.86,1.48,2.2,4,2.52,6.21a.59.59,0,0,0,.86.35,4.71,4.71,0,0,1,6.49.82,4.61,4.61,0,0,1-1.24,6.33.7.7,0,0,0,.35,1.3,3,3,0,0,1,3,2.57,1.78,1.78,0,0,1-2.55,1.69c-.67-.28-1,.76-.47,1.12,1.91,1.31,4.25-.46,4.4-2.52A3.93,3.93,0,0,0,100.54,40.82Z"/><path class="cls-4" d="M80.26,48.12a3.12,3.12,0,0,1-4.64,1.74c-2.19-1.16-3.15-3.56-4-5.75A.61.61,0,0,0,70.53,44a25.11,25.11,0,0,1-3,3.68,12.87,12.87,0,0,1-3.73,2.84,4,4,0,0,1-4.25-.3,10.48,10.48,0,0,1-2.51-3.31c-.19-.34-.69,0-.52.3a10,10,0,0,0,2.63,3.75,4.79,4.79,0,0,0,4.44.68,11.85,11.85,0,0,0,4.32-2.8,25.66,25.66,0,0,0,2.95-3.3c1,2.45,2.25,4.91,4.81,6s5.93-.2,6.08-3.15A.77.77,0,0,0,80.26,48.12Z"/><path class="cls-3" d="M41.1,95.69c1.27,4.91-.91,8.22-7.35,9.51S20.54,103,19.22,96.84c-1-4.68-.08-11,6.36-12.33S39.26,88.59,41.1,95.69Z"/><path class="cls-9" d="M38.36,100.8c1.6-2.11.39-4.6-4.27-7.5s-10.19-3.42-12-.69c-1.37,2.09-1.51,5.72,3.15,8.63S36.05,103.86,38.36,100.8Z"/><path class="cls-4" d="M31,106c-5.9,0-11.12-3.67-12.28-9-.36-1.69-1-6,1.26-9.39A8.21,8.21,0,0,1,25.48,84,13,13,0,0,1,36,87a.52.52,0,0,1-.65.8A11.94,11.94,0,0,0,25.68,85a7.22,7.22,0,0,0-4.84,3.12,11.57,11.57,0,0,0-1.11,8.6c1.22,5.68,7.47,9.25,13.92,8a12.45,12.45,0,0,0,5.1-2,.51.51,0,1,1,.62.82,13.43,13.43,0,0,1-5.52,2.23A14.66,14.66,0,0,1,31,106Z"/><path class="cls-13" d="M79.83,93.63a7.15,7.15,0,0,1-2.84,0,.54.54,0,0,1-.44-.64.57.57,0,0,1,.68-.41,6,6,0,0,0,5.19-1.43,5.21,5.21,0,0,0,1.51-4.88.54.54,0,0,1,.43-.64h0a.57.57,0,0,1,.68.41,6.26,6.26,0,0,1-1.81,5.87A7,7,0,0,1,79.83,93.63Z"/><path class="cls-13" d="M81.22,113.23a.58.58,0,0,1,.61-.51,17.58,17.58,0,0,0,5-.18c.36-.07.58.43.23.58a9.54,9.54,0,0,1-5.31.69A.59.59,0,0,1,81.22,113.23Z"/><path class="cls-14" d="M68.15,100.67a16.88,16.88,0,0,1-2.07-1,4.1,4.1,0,0,0-1.81-.12c-.79.11-1.64.62-1.61,1.33s.61,1,1.19,1.21a5.23,5.23,0,0,0,3.18.15,1.53,1.53,0,0,0,1.09-.76c.15-.4-.3-.94-.74-.76Z"/><path class="cls-14" d="M93.18,96a11.07,11.07,0,0,1,.9-2.08,2.41,2.41,0,0,1,.88-.63,1.78,1.78,0,0,1,2,.63,2,2,0,0,1,.08,2,3.88,3.88,0,0,1-1.5,1.51,3,3,0,0,1-1.4.49,1.33,1.33,0,0,1-1.23-.62A1.17,1.17,0,0,1,93.18,96a4.35,4.35,0,0,1,1.25-.79Z"/><path class="cls-15" d="M95.4,94.83a11.3,11.3,0,0,1-.24,1.53c-.62,3-2.51,8.73-6.1,11.6a12,12,0,0,1-9.58,2.22c-4.41-.82-6.77-2.52-10-5.56-1-1-2.2-2.12-3.54-3.41,0,0-.3-.23.07-.33a2,2,0,0,1,.64,0c2.36,0,8.78,1.68,17.31-.91,6.57-2,9.81-4.32,11-5.29a.31.31,0,0,1,.43,0,.26.26,0,0,1,.05.17"/><path class="cls-16" d="M95.16,96.36c-.62,3-2.51,8.74-6.1,11.6a12,12,0,0,1-9.58,2.22c-4.41-.82-6.77-2.52-10-5.56,3.39,2.17,8.81,4.76,14.27,3.78,7.47-1.36,10.59-9.45,11.41-12"/><path class="cls-17" d="M95.35,94.67a29,29,0,0,1-14.13,7.2c-8.07,1.67-13.48-.29-15.21-1a2,2,0,0,1,.64,0c2.36,0,8.78,1.68,17.32-.9,6.55-2,9.8-4.33,11-5.3a.3.3,0,0,1,.43,0"/><path class="cls-18" d="M69.71,101.71c.19,0,11,3.16,22.52-4.55,0,0-.72,4.58-8.31,6.9-8.69,2.65-14.21-2.35-14.21-2.35"/><path class="cls-19" d="M83.75,108.28a10.19,10.19,0,0,1-5.39-.32c2.64-4.35,8.93-3.16,10.15-2.1-.84,1.09-2.2,1.93-4.76,2.42"/><path class="cls-20" d="M160.32,274.2l20.37-6.48a37.57,37.57,0,0,1-2-7.89c1.39-.34,4.37-.85,6.31.46,2.6,1.76,3.93,9.75,3.93,9.75l-27.52,8.17Z"/><path class="cls-4" d="M161.42,278.87a.62.62,0,0,1-.32-.09.66.66,0,0,1-.31-.4l-1.1-4a.66.66,0,0,1,.44-.8l19.74-6.28-.27-.84a29.09,29.09,0,0,1-1.55-6.57.65.65,0,0,1,.5-.69c1.64-.4,4.72-.87,6.83.56,2.75,1.86,4.07,9.34,4.21,10.18a.65.65,0,0,1-.46.74l-27.52,8.17A.58.58,0,0,1,161.42,278.87Zm-.29-4.24.75,2.75,26.31-7.8c-.47-2.47-1.76-7.53-3.55-8.74-1.51-1-3.87-.77-5.22-.49a31.09,31.09,0,0,0,1.43,5.7c.16.49.32,1,.47,1.48a.66.66,0,0,1-.43.82Z"/><path class="cls-11" d="M180.69,267.72l-20.37,6.48-2.17-7.92,15.9-5.53s-1.8-4.42.91-5.32,3,4.62,3,4.62.29-.1.75-.22A37.57,37.57,0,0,0,180.69,267.72Z"/><path class="cls-4" d="M160.32,274.86a.71.71,0,0,1-.31-.08.66.66,0,0,1-.32-.41l-2.17-7.92a.65.65,0,0,1,.42-.79l15.27-5.31a6.23,6.23,0,0,1-.08-4.11,2.64,2.64,0,0,1,1.62-1.43,2.11,2.11,0,0,1,2,.24c1.23.84,1.67,3,1.82,4.15h0a.69.69,0,0,1,.54.11.63.63,0,0,1,.27.48,28.22,28.22,0,0,0,1.49,6.27c.16.49.32,1,.47,1.48a.66.66,0,0,1-.43.82l-20.37,6.48A.64.64,0,0,1,160.32,274.86ZM159,266.7l1.83,6.66,19.09-6.07-.27-.84a33.91,33.91,0,0,1-1.47-5.77.67.67,0,0,1-.55-.09.68.68,0,0,1-.29-.51c-.06-1.22-.48-3.37-1.32-3.95a.86.86,0,0,0-.81-.07,1.27,1.27,0,0,0-.83.73c-.52,1.1.07,3,.33,3.71a.66.66,0,0,1-.39.87Z"/><path class="cls-4" d="M169.82,267.05a3.37,3.37,0,1,1-4-1.76A3.1,3.1,0,0,1,169.82,267.05Z"/><path class="cls-20" d="M86.87,283.38l23.33,0c0-2.88-.12-5.76.55-8.47,1.56.1,4.83.54,6.41,2.46,2.12,2.57.87,10.94.87,10.94l-31.35-.64Z"/><path class="cls-4" d="M118,289h0l-31.34-.64a.66.66,0,0,1-.49-.22.69.69,0,0,1-.18-.5l.18-4.33a.69.69,0,0,1,.69-.66h0l22.65,0v-.92a29.63,29.63,0,0,1,.56-7,.7.7,0,0,1,.72-.52c1.84.12,5.18.63,6.89,2.71,2.25,2.73,1.15,10.6,1,11.48A.69.69,0,0,1,118,289ZM87.4,287l30,.61c.32-2.6.66-8-.8-9.8-1.25-1.52-3.83-2-5.34-2.17a31.4,31.4,0,0,0-.39,6.13c0,.54,0,1.08,0,1.62a.68.68,0,0,1-.69.68h0l-22.67,0Z"/><path class="cls-11" d="M110.2,283.42l-23.33,0,.36-8.56,18.38-.44s-.42-5,2.7-5,1.58,5.54,1.58,5.54.34,0,.86,0C110.08,277.66,110.24,280.54,110.2,283.42Z"/><path class="cls-4" d="M110.2,284.11h0l-23.33,0a.72.72,0,0,1-.5-.22.66.66,0,0,1-.19-.5l.36-8.56a.7.7,0,0,1,.67-.66l17.69-.42a6.5,6.5,0,0,1,1.22-4.07,2.89,2.89,0,0,1,2.18-.95,2.39,2.39,0,0,1,2,.9c1,1.24.71,3.45.48,4.67h0a.73.73,0,0,1,.51.28.68.68,0,0,1,.11.57,28.2,28.2,0,0,0-.52,6.7c0,.54,0,1.08,0,1.62A.68.68,0,0,1,110.2,284.11Zm-22.62-1.42,21.94,0v-.92a33.18,33.18,0,0,1,.39-6.21h0a.68.68,0,0,1-.55-.26.69.69,0,0,1-.12-.6c.33-1.21.61-3.45,0-4.31a1,1,0,0,0-.87-.36,1.48,1.48,0,0,0-1.17.5c-.87.95-.91,3-.85,3.75a.66.66,0,0,1-.17.52.73.73,0,0,1-.49.23l-17.74.42Z"/><path class="cls-4" d="M99.12,279.29c0,1.63-1.69,2.91-3.7,2.87s-3.6-1.39-3.57-3,1.69-2.91,3.69-2.87S99.15,277.67,99.12,279.29Z"/></svg>