<svg id="Layer_1" data-name="Layer 1" xmlns="http://www.w3.org/2000/svg" viewBox="0 0 140 260"><defs><style>.cls-1,.cls-11{fill:#ea9678;}.cls-1{stroke:#662f1e;}.cls-1,.cls-6,.cls-8,.cls-9{stroke-miterlimit:10;}.cls-2{fill:#b97556;}.cls-3{fill:#472113;}.cls-4{fill:#e6efef;}.cls-5{fill:#e94a23;}.cls-6{fill:#3d1399;stroke:#140738;}.cls-7{fill:#140738;}.cls-8{fill:#281109;stroke:#2d1209;}.cls-9{fill:#ff61bb;stroke:#560f1d;}.cls-10{fill:#f9b7d2;}.cls-12{fill:#8e4b39;}.cls-13{opacity:0.25;}.cls-14{fill:#ad2409;}.cls-15{opacity:0.19;}.cls-16{fill:#77182c;}</style></defs><path class="cls-1" d="M8.23,201.81a3.38,3.38,0,0,1,.85-1.42c.69-.81,1.4-1.59,2.14-2.35a3.29,3.29,0,0,0-1.36.68,2.78,2.78,0,0,1-1.34.54,1.2,1.2,0,0,1-1.18-.85A1.73,1.73,0,0,1,7.83,197a6.69,6.69,0,0,1,2.49-1.91,4.57,4.57,0,0,1-2.16.56c-.66,0-1.26-.3-1.27-1.05,0-1.57,5.1-3.71,8.56-5,1.75-24.08,8.52-49.61,17-71.1,8.59,1.39,13.48,3.23,21.53,7.24a567.26,567.26,0,0,0-31.8,69,32.86,32.86,0,0,0,.49,5.38,23.23,23.23,0,0,1,1,3.36c.15.88.05,2-.65,2.32s-1.4-.1-2-.6a11,11,0,0,1-3.21-4.68c-1.55,1.77-4.78,5.8-5.88,4.8a1.56,1.56,0,0,1-.26-1.36,4.7,4.7,0,0,1,1.24-2.61,8.47,8.47,0,0,1-3.07,2,1.36,1.36,0,0,1-1.08.05A1.45,1.45,0,0,1,8.23,201.81Z"/><path class="cls-2" d="M63.7,162.94l-2,1.12C56,167,30.85,181.14,15.43,189.87a13.83,13.83,0,0,0-4.69,19.73c8.82,13.18,22.18,31.51,22.47,31.88.11.14,4.84-7.47,6.18-8.35-3.46-8.17-7-16.4-10.31-24.68,12.09-5,27.72-11,38-14.63C67.68,182.46,66.39,174,63.7,162.94Z"/><path class="cls-3" d="M33.22,242a.49.49,0,0,1-.38-.18c-.37-.47-13.67-18.74-22.49-31.92a14.29,14.29,0,0,1,4.84-20.41c14.81-8.37,40.52-22.87,46.33-25.82l1.94-1.11a.5.5,0,0,1,.43,0,.45.45,0,0,1,.27.33c2.62,10.75,4,19.28,3.43,31a.46.46,0,0,1-.32.42c-10.61,3.75-26,9.65-37.57,14.44,2.9,7.16,5.95,14.36,8.9,21.33l1.23,2.9a.5.5,0,0,1-.18.59c-.8.53-3.31,4.25-4.65,6.26C33.54,242,33.54,242,33.24,242Zm30.17-78.29-1.42.8c-5.81,2.95-31.51,17.44-46.31,25.81a13.35,13.35,0,0,0-4.52,19.05c8,12,19.85,28.31,22.09,31.37.25-.37.62-.91,1-1.45A50.78,50.78,0,0,1,38.81,233l-1.09-2.58c-3-7.11-6.12-14.47-9.08-21.78a.48.48,0,0,1,.26-.62c11.54-4.78,27-10.73,37.75-14.53C67.18,182.25,65.86,174,63.39,163.67Z"/><path class="cls-3" d="M37.12,217.26c-1.15-2.6-2-5.35-3-8q-1.56-4.41-2.82-8.92c-.08-.28.4-.42.5-.14.52,1.36,1,2.73,1.55,4.1-.08-1-.13-2-.15-2.95,0-.32.48-.29.54,0a51.57,51.57,0,0,1,1,6.54s0,0,0,0c.13.34.26.68.38,1l.17.44c-.31.07-.61.15-.92.21C35.15,211.92,36.13,214.67,37.12,217.26Z"/><path class="cls-2" d="M82.47,164.4l-2,1.12c-5.75,2.92-30.89,17.09-46.31,25.81a13.83,13.83,0,0,0-4.68,19.73C38.33,224.24,51.69,242.57,52,243c.1.13,4.84-7.48,6.17-8.36-3.45-8.17-6.95-16.39-10.3-24.68,12.08-5,27.71-11,38-14.62C86.45,183.92,85.15,175.46,82.47,164.4Z"/><path class="cls-3" d="M52,243.43a.5.5,0,0,1-.38-.19c-.36-.47-13.67-18.73-22.49-31.91A14.3,14.3,0,0,1,34,190.92c14.81-8.38,40.52-22.88,46.32-25.83l2-1.1a.45.45,0,0,1,.42,0,.49.49,0,0,1,.28.33c2.61,10.76,4,19.28,3.43,31a.5.5,0,0,1-.32.43c-10.61,3.74-26,9.64-37.57,14.43,2.9,7.16,5.94,14.36,8.89,21.33l1.23,2.91a.47.47,0,0,1-.18.58c-.8.53-3.3,4.26-4.65,6.26-1.45,2.16-1.45,2.16-1.76,2.18Zm30.17-78.3-1.42.81c-5.8,2.94-31.5,17.43-46.3,25.81a13.35,13.35,0,0,0-4.53,19c8,12,19.86,28.32,22.09,31.37.26-.37.62-.91,1-1.44a50.49,50.49,0,0,1,4.6-6.27l-1.09-2.58c-3-7.12-6.12-14.47-9.08-21.78a.49.49,0,0,1,.26-.62c11.55-4.78,27-10.73,37.76-14.53C86,183.71,84.63,175.42,82.15,165.13Z"/><path class="cls-4" d="M42.43,228.27l-7.61,17.47a30.82,30.82,0,0,0-6.52-2.37c-.44,1.2-1.18,3.79-.26,5.61,1.23,2.42,7.9,4.23,7.9,4.23l9.8-23.66Z"/><path class="cls-3" d="M35.94,253.77l-.15,0c-.71-.19-6.95-1.94-8.25-4.52-1-2-.29-4.64.23-6a.55.55,0,0,1,.62-.36,24.16,24.16,0,0,1,5.44,1.88l.69.3,7.4-17a.57.57,0,0,1,.72-.3l3.3,1.29a.54.54,0,0,1,.31.3.61.61,0,0,1,0,.44l-9.8,23.65A.56.56,0,0,1,35.94,253.77ZM28.67,244c-.38,1.17-.86,3.26-.13,4.7.84,1.67,5,3.2,7.07,3.81L45,229.87,42.73,229l-7.4,17a.55.55,0,0,1-.73.3l-1.22-.53A25,25,0,0,0,28.67,244Z"/><path class="cls-5" d="M34.82,245.74l7.61-17.47-6.52-2.54-6.35,13.61s-3.59-2-4.63.38,3.62,3,3.62,3-.11.25-.25.65A30.82,30.82,0,0,1,34.82,245.74Z"/><path class="cls-3" d="M34.81,246.3a.52.52,0,0,1-.21,0l-1.22-.53a23.18,23.18,0,0,0-5.18-1.81.58.58,0,0,1-.39-.27.55.55,0,0,1,0-.47v0c-1-.22-2.72-.77-3.33-1.89a1.89,1.89,0,0,1,0-1.76,2.31,2.31,0,0,1,1.42-1.32,5.32,5.32,0,0,1,3.45.42l6.11-13.1a.56.56,0,0,1,.71-.28l6.53,2.53a.59.59,0,0,1,.31.31.56.56,0,0,1,0,.44L35.33,246A.55.55,0,0,1,34.81,246.3ZM29.06,243a27.2,27.2,0,0,1,4.77,1.75l.69.3,7.17-16.42-5.49-2.14-6.13,13.13a.59.59,0,0,1-.34.3.57.57,0,0,1-.44,0,4.82,4.82,0,0,0-3.09-.6,1.25,1.25,0,0,0-.76.72.79.79,0,0,0,0,.76c.43.78,2.19,1.3,3.21,1.45a.61.61,0,0,1,.41.29.58.58,0,0,1,0,.5Z"/><path class="cls-3" d="M35.36,236.09a3,3,0,0,0,2.27-5.48,3,3,0,0,0-2.27,5.48Z"/><path class="cls-4" d="M64.51,230l-7.62,17.47a30.63,30.63,0,0,0-6.52-2.37c-.43,1.2-1.17,3.79-.26,5.61,1.23,2.42,7.91,4.23,7.91,4.23l9.79-23.66Z"/><path class="cls-3" d="M58,255.49l-.15,0c-.71-.19-6.95-1.94-8.26-4.52-1-2-.28-4.64.23-6a.56.56,0,0,1,.63-.36,24.33,24.33,0,0,1,5.44,1.88l.69.3,7.4-17a.56.56,0,0,1,.71-.3L68,230.75a.54.54,0,0,1,.31.3.56.56,0,0,1,0,.44l-9.8,23.65A.54.54,0,0,1,58,255.49Zm-7.27-9.75c-.38,1.17-.86,3.26-.13,4.7.84,1.67,5,3.2,7.07,3.81l9.39-22.66-2.27-.88-7.4,17a.57.57,0,0,1-.74.3l-1.21-.53A25,25,0,0,0,50.75,245.74Z"/><path class="cls-5" d="M56.89,247.46,64.51,230,58,227.45l-6.36,13.61s-3.58-1.95-4.62.38,3.62,3,3.62,3-.11.25-.26.65A30.63,30.63,0,0,1,56.89,247.46Z"/><path class="cls-3" d="M56.89,248a.57.57,0,0,1-.22,0l-1.21-.53a23.18,23.18,0,0,0-5.18-1.81.5.5,0,0,1-.39-.27.55.55,0,0,1,0-.47l0,0c-1-.22-2.72-.77-3.33-1.88a1.91,1.91,0,0,1,0-1.77,2.31,2.31,0,0,1,1.42-1.32,5.29,5.29,0,0,1,3.44.42l6.12-13.1a.55.55,0,0,1,.71-.28l6.52,2.53a.57.57,0,0,1,.32.31.56.56,0,0,1,0,.44l-7.62,17.47A.56.56,0,0,1,56.89,248Zm-5.75-3.35a27.8,27.8,0,0,1,4.77,1.75l.69.3,7.16-16.42-5.49-2.14-6.13,13.13a.55.55,0,0,1-.33.3.56.56,0,0,1-.44,0,4.83,4.83,0,0,0-3.09-.6,1.23,1.23,0,0,0-.76.72.79.79,0,0,0,0,.76c.42.78,2.19,1.31,3.2,1.45a.57.57,0,0,1,.41.29.55.55,0,0,1,0,.5Z"/><ellipse class="cls-3" cx="58.57" cy="235.07" rx="2.97" ry="2.41" transform="translate(-181.02 199.23) rotate(-67.5)"/><path class="cls-6" d="M69.7,194.85c-2.49,3.32-6.43,5.2-10.27,6.79a151.76,151.76,0,0,1-24.17,7.73c-.31.07-.61.15-.92.21.81,2.34,1.79,5.09,2.78,7.68h0c.41,1,.81,2.09,1.22,3a47.62,47.62,0,0,1-7.44,5.24l-.71.4c-2.81,1.6-5.74,3-8.64,4.36A160.1,160.1,0,0,1,5.67,205.11a12.31,12.31,0,0,1,4.13-15.8c7.66-5.14,15.49-10.21,23.74-14.05a101.35,101.35,0,0,1,28.53-8.19l1.24-.17c2.27-.3,4.53-.53,6.8-.71.36,4.91,1.81,9.66,2.39,14.55S72.65,190.92,69.7,194.85Z"/><path class="cls-7" d="M63.31,166.9a41.25,41.25,0,0,1-.48,7.11,15.54,15.54,0,0,1-5.31,9.83c-3.09,2.45-6.94,3.62-10.61,4.89l-13.43,4.64-6.71,2.32c-1,.33-2.12.92-3.18.72l-.1,0s0,.08,0,.12a.53.53,0,0,1-.77.59l-.54-.28c.41.7.83,1.39,1.25,2.09a.5.5,0,0,1-.67.68l-2.08-1.27q.93,3.06,1.95,6.09,2.19,6.48,4.74,12.82c1.12,2.79,2.32,5.56,3.52,8.33l-.71.4c-.45-1-.89-1.91-1.31-2.87a226.19,226.19,0,0,1-9.51-25.74.5.5,0,0,1,.72-.55l1.44.88-1.13-1.85c-.28-.46.27-.91.7-.69l1.21.59L22.2,195s0-.09,0-.14c0-.59.94-.72,1-.14l0,.2c.18,1.08,2.71-.11,3.23-.29l3.46-1.22L36.87,191c4.07-1.42,8.15-2.82,12.21-4.26,3.29-1.16,6.73-2.51,9.14-5.15s3.41-6.42,3.72-10c.13-1.52.15-3,.13-4.56Z"/><path class="cls-6" d="M88.47,196.31c-2.5,3.32-6.43,5.2-10.28,6.79A151.65,151.65,0,0,1,54,210.83l-.92.21c.81,2.34,1.78,5.1,2.78,7.68,0,0,0,0,0,0,.41,1.05.82,2.09,1.22,3.05A46.51,46.51,0,0,1,49.67,227l-.7.4c-2.81,1.6-5.75,3-8.65,4.37a161.76,161.76,0,0,1-15.89-25.21,12.34,12.34,0,0,1,4.13-15.81c7.67-5.14,15.49-10.2,23.75-14.05a101.16,101.16,0,0,1,28.53-8.19l1.24-.17q3.39-.45,6.8-.7c.36,4.9,1.8,9.66,2.38,14.54S91.42,192.38,88.47,196.31Z"/><path class="cls-7" d="M55.89,218.72c-1.16-2.6-2-5.35-3-8-1-3-2-5.91-2.81-8.92-.08-.29.39-.43.5-.15.52,1.36,1,2.73,1.54,4.1-.07-1-.13-2-.14-2.94,0-.33.48-.3.54,0a51.7,51.7,0,0,1,1,6.55v0c.13.34.25.69.38,1,.06.14.11.29.17.43l-.92.21C53.92,213.38,54.89,216.14,55.89,218.72Z"/><path class="cls-7" d="M82.08,168.36a43.35,43.35,0,0,1-.48,7.11,15.61,15.61,0,0,1-5.31,9.84c-3.09,2.44-6.94,3.61-10.61,4.88l-13.43,4.65-6.71,2.31a6.62,6.62,0,0,1-3.18.73l-.1,0a.5.5,0,0,0,0,.12.53.53,0,0,1-.77.59l-.55-.28,1.25,2.09a.5.5,0,0,1-.67.68l-2.08-1.27q.95,3.06,2,6.1c1.45,4.31,3,8.59,4.74,12.81,1.12,2.8,2.31,5.56,3.51,8.33l-.7.4c-.46-.95-.89-1.91-1.32-2.86a231.53,231.53,0,0,1-9.51-25.74.5.5,0,0,1,.72-.56l1.45.89-1.13-1.86c-.28-.46.26-.91.7-.69l1.21.59-.12-.72a.59.59,0,0,1,0-.13c0-.6.94-.73,1-.15,0,.07,0,.14,0,.2.17,1.09,2.7-.11,3.22-.29l3.47-1.22,6.93-2.41c4.07-1.42,8.14-2.82,12.2-4.25,3.3-1.17,6.73-2.52,9.14-5.16s3.42-6.42,3.72-10c.13-1.52.15-3,.14-4.56Z"/><path class="cls-8" d="M18.5,42.44A129.15,129.15,0,0,1,16.18,97.9c13.42,6.34,28,9.73,42.68,7.46S90.4,97.94,98.44,85.47C106.58,72.83,93.29,52.68,86,39.54c-3.92-7-9.26-13.7-16.63-17-6.57-2.93-14.15-2.88-21.17-1.3C36.43,23.91,24.06,31.74,18.5,42.44Z"/><path class="cls-9" d="M40.67,148.81a159.5,159.5,0,0,1-21.53-6.43c1.58-7.88,5.13-19.85,8.92-26.93s8.16-10.69,16.06-11.35c4.66,3.07,6.88,8.49,7.55,14A31.73,31.73,0,0,1,48.8,134.4,85.84,85.84,0,0,1,40.67,148.81Z"/><path class="cls-10" d="M94,177.91c-13.69,5.39-51.39,4.26-66.17-1.34.83-3.72,1.57-7.15,2.25-10.4.18-.82.35-1.62.51-2.42,1.13-5.47,2.11-10.52,3-15.8.1-.61.21-1.21.31-1.82.59-3.36,1.16-6.85,1.74-10.61l.3-1.94c.56-3.62,1.13-7.51,1.74-11.79.1-.67.19-1.34.29-2,.64-4.52,1.33-9.47,2.09-15,3.15-.57,6.88-1,10.89-1.42a227.14,227.14,0,0,1,23.71-.93c.39,0,.78,0,1.16.06,8.86.58,11,2.25,12.12,7.92.77,3.69,1.42,7.75,2,12,.16,1.23.32,2.48.47,3.74.47,4,.87,8,1.21,12.09.08.91.16,1.81.22,2.71.25,3.1.47,6.19.66,9.21.06.93.12,1.84.17,2.75h0c.25,4.22.46,8.25.64,11.93,0,1,.09,1.91.14,2.82C93.66,171.68,93.82,175.18,94,177.91Z"/><path class="cls-11" d="M75.88,102.64c-1.64,3.78-5.24,6.55-9.1,8.12-3.43,1.39-7.38,2-10.79.58-3.12-1.31-5.47-4.7-5-8a222.38,222.38,0,0,1,23.73-.81C75.11,102.57,75.49,102.6,75.88,102.64Z"/><path class="cls-3" d="M60.27,112.62a11.54,11.54,0,0,1-4.46-.84c-3.5-1.47-5.78-5.12-5.31-8.48a.49.49,0,0,1,.43-.41,220.91,220.91,0,0,1,23.79-.8c.37,0,.75,0,1.21.07a.5.5,0,0,1,.36.24.47.47,0,0,1,0,.43c-1.53,3.52-4.94,6.57-9.36,8.37A18,18,0,0,1,60.27,112.62Zm-8.86-8.81a7.67,7.67,0,0,0,4.76,7.09c2.87,1.19,6.57,1,10.43-.58a16.39,16.39,0,0,0,8.55-7.26l-.45,0A219.59,219.59,0,0,0,51.41,103.81Z"/><path class="cls-3" d="M65.35,181.86c-14.18,0-29.33-1.67-37.71-4.84a.49.49,0,0,1-.3-.55c3.5-15.77,5.46-25.88,7.48-38.62a.48.48,0,0,1,1,.15c-2,12.65-4,22.71-7.41,38.27,15.28,5.57,51.82,6.31,65.12,1.32-.13-2.27-.26-5-.41-8.19-.74-15.51-2-41.47-5.57-58.91-1.07-5.23-2.83-6.95-11.68-7.53l-.26,0-.88,0a231.77,231.77,0,0,0-23.66.93c-4.13.39-7.78.87-10.85,1.42a.47.47,0,0,1-.55-.38.48.48,0,0,1,.38-.56c3.09-.56,6.77-1,10.93-1.43a233.85,233.85,0,0,1,23.76-.93c.32,0,.63,0,.94,0h.25c8.84.58,11.31,2.21,12.56,8.3,3.61,17.51,4.85,43.52,5.58,59.05.16,3.33.3,6.21.43,8.53a.49.49,0,0,1-.3.48C88.14,180.72,77.08,181.86,65.35,181.86Z"/><path class="cls-11" d="M55.45,100.48c0,1.77,0,3.54.07,5.3A27.6,27.6,0,0,0,72.67,104c-.53-2.16-1-4.33-1.52-6.49A32.62,32.62,0,0,1,55.45,100.48Z"/><path class="cls-12" d="M55.33,91.77l.12,8.71a32.62,32.62,0,0,0,15.7-2.93C70.58,95,70,92.52,69.39,90A56.36,56.36,0,0,0,55.33,91.77Z"/><path class="cls-3" d="M55.52,106.26a.47.47,0,0,1-.47-.47l-.19-14a.46.46,0,0,1,.35-.47,56.47,56.47,0,0,1,14.11-1.77h.07a.47.47,0,0,1,.46.37c.59,2.38,1.14,4.81,1.68,7.16l.08.37c.53,2.31,1,4.39,1.53,6.49a.48.48,0,0,1-.35.57.47.47,0,0,1-.58-.34c-.52-2.11-1-4.2-1.53-6.51l-.08-.37c-.51-2.22-1-4.53-1.59-6.78a55.53,55.53,0,0,0-13.19,1.64L56,105.78a.48.48,0,0,1-.47.48Z"/><path class="cls-11" d="M92.57,60C86.33,91,66.92,98.62,50.18,98c-14.44-.53-24.77-7.6-29.91-19.25a44.17,44.17,0,0,1-3.36-12.9,58.9,58.9,0,0,1-.35-7.38A104.6,104.6,0,0,1,17.77,43C19,35.66,21.22,27.8,26.32,22.21c4.65-5.09,11.62-7.45,18.25-8.55C58.45,11.36,76.8,12.49,87,23.41,96.25,33.28,95,47.78,92.57,60Z"/><path class="cls-3" d="M44.28,72.4a5.71,5.71,0,0,1-3-.86,5.81,5.81,0,0,1-2.66-4.74.47.47,0,0,1,.47-.48h0a.48.48,0,0,1,.48.47A4.72,4.72,0,0,0,46.27,71a.47.47,0,0,1,.63.23.48.48,0,0,1-.23.64A5.62,5.62,0,0,1,44.28,72.4Z"/><path class="cls-3" d="M52.93,86.71a.49.49,0,0,0-.6-.34,13.76,13.76,0,0,1-4.12.71.28.28,0,0,0-.08.54,7.4,7.4,0,0,0,4.46-.32A.49.49,0,0,0,52.93,86.71Z"/><g class="cls-13"><path class="cls-14" d="M64.63,76.84l.41.34A8.79,8.79,0,0,0,76,76.68c3.4-3.09,4-9.59-.33-12.22-5.05-3-13.08,1-13.39,7A6.88,6.88,0,0,0,64.63,76.84Z"/></g><g class="cls-13"><path class="cls-14" d="M31.87,71.82a6.84,6.84,0,0,1-2.34,5.38,4.12,4.12,0,0,1-.4.33,8.8,8.8,0,0,1-8.42,1.11,44,44,0,0,1-3.36-12.91,6,6,0,0,1,1.1-.85C23.47,61.82,31.52,65.83,31.87,71.82Z"/></g><path class="cls-3" d="M59.14,78.55c-.2-.23-.4-.48-.62-.7l-.33-.31L58,77.35l-.19-.13a.26.26,0,0,0-.33,0,.27.27,0,0,0-.05.33c0,.07.07.14.11.2a.35.35,0,0,0,.05.08,21.24,21.24,0,0,1-8.39,4,20.3,20.3,0,0,1-9.58-.29c-.34-.09-.45.39-.14.52a18.12,18.12,0,0,0,9.94.9,17.67,17.67,0,0,0,8.9-4.26l.29.33a.4.4,0,0,0,.56,0A.4.4,0,0,0,59.14,78.55Z"/><g class="cls-15"><path class="cls-16" d="M93.47,167.64l-.87,1.19a18.84,18.84,0,0,1-1.84,2.49,1.46,1.46,0,0,1-2.14,0c-2.09-2-2.89-5.09-5-7.09-1.14,2.32-2.27,4.64-3.45,6.93a.78.78,0,0,1-1.22.16l-1.56-1.84-.75-.87a4.13,4.13,0,0,1-.34-.39,1.32,1.32,0,0,0-.08-.15s0,.06,0,.07a6.3,6.3,0,0,0-.63,1l-.59,1a6.59,6.59,0,0,1-1.28,1.72s0,0,0,0a.76.76,0,0,1-1.32.12c-1.45-2.13-2.78-4.35-4.13-6.54a74.51,74.51,0,0,1-4.3,6.45c-.23.32-.78.53-1.08.14-1.24-1.58-2.48-3.16-3.73-4.72l0,.07a2.64,2.64,0,0,1-.37.59c-.24.4-.47.8-.72,1.2s-.53.85-.81,1.27a1.34,1.34,0,0,1-.68.65.77.77,0,0,1-1.28-.27c-.8-2.18-1.59-4.37-2.5-6.51a60.46,60.46,0,0,0-3,6.66.74.74,0,0,1-1.33.18c-2.18-3-2.94-6.69-4.76-9.86-1.68,3.09-3.27,6.22-4.81,9.38a.67.67,0,0,1-1.15,0q-2.25-4.32-4.48-8.64c-1.1,1.33-2.12,2.72-3.08,4.15.18-.82.35-1.62.51-2.42.71-1.07,1.47-2.11,2.28-3.11a.56.56,0,0,1,.86.11l4.44,8.11q2.25-4.74,4.78-9.34a.72.72,0,0,1,1.22,0c2.06,3,2.82,6.6,4.65,9.68a60.5,60.5,0,0,1,3.32-7,.75.75,0,0,1,1.3,0,57.79,57.79,0,0,1,3,7.41s0,0,0,0c.28-.55.58-1.09.89-1.63.41-.72.88-2.21,1.92-2.11.47,0,.74.46,1,.79l1.19,1.47,1.86,2.29c1.54-2.18,3-4.43,4.3-6.74a.74.74,0,0,1,1.26,0c1.49,2.36,3,4.68,4.47,7.08a19.83,19.83,0,0,1,1.09-2c.35-.64.7-1.7,1.47-1.95s1.48.54,2,1.08,1,1,1.43,1.54c1.1-2.3,2.24-4.57,3.36-6.86a.8.8,0,0,1,1.1-.29c2.41,1.73,3.53,4.45,5.21,6.79.21.28.42.56.65.81a.28.28,0,0,0,.09.1l.18-.25c.55-.76,1.09-1.53,1.63-2.29l1.83-2.55C93.38,165.79,93.42,166.73,93.47,167.64Z"/><path class="cls-16" d="M92.69,152.89h0l-.33.46a20.7,20.7,0,0,1-1.85,2.5,1.47,1.47,0,0,1-2.14-.06c-2.09-2-2.89-5.09-5-7.08-1.14,2.31-2.26,4.64-3.44,6.93a.78.78,0,0,1-1.22.16L77.13,154l-.74-.87a3.17,3.17,0,0,1-.34-.39l-.08-.14s0,.06,0,.07a5.6,5.6,0,0,0-.63,1l-.59,1a6.81,6.81,0,0,1-1.28,1.73l-.06,0a.75.75,0,0,1-1.31.12c-1.45-2.13-2.78-4.34-4.13-6.54a75.28,75.28,0,0,1-4.3,6.45.7.7,0,0,1-1.09.15c-1.24-1.58-2.47-3.16-3.72-4.73l-.06.07a2.22,2.22,0,0,1-.36.59l-.72,1.2c-.26.43-.54.85-.82,1.27s-.35.56-.67.66a.78.78,0,0,1-1.29-.27c-.8-2.19-1.58-4.37-2.49-6.51a60.52,60.52,0,0,0-3,6.66.74.74,0,0,1-1.33.17c-2.18-3-2.93-6.69-4.75-9.86-1.68,3.09-3.27,6.22-4.82,9.38a.67.67,0,0,1-1.15,0L33.62,148c.1-.61.21-1.21.31-1.82q2,3.63,4,7.26c1.49-3.17,3.1-6.27,4.78-9.34a.71.71,0,0,1,1.22,0c2.05,3,2.82,6.6,4.65,9.68a61.46,61.46,0,0,1,3.31-7,.77.77,0,0,1,1.31,0,61,61,0,0,1,3,7.42v0c.29-.56.59-1.1.9-1.64.4-.71.88-2.21,1.92-2.1.46,0,.74.46,1,.78l1.2,1.47L63,154.91c1.53-2.18,3-4.42,4.3-6.74a.74.74,0,0,1,1.26,0c1.49,2.36,3.05,4.69,4.47,7.09a18.2,18.2,0,0,1,1.09-2c.35-.63.69-1.69,1.46-1.94s1.49.54,2,1.08L79,153.88c1.1-2.3,2.25-4.57,3.36-6.85a.81.81,0,0,1,1.11-.29c2.41,1.73,3.53,4.45,5.21,6.78a8.57,8.57,0,0,0,.64.82l.09.1.19-.26,1.63-2.28,1.26-1.76C92.58,151.07,92.64,152,92.69,152.89Z"/><path class="cls-16" d="M91.86,140.93c-.12.14-.24.29-.37.42a1.47,1.47,0,0,1-2.14-.06c-2.09-2-2.89-5.09-5-7.08-1.14,2.31-2.26,4.64-3.45,6.93a.78.78,0,0,1-1.22.16l-1.56-1.84-.75-.88a3.17,3.17,0,0,1-.34-.39c-.14-.28,0-.09-.07-.08a6.4,6.4,0,0,0-.63,1c-.19.32-.39.64-.59,1a6.64,6.64,0,0,1-1.28,1.73l0,0a.76.76,0,0,1-1.32.12c-1.45-2.12-2.77-4.34-4.13-6.53a72.85,72.85,0,0,1-4.3,6.44c-.23.32-.78.53-1.08.14-1.24-1.57-2.48-3.15-3.73-4.72l-.05.07a2.7,2.7,0,0,1-.37.6c-.24.39-.47.79-.72,1.19s-.53.85-.81,1.27a1.4,1.4,0,0,1-.68.66.77.77,0,0,1-1.28-.28c-.8-2.18-1.59-4.36-2.5-6.5a60.46,60.46,0,0,0-3,6.66.74.74,0,0,1-1.33.17c-2.18-3-2.94-6.69-4.76-9.86q-2.51,4.63-4.81,9.38a.67.67,0,0,1-1.15,0l-2.68-5.16.3-1.94,2.91,5.31q2.25-4.75,4.78-9.35a.72.72,0,0,1,1.22,0c2.06,3,2.82,6.61,4.65,9.69a60.64,60.64,0,0,1,3.32-7,.76.76,0,0,1,1.3,0,58.51,58.51,0,0,1,3,7.42l0,0c.28-.55.58-1.08.89-1.63.41-.71.89-2.21,1.92-2.1.47,0,.74.45,1,.78l1.19,1.47L64,140.41c1.54-2.18,3-4.42,4.3-6.73a.73.73,0,0,1,1.26,0c1.5,2.35,3.05,4.68,4.47,7.08a18,18,0,0,1,1.09-2c.36-.65.7-1.71,1.47-1.95s1.48.54,2,1.08L80,139.38c1.1-2.3,2.24-4.57,3.36-6.85a.8.8,0,0,1,1.1-.29C86.89,134,88,136.68,89.69,139a9.89,9.89,0,0,0,.64.81.41.41,0,0,0,.09.1,2.5,2.5,0,0,1,.19-.26l1-1.46C91.72,139.13,91.8,140,91.86,140.93Z"/><path class="cls-16" d="M90.43,126.13c-1.74-2-2.57-4.72-4.51-6.55-1.14,2.32-2.26,4.65-3.44,6.94a.79.79,0,0,1-1.23.15l-1.56-1.84L79,124a3.06,3.06,0,0,1-.34-.39l-.08-.15s0,.07,0,.08a5.28,5.28,0,0,0-.63,1l-.59,1A6.59,6.59,0,0,1,76,127.21l-.06,0a.76.76,0,0,1-1.31.12c-1.45-2.13-2.78-4.35-4.13-6.54a76.88,76.88,0,0,1-4.3,6.45c-.24.32-.78.53-1.09.14-1.24-1.57-2.48-3.15-3.73-4.72l-.05.07a2.39,2.39,0,0,1-.36.59l-.72,1.2c-.26.43-.54.85-.82,1.27a1.43,1.43,0,0,1-.67.66.77.77,0,0,1-1.29-.28c-.8-2.18-1.58-4.37-2.49-6.5a57.72,57.72,0,0,0-3,6.65.75.75,0,0,1-1.34.18c-2.18-3-2.93-6.69-4.75-9.86q-2.52,4.63-4.82,9.38a.67.67,0,0,1-1.15,0l-2.22-4.27c.1-.67.19-1.34.29-2l2.47,4.49q2.23-4.74,4.78-9.34a.72.72,0,0,1,1.22,0c2.05,3,2.82,6.6,4.65,9.68a62.12,62.12,0,0,1,3.31-7,.76.76,0,0,1,1.31,0A58.77,58.77,0,0,1,58.69,125l0,0c.28-.55.59-1.09.89-1.63.41-.71.89-2.21,1.93-2.11.46.05.74.47,1,.79l1.2,1.47,1.86,2.29q2.31-3.27,4.29-6.74a.74.74,0,0,1,1.27,0c1.49,2.36,3,4.68,4.47,7.09a17.38,17.38,0,0,1,1.09-2c.35-.64.69-1.7,1.46-1.94s1.48.54,2,1.07l1.42,1.54c1.1-2.3,2.25-4.57,3.36-6.86a.81.81,0,0,1,1.11-.28,15.36,15.36,0,0,1,3.9,4.77C90.12,123.62,90.28,124.87,90.43,126.13Z"/></g><path class="cls-1" d="M135.66,194.16c.28-2.33-11.75-7.52-17.34-10.43-.21-1.08-.43-2.26-.65-3.49-.59-4-1.34-8.07-2.24-12.12-.4-1.9-.8-3.68-1.21-5.18h0a229.61,229.61,0,0,0-14.75-41c-8.49,1-13.3,2.48-21.18,5.78q13,20.49,24.07,42.17c2.25,6.19,6,14.58,7.76,20.31-.23,1.8-.95,6.66-1.57,7.94a30.53,30.53,0,0,0-2.19,4.76c-.37,1.29-.49,1.2.63,1.93a2.33,2.33,0,0,0,2.78.1c2.4-1.34,2.9-4.4,4.11-6.92.1-.09.22-.18.32-.28,2.44,3.21,9.55,12.23,11.5,11,.62-.37.68-1.25.63-2-.1-1.54-3.72-6.55-4.74-7.76h0c1.2,1.5,6.2,6.55,7.88,7.39a2.56,2.56,0,0,0,1.79.36,1.93,1.93,0,0,0,1.15-2.17,5.44,5.44,0,0,0-1.21-2.36c-.93-1.24-4-3.93-5.38-5.44a1.17,1.17,0,0,0,0-.27,49.16,49.16,0,0,1,4.27,3,5.29,5.29,0,0,0,2.17,1.17,1.87,1.87,0,0,0,2.08-1,2.55,2.55,0,0,0-.61-2.29c-.89-1.24-4.65-3.89-6.63-5.15,1.73,1,5.32,2.94,6.26,3C134.5,195.52,135.53,195.29,135.66,194.16Z"/><path class="cls-9" d="M88.6,147.11a160.11,160.11,0,0,0,20.75-8.64c-2.38-7.69-6.41-17.84-10.91-24.51S88,105.79,80,105c-4.31,3.54-5.41,7.06-5.5,12.65A31.83,31.83,0,0,0,79,133.59,85.87,85.87,0,0,0,88.6,147.11Z"/></svg>