<svg id="Layer_1" data-name="Layer 1" xmlns="http://www.w3.org/2000/svg" viewBox="0 0 140 260"><defs><style>.cls-1{fill:#3d1f13;stroke:#2d1209;stroke-miterlimit:10;}.cls-2{fill:#2b1007;}.cls-3{fill:#ea9678;}.cls-4{fill:#472113;}.cls-5{fill:#ad2409;opacity:0.39;}</style></defs><path class="cls-1" d="M76.38,104.76a48.59,48.59,0,0,0,22.59,31c1.28,15.38-4.29,31.35-14.23,43.16,5.22.89,10.48,1.66,15.75,1.26s10.63-2.24,14.27-6.07c4.31-4.53,5.63-11.08,6.25-17.3,1.34-13.54-6-49.35-15.13-59.86-4.74-5.44-9-6.86-16.09-8.13C72.57,78.56,28.38,68.16,19.28,111.06c-1.94,9.15,3,25,3.58,25,5.19.16,12.15-2.43,15.45-3.76A74.1,74.1,0,0,0,48,127.58c2-1.14,3.88-2.36,5.74-3.65,8.15-5.61,15.39-12.44,22.36-19.47Z"/><path class="cls-2" d="M70.18,100.22a93.81,93.81,0,0,1-14.12,14.47,90,90,0,0,1-17,10.91,107.09,107.09,0,0,1-10.58,4.52c-.31.11-.19.6.14.51a78.64,78.64,0,0,0,18.63-8.33,87,87,0,0,0,16.19-12.66,78.64,78.64,0,0,0,7.59-8.72C71.46,100.4,70.58,99.72,70.18,100.22Z"/><path class="cls-2" d="M64.38,99.46A69.18,69.18,0,0,1,38.51,118.7c-.3.13-.09.65.22.53a63.35,63.35,0,0,0,21.44-13.69,58.23,58.23,0,0,0,4.9-5.39C65.46,99.67,64.79,99,64.38,99.46Z"/><path class="cls-2" d="M60.33,97c-5,4.91-10.09,10-16.48,13-.34.17,0,.66.3.52C50.77,107.73,56,102.69,61,97.67,61.4,97.26,60.75,96.61,60.33,97Z"/><path class="cls-2" d="M98.55,128.67a41.93,41.93,0,0,1-15.24-17.8,39.22,39.22,0,0,1-2.2-6.42.3.3,0,0,0-.57.16,39.65,39.65,0,0,0,12,20.72,35.66,35.66,0,0,0,5.55,4.15C98.6,129.79,99.05,129,98.55,128.67Z"/><path class="cls-2" d="M99,123.11a58.42,58.42,0,0,1-13.46-15,.28.28,0,0,0-.48.28A46.43,46.43,0,0,0,98.43,123.9C98.88,124.24,99.48,123.47,99,123.11Z"/><path class="cls-3" d="M94.82,143c-.24,3.55,1.69,5.54,6.28,5.6s8.79-3.24,8.92-7.62c.09-3.35-1.37-7.6-6-7.66S95.17,137.91,94.82,143Z"/><path class="cls-4" d="M101.07,148.91h-.13a9.27,9.27,0,0,1-4-.82.35.35,0,0,1-.16-.48.36.36,0,0,1,.48-.15,8.63,8.63,0,0,0,3.73.74h.13c4.5,0,8.23-3.21,8.34-7.2a8,8,0,0,0-1.86-5.71,5,5,0,0,0-3.69-1.5,8.23,8.23,0,0,0-6.24,3.15.35.35,0,1,1-.54-.46,9,9,0,0,1,6.79-3.4,5.7,5.7,0,0,1,4.2,1.72c2,2,2.08,5,2,6.22C110,145.4,106,148.91,101.07,148.91Z"/><path class="cls-5" d="M102.88,137.15a16.14,16.14,0,0,0-1.69,1.72c-.4.48-.77,1.18-.33,1.63s1.13.34,1.45.76-.07,1-.59,1.28-1.12.28-1.64.5a2.09,2.09,0,0,0-1.3,1.7,1.24,1.24,0,0,0,.15.73,1.69,1.69,0,0,0,1.9.52,4.33,4.33,0,0,0,1.68-1.17,14.48,14.48,0,0,0,2.79-3.49c1-2,1.58-7.69-2.42-4.18"/></svg>