<svg id="Layer_1" data-name="Layer 1" xmlns="http://www.w3.org/2000/svg" viewBox="0 0 50 30"><defs><style>.cls-1{fill:#3d2d17;}.cls-2,.cls-4{fill:#fff7f4;}.cls-2{stroke:#9e5643;stroke-miterlimit:10;stroke-width:0.75px;}.cls-3{fill:#472113;}.cls-5{fill:#bf6b60;}.cls-6{fill:#2d0805;}</style></defs><path class="cls-1" d="M35.91,8.77s6-2.55,9.2,4.67c.12.29.39.12.37-.23-.16-2.27-1-6.9-4.81-7.89-6-1.56-4.76,3.45-4.76,3.45"/><circle class="cls-2" cx="37.2" cy="19.35" r="5.76"/><path class="cls-3" d="M42.07,20.71a3.8,3.8,0,0,1-4,4.14,4,4,0,0,1-4.37-4.12c0-2.25,1.37-3.95,4.17-4A3.84,3.84,0,0,1,42.07,20.71Z"/><circle class="cls-4" cx="35.8" cy="17.61" r="1.82"/><circle class="cls-2" cx="12" cy="18.8" r="5.76"/><path class="cls-3" d="M16.87,20.15a3.8,3.8,0,0,1-4.06,4.14,4,4,0,0,1-4.36-4.12c-.06-2.24,1.37-3.94,4.17-4A3.84,3.84,0,0,1,16.87,20.15Z"/><circle class="cls-4" cx="10.59" cy="17.06" r="1.82"/><path class="cls-5" d="M42.67,21.14A5.84,5.84,0,0,0,43,19.35a5.76,5.76,0,1,0-11.19,1.9A20.51,20.51,0,0,0,42.67,21.14Z"/><path class="cls-5" d="M12,13A5.76,5.76,0,0,0,6.24,18.8a5.65,5.65,0,0,0,.31,1.85,20.4,20.4,0,0,0,10.91,0,5.61,5.61,0,0,0,.29-1.8A5.75,5.75,0,0,0,12,13Z"/><path class="cls-6" d="M6.25,20.45a27.53,27.53,0,0,0,2.88.49,22.74,22.74,0,0,0,2.85.19A24.72,24.72,0,0,0,14.83,21c1-.08,1.91-.27,2.92-.39A9.61,9.61,0,0,1,15,21.82a11,11,0,0,1-3,.39,11.29,11.29,0,0,1-3-.44A8.14,8.14,0,0,1,6.25,20.45Z"/><path class="cls-6" d="M31.6,21.11c1,.19,1.88.32,2.81.41a21.64,21.64,0,0,0,2.78.13A25.91,25.91,0,0,0,40,21.49c.93-.09,1.86-.26,2.83-.38a11.25,11.25,0,0,1-5.6,1.49,11.37,11.37,0,0,1-2.91-.35A8.21,8.21,0,0,1,31.6,21.11Z"/><path class="cls-1" d="M14.09,8.64s-6-2.54-9.2,4.68c-.12.29-.39.12-.37-.23.16-2.28,1-6.91,4.81-7.89,6-1.56,4.76,3.44,4.76,3.44"/></svg>