<svg id="Layer_1" data-name="Layer 1" xmlns="http://www.w3.org/2000/svg" viewBox="0 0 110 50"><defs><style>.cls-1{fill:#ea9678;stroke:#662f1e;stroke-miterlimit:10;}.cls-2{fill:#991414;}.cls-3{fill:#472113;}</style></defs><path class="cls-1" d="M14.89,23.64c-2.61.13-6.25.42-7.81.29A7.16,7.16,0,0,1,4,23.16a2,2,0,0,1-1-2.52,3,3,0,0,1,1.75-1.18c1.41-.49,5.74-.8,9.12-.9a1.18,1.18,0,0,1,.12-.33c-2.79-.34-6.14-.89-7.08-1.57-.69-.49-1.43-1.19-1.28-2,.5-2.49,14.69-1.51,19.3-1.12-1.23-3-3.92-5.8-3.17-8.89A2.58,2.58,0,0,1,24,2.53c1.54-.36,1.37-.34,2.23.91a33.19,33.19,0,0,1,2.54,5.27c.66,1.44,4.65,6.38,6.08,7.89,6.33,2.68,12.67,5.59,19.05,8.23l5.47,1.11,3.41-1.75c7.83-4,15.93-8.17,24.13-11.66a.5.5,0,0,1,.64.21c1.85,3.56,3.58,7.2,5.25,10.72s3.39,7.14,5.23,10.68a.44.44,0,0,1,0,.37.48.48,0,0,1-.28.26c-7.51,3-15.26,5.81-23,8.21a53.22,53.22,0,0,1-5.94,1.57,21.46,21.46,0,0,1-5.36.38c-4-.26-7.68-2-11.41-3.8l-3.18-1.58c-6.7-3.32-14.18-7-20.47-10.55-7,2.4-15.73,6.43-17.56,4.54-.91-.94-.3-1.94.7-2.76.83-.68,5.42-2.16,7.7-2.81-2.71.67-8.07,1.75-9.89,1.55a3.19,3.19,0,0,1-2.55-1.2,1.9,1.9,0,0,1,.79-2.38,6.59,6.59,0,0,1,2.77-.88c.71-.11,3.5-.57,5.28-1l-.32-.14A4.24,4.24,0,0,1,14.89,23.64Z"/><path class="cls-2" d="M63.34,23.59A102,102,0,0,0,76.58,47c7.87-3.15,15.26-7.89,22.08-12.92,15.6-11.48,6.08-27.65.73-29.92C95.59,2.56,84.67,1.41,63.34,23.59Z"/><path class="cls-3" d="M76.68,47.67a.59.59,0,0,0,.22-.05c7.89-4.15,14.47-7.94,20.91-13a.53.53,0,0,0,.11-.71.47.47,0,0,0-.68-.11A131.22,131.22,0,0,1,76.83,46.51,102.14,102.14,0,0,1,64.75,23.83C79.64,7.47,89,4,94.28,4a.5.5,0,0,0,.48-.52A.49.49,0,0,0,94.28,3h0C88.81,3,79.09,6.54,63.83,23.36a.53.53,0,0,0-.1.54A103.74,103.74,0,0,0,76.3,47.47.46.46,0,0,0,76.68,47.67Z"/></svg>