<svg id="Layer_1" data-name="Layer 1" xmlns="http://www.w3.org/2000/svg" viewBox="0 0 60 40"><defs><style>.cls-1{fill:#3d2d17;}.cls-2,.cls-4{fill:#fff7f4;}.cls-2{stroke:#9e5643;stroke-miterlimit:10;stroke-width:0.75px;}.cls-3{fill:#472113;}.cls-5{fill:#ea985d;}.cls-6{fill:#3a1b07;}</style></defs><path class="cls-1" d="M12,15.28S4.15,16.4,3.46,26.54c0,.41-.4.39-.51,0-.72-2.65-1.63-8.35,2.29-12,6.18-5.71,6.71.73,6.71.73"/><ellipse class="cls-2" cx="15.49" cy="28.4" rx="7.41" ry="6.86" transform="translate(-0.36 0.2) rotate(-0.73)"/><path class="cls-3" d="M22,28.75c.67,2.6-.48,5.06-4,5.85s-5.94-1.09-6.62-3.7.66-4.94,4.17-5.73S21.31,26.14,22,28.75Z"/><ellipse class="cls-4" cx="12.39" cy="27.22" rx="2.35" ry="2.17" transform="translate(-0.35 0.16) rotate(-0.73)"/><path class="cls-1" d="M44.48,8.73s7.6-2,12.74,7c.2.36.54.2.45-.21-.52-2.69-2.22-8.23-7.4-10-8.16-2.82-5.79,3.25-5.79,3.25"/><ellipse class="cls-2" cx="47.09" cy="22.03" rx="7.41" ry="6.86" transform="translate(-0.28 0.61) rotate(-0.73)"/><path class="cls-3" d="M41.33,24.85c.54,2.63,2.68,4.43,6.22,3.8s4.92-3.28,4.38-5.91-2.8-4.25-6.34-3.62S40.79,22.22,41.33,24.85Z"/><ellipse class="cls-4" cx="43.83" cy="20.09" rx="2.35" ry="2.17" transform="translate(-0.25 0.56) rotate(-0.73)"/><path class="cls-5" d="M8.25,29.86a6.91,6.91,0,0,1,5.68-8.17,7.42,7.42,0,0,1,8.8,5.25,6.77,6.77,0,0,1,.15,1.84C11.93,32.59,9,31.79,9,31.79A6.25,6.25,0,0,1,8.25,29.86Z"/><path class="cls-5" d="M54.45,22.76a6.45,6.45,0,0,0-.12-2.18,7.4,7.4,0,0,0-8.8-5.25,6.89,6.89,0,0,0-5.68,8.16,6.59,6.59,0,0,0,1,2.3C41.71,25.89,45.17,26,54.45,22.76Z"/><path class="cls-6" d="M9,31.79c2.36-.45,4.64-.87,6.93-1.41s4.55-1.13,6.91-1.6a24.61,24.61,0,0,1-6.69,2.58A20,20,0,0,1,9,31.79Z"/><path class="cls-6" d="M40.92,25.83c2.33-.53,4.6-.94,6.87-1.49s4.49-1.16,6.82-1.68A22.42,22.42,0,0,1,48,25.32,21.43,21.43,0,0,1,40.92,25.83Z"/></svg>