<svg id="Layer_1" data-name="Layer 1" xmlns="http://www.w3.org/2000/svg" viewBox="0 0 80 50"><defs><style>.cls-1,.cls-4{fill:#fff;}.cls-1{stroke:#1e2317;stroke-miterlimit:10;}.cls-2{fill:#522f24;}.cls-3{fill:#964f3c;}.cls-5{fill:#e29674;}.cls-6{fill:#280e06;}</style></defs><ellipse class="cls-1" cx="19.9" cy="32.99" rx="10.78" ry="12.16"/><ellipse class="cls-1" cx="63.05" cy="28.99" rx="8.69" ry="11.18"/><path class="cls-2" d="M21.84,28.55c5.56,0,7.79,5.71,7.44,10.81a17.32,17.32,0,0,1-5.82,5.1c-3.29,1.43-6.92.47-10.41-2.26C11.19,35.3,15.86,28.55,21.84,28.55Z"/><path class="cls-2" d="M64.35,23.43c4.94,0,6,7,6.4,10.73C70,38.41,62.58,42.7,58.18,38,56.46,31.62,59.75,23.43,64.35,23.43Z"/><path class="cls-3" d="M68.77,29s3.61,9-5.72,9.71A11.3,11.3,0,0,0,68.77,29Z"/><path class="cls-3" d="M27,33.85s3.61,9-5.72,9.71A11.29,11.29,0,0,0,27,33.85Z"/><circle class="cls-4" cx="60.05" cy="27.32" r="2.33"/><circle class="cls-4" cx="16.21" cy="31.74" r="2.33"/><path class="cls-2" d="M30.68,8.43v4.63S9.17,7.5,6.35,19c0,0,0-13.66,18.72-9.84a3,3,0,0,1,2.63,1.74c.59,1.69.72-2.43.72-2.43l.9,3.05Z"/><path class="cls-2" d="M54.82,4.86V9.49s16.65-5.56,18.83,5.9c0,0,0-13.66-14.49-9.84a2.28,2.28,0,0,0-2,1.74c-.46,1.69-.56-2.43-.56-2.43l-.69,3.05Z"/><path class="cls-5" d="M19.9,20.83c-5.89,0-10.67,5.33-10.77,12,3.88-2.13,12.46-5.86,21.13-3.13C29,24.56,24.83,20.83,19.9,20.83Z"/><path class="cls-6" d="M9.13,32.79a18.2,18.2,0,0,1,4.76-2.92,23.75,23.75,0,0,1,5.36-1.64A19.81,19.81,0,0,1,24.9,28a14.3,14.3,0,0,1,5.36,1.64,51.83,51.83,0,0,0-5.41-.08,46.12,46.12,0,0,0-5.25.62c-1.73.31-3.47.69-5.2,1.14S10.93,32.28,9.13,32.79Z"/><path class="cls-5" d="M71.1,24.78c-1.3-4.09-4.41-7-8-7-4.64,0-8.41,4.67-8.67,10.56C57.88,26.55,64.25,24,71.1,24.78Z"/><path class="cls-6" d="M54,28.55a14.46,14.46,0,0,1,3.79-2.79,19.27,19.27,0,0,1,4.43-1.68A16.4,16.4,0,0,1,67,23.66a11.79,11.79,0,0,1,4.58,1.17A44.89,44.89,0,0,0,67,25a31.93,31.93,0,0,0-4.37.76A70.55,70.55,0,0,0,54,28.55Z"/></svg>