<svg id="Layer_1" data-name="Layer 1" xmlns="http://www.w3.org/2000/svg" viewBox="0 0 80 50"><defs><style>.cls-1,.cls-4{fill:#fff;}.cls-1{stroke:#1e2317;stroke-miterlimit:10;}.cls-2{fill:#522f24;}.cls-3{fill:#964f3c;}.cls-5{fill:#e29674;}.cls-6{fill:#280e06;}</style></defs><ellipse class="cls-1" cx="19.9" cy="32.99" rx="10.78" ry="12.16"/><ellipse class="cls-1" cx="63.05" cy="28.99" rx="8.69" ry="11.18"/><path class="cls-2" d="M21.84,28.55c5.56,0,7.79,5.71,7.44,10.81a17.32,17.32,0,0,1-5.82,5.1c-3.29,1.43-6.92.47-10.41-2.26C11.19,35.3,15.86,28.55,21.84,28.55Z"/><path class="cls-2" d="M64.35,23.43c4.94,0,6,7,6.4,10.73C70,38.41,62.58,42.7,58.18,38,56.46,31.62,59.75,23.43,64.35,23.43Z"/><path class="cls-3" d="M68.77,29s3.61,9-5.72,9.71A11.3,11.3,0,0,0,68.77,29Z"/><path class="cls-3" d="M27,33.85s3.61,9-5.72,9.71A11.29,11.29,0,0,0,27,33.85Z"/><circle class="cls-4" cx="60.05" cy="27.32" r="2.33"/><circle class="cls-4" cx="16.21" cy="31.74" r="2.33"/><path class="cls-2" d="M30.68,8.43v4.63S9.17,7.5,6.35,19c0,0,0-13.66,18.72-9.84a3,3,0,0,1,2.63,1.74c.59,1.69.72-2.43.72-2.43l.9,3.05Z"/><path class="cls-2" d="M54.82,4.86V9.49s16.65-5.56,18.83,5.9c0,0,0-13.66-14.49-9.84a2.28,2.28,0,0,0-2,1.74c-.46,1.69-.56-2.43-.56-2.43l-.69,3.05Z"/><ellipse class="cls-5" cx="63.05" cy="28.99" rx="8.69" ry="11.18"/><ellipse class="cls-5" cx="19.9" cy="32.99" rx="10.78" ry="12.16"/><path class="cls-6" d="M10,37.89A7.7,7.7,0,0,0,12,40.35a16,16,0,0,0,2.59,1.77,12,12,0,0,0,5.8,1.6,9,9,0,0,0,5.53-1.94,23.15,23.15,0,0,0,4.39-4.68,13.33,13.33,0,0,1-3.42,5.82,9.49,9.49,0,0,1-2.94,2,9.62,9.62,0,0,1-3.54.73,11.36,11.36,0,0,1-6.62-2.26A12.49,12.49,0,0,1,11.32,41,6.21,6.21,0,0,1,10,37.89Z"/><path class="cls-6" d="M55.09,34.33a13.22,13.22,0,0,0,3.83,3.55A7.88,7.88,0,0,0,63.58,39,8.48,8.48,0,0,0,68,37.15a14.32,14.32,0,0,0,3.37-4A9.07,9.07,0,0,1,69,38.2a8.38,8.38,0,0,1-5.27,2.57,8,8,0,0,1-5.61-1.72A8.73,8.73,0,0,1,55.09,34.33Z"/></svg>