<svg xmlns="http://www.w3.org/2000/svg" xmlns:xlink="http://www.w3.org/1999/xlink" viewBox="0 0 280 420"><defs><style>.cls-1{isolation:isolate;}.cls-11,.cls-12,.cls-2,.cls-3,.cls-30,.cls-38{stroke:#99501f;}.cls-11,.cls-12,.cls-14,.cls-19,.cls-2,.cls-23,.cls-24,.cls-25,.cls-26,.cls-3,.cls-30,.cls-31,.cls-34,.cls-38,.cls-5{stroke-miterlimit:10;}.cls-2{fill:url(#Áåçûìÿííûé_ãðàäèåíò_94);}.cls-3{fill:url(#Áåçûìÿííûé_ãðàäèåíò_94-2);}.cls-4{opacity:0.28;}.cls-17,.cls-20,.cls-27,.cls-4,.cls-9{mix-blend-mode:multiply;}.cls-5{fill:#ebc34b;}.cls-24,.cls-5{stroke:#603919;}.cls-6{fill:#597800;}.cls-7{fill:url(#linear-gradient);}.cls-8{fill:url(#Áåçûìÿííûé_ãðàäèåíò_67);}.cls-9{opacity:0.35;}.cls-10{fill:#e28c6a;}.cls-11{fill:url(#Áåçûìÿííûé_ãðàäèåíò_94-3);}.cls-12{fill:url(#Áåçûìÿííûé_ãðàäèåíò_94-4);}.cls-13{fill:url(#Áåçûìÿííûé_ãðàäèåíò_98);}.cls-14,.cls-34{stroke:#20307f;}.cls-14{fill:url(#Áåçûìÿííûé_ãðàäèåíò_88);}.cls-15{fill:url(#Áåçûìÿííûé_ãðàäèåíò_98-2);}.cls-16{fill:#fff;}.cls-17,.cls-36{opacity:0.23;}.cls-17{fill:url(#Áåçûìÿííûé_ãðàäèåíò_98-4);}.cls-18{fill:#94d143;}.cls-19{fill:none;stroke:#5b7f21;}.cls-21{fill:url(#Áåçûìÿííûé_ãðàäèåíò_140);}.cls-22,.cls-33{fill:#a65635;}.cls-23,.cls-25{stroke:#476e7f;}.cls-23{fill:url(#Áåçûìÿííûé_ãðàäèåíò_41);}.cls-24,.cls-26{fill:#ff262c;}.cls-25{fill:url(#Áåçûìÿííûé_ãðàäèåíò_41-2);}.cls-26{stroke:#5e1919;}.cls-27{opacity:0.45;}.cls-28{fill:url(#Áåçûìÿííûé_ãðàäèåíò_132);}.cls-29,.cls-31{fill:#c30c24;}.cls-30{fill:url(#Áåçûìÿííûé_ãðàäèåíò_30);}.cls-31{stroke:#420909;}.cls-32{fill:#2e1b2d;}.cls-33,.cls-37{opacity:0.34;}.cls-34{fill:url(#Áåçûìÿííûé_ãðàäèåíò_125);}.cls-35{fill:#f72e0f;}.cls-35,.cls-36{mix-blend-mode:screen;}.cls-36,.cls-37,.cls-41{fill:#22bdf0;}.cls-38{fill:url(#linear-gradient-2);}.cls-39{fill:#99501f;}.cls-40{fill:#fffbf8;}.cls-42{fill:#ed7e7e;}</style><linearGradient id="Áåçûìÿííûé_ãðàäèåíò_94" x1="-125.81" y1="264.59" x2="-112.46" y2="264.59" gradientTransform="matrix(-1, 0, 0, 1, 142.27, 0)" gradientUnits="userSpaceOnUse"><stop offset="0.12" stop-color="#ffc185"/><stop offset="0.22" stop-color="#f1b17a"/><stop offset="0.42" stop-color="#da9669"/><stop offset="0.61" stop-color="#cc865e"/><stop offset="0.75" stop-color="#c7805a"/></linearGradient><linearGradient id="Áåçûìÿííûé_ãðàäèåíò_94-2" x1="-121.84" y1="270.05" x2="-108.49" y2="270.05" xlink:href="#Áåçûìÿííûé_ãðàäèåíò_94"/><linearGradient id="linear-gradient" x1="49.8" y1="-19.55" x2="-26.92" y2="171.41" gradientTransform="matrix(-1, 0, 0, 1, 142.27, 0)" gradientUnits="userSpaceOnUse"><stop offset="0.2" stop-color="#691414"/><stop offset="0.41" stop-color="#5f1712"/><stop offset="0.76" stop-color="#43210b"/><stop offset="0.77" stop-color="#42210b"/></linearGradient><radialGradient id="Áåçûìÿííûé_ãðàäèåíò_67" cx="57.3" cy="744.71" r="125.32" gradientTransform="matrix(-1.25, 0, 0, 1.12, 257.49, -663.72)" gradientUnits="userSpaceOnUse"><stop offset="0" stop-color="#ffce9e"/><stop offset="0.45" stop-color="#ffce9e"/><stop offset="0.56" stop-color="#f8c495"/><stop offset="0.76" stop-color="#e4a87d"/><stop offset="1" stop-color="#c7805a"/></radialGradient><linearGradient id="Áåçûìÿííûé_ãðàäèåíò_94-3" x1="-115.6" y1="274.96" x2="-102.25" y2="274.96" xlink:href="#Áåçûìÿííûé_ãðàäèåíò_94"/><linearGradient id="Áåçûìÿííûé_ãðàäèåíò_94-4" x1="-94.93" y1="276.3" x2="8.41" y2="276.3" xlink:href="#Áåçûìÿííûé_ãðàäèåíò_94"/><linearGradient id="Áåçûìÿííûé_ãðàäèåíò_98" x1="-38.01" y1="239.54" x2="1.42" y2="284.25" gradientTransform="matrix(-1, 0, 0, 1, 142.27, 0)" gradientUnits="userSpaceOnUse"><stop offset="0.2" stop-color="#94d143"/><stop offset="0.98" stop-color="#78a836"/></linearGradient><linearGradient id="Áåçûìÿííûé_ãðàäèåíò_88" x1="-95.52" y1="325.81" x2="11.54" y2="367.46" gradientTransform="matrix(-1, 0, 0, 1, 142.27, 0)" gradientUnits="userSpaceOnUse"><stop offset="0.12" stop-color="#22bdf0"/><stop offset="0.25" stop-color="#1bb6e9"/><stop offset="0.69" stop-color="#07a1d4"/><stop offset="0.98" stop-color="#009acc"/></linearGradient><linearGradient id="Áåçûìÿííûé_ãðàäèåíò_98-2" x1="3.95" y1="261.34" x2="100.8" y2="323.63" xlink:href="#Áåçûìÿííûé_ãðàäèåíò_98"/><linearGradient id="Áåçûìÿííûé_ãðàäèåíò_98-4" x1="3.55" y1="264.97" x2="99.15" y2="326.45" xlink:href="#Áåçûìÿííûé_ãðàäèåíò_98"/><linearGradient id="Áåçûìÿííûé_ãðàäèåíò_140" x1="-4836.98" y1="2020.29" x2="-4805" y2="1986.62" gradientTransform="matrix(-0.48, 0.41, 0.06, 0.65, -2359.92, 797.09)" gradientUnits="userSpaceOnUse"><stop offset="0.12" stop-color="#d48f4a"/><stop offset="0.22" stop-color="#d59350"/><stop offset="0.36" stop-color="#da9d61"/><stop offset="0.52" stop-color="#e0af7e"/><stop offset="0.69" stop-color="#eac7a5"/><stop offset="0.87" stop-color="#f5e6d7"/><stop offset="1" stop-color="#fff"/></linearGradient><linearGradient id="Áåçûìÿííûé_ãðàäèåíò_41" x1="-48.21" y1="324" x2="60.11" y2="296.35" gradientTransform="matrix(-1, 0, 0, 1, 142.27, 0)" gradientUnits="userSpaceOnUse"><stop offset="0.11" stop-color="#ebe2ff"/><stop offset="0.18" stop-color="#e9dfff"/><stop offset="0.64" stop-color="#dfcfff"/><stop offset="1" stop-color="#dcc9ff"/></linearGradient><linearGradient id="Áåçûìÿííûé_ãðàäèåíò_41-2" x1="-116.02" y1="251.78" x2="-70.2" y2="306.88" xlink:href="#Áåçûìÿííûé_ãðàäèåíò_41"/><linearGradient id="Áåçûìÿííûé_ãðàäèåíò_132" x1="-87.88" y1="330.77" x2="54.19" y2="330.77" gradientTransform="matrix(-1, 0, 0, 1, 142.27, 0)" gradientUnits="userSpaceOnUse"><stop offset="0" stop-color="#fff"/><stop offset="0.89" stop-color="#c1272d"/></linearGradient><linearGradient id="Áåçûìÿííûé_ãðàäèåíò_30" x1="50.48" y1="295.9" x2="103.32" y2="354.6" gradientTransform="matrix(-1, 0, 0, 1, 142.27, 0)" gradientUnits="userSpaceOnUse"><stop offset="0.12" stop-color="#ffc185"/><stop offset="0.26" stop-color="#f1b17a"/><stop offset="0.55" stop-color="#da9669"/><stop offset="0.8" stop-color="#cc865e"/><stop offset="1" stop-color="#c7805a"/></linearGradient><linearGradient id="Áåçûìÿííûé_ãðàäèåíò_125" x1="-37.16" y1="313.18" x2="65.38" y2="410.07" gradientTransform="matrix(-1, 0, 0, 1, 142.27, 0)" gradientUnits="userSpaceOnUse"><stop offset="0.35" stop-color="#22bdf0"/><stop offset="0.44" stop-color="#1bb6e9"/><stop offset="0.76" stop-color="#07a1d4"/><stop offset="0.98" stop-color="#009acc"/></linearGradient><linearGradient id="linear-gradient-2" x1="34.81" y1="316.35" x2="45.47" y2="328.2" gradientTransform="matrix(-1, 0, 0, 1, 142.27, 0)" gradientUnits="userSpaceOnUse"><stop offset="0.12" stop-color="#ffc185"/><stop offset="0.59" stop-color="#f1b87f"/><stop offset="1" stop-color="#ebb47c"/></linearGradient></defs><g class="cls-1"><g id="Layer_1" data-name="Layer 1"><path class="cls-2" d="M262.93,259.84s7.38.54,6.24,6.55-9.07,1.63-8.5-2.19S262.93,259.84,262.93,259.84Z"/><path class="cls-3" d="M259,265.29s7.38.55,6.24,6.55-9.07,1.64-8.5-2.18S259,265.29,259,265.29Z"/><path class="cls-4" d="M136.24,365c54.69-5.35,100.49,0,95.92,25.12-5.45,30-105.06,22.33-171.29,16.75s-69.52-32.69-32-41.87C74.57,353.79,79.14,370.54,136.24,365Z"/><path class="cls-5" d="M190.85,374.42s35-30,45.23-13.49c3,4.77-.36,16.33-17.13,25.15-15.79,8.29-33.32,13.85-47.28,5.52C142.89,374.42,190.85,374.42,190.85,374.42Z"/><path class="cls-5" d="M142.69,383s-1.23,8.3-14.32,14.22-32.23,5-34.39-.64,19.09-24.62,23.76-24.79S142.69,383,142.69,383Z"/><path class="cls-6" d="M182.4,298.05c4,3.27,26.09-28.39,17-37.12l-21,6.55v21.29Z"/><path class="cls-7" d="M94.65,205.79c-18.48,9.71-44.81-12.55-50.48-33.29S54.38,109.18,55,92.25s7.37-52.4,39.13-73.69,88.48-6,112.3,7.1,46.51,31.11,48.77,49.13-30.05,49.12-34.59,62.77,4.54,31.66,10.77,26.2,11.91-4.36,5.11,9.83c0,0,4.54-8.74,10.77-4.37s-7.37,27.29-30.62,37.12-83.94,2.73-93-6c0,0,1.94,3.32-6,3.32S100.89,202.52,94.65,205.79Z"/><path class="cls-8" d="M72.37,121.73c2.95-2.19,6.08-2.38,9.54-.89l.35.49h0l.48.71,0,0c.15.23.3.45.44.69l.07.11c.14.21.28.44.41.66l.09.16.37.65.12.22q.16.3.33.63a2.1,2.1,0,0,1,.13.26c.11.2.21.41.3.61l.15.32c.09.19.18.39.26.59s.11.24.16.36.16.39.23.58l.15.41.21.57.15.44.18.55c0,.17.1.33.14.49s.11.36.16.54.08.36.13.54l.12.52c0,.19.08.38.12.58s.07.33.1.5.07.43.1.64,0,.31.08.47,0,.49.08.74,0,.26,0,.39c0,.38.07.77.08,1.16s0,.85.09,1.27.07.81.12,1.21h0a25,25,0,0,0,4,11.52q.21.3.42.57l.06.07.39.47c0,.06.11.12.16.19l.3.32c.17.17.33.34.5.49,1.84,1.67,3.78,2.19,5.3,1.36,4-2.19,1.7-9.28,1.7-9.28s.85,5.77-3,4.77c-.58-.15-.25.1-1.06-.4-3.29-2,4.2-7.76,8.61-12.77,2.54-2.9,3-4.79,3.79-8.61,7.82,4.81,12.29,2.28,26.27-1,23.26-5.45,30.63-22.38,30.63-22.38-2.27,6.55-1.7,17.47,7.94,13.1S189.2,97.71,189.2,97.71s-7.37,22.38,6.24,15.83A52.14,52.14,0,0,0,219,90c-.08,17.18-5.22,34.93-5.22,64.49,0,26.34-20.9,52.8-66.53,46.5-3,4.85-4.55,6.48-4.55,13.58,0,14.24,9.07,7.65,9.07,7.65S141,245.64,128,243.46s-31.76-25.11-31.76-25.11l6.61-12.24c6.29-2.36,11.5-5.84,14.38-10.14,10.2-15.29,5.67-37.67.56-34.94-2.74,1.47-4.66,5.77-5.86,9.44.72-7.55-1.32-18-4.35-19.26-4-1.64-2.59,7.42-11.1,5.78a6.29,6.29,0,0,1-2.91-1.49c-.28-.81-.54-1.62-.8-2.43-.31.15-.63.29-1,.43-5.45,2.37-13.36,4.16-18.82-1.75a44.93,44.93,0,0,1-4.86-6.19C62.93,137.49,62.47,129.1,72.37,121.73Z"/><g class="cls-9"><path class="cls-10" d="M89,144.41a21.5,21.5,0,0,0,2.87,6.06q.21.3.42.57l.06.07.39.47c0,.06.11.12.16.19l.3.32c.17.17.33.34.5.49,1.84,1.67,3.78,2.19,5.3,1.36,4-2.19,1.7-9.28,1.7-9.28s.85,5.77-3,4.77c-.58-.15-.28.33-1.1-.17-3.28-2-3.48-4.18,1.85-8.21,5.1-3.85,7-9.58,10.73-13.55,7.83,4.8,12.15,2.43,26.13-.86C152,122.74,160.48,113,164,107.71c-17.68,29.21-38.23,21.77-50.53,30.45-3.82,2.69-5.5,7.75-4.89,13.85a2.65,2.65,0,0,0-1-.8c-4-1.64-2.59,7.42-11.1,5.78a6.29,6.29,0,0,1-2.91-1.49c-.28-.81-.54-1.62-.8-2.43-.31.15-.63.29-1,.43a28.7,28.7,0,0,1-5.51,1.8A36.42,36.42,0,0,0,89,144.41Z"/><path class="cls-10" d="M117.18,196a38.22,38.22,0,0,0,5.93-17.53c-1.07,3.26-.26,9.34,9.86,15.55s14.28,6.95,14.28,6.95a44.4,44.4,0,0,0-5,11.95c-3.06,13.91,9.56,9.28,9.56,9.28S141,245.64,128,243.46s-31.76-25.11-31.76-25.11l6.61-12.24C109.09,203.75,114.3,200.27,117.18,196Z"/><path class="cls-10" d="M113.5,166.33a35.4,35.4,0,0,0-1.62,4.14,39.25,39.25,0,0,0-.06-7.34C112.33,164.19,112.89,165.26,113.5,166.33Z"/></g><path class="cls-11" d="M252.73,270.21s7.37.54,6.23,6.55-9.07,1.63-8.5-2.19S252.73,270.21,252.73,270.21Z"/><path class="cls-12" d="M196.29,263.93s17.87,4.09,42.54-1.09-17.58,24.29-17.58,24.29-25,6.28-41.69,1.36c0,0,4-19.37,7.94-21.83A21.12,21.12,0,0,1,196.29,263.93Z"/><path class="cls-13" d="M199.41,260.93c3.58,1.75-14.74,8.73-17,37.12,0,0-34.6-18-42.54-38.21s10.21-46.95,10.21-46.95,4,0,6.81,7.1S169.35,246.19,199.41,260.93Z"/><path class="cls-14" d="M180.51,373.19s26.19-8.76,38.49-15.8c13.35-7.64,33.91-26.62,18.22-44.24-8-9-77.13,17.1-78.26,17.83s-33.28,12.37-34.79,17.1,17.77,20.75,18.91,21.47S180.51,373.19,180.51,373.19Z"/><path class="cls-15" d="M165.38,330.25s-21.85-2.61-23.82-34.39c-2.27-36.57,8.51-83,8.51-83l-7.37-3.27s-.57,14.73-12.48,11.46-20.61-14.56-21.17-18.92c0,0-13.62,1.09-18.53,3.63-9.85,5.11-55.58,96.44-37.06,156.12,0,0,18.34-7.09,28.55-8.19S165.38,330.25,165.38,330.25Z"/><path class="cls-15" d="M165.38,330.25s-21.85-2.61-23.82-34.39c-2.27-36.57,8.51-83,8.51-83l-7.37-3.27s-.57,14.73-12.48,11.46-20.61-14.56-21.17-18.92c0,0-13.62,1.09-18.53,3.63-9.85,5.11-55.58,96.44-37.06,156.12,0,0,18.34-7.09,28.55-8.19S165.38,330.25,165.38,330.25Z"/><path class="cls-16" d="M138.76,265c-16.6,3.85-35.15,2.51-51.5-1.52-2.08-.51-1-2.65.85-2.18a124,124,0,0,0,25.28,3.61,170.49,170.49,0,0,0,25-1.33C139.57,263.46,139.91,264.73,138.76,265Z"/><path class="cls-16" d="M133.79,275.05c-14.09,4.63-30.8,4.3-45.31,1.66-2.13-.39-1-2.53.84-2.18a110,110,0,0,0,21.83,1.84c7.44-.13,14.61-1.35,21.91-2.44C133.82,273.82,134.87,274.7,133.79,275.05Z"/><path class="cls-16" d="M141.6,285.7c-4.33,1.54-9.11,2.2-13.68,2.9a134,134,0,0,1-14.28,1.51c-9.29.42-19.07-.43-27.53-4-2.33-1,.06-3.05,1.94-2.33a64.71,64.71,0,0,0,26.43,4c4.65-.2,9.28-.7,13.88-1.36,4.24-.61,8.5-1.53,12.8-1.68C141.83,284.63,142.41,285.41,141.6,285.7Z"/><path class="cls-16" d="M140.53,253.83c-3.35,1.64-7.79,1.95-11.52,2.33a101.46,101.46,0,0,1-13.62.39,107,107,0,0,1-12.64-1.16c-2.17-.32-4.31-.72-6.44-1.19-1.66-.36-3.7-.47-4.71-1.8-.47-.61.07-1.15.76-1.32,1.87-.46,3.56.26,5.39.66s3.66.75,5.51,1a99.38,99.38,0,0,0,12.55,1.29,110.53,110.53,0,0,0,12.21-.22c4-.29,8.11-1.21,12.08-1C140.78,252.86,141.28,253.47,140.53,253.83Z"/><path class="cls-17" d="M73.22,331.31c3.27,6.56,11,9.81,18.38,11.5a152.07,152.07,0,0,0,21.64,2.9c-14.51,4.14-27.37,7.6-31.23,8-10.21,1.1-28.55,8.19-28.55,8.19-11.05-35.61.78-82.5,14.21-115.6q2.64,36.33,3.48,72.76C71.24,323.24,71.35,327.55,73.22,331.31Z"/><path class="cls-6" d="M142,222.54a11,11,0,0,0,1.43-1.47,9.34,9.34,0,0,0,1.06-1.73,8.94,8.94,0,0,1-2.5,2.8,12.87,12.87,0,0,1-4.39,2.08,17.1,17.1,0,0,1-4.9.53,28,28,0,0,1-5.29-.69,53.18,53.18,0,0,1-5.17-1.39,13.31,13.31,0,0,1-4.55-2.5,39.6,39.6,0,0,1-3.71-3.73,60.86,60.86,0,0,1-5.7-6.83,20,20,0,0,1-1.54-2.7,20.33,20.33,0,0,0,1.34,2.93,36.56,36.56,0,0,0,5.3,7,43.67,43.67,0,0,0,3.83,3.87,14.58,14.58,0,0,0,2.3,1.57,17.53,17.53,0,0,0,2.57,1.09c1.77.58,3.54,1,5.35,1.42a29,29,0,0,0,5.52.68,15.78,15.78,0,0,0,4.83-.66A12.33,12.33,0,0,0,142,222.54Z"/><path class="cls-6" d="M97.28,350l-3.79,1-3.8,1c-2.54.64-5.08,1.28-7.68,1.69,2.44-.33,4.85-.88,7.25-1.42s4.78-1.15,7.16-1.77c12.21-3.13,24.49-6.66,36.76-10.26q16.19-4.77,32.31-9.69l1.43-.44-1.49-.22a18.43,18.43,0,0,1-2.86-.72,24.25,24.25,0,0,1-2.75-1.1,26.84,26.84,0,0,1-5-3.1,29.72,29.72,0,0,1-7.51-8.87,39.9,39.9,0,0,1-2.42-5.28,43.15,43.15,0,0,1-1.63-5.56,63.57,63.57,0,0,1-1.44-11.5,259.64,259.64,0,0,1,.87-33.41q.49-5.85,1.17-11.69c-.56,4-1.07,8-1.5,12a219.38,219.38,0,0,0-1.27,32.71,66.06,66.06,0,0,0,1.41,11.71l.33,1.44.4,1.43c.25,1,.6,1.89.91,2.83a41.24,41.24,0,0,0,2.45,5.43,30.3,30.3,0,0,0,7.7,9.18,27.67,27.67,0,0,0,5.19,3.23,25.32,25.32,0,0,0,2.85,1.15,18.52,18.52,0,0,0,3,.75l-.06-.66q-16.6,5.06-33.26,10C120.38,343.32,108.79,346.77,97.28,350Z"/><path class="cls-6" d="M142.15,213.79a20.38,20.38,0,0,0,.55-4.17,20.14,20.14,0,0,1-.79,3.84,14.64,14.64,0,0,1-2.17,4.5,7.67,7.67,0,0,1-4,2.92,8.35,8.35,0,0,1-2.69.32,12.54,12.54,0,0,1-2.71-.43l-1.33-.42a13,13,0,0,1-1.32-.47,24.11,24.11,0,0,1-2.55-1.13c-.41-.21-.83-.4-1.24-.63l-1.2-.71-.6-.35-.57-.39-1.15-.78a38,38,0,0,1-4.23-3.57,36.5,36.5,0,0,1-5.89-7.18,10.66,10.66,0,0,1-1.25-3,10.81,10.81,0,0,0,1,3.2,27.58,27.58,0,0,0,5.52,7.36,38.77,38.77,0,0,0,4.38,3.7l1.19.81.59.41.63.37,1.24.73,1.29.66a28.52,28.52,0,0,0,2.66,1.16c.44.2.92.32,1.38.48s.92.31,1.4.42a13.63,13.63,0,0,0,2.93.43,9,9,0,0,0,3-.45,7.94,7.94,0,0,0,4-3.15A13.47,13.47,0,0,0,142.15,213.79Z"/><path class="cls-18" d="M90.52,205.79c-6.83,0-36.3,25.11-47.64,47.5S31.35,296,44.39,303.69,70.1,289.31,70.1,289.31,69,271.84,77.47,251.1,97.89,205.79,90.52,205.79Z"/><path class="cls-19" d="M43.28,253.29c11.34-22.39,40.81-47.5,47.64-47.5,4.91-2.54,18.53-3.63,18.53-3.63.56,4.36,9.26,15.64,21.17,18.92s12.48-11.46,12.48-11.46l7.37,3.27s4,0,6.81,7.1,12.47,26.2,42.53,40.94c3.58,1.75-14.74,8.73-17,37.12,0,0-29.43-15.33-40.23-33.55a222.79,222.79,0,0,0-.61,31.36c2,31.78,23.82,34.39,23.82,34.39s-73.16,22.38-83.37,23.47-28.54,8.19-28.54,8.19c-5.34-17.2-5.34-37-2.4-56.65a11.15,11.15,0,0,1-6.68-1.57C31.75,296,31.94,275.67,43.28,253.29Z"/><path class="cls-6" d="M50.45,305.13a11.49,11.49,0,0,1-6.06-1.44,11.44,11.44,0,0,0,5.66,1.74,12.52,12.52,0,0,0,3.85-.52,18.34,18.34,0,0,0,3.57-1.57,28.92,28.92,0,0,0,6-4.82,51.3,51.3,0,0,0,6.93-9l0-.08v-.11A73,73,0,0,1,70.86,279a101.93,101.93,0,0,1,1.6-10.27,126.26,126.26,0,0,1,3.46-13.08c.48-1.51,1-3,1.55-4.5-.62,1.52-1.3,3-1.88,4.56A80.32,80.32,0,0,0,71.8,268.4a101.75,101.75,0,0,0-1.64,10.4,75.51,75.51,0,0,0-.41,10.53l0-.18a50.26,50.26,0,0,1-7.1,9.19c-.84.84-1.72,1.65-2.64,2.42a27.91,27.91,0,0,1-2.9,2.08,18.39,18.39,0,0,1-3.22,1.56A13.32,13.32,0,0,1,50.45,305.13Z"/><g class="cls-20"><path class="cls-21" d="M82.28,129.79s-10.47-7.64-11.21,7.41c-.11,2.44,3.74,8.38,7.06,10.47a8.19,8.19,0,0,0,7.39.86s-5.72-.8-7.6-18.37Z"/></g><path class="cls-22" d="M71.08,134.44a19.5,19.5,0,0,0,0,2.76,8.24,8.24,0,0,1,.51-1.87A12.63,12.63,0,0,1,73.5,132c1.56-1.91,3.74-2.19,6-1.65a11.86,11.86,0,0,0,2.9.44h1l-1.17-1.05a7.68,7.68,0,0,0-3.11-1.87c-2.44-.58-4.86-.34-6.64,1.92A8.53,8.53,0,0,0,71.08,134.44Z"/><path class="cls-22" d="M85.52,148.53c-1.88-.42-4.17-3.3-5.75-7.3a58.14,58.14,0,0,1-3.15-12.7l1.76.73a49.75,49.75,0,0,0,2,11.32C81.57,144.23,83.55,147.47,85.52,148.53Z"/><path class="cls-23" d="M114.27,278.21l4.38.69-3.48-2.07,1.27-1.56,1.85.29-1.4-.83,5.77-7.07a479.78,479.78,0,0,1,91.12,22.2l-2.65,7.28-50.66,50.22-58.61-4Z"/><path class="cls-24" d="M161.36,352.76l-74.24-4.31,24.95-71.33,99.06,20-28.47,43q-3.78,2-7.61,4.23C170.45,347,165.84,349.84,161.36,352.76Z"/><path class="cls-25" d="M213.78,289.86C235.33,260.38,251.21,244,251.21,244l2.79,1.31-1.27,2.32L255,245.8l2,.95-.89,1.62,1.6-1.29,2.32,1.1-.9,1.65,1.63-1.31,3.56,1.68-1.78,3.27,3.22-2.59,5.47,2.59s-12.85,14.92-13.61,16-42.72,45.85-42.72,45.85l-6.81-2.55Z"/><path class="cls-16" d="M258.23,259.13l2.78-2.77-2.82,2.38q-3.6,3.06-7.07,6.37-7.41,7-14.58,14.32c-2,2.06-4,4.18-5.87,6.32l-2,2.28,2.27-2.16c2-1.91,4-3.89,6-5.91q7.29-7.38,14.81-14.54C254,263.34,256.14,261.23,258.23,259.13Z"/><path class="cls-16" d="M253.19,258.36c.86-.88,1.75-1.75,2.63-2.62-.89.75-1.8,1.48-2.69,2.24-2.28,1.93-4.51,4-6.66,6.13q-6.87,6.86-13.15,14.24c-1.78,2.1-3.47,4.25-5,6.44l-1.65,2.34,1.94-2.24c1.74-2,3.49-4,5.22-6q6.36-7.49,13.35-14.44Z"/><path class="cls-16" d="M247.69,257.94c.72-.83,1.48-1.63,2.22-2.45-.77.7-1.55,1.38-2.31,2.09a76.37,76.37,0,0,0-5.6,5.77A135.55,135.55,0,0,0,231.53,277a68.46,68.46,0,0,0-3.7,6.23l-1.15,2.26,1.45-2.19,4-5.87a135.74,135.74,0,0,1,10.6-13.82C244.35,261.72,246,259.81,247.69,257.94Z"/><path class="cls-16" d="M244.49,258.09c.72-.82,1.48-1.6,2.23-2.39-.77.67-1.56,1.33-2.32,2a62.31,62.31,0,0,0-5.54,5.71,100.75,100.75,0,0,0-9.93,13.81,55.54,55.54,0,0,0-3.27,6.37l-1,2.31,1.27-2.26,3.54-6a99.06,99.06,0,0,1,10-13.94Q242,260.86,244.49,258.09Z"/><path class="cls-16" d="M192.21,289.79a23.16,23.16,0,0,0,6.17-.11,22,22,0,0,1-5.74-.15c-2.43-.35-4.84-.95-7.27-1.5s-4.85-1.15-7.28-1.73c-10.38-2.51-20.7-5.38-31.27-7.25a97.59,97.59,0,0,0-13.53-1.51c-.79-.05-1.59-.06-2.39-.07l-2.38,0,2.45.18,1.23.08,1.22.13c4.35.44,8.74,1.08,13.12,1.86,10.7,1.88,21.18,4.81,31.76,7.36,2.31.55,4.62,1.08,6.94,1.55S189.87,289.54,192.21,289.79Z"/><path class="cls-16" d="M184.68,285a49.75,49.75,0,0,0,5.1,1.36c-1.59-.43-3.15-1-4.68-1.54-3.92-1.48-7.81-3.27-12-4.29-2.25-.54-4.53-.86-6.8-1.17l-6.81-.94-13.63-1.87c-3.87-.53-7.74-1-11.55-1.38l-4.06-.42,4.15.72c3.69.63,7.45,1.22,11.23,1.74l13.86,1.9,6.92.95a61.88,61.88,0,0,1,6.84,1.21C177.12,282.24,180.87,283.8,184.68,285Z"/><path class="cls-16" d="M193,291.07a48.3,48.3,0,0,1,6.1,2.11,48.13,48.13,0,0,0-5.61-2.29,112.4,112.4,0,0,0-15.34-3.55c-11.1-2-22.19-4-33.32-5.92-4.74-.8-9.49-1.5-14.17-2.1l-5-.62,5.1.93c4.52.83,9.13,1.65,13.77,2.43,11.3,1.91,22.59,4,33.87,6C183.37,289,188.3,289.77,193,291.07Z"/><path class="cls-26" d="M211.13,297.14A14.24,14.24,0,0,0,224,294.59l-29.85,39.59c-6.13,3.07-12.61,6.5-19.09,10.22Z"/><g class="cls-27"><path class="cls-28" d="M192.28,328.78c13.48-4.74,25-13.49,37.87-19.62l-10.47,13.23c-6.59,2.83-15.18,6.7-24.57,11.41L192.65,335l-.24.12-2.3,1.18-.06,0q-2.52,1.29-5.07,2.67h0l-1.34.72v0c-2.52,1.36-5.06,2.76-7.61,4.23-4.6,2.64-9.21,5.44-13.69,8.36l-74.24-4.31,12.93-37c12.55,7.79,25.9,14.47,40.24,18.35C157.91,333.94,176,334.5,192.28,328.78Z"/></g><polygon class="cls-16" points="156.31 341.17 171.06 323.16 121.71 313.88 117.74 333.53 156.31 341.17"/><path class="cls-29" d="M86.3,348.23q10.89-31.16,21.8-62.33l3.15-9a.88.88,0,0,1,1-.57l33.44,6.76,53.33,10.77,12.29,2.49c1.07.21.62,1.79-.45,1.58l-33.44-6.76-53.34-10.78-12.28-2.48,1-.57Q102,308.5,91.09,339.66l-3.15,9C87.59,349.66,85.94,349.23,86.3,348.23Z"/><path class="cls-30" d="M48.55,305.51c12.48,6.18,40,.71,40,.71a20.32,20.32,0,0,0,4.24,5.32c3,6.79,37.16,10.54,37.94,5.79,1.13-2.66-22.5-4.48-23.26-6.48,1.11.75,24.9,4.17,27.16,1.79,3.42-6.52-19.08-4.05-24.3-9.12l1.3.35c3.78,1.1,19.39,2.82,21,.8,4.35-5.5-13.59-3.89-22.86-11.81a6.32,6.32,0,0,1-2.73-3.19c2-3.33,5.8-9.18,2.73-10.37-3.78-1.45-7.94,2.92-11,5.46a57.4,57.4,0,0,0-5.3,5.1c-1.13-.37-8.5,3.09-24-3.82-10.13-4.52-11.53-8.92-19.85-6S33.36,298,48.55,305.51Zm56.74-4.26"/><path class="cls-31" d="M194.14,334.18,224,294.59s49.91-44.4,50.29-43.31c.29.85-38.46,49.9-55.57,71.49-6.59,2.83-15.18,6.71-24.57,11.41C190.84,335.83,197.58,332.33,194.14,334.18Z"/><path class="cls-29" d="M223.39,294c15-13.35,30-26.83,45.44-39.66.82-.68,4.95-5.06,6.18-3.48.66.84-.82,1.66-1.47.83,1,1.35,1.08-.26.4.69a6.56,6.56,0,0,1-1.24,1c-1.37,1.07-2.7,2.19-4,3.31-4.06,3.4-8.06,6.86-12.06,10.33q-13.14,11.41-26.14,23l-5.88,5.22C223.79,295.88,222.58,294.73,223.39,294Z"/><path class="cls-32" d="M222.86,296c1.45-1.16-5.68-6.91-9.08-6.18s-3.78,5.82-2.65,7.28S218.32,299.68,222.86,296Z"/><path class="cls-29" d="M174.32,344l31.53-41.29,4.55-6a.9.9,0,0,1,1-.37c4.06,1,8.8.47,12-2.34.67-.59,1.93.2,1.33,1l-26.08,34.6-3.77,5c-.63.85-2.11,0-1.47-.82l26.09-34.6,1.3-1.73a16.31,16.31,0,0,1-9.31.62l-31.14,40.79c-1.52,2-3,4-4.55,6C175.15,345.65,173.67,344.84,174.32,344Z"/><path class="cls-33" d="M195.85,167.15a13.25,13.25,0,0,1-12.29,3.7c-8-1.45.35-1.45,3.38-2.9S197.38,165.31,195.85,167.15Z"/><path class="cls-34" d="M188.64,374.47c3.36,2.63-8.89,13.83-18.72,14.19s-57.09-14-58.23-14.37c-7.89,9.89-21.83,13.18-29.68,13.44-15.79.5-28-15.33-28.17-27.64-.11-9.93,49.53-28,59-29.11s17.46-.64,26.84,6.55C145.27,341.82,174.43,363.35,188.64,374.47Z"/><path class="cls-35" d="M195.16,326.43c2.55-4.09,21.27-26.47,20.13-27.29a2.37,2.37,0,0,0-3.4.54c-.57,1.1-20.7,27.84-20.7,27.84S194.31,327.8,195.16,326.43Z"/><path class="cls-35" d="M205.08,300.78c1.42-.28,2.84-2.19.86-2.19s-90.75-19.38-91.32-18.28a1.54,1.54,0,0,0,1.14,2.18C116.61,282.76,205.08,300.78,205.08,300.78Z"/><path class="cls-36" d="M164.82,365.19c-2.54-3.66-3.41.54-7.38-4.91s-6.36-8.38-15.31-14.2-10.78-10.37-17-10.37-11.91,7.1-8.51,12,.57,4.37,9.07,6.55,4.54-.55,15.32,4.37S172.76,376.65,164.82,365.19Z"/><path class="cls-37" d="M109.24,337.35c3.24,3.51,3.4,7.09,0,9.28S72.37,361.37,70.1,357.55s3.4-7.1,7.37-7.65S104.7,332.44,109.24,337.35Z"/><path class="cls-38" d="M106,316.15c2,1.37,10.71,4.31,14,5a1,1,0,0,1,.17,2c-4.64,1.7-21.16.27-27.34-11.59"/><path class="cls-39" d="M122.55,182.36a8.88,8.88,0,0,0,1.68,3.53l.59.77.65.72c.42.49.92.92,1.38,1.37a45.83,45.83,0,0,0,6.31,4.62c2.25,1.36,4.57,2.63,6.94,3.86,1.19.57,2.35,1.25,3.56,1.82s2.41,1.2,3.59,1.89c-1.33-.27-2.64-.63-3.95-1s-2.57-.85-3.85-1.31l-.95-.35-.93-.43-1.86-.84c-1.23-.58-2.4-1.31-3.6-2a29.56,29.56,0,0,1-6.37-5.24,14.82,14.82,0,0,1-2.35-3.45A7.3,7.3,0,0,1,122.55,182.36Z"/><path class="cls-40" d="M213.78,364.11a21,21,0,0,1,2.95,2.85,35.86,35.86,0,0,1,2.5,3.17,34.53,34.53,0,0,1,2.14,3.43,21.19,21.19,0,0,1,1.68,3.75,21.7,21.7,0,0,1-3-2.86,37.39,37.39,0,0,1-4.63-6.6A21.42,21.42,0,0,1,213.78,364.11Z"/><path class="cls-40" d="M209.8,366.9a21.56,21.56,0,0,1,2.95,2.85,37.73,37.73,0,0,1,4.64,6.6,22.29,22.29,0,0,1,1.68,3.75,21.08,21.08,0,0,1-3-2.85,37,37,0,0,1-4.63-6.6A21.52,21.52,0,0,1,209.8,366.9Z"/><path class="cls-40" d="M205.17,369.24a21.56,21.56,0,0,1,3,2.85,37,37,0,0,1,4.63,6.6,20.8,20.8,0,0,1,1.68,3.75,21.56,21.56,0,0,1-3-2.85,37,37,0,0,1-4.63-6.6A20.8,20.8,0,0,1,205.17,369.24Z"/><path class="cls-40" d="M117.25,377.36a21.62,21.62,0,0,1,3,2.85,37.7,37.7,0,0,1,2.49,3.17,34.53,34.53,0,0,1,2.14,3.43,21.19,21.19,0,0,1,1.68,3.75,22.3,22.3,0,0,1-3-2.86,37.39,37.39,0,0,1-4.63-6.6A22.19,22.19,0,0,1,117.25,377.36Z"/><path class="cls-40" d="M113.27,380.15a21.56,21.56,0,0,1,3,2.85,36.76,36.76,0,0,1,4.64,6.6,21.19,21.19,0,0,1,1.68,3.75,21.08,21.08,0,0,1-3-2.85,34.48,34.48,0,0,1-2.49-3.18A35.57,35.57,0,0,1,115,383.9,21.52,21.52,0,0,1,113.27,380.15Z"/><path class="cls-40" d="M108.64,382.49a21.56,21.56,0,0,1,3,2.85,37.73,37.73,0,0,1,4.64,6.6,21.49,21.49,0,0,1,1.67,3.75,21.56,21.56,0,0,1-3-2.85,37,37,0,0,1-4.63-6.6A21.52,21.52,0,0,1,108.64,382.49Z"/><path class="cls-41" d="M224.44,36.83s-110.39-38.09-141,81.83C73.69,65.86,150-7.77,224.44,36.83Z"/><path class="cls-42" d="M148.72,172.73l15.47,6.48s.23,1.62,2.43.93,6.61,2.23,11,1.52S157.11,190.21,148.72,172.73Z"/><path class="cls-42" d="M174.07,182.61,149.71,175C147.25,188,170.49,193.93,174.07,182.61Z"/><path class="cls-22" d="M179.56,169.22a2.31,2.31,0,0,0,.65.77,5.74,5.74,0,0,0,3.35.86,21.14,21.14,0,0,0,3.62-.3,23.28,23.28,0,0,0,4.53-1.21,12.84,12.84,0,0,0,2.08-1,4.46,4.46,0,0,0,.85-.66,1.56,1.56,0,0,0,.29-.37c0-.06.07-.12.07-.17a.88.88,0,0,0,0-.2,9.68,9.68,0,0,0-.49-3,3.73,3.73,0,0,0-.75-1.28,1.94,1.94,0,0,0-1.33-.62c-.16,0-.32,0-.49,0l-.49.1.53-.22a3.7,3.7,0,0,1,.58-.1,2.21,2.21,0,0,1,1.58.52,3.8,3.8,0,0,1,1,1.33,7.53,7.53,0,0,1,.7,3.15,1.33,1.33,0,0,1,0,.34,1,1,0,0,1-.1.4,2.08,2.08,0,0,1-.4.61,5.23,5.23,0,0,1-1,.83,14.28,14.28,0,0,1-2.26,1.1,24.09,24.09,0,0,1-4.8,1.27,15.2,15.2,0,0,1-3.75.15,7.64,7.64,0,0,1-1.84-.39,3.86,3.86,0,0,1-1.57-1A2.39,2.39,0,0,1,179.56,169.22Z"/><path class="cls-22" d="M146.51,171a5.4,5.4,0,0,1,.87-.71l.06,0a2.94,2.94,0,0,1,.26-.17,1.35,1.35,0,0,1,1.07-.1l.17.06-.13.14a2.33,2.33,0,0,1-.68.6c-.12.07-.24.16-.36.24l.09.17a19.28,19.28,0,0,0,3.19,4.37,32.17,32.17,0,0,0,4.14,3.65,22.52,22.52,0,0,0,6.25,3.41,20.81,20.81,0,0,0,7.15.39,96.48,96.48,0,0,0,10-1.47c.51-.09,1-.21,1.51-.31l-1.64.56a44.77,44.77,0,0,1-9.63,2,22.2,22.2,0,0,1-7.61-.39,23.21,23.21,0,0,1-6.64-3.61,24.79,24.79,0,0,1-4.09-3.83,16.28,16.28,0,0,1-2.81-4.66c0-.06-.05-.14-.08-.21a4.32,4.32,0,0,0-.5.45,2.94,2.94,0,0,1-.86.58l-.17.08v-.17A1.47,1.47,0,0,1,146.51,171Z"/></g></g></svg>