<svg id="Layer_1" data-name="Layer 1" xmlns="http://www.w3.org/2000/svg" viewBox="0 0 80 50"><defs><style>.cls-1,.cls-4{fill:#fff;}.cls-1{stroke:#1e2317;stroke-miterlimit:10;}.cls-2{fill:#522f24;}.cls-3{fill:#964f3c;}</style></defs><ellipse class="cls-1" cx="19.9" cy="32.99" rx="10.78" ry="12.16"/><ellipse class="cls-1" cx="63.05" cy="28.99" rx="8.69" ry="11.18"/><path class="cls-2" d="M21.84,28.55c5.56,0,7.79,5.71,7.44,10.81a17.32,17.32,0,0,1-5.82,5.1c-3.29,1.43-6.92.47-10.41-2.26C11.19,35.3,15.86,28.55,21.84,28.55Z"/><path class="cls-2" d="M64.35,23.43c4.94,0,6,7,6.4,10.73C70,38.41,62.58,42.7,58.18,38,56.46,31.62,59.75,23.43,64.35,23.43Z"/><path class="cls-3" d="M68.77,29s3.61,9-5.72,9.71A11.3,11.3,0,0,0,68.77,29Z"/><path class="cls-3" d="M27,33.85s3.61,9-5.72,9.71A11.29,11.29,0,0,0,27,33.85Z"/><circle class="cls-4" cx="60.05" cy="27.32" r="2.33"/><circle class="cls-4" cx="16.21" cy="31.74" r="2.33"/><path class="cls-2" d="M30.68,8.43v4.63S9.17,7.5,6.35,19c0,0,0-13.66,18.72-9.84a3,3,0,0,1,2.63,1.74c.59,1.69.72-2.43.72-2.43l.9,3.05Z"/><path class="cls-2" d="M54.82,4.86V9.49s16.65-5.56,18.83,5.9c0,0,0-13.66-14.49-9.84a2.28,2.28,0,0,0-2,1.74c-.46,1.69-.56-2.43-.56-2.43l-.69,3.05Z"/></svg>