<svg id="Layer_1" data-name="Layer 1" xmlns="http://www.w3.org/2000/svg" viewBox="0 0 80 50"><defs><style>.cls-1,.cls-4{fill:#fff;}.cls-1{stroke:#1e2317;stroke-miterlimit:10;}.cls-2{fill:#522f24;}.cls-3{fill:#964f3c;}.cls-5{fill:#e29674;}.cls-6{fill:#280e06;}</style></defs><ellipse class="cls-1" cx="19.9" cy="32.99" rx="10.78" ry="12.16"/><ellipse class="cls-1" cx="63.05" cy="28.99" rx="8.69" ry="11.18"/><path class="cls-2" d="M21.84,28.55c5.56,0,7.79,5.71,7.44,10.81a17.32,17.32,0,0,1-5.82,5.1c-3.29,1.43-6.92.47-10.41-2.26C11.19,35.3,15.86,28.55,21.84,28.55Z"/><path class="cls-2" d="M64.35,23.43c4.94,0,6,7,6.4,10.73C70,38.41,62.58,42.7,58.18,38,56.46,31.62,59.75,23.43,64.35,23.43Z"/><path class="cls-3" d="M68.77,29s3.61,9-5.72,9.71A11.3,11.3,0,0,0,68.77,29Z"/><path class="cls-3" d="M27,33.85s3.61,9-5.72,9.71A11.29,11.29,0,0,0,27,33.85Z"/><circle class="cls-4" cx="60.05" cy="27.32" r="2.33"/><circle class="cls-4" cx="16.21" cy="31.74" r="2.33"/><path class="cls-2" d="M30.68,8.43v4.63S9.17,7.5,6.35,19c0,0,0-13.66,18.72-9.84a3,3,0,0,1,2.63,1.74c.59,1.69.72-2.43.72-2.43l.9,3.05Z"/><path class="cls-2" d="M54.82,4.86V9.49s16.65-5.56,18.83,5.9c0,0,0-13.66-14.49-9.84a2.28,2.28,0,0,0-2,1.74c-.46,1.69-.56-2.43-.56-2.43l-.69,3.05Z"/><path class="cls-5" d="M30.34,34.67c0-.06,0-.13,0-.19.86-6.66-3.22-12.68-9.12-13.45S9.87,25,9,31.7a13.92,13.92,0,0,0,0,3.35C17.24,38.87,26.23,36.28,30.34,34.67Z"/><path class="cls-6" d="M8.9,35.08l5.44.41q2.68.16,5.34.18a52.19,52.19,0,0,0,5.3-.22c1.78-.15,3.52-.48,5.36-.78a15.47,15.47,0,0,1-5.1,2.25,22.29,22.29,0,0,1-5.57.67A25.71,25.71,0,0,1,14.13,37,19.47,19.47,0,0,1,8.9,35.08Z"/><path class="cls-5" d="M71.46,31.49a11.76,11.76,0,0,0,.27-3.13c-.44-6.16-4.68-10.88-9.47-10.53S54,23.44,54.4,29.6a13.11,13.11,0,0,0,.31,2.69C58.14,33.16,68.11,33.56,71.46,31.49Z"/><path class="cls-6" d="M54.71,32.29a74.07,74.07,0,0,0,8.57.43,30.74,30.74,0,0,0,4.17-.36c1.41-.17,2.76-.56,4.24-.88a11.12,11.12,0,0,1-3.9,2.26,14.74,14.74,0,0,1-4.47.79,16.83,16.83,0,0,1-4.48-.5A12.88,12.88,0,0,1,54.71,32.29Z"/></svg>