<svg id="Layer_1" data-name="Layer 1" xmlns="http://www.w3.org/2000/svg" viewBox="0 0 272.98 497.74"><defs><style>.cls-1,.cls-14{fill:#b2c8d8;}.cls-1{stroke:#405260;}.cls-1,.cls-2,.cls-21{stroke-miterlimit:10;}.cls-2{fill:#ea8690;stroke:#59301e;}.cls-3{fill:#d6747d;}.cls-4{fill:#919fab;}.cls-5{fill:#2e3d49;}.cls-6{fill:#a9bac8;}.cls-7{fill:#c7d6e2;}.cls-8{fill:#99b7c9;}.cls-9{fill:#cadcea;}.cls-10{fill:#becfdc;}.cls-11{fill:#d6e3eb;}.cls-12{fill:#8a96a1;}.cls-13{fill:#fff;}.cls-15{fill:#c3beba;}.cls-16{fill:#592c0e;}.cls-17{fill:#842c1a;}.cls-18{fill:#23110a;}.cls-19{fill:#f1d8be;}.cls-20{fill:#3c1212;}.cls-21{fill:#cb6c82;stroke:#b24461;}.cls-22{fill:gray;}.cls-23{fill:#a2494f;}.cls-24{fill:#cb666b;}.cls-25{fill:#dcaaa9;}.cls-26{fill:#7b373b;}</style></defs><path class="cls-1" d="M118.2,193.54l-4.14-26S102.14,79.39,78.2,53.77c-18-25.14-50.27-49.39-56.58-49.9-2.19-.17-3.08,12.7-4.46,25.18S13.83,107.5,50.7,139.62c50.17,42.82,54.58,55.78,55.5,60.84Z"/><path class="cls-2" d="M32,65.77c.32,3,.7,6,1.15,9.06a162.65,162.65,0,0,0,5.82,26s0,0,0,0c.07.24.16.5.24.74a75.64,75.64,0,0,0,4.15,10.1c15,29.5,58.81,51,58.81,51S94.86,126,83.32,89.86c-.1-.27-.17-.54-.26-.81C78.94,76.26,71.25,64.43,63,54.48A186,186,0,0,0,30.7,24.1C30,27.22,29.72,45.47,32,65.77Z"/><path class="cls-3" d="M40,102.28a71.07,71.07,0,0,0,4,9.84c14.65,28.75,57.29,49.7,57.29,49.7S94.24,126,83,90.8a.07.07,0,0,1,0,0S85,125.42,81.8,134c0,0-31-13.45-41.62-31.36A2.69,2.69,0,0,0,40,102.28Z"/><path class="cls-1" d="M154.3,198.34l4.15-26S170.36,84.2,194.3,58.57c18-25.13,50.27-49.39,56.58-49.89,2.2-.18,3.08,12.7,4.47,25.17s3.32,78.46-33.54,110.58c-50.17,42.81-54.58,55.78-55.51,60.83Z"/><path class="cls-2" d="M240.55,70.57c-.31,3-.7,6-1.14,9.06a163.74,163.74,0,0,1-5.82,26s0,0,0,0c-.08.24-.17.5-.24.74a75.65,75.65,0,0,1-4.16,10.1c-15,29.51-58.81,51-58.81,51s7.28-36.74,18.83-72.89c.09-.27.17-.54.26-.81,4.12-12.8,11.8-24.62,20.06-34.58a186.69,186.69,0,0,1,32.3-30.38C242.49,32,242.79,50.28,240.55,70.57Z"/><path class="cls-3" d="M232.52,107.09a74.74,74.74,0,0,1-4.05,9.84c-14.65,28.74-57.3,49.7-57.3,49.7s7.09-35.8,18.34-71l.06,0s-2,34.64,1.13,43.18c0,0,31-13.45,41.62-31.36A2.7,2.7,0,0,1,232.52,107.09Z"/><path class="cls-4" d="M226.69,468.05s-4.3,6.1-13.56,10.95c19.84,8.61,41-14.7,42.89-26.23a42.45,42.45,0,0,0-4.52.68Z"/><path class="cls-5" d="M252.25,453l-.75.14h-.1l-24.89,14.64-.1.1c0,.06-4.36,6.09-13.44,10.85l-.58.3.6.26a22.86,22.86,0,0,0,9.1,1.89c17.13,0,32.68-18.65,34.26-28.36l.06-.37H256A27.19,27.19,0,0,0,252.25,453Zm-30.16,27.55a22.05,22.05,0,0,1-8.22-1.58,41.24,41.24,0,0,0,13-10.69l24.69-14.53c.13,0,.36-.06.78-.14a30.7,30.7,0,0,1,3.23-.5C253.74,462.73,238.67,480.55,222.09,480.55Z"/><path class="cls-6" d="M72.43,392.64S49.66,409.47,53,438c3,25.24,21.84,34.21,31.54,36.19,5,1,30.65,2.72,37.93-1.66C70.23,457.1,72.43,392.64,72.43,392.64Z"/><path class="cls-7" d="M72.43,392.64S49.66,409.47,53,438a45.35,45.35,0,0,0,4.8,16c11,18.45,40.69,10.47,37.76,2.73C71.08,432.15,72.43,392.64,72.43,392.64Z"/><path class="cls-6" d="M72.43,392.64S49.66,409.47,53,438a45.35,45.35,0,0,0,4.8,16c.24.4.49.79.74,1.16-8.1-16.71-2.13-35.17,9.68-48.1a26.43,26.43,0,0,1,4.64-4.33A87.72,87.72,0,0,1,72.43,392.64Z"/><path class="cls-5" d="M78.18,426.72a109.87,109.87,0,0,1-5.42-34.07l0-.66-.55.41c-.23.17-22.88,17.26-19.53,45.65,2.67,22.66,18.79,33.81,31.79,36.46a121.94,121.94,0,0,0,18.23,1.19h0c6.89,0,16-.5,19.94-2.9l.6-.36-.68-.2C95.73,464.31,83.62,443.11,78.18,426.72Zm24.55,48.36h0a121.63,121.63,0,0,1-18.09-1.18C71.85,471.29,56,460.32,53.35,438c-3-25.56,15.31-41.85,18.74-44.66a111.71,111.71,0,0,0,5.46,33.58C83,443.28,95,464.44,121.67,472.62,117.54,474.64,109.18,475.08,102.73,475.08Z"/><path class="cls-7" d="M198.13,344.67,152.59,364.8s5.29,34.73,9.59,58.19,41,39.74,68.15,29.42c14.22-38.49-7.61-60.7-19.85-73.22S196.59,354.26,198.13,344.67Z"/><path class="cls-5" d="M210.8,379.05l-.08-.07c-10.13-10.36-14.25-21.89-12.26-34.27l.09-.57-46.32,20.47,0,.23c.06.35,5.35,35,9.6,58.21,1.63,8.89,7.95,17.21,17.81,23.44a62.77,62.77,0,0,0,32.67,9.4,50.85,50.85,0,0,0,18.11-3.19l.14-.06,0-.13c6.17-16.7,6.18-32.35,0-46.5C225.46,394,217,385.38,210.8,379.05Zm19.26,73.12a50.07,50.07,0,0,1-17.72,3.09A62.07,62.07,0,0,1,180,446c-9.71-6.13-15.93-14.31-17.53-23-4.07-22.2-9.09-54.89-9.56-58l44.77-19.78c-1.81,12.35,2.4,23.86,12.52,34.2l.07.08C223,392.4,244.1,414,230.06,452.17Z"/><path class="cls-7" d="M177.62,297.73l-25.8,4.18-1.71,46.3c18.53,14.24,47.14,2.61,47.14,2.61a16.1,16.1,0,0,1-.77,5.32,34.92,34.92,0,0,0,5.84-35.46C195.24,302.25,177.62,297.73,177.62,297.73Z"/><path class="cls-5" d="M177.71,297.43l-.07,0-25.88,4.19.12.61,25.72-4.16c1.2.34,17.7,5.26,24.41,22.74a34.84,34.84,0,0,1-4.82,34,15.48,15.48,0,0,0,.39-4l0-.46-.44.18c-.29.12-28.64,11.4-46.8-2.56l-.42.49c17.2,13.21,43.28,4.22,47,2.82a16.09,16.09,0,0,1-.77,4.76l-.5,1.44,1.06-1.13a35.49,35.49,0,0,0,5.91-35.78C195.58,302.21,177.89,297.48,177.71,297.43Z"/><path class="cls-8" d="M156.23,329.6s11.8-5.48,6-15.49a5.24,5.24,0,0,1,3.31.62S160.2,303.58,154,301.28s-58.88.52-58.88.52-13.84,3.24-15,18.41c4.3-3.6,7.11-4.22,7.11-4.22s-10.42,8.29-1.82,26.9c3.31-5,3-5.63,3.31-5a36.8,36.8,0,0,1,1.1,6.78c0,1.25-.26,18.39-8.71,32C71.05,393,64.27,405.16,69.56,431.44l3.53-5.21s-5,15.38,12.19,29.46l-.17-5s11.91,32.69,69.8,21.74c16.87-18.77,17.86-82.5,1.32-99.6C165.27,349.26,156.23,329.6,156.23,329.6Z"/><path class="cls-9" d="M134.84,305.45c1.88-2.13,4.19-2.81,6.14-5.07-17.56-.09-45.83,1.42-45.83,1.42s-13.84,3.24-15,18.41c4.3-3.6,7.11-4.22,7.11-4.22s-10.42,8.29-1.82,26.9c3.31-5,3-5.63,3.31-5a36.8,36.8,0,0,1,1.1,6.78c0,1.25-.26,18.39-8.71,32C71.05,393,64.27,405.16,69.56,431.44l3.53-5.21s-5,15.38,12.19,29.46l-.17-5s5.34,10.9,26.13,6.83c19.19-3.76,36.39-19.19,33.74-65.5-.48-8.38-1.33-21.51-4.85-29.83C139.69,361.15,165.05,318.8,134.84,305.45Z"/><path class="cls-10" d="M85.66,313.27c.83-3.92,3.86-7.92,6.89-10.55a20.07,20.07,0,0,0-12.4,17.49c4.3-3.6,7.11-4.22,7.11-4.22s-10.42,8.29-1.82,26.9c3.31-5,3-5.63,3.31-5a36.8,36.8,0,0,1,1.1,6.78c0,1.25-.26,18.39-8.71,32C71.05,393,64.27,405.16,69.56,431.44l3.53-5.21s-5,15.38,12.19,29.46c-11.58-18.3-9.43-32.23-5.79-48-.83.16-5.46,6.1-7.45,10.95,1.82-27.53,14.89-38.48,14.89-38.64,0-19.89,6.78-28.42,5.46-51.68-1.77,3.44-4.08,4.28-5.74,6.89-2.7-10.9,3.09-19.51,7.39-23.89C91.18,311.4,87.65,312,85.66,313.27Z"/><path class="cls-5" d="M156.65,329.74c1.16-.59,5.6-3.11,7-7.45a9.69,9.69,0,0,0-1-7.9,4.74,4.74,0,0,1,2.58.6l1,.69-.51-1.07c-.21-.46-5.41-11.31-11.64-13.62-1.67-.62-6.5-.92-14.78-.92-17.42,0-44,1.41-44.3,1.43-.15,0-14.09,3.46-15.25,18.69l-.06.76.61-.51A24.23,24.23,0,0,1,86,316.77c-2.42,2.77-7.83,11.25-.9,26.25l.25.54.33-.5a52.78,52.78,0,0,0,2.79-4.64.41.41,0,0,1,0-.09,42.33,42.33,0,0,1,1,6.34c0,.73-.1,18-8.66,31.86C70.2,393.71,64.1,406,69.24,431.5l.15.77,3-4.45c-.73,4.42-1.21,16.76,12.65,28.11l.57.47-.13-4.09a35.51,35.51,0,0,0,8.62,10.6c6.47,5.51,18.43,12.08,38.61,12.08A120.79,120.79,0,0,0,155,472.74l.12,0,.07-.09c7.87-8.75,13-28.15,13.27-50.62s-4.21-41.22-11.82-49.25A60.78,60.78,0,0,0,156.65,329.74ZM167.77,422c-.32,22.26-5.31,41.46-13,50.15a119.83,119.83,0,0,1-22,2.21c-38.17,0-47.22-23.54-47.31-23.78l-.71-1.94.21,6.34c-16.15-13.65-11.56-28.51-11.51-28.66l.71-2.19-4.38,6.48c-4.82-24.78,1.22-36.88,11.69-53.77,8.65-14,8.75-31.44,8.75-32.17a37.31,37.31,0,0,0-1.13-6.92c-.1-.18-.2-.37-.45-.37s-.37.17-.68.76-1,1.9-2.42,4.08c-7.94-17.78,1.87-25.91,2-26l1.06-.85-1.34.3c-.12,0-2.68.62-6.64,3.79,1.52-14.12,14.54-17.33,14.61-17.36.27,0,26.8-1.42,44.21-1.42,8.08,0,13,.3,14.53.88,5,1.87,9.55,9.92,10.89,12.5a6.1,6.1,0,0,0-2.64-.27l-.5.05.25.41a9.32,9.32,0,0,1,1.16,7.83c-1.54,4.65-6.92,7.2-7,7.23l-.28.13.13.27a60,60,0,0,1,0,43l-.07.18.14.14C163.57,380.88,168.08,399.64,167.77,422Z"/><path class="cls-7" d="M176.08,387.22c-66.38,31.71-34,77.6-21,88.18,16.05-6.25,30.77-.47,35.4,1.25S205.68,482,213.13,479c20.34-14.39,18.69-42.71,18.69-42.71Z"/><path class="cls-6" d="M154.88,475.24c-25.77-42.13-1-71.8,19-86.93C110.77,419.81,142,464.48,154.88,475.24Z"/><path class="cls-5" d="M213,478.73c-5.14,2-12.67,1.24-22.37-2.37l-.35-.12c-4.8-1.8-19.39-7.24-35.1-1.2-8.65-7.15-21.27-25.36-18.81-44.3,2.23-17.11,15.65-31.66,39.9-43.24a118.61,118.61,0,0,0-10.95,5.13c-17.76,10.65-27.7,23.41-29.61,38-2.82,21.73,12.89,39.84,19.19,45l.15.13.19-.08c15.54-6.06,30-.65,34.8,1.13l.35.13c6.28,2.33,11.68,3.5,16.14,3.5a18.28,18.28,0,0,0,6.77-1.16l.06,0c14-9.88,17.64-26.45,18.56-35.87a21,21,0,0,0-.39-7.07C231.5,436.59,232.89,464.6,213,478.73Z"/><path class="cls-6" d="M244.88,439.89a21.21,21.21,0,0,0-13.19,1.8s.18,24.69-18.45,36.89a52.66,52.66,0,0,0,17.53-4.17s-1.43-.83-4.41-2.29c27-8.24,28.45-26.7,29.44-32.23-3.86,1.88-12,2.92-12,2.92A5.91,5.91,0,0,1,244.88,439.89Z"/><path class="cls-5" d="M244.16,442.44a5.52,5.52,0,0,1,1-2.36l.32-.4-.53-.1a22,22,0,0,0-3.88-.34,20.82,20.82,0,0,0-9.54,2.18l-.16.09v.18c0,.25,0,24.67-18.31,36.64l-.93.61,1.13,0a53.26,53.26,0,0,0,17.66-4.21l.55-.24-.52-.3s-1.25-.73-3.73-2c25-7.92,27.7-24.78,28.74-31.17.06-.39.12-.75.17-1.07l.12-.61-.59.28C252.38,441.2,245.88,442.2,244.16,442.44Zm11.13-1.52c-1,6.34-3.76,23.19-29,30.9l-.76.23.71.35c1.9.93,3.18,1.61,3.84,2a53.48,53.48,0,0,1-15.7,3.83C231.16,466.43,232,444.15,232,441.87a20.84,20.84,0,0,1,9-2,21.2,21.2,0,0,1,3.27.26,6.2,6.2,0,0,0-.88,2.67l0,.38.4-.05c.32,0,7.53-1,11.55-2.69C255.35,440.59,255.32,440.75,255.29,440.92Z"/><path class="cls-6" d="M187.66,471.6c-7.7-5.05-30.85-10.34-35.07,8.76-1.51,6.85,5.52,5.32,5.52,5.32s-.82,3.17,0,3.91c1.25,1.07,6.62,2,10.59,1.2-.72,1.35-.45,2.11.38,2.34,7,2,35.07-3,31.92-13.5C200.49,477.76,195.21,476.55,187.66,471.6Z"/><path class="cls-11" d="M190.52,473.37c-.91-.53-1.87-1.12-2.86-1.77-7.7-5.05-30.85-10.34-35.07,8.76a10.59,10.59,0,0,0-.18,1.11,2.77,2.77,0,0,0,1.17,1.29,5.52,5.52,0,0,0,6-1.88c-.66,5.63,7.94,7.43,12.57,4.3-1.16,2.79.11,4,7.33,3.57,3.91-.26,12.27-2.71,15.38-7.71C197,477.52,192.93,474.64,190.52,473.37Z"/><path class="cls-5" d="M196.67,476.26a78.9,78.9,0,0,1-8.83-4.92,34.77,34.77,0,0,0-17.38-4.78c-9.78,0-16.24,4.88-18.19,13.73-.44,2-.22,3.49.64,4.49a4.74,4.74,0,0,0,3.64,1.36,8.27,8.27,0,0,0,1.13-.08c-.22,1-.54,3.08.26,3.76,1,.88,4.33,1.57,7.5,1.57a18.41,18.41,0,0,0,2.76-.19,2,2,0,0,0-.08,1.51,1.35,1.35,0,0,0,.92.72,16.54,16.54,0,0,0,4.28.44c8.11,0,22.32-3.12,26.83-8.76a5.84,5.84,0,0,0,1.22-5.57C201,478.42,199.39,477.61,196.67,476.26Zm3,8.48c-4.38,5.48-18.33,8.51-26.3,8.51a16,16,0,0,1-4.09-.42.69.69,0,0,1-.5-.37c-.11-.23-.14-.68.31-1.53l.07-.78-.43.33a17,17,0,0,1-3.24.29c-3.23,0-6.26-.73-7.06-1.41-.5-.43-.27-2.37.05-3.61l.12-.49-.52.11a7.81,7.81,0,0,1-1.48.14,4.13,4.13,0,0,1-3.13-1.12c-.73-.85-.9-2.19-.5-4,2.41-10.93,10.87-13.23,17.54-13.23a34.14,34.14,0,0,1,17,4.66,78.22,78.22,0,0,0,8.89,5c2.48,1.22,4.12,2,4.37,2.89A5.29,5.29,0,0,1,199.62,484.74Z"/><path class="cls-5" d="M157.79,485.59l.63.17c4.07-14.11,12.23-15,12.31-15S162,471,157.79,485.59Z"/><path class="cls-5" d="M168.16,491.09l.62.23c3.72-9.23,12.08-14.25,12.16-14.3A26.87,26.87,0,0,0,168.16,491.09Z"/><path class="cls-6" d="M101,468.78c-4.3-.94-17.42-.63-22.61,3.23-3.76,2.8-7.16,8.4-5,12.1,1.72,2.89,7.61,2.4,7.61,2.4,1.43,4.49,17.42,6.05,21.83-.94,4.74.32,10.7-2.4,10.7-7.4S105.29,469.72,101,468.78Z"/><path class="cls-11" d="M100.82,468.73c-4.3-.94-17.42-.63-22.6,3.23-2.71,2-5.22,5.48-5.6,8.64,2.07,2.67,7.57,2.28,9.35-1.65-1.1,3.55,1.8,6.55,6.53,6.94,7.53.6,13.7-1.31,13.15-8.3,3.92,6.84,12.24.79,9.48-3.54A20.12,20.12,0,0,0,100.82,468.73Z"/><path class="cls-5" d="M101.06,468.48a29.52,29.52,0,0,0-5.75-.46c-5.85,0-13.42,1-17.13,3.75-4.16,3.1-7.27,8.76-5,12.5,1.34,2.25,4.91,2.58,6.93,2.58h.73c1.07,2.51,6,3.82,10.42,3.82,5.42,0,9.82-1.78,11.82-4.76,5.07.22,10.85-2.77,10.85-7.73S106,469.56,101.06,468.48Zm2.55,16.8c-.24,0-.48,0-.72,0h-.21l-.1.16c-1.83,2.9-6.08,4.62-11.36,4.62-5,0-9.21-1.55-9.87-3.61l-.08-.24-.27,0s-.37,0-.93,0c-1.51,0-5.14-.22-6.36-2.27-2.17-3.65,1.44-9.14,4.88-11.7s11.24-3.61,16.72-3.61a28.85,28.85,0,0,1,5.6.44c4,.87,12.32,4.25,12.32,9.08C113.23,482.56,108.24,485.28,103.61,485.28Z"/><path class="cls-5" d="M80.7,486.53l.66,0C81,478.5,85,474.2,85,474.15S80.26,478,80.7,486.53Z"/><path class="cls-5" d="M102.53,485.54l.66.06A15.76,15.76,0,0,0,101,476,22.9,22.9,0,0,1,102.53,485.54Z"/><path class="cls-7" d="M129.66,366.57,146,377c11.08-.16,29.44-7.35,35.72-13.61-1.82,3.6-1.82,4.77-1.82,4.77s11.52-2.22,17.37-17.34l-26.63-24.66C141,327.88,129.66,366.57,129.66,366.57Z"/><path class="cls-6" d="M129.66,366.57l3.91,2.5c5.35-15.95,12.65-33.22,37.22-42.6C137.87,331,129.66,366.57,129.66,366.57Z"/><path class="cls-5" d="M180.29,367.74a19.86,19.86,0,0,1,1.71-4.22l.9-1.78-1.44,1.43c-6.42,6.4-24.57,13.32-35.38,13.52l-16-10.25c1-3.11,12.71-38.35,40.6-40a31.39,31.39,0,0,0-11,1.91c-21.51,8.74-30.15,37.77-30.25,38.11l-.06.21,16.6,10.61h.1c10.31-.14,27.31-6.41,34.71-12.57a10.4,10.4,0,0,0-1.14,3.42v.38l.4-.07c.12,0,11.77-2.43,17.61-17.54l-.62-.22C191.9,363.76,182.49,367.11,180.29,367.74Z"/><path class="cls-6" d="M89.8,344c-.55-3.44-1.11-6.26-1.11-6.26l-3.22,5S77,326,87.26,316c-2.37.31-7.11,4.22-7.11,4.22s-.25-12.08,13.58-18c0,0-31.61-2.29-41.2,32.29l3.64-1.57S44.75,349,61.79,366.83l.66-5.94s9.93,17.05,32.75,22.37c1.16-6.57,10.75-16.12,10.75-16.12S99.67,350.51,89.8,344Z"/><path class="cls-7" d="M87.26,316c-2.37.31-7.11,4.22-7.11,4.22s-.25-12.08,13.58-18c0,0-31.61-2.29-41.2,32.29l3.64-1.57S44.75,349,61.79,366.83l.66-5.94s.17.28.5.78v-2.19C72,369.75,90,381.15,97.1,372c5.68-7.31-8.52-16.84-11.84-29.7C84,339.58,77.94,325,87.26,316Z"/><path class="cls-6" d="M52.53,334.45l3.64-1.57S45.1,348.5,61,366c-6.57-9.87-7.34-25.31,2.8-35.53-1.21.42-3.75-.41-5,.11,8.16-20.24,26.81-27.63,27.6-28C76.54,304.18,59.21,310.38,52.53,334.45Z"/><path class="cls-12" d="M100.77,373l.69-.86-1,.14Z"/><path class="cls-5" d="M90.1,343.86c-.54-3.35-1.07-6.11-1.08-6.13l-.16-.8-3.34,5.14c-1.32-2.92-7-17.12,2-25.87l.67-.65-1,.13c-2,.26-5.35,2.77-6.71,3.83.21-2.63,1.79-12.07,13.36-17.06l1.17-.51-1.28-.09s-.46,0-1.24,0c-5.22,0-31.72,1.57-40.31,32.55L52,335l3.33-1.43c-2,3.61-8.6,18,6.19,33.47l.49.52.64-5.72a54.82,54.82,0,0,0,32.44,21.72l.35.08.06-.33c1.12-6.4,10.57-15.86,10.66-15.95l.14-.14-.07-.18C106.2,366.87,99.88,350.37,90.1,343.86Zm4.84,39a53.6,53.6,0,0,1-32.2-22.14l-.51-.87-.69,6.23c-15.94-17.23-5.21-32.88-5.1-33l.65-.92L53,333.89c8.57-29.62,33.86-31.41,39.33-31.45-12.63,6.15-12.54,17.66-12.54,17.78v.67l.54-.44a31,31,0,0,1,5.83-3.83c-9.06,10.13-1.11,26.09-1,26.25l.26.52,3.09-4.74c.2,1.07.58,3.12,1,5.44l0,.13.12.08c9.12,6,15.25,21,16,22.77C104.35,368.31,96.26,376.67,94.94,382.87Z"/><path class="cls-5" d="M100.12,349.82c-3.72-1.49-7.42-3.31-10.35-6.4l-.49.41c3,3.19,6.85,4.9,10.55,6.56,4.7,2.1,9.13,4.08,11.78,8.82C111.61,359.21,110.31,353.92,100.12,349.82Z"/><path class="cls-6" d="M105.37,366.83c-5.21-.31-13.92,6.51-14.39,11.73-.66,7.44,4.72,16.07,4.72,16.07s5.29,9.17,14.22-.11c3.64.21,9.6-.38,6.84-16.06C115.57,371.73,108.68,367,105.37,366.83Z"/><path class="cls-11" d="M116.76,378.46c-1.19-6.73-8.08-11.43-11.39-11.63-5.21-.31-13.92,6.51-14.39,11.73-.45,5,1.87,10.62,3.42,13.7,2.85.57,5.89-.45,6.92-3.37,2.65,5,8.93,5.84,9.92-3.13,3.09,5.32,6.73,2.61,6-3.62C117.16,381,117,379.8,116.76,378.46Z"/><path class="cls-5" d="M105.39,366.52c-5.56-.35-14.28,6.84-14.74,12-.66,7.44,4.54,15.89,4.76,16.24.1.17,2.47,4.21,6.81,4.21h0c2.52,0,5.16-1.4,7.84-4.15l.74,0a6.23,6.23,0,0,0,4.93-1.89c2.2-2.46,2.65-7.22,1.35-14.56C115.87,371.5,108.72,366.72,105.39,366.52Zm9.84,26a5.54,5.54,0,0,1-4.43,1.68c-.3,0-.58,0-.86,0h-.16l-.1.11c-2.59,2.69-5.1,4.05-7.46,4.05-3.94,0-6.21-3.85-6.24-3.89s-5.31-8.64-4.67-15.88c.42-4.71,8.49-11.46,13.71-11.46h.33c3.15.19,9.92,4.77,11.08,11.37C117.67,385.56,117.27,390.28,115.23,392.56Z"/><path class="cls-5" d="M109.08,380.24c0,.05,4.46,5.91.54,14.15l.6.26a15.77,15.77,0,0,0,1.57-8.83A9.11,9.11,0,0,0,109.08,380.24Z"/><path class="cls-6" d="M94.6,386.23c-5-1.88-7.94.07-8.25,3s3.14,7.82,9.84,6.1,8.27-9.12,6-13.43Z"/><path class="cls-11" d="M97.58,383.65l-2.88,2.53c-4.3-2.14-8.66.12-8.35,3.1.83,8,18.17,2.22,15.91-7.48Z"/><path class="cls-13" d="M94.5,386.09c-4.21-1.95-9.6-.13-7.73,5,1.52-3.6,3.84-5.28,7.89-4.85C94.59,386.17,94.57,386.19,94.5,386.09Z"/><path class="cls-5" d="M102,390.2a8.81,8.81,0,0,1-5.89,4.88c-3.56.91-5.85-.14-7.15-1.18a5.64,5.64,0,0,1-2.28-4.59,4,4,0,0,1,2-3.1c1.54-.88,3.68-.89,6,0,0,0-3.11-2.37-6.4-.53A4.59,4.59,0,0,0,86,389.25a6.24,6.24,0,0,0,2.51,5.13,7.9,7.9,0,0,0,5,1.67,10.67,10.67,0,0,0,2.74-.37,9.42,9.42,0,0,0,6.33-5.23,8.32,8.32,0,0,0-.59-8.54A9.56,9.56,0,0,1,102,390.2Z"/><path class="cls-6" d="M129.66,366.57c-4.19.26-17.09,10.74-9,25.29,2.48,8.29,11.41,10.33,15.22,5,2.15-2.27,2.56-8.37,2.56-8.37s9.51-.63,8.08-10.14C145.31,372.83,133.63,366.32,129.66,366.57Z"/><path class="cls-11" d="M129.66,366.57c-4.19-.23-17.09,10.74-9,25.29a11.42,11.42,0,0,0,4.63,6.45c2.11.79,3.4-.24,4.18-1.72,1.32-1.87-.59-5.59.73-8.72-.61,4.06,1.18,7.88,5.72,8.95,1.36-1.49,2-4.52,2.31-6.49-.7-.25-.86.05-1.77-.38C142,383.69,139.14,367.09,129.66,366.57Z"/><path class="cls-13" d="M120.67,391.86a11.85,11.85,0,0,0,3.44,5.54c-3.19-5.77-1.37-9.06-1.12-14.53a36.64,36.64,0,0,0-1.95,3.75c-2.35-7.43,2.17-16.3,10-19.74a3.13,3.13,0,0,0-1.38-.31C125.69,366.36,112.57,377.31,120.67,391.86Z"/><path class="cls-5" d="M129.89,366.25h-.25c-2.17.13-6.68,2.88-9.52,7.68-2.3,3.89-4.12,10.18.24,18,1.7,5.62,6.12,8.14,9.75,8.14a7.21,7.21,0,0,0,6-3c2-2.08,2.52-7.08,2.63-8.3a10.39,10.39,0,0,0,6.41-3.18c1.57-1.83,2.14-4.29,1.68-7.31C145.62,372.68,134,366.25,129.89,366.25Zm14.77,18.95c-2.29,2.69-6.19,3-6.23,3l-.14.19-.17.1c0,.06-.43,6-2.51,8.21a6.58,6.58,0,0,1-5.5,2.81c-3.39,0-7.53-2.39-9.12-7.72l0-.06c-4.24-7.63-2.48-13.71-.26-17.47,2.69-4.55,7-7.25,9-7.37h.21c4,0,15.13,6.16,16.31,11.52C146.63,381.22,146.11,383.51,144.66,385.2Z"/><path class="cls-11" d="M140.06,388.07a5.2,5.2,0,0,0-3.72,2.07l-5.5-4.93c-1.9,4-1.32,8.27.66,9.86,2.18,1.75,11.14,4.39,12.33-1.25C144.56,390.34,141.55,388,140.06,388.07Z"/><path class="cls-11" d="M136.47,390.06l-5.63-4.85c-1.9,4-1.32,8.27.66,9.86a11.9,11.9,0,0,0,4.08,1.75c4,.6,4.63-2.89,3.82-4.41A4.72,4.72,0,0,0,136.47,390.06Z"/><path class="cls-5" d="M140.06,387.76a5,5,0,0,0-3.76,2.36,6.07,6.07,0,0,1,3.77-1.74,3.53,3.53,0,0,1,2.37,1.35,4.54,4.54,0,0,1,1.06,4,3.61,3.61,0,0,1-2.56,2.85c-3,1-7.76-.61-9.22-1.78-1.78-1.42-2.5-5.45-.58-9.49,0,0-3.73,6.25.15,10,1.15,1.09,4.51,2.24,7.45,2.24a7.91,7.91,0,0,0,2.42-.35,4.23,4.23,0,0,0,3-3.32,5.16,5.16,0,0,0-1.2-4.55A4.24,4.24,0,0,0,140.06,387.76Z"/><path class="cls-5" d="M120.34,391.86H121c0-7.7,3.68-11.72,3.72-11.76S120.28,383.91,120.34,391.86Z"/><path class="cls-14" d="M144.87,178.94a12.48,12.48,0,0,1,4.63-4.38c-10.91-2.74-19.07,2.66-25.85,7.35-5.63-4.06-21.17-5-21.17-5a32.39,32.39,0,0,1,3.64,4.53c-11.75-3.28-19.35-.15-19.35-.15s9.09.62,12.73,2.34C59.31,189.42,57.16,229,57,244.65c0,0,32.09,24.72,154.15,0C204.2,171.12,144.87,178.94,144.87,178.94Z"/><path class="cls-7" d="M184.84,240.42c6-32.28-3-54.6-19.92-59.85a59.53,59.53,0,0,0-20-1.63,12.48,12.48,0,0,1,4.63-4.38c-10.91-2.74-19.07,2.66-25.85,7.35-5.63-4.06-21.17-5-21.17-5a32.39,32.39,0,0,1,3.64,4.53c-11.75-3.28-19.35-.15-19.35-.15s9.09.62,12.73,2.34C59.31,189.42,57.16,229,57,244.65c0,0,29.61,22.78,140,2.71C192.84,242.62,191.6,239.3,184.84,240.42Z"/><path class="cls-14" d="M123.65,181.91c-5.63-4.06-21.17-5-21.17-5a32.39,32.39,0,0,1,3.64,4.53c-11.75-3.28-19.35-.15-19.35-.15s9.09.62,12.73,2.34C59.31,189.42,57.16,229,57,244.65c0,0,1.75.78,4.39,2A68.48,68.48,0,0,1,73.2,202.41c7.28-10.64,19.91-16,33.14-16.64-2.21-1.77-2.82-2.76-5.85-3.65a72.72,72.72,0,0,1,12.68,1.57,31.76,31.76,0,0,0-5.18-4.44c5.29,0,15.77,4.91,15.93,4.85,8.66-6.15,14.94-9,25-9.68C138.28,172,130.3,177.31,123.65,181.91Z"/><path class="cls-5" d="M183.87,188.68c-16.47-11.42-34.67-10.46-38.36-10.12a11.75,11.75,0,0,1,4.15-3.72l.76-.37-.83-.21a24.36,24.36,0,0,0-5.94-.75c-8.31,0-15.05,4.59-20,8-5.79-4-20.52-4.89-21.15-4.93l-.83,0,.57.57a35.94,35.94,0,0,1,3.14,3.8,39,39,0,0,0-9.78-1.29,25.34,25.34,0,0,0-9,1.37l-1.23.51,1.34.09c.08,0,7.57.53,11.57,1.9-27.25,4.42-41.31,25.81-41.69,62l.29.19.17.4c.14.11,14.58,9.89,59.85,9.89,26.54,0,58.26-3.7,94.28-11l.29,0,0-.28C209,218.5,199.72,199.68,183.87,188.68Zm-66.94,66.64c-42.81,0-58.1-9.79-59.6-10.83.42-36.2,14.63-56.57,42.22-60.55l1-.14-.93-.45c-2.76-1.3-8.46-2-11.26-2.24a28.85,28.85,0,0,1,7.21-.86A39.08,39.08,0,0,1,106,181.74l.82.23-.44-.69a31.35,31.35,0,0,0-3.13-4c3.26.26,15.43,1.45,20.18,4.88l.19.14.2-.13c4.9-3.39,11.61-8,19.81-8a23.67,23.67,0,0,1,5,.55,13.16,13.16,0,0,0-4,4.11l-.32.55.66-.09a41.74,41.74,0,0,1,4.83-.24c12.85,0,55.18,4.73,61,65.39C174.93,251.65,143.35,255.32,116.93,255.32Z"/><path d="M139,209.09c-7.42.52-12.82,8.78-12.06,18.46s7.38,17.1,14.8,16.58,12.82-8.78,12.07-18.46S146.43,208.57,139,209.09Z"/><path class="cls-15" d="M139.14,211.06c-7.15.5-12.37,8.31-11.65,17.44s7.09,16.13,14.24,15.63,12.37-8.31,11.65-17.44S146.29,210.56,139.14,211.06Z"/><path class="cls-13" d="M139.14,211.06c-7.15.5-12.42,8.31-11.65,17.44,1.06,12.71,26.43,16.3,25.89-1.81C153.12,217.53,146.29,210.56,139.14,211.06Z"/><path d="M139.12,210.75c-7.32.51-12.69,8.48-12,17.77.7,8.95,6.78,15.95,13.85,15.95l.74,0a11.86,11.86,0,0,0,9-5.62,19.29,19.29,0,0,0,2.92-12.15C153,217.41,146.5,210.24,139.12,210.75Zm11.11,27.73a11.23,11.23,0,0,1-8.53,5.34c-7,.48-13.19-6.43-13.88-15.34s4.39-16.62,11.35-17.11q.35,0,.69,0c6.73,0,12.52,6.76,13.19,15.37A18.64,18.64,0,0,1,150.23,238.48Z"/><path d="M87.25,212.44c-5.51-.67-10.92,5.83-12.1,14.52s2.33,16.26,7.83,16.93,10.92-5.83,12.1-14.52S92.75,213.11,87.25,212.44Z"/><path class="cls-15" d="M87,214.22c-5.29-.64-10.48,5.48-11.6,13.67s2.28,15.35,7.58,16,10.48-5.47,11.59-13.66S92.26,214.87,87,214.22Z"/><path class="cls-13" d="M87,214.22c-5.29-.64-10.79,5.45-11.6,13.67C73.7,245,92.72,241.28,94.54,230.22,95.88,222.06,92.26,214.87,87,214.22Z"/><path class="cls-16" d="M87.86,224.14c-3-.15-5.71,3.27-6,7.66s2,8.06,5,8.22,5.71-3.27,6-7.66S90.91,224.3,87.86,224.14Z"/><path class="cls-17" d="M89.22,235.55c-2.67,1.34-5.46.14-7.27-1.86.38,3.51,2.41,6.2,5,6.33,3,.16,5.71-3.27,6-7.66,0-.16,0-.32,0-.48A8.18,8.18,0,0,1,89.22,235.55Z"/><path d="M87.85,228.26c-1.77-.09-3.33,1.91-3.48,4.46s1.17,4.71,2.95,4.8,3.33-1.91,3.48-4.47S89.63,228.35,87.85,228.26Z"/><path class="cls-18" d="M87.88,223.79c-3.3-.17-6.09,3.41-6.35,8s2.16,8.42,5.4,8.59h.52c3.08-.22,5.59-3.65,5.84-8A10.27,10.27,0,0,0,92,226.49,5.17,5.17,0,0,0,87.88,223.79Zm4.67,8.56c-.24,4.12-2.73,7.47-5.58,7.32S82,236,82.27,231.82c.22-3.92,2.48-7.13,5.15-7.32h.42a4.44,4.44,0,0,1,3.46,2.36A9.57,9.57,0,0,1,92.55,232.35Z"/><path class="cls-13" d="M84.92,229a1.79,1.79,0,0,0-2.08,1.41,1.73,1.73,0,0,0,1.5,2,1.81,1.81,0,0,0,2.08-1.42A1.73,1.73,0,0,0,84.92,229Z"/><path class="cls-13" d="M88.82,227.49a1,1,0,0,0-1.2.82,1,1,0,0,0,.87,1.13,1,1,0,0,0,1.19-.82A1,1,0,0,0,88.82,227.49Z"/><path d="M87,213.91a7.32,7.32,0,0,0-.81,0c-5.28,0-10.07,6-11.15,14-1.13,8.35,2.39,15.68,7.86,16.35a7,7,0,0,0,.8,0h0c5.28,0,10.08-6,11.16-14a19.92,19.92,0,0,0-1.41-11C92,216.14,89.69,214.24,87,213.91Zm7.2,16.27c-1,7.53-5.63,13.44-10.5,13.44a5.81,5.81,0,0,1-.72-.05c-5.1-.61-8.37-7.63-7.29-15.64,1-7.54,5.64-13.44,10.5-13.44.24,0,.49,0,.73,0,2.44.3,4.54,2.07,5.92,5A19.18,19.18,0,0,1,94.21,230.18Z"/><path class="cls-16" d="M142.32,220.81c-3.7.32-6.28,4.89-5.77,10.21s3.92,9.39,7.61,9.07,6.28-4.88,5.77-10.21S146,220.5,142.32,220.81Z"/><path class="cls-17" d="M149.93,229.88a14.09,14.09,0,0,0-.42-2.31,9.1,9.1,0,0,1-6.33,6.65c-2.45.72-4.59-.34-6.43-1.85.9,4.65,4,8,7.41,7.72C147.86,239.78,150.44,235.21,149.93,229.88Z"/><path d="M143.07,225.77c-2.16.18-3.67,2.85-3.37,6s2.29,5.47,4.44,5.29,3.66-2.85,3.37-6S145.22,225.59,143.07,225.77Z"/><path class="cls-18" d="M147.67,223a6.36,6.36,0,0,0-5.39-2.58c-4,.33-6.71,5.12-6.18,10.67s4.16,9.8,8.1,9.46l.63-.09c3.67-.77,6-5.32,5.55-10.59A12.5,12.5,0,0,0,147.67,223Zm-3.55,16.7c-3.44.29-6.63-3.6-7.12-8.68-.45-4.76,1.67-9,4.85-9.68a4.46,4.46,0,0,1,.51-.07A5.49,5.49,0,0,1,147,223.5a11.82,11.82,0,0,1,2.51,6.42C150,234.93,147.58,239.38,144.12,239.67Z"/><path class="cls-6" d="M209.38,244.13c-27.68-10-66.27,2.32-71.45,1.87-7-.6-22-9.9-36.86-9.88-10.67,0-17.2,6.18-21.36,7.59-7,2.38-22-8.29-34.29,14.39.49,1.1,6.45-1.56,6.45-1.56s-8.27,5.32-4.63,18.77a16.29,16.29,0,0,1,3.47-4.38S52,295,95.81,302.53l39.17,2.9c26.46,0,60.73-6.24,72-22.51a18.8,18.8,0,0,1-.44,6.05s11-1.67,11.91-19.4c2.2,1.05,3.75,4,3.75,4S230,251.54,209.38,244.13Z"/><path class="cls-11" d="M180.05,240.58c0-.1.07-.21.11-.31-20.19.59-38.75,6-42.23,5.73-7-.6-22-9.9-36.86-9.88-10.67,0-17.2,6.18-21.36,7.59-7,2.38-22-8.29-34.29,14.39.49,1.1,6.45-1.56,6.45-1.56s-8.27,5.32-4.63,18.77a16.29,16.29,0,0,1,3.47-4.38S52,295,95.81,302.53l20.51,6.26,18.6-3.39h.44c15.69-1.71,61.45-16.84,60.57-39.79a13.16,13.16,0,0,1,3.3,6.26c4-5.63.67-11.89-2-17.52a7.7,7.7,0,0,1,5.29,3.75C200.56,248.72,191.29,238.7,180.05,240.58Z"/><path class="cls-19" d="M79.71,243.71c.09,0-1,.15-2.79.29A8.12,8.12,0,0,0,79.71,243.71Z"/><path class="cls-6" d="M55.84,264.52c-2,1.25-3.64,1.56-5.63,2.81,1.11-7.09,6.56-10.84,9.1-14.08a13.72,13.72,0,0,0-7.39,1c5.17-8.35,16.77-9.78,23.21-10.11.65,0,1.25-.08,1.79-.13-7.5-.24-20.77-5.79-31.5,14.1.49,1.1,6.45-1.56,6.45-1.56s-8.27,5.32-4.63,18.77a16.29,16.29,0,0,1,3.47-4.38s1.21,21.94,39.35,30.47C72.13,294.06,54.35,280.16,55.84,264.52Z"/><path class="cls-13" d="M80.88,248.64c5-4.24,12.1-5.9,18.94-7.64a95.86,95.86,0,0,0-10.45.84s-14.16,2.29-16.15,14.54c-.82,5,1.18,6.68,2,10.36C75.7,259.36,74.74,253.67,80.88,248.64Z"/><path class="cls-5" d="M209.5,243.83c-21.25-7.64-48.41-2.33-63,.52-4.28.84-7.37,1.44-8.54,1.34-2.59-.22-6.38-1.69-10.76-3.39-7.45-2.89-16.72-6.49-26.07-6.49h-.06c-7.71,0-13.28,3.19-17.35,5.52a26.48,26.48,0,0,1-4.12,2.08c-1.82.62-4.23.33-7,0-7.76-1-18.38-2.24-27.45,14.56l-.07.13.06.14a.77.77,0,0,0,.44.37c.86.31,3-.4,4.66-1-2.24,2.33-6,7.95-3.29,17.82l.21.81.4-.75a16.29,16.29,0,0,1,2.92-3.84c.26,1.76,1.37,6.79,6.13,12.5,5.12,6.14,15.59,14.18,36.56,18.25a11.1,11.1,0,0,0,2.73-.14c-22.48-3.85-33.47-12.17-38.74-18.46C51.44,277,51,271,51,270.91l0-.65-.51.44a16.74,16.74,0,0,0-3.14,3.74c-3-12.49,4.62-17.59,4.7-17.64l-.32-.55c-1.84.82-5,2-5.9,1.78C54.65,241.85,65,243.1,72.49,244c2.88.35,5.36.65,7.33,0a26.76,26.76,0,0,0,4.25-2.14c4-2.28,9.47-5.41,17-5.43h.06c9.22,0,18.42,3.58,25.82,6.45,4.43,1.72,8.26,3.2,11,3.43,1.27.12,4.24-.47,8.73-1.35,14.53-2.84,41.56-8.12,62.63-.54,18,6.48,13.9,24.52,12.81,28.31a9.6,9.6,0,0,0-3.5-3.44l-.46-.21,0,.48c-.75,15.12-9.05,18.4-11.15,19a17.57,17.57,0,0,0,.34-5.68l-.15-.77-.46.65c-10.78,15.61-43.9,22.6-71.94,22.6a87.71,87.71,0,0,0,16.46-.15c23.18-2.32,46.32-9.05,55.54-21.4a21.87,21.87,0,0,1-.54,5.11l-.11.45.48-.08c.11,0,11.09-1.88,12.16-19.18a10.76,10.76,0,0,1,3.15,3.58l.36.67.25-.71C222.56,273.41,230.15,251.27,209.5,243.83Z"/><path class="cls-5" d="M93.56,298a8.45,8.45,0,0,0,6.57,2.86,9.76,9.76,0,0,0,7.25-2.75A12.41,12.41,0,0,1,93.56,298Z"/><path d="M87.59,196.15c-5.46,2-8.65,12.15-8.21,12.57,0,0,5-7.82,8-8.87a7.53,7.53,0,0,1,5.35,0S91.8,194.62,87.59,196.15Z"/><path d="M129.67,196.77s9.47-4.27,17.16,4.87C143.11,192.56,137.79,189.55,129.67,196.77Z"/><path class="cls-13" d="M139.67,227.12a2.09,2.09,0,1,0,2.16,2.12A2.16,2.16,0,0,0,139.67,227.12Z"/><path class="cls-13" d="M144.09,224.69a1.2,1.2,0,1,0,1.25,1.22A1.23,1.23,0,0,0,144.09,224.69Z"/><path class="cls-20" d="M77.2,264.86c-.4-1,21.49,13.86,55.78-4.71-16.47,30.8-11.95,32-32.54,32.53C81.77,292,97.69,284.31,77.2,264.86Z"/><path class="cls-21" d="M92.14,290.29s11,4.72,21.92-.94-6-12.25-11-8.48c-2-2.82-17.93-.94-11,9.42"/><path class="cls-13" d="M96.3,282.25A3.3,3.3,0,0,0,99.87,281a4.75,4.75,0,0,0,4.81-.21c2.14-1.49-.06-20.07-.06-20.07l-14.21,1.52S91.42,280.6,96.3,282.25Z"/><path class="cls-15" d="M98.58,275.82a3.68,3.68,0,0,0-.16-.54A5.52,5.52,0,0,0,98.58,275.82Z"/><path class="cls-15" d="M104.62,260.7l-2.74.29c.92,5.72,2.67,14,1.6,17.14-.82,2.43-4.14-.23-4.9-2.31.28,1.19-.08,3.2-1.5,3.58-1.62.22-2.58,0-4-1.65.82,2.29,1.87,4,3.23,4.5A3.3,3.3,0,0,0,99.87,281a4.75,4.75,0,0,0,4.81-.21C106.82,279.28,104.62,260.7,104.62,260.7Z"/><polygon class="cls-22" points="99.53 281.04 96.03 264.99 96.72 264.85 100.22 280.91 99.53 281.04"/><path class="cls-22" d="M97.23,282.74a3.28,3.28,0,0,1-1-.17c-5-1.71-6.09-19.58-6.13-20.34l0-.31,14.89-1.59,0,.33c.37,3.13,2.11,18.85-.09,20.38a5,5,0,0,1-4.9.36A3.78,3.78,0,0,1,97.23,282.74Zm-6.45-20.23c.32,5.27,1.89,18.16,5.64,19.43h0a2.92,2.92,0,0,0,3.16-1.15l.19-.26.29.16a4.31,4.31,0,0,0,4.41-.19c1.42-1,.67-12.3-.16-19.44Z"/><path class="cls-11" d="M90.37,242.52S75.9,243.31,73.92,254s2.78,17.45,12.19,18,10.27-7.45,10.27-7.45,6.5,5.68,14.14,5.77,18.23-1.51,16.79-13.37c-1.1-9-9.31-14.69-19.22-15A143.23,143.23,0,0,0,90.37,242.52Z"/><path class="cls-6" d="M127.31,256.92c-1-8.48-8.34-14-17.44-14.87,8.59,3.79,12.85,10.95,10.37,18.12-1.64,4.94-9.62,6.38-15.48,4.78-5.63-1.59-10.73-7.83-11.2-12.29A37.37,37.37,0,0,1,93,261a9.62,9.62,0,0,1-7.28,7.18,18.73,18.73,0,0,1-8.44.16l-.36-.07A13.48,13.48,0,0,0,86.11,272c9.41.54,10.27-7.45,10.27-7.45s6.5,5.68,14.14,5.77S128.75,268.78,127.31,256.92Z"/><path class="cls-5" d="M87,272.23l-.93,0a14.39,14.39,0,0,1-8.61-3.09c-3.75-3.15-5.13-8.54-3.9-15.18,1-5.6,5.55-8.48,9.14-9.9a27.08,27.08,0,0,1,7.61-1.76,146.53,146.53,0,0,1,17.78-.58A23.13,23.13,0,0,1,121.26,246a15.84,15.84,0,0,1,6.4,10.91c.57,4.74-.73,8.31-3.87,10.59-2.88,2.09-7.34,3.11-13.27,3-6.55-.08-12.17-4.07-13.89-5.42a8.88,8.88,0,0,1-4.14,5.8A10.74,10.74,0,0,1,87,272.23Zm17.06-30.1c-7.81,0-13.58.62-13.65.63h0a26.25,26.25,0,0,0-7.36,1.7c-5,2-8,5.2-8.77,9.54-1.21,6.51.12,11.77,3.74,14.81a13.47,13.47,0,0,0,8.13,2.92A10.32,10.32,0,0,0,92,270.55a8.71,8.71,0,0,0,4-6l.06-.62.57.49c.06.05,6.49,5.59,13.87,5.67,5.72.07,10-.9,12.75-2.89,3-2.18,4.24-5.62,3.68-10.22-1-8.54-8.63-14.47-18.89-14.76C106.7,242.14,105.35,242.13,104.07,242.13Z"/><path class="cls-23" d="M80.56,245.72c-1.6,3,5.45,10.94,13.76,10.94,5.15,0,21.87-7,19.23-12.18C110.31,238.13,83.49,240.32,80.56,245.72Z"/><path class="cls-24" d="M81.86,245.86c-.56,1,.37,2.65,2,4.31,5.56,3.42,14.5,2.64,20.59-.82,3.3-1.84,6.8-6.1,4.1-7.54C100.29,239.42,84.16,241.6,81.86,245.86Z"/><path class="cls-25" d="M91.34,242.94c-3.68.7-6.34,2.06-5.94,3s3.71,1.18,7.39.48,6.35-2.07,5.95-3S95,242.23,91.34,242.94Z"/><path class="cls-26" d="M94.32,256.9A16.71,16.71,0,0,1,83,252.05c-2.45-2.39-3.57-5-2.79-6.41,1.78-3.29,11.63-5.28,19.88-5.28h.32c7.26,0,12.16,1.52,13.45,4,.72,1.41.15,3-1.69,4.79C107.89,253.3,98,256.9,94.32,256.9Zm5.79-16.06c-8,0-17.6,2-19.22,5h0c-.69,1.29.42,3.75,2.71,6a15.88,15.88,0,0,0,10.72,4.64c3.55,0,13.11-3.51,17.29-7.51,1.71-1.63,2.25-3.09,1.61-4.35-1.17-2.29-6-3.68-12.8-3.72Z"/></svg>