<svg id="Layer_1" data-name="Layer 1" xmlns="http://www.w3.org/2000/svg" viewBox="0 0 30 30"><defs><style>.cls-1{fill:#4c2d1c;}.cls-2,.cls-4{fill:#f9f4f4;}.cls-2{stroke:#704312;stroke-miterlimit:10;}.cls-3{fill:#281818;}.cls-5{fill:#e29674;}.cls-6{fill:#280e06;}</style></defs><path class="cls-1" d="M23.62,12.3S16.11-.18,8.48,2.47c-.6.2-.24,3-.88,3.36-.43.22-1.76-2.12-1.76-2.12A13.08,13.08,0,0,0,6,6.88,1.61,1.61,0,0,0,8,8c5.5-1,13.36,4,13.36,4C24,13.45,24.89,14.21,23.62,12.3Z"/><path class="cls-2" d="M9.62,25.69c2.47,3.11,6.61,2.91,9.24-.44s2.75-8.59.27-11.69-6.61-2.91-9.24.44-2.75,8.59-.27,11.69"/><path class="cls-3" d="M8.73,22.08c0,2.93,1.8,5.32,4,5.34s4.08-2.34,4.1-5.28-1.8-5.32-4-5.34-4.09,2.34-4.1,5.28"/><path class="cls-4" d="M13.73,20.24a1.92,1.92,0,0,0,3.83,0,1.83,1.83,0,0,0-1.9-1.77,1.84,1.84,0,0,0-1.93,1.75"/><path class="cls-5" d="M20.64,21a9.35,9.35,0,0,0-1.58-7.38c-2.46-3.12-6.6-2.94-9.24.4a9.84,9.84,0,0,0-2,4.78C11.45,21.57,15.53,22.86,20.64,21Z"/><path class="cls-6" d="M7.77,18.73c1.16.36,2.23.76,3.31,1.11a25.7,25.7,0,0,0,3.21.83,17.65,17.65,0,0,0,3.26.3c1.11,0,2.24-.12,3.45-.23a8.91,8.91,0,0,1-7,1.54A10.89,10.89,0,0,1,10.56,21,10.54,10.54,0,0,1,7.77,18.73Z"/></svg>