<svg id="Layer_1" data-name="Layer 1" xmlns="http://www.w3.org/2000/svg" viewBox="0 0 30 30"><defs><style>.cls-1{fill:#4c2d1c;}.cls-2,.cls-4{fill:#f9f4f4;}.cls-2{stroke:#704312;stroke-miterlimit:10;}.cls-3{fill:#281818;}</style></defs><path class="cls-1" d="M23.62,12.3S16.11-.18,8.48,2.47c-.6.2-.24,3-.88,3.36-.43.22-1.76-2.12-1.76-2.12A13.08,13.08,0,0,0,6,6.88,1.61,1.61,0,0,0,8,8c5.5-1,13.36,4,13.36,4C24,13.45,24.89,14.21,23.62,12.3Z"/><path class="cls-2" d="M9.62,25.69c2.47,3.11,6.61,2.91,9.24-.44s2.75-8.59.27-11.69-6.61-2.91-9.24.44-2.75,8.59-.27,11.69"/><path class="cls-3" d="M8.73,22.08c0,2.93,1.8,5.32,4,5.34s4.08-2.34,4.1-5.28-1.8-5.32-4-5.34-4.09,2.34-4.1,5.28"/><path class="cls-4" d="M13.73,20.24a1.92,1.92,0,0,0,3.83,0,1.83,1.83,0,0,0-1.9-1.77,1.84,1.84,0,0,0-1.93,1.75"/></svg>