<svg id="Layer_1" data-name="Layer 1" xmlns="http://www.w3.org/2000/svg" viewBox="0 0 90 60"><defs><style>.cls-1{fill:#c3beba;}.cls-2{fill:#fff;}.cls-3{fill:#592c0e;}.cls-4{fill:#842c1a;}.cls-5{fill:#23110a;}.cls-6{fill:#f1d8be;}</style></defs><path d="M69.65,20.48c-7.42.52-12.82,8.79-12.06,18.46S65,56,72.39,55.53s12.82-8.79,12.07-18.46S77.07,20,69.65,20.48Z"/><path class="cls-1" d="M69.78,22.45c-7.15.5-12.37,8.31-11.65,17.44S65.22,56,72.37,55.53,84.74,47.22,84,38.08,76.93,22,69.78,22.45Z"/><path class="cls-2" d="M69.78,22.45c-7.15.5-12.42,8.31-11.65,17.44C59.19,52.6,84.55,56.2,84,38.08,83.75,28.93,76.93,22,69.78,22.45Z"/><path d="M69.76,22.14c-7.32.51-12.69,8.49-12,17.78.7,8.94,6.78,15.95,13.85,15.95l.74,0a11.87,11.87,0,0,0,9-5.63,19.22,19.22,0,0,0,2.93-12.15C83.63,28.8,77.14,21.63,69.76,22.14Zm11.1,27.74a11.23,11.23,0,0,1-8.52,5.33c-7,.49-13.19-6.42-13.88-15.34s4.39-16.62,11.35-17.11l.69,0c6.73,0,12.52,6.75,13.19,15.37A18.58,18.58,0,0,1,80.86,49.88Z"/><path d="M17.89,23.83C12.38,23.16,7,29.66,5.79,38.35s2.33,16.27,7.83,16.93,10.92-5.83,12.1-14.51S23.39,24.5,17.89,23.83Z"/><path class="cls-1" d="M17.61,25.62C12.31,25,7.12,31.1,6,39.29s2.28,15.35,7.58,16S24.07,49.8,25.18,41.61,22.9,26.26,17.61,25.62Z"/><path class="cls-2" d="M17.61,25.62C12.31,25,6.82,31.06,6,39.29,4.34,56.43,23.36,52.68,25.18,41.61,26.52,33.45,22.9,26.26,17.61,25.62Z"/><path class="cls-3" d="M18.5,35.54c-3-.16-5.71,3.27-6,7.65s2,8.07,5.05,8.22,5.71-3.27,6-7.65S21.54,35.69,18.5,35.54Z"/><path class="cls-4" d="M19.85,46.94c-2.66,1.34-5.45.15-7.26-1.86.38,3.51,2.41,6.2,5,6.33,3,.16,5.71-3.27,6-7.65,0-.16,0-.33,0-.49A8.11,8.11,0,0,1,19.85,46.94Z"/><path d="M18.49,39.65c-1.78-.09-3.33,1.91-3.48,4.47s1.17,4.7,3,4.79,3.33-1.91,3.48-4.46S20.26,39.74,18.49,39.65Z"/><path class="cls-5" d="M18.52,35.19c-3.3-.18-6.09,3.41-6.35,8s2.16,8.43,5.4,8.6h.52c3.08-.22,5.59-3.65,5.84-8a10.26,10.26,0,0,0-1.35-5.89A5.13,5.13,0,0,0,18.52,35.19Zm4.66,8.55c-.23,4.12-2.72,7.47-5.57,7.32s-4.94-3.66-4.7-7.85c.22-3.91,2.48-7.13,5.14-7.32h.43a4.42,4.42,0,0,1,3.46,2.35A9.51,9.51,0,0,1,23.18,43.74Z"/><path class="cls-2" d="M15.56,40.37a1.8,1.8,0,0,0-2.08,1.42,1.72,1.72,0,0,0,1.5,2,1.8,1.8,0,0,0,2.07-1.42A1.72,1.72,0,0,0,15.56,40.37Z"/><path class="cls-2" d="M19.46,38.88a1,1,0,0,0-1.2.82,1,1,0,0,0,.86,1.13,1,1,0,0,0,1.2-.82A1,1,0,0,0,19.46,38.88Z"/><path d="M17.65,25.31a7.34,7.34,0,0,0-.81,0c-5.28,0-10.07,6-11.15,14C4.55,47.6,8.08,54.93,13.54,55.59a7.34,7.34,0,0,0,.81,0h0c5.28,0,10.08-6,11.16-14a19.89,19.89,0,0,0-1.41-11C22.62,27.53,20.33,25.63,17.65,25.31Zm7.2,16.26C23.83,49.11,19.22,55,14.35,55a5.79,5.79,0,0,1-.72,0c-5.11-.62-8.37-7.64-7.29-15.64,1-7.54,5.64-13.44,10.5-13.44a5.69,5.69,0,0,1,.72,0c2.45.29,4.55,2.06,5.93,5A19.19,19.19,0,0,1,24.85,41.57Z"/><path class="cls-3" d="M73,32.21c-3.7.31-6.28,4.88-5.77,10.21s3.91,9.38,7.61,9.07,6.28-4.89,5.77-10.21S76.65,31.89,73,32.21Z"/><path class="cls-4" d="M80.57,41.28A14.21,14.21,0,0,0,80.15,39a9.1,9.1,0,0,1-6.34,6.65c-2.44.72-4.58-.34-6.42-1.84.9,4.64,4,8,7.41,7.72C78.5,51.17,81.08,46.6,80.57,41.28Z"/><path d="M73.7,37.16c-2.15.19-3.66,2.86-3.36,6s2.28,5.48,4.44,5.29,3.66-2.85,3.37-5.95S75.86,37,73.7,37.16Z"/><path class="cls-5" d="M78.31,34.36a6.36,6.36,0,0,0-5.39-2.58c-4,.34-6.71,5.12-6.18,10.68s4.16,9.79,8.1,9.45a3.42,3.42,0,0,0,.63-.09c3.67-.77,6-5.32,5.55-10.58A12.61,12.61,0,0,0,78.31,34.36Zm-3.55,16.7c-3.44.3-6.64-3.6-7.12-8.68-.46-4.76,1.67-9,4.85-9.67a3.89,3.89,0,0,1,.51-.08,5.49,5.49,0,0,1,4.61,2.26,11.82,11.82,0,0,1,2.51,6.42C80.6,46.32,78.22,50.77,74.76,51.06Z"/><path class="cls-6" d="M10.35,55.1c.09,0-1,.15-2.79.3A8.36,8.36,0,0,0,10.35,55.1Z"/><path d="M18.23,7.54c-5.46,2-8.65,12.15-8.21,12.57,0,0,5-7.82,8-8.86a7.51,7.51,0,0,1,5.35-.06S22.44,6,18.23,7.54Z"/><path d="M60.31,8.16S69.78,3.89,77.46,13C73.75,4,68.43.94,60.31,8.16Z"/><path class="cls-2" d="M70.3,38.52a2.09,2.09,0,1,0,2.17,2.12A2.16,2.16,0,0,0,70.3,38.52Z"/><path class="cls-2" d="M74.73,36.08A1.2,1.2,0,1,0,76,37.3,1.24,1.24,0,0,0,74.73,36.08Z"/></svg>