<svg xmlns="http://www.w3.org/2000/svg" xmlns:xlink="http://www.w3.org/1999/xlink" viewBox="0 0 380 620"><defs><style>.cls-1{isolation:isolate;}.cls-2{opacity:0.28;}.cls-13,.cls-2{mix-blend-mode:multiply;}.cls-11,.cls-3{fill:#f2b5a5;}.cls-3{stroke:#7a3e32;}.cls-17,.cls-18,.cls-3,.cls-5,.cls-7,.cls-8{stroke-miterlimit:10;}.cls-18,.cls-3,.cls-5{stroke-width:2px;}.cls-4{fill:#241e5e;}.cls-5{stroke:#bf753d;fill:url(#linear-gradient);}.cls-6{fill:#bf753d;}.cls-7,.cls-9{fill:#fff;}.cls-7{stroke:#262c60;}.cls-17,.cls-7{stroke-width:0.75px;}.cls-8{fill:#ef4c48;stroke:#161549;}.cls-10{fill:#4c2d1c;}.cls-12{fill:#7a3e32;}.cls-14{fill:url(#Áåçûìÿííûé_ãðàäèåíò_140);}.cls-15{fill:#a65635;}.cls-16{fill:#5d1322;}.cls-17{fill:#f9f4f4;stroke:#704312;}.cls-18{fill:none;stroke:#5b58d6;stroke-dasharray:5;}.cls-19{fill:#0e0e30;opacity:0.49;}</style><linearGradient id="linear-gradient" x1="310.01" y1="299.71" x2="106.08" y2="181.97" gradientUnits="userSpaceOnUse"><stop offset="0" stop-color="#fbb040"/><stop offset="1" stop-color="#f7941d"/></linearGradient><linearGradient id="Áåçûìÿííûé_ãðàäèåíò_140" x1="-4596.51" y1="2034.25" x2="-4568.17" y2="2004.41" gradientTransform="matrix(0.48, 0.41, -0.06, 0.65, 2477.38, 644.67)" gradientUnits="userSpaceOnUse"><stop offset="0.12" stop-color="#d48f4a"/><stop offset="0.22" stop-color="#d59350"/><stop offset="0.36" stop-color="#da9d61"/><stop offset="0.52" stop-color="#e0af7e"/><stop offset="0.69" stop-color="#eac7a5"/><stop offset="0.87" stop-color="#f5e6d7"/><stop offset="1" stop-color="#fff"/></linearGradient></defs><g class="cls-1"><g id="Layer_1" data-name="Layer 1"><ellipse class="cls-2" cx="250.75" cy="592.14" rx="128.27" ry="24.23"/><path class="cls-3" d="M176.51,263.34H154.74a6.92,6.92,0,0,0-4.88,2c-3.85,3.83-12.51,12-18.82,15a1.33,1.33,0,0,0-.67,1.77c.62,1.29,2.23,2.82,6.39,1,6.41-2.75,12.34-7.48,16.91-7.48s14,0,14,2-9.58,6.3-12.33,11a14.54,14.54,0,0,0-1.87,7,1.36,1.36,0,0,0,2.21,1.09c3.47-2.79,10.8-8.06,16.89-8.06,8.29,0,22.61-9.84,25.25-11.41s-1-20.93-20.85-14A1.42,1.42,0,0,1,176.51,263.34Z"/><path class="cls-3" d="M106.34,38.47s-9.47,23.18-3.54,55.84c0,0-15.76,6.46-1.94,19,0,0,7.64,31.75,28.91,34,1.39.14,12.74-1.74,16.1-6.94,0,0,5.54,7.74,5.77,15s41.3-3.86,34.53-14.5c-1.6-2.51-7.31-15.53-6.62-31.29S127.7,32.42,106.34,38.47Z"/><path class="cls-3" d="M109.88,193.22c-1.25-.61-26.95,14.84-29.92,14.38-6-12.73-24.55-22.52-37-45.45-1.58.81,4.32-21-2.82-27-3.39-2.86-11.57-1.93-14.77-13.35-.42-1.51-11-1.39-10.5,6.74l.45,5.08c-2.12-3.58-11.62-6-7.76,6.17-3-3.08-9.27.67-2.74,10.73,0,0-11.37.09,5,12.11,8.29,6.08,13.42,9.14,13.42,9.14s26.67,66.92,48.14,68.52,52-16.45,52-16.45S131.58,203.72,109.88,193.22Z"/><path class="cls-3" d="M266.67,163.52c20.82,15.48,39.91,28.87,48.46,37.66,0,0,6,5.51-8.36,25s-48.65,42.83-48.65,42.83l-7.62-25.52a5.43,5.43,0,0,0,6.59-3.16c2.23-4.63,15.42-29.74,21.24-28.88,0,0-18.64-11.48-23.27-13S243.89,179.11,266.67,163.52Z"/><path class="cls-4" d="M185.75,315,176,339.84a6.85,6.85,0,0,0-.16,4.86c.3.77.22,2.05-1,4.17-2.69,4.8-5.3,7.2-2.23,13.37s-11.48,74.34-11.48,74.34l46.87,13s5.76-1.37,1.92-5.48,3.07-3.77,3.07-3.77,2.69-.34,1.92-4.11S235.73,400,235.73,400l13-30.83s24.68-18.23,25.84-34.67S269.66,303,269.66,303Z"/><path class="cls-4" d="M220.12,330.84l5.11,19.41s3.51,5.69,2.74,10.62-8.17,5.48-3.77,9.93,1,82.57,1,82.57l45.06-2.76s4.34-2.84-.07-5.3,1.39-4.15,1.39-4.15,2.11-1.07.34-4.11,5.36-39.52,5.36-39.52L288,368.63s15.59-18,10.28-48.88c-2.39-13.85-11.19-26.11-11.19-26.11Z"/><path class="cls-5" d="M97.69,196.5s.67,22.24,19.28,35.87a2.12,2.12,0,0,0,2.6-.06l25.34-13.48s-1,5.79,10.43,23C166,257.74,168.91,271,171.78,280c0,0,4.57,35.86,5.48,58.24,0,0,69,28.9,122.16-20.21,0,0-22-74.8-33.19-96.73,0,0-3.18-11.43-8.67-17.08l11.18,9s32.91-27.49,7.13-44.61a34.62,34.62,0,0,0-3.13-1.79c-8.83-4.62-35.16-24.59-36.55-24.86-11.05-2.21-50.42-6.31-103.32,21.91a39.49,39.49,0,0,0-11.3,10.05C115.2,182.81,103.75,193.25,97.69,196.5Z"/><path class="cls-6" d="M236.54,146.39a16.57,16.57,0,0,1,3,2.51,39.17,39.17,0,0,1,2.63,3,50.65,50.65,0,0,1,4.27,6.67,78.19,78.19,0,0,1,6,14.64c.42,1.26.75,2.53,1.07,3.81l1,3.82c.5,2.59,1.07,5.15,1.49,7.75s.74,5.2,1,7.81.41,5.23.53,7.85c-.56-2.57-1-5.14-1.5-7.71l-1.59-7.66-1.79-7.59-1-3.76c-.33-1.25-.67-2.51-1.09-3.73l-1.15-3.72-1.32-3.65c-.4-1.23-.94-2.4-1.43-3.6s-1-2.38-1.57-3.55C242.85,154.63,240.36,150,236.54,146.39Z"/><path class="cls-6" d="M131.7,167.63a8.15,8.15,0,0,1,3.2,1.17,16.27,16.27,0,0,1,2.77,2l.64.58.58.65c.39.43.78.85,1.15,1.3l1,1.41a11.32,11.32,0,0,1,.94,1.46,39.53,39.53,0,0,1,4.62,12.92c.11.57.25,1.12.32,1.69l.21,1.7.4,3.4.13,3.41c0,1.13.13,2.27.05,3.4-.1,2.27-.15,4.54-.37,6.79s-.55,4.5-.91,6.72c-.08-2.26-.07-4.51-.07-6.76,0-1.12-.07-2.24-.1-3.36l-.11-3.36c-.12-2.23-.34-4.45-.5-6.67l-.46-3.3-.22-1.65c-.08-.55-.23-1.09-.33-1.63L144,186.3l-.91-3.18a42,42,0,0,0-2.45-6.12c-.45-1-1.11-1.89-1.63-2.86l-1-1.33-.49-.66-.55-.61a16.62,16.62,0,0,0-2.39-2.28,9.78,9.78,0,0,0-1.37-.94,5.8,5.8,0,0,0-.73-.4A3.75,3.75,0,0,0,131.7,167.63Z"/><path class="cls-7" d="M233.29,576a4.28,4.28,0,0,0,2.46,3.32c2.17.87,9.52,2.91,23.29,2.4s26.3,0,26.3,0,20.7,2,26.52-1.84c0,0,.92-.34.81-2s-.6-2-.08-3.14-.67-.57-.67-.57-51.05-.18-51.56-.15Z"/><path class="cls-8" d="M233.47,576.39s-11.32-10.57,5.49-19.26a32,32,0,0,1,20.08,0l23.33-11.93s9.52-5.55,3.56,6.17c0,0-.13,9.68,23.72,1.33,0,0,4.81,8.86,2.41,21.3C307.59,580.31,240.68,581,233.47,576.39Z"/><path class="cls-9" d="M265.5,565.76a16.2,16.2,0,0,0-2.34-5,10.85,10.85,0,0,0-1.83-2,18.76,18.76,0,0,0-2.29-1.63,7,7,0,0,1,2.75,1A8,8,0,0,1,263,559a9.65,9.65,0,0,1,1,1.13,8.49,8.49,0,0,1,1.28,2.68A7.36,7.36,0,0,1,265.5,565.76Z"/><path class="cls-9" d="M268.24,564.33a16.42,16.42,0,0,0-2.34-5,10.48,10.48,0,0,0-1.83-2,20,20,0,0,0-2.29-1.64,6.94,6.94,0,0,1,2.75,1,7.3,7.3,0,0,1,1.19.9,9.65,9.65,0,0,1,1,1.13,8.38,8.38,0,0,1,1.28,2.68A7.37,7.37,0,0,1,268.24,564.33Z"/><path class="cls-9" d="M271.47,562.62a16.36,16.36,0,0,0-2.34-5,11.12,11.12,0,0,0-1.83-2A18.76,18.76,0,0,0,265,554a6.92,6.92,0,0,1,2.75,1,8.65,8.65,0,0,1,1.19.9,10.64,10.64,0,0,1,1,1.14,8.51,8.51,0,0,1,1.29,2.68A7.17,7.17,0,0,1,271.47,562.62Z"/><path class="cls-4" d="M269.52,448.12s35.65,66.48,43.21,104.09c-2,4.81-27.46,12.61-35.25-2.57,0,0,.49-4.79-1.71-6.08-4.1-2.41-.66-4.1-2.52-6.09s-2.64-1.45-5.44-4.81-39.55-62.95-42.74-76.48S253.31,425.23,269.52,448.12Z"/><path class="cls-7" d="M157.56,597.78c0,.09.43,3,2.6,3.85s10.59,2.49,23.15,2.41c13.77-.09,28.5-.54,28.5-.54s18.5,2,24.33-1.84c0,0,.91-.34.8-2s-.6-2-.07-3.14-.68-.57-.68-.57-51.05-.17-51.56-.15Z"/><path class="cls-8" d="M157.74,598.13s-11.32-10.57,5.49-19.26a32,32,0,0,1,20.08,0l23.33-11.93s9.52-5.55,3.56,6.17c0,0-.13,9.68,23.72,1.33,0,0,4.81,8.86,2.41,21.3C231.87,602.05,165,602.73,157.74,598.13Z"/><path class="cls-9" d="M189.77,587.5a16.2,16.2,0,0,0-2.34-5,10.48,10.48,0,0,0-1.83-2,20,20,0,0,0-2.29-1.64,6.94,6.94,0,0,1,2.75,1,7.3,7.3,0,0,1,1.19.9,9.65,9.65,0,0,1,1,1.13,8.62,8.62,0,0,1,1.29,2.68A7.35,7.35,0,0,1,189.77,587.5Z"/><path class="cls-9" d="M192.51,586.08a16.36,16.36,0,0,0-2.34-5,10.79,10.79,0,0,0-1.83-2,20,20,0,0,0-2.29-1.64,6.94,6.94,0,0,1,2.75,1,7.91,7.91,0,0,1,1.19.9,9.65,9.65,0,0,1,1,1.13,8.62,8.62,0,0,1,1.29,2.68A7.22,7.22,0,0,1,192.51,586.08Z"/><path class="cls-9" d="M195.74,584.36a16.2,16.2,0,0,0-2.34-5,10.16,10.16,0,0,0-1.83-2,18.81,18.81,0,0,0-2.29-1.64,6.92,6.92,0,0,1,2.75,1,8.62,8.62,0,0,1,1.2.91,10.59,10.59,0,0,1,1,1.13,8.51,8.51,0,0,1,1.29,2.68A7.17,7.17,0,0,1,195.74,584.36Z"/><path class="cls-10" d="M82.75,53.45c-.91.66,1.07-39.76,50.81-47.15,0,0,12.16-7,31.13,1.76,0,0,20.75-4.07,26.48,20.49,0,0,24,.27,23.25,26.66,0,0,10.77,11.26,0,34.84,0,0-2.33,13.37-17.91,27.1,0,0-14.92,10.82-14.26,17.73,0,0-31.18-8.94-21.52-42,0,0,4-22.88-16.61-15.49,0,0,2.92,15.87-5.08,18.67,0,0,3.65-11.63-2.89-16.91s-15-6.33-15.07-16.89-17.6,7-17.6,7-3.93-8.06,10-16.16a30.89,30.89,0,0,0-24,18.3S87.4,50.64,105.29,45C105.29,45,94.92,44.66,82.75,53.45Z"/><path class="cls-11" d="M148.05,87.81s-6.92-8.67,1.43-12.16,19.88.85,16.12,17.75S147,108.59,146.16,105.51"/><path class="cls-12" d="M148.05,87.81a13.69,13.69,0,0,1-2.43-3.93,7.43,7.43,0,0,1-.43-4.72,6.36,6.36,0,0,1,3.18-3.68,14.45,14.45,0,0,1,9.38-1.54c.4.08.79.21,1.19.32l.6.17.56.24c.38.18.77.33,1.13.52l1.05.68a5.68,5.68,0,0,1,1,.79c.29.3.63.56.89.88a12.27,12.27,0,0,1,1.4,2.06l.57,1.1.4,1.17a12.19,12.19,0,0,1,.56,2.37,26.72,26.72,0,0,1-.57,9.45,22.15,22.15,0,0,1-3.94,8.58,14.35,14.35,0,0,1-7.83,5.19,12.57,12.57,0,0,1-4.69.25,8,8,0,0,1-2.25-.62,2.79,2.79,0,0,1-1.63-1.58,2.65,2.65,0,0,0,1.74,1.3,8.6,8.6,0,0,0,2.19.38,12,12,0,0,0,4.37-.67,13.74,13.74,0,0,0,6.85-5.19,21.56,21.56,0,0,0,3.34-8.06,25.22,25.22,0,0,0,.45-8.72,10.56,10.56,0,0,0-3.93-7.15l-.85-.6-.94-.46-.47-.23L158.4,76c-.33-.1-.66-.23-1-.31a13.52,13.52,0,0,0-2.11-.26,12.88,12.88,0,0,0-2.15.06A13.39,13.39,0,0,0,149,76.63a5.31,5.31,0,0,0-2.88,2.84,6.68,6.68,0,0,0,0,4.24,13.43,13.43,0,0,0,.82,2.1A14.5,14.5,0,0,0,148.05,87.81Z"/><g class="cls-13"><path class="cls-14" d="M149.81,86.47S159.32,80,160,92.72c.11,2.06-3.4,7.07-6.41,8.83a7.89,7.89,0,0,1-6.71.73s5.19-.67,6.9-15.5Z"/></g><path class="cls-15" d="M160,90.39a15.06,15.06,0,0,1,0,2.33,6.51,6.51,0,0,0-.46-1.57,10.35,10.35,0,0,0-1.75-2.78c-1.41-1.61-3.39-1.85-5.46-1.39a11.4,11.4,0,0,1-2.63.36l-.94,0,1.06-.89a7.11,7.11,0,0,1,2.83-1.58c2.21-.48,4.41-.29,6,1.62A6.89,6.89,0,0,1,160,90.39Z"/><path class="cls-15" d="M146.87,102.28c1.71-.35,3.78-2.78,5.22-6.16A45.57,45.57,0,0,0,155,85.4l-1.6.62a39.13,39.13,0,0,1-1.85,9.56C150.45,98.66,148.66,101.39,146.87,102.28Z"/><path class="cls-16" d="M113.75,126a8.92,8.92,0,0,1,5.63,5.74,1.28,1.28,0,0,1-1.7,1.55,7.91,7.91,0,0,1-3.05-2c-1.37-1.61-3.18-3.14-2.43-4.75A1.23,1.23,0,0,1,113.75,126Z"/><path class="cls-12" d="M15.52,134.14a52.41,52.41,0,0,0,3,5,21.27,21.27,0,0,0,1.81,2.21,16.55,16.55,0,0,0,2.25,1.85A6.86,6.86,0,0,1,19.82,142a10.87,10.87,0,0,1-2.12-2.22,13.8,13.8,0,0,1-1.43-2.68A10.46,10.46,0,0,1,15.52,134.14Z"/><path class="cls-12" d="M8,139.45a9.13,9.13,0,0,0,1,2.26c.42.69.88,1.38,1.35,2.06A49.09,49.09,0,0,1,13.15,148a15.18,15.18,0,0,1-3.56-3.68A11.28,11.28,0,0,1,8.36,142,4.53,4.53,0,0,1,8,139.45Z"/><path class="cls-12" d="M4.82,150.5a1.57,1.57,0,0,1,.86.35c.25.18.48.37.7.56.45.38.85.79,1.26,1.17l1.21,1.18c.42.38.84.76,1.28,1.2A5.59,5.59,0,0,1,7,153.3a9.21,9.21,0,0,1-1.14-1.37A12.47,12.47,0,0,0,4.82,150.5Z"/><path class="cls-17" d="M27.61,109.23c-2.22,1.48-4.11,28.91-4.11,28.91s7.39,5.82,9.6,2.29c1.14-1.83,3-28.32,3-28.32S35.38,104.07,27.61,109.23Z"/><path class="cls-11" d="M34.62,141.57c-.07-2.07,0-5.72,0-7.77a6,6,0,0,0-.63-2.75c-3.59-7.21,1.73-9.21,1.73-9.21s1.81,3.86,3.53,4.89,7.1,14.91,3.5,23.77"/><path class="cls-12" d="M34.62,141.57c-.24-1.77-.36-3.54-.45-5.32-.06-.88-.08-1.79-.12-2.64a5.47,5.47,0,0,0-.68-2.23,10.13,10.13,0,0,1-1.46-5.52,5.79,5.79,0,0,1,3.5-4.94l.81-.36.43.86a23.55,23.55,0,0,0,1.87,3.15,5.7,5.7,0,0,0,1.1,1.21l.14.1.14.1.18.15a2.76,2.76,0,0,1,.44.5,7.52,7.52,0,0,1,.59.93,30.34,30.34,0,0,1,2.59,7.52,33.27,33.27,0,0,1,.8,7.83,18.11,18.11,0,0,1-1.71,7.59,21.12,21.12,0,0,0,.7-7.57,38.63,38.63,0,0,0-1.34-7.47,32.25,32.25,0,0,0-2.71-7,7.32,7.32,0,0,0-.45-.71,2.53,2.53,0,0,0-.2-.22h0s0,0-.06,0l-.26-.17a8.23,8.23,0,0,1-1.54-1.6,20.5,20.5,0,0,1-2.06-3.49l1.23.5a4.1,4.1,0,0,0-.86.52,4.48,4.48,0,0,0-.74.77,4.05,4.05,0,0,0-.78,2,9.39,9.39,0,0,0,1,4.68,6.23,6.23,0,0,1,.59,2.88l-.2,2.67Z"/><path class="cls-4" d="M205.78,439.27s27.82,84.86,31.16,130.89c0,0-13.3,8-27.09,5.59,0,0,1.72-4.64-2.9-5.76s-1.56-5.23-3.17-7.89-1-2.43-3.39-6.88-37.5-96.73-39.17-113.36S192.34,409.43,205.78,439.27Z"/><polyline class="cls-18" points="199.05 346.7 179.55 443.55 220.12 574.01"/><polyline class="cls-18" points="250.5 390.56 244.42 452.23 299.42 557.13"/><path class="cls-19" d="M274.71,352.64s-6.42,22.27-37.77,44.48l-10.59,17.47-.73,28.5,18.8-30.83S283,394.78,274.71,352.64Z"/></g></g></svg>