<svg id="Layer_1" data-name="Layer 1" xmlns="http://www.w3.org/2000/svg" viewBox="0 0 290 190"><defs><style>.cls-1{fill:#f9f5f2;}.cls-2{fill:#e0d6d1;}.cls-3{fill:#fff1e7;}</style></defs><path class="cls-1" d="M144.41,4.77C1.21,4.77,17.81,114.25,15.23,121S7.86,133,3.28,139.37s-.77,13.88,4.11,19.36,11,9.18,16.75,9,19.73-5.54,27.3,0,13.88,14.41,27.74,15.05,17.9,2.1,23.08,0,9.54,4.3,21.94,0,14.52,2.95,39.85,0,26.61-16.08,40.28-19.92,15.93,5,33.56,1.15,27.18-8.31,32.88-9.76,20.23-6,16.12-25.15-7.5-9.51-15.27-20.64S260.69,4.76,144.41,4.77Z"/><path class="cls-2" d="M39.12,122.56c.4.17,32.82,3.07,35,3.46,8.2-2.74,13.87-5.67,24.6-12.41,9.06-5.7,22.56-14.84,29.45-19.08,24.17-14.86,23.75-14.92,48.2-29.43C196.16,53.35,217.71,38.83,201.06,26,175.4,11.85,133.8,8.62,93.79,19.59,46,32.67,32.43,72.13,30.87,93.3S36,121.21,39.12,122.56Z"/><path class="cls-2" d="M201.63,60.48C166.4,84.21,129.54,106,92.82,127.94a301.51,301.51,0,0,0,58.78-3.27c10.86-11.2,20.41-23.34,30.31-35.34,8.41-10.2,17.26-20.14,26.34-29.91q4.68-5,9.46-10Q209.75,55,201.63,60.48Z"/><path class="cls-2" d="M232.29,51.51c-4.77,4.8-9.4,9.7-14,14.62C209.2,75.88,200.38,85.81,192,96c-6.78,8.27-13.45,16.61-20.49,24.68q4.71-1.14,9.43-2.49c49.15-14.13,59.83-52.34,56.17-71.69C235.55,48.22,233.92,49.87,232.29,51.51Z"/><path class="cls-2" d="M261.67,78.34c.86,8.56-5.89,43.25-24.63,43.45s-30.35.77-43.07,7.7-35.7,4.42-35.7,5.19,21.2,12.9,39.5,3.08,18-13.28,33.1-13.47,18.22,4.46,29.37-.85,14.25-11,22.52-5.83c0,0-.87-3.14-6.67-5.25s-5.14-2.6-7.59-14.15A85.38,85.38,0,0,0,261.67,78.34Z"/><path class="cls-2" d="M2.53,151.41C4,165,18.3,170.48,30.63,168.75s14.18-4.19,21.54,2.31,12.56,9.45,19.17,11.26,9.23.45,14.07.83,8.94,2.56,13.37,1.48,4.38-2.95,8.14-2,6.25,3.1,13.11,1.63,10.08-3.67,20.06-1.88,22.87,5.39,38.1-.09,14.19-16.71,26.14-19.47a30.43,30.43,0,0,0-17.5,5.47c-8.7,6-30.57,10.82-38.37,4.57s-19.08-3.66-24.1-.87S115,176.83,107,174.81s-15.62,5.68-32,1.93-16.4-14.25-25.43-17.33-15.4,3.47-30.79,1.45S2.53,151.41,2.53,151.41Z"/><path class="cls-2" d="M16.45,99.11c-.58,8,10.87,24.38,21,28.43s31.79,2.52,43.62,9.64,21.31,8.09,29.23,5.68,10.93-1.89,11.6-1.28-2.79-.3-8.7,2.47-8.81,6.8-21,3.62-20.75-10.68-30.91-10-22.87,5.68-31.24-2.4-13-6.93-15.84-5.25A115.56,115.56,0,0,0,5,137.06s6.87-11.09,8.66-15,2-14.14,2.4-18.53Z"/><path class="cls-2" d="M192.46,171.6c8.32-9.88,18.33-10,24.94-8.53S228,167,238,166.43s15.33-6.92,22.47-8.07,19-2.31,26-13.57-4.15-28.09-4.15-28.09,8.32,9.32.63,21.59-20.91,2.6-31.62,10-5.35,17.32-21.67,12.56-31.08-1.71-41,6.36-9.44,12.69-9.44,12.69a51.78,51.78,0,0,0,7.11-3.75C191.09,173.24,192.46,171.6,192.46,171.6Z"/><path class="cls-2" d="M50.84,148.32c3.85,1,6.66,10.56,14.46,16,4.75-2,9.4-4.12,14.06-6.27l2.88-1.34a14.2,14.2,0,0,1-8.73-4.74c-8.2-8.8-7.86-11.19-25.18-10.68s-18.08,2.31-21.59-1-2.43-5.34-5.19-6.28c-9.67-3.29-19.16,7.65-18.49,11.91s12.21,9.45,21.5,8.44S45.73,147,50.84,148.32Z"/><path class="cls-2" d="M89.21,165.72q6.9-6.53,13.59-13.21c-7.25,3.6-14.59,7.06-22,10.45-3.1,1.43-6.2,2.85-9.34,4.21a22.37,22.37,0,0,0,3.12.62C81,168.54,85.51,167.51,89.21,165.72Z"/><path class="cls-2" d="M109.14,150.6c-1.79,1.83-3.59,3.66-5.41,5.47,7.84-3.91,14.22-2.12,14.55-2.77S115.39,150.21,109.14,150.6Z"/><path class="cls-2" d="M147.42,156c4.31-2.59,8.69-5.1,13.16-7.47,1.52-.81,3-1.6,4.57-2.4-11.85.68-18.76,3.84-27.8,9.9C136.18,156.85,139.88,158.21,147.42,156Z"/><path class="cls-3" d="M173.66,148.85c1.65-.87,3.32-1.72,5-2.55-2.37-.14-4.6-.23-6.67-.26-3.39,1.77-6.79,3.52-10.16,5.31a60.5,60.5,0,0,1,8.52-.72C171.44,150,172.55,149.43,173.66,148.85Z"/><path class="cls-2" d="M243.13,142.29c3.6-3.44,7.16-6.91,10.6-10.46-6.06,1.17-9.63-2.21-24.08-2.78-17.72-.69-23.55,17.58-44.79,17.56-2.7,1.32-5.38,2.65-8,4,6.18.1,13.11.36,21.17-.07,19.64-1.06,20.53,2.41,32.88-3C235.37,145.61,239.23,143.73,243.13,142.29Z"/><path class="cls-2" d="M282.76,121.88c-2.08-4-6.14-2.32-11.45.87-.65.67-1.3,1.34-2,2-5.18,5.18-10.71,10.1-16.11,15.11a46.55,46.55,0,0,1,14.26,1C284.23,144.3,286.18,128.52,282.76,121.88Z"/></svg>