<svg id="Layer_1" data-name="Layer 1" xmlns="http://www.w3.org/2000/svg" viewBox="0 0 240 150"><defs><style>.cls-1{fill:#f9f5f2;}</style></defs><g id="cream"><path class="cls-1" d="M126.05,2.19C8.86-4,17.56,85.85,15.14,91.27s-6.56,9.41-10.59,14.41-1.25,11.26,2.5,15.94,8.61,7.94,13.3,8,16.4-3.67,22.34,1.18,10.72,12.32,22,13.44,14.56,2.48,18.89,1,7.61,3.9,18,.94,11.76,3,32.62,1.72,22.49-12,33.85-14.49,12.81,4.78,27.41,2.38,22.61-5.6,27.34-6.53,16.83-4,14.31-19.78-5.7-8.06-11.57-17.46S221.2,7.19,126.05,2.19Z"/></g></svg>