<svg xmlns="http://www.w3.org/2000/svg" viewBox="0 0 190 340"><defs><style>.cls-1{isolation:isolate;}.cls-2{fill:#984c00;}.cls-3{fill:#f6a328;}.cls-4{fill:#575756;}.cls-16,.cls-4{mix-blend-mode:screen;}.cls-5{opacity:0.2;}.cls-6{fill:#fff;}.cls-7{fill:#ffd349;}.cls-8{fill:#fed857;}.cls-9{fill:#ffe988;}.cls-10{fill:#f5a820;}.cls-11{fill:#fdc901;}.cls-12{fill:#eddd7d;}.cls-13{fill:#e8b831;}.cls-14{fill:#ebb242;}.cls-15{fill:#ffd54e;}.cls-16{fill:#3c3c3b;}</style></defs><g class="cls-1"><g id="Layer_1" data-name="Layer 1"><path class="cls-2" d="M173.05,338.08h0c-4.19,1.42-9.73-.52-11.15-4.71l-77.1-237c-1.42-4.19-1.06-8.13,3.13-9.55h0c4.18-1.42,6.87,1.49,8.29,5.68L179,327.57C180.45,331.76,177.24,336.67,173.05,338.08Z"/><path class="cls-3" d="M146.09,284.75l15.81,48.62c1.42,4.19,7,6.13,11.15,4.71s7.4-6.32,6-10.51l-17-48.23Z"/><rect class="cls-4" x="149.12" y="178.88" width="2.71" height="155.43" rx="0.76" transform="translate(-75.96 63.7) rotate(-19.18)"/><path class="cls-4" d="M123.34,180h0a1.36,1.36,0,0,1-1.73-.83l-19.72-56.72a1.35,1.35,0,0,1,.83-1.72h0a1.36,1.36,0,0,1,1.73.83l19.72,56.71A1.36,1.36,0,0,1,123.34,180Z"/><g class="cls-5"><path class="cls-6" d="M174.13,335.29a7.65,7.65,0,0,1-9.78-5.07L90.8,108.2s-.47-4.73,2.62-6c2.91-1.2,5-.27,6.91,2L96.22,92.48c-1.42-4.19-4.11-7.1-8.29-5.68a5.28,5.28,0,0,0-3.56,3.38l0,.06a5.65,5.65,0,0,0-.17.71v0a8.51,8.51,0,0,0,0,2.48l0,.19c0,.22.06.44.11.66a2.21,2.21,0,0,0,0,.25c0,.22.09.43.15.64a2.33,2.33,0,0,0,.07.25c.08.29.17.59.27.88l77.1,237c1.42,4.19,7,6.13,11.15,4.71a9.7,9.7,0,0,0,6.18-7A9.74,9.74,0,0,1,174.13,335.29Z"/></g><polygon class="cls-7" points="81.88 68.95 81.88 68.95 81.88 68.95 81.88 68.95"/><rect class="cls-7" x="81.88" y="68.95" transform="translate(-16.2 111.83) rotate(-63.71)"/><polygon class="cls-8" points="81.88 68.95 81.88 68.95 91.38 38.42 59.02 1.46 81.88 68.95 81.88 68.95"/><polygon class="cls-9" points="139 26.35 91.38 38.42 81.88 68.95 139 26.35"/><polygon class="cls-10" points="81.88 68.95 81.88 68.95 113.85 68.55 139 26.35 81.88 68.95"/><polygon class="cls-3" points="60.7 136.99 92.14 99.23 81.88 68.95 60.7 136.99"/><polygon class="cls-3" points="81.88 68.95 10.62 69.84 56.25 88.06 81.88 68.95 81.88 68.95"/><polygon class="cls-11" points="81.88 68.95 56.25 88.06 60.7 136.99 81.88 68.95 81.88 68.95"/><polygon class="cls-12" points="10.62 69.84 81.88 68.95 81.88 68.95 55.78 50.48 10.62 69.84"/><polygon class="cls-11" points="55.78 50.48 81.88 68.95 59.02 1.46 55.78 50.48"/><polygon class="cls-13" points="81.88 68.95 92.14 99.23 140.05 110.11 81.88 68.95 81.88 68.95"/><polygon class="cls-14" points="81.88 68.95 81.88 68.95 140.05 110.11 113.85 68.55 81.88 68.95"/><polygon class="cls-15" points="89.93 92.71 65.27 122.32 61.77 83.94 25.98 69.64 61.4 54.46 63.94 16 89.33 45 126.69 35.53 106.96 68.64 127.51 101.24 89.93 92.71"/><polygon class="cls-16" points="63.94 16 61.4 54.46 25.98 69.64 61.77 83.94 28.13 69.57 62.2 55.29 63.94 16"/><path class="cls-16" d="M61.77,83.94l.44,4.82c22-10.1,37.43-28.15,42-47.54L89.33,45,63.94,16,61.4,54.46,26,69.65Z"/></g></g></svg>