<svg id="Layer_1" data-name="Layer 1" xmlns="http://www.w3.org/2000/svg" viewBox="0 0 290 200"><defs><style>.cls-1{fill:#f9f5f2;}.cls-2{fill:#e0d6d1;}.cls-3{fill:#fff1e7;}.cls-4{fill:#421f0d;}</style></defs><g id="cyrup_3" data-name="cyrup 3"><path class="cls-1" d="M147.14,13.06C4.34,10.24,18.7,121.43,16,128.26s-7.58,12-12.28,18.33-1,14,3.71,19.69,10.81,9.51,16.52,9.42,19.79-5.22,27.23.55S64.72,191.11,78.52,192s17.81,2.48,23,.46,9.43,4.53,21.89.43,14.42,3.27,39.74.78S190,178,203.73,174.33s15.77,5.41,33.44,1.82,27.26-7.88,33-9.23,20.3-5.65,16.58-25.15-7.29-9.78-14.82-21.21S263.09,15.35,147.14,13.06Z"/><path class="cls-2" d="M39.78,130.27c.4.18,32.66,3.76,34.81,4.2,8.23-2.62,14-5.47,24.78-12.09,9.15-5.59,22.8-14.58,29.75-18.74,24.4-14.57,24-14.64,48.65-28.85,20-11.51,41.78-25.79,25.43-39.12-25.3-14.83-66.72-18.92-106.84-8.6-47.88,12.31-62.24,52-64.23,73.41S36.69,128.84,39.78,130.27Z"/><path class="cls-2" d="M203.08,70.61c-35.61,23.33-72.8,44.65-109.86,66.17a296.31,296.31,0,0,0,58.69-2.15c11.05-11.13,20.82-23.24,30.93-35.19,8.59-10.17,17.61-20.06,26.86-29.78q4.78-5,9.64-9.95Q211.29,65.23,203.08,70.61Z"/><path class="cls-2" d="M233.83,62.13c-4.85,4.76-9.56,9.63-14.24,14.53-9.26,9.69-18.26,19.58-26.82,29.76C185.85,114.66,179,123,171.85,131c3.14-.71,6.3-1.48,9.45-2.34,49.3-13.34,60.72-51.82,57.45-71.49C237.16,58.87,235.49,60.5,233.83,62.13Z"/><path class="cls-2" d="M262.6,89.88c.68,8.69-6.74,43.69-25.44,43.51s-30.27.18-43.1,7-35.69,3.78-35.7,4.56,20.88,13.47,39.32,3.89,18.23-13.09,33.28-13,18.08,4.88,29.31-.28,14.42-10.83,22.57-5.46c0,0-.81-3.19-6.55-5.45s-5.06-2.73-7.28-14.48A87.31,87.31,0,0,0,262.6,89.88Z"/><path class="cls-2" d="M2.72,158.76c1.17,13.79,15.33,19.63,27.67,18.12s14.22-4,21.44,2.76,12.32,9.83,18.88,11.78,9.2.64,14,1.12,8.86,2.77,13.3,1.76,4.42-2.89,8.16-1.83,6.17,3.27,13,1.91,10.12-3.51,20-1.51,22.7,5.91,38,.66,14.49-16.64,26.47-19.2a30,30,0,0,0-17.56,5.2c-8.8,5.91-30.7,10.35-38.37,3.86s-19-4.08-24-1.35-9.44,4.69-17.41,2.48-15.69,5.45-32,1.32-16.07-14.74-25-18S34,171,18.66,168.65,2.72,158.76,2.72,158.76Z"/><path class="cls-2" d="M17.64,106.08C16.9,114.17,28,131,38,135.28s31.66,3.18,43.31,10.63,21.09,8.61,29,6.32,10.94-1.7,11.59-1.07-2.77-.35-8.73,2.33-8.92,6.72-21,3.26S71.76,145.52,61.62,146s-22.92,5.3-31.1-3.06-12.83-7.27-15.7-5.62a112.9,112.9,0,0,0-9.38,7s7.07-11.1,8.93-15.06,2.25-14.27,2.76-18.71Z"/><path class="cls-2" d="M191.71,183c8.5-9.83,18.48-9.72,25-8.14s10.52,4.18,20.47,3.8,15.42-6.7,22.56-7.72,19-2,26.2-13.23-3.58-28.52-3.58-28.52,8.12,9.6.2,21.87-20.91,2.22-31.74,9.46-5.68,17.44-21.85,12.29-31-2.34-41,5.64-9.67,12.66-9.67,12.66a50,50,0,0,0,7.17-3.66C190.32,184.59,191.71,183,191.71,183Z"/><path class="cls-2" d="M51,156.59c3.83,1.07,6.44,10.82,14.1,16.45,4.78-1.9,9.46-4,14.14-6.07l2.91-1.3a14.11,14.11,0,0,1-8.61-5c-8-9.07-7.62-11.48-24.9-11.31s-18.07,2-21.51-1.45-2.31-5.45-5-6.46c-9.58-3.52-19.26,7.37-18.68,11.7s12,9.81,21.28,9S45.88,155.18,51,156.59Z"/><path class="cls-2" d="M88.87,175q7-6.47,13.82-13.11c-7.31,3.5-14.7,6.86-22.13,10.15-3.12,1.38-6.25,2.76-9.41,4.08a20.82,20.82,0,0,0,3.11.68C80.61,177.67,85.14,176.71,88.87,175Z"/><path class="cls-2" d="M109,160.05q-2.73,2.73-5.5,5.43c7.9-3.8,14.23-1.86,14.56-2.51S115.28,159.77,109,160.05Z"/><path class="cls-2" d="M147.11,166.32c4.35-2.54,8.76-5,13.27-7.32l4.61-2.33c-11.83.45-18.78,3.52-27.92,9.47C135.89,166.91,139.54,168.36,147.11,166.32Z"/><path class="cls-3" d="M173.42,159.54c1.66-.84,3.34-1.67,5-2.48-2.36-.18-4.57-.32-6.64-.39-3.41,1.72-6.84,3.43-10.24,5.18a58.21,58.21,0,0,1,8.51-.56C171.18,160.69,172.3,160.11,173.42,159.54Z"/><path class="cls-2" d="M242.83,154.28c3.65-3.42,7.27-6.86,10.78-10.39-6.07,1.07-9.56-2.43-24-3.29-17.66-1-23.84,17.34-45,16.9-2.71,1.28-5.42,2.58-8.09,3.92,6.16.22,13.06.62,21.11.34,19.6-.69,20.42,2.84,32.85-2.37C235,157.49,238.91,155.66,242.83,154.28Z"/><path class="cls-2" d="M282.76,134.39c-2-4.13-6.08-2.48-11.44.65-.66.67-1.32,1.33-2,2-5.28,5.14-10.88,10-16.37,15a45.7,45.7,0,0,1,14.19,1.28C283.77,157.13,286,141.18,282.76,134.39Z"/><path class="cls-4" d="M143.26,4C64.39,1.61,46.88,38.63,34.93,53.27s-13.73,33-11.41,38.61,13.84,6.22,15.7-3.58,8.4-26.59,14.89-26.83S51.24,75.84,67.4,76.9,79.08,64.81,84.21,62.33,95.29,64.71,93,81.93s-10.9,28.41-11.2,39.43,17.41,13.93,20.43-.31-.37-22.32,1.06-33.3,13.26-7.15,13.22,1.44S114,103.13,124,103s4.35-14.88,5.51-31.11,25.52-9.83,25.05,1.57-3.66,19.73,8,20.34,11.41-8.38,9.9-19-2-23.77,12-23.53,12.81,13.49,10.79,30.36c-1.72,14.42-2.5,22-3.66,32.19s20,15.21,22.08.42-6.94-33.52-5-48.59,18.58-8.62,19.46,1.52.95,24,14.62,22.6,15.66-13.46,14-20.11S223.32,6.32,143.26,4Z"/></g></svg>