<svg id="Layer_1" data-name="Layer 1" xmlns="http://www.w3.org/2000/svg" viewBox="0 0 290 200"><defs><style>.cls-1{fill:#f9f5f2;}.cls-2{fill:#e0d6d1;}.cls-3{fill:#fff1e7;}.cls-4{fill:#421f0d;}</style></defs><g id="cyrup2"><path class="cls-1" d="M144.41,9C1.21,9,17.81,120.19,15.23,127.09s-7.37,12.13-12,18.61-.77,14.1,4.11,19.67,11,9.32,16.75,9.12,19.73-5.63,27.3,0,13.88,14.63,27.74,15.29,17.9,2.13,23.08,0,9.54,4.36,21.94,0,14.52,3,39.85,0,26.61-16.33,40.28-20.23,15.93,5.11,33.56,1.16,27.18-8.44,32.88-9.91,20.23-6.06,16.12-25.54-7.5-9.65-15.27-21S260.69,9,144.41,9Z"/><path class="cls-2" d="M39.12,128.63c.4.17,32.82,3.12,35,3.52,8.2-2.79,13.87-5.76,24.6-12.61,9.06-5.79,22.56-15.07,29.45-19.37C152.32,85.08,151.9,85,176.35,70.29c19.81-11.94,41.36-26.68,24.71-39.73C175.4,16.2,133.8,12.92,93.79,24.06,46,37.35,32.43,77.42,30.87,98.92S36,127.26,39.12,128.63Z"/><path class="cls-2" d="M201.63,65.59c-35.23,24.09-72.09,46.2-108.81,68.5a297.2,297.2,0,0,0,58.78-3.31c10.86-11.38,20.41-23.71,30.31-35.89,8.41-10.37,17.26-20.46,26.34-30.38q4.68-5.12,9.46-10.17Q209.75,60,201.63,65.59Z"/><path class="cls-2" d="M232.29,56.48c-4.77,4.87-9.4,9.85-14,14.85-9.1,9.89-17.92,20-26.29,30.36-6.78,8.4-13.45,16.87-20.49,25.06q4.71-1.16,9.43-2.53c49.15-14.35,59.83-53.15,56.17-72.79C235.55,53.14,233.92,54.82,232.29,56.48Z"/><path class="cls-2" d="M261.67,83.73c.86,8.69-5.89,43.92-24.63,44.12s-30.35.78-43.07,7.81-35.7,4.5-35.7,5.28,21.2,13.1,39.5,3.13,18-13.49,33.1-13.68,18.22,4.53,29.37-.86,14.25-11.15,22.52-5.93c0,0-.87-3.18-6.67-5.33s-5.14-2.64-7.59-14.37A87.62,87.62,0,0,0,261.67,83.73Z"/><path class="cls-2" d="M2.53,157.93C4,171.73,18.3,177.3,30.63,175.54s14.18-4.25,21.54,2.34,12.56,9.6,19.17,11.44,9.23.45,14.07.84,8.94,2.6,13.37,1.5,4.38-3,8.14-2,6.25,3.15,13.11,1.65,10.08-3.72,20.06-1.91,22.87,5.48,38.1-.09,14.19-17,26.14-19.77a30.08,30.08,0,0,0-17.5,5.55c-8.7,6.11-30.57,11-38.37,4.64s-19.08-3.71-24.1-.88S115,183.75,107,181.69s-15.62,5.77-32,2-16.4-14.47-25.43-17.59-15.4,3.52-30.79,1.46S2.53,157.93,2.53,157.93Z"/><path class="cls-2" d="M16.45,104.82c-.58,8.12,10.87,24.76,21,28.87s31.79,2.56,43.62,9.79,21.31,8.21,29.23,5.77,10.93-1.92,11.6-1.3-2.79-.3-8.7,2.5-8.81,6.91-21,3.68S71.48,143.29,61.32,144s-22.87,5.77-31.24-2.44-13-7-15.84-5.33A114.26,114.26,0,0,0,5,143.36s6.87-11.26,8.66-15.27,2-14.35,2.4-18.81Z"/><path class="cls-2" d="M192.46,178.43c8.32-10,18.33-10.11,24.94-8.66s10.63,4,20.6,3.41,15.33-7,22.47-8.2,19-2.34,26-13.78-4.15-28.51-4.15-28.51,8.32,9.46.63,21.92-20.91,2.64-31.62,10.11-5.35,17.59-21.67,12.75-31.08-1.73-41,6.47-9.44,12.88-9.44,12.88A50.87,50.87,0,0,0,186.3,183C191.09,180.09,192.46,178.43,192.46,178.43Z"/><path class="cls-2" d="M50.84,154.79c3.85,1,6.66,10.72,14.46,16.21,4.75-2,9.4-4.19,14.06-6.36l2.88-1.37a14.17,14.17,0,0,1-8.73-4.81c-8.2-8.94-7.86-11.36-25.18-10.85s-18.08,2.35-21.59-1-2.43-5.43-5.19-6.38C11.88,136.87,2.39,148,3.06,152.3s12.21,9.6,21.5,8.58S45.73,153.48,50.84,154.79Z"/><path class="cls-2" d="M89.21,172.46q6.9-6.61,13.59-13.41-10.87,5.47-22,10.61c-3.1,1.45-6.2,2.89-9.34,4.28a21,21,0,0,0,3.12.62C81,175.33,85.51,174.28,89.21,172.46Z"/><path class="cls-2" d="M109.14,157.11q-2.69,2.79-5.41,5.55c7.84-4,14.22-2.15,14.55-2.81S115.39,156.71,109.14,157.11Z"/><path class="cls-2" d="M147.42,162.64c4.31-2.64,8.69-5.19,13.16-7.6,1.52-.82,3-1.62,4.57-2.43-11.85.69-18.76,3.9-27.8,10C136.18,163.46,139.88,164.84,147.42,162.64Z"/><path class="cls-3" d="M173.66,155.33c1.65-.89,3.32-1.74,5-2.59-2.37-.14-4.6-.23-6.67-.26-3.39,1.79-6.79,3.57-10.16,5.39a59,59,0,0,1,8.52-.73C171.44,156.52,172.55,155.92,173.66,155.33Z"/><path class="cls-2" d="M243.13,148.67c3.6-3.49,7.16-7,10.6-10.62-6.06,1.19-9.63-2.25-24.08-2.83-17.72-.7-23.55,17.86-44.79,17.84q-4.05,2-8,4.08c6.18.1,13.11.37,21.17-.08,19.64-1.07,20.53,2.45,32.88-3C235.37,152,239.23,150.13,243.13,148.67Z"/><path class="cls-2" d="M282.76,127.94c-2.08-4.1-6.14-2.36-11.45.89-.65.68-1.3,1.35-2,2-5.18,5.27-10.71,10.26-16.11,15.35a46,46,0,0,1,14.26,1C284.23,150.71,286.18,134.69,282.76,127.94Z"/><path class="cls-4" d="M138.28,7.75c-69.25-1-83.73,21-93.87,29.68s-11.26,19.51-9.1,22.83S47.6,63.86,49,58.07s6.74-15.73,12.43-15.91-2.17,8.49,12,9,10-7.19,14.4-8.68S97.63,43.85,96,54,87.1,70.83,87.1,77.34,102.7,85.46,105,77s-.85-13.16.14-19.64,11.46-4.29,11.64.77-1.84,8.24,6.93,8.1,3.46-8.79,4.09-18.37,22.16-5.94,22,.79-2.75,11.65,7.52,12,9.81-5,8.24-11.23-2.35-14,10-13.95,11.56,7.89,10.19,17.85c-1.17,8.51-1.68,13-2.46,19s17.91,8.87,19.38.13-6.87-19.73-5.56-28.62,16.09-5.19,17.1.79,1.4,14.14,13.36,13.24,13.42-8,11.8-11.93S208.56,8.72,138.28,7.75Z"/></g></svg>