<svg id="Layer_1" data-name="Layer 1" xmlns="http://www.w3.org/2000/svg" viewBox="0 0 271.7 316.85"><defs><style>.cls-1{opacity:0.2;isolation:isolate;}.cls-2,.cls-28{fill:#ffc599;}.cls-3{fill:#472113;}.cls-4{fill:#5b1163;stroke:#060d33;}.cls-11,.cls-28,.cls-4,.cls-6,.cls-7{stroke-miterlimit:10;}.cls-5{fill:#060d33;}.cls-6{fill:#b5095f;}.cls-6,.cls-7{stroke:#541625;}.cls-7{fill:#ed0dff;}.cls-8{fill:#ea985d;}.cls-9{opacity:0.25;}.cls-10{fill:#e94a23;}.cls-11{fill:#6d340d;stroke:#351906;}.cls-12{fill:#00ffce;}.cls-13{fill:#4faa99;}.cls-14{fill:#00bdff;}.cls-15{opacity:0.38;}.cls-16{fill:#231f20;}.cls-17{fill:#fff;}.cls-18{fill:#9e5643;}.cls-19{fill:#3d2d17;}.cls-20{fill:#db9d8f;}.cls-21{fill:#8c3d36;}.cls-22{fill:#f5968e;}.cls-23{fill:#f48678;}.cls-24,.cls-26{fill:#fff7f4;}.cls-25{fill:#d26653;}.cls-26{stroke:#9e5643;stroke-miterlimit:10;stroke-width:0.75px;}.cls-27{fill:#e6efef;}.cls-28{stroke:#72442e;}</style></defs><path class="cls-1" d="M181.77,263.28c-13.1.6-25,2.6-34.3,5.6-10.1-3.3-24.7-5-40.9-4.3-30.1,1.3-54.1,10.5-53.7,20.6s25.2,17.2,55.3,15.9a137.37,137.37,0,0,0,34.3-5.6c10.1,3.3,24.7,5,40.9,4.3,30.1-1.3,54.1-10.5,53.7-20.6S211.87,262,181.77,263.28Z"/><path class="cls-2" d="M108.57,250.08c-5.1-14.9-11.2-29.4-19.4-42.8,8.6-8.7,18.2-16.6,28.9-22.5l.5,2.4c2.7,9.8,7.7,36.1,10.3,51.7a35.39,35.39,0,0,1-3.3,21.7c-4.6,9.1-11,21.9-13.2,26-.3.7-.7,1.3-1,2-.1.2-.1.4-.3.4s-.6-.2-.8-.2l-1.6-.5a28.27,28.27,0,0,1-3.1-1.1c-1.6-.6-3.2-1.2-4.8-1.9,2.6-11.7,5.3-23.4,7.6-35.3l.2.1Z"/><path class="cls-3" d="M111.07,289.48a1.85,1.85,0,0,1-.7-.2l-.1-.1c-.5-.2-1.1-.3-1.6-.5-1.1-.3-2.1-.7-3.2-1.1-1.6-.6-3.2-1.2-4.8-1.9a.49.49,0,0,1-.3-.6l.8-3.6c2.3-10.3,4.7-21,6.8-31.6v-.1c-5.9-17.2-12-30.6-19.2-42.3-.1-.2-.1-.5.1-.6,9.9-9.9,19.4-17.3,29-22.5.2-.1.6-.1.7.2a.1.1,0,0,0,.1.1l.5,2.4c2.7,10,7.8,36.9,10.3,51.7a35.61,35.61,0,0,1-3.3,22c-4.8,9.6-11.1,21.9-13.2,26l-.1.2a16.18,16.18,0,0,1-1,1.8v.1a.9.9,0,0,1-.6.6Zm-9.6-4.5c1.4.6,2.9,1.2,4.4,1.7,1,.4,2.1.7,3.1,1.1l1.6.5.3.1.1.1v-.1a16.18,16.18,0,0,1,1-1.8l.1-.2c2.1-4.1,8.3-16.4,13.2-26a34.21,34.21,0,0,0,3.2-21.3c-2.5-14.8-7.6-41.7-10.3-51.6l-.4-1.7c-9.3,5.1-18.4,12.3-27.9,21.7,7.2,11.8,13.3,25.3,19.2,42.5.1.2,0,.3-.1.5l-.1.1c-2.1,10.5-4.4,21.1-6.7,31.3Z"/><path class="cls-2" d="M160.27,246.88c-11.5-16.9-17.5-25.5-27.3-39.9,5.6-10.9,6.4-18.6,14.9-27.5l1.2,2.1c7.8,11.9,18.8,33.4,24.7,45.4a58.06,58.06,0,0,1,5.6,18.3c1.1,8.2,2.4,19.5,2.9,26.1,0,.7.1,1.3.1,2,0,.2.1.3,0,.5a1.88,1.88,0,0,1-.8.2l-1.6.4c-1.1.3-2.1.6-3.2.8-1.7.4-3.3.8-5,1.1-3.8-9.7-7.4-19.7-11.5-29.5Z"/><path class="cls-3" d="M171.67,277a.55.55,0,0,1-.5-.3l-1.2-3.1c-3.2-8.6-6.5-17.5-10.1-26.2l-.1-.1c-6.8-9.9-11.7-17.1-16.5-24.1-3.4-5-6.8-9.9-10.8-15.8a.45.45,0,0,1,0-.5c1.8-3.5,3.1-6.7,4.4-9.8,2.6-6.3,4.8-11.8,10.6-17.8a.76.76,0,0,1,.4-.2c.2,0,.3.1.4.3l1.2,2.1c7.8,12,18.8,33.6,24.7,45.4a56.7,56.7,0,0,1,5.6,18.5c.9,6.7,2.4,19.1,2.9,26.1v.2c0,.6.1,1.2.1,1.8v.1a.78.78,0,0,1-.2.8,1.14,1.14,0,0,1-.8.3h-.2c-.5.2-1.1.3-1.6.5-1.1.3-2.2.6-3.2.8a45.91,45.91,0,0,1-5.1,1Zm-11.1-30.6.3.3c3.6,8.8,6.9,17.8,10.2,26.5l1,2.7c1.5-.3,3-.6,4.6-1,1.1-.3,2.2-.5,3.2-.8l1.6-.4.3-.1h.2v-.1c0-.6-.1-1.2-.1-1.8v-.2c-.5-7-2-19.3-2.9-26.1a57.52,57.52,0,0,0-5.5-18.1c-5.9-11.8-16.9-33.4-24.7-45.4l-.9-1.5c-5.3,5.7-7.4,10.9-9.9,17-1.2,3-2.5,6.1-4.3,9.6,4,5.8,7.3,10.7,10.7,15.5C149,229.48,153.87,236.58,160.57,246.38Z"/><path class="cls-4" d="M182.57,263.28c-3.4,1.5-7.3,3.3-11.2,4.7l-1.3.5a36.3,36.3,0,0,1-6.5,1.6c-2.2-7.3-8-21-11.8-27.5a93.14,93.14,0,0,0-12.3-17l-.1-.2c-1.9,1.2-4.3,2.6-6.2,3.8v.1c.9,7.7.9,19.4-1.9,26.6-3.9,10.4-6.2,13-11.3,22.9a124.86,124.86,0,0,1-14.6-3.7l-1.1-.4c-1.3-.4-2.5-.9-3.8-1.4,1.5-8.2,3.2-14.3,4.7-22.5-2.8-10.4-9.2-23-12.6-34l3.8-2.3.5-.3c8.4-5,16.8-9.7,25.4-14l1.1-.6c10.3-5.2,20.9-9.9,31.8-14.2,5.9,11.4,15.9,31.1,21.2,41.9a43.48,43.48,0,0,1,4.5,15.8C181.47,249.38,182.17,257.68,182.57,263.28Z"/><path class="cls-5" d="M171.37,268l-1.3.5a101.82,101.82,0,0,0-8.3-17.3.62.62,0,0,1,.1-.7l.6-.6a5.44,5.44,0,0,0-1.8,0c-.4.1-1-.4-.7-.9s0-1-.3-1.5a13,13,0,0,0-1-1.5l-2-3.2-4-6.2c-2.7-4.2-5.5-8.4-8.1-12.7v-.1a11.76,11.76,0,0,0-2,.7c-.6.3-1.5.5-2.2.8l-.8.3-.5.2a10.91,10.91,0,0,1-1.1.6,13.7,13.7,0,0,1-1.4.8l-3.3,2.1c-2.3,1.5-4.5,3.1-6.8,4.7-.1.1-.3,0-.4-.1s0-.2,0-.3a57,57,0,0,1,5.5-4.2c1.8-1.2,3.6-2.4,5.4-3.5-1.3-2.3-2.5-4.6-3.7-7-3.4-6.3-7-12.6-10.8-18.7-1.7-2.8-3.5-5.5-5.3-8.3-.4-.6.6-1.1,1-.6,1.7,2.5,3.3,4.9,4.9,7.5.2.3.3.5.5.8,2.6,4.2,5.1,8.4,7.5,12.7s4.6,8.6,6.6,13.1a119,119,0,0,1,15.5-7.9c.5-.2.9.7.4.9-2.1.9-4.2,1.8-6.3,2.8-.9.4-1.7.8-2.6,1.3a18,18,0,0,1,2.2-.6.51.51,0,1,1,.2,1,18,18,0,0,1-1.9.5c3,4.4,5.9,8.9,8.8,13.3l4.3,6.6c.8,1.1,1.5,2.3,2.2,3.4a3.49,3.49,0,0,1,.6,1.7,11.4,11.4,0,0,1,2.6.2.68.68,0,0,1,.4.8.35.35,0,0,1-.1.2l-1.1,1.1A115.34,115.34,0,0,1,171.37,268Z"/><path class="cls-5" d="M112.07,256.18a6.05,6.05,0,0,1-1.9,0l-3.1,12.4c-.5,2.2-1.1,4.3-1.6,6.5l-1.1-.4h0c.5-2.1,1.1-4.3,1.6-6.4l3.3-12.9-1.3-.3c-.7-.1-.4-1,.1-1.1l2.4-.3c-.9-3-1.9-5.9-2.9-8.9-3.4-10.2-7.2-20.2-11.2-30.2a24.43,24.43,0,0,0-1-2.4c-.1-.3.4-.5.5-.2l1,2.3c.9,2.2,1.9,4.5,2.8,6.8,4.4,10.9,8.4,21.9,12,33.1a.57.57,0,0,1-.4.7h-.1l.9.3C112.37,255.28,112.67,256.08,112.07,256.18Z"/><path class="cls-2" d="M118.17,124.08c10.6-.6,21.5-.2,32.1,0,7.9-6.5,16.4-14.1,23.8-21.2a5.53,5.53,0,0,0-.8-3.1,14,14,0,0,1-1.5-3,2,2,0,0,1,.4-2.3,2.23,2.23,0,0,1,2.1.2,10.17,10.17,0,0,1,3.9,3.8c1.4-2,4.4-6.4,5.6-5.6a1.09,1.09,0,0,1,.4,1.2,4.49,4.49,0,0,1-1,2.7,9.13,9.13,0,0,1,3-2.5,2,2,0,0,1,1.1-.3,1.29,1.29,0,0,1,.8,1.3,3.48,3.48,0,0,1-.7,1.5,25.6,25.6,0,0,1-2,2.6,4.19,4.19,0,0,0,1.4-.9,3.22,3.22,0,0,1,1.4-.8,1.14,1.14,0,0,1,1.3.6,1.67,1.67,0,0,1-.4,1.5,7.56,7.56,0,0,1-2.4,2.3,4.69,4.69,0,0,1,2.2-.9c.7-.1,1.4,0,1.5.7.2,1.6-5.8,4.9-9.2,6.8-4.9,8.3-11.9,18.4-17.3,26.3-2.4,3.5-4.9,7-8.5,9.2-3.3,2.1-7.3,2.8-11.2,3.5q-12.45,2.1-25.2,3C119.07,141.68,118.37,133,118.17,124.08Z"/><path class="cls-3" d="M119.17,151.08a.6.6,0,0,1-.4-.1.52.52,0,0,1-.2-.4c-.1-4.5-.3-8.9-.5-13.2s-.4-8.8-.5-13.3a.47.47,0,0,1,.5-.5c9.3-.5,18.8-.3,28-.1l4,.1c8-6.7,16.4-14.1,23.5-20.9a5.3,5.3,0,0,0-.8-2.7c-.1-.3-.3-.5-.4-.8a22.56,22.56,0,0,1-1.1-2.2,2.19,2.19,0,0,1,3.3-2.8,9.83,9.83,0,0,1,3.7,3.3h0c2.4-3.3,4.4-6,5.9-5.1a1.81,1.81,0,0,1,.7,1.7v.5a5.67,5.67,0,0,1,1.3-.8,2,2,0,0,1,1.5-.3,1.65,1.65,0,0,1,1.1,1.9,3.81,3.81,0,0,1-.8,1.7l-.2.3a.6.6,0,0,1,.4-.1,1.68,1.68,0,0,1,1.9.9,1.87,1.87,0,0,1-.4,1.9c-.1.2-.3.3-.4.5,1.4-.1,1.7.8,1.7,1.2.2,1.4-2.4,3.5-9.3,7.2-4.2,7.2-10,15.6-15.1,23.1l-2.1,3.1c-2.5,3.7-5,7.2-8.6,9.4-3.4,2.1-7.3,2.9-11.4,3.6-8.3,1.3-16.8,2.3-25.3,2.9Zm-.5-26.5c.1,4.3.3,8.6.5,12.8s.4,8.5.5,12.7c8.2-.6,16.5-1.6,24.6-3,4-.7,7.8-1.4,11-3.4,3.4-2.1,5.8-5.4,8.3-9.1l2.1-3.1c5.1-7.5,10.9-16,15.2-23.1l.2-.2c8.2-4.5,9-5.9,8.9-6.2,0-.1-.1-.4-.9-.3a4.42,4.42,0,0,0-1.6.6.52.52,0,0,1-.4.2.53.53,0,0,1-.7-.2.62.62,0,0,1,.1-.7l.4-.2a8.56,8.56,0,0,0,1.9-1.9,1.31,1.31,0,0,0,.3-1,1.14,1.14,0,0,0-.8-.3,2.59,2.59,0,0,0-1.1.7l-.2.2a2.58,2.58,0,0,1-1.3.8c-.2.1-.4,0-.6-.2a.64.64,0,0,1,0-.6c.7-.8,1.3-1.7,2-2.6a3.1,3.1,0,0,0,.6-1.3.74.74,0,0,0-.4-.8,2.35,2.35,0,0,0-.8.2,9.66,9.66,0,0,0-2.7,2.2.1.1,0,0,1-.1.1.49.49,0,0,1-.7.1h0a.49.49,0,0,1-.1-.7l.1-.1a3.78,3.78,0,0,0,.8-2.3c0-.5-.1-.7-.2-.8-.3-.2-1.4.5-4.5,4.9l-.5.6a.76.76,0,0,1-.4.2c-.2,0-.3-.1-.4-.3a9.83,9.83,0,0,0-3.7-3.6c-.4-.2-1.2-.5-1.6-.2s-.4,1.1-.2,1.7a20,20,0,0,0,1,2.1l.5.8a6.65,6.65,0,0,1,.9,3.4c0,.1-.1.2-.1.3-7.2,7-15.6,14.5-23.8,21.3a.37.37,0,0,1-.3.1l-4.2-.1C137.17,124.28,127.77,124.08,118.67,124.58Z"/><path class="cls-6" d="M140.27,122.48a100.43,100.43,0,0,1,4.1,26.7c-8.1,2.4-16.9,3.3-25.4,3.6-19.4.7-13.9-27.9-13.9-27.9A83.89,83.89,0,0,1,140.27,122.48Z"/><path class="cls-7" d="M94.77,129.18A242.45,242.45,0,0,0,72.17,141a8.65,8.65,0,0,0-1,.7,15,15,0,0,0-5.5,16.6c7.5,23,21.3,53.1,28,66.8,15.7-2.1,54.6-21.1,65.3-34.6-10.3-18.3-34.7-50.8-53.3-65.8C102.37,125.88,98.67,127.38,94.77,129.18Z"/><path class="cls-2" d="M71.07,141.68c3.5,2.7,8.4,3.3,12.8,2.8,3.9-.5,8-2,10.4-5.2,2.2-2.9,2.6-7.3.5-10.1A242.45,242.45,0,0,0,72.17,141,6.73,6.73,0,0,1,71.07,141.68Z"/><path class="cls-3" d="M81,145.18a17.66,17.66,0,0,1-10.2-3,.76.76,0,0,1-.2-.4.52.52,0,0,1,.2-.4c.4-.3.8-.5,1.1-.7a243.35,243.35,0,0,1,22.6-11.9.48.48,0,0,1,.6.2c2.2,2.9,2,7.5-.5,10.7-2.2,2.9-6,4.8-10.7,5.4C83,145.08,82,145.18,81,145.18Zm-9-3.5a17.7,17.7,0,0,0,11.9,2.2c4.4-.6,8-2.3,10-5s2.4-6.6.7-9.2a234.91,234.91,0,0,0-22.2,11.7Z"/><path class="cls-2" d="M89,128.88l2.8,5a29.66,29.66,0,0,1-16.9,7.5c-.6-2.3-1.3-4.6-2-6.9A35.72,35.72,0,0,0,89,128.88Z"/><path class="cls-8" d="M84.47,120.68c1.5,2.7,3,5.5,4.5,8.2a35,35,0,0,1-16.2,5.6c-.8-2.7-1.6-5.3-2.4-8A57.46,57.46,0,0,1,84.47,120.68Z"/><path class="cls-3" d="M74.87,141.88a.66.66,0,0,1-.5-.4c-.6-2.2-1.3-4.4-2-6.9l-.1-.5c-.8-2.5-1.5-5-2.2-7.5a.48.48,0,0,1,.2-.6,65.49,65.49,0,0,1,14.2-5.9.48.48,0,0,1,.6.2l7.2,13.2c.1.2.1.6-.2.7h0a.53.53,0,0,1-.7-.2h0l-7.1-12.8a58.52,58.52,0,0,0-13.2,5.5c.7,2.4,1.4,4.8,2.1,7.1l.1.4c.7,2.5,1.4,4.7,2,6.9a.44.44,0,0,1-.4.6Z"/><path class="cls-2" d="M39.17,96.38c12.7,31.5,34.7,35.7,52.3,31.8,15.2-3.4,24.7-12.9,27.8-26.2a45.85,45.85,0,0,0,1-14.3,71.43,71.43,0,0,0-1.1-7.9,113.73,113.73,0,0,0-4.3-16.2c-2.7-7.5-6.6-15.3-13.1-20.2-5.9-4.5-13.8-5.6-21-5.4-15.1.3-34.3,5.1-42.9,18.7C30.07,68.88,34.17,84,39.17,96.38Z"/><path class="cls-3" d="M80.77,129.88c-13.7,0-31.1-6.2-42-33.3h0c-4.9-12-9.4-27.5-1.3-40.2,10.8-16.9,35.9-18.8,43.3-18.9,9-.2,16.2,1.7,21.3,5.5,5.5,4.1,9.8,10.8,13.3,20.5a129.17,129.17,0,0,1,4.4,16.2,71.43,71.43,0,0,1,1.1,7.9,47.34,47.34,0,0,1-1,14.5c-3.3,13.8-13.3,23.3-28.3,26.6A49,49,0,0,1,80.77,129.88ZM82,38.48h-1.2c-7.3.2-32,1.9-42.5,18.5-7.8,12.3-3.4,27.5,1.4,39.3h0c13.9,34.4,38.3,34.5,51.7,31.5,14.5-3.3,24.3-12.5,27.4-25.9a44.59,44.59,0,0,0,1-14.1,69.68,69.68,0,0,0-1.1-7.8,112.42,112.42,0,0,0-4.3-16.1c-3.4-9.5-7.6-16-13-20-4.7-3.6-11.2-5.4-19.4-5.4Z"/><g class="cls-9"><path class="cls-10" d="M71.27,112.58a.78.78,0,0,1-.4.4,9.54,9.54,0,0,1-11.7,1.6c-4.2-2.6-6.1-9.3-2-13,4.7-4.2,14-1.5,15.5,4.8A7.23,7.23,0,0,1,71.27,112.58Z"/></g><g class="cls-9"><path class="cls-10" d="M106.07,97.58a7.11,7.11,0,0,0,3.5,5.2c.2.1.3.2.5.3a9.5,9.5,0,0,0,9.1-.5,45.85,45.85,0,0,0,1-14.3,8.26,8.26,0,0,0-1.3-.7C113,85.38,105.17,91.28,106.07,97.58Z"/></g><path class="cls-11" d="M35.77,104.18c-4.6-10-9.1-20.1-13.7-30.1a4.44,4.44,0,0,1-5.5-3,5.09,5.09,0,0,1,2.9-6,9.7,9.7,0,0,1-4.4-12.9,9.56,9.56,0,0,1,7.1-5.2,12.66,12.66,0,0,1,8.3-15.9,13,13,0,0,1,11.7,2.2,28.51,28.51,0,0,1,2.5-6.9,7.5,7.5,0,0,1,5.4-3.9c2.3-.3,4.8,1.2,5.2,3.4a14.64,14.64,0,0,1,27.9-.1,12.21,12.21,0,0,1,23.5,6.2c3-3.9,9.6-3.5,12.9.1s3.7,9.2,1.9,13.8a6.52,6.52,0,1,1,1.9,12.9c-.3,0-.6.1-.9.1a4,4,0,0,1-.8,3.5,3,3,0,0,1-3,.5c-.2-.1-.8.4-1,.3a4.41,4.41,0,0,1-.4,5.7,3.83,3.83,0,0,1-4,.3,3.1,3.1,0,0,1-1.5-3.2c-1.5,2.5-5.4,2.6-7.7.8s-3.3-4.9-3.7-7.8a9.75,9.75,0,0,1-18.7,1.8,10.57,10.57,0,0,1-6.1,8.8,10,10,0,0,1-10.2-1.9,4.37,4.37,0,0,1-2.2,4.5,6.71,6.71,0,0,1-5.2.3,21.55,21.55,0,0,1-4.8-2.4c-.3,9.4-2.3,18.5-6.9,26.7C43.37,97.58,37.87,101.88,35.77,104.18Z"/><path class="cls-3" d="M27.37,66c-.3.4-1,.2-1.3,0a2.27,2.27,0,0,1-.6-1.6,2.46,2.46,0,0,1,1.8-2.3.54.54,0,0,0,.5-.7.47.47,0,0,0-.5-.5c-2.4-.1-4-2.6-4.1-4.9a4.14,4.14,0,0,1,1.2-3.3,3,3,0,0,1,3.5-.6c.1.1.3,0,.4-.1s0-.3-.1-.4a3.64,3.64,0,0,0-4,.1,4.79,4.79,0,0,0-2,4,6.5,6.5,0,0,0,3.4,6,3.64,3.64,0,0,0-1.3,3.4,3,3,0,0,0,1.7,2.4,2,2,0,0,0,2.5-.8C29,66,27.87,65.38,27.37,66Z"/><path class="cls-3" d="M73.67,33.68c-1.2-3.3-3.6-6.6-7.3-6.9-3.2-.3-5.7,2.5-6.8,5.3-1.3-2.1-3-4.2-5.8-3.8-2.3.4-4.1,3.1-4.1,5.4a.27.27,0,0,0,.3.3c.1,0,.3-.1.3-.2.7-1.8,1.5-4.1,3.7-4.4,2.7-.4,4.2,2.5,5.2,4.5a.54.54,0,0,0,.8.2l.3-.3c.8-2.7,3-6,6.2-5.6s4.8,3.5,6,6.1C72.67,34.88,73.87,34.38,73.67,33.68Z"/><path class="cls-3" d="M111.07,49.18a6,6,0,0,0,.5-7.3,5.9,5.9,0,0,0-7.4-1.6c-.5-2.4-1.2-5-3.5-6.3a4.32,4.32,0,0,0-5.9,1.7c-.1.1-.1.2-.2.3-.1.3.2.6.4.3a6,6,0,0,1,2.5-1.9,3.49,3.49,0,0,1,3.1.7c1.9,1.5,2.2,4,2.5,6.2a.57.57,0,0,0,.7.4.1.1,0,0,0,.1-.1,4.72,4.72,0,0,1,6.5.8,4.6,4.6,0,0,1-1.2,6.3.75.75,0,0,0-.2,1,.6.6,0,0,0,.6.3,3,3,0,0,1,3,2.6,1.79,1.79,0,0,1-1.7,1.9,1.49,1.49,0,0,1-.9-.2c-.7-.3-1,.8-.5,1.1,1.9,1.3,4.3-.5,4.4-2.5A3.67,3.67,0,0,0,111.07,49.18Z"/><path class="cls-3" d="M90.87,56.48a3.16,3.16,0,0,1-3.9,2.1,4.88,4.88,0,0,1-.7-.3c-2.2-1.1-3.1-3.5-4-5.7a.68.68,0,0,0-.8-.4c-.1,0-.2.1-.3.2a34.68,34.68,0,0,1-3,3.7,14.83,14.83,0,0,1-3.7,2.9,4,4,0,0,1-4.2-.3,10,10,0,0,1-2.5-3.3c-.2-.3-.7,0-.5.3a10.79,10.79,0,0,0,2.6,3.7,4.66,4.66,0,0,0,4.4.7,12.31,12.31,0,0,0,4.3-2.8,23.52,23.52,0,0,0,3-3.3c1,2.5,2.3,4.9,4.8,6s5.9-.2,6.1-3.1a.79.79,0,0,0-.8-.8A.63.63,0,0,0,90.87,56.48Z"/><path class="cls-2" d="M51.67,104.08c1.3,4.9-.9,8.2-7.4,9.5s-13.2-2.3-14.5-8.4c-1-4.7-.1-11,6.4-12.3S49.87,97,51.67,104.08Z"/><path class="cls-8" d="M49,109.18c1.6-2.1.4-4.6-4.3-7.5s-10.2-3.4-12-.7c-1.4,2.1-1.5,5.7,3.1,8.6S46.57,112.28,49,109.18Z"/><path class="cls-3" d="M41.57,114.38c-5.9,0-11.1-3.7-12.3-9-.4-1.7-1-6,1.2-9.4a8.07,8.07,0,0,1,5.5-3.5,12.92,12.92,0,0,1,10.5,3,.5.5,0,1,1-.6.8,11.86,11.86,0,0,0-9.7-2.8,7.26,7.26,0,0,0-4.9,3.1,11.24,11.24,0,0,0-1.1,8.6c1.2,5.7,7.5,9.3,13.9,8a13.28,13.28,0,0,0,5.1-2,.5.5,0,0,1,.6.8h0a12.53,12.53,0,0,1-5.5,2.2A21.3,21.3,0,0,1,41.57,114.38Z"/><polygon class="cls-12" points="249.77 191.58 129.57 191.08 125.47 67.98 257.07 68.58 249.77 191.58"/><path class="cls-3" d="M249.77,192.08h0l-120.2-.5a.47.47,0,0,1-.5-.5L125,68a.6.6,0,0,1,.1-.4c.1-.1.2-.1.4-.1l131.6.5a.76.76,0,0,1,.4.2c.1.1.2.2.1.4l-7.3,123a.47.47,0,0,1-.5.5Zm-119.7-1.5,119.2.5,7.2-122L126,68.58Z"/><polygon class="cls-13" points="250.37 47.98 130.17 47.48 125.47 67.68 256.97 68.28 250.37 47.98"/><path class="cls-3" d="M257,68.78h0l-131.6-.5a.52.52,0,0,1-.4-.2.6.6,0,0,1-.1-.4l4.7-20.2a.66.66,0,0,1,.5-.4h0l120.2.5a.66.66,0,0,1,.5.4l6.6,20.2a.9.9,0,0,1-.1.5A.44.44,0,0,1,257,68.78Zm-130.9-1.6,130.2.5L250,48.58l-119.4-.5Z"/><polygon class="cls-14" points="240.47 182.78 138.77 182.38 135.27 78.08 246.67 78.58 240.47 182.78"/><path class="cls-3" d="M240.57,183.28h0l-101.8-.4a.47.47,0,0,1-.5-.5l-3.5-104.3c0-.1.1-.3.1-.4s.2-.2.4-.1h0l111.4.5a.76.76,0,0,1,.4.2c.1.1.1.2.1.4l-6.1,104.2A.46.46,0,0,1,240.57,183.28Zm-101.3-1.4,100.8.4,6.1-103.2-110.4-.5Z"/><g class="cls-15"><path class="cls-16" d="M190.17,144.38a5.8,5.8,0,0,1-1.9,2.7,5.42,5.42,0,0,1-3.3.8,4.74,4.74,0,0,1-3.3-.9,6,6,0,0,1-1.9-3l-6.2-18.8-6.5,19.2a4.68,4.68,0,0,1-1.9,2.7,5.87,5.87,0,0,1-3.5.8,7.57,7.57,0,0,1-1.5-.1,3.36,3.36,0,0,1-1.4-.5,4.26,4.26,0,0,1-1.2-1.1,7.5,7.5,0,0,1-1-2L146.37,116h9.8l4.2,12.9c.1.5.3,1,.5,1.7a18,18,0,0,1,.5,1.9c.1.6.4,1.5.6,2.3.1-.6.3-1.2.4-1.8a15.43,15.43,0,0,1,.5-1.7l.5-1.7,4-13.6h11.8l4.4,14.3a7.37,7.37,0,0,0,.4,1.4c.2.5.3,1,.5,1.5a9.36,9.36,0,0,1,.4,1.6c.1-.5.3-1,.4-1.5.3-.9.5-1.8.8-2.7l4.3-14.5h10.2Z"/><path class="cls-16" d="M235.17,124.78a7.89,7.89,0,0,1-1.3,4.5,12,12,0,0,1-3.6,3.5,19.81,19.81,0,0,1-5.7,2.2,30.52,30.52,0,0,1-7.4.8h-2.1a6.44,6.44,0,0,0,2.2,4.3,7.24,7.24,0,0,0,4.7,1.6,21.35,21.35,0,0,0,10.7-3.3V146a19.35,19.35,0,0,1-5.3,2.3,22.24,22.24,0,0,1-5.7.7,18.68,18.68,0,0,1-6.6-1.1,12.63,12.63,0,0,1-5-3.2,13.6,13.6,0,0,1-3.1-5,18.14,18.14,0,0,1-1.1-6.5,20.07,20.07,0,0,1,1.3-7.3,16.24,16.24,0,0,1,3.6-5.7,14.85,14.85,0,0,1,5.5-3.7,18.51,18.51,0,0,1,7-1.3,13.28,13.28,0,0,1,8.6,2.6A8.43,8.43,0,0,1,235.17,124.78Zm-9.6.7a2.61,2.61,0,0,0-1-2,3.29,3.29,0,0,0-2.5-.8,5.66,5.66,0,0,0-4.1,1.7,8.24,8.24,0,0,0-2.2,4.7c.4.1.8.1,1.1.2H218c5,0,7.6-1.3,7.6-3.8Z"/></g><path class="cls-17" d="M188.37,142.38a5.8,5.8,0,0,1-1.9,2.7,5.42,5.42,0,0,1-3.3.8,4.74,4.74,0,0,1-3.3-.9,6,6,0,0,1-1.9-3l-6.2-18.8-6.5,19.2a4.68,4.68,0,0,1-1.9,2.7,5.87,5.87,0,0,1-3.5.8,7.57,7.57,0,0,1-1.5-.1,3.94,3.94,0,0,1-1.4-.5,4.26,4.26,0,0,1-1.2-1.1,7.5,7.5,0,0,1-1-2L144.57,114h9.8l4.2,12.9c.1.5.3,1,.5,1.7a18,18,0,0,1,.5,1.9c.1.6.4,1.5.6,2.3.1-.6.3-1.2.4-1.8a15.43,15.43,0,0,1,.5-1.7c.2-.6.3-1.2.5-1.7l4.1-13.6h11.8l4.4,14.3a10.26,10.26,0,0,0,.4,1.4c.2.5.3,1,.5,1.5a9.36,9.36,0,0,1,.4,1.6c.1-.5.3-1,.4-1.5a27.59,27.59,0,0,1,.8-2.7l4.3-14.5h10.2Z"/><path class="cls-17" d="M233.37,122.78a7.89,7.89,0,0,1-1.3,4.5,12,12,0,0,1-3.6,3.5,19.81,19.81,0,0,1-5.7,2.2,30.52,30.52,0,0,1-7.4.8h-2.1a6.44,6.44,0,0,0,2.2,4.3,6.73,6.73,0,0,0,4.7,1.6,21.35,21.35,0,0,0,10.7-3.3V144a19.35,19.35,0,0,1-5.3,2.3,22.24,22.24,0,0,1-5.7.7,18.68,18.68,0,0,1-6.6-1.1,12.63,12.63,0,0,1-5-3.2,12.41,12.41,0,0,1-3.1-5,18.14,18.14,0,0,1-1.1-6.5,20.07,20.07,0,0,1,1.3-7.3,16.24,16.24,0,0,1,3.6-5.7,14.85,14.85,0,0,1,5.5-3.7,18.51,18.51,0,0,1,7-1.3,13.28,13.28,0,0,1,8.6,2.6A9,9,0,0,1,233.37,122.78Zm-9.7.7a2.61,2.61,0,0,0-1-2,3.29,3.29,0,0,0-2.5-.8,5.5,5.5,0,0,0-4.1,1.7,8.24,8.24,0,0,0-2.2,4.7c.4.1.8.1,1.2.2h1.1C221.07,127.18,223.67,126,223.67,123.48Z"/><path class="cls-18" d="M90.37,102a7.08,7.08,0,0,1-2.9,0c-.3-.1-.5-.3-.4-.6a.57.57,0,0,1,.7-.4h0a6.08,6.08,0,0,0,5.2-1.4,5.27,5.27,0,0,0,1.5-4.9.44.44,0,0,1,.4-.6h0a.57.57,0,0,1,.7.4,6.22,6.22,0,0,1-1.8,5.9A6.73,6.73,0,0,1,90.37,102Z"/><path class="cls-18" d="M91.77,121.58a.56.56,0,0,1,.6-.5,16.8,16.8,0,0,0,5-.2.32.32,0,1,1,.2.6,9.67,9.67,0,0,1-5.3.7C92.07,122.08,91.77,121.88,91.77,121.58Z"/><path class="cls-19" d="M65.77,77.48s-7.8,1.1-8.5,11.3c0,.4-.4.4-.5,0-.7-2.6-1.6-8.4,2.3-12,6.2-5.7,6.7.7,6.7.7"/><path class="cls-20" d="M78.77,109.08a20,20,0,0,1-2.1-1,3.67,3.67,0,0,0-1.8-.1c-.8.1-1.6.6-1.6,1.3s.6,1,1.2,1.2a5,5,0,0,0,3.2.1,1.55,1.55,0,0,0,1.1-.8c.1-.4-.3-.9-.7-.8Z"/><path class="cls-20" d="M103.77,104.38a9.49,9.49,0,0,1,.9-2.1,1.46,1.46,0,0,1,.9-.6,1.92,1.92,0,0,1,2,.6,2,2,0,0,1,.1,2,3.62,3.62,0,0,1-1.5,1.5,3.36,3.36,0,0,1-1.4.5,1.31,1.31,0,0,1-1.2-.6,1,1,0,0,1,.2-1.3,3.75,3.75,0,0,1,1.2-.7Z"/><path class="cls-21" d="M106,103.18a7.72,7.72,0,0,1-.2,1.5c-.6,3-2.5,8.7-6.1,11.6a11.75,11.75,0,0,1-9.6,2.2c-4.4-.8-6.8-2.5-10-5.6-1-1-2.2-2.1-3.5-3.4,0,0-.3-.2.1-.3a.64.64,0,0,1,.6,0c2.4,0,8.8,1.7,17.3-.9,6.6-2,9.8-4.3,11-5.3a.3.3,0,0,1,.4,0v.2"/><path class="cls-22" d="M105.77,104.68c-.6,3-2.5,8.7-6.1,11.6a11.75,11.75,0,0,1-9.6,2.2c-4.4-.8-6.8-2.5-10-5.6,3.4,2.2,8.8,4.8,14.3,3.8,7.4-1.3,10.6-9.3,11.4-12"/><path class="cls-23" d="M106,103.08a28,28,0,0,1-14.1,7.2c-8.1,1.7-13.5-.3-15.2-1,.2,0,.4-.1.6,0,2.4,0,8.8,1.7,17.3-.9,6.6-2,9.8-4.3,11-5.3,0-.2.2-.2.4,0"/><path class="cls-24" d="M80.27,110.08a29.22,29.22,0,0,0,22.5-4.5s-.7,4.6-8.3,6.9c-8.7,2.6-14.2-2.4-14.2-2.4"/><path class="cls-25" d="M94.37,116.68a9.9,9.9,0,0,1-5.4-.3c2.6-4.4,8.9-3.1,10.1-2.1-.8,1.1-2.2,1.9-4.7,2.4"/><ellipse class="cls-26" cx="69.26" cy="90.67" rx="7.4" ry="6.9" transform="translate(-1.15 0.89) rotate(-0.73)"/><path class="cls-3" d="M75.77,91c.7,2.6-.5,5.1-4,5.9s-5.9-1.1-6.6-3.7.7-4.9,4.2-5.7S75.07,88.38,75.77,91Z"/><ellipse class="cls-24" cx="64.85" cy="90.26" rx="2.4" ry="2.2" transform="translate(-0.9 0.65) rotate(-0.57)"/><path class="cls-19" d="M98.27,71s7.6-2,12.7,7c.2.4.5.2.5-.2-.5-2.7-2.2-8.2-7.4-10-8.1-2.9-5.8,3.2-5.8,3.2"/><ellipse class="cls-26" cx="100.86" cy="84.27" rx="7.4" ry="6.9" transform="translate(-1.07 1.29) rotate(-0.73)"/><path class="cls-3" d="M95.17,87.08c.5,2.6,2.7,4.4,6.2,3.8s4.9-3.3,4.4-5.9-2.8-4.2-6.3-3.6S94.57,84.48,95.17,87.08Z"/><ellipse class="cls-24" cx="97.56" cy="82.37" rx="2.4" ry="2.2" transform="translate(-1.04 1.25) rotate(-0.73)"/><path class="cls-27" d="M170.87,282.58l20.4-6.5a43.56,43.56,0,0,1-2-7.9c1.4-.3,4.4-.8,6.3.5,2.6,1.8,3.9,9.8,3.9,9.8l-27.5,8.2Z"/><path class="cls-3" d="M172,287.28a.37.37,0,0,1-.3-.1c-.2-.1-.3-.2-.3-.4l-1.1-4a.68.68,0,0,1,.4-.8l19.7-6.3-.3-.8a24.38,24.38,0,0,1-1.5-6.6.75.75,0,0,1,.5-.7c1.6-.4,4.7-.9,6.8.6,2.8,1.8,4.1,9.3,4.2,10.2.1.3-.1.6-.5.7l-27.5,8.2Zm-.3-4.3.8,2.8,26.3-7.8c-.5-2.5-1.8-7.5-3.5-8.7-1.5-1-3.9-.8-5.2-.5a39.47,39.47,0,0,0,1.4,5.7,8.8,8.8,0,0,0,.5,1.5.68.68,0,0,1-.4.8h0Z"/><path class="cls-10" d="M191.27,276.08l-20.4,6.5-2.2-7.9,15.9-5.5s-1.8-4.4.9-5.3,3,4.6,3,4.6l.8-.2A42.54,42.54,0,0,0,191.27,276.08Z"/><path class="cls-3" d="M170.87,283.28a.37.37,0,0,1-.3-.1c-.2-.1-.3-.2-.3-.4l-2.2-7.9a.68.68,0,0,1,.4-.8l15.3-5.3a6.4,6.4,0,0,1-.1-4.1,2.48,2.48,0,0,1,1.6-1.4,2,2,0,0,1,2,.2c1.2.8,1.7,3,1.8,4.2h0a.44.44,0,0,1,.5.1.55.55,0,0,1,.3.5,36,36,0,0,0,1.5,6.3,8.8,8.8,0,0,0,.5,1.5.68.68,0,0,1-.4.8h0l-20.4,6.5C171.07,283.18,171,283.28,170.87,283.28Zm-1.3-8.2,1.8,6.7,19.1-6.1-.3-.8a29.09,29.09,0,0,1-1.5-5.8.44.44,0,0,1-.5-.1.55.55,0,0,1-.3-.5c-.1-1.2-.5-3.4-1.3-4a.75.75,0,0,0-.8-.1,1.14,1.14,0,0,0-.8.7c-.5,1.1.1,3.1.3,3.7a.45.45,0,0,1,0,.5c-.1.2-.2.3-.4.3Z"/><path class="cls-3" d="M180.37,275.38a3.38,3.38,0,1,1-4.5-1.6c.2-.1.3-.1.5-.2A3.29,3.29,0,0,1,180.37,275.38Z"/><path class="cls-27" d="M97.47,291.78h23.3a40.46,40.46,0,0,1,.5-8.5c1.6.1,4.8.5,6.4,2.5,2.1,2.6.9,10.9.9,10.9l-31.3-.6Z"/><path class="cls-3" d="M128.57,297.38h0l-31.3-.6a.68.68,0,0,1-.7-.7l.2-4.3a.68.68,0,0,1,.7-.7h22.7v-.9a27.63,27.63,0,0,1,.6-7,.75.75,0,0,1,.7-.5c1.8.1,5.2.6,6.9,2.7,2.3,2.7,1.1,10.6,1,11.5A1,1,0,0,1,128.57,297.38Zm-30.6-2,30,.6c.3-2.6.7-8-.8-9.8-1.3-1.5-3.8-2-5.4-2.2a31.28,31.28,0,0,0-.4,6.1v1.6a.68.68,0,0,1-.7.7H98Z"/><path class="cls-10" d="M120.77,291.78H97.47l.4-8.6,18.4-.4s-.4-5,2.7-5,1.6,5.5,1.6,5.5h.9A34.89,34.89,0,0,0,120.77,291.78Z"/><path class="cls-3" d="M120.77,292.48H97.47a.68.68,0,0,1-.7-.7l.4-8.6c0-.4.3-.6.7-.7l17.7-.4a6.59,6.59,0,0,1,1.2-4.1,2.87,2.87,0,0,1,2.2-1,2.25,2.25,0,0,1,2,.9c1,1.2.7,3.4.5,4.7h0a.55.55,0,0,1,.5.3.66.66,0,0,1,.1.6,30.27,30.27,0,0,0-.5,6.7v1.6a.85.85,0,0,1-.8.7Zm-22.6-1.4h21.9v-.9a31.8,31.8,0,0,1,.4-6.2h0a.55.55,0,0,1-.5-.3.66.66,0,0,1-.1-.6c.3-1.2.6-3.4,0-4.3a1,1,0,0,0-.9-.4,1.85,1.85,0,0,0-1.2.5c-.9,1-.9,3-.8,3.8a.68.68,0,0,1-.7.7l-17.7.4Z"/><path class="cls-3" d="M109.67,287.68c0,1.6-1.7,2.9-3.7,2.9s-3.6-1.4-3.6-3,1.7-2.9,3.7-2.9S109.67,286.08,109.67,287.68Z"/><path class="cls-28" d="M161.57,139.38a74.38,74.38,0,0,0,8-1.3,7.09,7.09,0,0,0,3-1.5,2.45,2.45,0,0,0,.6-3,2.52,2.52,0,0,0-2-.9c-1.5-.3-6,.3-9.5.9-.1-.1-.1-.2-.2-.3,2.8-1,6.1-2.3,6.9-3.2.6-.7,1.2-1.6.9-2.4-1-2.6-15.3,1.4-19.9,2.8.7-3.6,2.9-7.2,1.5-10.4a2.71,2.71,0,0,0-2.8-1.9c-1.6-.1-1.5-.1-2.1,1.5a48.49,48.49,0,0,0-1.6,6.3c-.4,1.7-3.5,8-4.7,10-5.9,4.3-11.9,8.8-17.9,13-1.8.8-3.6,1.6-5.4,2.3l-3.8-1.2c-8.8-2.8-17.8-5.7-26.9-7.8-.3-.1-.5.1-.6.4h0c-1.2,4.3-2.3,8.7-3.3,12.9s-2.1,8.5-3.3,12.8a.6.6,0,0,0,.1.4c.1.1.2.2.3.2,8.3,1.8,16.7,3.2,25.1,4.3,2.1.3,4.2.4,6.4.5a20.24,20.24,0,0,0,5.5-.7c4-1.1,7.5-3.7,10.9-6.5l3-2.4c6.2-5,13.1-10.7,18.9-15.8,7.6,1.2,17.3,3.8,18.8,1.4.7-1.2-.1-2.2-1.2-2.9s-6-1.3-8.4-1.5c2.9.2,8.6.3,10.4-.3a3.65,3.65,0,0,0,2.4-1.8,2.28,2.28,0,0,0-1.3-2.5,6.25,6.25,0,0,0-3-.4c-.8,0-3.7.1-5.6,0l.3-.2C161.37,139.68,161.47,139.58,161.57,139.38Z"/><path class="cls-6" d="M110,147.38a101.48,101.48,0,0,1-2.5,26.9c-8.5.3-17.2-1-25.5-2.7-19-4.1-16.9-22.8-13-27.1C71.77,141.38,81.27,135.88,110,147.38Z"/></svg>