<svg id="Layer_1" data-name="Layer 1" xmlns="http://www.w3.org/2000/svg" viewBox="0 0 598 342.89"><defs><style>.cls-1{opacity:0.2;isolation:isolate;}.cls-2{fill:#ffc7c7;}.cls-3{fill:#472113;}.cls-4{fill:#ff9c9c;}.cls-5{fill:#1185cc;}.cls-6{fill:#36b3f2;stroke:#144f66;}.cls-15,.cls-16,.cls-6,.cls-9{stroke-miterlimit:10;}.cls-7{fill:#21d8b4;}.cls-8{fill:#ff4e00;}.cls-9{fill:#f9beac;stroke:#560f1d;stroke-width:0.5px;}.cls-10{fill:#ff8b00;}.cls-11{opacity:0.4;}.cls-12{fill:#231f20;}.cls-13{fill:#fff;}.cls-14{fill:#6fa31c;}.cls-15{fill:#f7e669;}.cls-15,.cls-16{stroke:#685f0e;}.cls-16{fill:#e2cd07;}</style></defs><path class="cls-1" d="M531.75,265.1H411.25l-13.4,10.4-22.5-19.6h-296l-49.5,38.4,247.5,3.2h119a8.55,8.55,0,0,0-2.7,5.8c0,8.6,17,15.5,37.9,15.5,16.8,0,31-4.5,36-10.7,11.3-2.3,19-6.5,19.3-11.4h81.3Z"/><polygon class="cls-2" points="251.55 284.1 387.15 282.6 390.85 143.7 242.45 145.3 251.55 284.1"/><path class="cls-3" d="M251.55,284.5a.43.43,0,0,1-.4-.4l-9.1-138.7a.35.35,0,0,1,.4-.4l148.4-1.6a.35.35,0,0,1,.4.4l-3.7,138.9a.43.43,0,0,1-.4.4Zm-8.7-138.8,9,137.9,134.8-1.5,3.7-138.1Z"/><polygon class="cls-4" points="249.85 137.5 385.45 137 390.95 144.7 242.45 145.3 249.85 137.5"/><path class="cls-3" d="M242.45,145.4a.37.37,0,0,1-.3-.1.1.1,0,0,1-.1-.1l7.3-7.8c.1-.1.2-.1.4-.1l135.6-.5h0a.6.6,0,0,1,.4.1l5.5,7.7a.1.1,0,0,1-.1.1c-.1,0-.2.1-.3.1l-148.4.6Zm7.7-7.8-7.1,7.5,147.3-.5-5.3-7.5Z"/><polygon class="cls-4" points="261.95 274.1 376.75 272.9 379.95 155.2 254.25 156.6 261.95 274.1"/><path class="cls-3" d="M262,274.5a.43.43,0,0,1-.4-.4l-7.7-117.5a.43.43,0,0,1,.4-.4h0L380,154.8a.35.35,0,0,1,.4.4l-3.2,117.6a.43.43,0,0,1-.4.4ZM254.65,157l7.7,116.7,114-1.2,3.2-116.8Z"/><polygon class="cls-5" points="92.45 285.8 231.45 284.2 235.45 145.3 83.25 147.1 92.45 285.8"/><path class="cls-3" d="M92.45,286.2a.43.43,0,0,1-.4-.4l-9.2-138.7a.35.35,0,0,1,.4-.4l152.2-1.8a.35.35,0,0,1,.4.4l-4,138.9a.43.43,0,0,1-.4.4l-139,1.6Zm-8.8-138.8,9.1,137.9,138.3-1.6,4-138.1Z"/><polygon class="cls-6" points="91.15 141.9 230.25 141.6 235.85 146.6 83.65 147 91.15 141.9"/><polygon class="cls-7" points="103.05 275.8 220.85 274.4 224.25 156.8 95.25 158.3 103.05 275.8"/><path class="cls-3" d="M103.05,276.2a.43.43,0,0,1-.4-.4L95,158.3a.35.35,0,0,1,.4-.4l128.9-1.5c.1,0,.2.1.3.1a.37.37,0,0,1,.1.3l-3.4,117.6a.43.43,0,0,1-.4.4h0l-117.8,1.4Zm-7.3-117.5,7.7,116.7,117-1.4,3.3-116.8Z"/><polygon class="cls-8" points="179.35 146.5 326.25 145.3 330.25 28.7 169.55 30.1 179.35 146.5"/><path class="cls-3" d="M179.35,146.8c-.2,0-.4-.1-.4-.3l-9.9-116.4a.35.35,0,0,1,.4-.4l160.8-1.4a.35.35,0,0,1,.4.4l-4.1,116.5c0,.2-.2.4-.4.3l-146.8,1.3ZM170,30.4l9.8,115.7,146-1.2,4-115.9Z"/><polygon class="cls-9" points="177.45 24.5 323.45 24.2 329.35 28.9 169.55 29.2 177.45 24.5"/><path class="cls-3" d="M169.55,29.3h-.3c-.1,0-.1,0-.1-.1l7.9-4.7c.1,0,.3-.1.4-.1l145.9-.3a.6.6,0,0,1,.4.1l5.9,4.7-.1.1h-.3l-159.7.3Zm8.3-4.7-7.6,4.5,158.6-.3-5.7-4.5Z"/><polygon class="cls-10" points="190.65 138.1 314.95 137.1 318.45 38.3 182.25 39.5 190.65 138.1"/><path class="cls-3" d="M190.65,138.4c-.2,0-.4-.1-.4-.3L182,39.5a.35.35,0,0,1,.4-.4L318.55,38a.37.37,0,0,1,.3.1c.1.1.1.1.1.2l-3.4,98.8c0,.2-.2.3-.4.3l-124.5,1Zm-7.9-98.6,8.3,97.9,123.5-1,3.4-98Z"/><g class="cls-11"><path class="cls-12" d="M162,215.1a21,21,0,0,1-1.3,7.4,14.67,14.67,0,0,1-3.8,5.7,17.06,17.06,0,0,1-5.9,3.6,22.65,22.65,0,0,1-7.7,1.3,50.1,50.1,0,0,1-7.7-.7,34.87,34.87,0,0,1-7.2-2V184h10.2v21.3a13.13,13.13,0,0,1,4.5-2.8,17.74,17.74,0,0,1,5.6-.9,14.51,14.51,0,0,1,5.5,1,11.39,11.39,0,0,1,7,7A16.65,16.65,0,0,1,162,215.1Zm-10.2,1.7a6.37,6.37,0,0,0-1.5-4.4,5.79,5.79,0,0,0-4.3-1.6,8.15,8.15,0,0,0-3.1.6,6.34,6.34,0,0,0-2.3,1.6,9.13,9.13,0,0,0-1.5,2.3,8.57,8.57,0,0,0-.5,2.7v5.4a7.54,7.54,0,0,0,2.4.8,26.35,26.35,0,0,0,2.8.2,8.32,8.32,0,0,0,5.9-2,7.53,7.53,0,0,0,2.1-5.6Z"/><path class="cls-12" d="M201,210.2a7.67,7.67,0,0,1-1.4,4.4,10.7,10.7,0,0,1-3.9,3.4,25.39,25.39,0,0,1-6,2.2,34.45,34.45,0,0,1-7.8.8h-2.2a6.56,6.56,0,0,0,2.3,4.3,7.42,7.42,0,0,0,5,1.5,23.46,23.46,0,0,0,11.3-3.2V231a27.48,27.48,0,0,1-5.6,2.3,24.58,24.58,0,0,1-6,.7,20.92,20.92,0,0,1-7-1.1,13.5,13.5,0,0,1-5.3-3.1,13.69,13.69,0,0,1-3.3-4.9,17.32,17.32,0,0,1-1.2-6.4,19.54,19.54,0,0,1,1.3-7.2,16.37,16.37,0,0,1,3.8-5.6,18.07,18.07,0,0,1,5.7-3.7,21.14,21.14,0,0,1,7.5-1.3c3.8,0,6.8.8,9.1,2.6A7.9,7.9,0,0,1,201,210.2Zm-10.2.8a2.61,2.61,0,0,0-1-2,3.77,3.77,0,0,0-2.7-.8,6.56,6.56,0,0,0-4.4,1.7,8.24,8.24,0,0,0-2.4,4.6,4.87,4.87,0,0,0,1.2.1h1.1c5.5,0,8.2-1.2,8.2-3.6Z"/></g><path class="cls-13" d="M159.25,214.1a21,21,0,0,1-1.3,7.4,15.44,15.44,0,0,1-3.8,5.7,17.06,17.06,0,0,1-5.9,3.6,22.65,22.65,0,0,1-7.7,1.3,50.1,50.1,0,0,1-7.7-.7,34.87,34.87,0,0,1-7.2-2V183.1h10.2v21.3a11.85,11.85,0,0,1,4.4-2.8,17.74,17.74,0,0,1,5.6-.9,14.87,14.87,0,0,1,5.5,1,11.39,11.39,0,0,1,7,7A19.08,19.08,0,0,1,159.25,214.1ZM149,215.9a6.37,6.37,0,0,0-1.5-4.4,5.79,5.79,0,0,0-4.3-1.6,8.15,8.15,0,0,0-3.1.6,6.34,6.34,0,0,0-2.3,1.6,7,7,0,0,0-1.5,2.3,8.57,8.57,0,0,0-.5,2.7v5.4a7.54,7.54,0,0,0,2.4.8,26.35,26.35,0,0,0,2.8.2,8.32,8.32,0,0,0,5.9-2A7.68,7.68,0,0,0,149,215.9Z"/><path class="cls-13" d="M198.15,209.3a7.67,7.67,0,0,1-1.4,4.4,10.7,10.7,0,0,1-3.9,3.4,25.39,25.39,0,0,1-6,2.2,34.45,34.45,0,0,1-7.8.8h-2.2a6.56,6.56,0,0,0,2.3,4.3,7.42,7.42,0,0,0,5,1.5,23.46,23.46,0,0,0,11.3-3.2v7.4a27.48,27.48,0,0,1-5.6,2.3,24.58,24.58,0,0,1-6,.7,20.92,20.92,0,0,1-7-1.1,13.5,13.5,0,0,1-5.3-3.1,13.69,13.69,0,0,1-3.3-4.9,17.32,17.32,0,0,1-1.2-6.4,19.54,19.54,0,0,1,1.3-7.2,16.31,16.31,0,0,1,9.6-9.3,21.14,21.14,0,0,1,7.5-1.3,14.89,14.89,0,0,1,9.1,2.6A7.92,7.92,0,0,1,198.15,209.3ZM188,210a2.61,2.61,0,0,0-1-2,3.77,3.77,0,0,0-2.7-.8,6.56,6.56,0,0,0-4.4,1.7,8.24,8.24,0,0,0-2.4,4.6c.4.1.8.1,1.2.2h1.1c5.5,0,8.2-1.2,8.2-3.7Z"/><g class="cls-11"><path class="cls-12" d="M276.85,233.6V208.4h-6.4v-6.9h6.4v-8.1h9.6v8.1h8.3v6.9h-8.3v25.2Z"/><path class="cls-12" d="M321.05,233.6V215.4a13.33,13.33,0,0,0-.3-2.8,4.17,4.17,0,0,0-.9-1.6,2.39,2.39,0,0,0-1.3-.7,7.77,7.77,0,0,0-1.6-.2,4.81,4.81,0,0,0-2.4.7,6.36,6.36,0,0,0-2,2,14,14,0,0,0-1.5,3,11.33,11.33,0,0,0-.6,3.6v14.2h-9.7V183.5h9.7v21.6a11.16,11.16,0,0,1,4-2.8,11.75,11.75,0,0,1,4.9-.8,15.23,15.23,0,0,1,4.2.6,12.7,12.7,0,0,1,3.7,1.8,10.87,10.87,0,0,1,2.7,3.3,11.09,11.09,0,0,1,1,5.1v21.4Z"/><path class="cls-12" d="M370.45,210.3a7.89,7.89,0,0,1-1.3,4.5,11.29,11.29,0,0,1-3.7,3.5,19.81,19.81,0,0,1-5.7,2.2,30.8,30.8,0,0,1-7.5.8h-2.1a6.44,6.44,0,0,0,2.2,4.3,6.73,6.73,0,0,0,4.7,1.6,21.46,21.46,0,0,0,10.7-3.4v7.7a20.77,20.77,0,0,1-5.3,2.3,22.24,22.24,0,0,1-5.7.7,18.31,18.31,0,0,1-6.6-1.1,13.83,13.83,0,0,1-5-3.2,12.41,12.41,0,0,1-3.1-5,18.14,18.14,0,0,1-1.1-6.5,20.07,20.07,0,0,1,1.3-7.3,16.24,16.24,0,0,1,3.6-5.7,15.71,15.71,0,0,1,5.5-3.7,19.39,19.39,0,0,1,7.1-1.3,13.55,13.55,0,0,1,8.7,2.6A8.19,8.19,0,0,1,370.45,210.3Zm-9.7.7a2.61,2.61,0,0,0-1-2,3.29,3.29,0,0,0-2.5-.8,5.89,5.89,0,0,0-4.2,1.7,9.07,9.07,0,0,0-2.3,4.7c.4.1.8.1,1.2.2h1.1c5.1-.1,7.7-1.3,7.7-3.8Z"/></g><path class="cls-13" d="M272.65,232.6V207.4h-6.4v-7h6.4v-8.1h9.6v8.1h8.3v7h-8.3v25.2Z"/><path class="cls-13" d="M316.85,232.6V214.4a13.33,13.33,0,0,0-.3-2.8,4.17,4.17,0,0,0-.9-1.6,3.53,3.53,0,0,0-1.3-.8,7.77,7.77,0,0,0-1.6-.2,4.81,4.81,0,0,0-2.4.7,6.36,6.36,0,0,0-2,2,14,14,0,0,0-1.5,3,11.33,11.33,0,0,0-.6,3.6v14.2h-9.8V182.4h9.7v21.7a11.16,11.16,0,0,1,4-2.8,11.75,11.75,0,0,1,4.9-.8,15.23,15.23,0,0,1,4.2.6,12.7,12.7,0,0,1,3.7,1.8,9.31,9.31,0,0,1,2.6,3.3,11.09,11.09,0,0,1,1,5.1v21.4Z"/><path class="cls-13" d="M366.25,209.3a7.89,7.89,0,0,1-1.3,4.5,11.29,11.29,0,0,1-3.7,3.5,19.81,19.81,0,0,1-5.7,2.2,30.8,30.8,0,0,1-7.5.8H346a6.91,6.91,0,0,0,2.2,4.4,7.24,7.24,0,0,0,4.7,1.6,22,22,0,0,0,10.8-3.3v7.7a20.77,20.77,0,0,1-5.3,2.3,22.24,22.24,0,0,1-5.7.7,18.31,18.31,0,0,1-6.6-1.1,13.83,13.83,0,0,1-5-3.2,12.41,12.41,0,0,1-3.1-5,18.14,18.14,0,0,1-1.1-6.5,20.07,20.07,0,0,1,1.3-7.3,16.24,16.24,0,0,1,3.6-5.7,15.71,15.71,0,0,1,5.5-3.7,19.39,19.39,0,0,1,7.1-1.3,13.55,13.55,0,0,1,8.7,2.6A8,8,0,0,1,366.25,209.3Zm-9.7.7a2.61,2.61,0,0,0-1-2,3.29,3.29,0,0,0-2.5-.8,5.89,5.89,0,0,0-4.2,1.7,8.24,8.24,0,0,0-2.2,4.7c.4.1.8.1,1.2.2H349c5,0,7.6-1.3,7.6-3.8Z"/><g class="cls-11"><path d="M226.85,102.3a5.74,5.74,0,0,0-.1-1.2,6.15,6.15,0,0,1-.1-1.4c0-.6-.1-1.1-.1-1.7a11.43,11.43,0,0,1-4.7,3.7,15.89,15.89,0,0,1-6.1,1.3,11.44,11.44,0,0,1-9.2-3.9c-2.2-2.6-3.3-6.3-3.3-11,0-5.8,1.8-10.3,5.3-13.4s8.5-4.7,15.1-4.7a26.22,26.22,0,0,1,2.9.1,20.61,20.61,0,0,1,2.6.3c.8.2,1.8.3,2.7.5s1.9.5,3.1.8V92.1c0,1.1,0,2.3.1,3.5s.1,2.3.2,3.3c.1,1.2.2,2.4.3,3.5Zm-1.5-23.4a15.72,15.72,0,0,0-2.3-.4c-.7,0-1.3-.1-1.9-.1A7.83,7.83,0,0,0,215,81a10.06,10.06,0,0,0-2.2,7.1,7.49,7.49,0,0,0,1.3,4.6,4.41,4.41,0,0,0,3.7,1.6,7.17,7.17,0,0,0,2.9-.6,8.4,8.4,0,0,0,2.4-1.8,7.85,7.85,0,0,0,1.6-2.8,11.33,11.33,0,0,0,.6-3.6V78.9Z"/><path d="M267.15,79.5a15.69,15.69,0,0,1-1.6-.3,5.7,5.7,0,0,0-1.3-.1,7.45,7.45,0,0,0-6.2,2.8q-2.1,2.85-2.1,8.4v12h-9.6V78.4a19.42,19.42,0,0,0-.2-2.4,14.35,14.35,0,0,0-.4-2.2c-.2-.7-.4-1.6-.7-2.5h9.1c.2.6.3,1.1.4,1.5l.3,1.2a5,5,0,0,0,.2,1.2,7.57,7.57,0,0,1,.1,1.5,16.75,16.75,0,0,1,4.1-4.7,8.06,8.06,0,0,1,4.6-1.4,9.85,9.85,0,0,1,1.7.2,10.66,10.66,0,0,1,1.9.7Z"/><path d="M299.05,79.4a8.12,8.12,0,0,1-1.3,4.5,10.63,10.63,0,0,1-3.6,3.4,18.18,18.18,0,0,1-5.6,2.2,30.25,30.25,0,0,1-7.3.8h-2.1a6.35,6.35,0,0,0,6.9,5.8,20.89,20.89,0,0,0,10.6-3.2v7.6a24.21,24.21,0,0,1-5.2,2.3,21.21,21.21,0,0,1-5.7.7,18.14,18.14,0,0,1-6.5-1.1,13.21,13.21,0,0,1-4.9-3.1,14.06,14.06,0,0,1-3.1-4.9,20,20,0,0,1-1.1-6.4,19.54,19.54,0,0,1,1.3-7.2,17.09,17.09,0,0,1,3.5-5.6,16.77,16.77,0,0,1,5.4-3.7,18.51,18.51,0,0,1,7-1.3,12.84,12.84,0,0,1,8.5,2.6A7.52,7.52,0,0,1,299.05,79.4Zm-9.6.7a2.61,2.61,0,0,0-1-2,3.29,3.29,0,0,0-2.5-.8,5.83,5.83,0,0,0-4.1,1.7,8.26,8.26,0,0,0-2.2,4.6,4.87,4.87,0,0,0,1.2.1H282q7.5,0,7.5-3.6Z"/></g><path class="cls-13" d="M222.85,102.3a5.74,5.74,0,0,0-.1-1.2,6.15,6.15,0,0,1-.1-1.4c0-.6-.1-1.1-.1-1.7a11.43,11.43,0,0,1-4.7,3.7,15.89,15.89,0,0,1-6.1,1.3,11.44,11.44,0,0,1-9.2-3.9c-2.2-2.6-3.3-6.3-3.3-11,0-5.8,1.8-10.3,5.3-13.4s8.5-4.7,15.1-4.7a26.22,26.22,0,0,1,2.9.1,20.61,20.61,0,0,1,2.6.3c.8.2,1.8.3,2.7.5s2,.5,3.1.8V92.1c0,1.1,0,2.3.1,3.5s.1,2.3.2,3.3c.1,1.2.2,2.4.3,3.5Zm-1.5-23.4a15.72,15.72,0,0,0-2.3-.4c-.7,0-1.3-.1-1.9-.1A7.83,7.83,0,0,0,211,81a10.06,10.06,0,0,0-2.2,7.1,7.49,7.49,0,0,0,1.3,4.6,4.41,4.41,0,0,0,3.7,1.6,7.17,7.17,0,0,0,2.9-.6,8.4,8.4,0,0,0,2.4-1.8,7.85,7.85,0,0,0,1.6-2.8,11.33,11.33,0,0,0,.6-3.6V78.9Z"/><path class="cls-13" d="M263.25,79.5a15.69,15.69,0,0,1-1.6-.3,5.7,5.7,0,0,0-1.3-.1,7.45,7.45,0,0,0-6.2,2.8q-2.1,2.85-2.1,8.4v12h-9.6V78.4a16.59,16.59,0,0,0-.2-2.4,17,17,0,0,0-.4-2.2c-.2-.7-.4-1.6-.7-2.5h9.1c.2.6.3,1.1.4,1.5L251,74a5,5,0,0,0,.2,1.2,7.57,7.57,0,0,1,.1,1.5,16.75,16.75,0,0,1,4.1-4.7,8.06,8.06,0,0,1,4.6-1.4,9.85,9.85,0,0,1,1.7.2,10.66,10.66,0,0,1,1.9.7Z"/><path class="cls-13" d="M295.15,79.4a8.12,8.12,0,0,1-1.3,4.5,10.63,10.63,0,0,1-3.6,3.4,18.18,18.18,0,0,1-5.6,2.2,30.25,30.25,0,0,1-7.3.8h-2.1a6.35,6.35,0,0,0,6.9,5.8,20.89,20.89,0,0,0,10.6-3.2v7.6a24.21,24.21,0,0,1-5.2,2.3,21.21,21.21,0,0,1-5.7.7,18.14,18.14,0,0,1-6.5-1.1,13.21,13.21,0,0,1-4.9-3.1,14.06,14.06,0,0,1-3.1-4.9,20,20,0,0,1-1.1-6.4,19.54,19.54,0,0,1,1.3-7.2,17.09,17.09,0,0,1,3.5-5.6,16.77,16.77,0,0,1,5.4-3.7,18.51,18.51,0,0,1,7-1.3,12.84,12.84,0,0,1,8.5,2.6A8,8,0,0,1,295.15,79.4Zm-9.6.7a2.61,2.61,0,0,0-1-2,3.29,3.29,0,0,0-2.5-.8A5.83,5.83,0,0,0,278,79a8.26,8.26,0,0,0-2.2,4.6,4.87,4.87,0,0,0,1.2.1h1.1c4.9,0,7.5-1.2,7.5-3.6Z"/><path class="cls-14" d="M415.45,117.5l7.8,154.6,116-1.6,3.2-154.8Zm63.4,124.7c-18.2,0-32.9-19.2-32.9-42.8s14.7-42.8,32.9-42.8,32.9,19.2,32.9,42.8S497,242.2,478.85,242.2Z"/><path class="cls-3" d="M422.85,272.1l-7.8-154.6a.6.6,0,0,1,.1-.4c.1-.1.2-.2.3-.2l127-1.8h0c.1,0,.2.1.3.2s.1.2.1.4l-3.2,154.8a.51.51,0,0,1-.4.5l-116,1.6h0A.46.46,0,0,1,422.85,272.1Zm119.2-155.9L416,118l7.7,153.6,115.2-1.6Zm-96.5,83.2c0-23.9,14.9-43.3,33.3-43.3s33.3,19.4,33.3,43.3-14.9,43.3-33.3,43.3-33.3-19.4-33.3-43.3Zm.8,0c0,23.3,14.6,42.3,32.5,42.3s32.5-19,32.5-42.3-14.6-42.3-32.5-42.3-32.5,18.9-32.5,42.3Z"/><polygon class="cls-15" points="421.75 109.2 537.75 108.6 542.45 116.9 415.55 117.4 421.75 109.2"/><path class="cls-15" d="M415.25,117.5c-.1,0-.1-.1,0,0l6.2-8.4c.1-.1.2-.1.4-.1l116-.5a.6.6,0,0,1,.4.1l4.7,8.2a.1.1,0,0,1-.1.1c-.1,0-.2.1-.3.1l-127,.6h0A.37.37,0,0,1,415.25,117.5Zm122.2-8.7-115.4.5-6,7.9,125.9-.6Z"/><path class="cls-16" d="M533.35,128.1c-.1-.1-.2-.1-.3-.2h0l-107.5,1.5c-.1,0-.2.1-.3.2s-.1.2-.1.4l6.6,131a.66.66,0,0,0,.4.5h0l98.2-1.4c.2,0,.4-.3.4-.5l2.7-131.1A.76.76,0,0,0,533.35,128.1Z"/><g class="cls-11"><path class="cls-12" d="M479.15,213.2V198.8c0-2.6-.4-4.4-1.1-5.4a3.56,3.56,0,0,0-3-1.5,4.55,4.55,0,0,0-2,.5,6.55,6.55,0,0,0-1.8,1.5,8.37,8.37,0,0,0-1.3,2.9,17.26,17.26,0,0,0-.5,4.5v11.9h-8.8V198.8a10.31,10.31,0,0,0-1-5.2,3.84,3.84,0,0,0-3.4-1.7,4.67,4.67,0,0,0-3.9,2.2c-1.1,1.5-1.7,3.9-1.7,7.2v11.9h-8.8V194.9a26.22,26.22,0,0,0-.1-2.9c-.1-.9-.1-1.7-.2-2.5a18.92,18.92,0,0,0-.5-2.3c-.2-.7-.4-1.5-.7-2.3h8.8c.2.7.4,1.2.5,1.5.1.5.3,1,.4,1.5a19.52,19.52,0,0,1,4.6-2.8,15.23,15.23,0,0,1,6-1.1,9.88,9.88,0,0,1,4.5,1,7.1,7.1,0,0,1,3,2.7,9.59,9.59,0,0,1,4.4-2.7,18.36,18.36,0,0,1,5.7-.9,9.76,9.76,0,0,1,7.2,2.6c1.7,1.7,2.5,4.3,2.5,7.6v18.8h-8.8v.1Z"/><path class="cls-12" d="M523.75,192.1a7.3,7.3,0,0,1-1.2,4.1,8.91,8.91,0,0,1-3.3,3.1,18.12,18.12,0,0,1-5.2,2,25.46,25.46,0,0,1-6.7.7h-1.9a6.42,6.42,0,0,0,2,3.9,6,6,0,0,0,4.3,1.4,19.41,19.41,0,0,0,9.7-3v7a20.57,20.57,0,0,1-4.8,2.1,22.42,22.42,0,0,1-5.2.6,17.58,17.58,0,0,1-6-1,11.28,11.28,0,0,1-4.5-2.9,11.77,11.77,0,0,1-2.8-4.5,17,17,0,0,1-1-5.9,19.33,19.33,0,0,1,1.2-6.7,15.57,15.57,0,0,1,3.2-5.2,14.33,14.33,0,0,1,5-3.4,17.32,17.32,0,0,1,6.4-1.2,12.06,12.06,0,0,1,7.8,2.4A8.84,8.84,0,0,1,523.75,192.1Zm-8.8.7a2.14,2.14,0,0,0-.9-1.8,3.78,3.78,0,0,0-2.3-.8,5.07,5.07,0,0,0-3.8,1.6,7.8,7.8,0,0,0-2,4.3,3.4,3.4,0,0,0,1,.1h1c4.7-.1,7-1.2,7-3.4Z"/></g><path class="cls-13" d="M475.25,212.3V197.9c0-2.6-.4-4.4-1.1-5.4a3.56,3.56,0,0,0-3-1.5,4.55,4.55,0,0,0-2,.5,6.55,6.55,0,0,0-1.8,1.5,8.37,8.37,0,0,0-1.3,2.9,17.26,17.26,0,0,0-.5,4.5v11.9h-8.8V197.9a10.31,10.31,0,0,0-1-5.2,3.73,3.73,0,0,0-3.4-1.7,4.92,4.92,0,0,0-3.9,2.2c-1.1,1.5-1.7,3.9-1.7,7.2v11.9H438V194.1a26.22,26.22,0,0,0-.1-2.9c-.1-.9-.1-1.7-.2-2.5a18.92,18.92,0,0,0-.5-2.3c-.2-.7-.4-1.5-.7-2.3h8.8c.2.7.4,1.2.5,1.5s.2.8.4,1.5a19.52,19.52,0,0,1,4.6-2.8,15.23,15.23,0,0,1,6-1.1,9.88,9.88,0,0,1,4.5,1,6.57,6.57,0,0,1,3,2.7,9.59,9.59,0,0,1,4.4-2.7,18.36,18.36,0,0,1,5.7-.9,9.76,9.76,0,0,1,7.2,2.6c1.7,1.7,2.5,4.3,2.5,7.7v18.8Z"/><path class="cls-13" d="M519.75,191.2a7.3,7.3,0,0,1-1.2,4.1,8.91,8.91,0,0,1-3.3,3.1,18.12,18.12,0,0,1-5.2,2,25.46,25.46,0,0,1-6.7.7h-1.9a6.42,6.42,0,0,0,2,3.9,6,6,0,0,0,4.3,1.4,20.09,20.09,0,0,0,9.8-3v7a20.57,20.57,0,0,1-4.8,2.1,22.42,22.42,0,0,1-5.2.6,17.58,17.58,0,0,1-6-1,11.28,11.28,0,0,1-4.5-2.9,11.77,11.77,0,0,1-2.8-4.5,17,17,0,0,1-1-5.9,19.33,19.33,0,0,1,1.2-6.7,15.57,15.57,0,0,1,3.2-5.2,14.33,14.33,0,0,1,5-3.4,17.32,17.32,0,0,1,6.4-1.2,12.06,12.06,0,0,1,7.8,2.4A8.54,8.54,0,0,1,519.75,191.2Zm-8.7.7a2.14,2.14,0,0,0-.9-1.8,3.78,3.78,0,0,0-2.3-.8,5.46,5.46,0,0,0-3.8,1.6,7.8,7.8,0,0,0-2,4.3,3.4,3.4,0,0,0,1,.1h1c4.6,0,7-1.2,7-3.4Z"/></svg>