<svg id="Layer_1" data-name="Layer 1" xmlns="http://www.w3.org/2000/svg" viewBox="0 0 682.92 162.09"><defs><style>.cls-1{fill:#5430cb;}.cls-2{fill:#7efdb9;stroke:#00a79d;stroke-miterlimit:10;stroke-width:3px;}</style></defs><path class="cls-1" d="M676.17,74.74c-2.6-6.4-6.1-15.1-15.9-16.8h-.2a45.41,45.41,0,0,0-8.2-.7,48.81,48.81,0,0,0-15.2,2.4c.5-2.3,1-4.3,1.4-6.1.2-.8.4-1.4.5-1.9.1-.3.2-.6.3-1a15,15,0,0,0,.8-4.7A17.29,17.29,0,0,0,623,28.14h-.5a12.1,12.1,0,0,0-1.9.1c-1.1,0-3.9,0-8.8-.3-1.9-.1-3.8-.3-5.6-.5-2.2-.2-4.4-.4-6.4-.4-8.6,0-15.8,6.5-17.1,15.5a.9.9,0,0,1-.1.5c-.2,1.5-.4,3.4-.6,5.6a.6.6,0,0,1-.4-.1,51.21,51.21,0,0,0-6.7-.4,43,43,0,0,0-17.6,3.6,20.51,20.51,0,0,0-12.5-5.5h-.4c-1.2-.1-2.4-.2-3.6-.2a50.35,50.35,0,0,0-6.7.5,18.53,18.53,0,0,0-8.7-3.6h-.2c-.5,0-1-.1-1.5-.1-.8,0-1.5.1-2.8.2-1.6.1-4.5.4-8.7.7-1.8.1-3.6.1-5.3.2a47.33,47.33,0,0,0-5.6.3,16.81,16.81,0,0,0-7.9,2.9c-7.5-5.8-16.8-9.2-27.5-10-1.4-.1-2.9-.1-4.2-.1a49.77,49.77,0,0,0-18.4,3.3c.1-4.3.2-7.7.3-10v-.1c.3-7-2.5-11.4-4.9-13.9a16.89,16.89,0,0,0-11.6-5.2c-2.9-.1-6.9-.2-11.9-.2-3.9,0-8.2,0-10.8-.1h-.6a18,18,0,0,0-11,3.7c-5.2-4.2-12.3-4.7-21.3-4.8-1.5-.1-3.1-.1-4.7-.1-2.6,0-5.3.1-7.9.3a18,18,0,0,0-8.2,2.3,11.35,11.35,0,0,0-2.3,1.5A17.29,17.29,0,0,0,337,9.64c-2.1,0-5.3-.1-10.6-.3-4.8-.2-8.6-.3-11.2-.3h-.9c-9.5.6-16.3,8.1-16.3,18v.1c0,3.08,0,6.51-.09,10.16a19.28,19.28,0,0,0-3.61-.56v-1.2c-.5-8.9-7.6-15.7-16.8-16.1-1.9-.1-3.6-.3-5.1-.4-1.8-.1-3.4-.3-4.5-.3a27.17,27.17,0,0,1-3.2-.4,39.4,39.4,0,0,0-7.7-.7h-.8a16.88,16.88,0,0,0-11.6,5.4c-4.6,5-5,11.2-4.9,16.8a39,39,0,0,0-13.5-2.3c-1,0-2,0-3,.1H223c-1.3.1-2.7.3-4,.5v-2.6c0-2.9-.1-4.7-.2-6.2v-.2a17.08,17.08,0,0,0-16.9-15.8h-1.3a8.81,8.81,0,0,0-1.7.2l-2,.4c-3.4.6-5.6,1-9.5,1.8h-.1c-.3,0-1.4.2-4.4.6a51.47,51.47,0,0,0-8.7,1.7,17.18,17.18,0,0,0-12.1,18.1c0,.3.1.5.1.8a27.44,27.44,0,0,0,.9,3.9,23.69,23.69,0,0,1,.9,3.6h-4.7c-10.6,0-11.8.1-12.7.2a20.22,20.22,0,0,0-5.5,1.6,37.66,37.66,0,0,0-7.6-.8,35.53,35.53,0,0,0-4.6.3h-.1a43.65,43.65,0,0,0-17.5,5.8,24.94,24.94,0,0,0-13.1-19,29.86,29.86,0,0,0-14.3-3.7,31.08,31.08,0,0,0-4.3.3,30.61,30.61,0,0,0-17,8,17.63,17.63,0,0,0-14.2-7.3,24.52,24.52,0,0,0-2.7.2,15.54,15.54,0,0,0-2.3.5c-.3.1-.6.1-.8.2A64.9,64.9,0,0,0,16,45.44C3,57.64,2,70.54,3.47,79.24a38.94,38.94,0,0,0,11.1,21.4l.6.6c.7.6,2.3,1.9,4.2,3.4a7.93,7.93,0,0,0-.9.4,16.67,16.67,0,0,0-10.3,18.3v.2c.9,5.1,4,9.5,10.1,16.7,5.1,6,10.8,12.8,19.7,12.8a21.12,21.12,0,0,0,2.6-.2c.2,0,.4-.1.6-.1a16,16,0,0,0,2.1-.5c.1,0,.2-.1.3-.1a63.52,63.52,0,0,0,25.6-15.4,17.73,17.73,0,0,0,14,6.2h.7a98.13,98.13,0,0,0,10.9-1.1A90.85,90.85,0,0,0,105,140c1.9,3.6,5.6,7.7,12.8,9.7a55.3,55.3,0,0,0,11.9,1.7q4.05.3,8.1.3c2.7,0,5.5-.1,8.3-.3h.4c16.1-1.7,27.5-6.9,34.8-15.7a28.22,28.22,0,0,0,3.6-5.4,14.35,14.35,0,0,0,2.2.4c.3,0,.6.1.9.1,1.3.1,2.6.1,4,.1a56.83,56.83,0,0,0,5.9-.3c7.7-.6,10.4-.9,12.4-1.3a18,18,0,0,0,7.9-3.7,19.09,19.09,0,0,0,7.9,2.3c1.5.1,3.1.1,4.7.1,2.2,0,4.5-.1,6.7-.3a95.52,95.52,0,0,0,10.7-1,16.84,16.84,0,0,0,8.9-4.5c4.7,2.5,10.7,4.1,18.3,4.1h2.3a52.92,52.92,0,0,0,24.3-6.6,25.82,25.82,0,0,0,5.7-4.1,16.58,16.58,0,0,0,3.4-4.9,19.36,19.36,0,0,0,1.7-9.2,26.35,26.35,0,0,1,.2-2.8v-.2c.13-1.31.25-2.66.32-4,.76,1.34,1.53,2.67,2.28,4,2.9,5,5.6,9.8,7.9,14.3a19,19,0,0,0,11.2,10.3,16.54,16.54,0,0,0,3.2.7,70,70,0,0,0,9.2.5h3.5c2.5,0,5-.1,7.4-.3a20.16,20.16,0,0,0,6.8-1.8,16.19,16.19,0,0,0,4.1-2.7,16.37,16.37,0,0,0,4,2.9,20.4,20.4,0,0,0,5.4,1.9c.3.1.6.1.9.2a84.21,84.21,0,0,0,10,.8c1.5.1,3,.1,4.4.1,2,0,4-.1,6-.2a1.27,1.27,0,0,0,.6-.1,18.31,18.31,0,0,0,9.2-3.8,15.68,15.68,0,0,0,3.1-3.2,17.48,17.48,0,0,0,1.8-2.9c2-3.7,4-7.3,6-11a43.64,43.64,0,0,0,7.5,10.8c8.3,8.8,19.1,13.7,32.2,14.6,1.4.1,2.8.1,4.1.1a47.75,47.75,0,0,0,23.4-5.8,18.47,18.47,0,0,0,11.6,7.5c2.7.5,6.1,1,10.9,1.5a102.27,102.27,0,0,0,10.4.7h.3c8.6,0,15.7-5.5,17.6-13.4.4.7.9,1.4,1.3,2,7.1,9.9,17.5,16.1,30.3,17.7a40.47,40.47,0,0,0,6,.5,35.43,35.43,0,0,0,7.3-.7,22.85,22.85,0,0,0,8.7,2.9c12.8,1.7,15.8,2.1,18.2,2.1h.1a18.54,18.54,0,0,0,4.8-.7,16.71,16.71,0,0,0,9.8,5.2h.2a45.83,45.83,0,0,0,6.4.4,47.92,47.92,0,0,0,11.9-1.5,59.09,59.09,0,0,0,15.7-6.2c.1-.1.3-.2.4-.3a28.77,28.77,0,0,0,10-10.5,33,33,0,0,0,4.1-11.1v-.2a33,33,0,0,0-1.5-16.5c.1-.1.2-.2.3-.2,5.1-3.8,6.9-8.3,7.4-11.4v-.2C680.67,86.24,679.07,82.14,676.17,74.74Z"/><path class="cls-2" d="M66.67,101.84c1.2,7.9-1.3,15.2-7.4,21.9a47.3,47.3,0,0,1-20.6,13.1c-.3.1-.6.1-.8.2-.9.1-3.4-2.2-7.6-7.1s-6.3-7.9-6.5-9.1c-.1-.4.2-.8.8-1,5.7-2.3,9.4-4,11.2-5.3,3.9-2.7,5.5-6.1,4.9-10-.4-2.5-2.3-5.1-5.6-7.8-5.7-4.5-8.9-7-9.4-7.5a22.74,22.74,0,0,1-6.6-12.6c-1.2-7.1,1.3-13.6,7.6-19.5,5.2-4.8,11.9-8.5,20.2-11a6.53,6.53,0,0,1,1.1-.2c.6-.1,1.2.3,1.7,1.2,1.5,2.7,4.9,7.4,10,14.2l.3.6c.1.7-.2,1-1,1.2a10.28,10.28,0,0,1-1.7.1,10.87,10.87,0,0,0-1.8.1,16.11,16.11,0,0,0-7.6,3.2c-2.5,1.9-3.5,4.2-3.1,6.8.4,2.4,2.3,5,5.9,8,6.2,5.4,9.5,8.3,9.8,8.5A22.08,22.08,0,0,1,66.67,101.84Z"/><path class="cls-2" d="M99.27,97.24c.4,2.8,1,7.1,1.9,12.7s1.5,9.8,1.9,12.6c.1.8-.3,1.4-1.3,1.7-3.1.7-6.1,1.2-9.3,1.6a75,75,0,0,1-9.4,1c-.9,0-1.5-.2-1.7-.5a10.46,10.46,0,0,1-.4-1.7c-.4-2.7-.9-6.7-1.6-12.1s-1.2-9.5-1.6-12.2a195.81,195.81,0,0,0-5.2-26.2l-.3-1.2c-.1-.8.4-1.3,1.5-1.4a50.51,50.51,0,0,1,5.4-.4,52.89,52.89,0,0,0,5.5-.4c1.2-.2,3-.5,5.4-1s4.2-.8,5.4-1c1-.1,1.5.2,1.6,1v1.1A261,261,0,0,0,99.27,97.24Zm-4.1-43.6c.9,6.8-2.8,10.7-11,11.8a15.05,15.05,0,0,1-9.1-1.4,9.32,9.32,0,0,1-3.8-12.7,10.77,10.77,0,0,1,1.8-2.4,14,14,0,0,1,8.3-3.9,13.75,13.75,0,0,1,8.9,1.6A8.76,8.76,0,0,1,95.17,53.64Z"/><path class="cls-2" d="M173.87,100.74c1,11.2-.6,19.4-5,24.7-4.5,5.5-12.6,8.8-24.2,10a81.82,81.82,0,0,1-14,0c-7.6-.4-11.5-1.5-11.8-3.3-.1-.7.3-4.7,1.2-11.8.1-1.1.6-1.8,1.1-1.8a1.85,1.85,0,0,1,.7.2c6.6,2.2,12.6,3,17.9,2.4a20.34,20.34,0,0,0,8.5-3.1c3.3-2.1,4.8-4.3,4.6-6.9l-.4-3.9c-3.8,4.2-8.9,6.6-15.4,7.4a25,25,0,0,1-19.8-5.7,26.83,26.83,0,0,1-9.6-17.8c-.9-7.4.6-13.9,4.6-19.4,4.2-5.7,10.4-9,18.3-10,6.3-.7,11.4.9,15.2,4.7.8.8,1.3,1.2,1.5,1.1s.5-.8.3-2.2q-.45-4.65.6-4.8c.7-.1,4.3-.1,11-.1s10.1,0,10.3.1a1.51,1.51,0,0,1,1.2,1.5c.3,2.7.5,6.8.8,12.1s.6,9.4.9,12.1c.1,1.6.4,4,.7,7.2S173.67,99.14,173.87,100.74Zm-23-14.2a10.47,10.47,0,0,0-3.8-7.1,9.94,9.94,0,0,0-7.9-2.3,9.8,9.8,0,0,0-7.2,4,10.37,10.37,0,0,0-2.1,7.8,10.16,10.16,0,0,0,3.9,7,9.84,9.84,0,0,0,7.9,2.3,10.13,10.13,0,0,0,7.1-4,10.56,10.56,0,0,0,2.1-7.7Z"/><path class="cls-2" d="M244.47,67.94c.7,13.6,1.4,27.1,2.1,40.7.1,1.4-.5,2.2-1.6,2.4-1.3.2-4.3.5-8.9.8a59,59,0,0,1-9.4.1,2.33,2.33,0,0,1-2.2-2.4h0c-.2-3.4-.5-8.5-.8-15.3s-.6-11.9-.8-15.3c-.3-4.6-2.9-6.7-7.9-6.4a13,13,0,0,0-5.7,2.3c-2.4,1.6-3.5,3.1-3.4,4.6L207,94c.1,1.9.4,4.7.8,8.5s.6,6.6.8,8.5a2.22,2.22,0,0,1-1.7,2.6c-1.2.3-4.8.6-10.6,1.1a35.53,35.53,0,0,1-7.3.1c-1.5-.2-2.3-.8-2.4-1.9-.3-3.1-.7-7.8-1.2-14s-.9-10.9-1.1-14c-.9-10.6-1.9-21.3-3.2-31.8-.4-2.9-.7-5.9-1.1-8.8a54.2,54.2,0,0,0-1.9-8.7c-.1-.4-.2-.7-.3-1.1a1.19,1.19,0,0,1,.9-1.3,23,23,0,0,1,5.7-1.1c3.4-.4,5.3-.7,5.9-.8,4.6-.9,6.9-1.3,11.4-2.1.7,0,1,.3,1.1,1.2.1,1.3.1,3,.1,5.1,0,2.5.1,4.3.1,5.1.5,8.8.8,15.9,1.2,21,.1.8.3,1.2.7,1.1.1,0,1.1-.8,3-2.3a36.36,36.36,0,0,1,6.7-4.3,24.16,24.16,0,0,1,9.5-2.7c5.4-.3,10,.7,13.7,3.1A13.53,13.53,0,0,1,244.47,67.94Z"/><path class="cls-2" d="M297.27,91.24a48.86,48.86,0,0,1-.3,5.4,47.08,47.08,0,0,0-.3,5.3,4.22,4.22,0,0,1-.3,2.2,6.61,6.61,0,0,1-2,1.4,37.84,37.84,0,0,1-17.4,4.8q-17.7.75-18.3-12.3-.15-3.9-.3-11.7t-.3-11.7c-.1-1.7-1.2-2.6-3.3-2.4H254c-.3,0-.6.1-.8.1-1.6.1-2.4-.4-2.5-1.5V65c0-.8-.2-2.1-.3-3.8s-.3-2.9-.3-3.8,1.3-1.3,4-1.5c1.5-.1,2.3-.5,2.4-1.3a33.71,33.71,0,0,0-.1-7.1c-.4-5-.6-7.5-.6-7.2-.2-4.6.1-6.9,1.1-6.9a26.26,26.26,0,0,1,4.9.5c2.4.4,4.2.6,5.1.7,2.1.1,5.5.4,9.8.7,1.1,0,1.6.3,1.6.9,0,1.6,0,4-.2,7.2a60.54,60.54,0,0,0-.1,7.2c.1,1.9.7,2.9,1.9,2.8,1.5,0,3.7-.2,6.7-.4s5.2-.3,6.7-.4c.9,0,1.4.3,1.4.8,0,1.4-.1,2.7-.2,4.1s-.2,2.7-.2,4.1c0,1,.1,2.3.2,4.1s.2,3.2.2,4.1-.6,1.3-1.8,1.3h-8.4l-4.7.2c-.6,0-.9.9-.8,2.6,0,.9.1,2.4.2,4.2s.2,3.3.2,4.2c.1,3.3.6,5.6,1.4,6.8,1.1,1.7,3.4,2.4,6.6,2.3a21.35,21.35,0,0,0,4.4-.8,17.73,17.73,0,0,1,4-.8,1.2,1.2,0,0,1,1.4.9A1.09,1.09,0,0,1,297.27,91.24Z"/><path class="cls-2" d="M427.17,57.64c0,.1-4.4,7.8-12.7,23.2-4.8,8.8-9.5,17.7-14.4,26.5a7.46,7.46,0,0,1-.7,1.2,2.2,2.2,0,0,1-1.2.5,63.16,63.16,0,0,1-8.7.1,55.2,55.2,0,0,1-8.1-.6,8.8,8.8,0,0,1-1.5-.5,4.44,4.44,0,0,1-.8-1.1c-.2-.4-1.3-3.3-3.3-8.4-2.5-6.6-3.8-9.9-6.4-16.5-2.9,6.6-4.3,9.9-7.2,16.5q-1.05,2.85-3.6,8.1a4.7,4.7,0,0,1-.9,1.2,5.73,5.73,0,0,1-1.4.4,71.32,71.32,0,0,1-8,.3,64.81,64.81,0,0,1-8.8-.4,2.86,2.86,0,0,1-1.7-1.7c-8.3-16.5-21.9-35.4-24.5-50.8-.4-2.6,0-7.9.2-14.1s.3-11,.2-14.1c0-1.3.4-2,1.3-2,2.4,0,6.1.1,11,.2s8.6.3,11.1.3c1,0,1.5.4,1.5,1.1,0,3.2-.2,7.9-.5,14.3s-.5,11.1-.5,14.3c0,1.2,1.5,5,4.5,11.3,2.7,5.7,4.7,9.5,5.9,11.6q.9,1.5,1.2,1.5c.2,0,1.2-1.9,2.6-5.6,4-10.5,6.1-16.8,6.2-18.7q.3-5.4.3-13.8V28a2.74,2.74,0,0,1,.2-1.3,3.26,3.26,0,0,1,1.4-.4,106.06,106.06,0,0,1,11.3-.2c8.1.2,12.2.8,12.2,1.9q-.15,3.9-.6,12.3c-.4,5.4-.5,9.5-.6,12.3l-.1,3c0,2,2,8.5,5.9,19.3,1.3,3.8,2.2,5.7,2.5,5.7s.6-.5,1.3-1.5c1.2-1.9,3.2-5.7,6-11.3,3-6.1,4.7-9.8,4.7-10.9.1-3.2.1-8,0-14.3s-.1-11.1,0-14.3c0-.7.5-1,1.5-1,2.5.1,6.3.1,11.3.2s8.8.1,11.3.2c.8,0,1.2.9,1.1,2.4-.2,3.1-.3,7.7-.3,13.9S427.37,54.54,427.17,57.64Z"/><path class="cls-2" d="M494.37,85.74c-.8,8.9-4.3,15.9-10.4,21s-13.8,7.3-23,6.7q-13.5-.9-21.6-9.6a28.34,28.34,0,0,1-7.6-21.7c.5-9.1,3.7-16.4,9.7-21.7s13.9-7.7,23.7-7.1c9.5.7,17,4,22.4,10S495.17,76.84,494.37,85.74ZM474.07,84a12.06,12.06,0,0,0-2.4-8.4,9.81,9.81,0,0,0-7.7-4.1,10.31,10.31,0,0,0-8.4,3.2,11.76,11.76,0,0,0-3.5,7.9,12.65,12.65,0,0,0,2.5,8.4,10.58,10.58,0,0,0,14.9,2c.4-.3.7-.6,1.1-.9A12.46,12.46,0,0,0,474.07,84Z"/><path class="cls-2" d="M543.77,82.74c-.2,1.5-1.1,2.2-2.9,2-.8-.1-1.9-.3-3.4-.5s-2.6-.4-3.4-.5c-3.4-.4-5.8-.1-7.2.8s-2.2,2.9-2.5,6c-.2,1.7-.4,4.2-.7,7.7s-.5,6-.7,7.7q-.15,1.65-.3,5.1c-.1,2.3-.2,4-.3,5s-.8,1.4-2.2,1.4c-2,0-5-.3-9-.6s-7-.8-9.2-1.2q-2-.45-1.8-2.1c.3-3.1.7-7.8,1.3-14.1s1-10.9,1.3-14.1c.8-9.2.6-16.9-.7-23a2.72,2.72,0,0,1,0-.9,1.18,1.18,0,0,1,1-1.1c2.1-.2,5.8-.1,10.2-.4,6.6-.5,10.2-.9,10.4-.8.8.1,1.1,1.4,1.1,3.8s.2,3.7.8,3.8c-.6-.1,1.2-.9,5.5-2.6a24.43,24.43,0,0,1,11.9-1.8c2.3.3,3.5.9,3.4,1.8a40.48,40.48,0,0,1-.9,4.8c-.5,2.2-.8,3.8-1,4.8s-.3,2.7-.4,4.5C544,80.44,543.87,82,543.77,82.74Z"/><path class="cls-2" d="M623.77,45.84c.1-.9-.2.4-1.1,3.8-1.1,4.2-2.3,9.8-3.5,16.4-1.4,7.6-3,16.3-4.4,26-1.7,11.4-3.4,23-3.7,34.5a4.18,4.18,0,0,1-.1,1.4c-.1.4-.4.6-1,.6-1.5,0-6.9-.7-16.1-2-2.2-.3-3.5-1-3.6-1.8a34.19,34.19,0,0,1,.4-4.5,1.28,1.28,0,0,0-.4-1,2.07,2.07,0,0,0-1,.6,23.56,23.56,0,0,1-17.3,4c-8.5-1.1-15-4.8-19.5-11.2-4.3-6.1-6-13.3-5-21.7s4.2-15.3,9.8-20.2c5.9-5.2,13.4-7.3,22.4-6.2,6.3.8,11,3.3,14,7.6.5.7.9,1.1,1.1,1.1s.6-.4.8-1.4c.4-3,.9-7.5,1.6-13.5s1.1-10.5,1.5-13.4c.2-1.1.6-1.8,1.3-1.8,2.5,0,6.6.6,11.3.9,8.4.4,12.4.3,11.4.2a1.18,1.18,0,0,1,1.2,1.3C623.77,45.54,623.77,45.74,623.77,45.84Zm-31.3,50.3a11.68,11.68,0,0,0-2.3-8.6,11.18,11.18,0,0,0-7.8-4.6,10.4,10.4,0,0,0-8.5,2.4,12.34,12.34,0,0,0-4,8,11.8,11.8,0,0,0,2,8.4,10.15,10.15,0,0,0,7.5,4.5,10.94,10.94,0,0,0,8.7-2.4A11.45,11.45,0,0,0,592.47,96.14Z"/><path class="cls-2" d="M664,88.74a2.88,2.88,0,0,1-1.2,1.4,13.31,13.31,0,0,0-3.4-1,11.71,11.71,0,0,0-6.4.5,5.39,5.39,0,0,0-3.8,4.4c-.2,1.3.5,3.2,2.3,5.7a57.37,57.37,0,0,1,4.8,7.3,16.47,16.47,0,0,1,1.5,10,19.66,19.66,0,0,1-2.3,6.1,11.33,11.33,0,0,1-4.5,4.7,40.48,40.48,0,0,1-11.5,4.5,32.28,32.28,0,0,1-12.4.8q-1.2-.15-4.5-7.2c-2.2-4.7-3.2-7.4-3-8.4,0-.3.3-.5.8-.5,2.9-.1,6.1,0,8.8-.2,3.5-.3,5.8-2,6.2-4.5.3-1.7-.5-3.9-2.2-6.4-3.1-4.5-4.7-6.9-4.9-7.2a14.39,14.39,0,0,1-1.8-9.3c.9-5.8,4.8-10.3,11.8-13.4a33,33,0,0,1,19.1-2.4c.7.1,2,2.5,3.9,7.1S664.07,88,664,88.74Z"/></svg>