<?xml version="1.0" encoding="utf-8"?>
<!-- Generator: Adobe Illustrator 25.2.3, SVG Export Plug-In . SVG Version: 6.00 Build 0)  -->
<svg version="1.1" id="Layer_1" xmlns="http://www.w3.org/2000/svg" xmlns:xlink="http://www.w3.org/1999/xlink" x="0px" y="0px"
	 viewBox="0 0 420 512" style="enable-background:new 0 0 420 512;" xml:space="preserve">
<style type="text/css">
	.st0{fill-rule:evenodd;clip-rule:evenodd;fill:url(#SVGID_1_);}
	.st1{opacity:0.5;fill-rule:evenodd;clip-rule:evenodd;fill:#C373F7;enable-background:new    ;}
	.st2{opacity:0.5;fill-rule:evenodd;clip-rule:evenodd;fill:#C051F7;enable-background:new    ;}
	.st3{fill-rule:evenodd;clip-rule:evenodd;fill:#C155F7;}
	.st4{opacity:0.5;fill-rule:evenodd;clip-rule:evenodd;fill:#C57BF7;enable-background:new    ;}
	.st5{fill-rule:evenodd;clip-rule:evenodd;fill:url(#SVGID_2_);}
	.st6{fill-rule:evenodd;clip-rule:evenodd;fill:url(#SVGID_3_);}
	.st7{opacity:0.75;fill-rule:evenodd;clip-rule:evenodd;fill:url(#SVGID_4_);enable-background:new    ;}
	.st8{opacity:0.75;fill-rule:evenodd;clip-rule:evenodd;fill:#C662F8;enable-background:new    ;}
	.st9{fill-rule:evenodd;clip-rule:evenodd;fill:#CA62F8;}
	.st10{fill-rule:evenodd;clip-rule:evenodd;fill:#D785FA;}
	.st11{fill-rule:evenodd;clip-rule:evenodd;fill:#C358F7;}
	.st12{fill-rule:evenodd;clip-rule:evenodd;fill:#C662F8;}
	.st13{fill-rule:evenodd;clip-rule:evenodd;fill:#D693FA;}
	.st14{fill-rule:evenodd;clip-rule:evenodd;fill:url(#SVGID_5_);}
	.st15{fill-rule:evenodd;clip-rule:evenodd;fill:url(#SVGID_6_);}
	.st16{fill-rule:evenodd;clip-rule:evenodd;fill:url(#SVGID_7_);}
	.st17{fill-rule:evenodd;clip-rule:evenodd;fill:url(#SVGID_8_);}
	.st18{fill-rule:evenodd;clip-rule:evenodd;fill:url(#SVGID_9_);}
	.st19{fill-rule:evenodd;clip-rule:evenodd;fill:url(#SVGID_10_);}
	.st20{fill-rule:evenodd;clip-rule:evenodd;fill:url(#SVGID_11_);}
	.st21{fill-rule:evenodd;clip-rule:evenodd;fill:url(#SVGID_12_);}
	.st22{fill-rule:evenodd;clip-rule:evenodd;fill:url(#SVGID_13_);}
	.st23{fill-rule:evenodd;clip-rule:evenodd;fill:url(#SVGID_14_);}
	.st24{fill-rule:evenodd;clip-rule:evenodd;fill:url(#SVGID_15_);}
	.st25{fill-rule:evenodd;clip-rule:evenodd;fill:#D46CF2;}
	.st26{fill-rule:evenodd;clip-rule:evenodd;fill:#FFFFFF;}
	.st27{fill-rule:evenodd;clip-rule:evenodd;fill:url(#SVGID_16_);}
	.st28{fill-rule:evenodd;clip-rule:evenodd;fill:url(#SVGID_17_);}
	.st29{fill-rule:evenodd;clip-rule:evenodd;fill:url(#SVGID_18_);}
	.st30{fill-rule:evenodd;clip-rule:evenodd;fill:url(#SVGID_19_);}
	.st31{fill-rule:evenodd;clip-rule:evenodd;fill:url(#SVGID_20_);}
	.st32{fill-rule:evenodd;clip-rule:evenodd;fill:url(#SVGID_21_);}
	.st33{fill-rule:evenodd;clip-rule:evenodd;fill:url(#SVGID_22_);}
	.st34{fill-rule:evenodd;clip-rule:evenodd;fill:url(#SVGID_23_);}
	.st35{fill-rule:evenodd;clip-rule:evenodd;fill:url(#SVGID_24_);}
	.st36{fill-rule:evenodd;clip-rule:evenodd;fill:url(#SVGID_25_);}
	.st37{fill-rule:evenodd;clip-rule:evenodd;fill:url(#SVGID_26_);}
	.st38{fill-rule:evenodd;clip-rule:evenodd;fill:url(#SVGID_27_);}
	.st39{fill-rule:evenodd;clip-rule:evenodd;fill:url(#SVGID_28_);}
	.st40{clip-path:url(#SVGID_30_);}
	.st41{clip-path:url(#SVGID_32_);}
	.st42{fill:none;}
	.st43{fill:#C66446;}
	.st44{fill:#A1D2C7;}
	.st45{fill:#B4DBD2;}
	.st46{fill:#BDC6C5;}
	.st47{fill:#70717C;}
	.st48{fill:#F47F7F;}
	.st49{fill:#C64242;}
	.st50{fill:#76DDD1;}
	.st51{fill:#46AFA0;}
	.st52{fill:#C0EA6E;}
	.st53{fill:#9DC144;}
	.st54{fill:url(#SVGID_33_);}
	.st55{fill:#38373F;}
	.st56{fill:#F6A1A6;}
	.st57{fill:#744C28;}
	.st58{fill:#FF7590;}
	.st59{fill:#FFF7EF;}
	.st60{opacity:0.25;enable-background:new    ;}
	.st61{opacity:0.2;enable-background:new    ;}
	.st62{clip-path:url(#SVGID_35_);}
	.st63{fill:url(#SVGID_36_);}
	.st64{fill:#D71921;}
	.st65{fill:#F3A7AE;}
	.st66{fill:#E0D6D1;}
	.st67{fill:#770710;}
	.st68{fill:#C46987;}
	.st69{fill:#C44B27;}
	.st70{fill:#F9F5F2;}
	.st71{fill:#FFF1E7;}
	.st72{fill:#421F0D;}
	.st73{fill:#60301B;}
	.st74{fill:#DB8F5D;}
</style>
<linearGradient id="SVGID_1_" gradientUnits="userSpaceOnUse" x1="210" y1="879.9" x2="210" y2="404" gradientTransform="matrix(1 0 0 1 0 -386)">
	<stop  offset="0" style="stop-color:#C47CF7"/>
	<stop  offset="1" style="stop-color:#BE4BF7"/>
</linearGradient>
<path class="st0" d="M412.2,45.5c0.5,6.8,0.8,196.1,0.8,210.5s-0.3,203.7-0.8,210.5c-2.8,4.8-5.9,9.3-9.3,13.6
	c-3.2,4.3-6.7,8.4-10.4,12.2c-27.1,1-125.3,1.6-182.5,1.6s-155.4-0.6-182.5-1.6c-3.8-3.8-7.3-7.9-10.4-12.2
	c-3.4-4.3-6.5-8.9-9.3-13.6C7.3,459.7,7,270.4,7,256S7.3,52.3,7.8,45.5c2.8-4.8,5.9-9.3,9.3-13.6c3.2-4.3,6.7-8.4,10.4-12.2
	C54.7,18.7,152.8,18,210,18s155.4,0.7,182.5,1.6c3.8,3.8,7.2,7.9,10.4,12.2C406.3,36.2,409.4,40.7,412.2,45.5z"/>
<path class="st1" d="M210,256L18.8,51c-0.5,9.3-0.5,195.8-0.5,205c0,9.2,0,195.7,0.5,205L210,256z"/>
<path class="st2" d="M31.5,34.3L210,256L388.5,34.3c-17.3-0.6-34.6-0.8-52-1C310.4,33,236.1,32.8,210,32.8S109.6,33,83.5,33.3
	C66.2,33.5,48.8,33.8,31.5,34.3L31.5,34.3z"/>
<path class="st3" d="M210,256l191.2,205c0.5-9.3,0.5-195.8,0.5-205s0-195.7-0.5-205L210,256z"/>
<path class="st4" d="M388.5,477.7L210,256L31.5,477.7c17.3,0.6,34.7,0.8,52,1c26.1,0.3,100.4,0.5,126.5,0.5s100.4-0.1,126.5-0.5
	C353.8,478.5,371.2,478.3,388.5,477.7L388.5,477.7z"/>
<radialGradient id="SVGID_2_" cx="62.22" cy="29.1965" r="268.53" gradientTransform="matrix(1 0 0 1.31 0 532.58)" gradientUnits="userSpaceOnUse">
	<stop  offset="0" style="stop-color:#DB8BDE"/>
	<stop  offset="1" style="stop-color:#F7F7F7"/>
</radialGradient>
<path class="st5" d="M31.5,477.7L210,256L18.8,461c2,3.1,4.3,6.2,6.3,8.8S29.3,475.2,31.5,477.7L31.5,477.7z"/>
<radialGradient id="SVGID_3_" cx="347.35" cy="-360.1599" r="287.44" gradientTransform="matrix(1 0 0 1 0 -386)" gradientUnits="userSpaceOnUse">
	<stop  offset="0" style="stop-color:#DB8BDE"/>
	<stop  offset="1" style="stop-color:#F7F7F7"/>
</radialGradient>
<path class="st6" d="M210,256L401.2,51c-2-3.1-4.3-6.2-6.3-8.8s-4.2-5.5-6.5-8L210,256z"/>
<radialGradient id="SVGID_4_" cx="368.21" cy="220.9266" r="543.52" gradientTransform="matrix(1 0 0 1.31 0 532.58)" gradientUnits="userSpaceOnUse">
	<stop  offset="0" style="stop-color:#D8C1F7"/>
	<stop  offset="1" style="stop-color:#000000"/>
</radialGradient>
<path class="st7" d="M388.5,477.7L210,256l191.2,205c-2,3.1-4.3,6.2-6.3,8.8S390.7,475.2,388.5,477.7L388.5,477.7z"/>
<path class="st8" d="M210,256L18.8,51c2-3.1,4.3-6.2,6.3-8.8s4.2-5.5,6.5-8L210,256z"/>
<path class="st9" d="M7.1,181L122.3,18.3c-10.2,0.1-11.2,0.1-21,0.2L7.2,141.6C7.2,154.8,7.2,168.2,7.1,181L7.1,181z"/>
<path class="st10" d="M168.8,18.1L7,241.7c0,7.3,0,12.4,0,14.3c0,5.8,0,39.7,0.1,78.8l233-316.7c-11,0-21.2,0-30.1,0
	C198.1,18.1,183.9,18.1,168.8,18.1L168.8,18.1z"/>
<path class="st11" d="M351.5,18.9L17.1,480.2c3.2,4.3,6.7,8.4,10.4,12.2c9.3,0.3,28,0.6,50.9,0.9L407.8,38.6
	c-1.4-2.1-3.1-4.4-4.9-6.7c-3.2-4.3-6.7-8.4-10.4-12.2C384.6,19.4,369.8,19.1,351.5,18.9z"/>
<path class="st12" d="M412.7,110.1L128.5,493.7l29.9,0.1l254.4-344.7C412.8,135.8,412.7,122.5,412.7,110.1L412.7,110.1z"/>
<path class="st13" d="M412.8,374l-91.3,119.4c25.7-0.2,48.5-0.5,62.6-0.8l28.4-37.1C412.5,439.2,412.7,407.4,412.8,374L412.8,374z"
	/>
<radialGradient id="SVGID_5_" cx="-0.64" cy="-404.5234" r="65.54" gradientTransform="matrix(1 0 0 1.31 0 532.58)" gradientUnits="userSpaceOnUse">
	<stop  offset="0" style="stop-color:#F4DDF7"/>
	<stop  offset="1" style="stop-color:#D09BF7"/>
</radialGradient>
<path class="st14" d="M18.8,51c2-3.1,4.3-6.2,6.3-8.8s4.2-5.5,6.5-8l-4-14.6c-3.8,3.8-7.3,7.9-10.4,12.2c-3.4,4.3-6.5,8.9-9.3,13.7
	L18.8,51L18.8,51z"/>
<radialGradient id="SVGID_6_" cx="210" cy="-387.7534" r="129.1526" gradientTransform="matrix(1 0 0 1.31 0 532.58)" gradientUnits="userSpaceOnUse">
	<stop  offset="0" style="stop-color:#F7C3F3"/>
	<stop  offset="1" style="stop-color:#CA8DF7"/>
</radialGradient>
<path class="st15" d="M31.5,34.3c17.3-0.6,34.7-0.8,52-1c26.1-0.3,100.4-0.5,126.5-0.5s100.4,0.1,126.5,0.5c17.3,0.2,34.6,0.5,52,1
	l4-14.6C365.4,18.7,267.2,18,210,18S54.7,18.7,27.5,19.7L31.5,34.3L31.5,34.3z"/>
<radialGradient id="SVGID_7_" cx="397.02" cy="-399.5835" r="31.29" gradientTransform="matrix(1 0 0 1.31 0 532.58)" gradientUnits="userSpaceOnUse">
	<stop  offset="0" style="stop-color:#D0B0F7"/>
	<stop  offset="1" style="stop-color:#BD3CF4"/>
</radialGradient>
<path class="st16" d="M388.5,34.3c2.3,2.5,4.5,5.5,6.5,8s4.4,5.7,6.3,8.7l11-5.5c-2.8-4.8-5.9-9.3-9.3-13.6
	c-3.2-4.3-6.7-8.4-10.4-12.2L388.5,34.3L388.5,34.3z"/>
<radialGradient id="SVGID_8_" cx="672.86" cy="-200.7834" r="421.06" gradientTransform="matrix(1 0 0 1.31 0 532.58)" gradientUnits="userSpaceOnUse">
	<stop  offset="0" style="stop-color:#CE88F7"/>
	<stop  offset="1" style="stop-color:#B31ADE"/>
</radialGradient>
<path class="st17" d="M401.2,51c0.5,9.3,0.5,195.8,0.5,205c0,9.2,0,195.7-0.5,205l11,5.6c0.5-6.8,0.8-196.1,0.8-210.5
	s-0.3-203.7-0.8-210.5L401.2,51L401.2,51z"/>
<radialGradient id="SVGID_9_" cx="347.03" cy="-99.9036" r="89.19" gradientTransform="matrix(1 0 0 1.31 0 532.58)" gradientUnits="userSpaceOnUse">
	<stop  offset="0" style="stop-color:#DDB0F7"/>
	<stop  offset="1" style="stop-color:#B31ADE"/>
</radialGradient>
<path class="st18" d="M401.2,461c-2,3.1-4.3,6.2-6.3,8.8s-4.2,5.5-6.5,8l4,14.6c3.8-3.8,7.2-7.9,10.4-12.2c3.4-4.3,6.5-8.9,9.3-13.6
	L401.2,461L401.2,461z"/>
<radialGradient id="SVGID_10_" cx="191.85" cy="106.1666" r="293.77" gradientTransform="matrix(1 0 0 1.31 0 532.58)" gradientUnits="userSpaceOnUse">
	<stop  offset="0" style="stop-color:#C36AF7"/>
	<stop  offset="1" style="stop-color:#B31ADE"/>
</radialGradient>
<path class="st19" d="M388.5,477.7c-17.3,0.6-34.6,0.8-52,1c-26.1,0.3-100.4,0.5-126.5,0.5s-100.4-0.1-126.5-0.5
	c-17.3-0.2-34.7-0.5-52-1l-4,14.6c27.2,1,125.3,1.6,182.5,1.6s155.4-0.6,182.5-1.6L388.5,477.7L388.5,477.7z"/>
<radialGradient id="SVGID_11_" cx="-1.83" cy="-30.0336" r="38.61" gradientTransform="matrix(1 0 0 1.31 0 532.58)" gradientUnits="userSpaceOnUse">
	<stop  offset="0" style="stop-color:#F7D4F4"/>
	<stop  offset="1" style="stop-color:#D09BF7"/>
</radialGradient>
<path class="st20" d="M31.5,477.7c-2.3-2.5-4.5-5.5-6.5-8s-4.4-5.7-6.3-8.7l-11,5.6c2.8,4.8,5.9,9.3,9.3,13.6
	c3.2,4.3,6.7,8.4,10.4,12.2L31.5,477.7L31.5,477.7z"/>
<radialGradient id="SVGID_12_" cx="19.675" cy="-289.38" r="11.94" gradientTransform="matrix(1 0 0 1 0 -386)" gradientUnits="userSpaceOnUse">
	<stop  offset="0" style="stop-color:#DB8BDE"/>
	<stop  offset="1" style="stop-color:#F7F7F7"/>
</radialGradient>
<path class="st21" d="M27.5,19.7c3.5,17.4-10.2,30-19.7,25.8l11,5.5c2-3.1,4.3-6.2,6.3-8.8s4.2-5.5,6.5-8L27.5,19.7L27.5,19.7z"/>
<radialGradient id="SVGID_13_" cx="400.325" cy="-289.38" r="11.94" gradientTransform="matrix(1 0 0 1 0 -386)" gradientUnits="userSpaceOnUse">
	<stop  offset="0" style="stop-color:#DB8BDE"/>
	<stop  offset="1" style="stop-color:#F7F7F7"/>
</radialGradient>
<path class="st22" d="M392.5,19.7c-3.5,17.4,10.2,30,19.7,25.8l-11,5.5c-2-3.1-4.3-6.2-6.3-8.8s-4.2-5.5-6.5-8L392.5,19.7
	L392.5,19.7z"/>
<radialGradient id="SVGID_14_" cx="398.99" cy="-54.8135" r="21.38" gradientTransform="matrix(1 0 0 1.31 0 532.58)" gradientUnits="userSpaceOnUse">
	<stop  offset="0" style="stop-color:#DB8BDE"/>
	<stop  offset="1" style="stop-color:#F7F7F7"/>
</radialGradient>
<path class="st23" d="M392.5,492.4c-3.5-17.4,10.2-30,19.7-25.8l-11-5.6c-2,3.1-4.3,6.2-6.3,8.8s-4.2,5.5-6.5,8L392.5,492.4
	L392.5,492.4z"/>
<radialGradient id="SVGID_15_" cx="210" cy="-392.5835" r="550.9191" gradientTransform="matrix(1 0 0 1.31 0 532.58)" gradientUnits="userSpaceOnUse">
	<stop  offset="0" style="stop-color:#D08EF7"/>
	<stop  offset="1" style="stop-color:#000000"/>
</radialGradient>
<path class="st24" d="M27.5,19.7c0.6,1.1,108.7,2,182.5,2s181.9-0.9,182.5-2l0,0C365.4,18.7,267.2,18,210,18S54.6,18.6,27.5,19.7
	L27.5,19.7L27.5,19.7z"/>
<path class="st25" d="M210,489c-72,0-178.5-5-178.5-11.2l-4,14.6c27.1,0.9,125.3,1.6,182.5,1.6s155.4-0.6,182.5-1.6l-4-14.6
	C388.5,483.9,282,489,210,489z"/>
<path class="st26" d="M401.2,461c-2,3.1-4.3,6.2-6.3,8.8s-4.2,5.5-6.5,8c-17.3,0.6-34.6,0.8-52,1c-10.4,0.1-20.8,0.2-31.2,0.3
	c27.4,0.1,54.8,0.1,82.2-0.2l0.8,0.7c1.3,3.9,2.6,7.8,3.9,11.7c-0.9-4-1.9-8-2.8-12.1l0.2-1.2c3.7-5.3,7.5-10.4,11.5-15.4l0.9-0.3
	l7.3,2.8l-6.8-4.1l-0.5-1c0.5-18,0.5-389.5,0-407.6l0.5-1.1l6.5-4.1l-7,2.8l-0.9-0.3c-3.3-4.5-7-8.7-10.6-12.9
	c1.5,1.9,3.1,3.8,4.4,5.6c2,2.6,4.4,5.7,6.3,8.8c0.5,9.3,0.5,195.8,0.5,205S401.7,451.7,401.2,461L401.2,461z"/>
<path class="st26" d="M31.5,34.3c17.3-0.6,34.7-0.8,52-1c26.1-0.3,100.4-0.5,126.5-0.5s100.4,0.1,126.5,0.5c1.6,0,3.2,0,4.8,0.1
	c-70.1-1.8-237.9-2.4-308.7-0.7L31.8,32l-3.9-11.1c0.8,4.1,1.4,7.9,2.2,12l-0.2,1.3c-3.4,5.2-7.1,10.2-11.1,15l-1,0.3
	c-3-1.2-5.8-2.1-8.8-3.3c2.8,1.7,5.4,3.4,8.2,5l0.5,1c-0.2,18.2-0.2,389.7,0,407.3l-0.5,1.1c-1.8,1.2-3.3,2.5-5,3.7
	c1.9-0.6,3.8-1.1,5.7-1.8l1,0.3c3.8,4.9,7.9,10.1,11.5,15l0.3,1.2c-0.4,2-0.6,3.5-1,5.6c0.7-1.9,1.5-3.4,2.2-5.3l0.8-0.6
	c30.2,0.8,20.6,0.9,50.7,0.4c-13.3-0.1,13.4-0.2,0.1-0.4c-17.3-0.2-34.7-0.5-52-1c-2.3-2.5-4.5-5.5-6.5-8s-4.4-5.7-6.3-8.7
	c-0.5-9.3-0.5-195.8-0.5-205s0-195.7,0.5-205c2-3.1,4.3-6.2,6.3-8.8S29.3,36.8,31.5,34.3L31.5,34.3z"/>
<radialGradient id="SVGID_16_" cx="210" cy="-472.175" r="211.5057" gradientTransform="matrix(1 0 0 1.47 0 952.1899)" gradientUnits="userSpaceOnUse">
	<stop  offset="0" style="stop-color:#4F1C4F"/>
	<stop  offset="0.81" style="stop-color:#461647"/>
	<stop  offset="1" style="stop-color:#36183B"/>
</radialGradient>
<polygon class="st27" points="38.6,72.1 381.4,72.1 381.4,449.3 38.6,449.3 "/>
<linearGradient id="SVGID_17_" gradientUnits="userSpaceOnUse" x1="33.1" y1="646.9" x2="33.1" y2="452.3" gradientTransform="matrix(1 0 0 1 0 -386)">
	<stop  offset="0" style="stop-color:#FFD97A"/>
	<stop  offset="1" style="stop-color:#EB9E21"/>
</linearGradient>
<path class="st28" d="M38.6,260.9V72l-3.9-5.7v178.9c0,8.1-3,13.2-7.1,15.7H38.6z"/>
<linearGradient id="SVGID_18_" gradientUnits="userSpaceOnUse" x1="33.1" y1="840.9" x2="33.1" y2="646.9" gradientTransform="matrix(1 0 0 1 0 -386)">
	<stop  offset="0" style="stop-color:#FFD97A"/>
	<stop  offset="1" style="stop-color:#EB9E21"/>
</linearGradient>
<path class="st29" d="M38.6,260.9v188.3l-3.9,5.7V276.6c0-8.1-3-13.2-7.1-15.7H38.6z"/>
<linearGradient id="SVGID_19_" gradientUnits="userSpaceOnUse" x1="34.7" y1="843.4" x2="210" y2="843.4" gradientTransform="matrix(1 0 0 1 0 -386)">
	<stop  offset="0" style="stop-color:#A36808"/>
	<stop  offset="1" style="stop-color:#BF8800"/>
</linearGradient>
<path class="st30" d="M210,449.3H38.6l-3.9,5.7h164.6c5.5,0,9,4.4,10.7,10.5V449.3z"/>
<linearGradient id="SVGID_20_" gradientUnits="userSpaceOnUse" x1="210" y1="843.4" x2="385.3" y2="843.4" gradientTransform="matrix(1 0 0 1 0 -386)">
	<stop  offset="0" style="stop-color:#A87219"/>
	<stop  offset="1" style="stop-color:#6B4200"/>
</linearGradient>
<path class="st31" d="M210,449.3h171.4l3.9,5.7H220.7c-5.5,0-9,4.4-10.7,10.5V449.3z"/>
<linearGradient id="SVGID_21_" gradientUnits="userSpaceOnUse" x1="386.9" y1="646.9" x2="386.9" y2="452.3" gradientTransform="matrix(1 0 0 1 0 -386)">
	<stop  offset="0" style="stop-color:#E8B048"/>
	<stop  offset="1" style="stop-color:#8F6B09"/>
</linearGradient>
<path class="st32" d="M381.4,260.9V72l3.9-5.7v178.9c0,8.1,3,13.2,7.1,15.7H381.4z"/>
<linearGradient id="SVGID_22_" gradientUnits="userSpaceOnUse" x1="386.9" y1="840.9" x2="386.9" y2="646.9" gradientTransform="matrix(1 0 0 1 0 -386)">
	<stop  offset="0" style="stop-color:#E8B048"/>
	<stop  offset="1" style="stop-color:#8F6B09"/>
</linearGradient>
<path class="st33" d="M381.4,260.9v188.3l3.9,5.7V276.6c0-8.1,3-13.2,7.1-15.7H381.4z"/>
<linearGradient id="SVGID_23_" gradientUnits="userSpaceOnUse" x1="34.7" y1="449.9" x2="210" y2="449.9" gradientTransform="matrix(1 0 0 1 0 -386)">
	<stop  offset="0" style="stop-color:#F5D36C"/>
	<stop  offset="1" style="stop-color:#FFF5B0"/>
</linearGradient>
<path class="st34" d="M210,72H38.6l-3.9-5.7h164.6c5.5,0,9-4.3,10.7-10.5V72z"/>
<linearGradient id="SVGID_24_" gradientUnits="userSpaceOnUse" x1="210" y1="449.9" x2="385.3" y2="449.9" gradientTransform="matrix(1 0 0 1 0 -386)">
	<stop  offset="0" style="stop-color:#FFDD6E"/>
	<stop  offset="1" style="stop-color:#D69705"/>
</linearGradient>
<path class="st35" d="M210,72h171.4l3.9-5.7H220.7c-5.5,0-9-4.3-10.7-10.5V72z"/>
<radialGradient id="SVGID_25_" cx="210" cy="-598.8349" r="121.2313" gradientTransform="matrix(1 0 0 1.47 0 952.1899)" gradientUnits="userSpaceOnUse">
	<stop  offset="0" style="stop-color:#BF8800"/>
	<stop  offset="1" style="stop-color:#A36808"/>
</radialGradient>
<polygon class="st36" points="42.5,77.8 377.5,77.8 381.4,72 38.6,72 "/>
<linearGradient id="SVGID_26_" gradientUnits="userSpaceOnUse" x1="40.55" y1="835.3" x2="40.55" y2="458" gradientTransform="matrix(1 0 0 1 0 -386)">
	<stop  offset="0" style="stop-color:#E8B048"/>
	<stop  offset="1" style="stop-color:#8F6B09"/>
</linearGradient>
<polygon class="st37" points="42.5,443.6 42.5,77.8 38.6,72 38.6,155.9 38.6,449.3 "/>
<linearGradient id="SVGID_27_" gradientUnits="userSpaceOnUse" x1="379.45" y1="835.3" x2="379.45" y2="458.1" gradientTransform="matrix(1 0 0 1 0 -386)">
	<stop  offset="0" style="stop-color:#FFD97A"/>
	<stop  offset="1" style="stop-color:#EB9E21"/>
</linearGradient>
<polygon class="st38" points="377.5,77.8 377.5,443.6 381.4,449.3 381.4,155.9 381.4,72.1 "/>
<radialGradient id="SVGID_28_" cx="210" cy="-345.505" r="121.222" gradientTransform="matrix(1 0 0 1.47 0 952.1899)" gradientUnits="userSpaceOnUse">
	<stop  offset="0" style="stop-color:#FFDD6E"/>
	<stop  offset="1" style="stop-color:#D69705"/>
</radialGradient>
<polygon class="st39" points="377.5,443.6 42.5,443.6 38.6,449.3 381.4,449.3 "/>
<g>
	<defs>
		<rect id="SVGID_29_" x="42.4" y="77.7" width="335" height="366.3"/>
	</defs>
	<clipPath id="SVGID_30_">
		<use xlink:href="#SVGID_29_"  style="overflow:visible;"/>
	</clipPath>
	<g class="st40">
		<defs>
			<rect id="SVGID_31_" x="-260" y="-47.1" width="940" height="528.8"/>
		</defs>
		<clipPath id="SVGID_32_">
			<use xlink:href="#SVGID_31_"  style="overflow:visible;"/>
		</clipPath>
		<g class="st41">
			<line class="st42" x1="67.7" y1="84.8" x2="71.3" y2="82.2"/>
			<rect x="-260" y="-47.1" class="st42" width="940" height="528.8"/>
			<rect x="-260" y="-47.1" class="st42" width="940" height="528.8"/>
			<rect x="-260" y="-47.1" class="st42" width="940" height="528.8"/>
			<path class="st43" d="M200.5,291c-0.1,0.3-0.1,0.5-0.1,0.8c0.2-0.2,0.4-0.5,0.3-0.6C200.6,291.1,200.6,291,200.5,291"/>
			<rect x="-260" y="-47.1" class="st42" width="940" height="528.8"/>
			<rect x="149.2" y="-69.7" class="st44" width="25.3" height="564.4"/>
			<rect x="99.5" y="-69.7" class="st44" width="25.3" height="564.4"/>
			<rect x="198.9" y="-69.7" class="st44" width="25.3" height="564.4"/>
			<rect x="49.8" y="-69.7" class="st44" width="25.3" height="564.4"/>
			<rect x="248.6" y="-69.7" class="st44" width="25.3" height="564.4"/>
			<rect x="0.1" y="-69.7" class="st44" width="25.3" height="564.4"/>
			<rect x="298.3" y="-69.7" class="st44" width="25.3" height="564.4"/>
			<rect x="397.7" y="-69.7" class="st44" width="25.3" height="564.4"/>
			<rect x="348" y="-69.7" class="st44" width="25.3" height="564.4"/>
			<rect x="-24.3" y="-69.7" class="st45" width="24.4" height="564.4"/>
			<rect x="25.4" y="-69.7" class="st45" width="24.4" height="564.4"/>
			<rect x="75.1" y="-69.7" class="st45" width="24.4" height="564.4"/>
			<rect x="124.8" y="-69.7" class="st45" width="24.4" height="564.4"/>
			<rect x="174.5" y="-69.7" class="st45" width="24.4" height="564.4"/>
			<rect x="224.2" y="-69.7" class="st45" width="24.4" height="564.4"/>
			<rect x="273.9" y="-69.7" class="st45" width="24.4" height="564.4"/>
			<rect x="323.6" y="-69.7" class="st45" width="24.4" height="564.4"/>
			<rect x="373.3" y="-69.7" class="st45" width="24.4" height="564.4"/>
			<polygon class="st46" points="-85.9,300 506,293.8 560.9,347.3 -138.4,347 			"/>
			<polygon class="st47" points="498.6,302.4 537.5,341 393.8,341.1 363.7,302.1 			"/>
			<path class="st48" d="M368.1,307.8c0,0,41.4,0.8,78,0.2s48.8-0.2,55.5,5s29.3,28.1,29.3,28.1l-137,0.1L368.1,307.8z"/>
			<path class="st49" d="M389.2,308.1c0,0-4.6,18.9,28.1,26s109.6,3.1,109.6,3.1l3.9,3.9l-137,0.1l-25.7-33.4
				C368.1,307.8,383.5,308,389.2,308.1z"/>
			<polygon class="st47" points="-78.3,302.4 -117.3,341 26.5,341.1 56.5,302.1 			"/>
			<path class="st50" d="M52.2,307.8c0,0-41.3,0.8-78,0.2s-48.8-0.2-55.5,5s-29.3,28.1-29.3,28.1l137.1,0.1L52.2,307.8z"/>
			<path class="st51" d="M31,308.1c0,0,4.6,18.9-28.1,26s-109.6,3.1-109.6,3.1l-3.9,3.9l137.1,0.1l25.7-33.4
				C52.2,307.8,36.8,308,31,308.1z"/>
			<polygon class="st47" points="349.9,302.4 379,341 235.2,341.1 218.2,302.1 			"/>
			<path class="st52" d="M220.9,308.4c0,0,29.9,0.2,66.5-0.5s48.8-0.2,55.5,5s29.3,28,29.3,28l-137,0.1L220.9,308.4z"/>
			<path class="st53" d="M251.7,308.4c0,0-25.6,18.5,7,25.7s109.6,3.1,109.6,3.1l3.9,3.9l-137,0.1L221,308.4
				C221,308.4,232.6,307.8,251.7,308.4z"/>
			<polygon class="st47" points="75.1,302.1 46.6,341.1 220.8,341 201.8,302.4 			"/>
			
				<linearGradient id="SVGID_33_" gradientUnits="userSpaceOnUse" x1="56.4" y1="709.9304" x2="214.6" y2="709.9304" gradientTransform="matrix(1 0 0 1 0 -386)">
				<stop  offset="1.000000e-02" style="stop-color:#FFEBC2"/>
				<stop  offset="1" style="stop-color:#FFFFFF"/>
			</linearGradient>
			<path class="st54" d="M56.4,341.1c0,0,16.9-32.3,33-33.5s71.8-0.4,88.8-0.8s17.3,2.3,22,6.4s14.4,27.8,14.4,27.8L56.4,341.1z"/>
			<polygon class="st55" points="568.1,353.2 -145.1,353.4 -137,345.7 560.9,346.4 			"/>
			<polygon class="st46" points="-144.8,353.2 568,353.2 616.5,405.6 -205.8,408.5 			"/>
			<polygon class="st56" points="621.2,576.8 -205.1,576.8 -205.8,408.5 616.5,405.6 			"/>
			<polygon class="st55" points="616.6,411 -205.8,412 -205.8,408.5 616.5,405.6 			"/>
			<path class="st57" d="M-205.8,412l822.4-1l1,36.8c0,0-49,30.5-149.8-16.8c-14.3-6.7-31.6-6.8-60.9,16.6
				c-33.1,26.5-125.9,29-169.3,10c0,0-22-7.6-65.6-28.2c-15.2-7.2-18.6-8.4-64.2,20.5c-16.3,10.3-34.7,21.7-76.6-10.5
				C17.8,429-12.5,420-43.5,443.2c-27.5,20.6-52.3,29.9-137,9.7c-6.5-1.5-21.4-5.3-25.2-8.8L-205.8,412z"/>
			<path class="st58" d="M50.3-88.7h-71.6v120l0,0c0,0.2,0,0.4,0,0.5c0,11.9,16,21.6,35.8,21.6s35.8-9.7,35.8-21.6
				c0-0.2,0-0.4,0-0.5l0,0V-88.7z"/>
			<path class="st59" d="M121.9-88.7H50.3v120l0,0c0,0.2,0,0.4,0,0.5c0,11.9,16,21.6,35.8,21.6s35.8-9.7,35.8-21.6
				c0-0.2,0-0.4,0-0.5l0,0C121.9,31.3,121.9-88.7,121.9-88.7z"/>
			<path class="st58" d="M193.6-88.7H122v120l0,0c0,0.2,0,0.4,0,0.5c0,11.9,16,21.6,35.8,21.6s35.8-9.7,35.8-21.6c0-0.2,0-0.4,0-0.5
				l0,0V-88.7z"/>
			<path class="st59" d="M265.2-88.7h-71.6v120l0,0c0,0.2,0,0.4,0,0.5c0,11.9,16,21.6,35.8,21.6s35.8-9.7,35.8-21.6
				c0-0.2,0-0.4,0-0.5l0,0V-88.7z"/>
			<path class="st58" d="M336.8-88.7h-71.6v120l0,0c0,0.2,0,0.4,0,0.5c0,11.9,16,21.6,35.8,21.6s35.8-9.7,35.8-21.6
				c0-0.2,0-0.4,0-0.5l0,0L336.8-88.7z"/>
			<path class="st59" d="M408.4-88.7h-71.6v120l0,0c0,0.2,0,0.4,0,0.5c0,11.9,16,21.6,35.8,21.6s35.8-9.7,35.8-21.6
				c0-0.2,0-0.4,0-0.5l0,0L408.4-88.7L408.4-88.7z"/>
			<path class="st58" d="M480-88.7h-71.6v120l0,0c0,0.2,0,0.4,0,0.5c0,11.9,16,21.6,35.8,21.6S480,43.8,480,31.8c0-0.2,0-0.4,0-0.5
				l0,0V-88.7z"/>
			<rect x="-264.4" y="-44" class="st60" width="948.8" height="522.4"/>
			<ellipse class="st61" cx="210" cy="387.2" rx="72.2" ry="14.9"/>
			<g>
				<g>
					<defs>
						<path id="SVGID_34_" d="M140.5,334.4c4.1,18.6,9.4,41.3,11.2,44.8c5.6,10.3,31.4,18.4,62.7,18.4s60-7.7,63.7-18.4
							c1.5-4.5,5.2-25.6,8-42.8c2.1-12.8-2.8-25.8-2.8-25.8l-142.5-1.7C138.8,317.3,138.7,326,140.5,334.4"/>
					</defs>
					<clipPath id="SVGID_35_">
						<use xlink:href="#SVGID_34_"  style="overflow:visible;"/>
					</clipPath>
					<g class="st62">
						
							<linearGradient id="SVGID_36_" gradientUnits="userSpaceOnUse" x1="-1639.2501" y1="274.2582" x2="-1638.65" y2="274.2582" gradientTransform="matrix(274.44 34.75 34.75 -274.44 440448.3438 132570.7188)">
							<stop  offset="0" style="stop-color:#EBF5FC"/>
							<stop  offset="0.26" style="stop-color:#E4F1FA"/>
							<stop  offset="0.64" style="stop-color:#D1E5F5"/>
							<stop  offset="1" style="stop-color:#B8D6EF"/>
						</linearGradient>
						<polygon class="st63" points="139.8,292.8 301.2,310.3 285.9,413.7 124.5,396.2 						"/>
					</g>
				</g>
			</g>
			<path class="st64" d="M214.6,397.6c-16.7,1.3-40.3-3.3-51.5-8.9c-5.6-2.9-5.7-3.1-8.1-5.1c-2.2-2-3.7-4.5-4.4-7.4l0,0
				c0.5,0.3,69.1,24.5,128.6-1.1l-1.2,5.2l-2.2,3.1C259.6,398.4,232.4,397.6,214.6,397.6"/>
			<polygon class="st65" points="146,344.5 153.8,359.9 161.5,348.3 			"/>
			<polygon class="st65" points="168.9,349.7 177.3,362.7 186,351.8 			"/>
			<polygon class="st65" points="194.8,352.9 203.6,366.9 211.3,353.6 			"/>
			<polygon class="st65" points="219,352.9 227.1,365.5 233.8,352.9 			"/>
			<polygon class="st65" points="241.8,352.2 249.2,363.8 256.2,350.1 			"/>
			<polygon class="st65" points="263.2,349 270.9,357.4 277.6,345.5 			"/>
			<path class="st64" d="M134.9,315.4c0,0,2.5,10.6,5.6,23.1c19.9,4.9,50.4,8.3,73.5,8.5c23.7,0.2,50.6-2.3,72.2-7.6
				c2.1-11.3,3.7-20.7,3.7-20.7L134.9,315.4z"/>
			<path class="st66" d="M295.9,302.2c-3.9-3.9-20.2-0.1-35.6,5.3c-15.8-2.1-31.8-3.1-47.7-3c-16.3-0.1-32.5,0.9-48.6,3.1
				c-15.3-5.4-31.4-9-35.3-5.2c0,0-2.5,1.8,3.1,18.3c0.8,1.1,2.3,2.6,6.3,4.3c5.4,2.6,14.6,4.9,26.2,6.5c2.5,0.4,4.8,0.7,6.9,0.9
				c13.7,1.5,27.6,2.2,41.4,2.2c40.5,0,73.9-5.7,79.2-13c0.4-0.3,0.7-0.7,1-1.1C298.4,304,295.9,302.2,295.9,302.2"/>
			<path class="st64" d="M296.7,304.1c0,8.3-37.7,15.1-84.2,15.1s-84.2-6.7-84.2-15.1S166,289,212.5,289S296.7,295.8,296.7,304.1"/>
			<path class="st67" d="M288.1,304.1c0,6.2-33.7,11.3-75.4,11.3s-75.3-5-75.3-11.3s33.7-11.3,75.3-11.3S288.1,297.9,288.1,304.1"/>
			<path class="st68" d="M134.4,323.4l0.1,0.1l0,0C134.5,323.5,134.5,323.5,134.4,323.4"/>
			<path class="st69" d="M161.4,331.2c0.9,0.1,1.9,0.3,2.9,0.4c2.5,0.4,4.8,0.7,6.9,0.9c13.7,1.5,27.6,2.2,41.4,2.2
				c7.8,0,15.3-0.2,22.4-0.6c-7.1,0.2-13.8,0.3-20,0.3C190.6,334.4,173.4,333,161.4,331.2 M290,323.3c-6.7,3.9-18.5,6.7-30,8.4
				C274.7,329.7,285.5,326.7,290,323.3"/>
			<path class="st68" d="M285.6,345.5v0.2C285.5,345.8,285.5,345.7,285.6,345.5 M134.4,323.4L134.4,323.4"/>
			<path class="st43" d="M186,294.7c-0.1,0.2-0.1,0.4-0.1,0.6c0.2-0.2,0.3-0.4,0.3-0.5C186.1,294.8,186.1,294.8,186,294.7"/>
			<path class="st70" d="M209.6,223.1c-92.6,0-81.8,71.9-83.5,76.3s-4.8,7.8-7.7,12s-0.5,9.1,2.7,12.7s7.1,6,10.8,5.9
				s12.8-3.6,17.6,0s9,9.5,17.9,9.9s11.6,1.4,14.9,0s6.2,2.8,14.2,0s9.4,1.9,25.8,0s17.2-10.6,26-13.1s10.3,3.3,21.7,0.8
				s17.6-5.5,21.3-6.4s13.1-3.9,10.4-16.5s-4.8-6.2-9.9-13.5S284.8,223.1,209.6,223.1z"/>
			<path class="st66" d="M141.6,300.4c0.3,0.1,21.2,2,22.6,2.3c5.3-1.8,9-3.7,15.9-8.1c5.9-3.7,14.6-9.7,19-12.5
				c15.6-9.8,15.4-9.8,31.1-19.3c12.8-7.7,26.8-17.3,16-25.7c-16.6-9.3-43.5-11.4-69.4-4.2c-30.9,8.6-39.6,34.5-40.6,48.4
				S139.5,299.5,141.6,300.4z"/>
			<path class="st66" d="M246.6,259.6c-22.8,15.6-46.6,29.9-70.3,44.3c12.7,0.5,25.4-0.2,38-2.1c7-7.4,13.2-15.3,19.6-23.2
				c5.4-6.7,11.2-13.2,17-19.6c2-2.2,4-4.4,6.1-6.6C253.6,254.8,250.1,257.3,246.6,259.6z"/>
			<path class="st66" d="M266.4,253.8c-3.1,3.1-6.1,6.4-9,9.6c-5.9,6.4-11.6,12.9-17,19.6c-4.4,5.4-8.7,10.9-13.3,16.2
				c2-0.5,4.1-1,6.1-1.6c31.8-9.3,38.7-34.4,36.3-47.1C268.5,251.6,267.5,252.7,266.4,253.8z"/>
			<path class="st66" d="M285.4,271.4c0.6,5.6-3.8,28.4-15.9,28.5s-19.6,0.5-27.8,5s-23.1,2.9-23.1,3.4s13.7,8.5,25.5,2
				s11.6-8.7,21.4-8.9c9.8-0.2,11.8,2.9,19-0.6s9.2-7.2,14.6-3.8c0,0-0.6-2.1-4.3-3.5s-3.3-1.7-4.9-9.3
				C288.9,279.9,287.4,275.5,285.4,271.4z"/>
			<path class="st66" d="M117.9,319.3c0.9,8.9,10.2,12.5,18.2,11.4s9.2-2.8,13.9,1.5s8.1,6.2,12.4,7.4s6,0.3,9.1,0.5s5.8,1.7,8.6,1
				s2.8-1.9,5.3-1.3s4,2,8.5,1.1s6.5-2.4,13-1.2s14.8,3.5,24.6-0.1s9.2-11,16.9-12.8c-4.1,0-8.1,1.2-11.4,3.6
				c-5.6,3.9-19.8,7.1-24.8,3s-12.3-2.4-15.6-0.6s-6.1,3.2-11.3,1.8s-10.1,3.7-20.7,1.3s-10.6-9.4-16.4-11.4s-9.9,2.3-19.9,1
				S117.9,319.3,117.9,319.3z"/>
			<path class="st66" d="M126.9,285c-0.4,5.3,7,16,13.6,18.7s20.6,1.7,28.2,6.3s13.8,5.3,18.9,3.7s7.1-1.2,7.5-0.8s-1.8-0.2-5.6,1.6
				s-5.7,4.5-13.6,2.4s-13.4-7-20-6.6s-14.8,3.7-20.2-1.6s-8.4-4.5-10.2-3.4c-2.1,1.4-4.1,3-6,4.6c0,0,4.4-7.3,5.6-9.9
				s1.3-9.3,1.6-12.2L126.9,285z"/>
			<path class="st66" d="M240.7,332.6c3.8-4.9,10.1-7.1,16.1-5.6c4.3,0.9,6.9,2.6,13.3,2.2s9.9-4.5,14.5-5.3s12.3-1.5,16.8-8.9
				s-2.7-18.4-2.7-18.4s5.4,6.1,0.4,14.2s-13.5,1.7-20.4,6.5s-3.5,11.4-14,8.3s-20.1-1.1-26.5,4.2s-6.1,8.3-6.1,8.3
				c1.6-0.7,3.1-1.5,4.6-2.5C238.2,334.8,239.5,333.8,240.7,332.6z"/>
			<path class="st66" d="M149.1,317.3c2.5,0.6,4.3,6.9,9.3,10.5c3.1-1.3,6.1-2.7,9.1-4.1l1.9-0.9c-2.2-0.3-4.2-1.4-5.6-3.1
				c-5.3-5.8-5.1-7.4-16.3-7s-11.7,1.5-13.9-0.7s-1.6-3.5-3.4-4.1c-6.3-2.2-12.4,5-12,7.8s7.9,6.2,13.9,5.5
				C138.1,320.6,145.8,316.5,149.1,317.3z"/>
			<path class="st66" d="M173.9,328.7c3-2.9,5.9-5.7,8.8-8.7c-4.7,2.4-9.4,4.6-14.2,6.9c-2,0.9-4,1.9-6,2.8c0.7,0.2,1.3,0.3,2,0.4
				C167.7,330.6,171,330.1,173.9,328.7z"/>
			<path class="st66" d="M186.8,318.8c-1.2,1.2-2.3,2.4-3.5,3.6c5.1-2.6,9.2-1.4,9.4-1.8S190.9,318.6,186.8,318.8z"/>
			<path class="st66" d="M211.6,322.4c2.8-1.7,5.6-3.4,8.5-4.9c1-0.5,2-1,3-1.6c-7.7,0.4-12.1,2.5-18,6.5
				C204.3,322.9,206.7,323.8,211.6,322.4z"/>
			<path class="st71" d="M228.5,317.7c1.1-0.6,2.1-1.1,3.2-1.7c-1.5-0.1-3-0.1-4.3-0.2c-2.2,1.2-4.4,2.3-6.6,3.5
				c1.8-0.3,3.7-0.5,5.5-0.5C227.1,318.4,227.8,318,228.5,317.7z"/>
			<path class="st66" d="M273.4,313.4c2.3-2.3,4.6-4.5,6.9-6.9c-3.9,0.8-6.2-1.5-15.6-1.8c-11.5-0.5-15.2,11.5-29,11.5
				c-1.7,0.9-3.5,1.7-5.2,2.6c4,0.1,8.5,0.2,13.7,0c12.7-0.7,13.3,1.6,21.3-2C268.4,315.5,270.9,314.3,273.4,313.4z"/>
			<path class="st66" d="M299.1,300c-1.4-2.6-4-1.5-7.4,0.6l-1.3,1.3c-3.4,3.4-6.9,6.6-10.4,9.9c3.1-0.3,6.2,0,9.2,0.6
				C300,314.7,301.3,304.3,299.1,300z"/>
			<path class="st72" d="M211.1,222.6c-51.1-1.9-64.4,19.2-72,28.8c-7.6,9.6-10.1,20.7-8.6,24.3s9,3.9,10.1-2.5s5.1-17.3,9.3-17.6
				s-1.7,9.3,8.8,9.8s7.4-8,10.7-9.7s7.2,1.4,5.9,12.6s-6.7,18.5-6.8,25.7s11.5,8.8,13.2-0.5s-0.5-14.5,0.3-21.6s8.5-4.8,8.6,0.8
				s-1.4,9.1,5.1,8.9s2.6-9.7,3.2-20.2s16.4-6.7,16.3,0.7c-0.2,7.4-2.1,12.8,5.5,13.1s7.3-5.6,6.2-12.4s-1.6-15.4,7.5-15.4
				s8.5,8.6,7.4,19.5c-0.9,9.4-1.3,14.3-2,20.9s13.2,9.6,14.3,0s-4.9-21.6-3.9-31.4s11.9-5.8,12.6,0.7c0.7,6.6,0.9,15.5,9.8,14.5
				s7.5-9,6.4-13.3S262.1,224.5,211.1,222.6z"/>
			<path class="st73" d="M162.1,250.6c-0.3-0.5-0.1-1.1,0.4-1.4c4.3-3.2,8-6.7,12.6-9.7c4.2-2.7,8.5-5.1,12.9-7.3
				c6-3.1,12.2-5.8,18.3-8.8c-42.1-0.2-61.5,20.9-67.7,32.4c-6.2,11.5-8.4,20.2-2.9,18.2c1.3-0.5,1.7-1.8,1.6-4.8s1.6-9.9,5.3-17.2
				s14.2-9.3,12.3-2.1s1.9,13.1,4.4,11.6S159,254.4,162.1,250.6z"/>
			<path class="st73" d="M191.2,233.7c-4.9,2.4-9.6,5-14.1,7.9c-3.3,2.2-6.4,4.7-9.4,7.2c3.2,0.6,6.1,2.4,8,5.1
				c4.5-3.8,9-7.7,13.3-11.7c5.7-5.1,11.3-10.3,17-15.4l0.7-0.6C201.6,228.8,196.3,231.2,191.2,233.7z"/>
			<path class="st73" d="M176.7,268.5c-1.6,9.1-4.2,17.8-5.5,22.4c-1.6,5.6,1.7,7.1,4.2,4.1c2.3-2.9,2.4-19.3,3.4-28.3
				C178.1,267.3,177.4,267.9,176.7,268.5z"/>
			<path class="st73" d="M226.1,225.2c-2.5-0.4-5.1-0.8-7.9-1.1c-2,1.9-4,3.8-6.1,5.7c-5.9,5.3-11.8,10.6-17.6,15.9
				c-3,2.8-6.1,5.5-9.2,8.2C198.4,244,212.5,234.8,226.1,225.2z"/>
			<path class="st73" d="M222.4,254.5c-1.1,3.4-2.4,6.7-3.9,9.9c-0.3,1.1-0.7,2.2-1.1,3.3c-1.8,4.3,0.6,6.7,5.1,4.7
				C226.5,270.7,224,262.8,222.4,254.5z"/>
			<path class="st73" d="M215.5,246c0.5,0.6,1,1.2,1.4,1.8l3.7-4.4c4.5-5.4,9-10.8,13.2-16.3c-7.5,5.4-15.1,10.6-22.8,15.9
				C212.7,243.6,214.3,244.6,215.5,246z"/>
			<path class="st73" d="M238.3,242.3c0.8-4.5,1.6-9,2.2-13.5l0,0c-2.6,3.5-5.3,6.9-8.1,10.3C234.7,239.4,236.8,240.5,238.3,242.3z"
				/>
			<path class="st73" d="M244.8,268.5c0.4,3.6,1,7.1,1.5,10.7c0.1-1.4,0.1-3,0.2-4.7c0.2-5.6-0.1-12.2-0.3-17.9
				c-0.3,1.6-0.7,3.3-1.2,4.9C245.1,263.8,245,266.2,244.8,268.5z"/>
			<path class="st73" d="M244.1,287.2c-0.4-2.9-0.8-5.7-1.2-8.5c-1.6,5.1-3.3,8.5-0.8,9.6c0.8,0.5,1.7,0.4,2.4-0.3
				C244.3,287.8,244.1,287.5,244.1,287.2z"/>
			<path class="st73" d="M255.7,235.9c-1.6-1-3.4-2-5.2-2.9c-0.4,2.4-1,4.8-1.7,7.1L255.7,235.9z"/>
			<path class="st73" d="M274.6,254.2c-2.3-4.3-7.4-10.7-16.2-16.6c-2,1.3-4,2.5-6.1,3.8c3.1,0.3,7,2.7,10.2,8.7
				c6.6,12.2,3.5,17.7,8.7,18.8S279.8,263.8,274.6,254.2z"/>
			<path class="st73" d="M195,254.2c-1.4,1-2.8,2-4.2,3.1c1.4,2.2,2.3,4.6,2.5,7.2c1.5,9.9-2.6,14-0.2,15.2s4.3-2.8,2.9-11.4
				C195,261.8,194.5,258.5,195,254.2z"/>
			<path class="st74" d="M192.6,246.3c-0.6-0.1-1.4-6-0.5-6.8s5.9-0.3,6.3,0.1S193.1,246.3,192.6,246.3z"/>
			<path class="st74" d="M179.2,226.2c-1.6-0.9-9.1-1.6-10-1.6s-6.7,7.1-6.4,7.1c2.9-0.7,5.8-1.5,8.7-2.5
				C175.3,227.9,179.2,226.2,179.2,226.2z"/>
			<path class="st74" d="M206.6,224.3c0.1-0.4,6-4.1,7-4.2s4.4,2.1,4.9,2.3s-1.9,3.2-2.2,3.6S206.4,225.1,206.6,224.3z"/>
			<path class="st74" d="M247.6,230.5c-0.8-0.3-7.1,1.3-7.1,1.7s2.3,3.6,3.5,4.2s7.5,1.3,7.6,0.6S248.1,230.7,247.6,230.5z"/>
			<path class="st74" d="M228.6,234.8c-0.7-0.3-4.7,5.4-4.5,5.8s2.8,3.6,3.3,3.6S229.2,235,228.6,234.8z"/>
			<path class="st74" d="M223,231.1c-0.2-0.4-4.6-0.5-5.3-0.1s-0.4,3-0.1,3.1S223.3,231.6,223,231.1z"/>
			<path class="st74" d="M187.3,233.8c-2.1-0.4-4.3-0.5-6.4-0.4c-0.8,0.2-5,6-4.9,6.4s9.2-3,10.3-4S187.7,233.9,187.3,233.8z"/>
			<path class="st74" d="M163.8,237.9c0.6-1.3-3.3-1.9-4.6-1.9s-5.1,4.8-4.6,5.1S163.6,238.4,163.8,237.9z"/>
			<path class="st74" d="M263.8,241.7c-0.8,0,0.9,5.1,1.4,5.3s3.6-3,3.4-3.2S265.2,241.8,263.8,241.7z"/>
		</g>
	</g>
</g>
</svg>
