<?xml version="1.0" encoding="utf-8"?>
<!-- Generator: Adobe Illustrator 25.2.3, SVG Export Plug-In . SVG Version: 6.00 Build 0)  -->
<svg version="1.1" id="Layer_1" xmlns="http://www.w3.org/2000/svg" xmlns:xlink="http://www.w3.org/1999/xlink" x="0px" y="0px"
	 viewBox="0 0 434 512" style="enable-background:new 0 0 434 512;" xml:space="preserve">
<style type="text/css">
	.st0{fill:#0FEA1E;}
</style>
<path class="st0" d="M434,256c0-7-0.1-57.2-0.2-106.6v-0.4c0-13.3-0.1-26.6-0.1-39v-0.3c-0.2-61.4-0.4-64-0.5-65.2
	c-0.1-2-0.7-4-1.7-5.7c-1.1-2.1-2.7-4.6-4.8-7.6c-0.1-0.2-0.3-0.4-0.4-0.6c-1.6-2.3-3.4-4.8-5.3-7.3c-3.7-4.9-7.7-9.6-12-13.9
	c-2.5-2.3-5.6-3.6-9-3.7c-22.4-0.8-93.3-1.4-152.1-1.6h-0.6C236.2,4,226,4,217,4c-11.9,0-26.2,0-41.3,0.1h-0.6
	c-14.8,0-30.3,0.1-44.9,0.2h-0.8h-0.1c-5.7,0-8.5,0.1-11.5,0.1C93.9,4.6,51.3,5,34,5.7c-3.6,0.1-7,1.6-9.5,4.2
	c-4.2,4.2-8,8.7-11.5,13.5C9.1,28.2,5.6,33.4,2.5,38.8c-1,1.8-1.5,3.7-1.7,5.7C0.3,52.5,0,254,0,256s0.3,203.5,0.8,211.5
	c0.1,2,0.7,3.9,1.7,5.7c3.1,5.4,6.6,10.6,10.5,15.5c3.6,4.9,7.7,9.6,12,13.9c2.5,2.3,5.6,3.6,9,3.7c20.7,0.7,77.3,1.2,101.1,1.3h0.3
	h5.4c26.9,0.2,54.6,0.3,76.2,0.3c56,0,155.1-0.6,183-1.6c3.4-0.1,6.5-1.5,9-3.7c4.3-4.3,8.4-9,12-13.9c3.9-4.9,7.4-10.1,10.5-15.5
	c1-1.8,1.5-3.7,1.7-5.7c0-0.6,0.1-1.7,0.2-11.6c0-0.1,0-0.2,0-0.4c0.1-14.3,0.3-41.8,0.4-81.6v-0.4C433.9,320.6,434,263.4,434,256z
	 M419.8,374c-0.1,33.5-0.2,65.2-0.4,81.5l0,0c-0.1,6.2-0.1,10.2-0.2,11.1c-2.8,4.7-5.9,9.3-9.3,13.6c-3.2,4.3-6.7,8.4-10.4,12.2
	c-27.1,0.9-125.3,1.6-182.5,1.6c-21.5,0-48.9-0.1-76.1-0.3h-5.4l0,0c-43.1-0.3-84.8-0.8-101-1.3c-3.8-3.8-7.2-7.9-10.4-12.2
	c-3.4-4.3-6.5-8.9-9.3-13.6C14.3,459.7,14,270.4,14,256s0.3-203.7,0.8-210.5c2.8-4.8,5.9-9.3,9.3-13.6c3.2-4.3,6.7-8.4,10.4-12.2
	l0,0c14-0.5,46.9-0.9,83.3-1.2c3,0,5.9-0.1,11.5-0.1l0,0c15.5-0.1,31.4-0.2,46.5-0.3l0,0C191,18,205.1,18,217,18c9,0,19.2,0,30.1,0
	l0,0c56.7,0.2,129.6,0.7,152.3,1.6c3.8,3.8,7.2,7.9,10.4,12.2c1.8,2.4,3.5,4.6,4.9,6.7l0,0c1.9,2.8,3.5,5.2,4.4,6.9
	c0.2,2.5,0.3,30.1,0.5,64.6l0,0c0,12.4,0.1,25.7,0.1,39l0,0c0.1,49.6,0.2,99.7,0.2,106.9c0,7.7-0.1,65-0.3,118L419.8,374z"/>
</svg>
