<svg xmlns="http://www.w3.org/2000/svg" viewBox="0 0 128 128"><defs><style>.cls-1{isolation:isolate;}.cls-2{fill:#ffd349;}.cls-3{fill:#fed857;}.cls-4{fill:#ffe988;}.cls-5{fill:#f5a820;}.cls-6{fill:#f6a328;}.cls-7{fill:#fdc901;}.cls-8{fill:#eddd7d;}.cls-9{fill:#e8b831;}.cls-10{fill:#ebb242;}.cls-11{fill:#ffd54e;}.cls-12{fill:#575756;}.cls-12,.cls-13{mix-blend-mode:screen;}.cls-13{fill:#3c3c3b;}</style></defs><g class="cls-1"><g id="Layer_1" data-name="Layer 1"><polygon class="cls-2" points="63.91 66.17 63.91 66.17 63.91 66.17 63.91 66.17"/><rect class="cls-2" x="63.91" y="66.17" transform="translate(-22.68 35.1) rotate(-26.26)"/><polygon class="cls-3" points="63.91 66.17 63.91 66.17 57.78 57.51 41.53 58.58 63.91 66.17 63.91 66.17"/><polygon class="cls-4" points="64.21 42.54 57.78 57.51 63.91 66.17 64.21 42.54"/><polygon class="cls-5" points="63.91 66.17 63.91 66.17 70.25 57.67 64.21 42.54 63.91 66.17"/><polygon class="cls-6" points="77.55 85.46 73.95 69.57 63.91 66.17 77.55 85.46"/><polygon class="cls-6" points="63.91 66.17 49.77 85.1 63.77 76.77 63.91 66.17 63.91 66.17"/><polygon class="cls-7" points="63.91 66.17 63.77 76.77 77.55 85.46 63.91 66.17 63.91 66.17"/><polygon class="cls-8" points="49.77 85.1 63.91 66.17 63.91 66.17 53.78 69.31 49.77 85.1"/><polygon class="cls-7" points="53.78 69.31 63.91 66.17 41.53 58.58 53.78 69.31"/><polygon class="cls-9" points="63.91 66.17 73.95 69.57 86.47 59.16 63.91 66.17 63.91 66.17"/><polygon class="cls-10" points="63.91 66.17 63.91 66.17 86.47 59.16 70.25 57.67 63.91 66.17"/><polygon class="cls-11" points="71.78 68.84 74.61 81.3 63.8 74.48 52.82 81.02 55.96 68.64 46.35 60.21 59.1 59.38 64.14 47.63 68.88 59.5 81.61 60.67 71.78 68.84"/><polygon class="cls-12" points="57.14 58.75 58.94 59.05 59.8 57.44 59.5 59.24 61.11 60.1 59.31 59.8 58.45 61.41 58.75 59.61 57.14 58.75"/><polygon class="cls-13" points="46.35 60.21 55.96 68.64 52.82 81.02 63.8 74.48 53.23 80.44 56.34 68.59 46.35 60.21"/><path class="cls-13" d="M63.8,74.48l1.36.86c1.78-7.84.13-15.53-4-20.65l-2,4.68-12.75.84L56,68.63,52.82,81Z"/></g></g></svg>