<svg xmlns="http://www.w3.org/2000/svg" xmlns:xlink="http://www.w3.org/1999/xlink" viewBox="0 0 128 128"><defs><style>.cls-1,.cls-2{fill:none;}.cls-1{clip-rule:evenodd;}.cls-3{isolation:isolate;}.cls-4{clip-path:url(#clip-path);}.cls-5{clip-path:url(#clip-path-2);}.cls-6{fill:url(#linear-gradient);}.cls-7{opacity:0.52;fill:url(#linear-gradient-2);}.cls-18,.cls-7{mix-blend-mode:screen;}.cls-8{fill:#af602b;}.cls-13,.cls-17,.cls-9{opacity:0.5;}.cls-10{clip-path:url(#clip-path-3);}.cls-11,.cls-12,.cls-13,.cls-14,.cls-15,.cls-16,.cls-17,.cls-18{fill-rule:evenodd;}.cls-11{fill:url(#Áåçûìÿííûé_ãðàäèåíò_40);}.cls-12{fill:url(#Áåçûìÿííûé_ãðàäèåíò_97);}.cls-13,.cls-14,.cls-17{mix-blend-mode:multiply;}.cls-13{fill:url(#Áåçûìÿííûé_ãðàäèåíò_36);}.cls-14{opacity:0.3;fill:url(#Áåçûìÿííûé_ãðàäèåíò_36-2);}.cls-15{fill:url(#Áåçûìÿííûé_ãðàäèåíò_48);}.cls-16{fill:url(#Áåçûìÿííûé_ãðàäèåíò_83);}.cls-17{fill:url(#Áåçûìÿííûé_ãðàäèåíò_66);}.cls-18{fill:url(#Áåçûìÿííûé_ãðàäèåíò_93);}.cls-19{clip-path:url(#clip-path-4);}.cls-20{clip-path:url(#clip-path-5);}.cls-21{fill:#898989;}</style><clipPath id="clip-path"><polygon class="cls-1" points="42.51 -454.27 376.37 -454.27 376.37 -88.03 42.51 -88.03 42.51 -454.27 42.51 -454.27"/></clipPath><clipPath id="clip-path-2"><rect class="cls-2" x="-177.22" y="-459.03" width="778.44" height="437.87"/></clipPath><linearGradient id="linear-gradient" x1="213.29" y1="-507.8" x2="213.29" y2="46.05" gradientUnits="userSpaceOnUse"><stop offset="0.01" stop-color="#7e1411"/><stop offset="1" stop-color="#6f002d"/></linearGradient><linearGradient id="linear-gradient-2" x1="1939.07" y1="-326.78" x2="2159.95" y2="-531.82" gradientTransform="matrix(-2.38, -0.48, -0.36, 1.78, 4431.3, 1450.92)" gradientUnits="userSpaceOnUse"><stop offset="0" stop-color="#b8b7b7" stop-opacity="0"/><stop offset="0.08" stop-color="#c2c1c1" stop-opacity="0.14"/><stop offset="0.22" stop-color="#d2d1d1" stop-opacity="0.37"/><stop offset="0.36" stop-color="#e0dfdf" stop-opacity="0.56"/><stop offset="0.5" stop-color="#ebebeb" stop-opacity="0.72"/><stop offset="0.63" stop-color="#f4f4f4" stop-opacity="0.84"/><stop offset="0.77" stop-color="#fafafa" stop-opacity="0.93"/><stop offset="0.89" stop-color="#fefefe" stop-opacity="0.98"/><stop offset="1" stop-color="#fff"/></linearGradient><clipPath id="clip-path-3"><rect class="cls-2" x="-177.22" y="-163.19" width="778.44" height="152.04"/></clipPath><linearGradient id="Áåçûìÿííûé_ãðàäèåíò_40" x1="-227.59" y1="39.18" x2="94.86" y2="39.18" gradientUnits="userSpaceOnUse"><stop offset="0.01" stop-color="#5b0955"/><stop offset="1" stop-color="#610248"/></linearGradient><linearGradient id="Áåçûìÿííûé_ãðàäèåíò_97" x1="-234.96" y1="-4.35" x2="646.33" y2="-4.35" gradientUnits="userSpaceOnUse"><stop offset="0" stop-color="#65028e"/><stop offset="1" stop-color="#9f2b84"/></linearGradient><linearGradient id="Áåçûìÿííûé_ãðàäèåíò_36" x1="219.91" y1="93.98" x2="219.91" y2="-80.6" gradientUnits="userSpaceOnUse"><stop offset="0" stop-color="#770064"/><stop offset="1" stop-color="#ba74ae"/></linearGradient><linearGradient id="Áåçûìÿííûé_ãðàäèåíò_36-2" x1="107.04" y1="106.42" x2="107.04" y2="-86.8" xlink:href="#Áåçûìÿííûé_ãðàäèåíò_36"/><linearGradient id="Áåçûìÿííûé_ãðàäèåíò_48" x1="212" y1="105.97" x2="212" y2="-124.39" gradientUnits="userSpaceOnUse"><stop offset="0.01" stop-color="#9c0244"/><stop offset="1" stop-color="#ff023e"/></linearGradient><linearGradient id="Áåçûìÿííûé_ãðàäèåíò_83" x1="-229.17" y1="30.21" x2="644.53" y2="30.21" gradientUnits="userSpaceOnUse"><stop offset="0" stop-color="#fc6b42"/><stop offset="0.89" stop-color="#ffe036"/><stop offset="0.97" stop-color="#ffa136"/></linearGradient><linearGradient id="Áåçûìÿííûé_ãðàäèåíò_66" x1="79.61" y1="9.82" x2="79.61" y2="-75.76" gradientUnits="userSpaceOnUse"><stop offset="0" stop-color="#890050"/><stop offset="1" stop-color="#db6d57"/></linearGradient><linearGradient id="Áåçûìÿííûé_ãðàäèåíò_93" x1="26.03" y1="28.86" x2="26.03" y2="-116.49" gradientUnits="userSpaceOnUse"><stop offset="0" stop-color="#6d2452"/><stop offset="1"/></linearGradient><clipPath id="clip-path-4"><polygon class="cls-1" points="482.43 -454.27 817.43 -454.27 817.43 -88.03 482.43 -88.03 482.43 -454.27 482.43 -454.27"/></clipPath><clipPath id="clip-path-5"><rect class="cls-2" x="180" y="-579.12" width="940" height="528.75"/></clipPath></defs><g class="cls-3"><g id="Layer_1" data-name="Layer 1"><g class="cls-4"><g class="cls-5"><rect class="cls-6" x="-274.08" y="-507.8" width="974.75" height="553.85"/><rect class="cls-2" x="-273.23" y="-501.66" width="973.53" height="547.34"/><polygon class="cls-7" points="-496.49 -560.36 -126.41 60.14 180.15 11.21 -454.72 -571.07 -496.49 -560.36"/><rect class="cls-2" x="-274.53" y="-503.76" width="973.06" height="547.34"/><rect class="cls-8" x="-281.36" y="-193.8" width="333.06" height="235.49"/><g class="cls-9"><rect x="-274.53" y="-503.76" width="973.06" height="547.34"/></g></g><g class="cls-10"><path class="cls-11" d="M-227.48,106c1.63,11.6,203.93-27.84,280.07-64.4S78.77-29.67,78.77-29.67-234.2,58.26-227.48,106Z"/><path class="cls-12" d="M644.53,112.35A191.11,191.11,0,0,1,605,107.59h0c-14.51-3.19-25.71-6.6-47.91-5.49-20.13,1-27,2.39-34.32,3.87a209,209,0,0,1-28.82,3.9c-16.76,1.34-38.29.71-58.24-.22h-.06c-20.63-1-39.55-2.2-49.84-1.88-10,.3-20.9,1.67-34.85,2.84h-.09a477.85,477.85,0,0,1-55.19,1.52c-45.52-1.27-48.3-6.1-54.27-7a93.84,93.84,0,0,0-11-.82h-.06c-5.64-.18-12.23-.08-18.41.36a51.45,51.45,0,0,0-14,3,91,91,0,0,1-11.53,3.31c-10.67,2.2-35.42.21-38.81-.86s-3.43-5.22-8-6.26-34.67-1.26-43.78.2c-5.91,1-13.24,3-23.55,4.81a190.87,190.87,0,0,1-19.57,2.32c-21.52,1.47-55.84,1.26-64.95,0-5.82-.8-7.68-2.63-9.31-4a6.64,6.64,0,0,0-3.22-1.81c-4-.84-40.94-1.68-56.88-.43s-17,3.78-44.37,5.05c-23.11,1.08-58.08-.19-68.22-.6l-.65,0-.65,0-1.57-.07L-235-118.7c14-2.52,872.27-4.29,879.49,1.67C648.58-113.71,644.53,112.35,644.53,112.35Z"/><path class="cls-13" d="M-200.88,87s65.25-22,83.18-23.38,29.87,3.31,55.26,0,24.19-27.06,24.19-27.06,95-29.29,128-30.71c0,0,15.85,11.8,31.53,13.18S143.67,2,143.67,2a167.21,167.21,0,0,1,57.9-3s4,8.25,30.55,5.21c0,0,14.91-4.69,40.82-2.24s78.78,17.66,78.78,17.66,32.18,7.64,46,7,12.55-4.46,12.55-4.46S464.05,36.4,482,44.38s40,27.81,40,27.81S553.66,95,572.33,93.94,605,77.14,605,77.14L642.66,26.6l-403-107.2L-54.66-57.41-202.84-1Z"/><path class="cls-14" d="M130,102.94l-1,.13c-11-.31-27.05-.09-33.29.91-3.34.55-7.12,1.45-11.67,2.44.68-18.55,1.06-140.69,26.4-186.52.17-.55.32-1.07.53-1.57a52.29,52.29,0,0,1,2-5.13v0c-.18,2.23-7.3,89.49,0,136C117.88,80.63,125.5,96.12,130,102.94Z"/><path class="cls-15" d="M661.2-4.34,646.33,9.81s-1.8,19.7-13.51,26.79c0,0-25.39,38.34-57.49,47.7,0,0-20.87-1.54-92.91-45.52,0,0-1.57-.5-4.32-1.32-8.81-2.66-29.62-8.81-48.42-13.36,0,0-21.87-9.3-32-16-4.47-3-11-1.55-24.33-.08a286.78,286.78,0,0,1-30.69,1.76c-30,.14-51.43-8-66.8-10.83a51.86,51.86,0,0,0-8.25-1c-5.06-.13-8.78,0-12.21.2a173.39,173.39,0,0,1-27.28.27c-14.67-.91-22.91-4.77-35.89-7.3A123,123,0,0,0,171.85-11c-12.89-.41-17.56.52-19.54,1.87-2.3,1.51-1.21,3.57-4.81,4.84s-18.86,2.11-34.62,2.82C98.19-.87,83.17-.33,77.2.19c-8.63.78-19,5.36-30.86,9.63a163.27,163.27,0,0,1-16.17,5c-19.07,4.67-71.71,14-108.66,11.8A270.16,270.16,0,0,1-108,51.68s-23.14,9.91-63.46,16.1a189.22,189.22,0,0,0-29.42,14.08c-10.7,6.39-21.43,14.65-26.6,24.11,0,0-.68-9.1-1.69-23.65h0c-2.89-41.49-8.39-127.23-8.33-172.26v-1.6c0-6.92.21-12.81.56-17.34.06-.57.09-1.1.15-1.63.41-4.39,1-7.24,1.83-8.18,8.6-9.67,801.56-5.58,879.49,1.67,0,0,.23,1.15.62,3.23.12.52.23,1.09.35,1.73.45,2.28,1,5.29,1.69,8.83.12.55.2,1.1.32,1.68,4.38,23.11,12.18,66.18,13.72,87C661.58-9.85,661.61-6.26,661.2-4.34Z"/><path class="cls-16" d="M644.2,4.82l.33,1.44s-14.79,42.94-67,56.42c0,0-57.17-7.79-98.05-37.48,0,0-18.51.32-43.87-5.73S401-1,388.24-1.73,367,3.39,325.51,1s-51.14-9.38-58.62-9.93-34.35,3.62-48.15,1.74S163.84-22,156.36-21.69s-8.21,8.53-19.77,11.42S70.49-7,62.27-5.73,48.47,5.56-2.7,11.06s-85.88,4.48-93.71,7.78-4.49,25-41.47,32.42-46.47,7.85-52.65,9.91-35.59,18.08-38.52,23c0-.61-.09-1.22-.12-1.85h0c2.25-4.68,32.49-21.13,38.64-23.2s15.7-2.47,52.65-9.91,32.48-31.1,40.34-34.4S-53.84,14.52-2.7,9s56.75-15.55,65-16.79S125-9.43,136.59-12.33s12.32-11.15,19.77-11.42S204.9-11.09,218.74-9.21s40.67-2.29,48.15-1.74S284.07-3.38,325.51-1s50-3.49,62.73-2.77,22.05,15.14,47.41,21.2,43.87,5.73,43.87,5.73c43.81,30.21,98.7,35.58,98.7,35.58C621.2,45.68,641.45,10.1,644.2,4.82Z"/><path class="cls-17" d="M112.88-1.52C98.19-.87,83.17-.33,77.2.19c-8.63.78-19,5.36-30.86,9.63h0S57-70.14,67.12-75.5C76.34-80.41,107.56-13.17,112.88-1.52Z"/><path class="cls-18" d="M-1.07,28.86s6.41-142,19.1-145S40.44-99.67,49.69-76.54c5.89,14.71,2.44,93.44,2.44,93.44A278.14,278.14,0,0,1-1.07,28.86Z"/></g></g><path class="cls-21" d="M77.3,54.06a1.8,1.8,0,0,0-.75-.6.54.54,0,0,0-.33-.07,3.2,3.2,0,0,0,.29-.83,10.48,10.48,0,0,0,.26-2.45,12,12,0,0,0-.55-3.62,12.25,12.25,0,0,0-2.11-4,12.61,12.61,0,0,0-3.38-3A11.94,11.94,0,0,0,69,38.68c-.29-.11-.57-.22-.84-.3l-.4-.12-.39-.1a10.08,10.08,0,0,0-2.44-.29,5.58,5.58,0,0,0-.67,0c-.15,0-.23,0-.23.07s-.08,0-.23-.07a5.58,5.58,0,0,0-.67,0,10.08,10.08,0,0,0-2.44.29l-.39.1-.4.12c-.27.08-.55.19-.84.3a11.94,11.94,0,0,0-1.76.87,12.61,12.61,0,0,0-3.38,3,12.25,12.25,0,0,0-2.11,4,12,12,0,0,0-.55,3.62,10.48,10.48,0,0,0,.26,2.45,3.2,3.2,0,0,0,.29.83.54.54,0,0,0-.33.07,1.8,1.8,0,0,0-.75.6,2.26,2.26,0,0,0-.49,1.37,2.51,2.51,0,0,0,.13.88,2.36,2.36,0,0,0,.48.82,2.45,2.45,0,0,0,1.6.84l.21,0c.28.53.57,1.08.87,1.63,1.45,4.45,2.81,8.6,4,12.33s2.31,7,3.22,9.71,1.64,4.9,2.14,6.39c.12.37.23.71.34,1a4.44,4.44,0,0,0,.34.69,1,1,0,0,0,.33.35c.1.06.17,0,.16,0s.07,0,.16,0a.93.93,0,0,0,.33-.35,4.39,4.39,0,0,0,.35-.69c.11-.29.21-.63.34-1,.5-1.49,1.22-3.66,2.14-6.39L70.59,72l4-12.33c.29-.56.59-1.11.87-1.64h.08a2.45,2.45,0,0,0,1.6-.84,2.36,2.36,0,0,0,.48-.82,2.51,2.51,0,0,0,.13-.88A2.26,2.26,0,0,0,77.3,54.06Z"/></g></g></svg>