<svg xmlns="http://www.w3.org/2000/svg" xmlns:xlink="http://www.w3.org/1999/xlink" viewBox="0 0 128 128"><defs><style>.cls-1,.cls-2{fill:none;}.cls-1{clip-rule:evenodd;}.cls-3{isolation:isolate;}.cls-4{clip-path:url(#clip-path);}.cls-5{clip-path:url(#clip-path-2);}.cls-6{fill:url(#linear-gradient);}.cls-7,.cls-8{opacity:0.52;mix-blend-mode:screen;}.cls-7{fill:url(#linear-gradient-2);}.cls-8{fill:url(#linear-gradient-3);}.cls-12,.cls-9{opacity:0.5;}.cls-10{clip-path:url(#clip-path-3);}.cls-11,.cls-12,.cls-13,.cls-14,.cls-15{fill-rule:evenodd;}.cls-11{fill:url(#Áåçûìÿííûé_ãðàäèåíò_97);}.cls-12,.cls-13{mix-blend-mode:multiply;}.cls-12{fill:url(#Áåçûìÿííûé_ãðàäèåíò_36);}.cls-13{opacity:0.3;fill:url(#Áåçûìÿííûé_ãðàäèåíò_36-2);}.cls-14{fill:url(#Áåçûìÿííûé_ãðàäèåíò_48);}.cls-15{fill:url(#Áåçûìÿííûé_ãðàäèåíò_83);}.cls-16{clip-path:url(#clip-path-4);}.cls-17{clip-path:url(#clip-path-5);}.cls-18{fill:#f6a1a6;}.cls-19{fill:#fdd689;}.cls-20{fill:#f3b761;}.cls-21{fill:#e0a736;}.cls-22{fill:#7b3f00;}.cls-23{fill:#ff8;}.cls-24{fill:#ff36ac;}.cls-25{fill:#ff7bac;}.cls-26{fill:#603813;}.cls-27{fill:#00a99d;}.cls-28{fill:#8cc63f;}.cls-29{fill:#fcee21;}.cls-30{fill:#ed1e79;}.cls-31{fill:#fffdbd;}</style><clipPath id="clip-path"><polygon class="cls-1" points="-105.49 -454.27 228.37 -454.27 228.37 -88.03 -105.49 -88.03 -105.49 -454.27 -105.49 -454.27"/></clipPath><clipPath id="clip-path-2"><rect class="cls-2" x="-325.22" y="-459.03" width="778.44" height="437.87"/></clipPath><linearGradient id="linear-gradient" x1="65.29" y1="-507.8" x2="65.29" y2="46.05" gradientUnits="userSpaceOnUse"><stop offset="0.01" stop-color="#7e1411"/><stop offset="1" stop-color="#6f002d"/></linearGradient><linearGradient id="linear-gradient-2" x1="1791.07" y1="-326.78" x2="2011.95" y2="-531.82" gradientTransform="matrix(-2.38, -0.48, -0.36, 1.78, 3931.25, 1380)" gradientUnits="userSpaceOnUse"><stop offset="0" stop-color="#b8b7b7" stop-opacity="0"/><stop offset="0.08" stop-color="#c2c1c1" stop-opacity="0.14"/><stop offset="0.22" stop-color="#d2d1d1" stop-opacity="0.37"/><stop offset="0.36" stop-color="#e0dfdf" stop-opacity="0.56"/><stop offset="0.5" stop-color="#ebebeb" stop-opacity="0.72"/><stop offset="0.63" stop-color="#f4f4f4" stop-opacity="0.84"/><stop offset="0.77" stop-color="#fafafa" stop-opacity="0.93"/><stop offset="0.89" stop-color="#fefefe" stop-opacity="0.98"/><stop offset="1" stop-color="#fff"/></linearGradient><linearGradient id="linear-gradient-3" x1="815.66" y1="-592.44" x2="1036.53" y2="-797.48" gradientTransform="matrix(2.38, -0.48, 0.36, 1.78, -1363.66, 1380)" xlink:href="#linear-gradient-2"/><clipPath id="clip-path-3"><rect class="cls-2" x="-325.22" y="-163.19" width="778.44" height="152.04"/></clipPath><linearGradient id="Áåçûìÿííûé_ãðàäèåíò_97" x1="-382.96" y1="-4.35" x2="498.33" y2="-4.35" gradientUnits="userSpaceOnUse"><stop offset="0" stop-color="#65028e"/><stop offset="1" stop-color="#9f2b84"/></linearGradient><linearGradient id="Áåçûìÿííûé_ãðàäèåíò_36" x1="71.91" y1="93.98" x2="71.91" y2="-80.6" gradientUnits="userSpaceOnUse"><stop offset="0" stop-color="#770064"/><stop offset="1" stop-color="#ba74ae"/></linearGradient><linearGradient id="Áåçûìÿííûé_ãðàäèåíò_36-2" x1="70.73" y1="107.6" x2="70.73" y2="-44.95" xlink:href="#Áåçûìÿííûé_ãðàäèåíò_36"/><linearGradient id="Áåçûìÿííûé_ãðàäèåíò_48" x1="64" y1="105.97" x2="64" y2="-124.39" gradientUnits="userSpaceOnUse"><stop offset="0.01" stop-color="#9c0244"/><stop offset="1" stop-color="#ff023e"/></linearGradient><linearGradient id="Áåçûìÿííûé_ãðàäèåíò_83" x1="-377.17" y1="30.21" x2="496.53" y2="30.21" gradientUnits="userSpaceOnUse"><stop offset="0" stop-color="#fc6b42"/><stop offset="0.89" stop-color="#ffe036"/><stop offset="0.97" stop-color="#ffa136"/></linearGradient><clipPath id="clip-path-4"><polygon class="cls-1" points="334.43 -454.27 669.43 -454.27 669.43 -88.03 334.43 -88.03 334.43 -454.27 334.43 -454.27"/></clipPath><clipPath id="clip-path-5"><rect class="cls-2" x="32" y="-579.12" width="940" height="528.75"/></clipPath></defs><g class="cls-3"><g id="Layer_1" data-name="Layer 1"><g class="cls-4"><g class="cls-5"><rect class="cls-6" x="-422.08" y="-507.8" width="974.75" height="553.85"/><rect class="cls-2" x="-421.23" y="-501.66" width="973.53" height="547.34"/><polygon class="cls-7" points="-644.49 -560.36 -274.41 60.14 32.15 11.21 -602.72 -571.07 -644.49 -560.36"/><polygon class="cls-8" points="796.71 -565.08 426.63 55.41 120.07 6.48 754.95 -575.79 796.71 -565.08"/><rect class="cls-2" x="-422.53" y="-503.76" width="973.06" height="547.34"/><g class="cls-9"><rect x="-422.53" y="-503.76" width="973.06" height="547.34"/></g></g><g class="cls-10"><path class="cls-11" d="M496.53,112.35A191.11,191.11,0,0,1,457,107.59h0c-14.51-3.19-25.71-6.6-47.91-5.49-20.13,1-27,2.39-34.32,3.87a209,209,0,0,1-28.82,3.9c-16.76,1.34-38.29.71-58.24-.22h-.06c-20.63-1-39.55-2.2-49.84-1.88-10,.3-20.9,1.67-34.85,2.84h-.09a477.85,477.85,0,0,1-55.19,1.52c-45.52-1.27-48.3-6.1-54.27-7a93.84,93.84,0,0,0-11-.82h-.06c-5.64-.18-12.23-.08-18.41.36a51.45,51.45,0,0,0-14,3,91,91,0,0,1-11.53,3.31c-10.67,2.2-35.42.21-38.81-.86s-3.43-5.22-8-6.26-34.67-1.26-43.78.2c-5.91,1-13.24,3-23.55,4.81a190.87,190.87,0,0,1-19.57,2.32c-21.52,1.47-55.84,1.26-64.95,0-5.82-.8-7.68-2.63-9.31-4a6.64,6.64,0,0,0-3.22-1.81c-4-.84-40.94-1.68-56.88-.43s-17.05,3.78-44.37,5.05c-23.11,1.08-58.08-.19-68.22-.6l-.65,0-.65,0-1.57-.07L-383-118.7c14-2.52,872.27-4.29,879.49,1.67C500.58-113.71,496.53,112.35,496.53,112.35Z"/><path class="cls-12" d="M-348.88,87s65.25-22,83.18-23.38,29.87,3.31,55.26,0,24.19-27.06,24.19-27.06,95-29.29,128-30.71c0,0,15.85,11.8,31.53,13.18S-4.33,2-4.33,2a167.21,167.21,0,0,1,57.9-3s4,8.25,30.55,5.21C84.12,4.19,99-.5,124.94,2s78.78,17.66,78.78,17.66,32.18,7.64,46,7,12.55-4.46,12.55-4.46S316.05,36.4,334,44.38s40,27.81,40,27.81S405.66,95,424.33,93.94,457,77.14,457,77.14L494.66,26.6,91.64-80.6l-294.3,23.19L-350.84-1Z"/><path class="cls-13" d="M57.34,107.6S60.19-11.91,65.8-44.95c0,0-10.35,123.17,18.32,149.06Z"/><path class="cls-14" d="M513.2-4.34,498.33,9.81s-1.8,19.7-13.51,26.79c0,0-25.39,38.34-57.49,47.7,0,0-20.87-1.54-92.91-45.52,0,0-1.57-.5-4.32-1.32-8.81-2.66-29.62-8.81-48.42-13.36,0,0-21.87-9.3-32-16-4.47-3-11-1.55-24.33-.08a286.78,286.78,0,0,1-30.69,1.76c-30,.14-51.43-8-66.8-10.83a51.86,51.86,0,0,0-8.25-1c-5.06-.13-8.78,0-12.21.2a173.39,173.39,0,0,1-27.28.27C65.47-2.44,57.23-6.3,44.25-8.83A123,123,0,0,0,23.85-11C11-11.46,6.29-10.53,4.31-9.18,2-7.67,3.1-5.61-.5-4.34S-19.36-2.23-35.12-1.52C-49.81-.87-64.83-.33-70.8.19c-8.63.78-19,5.36-30.86,9.63a163.27,163.27,0,0,1-16.17,5c-19.07,4.67-71.71,14-108.66,11.8A270.16,270.16,0,0,1-256,51.68s-23.14,9.91-63.46,16.1a189.22,189.22,0,0,0-29.42,14.08c-10.7,6.39-21.43,14.65-26.6,24.11,0,0-.68-9.1-1.69-23.65h0c-2.89-41.49-8.39-127.23-8.33-172.26v-1.6c0-6.92.21-12.81.56-17.34.06-.57.09-1.1.15-1.63.41-4.39,1-7.24,1.83-8.18,8.6-9.67,801.56-5.58,879.49,1.67,0,0,.23,1.15.62,3.23.12.52.23,1.09.35,1.73.45,2.28,1,5.29,1.69,8.83.12.55.2,1.1.32,1.68,4.38,23.11,12.18,66.18,13.72,87C513.58-9.85,513.61-6.26,513.2-4.34Z"/><path class="cls-15" d="M496.2,4.82l.33,1.44s-14.79,42.94-67,56.42c0,0-57.17-7.79-98.05-37.48,0,0-18.51.32-43.87-5.73S253-1,240.24-1.73,219,3.39,177.51,1s-51.14-9.38-58.62-9.93S84.54-5.27,70.74-7.15,15.84-22,8.36-21.69.15-13.16-11.41-10.27-77.51-7-85.73-5.73s-13.8,11.29-65,16.79-85.88,4.48-93.71,7.78-4.49,25-41.47,32.42-46.47,7.85-52.65,9.91-35.59,18.08-38.52,23c0-.61-.09-1.22-.12-1.85h0c2.25-4.68,32.49-21.13,38.64-23.2s15.7-2.47,52.65-9.91,32.48-31.1,40.34-34.4,43.7-.28,94.84-5.8,56.75-15.55,65-16.79S-23-9.43-11.41-12.33.91-23.48,8.36-23.75,56.9-11.09,70.74-9.21s40.67-2.29,48.15-1.74S136.07-3.38,177.51-1s50-3.49,62.73-2.77,22.05,15.14,47.41,21.2,43.87,5.73,43.87,5.73c43.81,30.21,98.7,35.58,98.7,35.58C473.2,45.68,493.45,10.1,496.2,4.82Z"/></g></g><g class="cls-16"><g class="cls-17"><polygon class="cls-18" points="913.22 44.84 86.92 44.84 86.22 -123.51 908.45 -126.43 913.22 44.84"/></g></g><path class="cls-19" d="M54.71,61.14l1.43,1.43-.75.75.21.67,1-1L58,64.44l-1.43,1.43L56,65.32l.48,1.5.07-.07L58,68.18,57.2,69l.22.67,1-1,1.43,1.43-1.43,1.43-.66-.66.3,1c.08.24.15.48.23.72l.13-.13,1.43,1.43-.87.88.21.67,1.1-1.11,1.43,1.43-1.43,1.43-.8-.8.59,1.89.21-.21,1.43,1.43-1,1L61,81l1.19-1.19,1.43,1.43L62.19,82.7l-1-1c.13.44.27.86.39,1.27l.14.14-.07.08c.07.23.14.45.2.67l.31-.31L63.62,85l-1.07,1.07.2.68,1.31-1.31,1.31,1.31c.07-.21.13-.44.2-.68L64.5,85l1.43-1.43.31.31.21-.67-.08-.08.14-.14.4-1.27-1,1L64.5,81.27l1.43-1.43L67.12,81l.21-.67-1-1L67.8,78l.21.21q.28-.92.6-1.89l-.81.8-1.43-1.43,1.43-1.43,1.11,1.11.21-.67-.88-.88,1.43-1.43.13.13c.08-.24.16-.48.23-.72l.31-1-.67.66-1.43-1.43,1.43-1.43,1,1,.21-.67-.81-.81,1.43-1.43.07.07.49-1.5-.56.55-1.43-1.43L71.54,63l1,1,.21-.67L72,62.57l1.43-1.43h0l.39-1.24h0l-.36.35-.35-.35h-.88l.79.79-1.43,1.43L70.11,60.7l.79-.78H70l-.34.34-.33-.34h-.88l.77.77L67.8,62.13,66.37,60.7l.78-.77h-.89l-.33.33-.33-.33h-.88l.77.77-1.43,1.43L62.63,60.7l.77-.77h-.88l-.33.33-.33-.33H61l.77.77-1.43,1.43L58.89,60.7l.78-.77h-.88l-.34.34-.34-.34h-.88l.78.78-1.43,1.43L55.15,60.7l.79-.79h-.88l-.35.35-.35-.35H54.3l.4,1.24ZM57,66.31l1.43-1.43,1.43,1.43-1.43,1.43Zm1.87,1.87,1.43-1.43,1.43,1.43-1.43,1.43Zm3.74,3.74,1.43-1.43,1.43,1.43-1.43,1.43Zm2.86,3.74-1.43,1.43-1.43-1.43,1.43-1.43Zm-3.3-4.18-1.43-1.43,1.43-1.43,1.43,1.43Zm2.31-1.43,1.43-1.43,1.43,1.43-1.43,1.43Zm0-3.74,1.43-1.43,1.43,1.43-1.43,1.43Zm1,1.87-1.43,1.43-1.43-1.43,1.43-1.43Zm-3.3-.44-1.43-1.43,1.43-1.43,1.43,1.43Zm-3.3,4.18,1.43-1.43,1.43,1.43-1.43,1.43Zm1.87,1.87,1.43-1.43,1.43,1.43-1.43,1.43Zm0,3.74,1.43-1.43,1.43,1.43L62.19,79Zm4.73,5.61-1.43,1.43-1.43-1.43,1.43-1.43Zm-1.43-2.31L62.63,79.4,64.06,78l1.43,1.43Zm3.3-3.3L65.93,79,64.5,77.53l1.43-1.43Zm-1.43-2.31L64.5,73.79l1.43-1.43,1.43,1.43Zm3.3-3.3L67.8,73.35l-1.43-1.43,1.43-1.43ZM67.8,69.61l-1.43-1.43,1.43-1.43,1.43,1.43Zm3.3-3.3-1.43,1.43-1.43-1.43,1.43-1.43Zm-1.43-5.17,1.43,1.43L69.67,64l-1.43-1.43Zm-.44,3.3L67.8,65.87l-1.43-1.43L67.8,63Zm-3.3-3.3,1.43,1.43L65.93,64,64.5,62.57Zm-.44,3.3-1.43,1.43-1.43-1.43L64.06,63Zm-3.3-3.3,1.43,1.43L62.19,64l-1.43-1.43Zm-.44,3.3-1.43,1.43-1.43-1.43L60.32,63Zm-3.3-3.3,1.43,1.43L58.45,64,57,62.57Z"/><path class="cls-19" d="M62.85,87.1c.1.32.18.61.26.89,0,.12.07.24.1.35l.41.41-.23.23h0a6.06,6.06,0,0,0,.25.62l.42-.42.42.42a4.39,4.39,0,0,0,.25-.62h0l-.23-.23.42-.41c0-.11.06-.23.1-.35.07-.28.16-.57.25-.89l-1.21,1.21Z"/><rect class="cls-20" x="59.31" y="63.43" width="2.02" height="2.02" transform="translate(-27.9 61.53) rotate(-45)"/><rect class="cls-20" x="57.44" y="65.3" width="2.02" height="2.02" transform="translate(-29.77 60.75) rotate(-45)"/><path class="cls-20" d="M56.58,66.75l-.07.07L57.2,69l.81-.81Z"/><path class="cls-20" d="M60.32,78l-.21.21c.24.76.47,1.48.68,2.18l1-1Z"/><rect class="cls-20" x="66.79" y="67.17" width="2.02" height="2.02" transform="translate(-28.35 67.91) rotate(-45)"/><path class="cls-20" d="M68.24,70.05l1.43,1.43.67-.66.37-1.16-1-1Z"/><rect class="cls-20" x="61.18" y="61.56" width="2.02" height="2.02" transform="translate(-26.03 62.3) rotate(-45)"/><rect class="cls-20" x="63.05" y="63.43" width="2.02" height="2.02" transform="translate(-26.8 64.17) rotate(-45)"/><rect class="cls-20" x="64.92" y="65.3" width="2.02" height="2.02" transform="translate(-27.58 66.04) rotate(-45)"/><rect class="cls-20" x="66.79" y="63.43" width="2.02" height="2.02" transform="translate(-25.71 66.82) rotate(-45)"/><rect class="cls-20" x="68.66" y="65.3" width="2.02" height="2.02" transform="translate(-26.48 68.69) rotate(-45)"/><path class="cls-20" d="M70.11,68.18l.81.81.69-2.17-.07-.07Z"/><rect class="cls-20" x="61.18" y="76.52" width="2.02" height="2.02" transform="translate(-36.61 66.69) rotate(-45)"/><rect class="cls-20" x="64.92" y="61.56" width="2.02" height="2.02" transform="translate(-24.93 64.95) rotate(-45)"/><rect class="cls-20" x="63.05" y="74.65" width="2.02" height="2.02" transform="translate(-34.74 67.46) rotate(-45)"/><rect class="cls-20" x="64.92" y="76.52" width="2.02" height="2.02" transform="translate(-35.51 69.33) rotate(-45)"/><path class="cls-20" d="M66.37,79.4l1,1L68,78.18,67.8,78Z"/><rect class="cls-20" x="59.31" y="70.91" width="2.02" height="2.02" transform="translate(-33.19 63.72) rotate(-45)"/><rect class="cls-20" x="63.05" y="67.17" width="2.02" height="2.02" transform="translate(-29.45 65.27) rotate(-45)"/><path class="cls-20" d="M58.45,72.36l-.13.13c.24.75.46,1.47.69,2.18l.87-.88Z"/><rect class="cls-20" x="61.18" y="69.04" width="2.02" height="2.02" transform="translate(-31.32 64.49) rotate(-45)"/><rect class="cls-20" x="61.18" y="65.3" width="2.02" height="2.02" transform="translate(-28.67 63.4) rotate(-45)"/><path class="cls-20" d="M64.06,62.13l1.43-1.43-.77-.77H63.4l-.77.77Z"/><rect class="cls-20" x="66.79" y="70.91" width="2.02" height="2.02" transform="translate(-31 69.01) rotate(-45)"/><rect class="cls-20" x="64.92" y="69.04" width="2.02" height="2.02" transform="translate(-30.22 67.14) rotate(-45)"/><path class="cls-20" d="M68.24,73.79l.88.88c.22-.71.45-1.43.68-2.18l-.13-.13Z"/><rect class="cls-20" x="64.92" y="72.78" width="2.02" height="2.02" transform="translate(-32.87 68.23) rotate(-45)"/><rect class="cls-20" x="61.18" y="72.78" width="2.02" height="2.02" transform="translate(-33.96 65.59) rotate(-45)"/><rect class="cls-20" x="63.05" y="70.91" width="2.02" height="2.02" transform="translate(-32.09 66.36) rotate(-45)"/><rect class="cls-20" x="59.31" y="67.17" width="2.02" height="2.02" transform="translate(-30.54 62.62) rotate(-45)"/><path class="cls-20" d="M66.37,75.66l1.43,1.43.81-.8.3-1L67.8,74.23Z"/><path class="cls-20" d="M61.75,75.66l-1.43-1.43-1.1,1.11.3,1,.8.8Z"/><path class="cls-20" d="M59.88,70.05l-1.43-1.43-1,1,.37,1.16.66.66Z"/><path class="cls-20" d="M72,62.57l.75.75.7-2.17h0Z"/><path class="cls-20" d="M56.58,62.13,58,60.7l-.78-.78H55.94l-.79.79Z"/><path class="cls-20" d="M71.54,62.13,73,60.7l-.79-.79H70.9l-.79.78Z"/><path class="cls-20" d="M55.06,59.91h-.7l.35.35Z"/><path class="cls-20" d="M54.71,61.14h0l.69,2.17.75-.75Z"/><path class="cls-20" d="M62.19,83.58l-.31.31c.25.8.47,1.53.67,2.19L63.62,85Z"/><path class="cls-20" d="M64.5,85l1.07,1.07c.2-.66.43-1.39.67-2.19l-.31-.31Z"/><rect class="cls-20" x="63.05" y="82.13" width="2.02" height="2.02" transform="translate(-40.03 69.65) rotate(-45)"/><path class="cls-20" d="M70,59.92h-.67l.33.34Z"/><path class="cls-20" d="M62.52,59.93h-.66l.33.33Z"/><path class="cls-20" d="M63.64,89.61a.16.16,0,0,0,0,.07,1,1,0,0,0,.26.36.27.27,0,0,0,.12.08.33.33,0,0,0,.13-.08,1.19,1.19,0,0,0,.26-.36l0-.07-.42-.42Z"/><path class="cls-20" d="M63.21,88.34c.06.24.12.45.18.64l.23-.23Z"/><path class="cls-20" d="M62.75,86.76c0,.12.07.23.1.34l1.21,1.21,1.21-1.21c0-.11.07-.22.1-.34l-1.31-1.31Z"/><path class="cls-20" d="M64.73,89c.06-.19.12-.4.19-.64l-.42.41Z"/><path class="cls-20" d="M73.77,59.91h-.71l.35.35Z"/><path class="cls-20" d="M61.61,83l.07.22.07-.08Z"/><path class="cls-20" d="M63.62,81.27l-1.43-1.43L61,81c0,.17.11.34.16.5l.06.2,1,1Z"/><path class="cls-20" d="M64.5,81.27l1.43,1.43,1-1,.06-.2.15-.5-1.19-1.19Z"/><rect class="cls-20" x="63.05" y="78.39" width="2.02" height="2.02" transform="translate(-37.38 68.56) rotate(-45)"/><path class="cls-20" d="M58,64.44,56.58,63l-1,1L56,65.32l.55.55Z"/><path class="cls-20" d="M60.32,62.13l1.43-1.43L61,59.93H59.67l-.78.77Z"/><rect class="cls-20" x="57.44" y="61.56" width="2.02" height="2.02" transform="translate(-27.12 59.66) rotate(-45)"/><path class="cls-20" d="M66.26,59.93H65.6l.33.33Z"/><path class="cls-20" d="M67.8,62.13l1.43-1.43-.77-.77H67.15l-.78.77Z"/><path class="cls-20" d="M58.79,59.92h-.68l.34.34Z"/><path class="cls-20" d="M70.11,64.44l1.43,1.43.56-.55L72.52,64l-1-1Z"/><rect class="cls-20" x="68.66" y="61.56" width="2.02" height="2.02" transform="translate(-23.84 67.59) rotate(-45)"/><path class="cls-20" d="M66.45,83.22l.06-.22-.14.14Z"/><path class="cls-21" d="M73.08,57.34a1.93,1.93,0,0,1-.64.47,2.2,2.2,0,0,1-1.92,0,2,2,0,0,1-.64-.47,1.34,1.34,0,0,1-.27-.43,1.34,1.34,0,0,1-.27.43,2,2,0,0,1-.64.47,2.2,2.2,0,0,1-1.92,0,2,2,0,0,1-.64-.47,1.34,1.34,0,0,1-.27-.43,1.34,1.34,0,0,1-.27.43,2,2,0,0,1-.64.47,2.2,2.2,0,0,1-1.92,0,2,2,0,0,1-.64-.47,1.34,1.34,0,0,1-.27-.43,1.34,1.34,0,0,1-.27.43,2,2,0,0,1-.64.47,2.2,2.2,0,0,1-1.92,0,2,2,0,0,1-.64-.47,1.34,1.34,0,0,1-.27-.43,1.34,1.34,0,0,1-.27.43,2,2,0,0,1-.64.47,2.2,2.2,0,0,1-1.92,0,1.93,1.93,0,0,1-.64-.47,1.26,1.26,0,0,1-.28-.44s0,0,0,0a.79.79,0,0,1-.08.16,2,2,0,0,1-.7.66,2.62,2.62,0,0,1-.56.23L54,59.26l4.73,0h10.6l4.73,0,.73-1.32a2.29,2.29,0,0,1-.67-.26,2,2,0,0,1-.7-.66.79.79,0,0,1-.08-.16s0,0,0,0A1.26,1.26,0,0,1,73.08,57.34Z"/><path class="cls-22" d="M63.77,38l-.65.1a15.32,15.32,0,0,0-2.33.5l-.37.12-.37.13c-.26.09-.52.21-.79.32a14.08,14.08,0,0,0-1.65.89A12.57,12.57,0,0,0,54.44,43a13.92,13.92,0,0,0-1,1.4,1.41,1.41,0,0,0,.28.56l.16-.39.32-.62a10.68,10.68,0,0,1,1-1.4,10.92,10.92,0,0,1,3.43-2.82,11.12,11.12,0,0,1,5.29-1.27,11.77,11.77,0,0,1,2.82.39l.66.19.62.24a5.42,5.42,0,0,1,.6.26l.29.14.15.07.13.08.54.31.51.34c.16.12.33.23.47.35l.44.36c.15.12.27.26.4.38l.2.18.09.1.09.09.34.38c0,.07.11.13.16.19l.14.19a7.67,7.67,0,0,1,.52.73,7.75,7.75,0,0,1,.41.69c.12.22.23.43.31.62l.09.21a3.44,3.44,0,0,1,.57-.64A15.43,15.43,0,0,0,73.56,43a12.57,12.57,0,0,0-3.17-2.85,14.08,14.08,0,0,0-1.65-.89c-.27-.11-.53-.23-.79-.32l-.37-.13-.37-.12a15.32,15.32,0,0,0-2.33-.5l-.65-.1C64.08,38,64,38,64,38S63.92,38,63.77,38Z"/><path class="cls-23" d="M73,44.37a7.21,7.21,0,0,0-.45-.6,7.92,7.92,0,0,0-.55-.65L71.87,43l-.17-.16-.33-.33-.09-.09-.09-.08L71,42.13l-.39-.33-.43-.31a2.8,2.8,0,0,0-.4-.27.17.17,0,0,1,0,.07c0,.09-.31.06-.55-.14a.65.65,0,0,1-.29-.42l-.2-.11-.13-.07-.13-.06-.27-.12h0c-.09.08-.17.12-.21.08s0-.1,0-.19l-.28-.1-.57-.21-.61-.16a5.23,5.23,0,0,0-.54-.12h0c-.3.06-.56,0-.58-.06a.07.07,0,0,1,0-.06,10.88,10.88,0,0,0-1.41-.1c-.35,0-.71,0-1.06,0a1.09,1.09,0,0,1-.45.07h-.07c-.34.05-.67.1-1,.18a12.1,12.1,0,0,0-1.79.58l-.15.08-.18.07-.16.07a11.44,11.44,0,0,0-3.21,2.34,1.1,1.1,0,0,1,.48.33c.24.23.38.48.31.55s-.32-.06-.56-.3a1.32,1.32,0,0,1-.33-.48h0a12.46,12.46,0,0,0-1,1.23c-.13.2-.26.38-.38.55l-.24.4,0,0c2.12,1,1.12,3.37,2.37,4.74a.73.73,0,0,0,1,.12c.5-.5.5-2,1-1.62C60,49.79,58.64,52,59,54c.13.87,1.25,1.5,1.37,1.37,2.25-2.37,0-5.86.25-8.85.13-.62.88-1.25,1.5-.87,1,.75-.12,2.37.87,2.62.38,0,.75-1.62,1.25-1.13,1.37,1.75-.87,6.36,2,6,1.13,0-.62-2.49.5-3,.75-.38.5,2.24,1.75,1.74,1.74-.75,1.49-3.11,1.74-5,.13-.49.63-1.12,1.13-.74,1.12,1,.12,2.62.74,4,1.5-1,.75-3.12,1.38-4.49a2.07,2.07,0,0,1,.15-.34l-.25-.42ZM57.28,45.82c-.09.28-.28.44-.36.39s-.05-.26,0-.5.16-.42.26-.42S57.36,45.54,57.28,45.82ZM58,42.35c0-.1.4-.2.9-.25s.92,0,.94.07-.39.23-.9.28S58,42.45,58,42.35Zm.64,2.83c-.1,0-.24-.19-.31-.46s-.07-.53,0-.56.23.18.31.46S58.73,45.16,58.64,45.18Zm.78,1.7c-.17.26-.37.42-.45.37s0-.31.16-.56.38-.42.46-.36S59.6,46.63,59.42,46.88Zm.51-3.27c-.27.07-.51,0-.53,0s.18-.22.44-.29.5-.07.53,0S60.21,43.53,59.93,43.61Zm1.2-2.75c.09,0,.26.17.42.45s.23.55.15.61-.3-.14-.46-.44S61,40.9,61.13,40.86Zm.5,3.24a.83.83,0,0,1-.28.28c-.1,0-.17,0-.2,0s.05-.28.18-.49.27-.4.37-.38.07.08.06.19A.75.75,0,0,1,61.63,44.1Zm2,1.79c-.08,0-.27-.16-.32-.47s0-.58.14-.57.16.24.2.51S63.77,45.85,63.68,45.89Zm-.06-3.15c-.33.12-.63.14-.67,0s.21-.26.55-.38.63-.14.66,0S63.94,42.62,63.62,42.74Zm1.18-1.58c-.08.06-.27-.06-.43-.27s-.23-.43-.15-.49.27.06.43.27S64.87,41.1,64.8,41.16ZM65.07,44s0,0-.07,0a.1.1,0,0,1,0-.07.23.23,0,0,1,.07-.14.45.45,0,0,1,.13-.11.76.76,0,0,1,.18-.09c.27-.1.51,0,.53,0s-.18.2-.41.28l-.16.05-.14,0Zm.23,1c.06-.08.24,0,.41.08s.25.29.19.37-.24,0-.4-.09S65.24,45,65.3,44.93ZM66.16,47l-.29.27c-.08.06-.14.11-.19.09s-.06-.1,0-.22a.94.94,0,0,1,.25-.4c.27-.24.54-.32.59-.25S66.38,46.81,66.16,47Zm1.59-4.76c.09,0,.23.13.32.38s.08.46,0,.49-.24-.13-.33-.38S67.65,42.29,67.75,42.26Zm-.39-1c-.07,0-.29-.11-.45-.39s-.19-.55-.1-.59.26.16.41.42S67.44,41.22,67.36,41.28ZM67.7,45c-.1,0-.2-.16-.24-.37s0-.41.11-.43.2.14.24.37S67.8,45,67.7,45Zm.88,1.41a1.1,1.1,0,0,1-.27.14.68.68,0,0,1-.37,0c-.1,0-.14-.09-.13-.13s.06-.08.12-.11a1.62,1.62,0,0,1,.26-.12,1.08,1.08,0,0,1,.34,0c.09,0,.15.06.16.11S68.64,46.33,68.58,46.38Zm1.75-1.88c-.08.06-.25,0-.4-.21s-.22-.34-.16-.41.27,0,.43.18S70.4,44.44,70.33,44.5Zm.32-1.64c-.36,0-.65,0-.66-.12s.27-.2.63-.23.65,0,.66.13S71,42.84,70.65,42.86ZM72,45s0,0,0,0l0,0h0s0,0,0,0,0,0,0,0a0,0,0,0,1,0,0l0,0s0,0-.06,0L71.77,45a1.93,1.93,0,0,1-.22-.39c-.13-.32-.17-.61-.08-.65s.27.19.41.52a1.77,1.77,0,0,1,.12.43s0,.06,0,.08A0,0,0,0,1,72,45Z"/><path class="cls-24" d="M73.72,54.28C72.6,55.9,70.36,55.4,69.36,54a2.26,2.26,0,0,1-1.62,1.37c-1,.25-1.75-1.12-2.12-.87-1.12.5-3,.87-3.61-.37a2.68,2.68,0,0,1-1.38,1.24,1.87,1.87,0,0,1-2.24-1.12,2.43,2.43,0,0,1-3,1.62c-.63-.12-1-.75-1.37-1.37-.88.62-1.38,1.5-2.5,1.12a2.19,2.19,0,0,1-.67-.39.49.49,0,0,0,0,.17,2,2,0,0,0,.49,1.24,2,2,0,0,0,1.16.66,2.09,2.09,0,0,0,1.13-.1,2.68,2.68,0,0,0,.71-.39c.16-.12.26-.19.3-.17s.28.11.59.29a2.46,2.46,0,0,0,2.56,0c.31-.18.5-.34.59-.29s.28.11.59.29a2.46,2.46,0,0,0,2.56,0c.31-.18.5-.34.59-.29s.28.11.59.29a2.46,2.46,0,0,0,2.56,0c.31-.18.5-.34.59-.29s.28.11.59.29A2.46,2.46,0,0,0,69,57c.31-.18.51-.34.59-.29s.28.11.59.29a2.46,2.46,0,0,0,2.56,0c.31-.18.51-.34.59-.29s.14,0,.3.17a2.68,2.68,0,0,0,.71.39,2.09,2.09,0,0,0,1.13.1,2,2,0,0,0,1.16-.66,2,2,0,0,0,.49-1.24,1.88,1.88,0,0,0-.06-.59A2.24,2.24,0,0,1,73.72,54.28Z"/><path class="cls-25" d="M76.24,52.51a15.81,15.81,0,0,0,0-2.38,13,13,0,0,0-.68-3.44,12.88,12.88,0,0,0-1.13-2.43,3.44,3.44,0,0,0-.57.64c0,.12.09.23.13.33s.06.16.08.24l.06.21c0,.13.06.24.08.33s0,.28,0,.29-.1-.06-.19-.22a2.24,2.24,0,0,1-.17-.29l-.1-.18-.13-.21,0-.06a2.07,2.07,0,0,0-.15.34c-.63,1.37.12,3.49-1.38,4.49-.62-1.37.38-3-.74-4-.5-.38-1,.25-1.13.74-.25,1.88,0,4.24-1.74,5-1.25.5-1-2.12-1.75-1.74-1.12.5.63,3-.5,3-2.86.37-.62-4.24-2-6-.5-.49-.87,1.13-1.25,1.13-1-.25.13-1.87-.87-2.62-.62-.38-1.37.25-1.5.87-.25,3,2,6.48-.25,8.85-.12.13-1.24-.5-1.37-1.37-.37-2,1-4.24-.5-5.61-.49-.37-.49,1.12-1,1.62a.73.73,0,0,1-1-.12c-1.25-1.37-.25-3.74-2.37-4.74l0,0,0,.07-.13.2-.1.19c-.07.11-.12.21-.17.28s-.17.23-.21.22,0-.11,0-.29a3.4,3.4,0,0,1,.09-.33l.06-.21.09-.23.06-.15a1.41,1.41,0,0,1-.28-.56,12.22,12.22,0,0,0-1.08,2.34,13,13,0,0,0-.68,3.44,15.81,15.81,0,0,0,0,2.38c.06.57.09.88,0,.9s-.06.13-.2.27a2.94,2.94,0,0,0-.49.65,2.16,2.16,0,0,0-.25.93,2.19,2.19,0,0,0,.67.39c1.12.38,1.62-.5,2.5-1.12.37.62.74,1.25,1.37,1.37a2.43,2.43,0,0,0,3-1.62,1.87,1.87,0,0,0,2.24,1.12A2.68,2.68,0,0,0,62,54.16c.62,1.24,2.49.87,3.61.37.37-.25,1.12,1.12,2.12.87A2.26,2.26,0,0,0,69.36,54c1,1.37,3.24,1.87,4.36.25a2.24,2.24,0,0,0,3.36.56,1.93,1.93,0,0,0-.19-.51,2.94,2.94,0,0,0-.49-.65c-.14-.14-.23-.23-.2-.27S76.18,53.08,76.24,52.51Z"/><path class="cls-26" d="M77.3,54.06a1.8,1.8,0,0,0-.75-.6.54.54,0,0,0-.33-.07,3.2,3.2,0,0,0,.29-.83,10.48,10.48,0,0,0,.26-2.45,12,12,0,0,0-.55-3.62,12.25,12.25,0,0,0-2.11-4,12.61,12.61,0,0,0-3.38-3A11.94,11.94,0,0,0,69,38.68c-.29-.11-.57-.22-.84-.3l-.4-.12-.39-.1a10.08,10.08,0,0,0-2.44-.29,5.58,5.58,0,0,0-.67,0c-.15,0-.23,0-.23.07s.08.05.23.07l.65.1a15.32,15.32,0,0,1,2.33.5l.37.12.37.13c.26.09.52.21.79.32a14.08,14.08,0,0,1,1.65.89A12.57,12.57,0,0,1,73.56,43a15.43,15.43,0,0,1,.91,1.31,12.88,12.88,0,0,1,1.13,2.43,13,13,0,0,1,.68,3.44,15.81,15.81,0,0,1,0,2.38c-.06.57-.09.88,0,.9s.06.13.2.27a2.94,2.94,0,0,1,.49.65,1.93,1.93,0,0,1,.19.51,1.88,1.88,0,0,1,.06.59,2,2,0,0,1-.49,1.24,2,2,0,0,1-1.16.66,2.09,2.09,0,0,1-1.13-.1,2.68,2.68,0,0,1-.71-.39c-.16-.12-.26-.19-.3-.17s-.28.11-.59.29a2.46,2.46,0,0,1-2.56,0c-.31-.18-.5-.34-.59-.29s-.28.11-.59.29a2.46,2.46,0,0,1-2.56,0c-.31-.18-.5-.34-.59-.29s-.28.11-.59.29a2.46,2.46,0,0,1-2.56,0c-.31-.18-.5-.34-.59-.29s-.28.11-.59.29A2.46,2.46,0,0,1,59,57c-.31-.18-.51-.34-.59-.29s-.28.11-.59.29a2.46,2.46,0,0,1-2.56,0c-.31-.18-.51-.34-.59-.29s-.14,0-.3.17a2.68,2.68,0,0,1-.71.39,2.09,2.09,0,0,1-1.13.1,2,2,0,0,1-1.16-.66,2,2,0,0,1-.49-1.24.49.49,0,0,1,0-.17,2.16,2.16,0,0,1,.25-.93,2.94,2.94,0,0,1,.49-.65c.14-.14.23-.23.2-.27s0-.33,0-.9a15.81,15.81,0,0,1,0-2.38,13,13,0,0,1,.68-3.44,12.22,12.22,0,0,1,1.08-2.34,13.92,13.92,0,0,1,1-1.4,12.57,12.57,0,0,1,3.17-2.85,14.08,14.08,0,0,1,1.65-.89c.27-.11.53-.23.79-.32l.37-.13.37-.12a15.32,15.32,0,0,1,2.33-.5l.65-.1c.15,0,.23,0,.23-.07s-.08,0-.23-.07a5.58,5.58,0,0,0-.67,0,10.08,10.08,0,0,0-2.44.29l-.39.1-.4.12c-.27.08-.55.19-.84.3a11.94,11.94,0,0,0-1.76.87,12.61,12.61,0,0,0-3.38,3,12.25,12.25,0,0,0-2.11,4,12,12,0,0,0-.55,3.62,10.48,10.48,0,0,0,.26,2.45,3.2,3.2,0,0,0,.29.83.54.54,0,0,0-.33.07,1.8,1.8,0,0,0-.75.6,2.26,2.26,0,0,0-.49,1.37,2.51,2.51,0,0,0,.13.88,2.36,2.36,0,0,0,.48.82,2.45,2.45,0,0,0,1.6.84l.21,0,.87,1.63c1.45,4.45,2.81,8.6,4,12.33s2.31,7,3.22,9.71,1.64,4.9,2.14,6.39c.12.37.23.71.34,1a4.44,4.44,0,0,0,.34.69,1,1,0,0,0,.33.35c.1.06.17,0,.16,0a.27.27,0,0,1-.12-.08,1,1,0,0,1-.26-.36.16.16,0,0,1,0-.07,6.06,6.06,0,0,1-.25-.62h0c-.06-.19-.12-.4-.18-.64s-.07-.23-.1-.35c-.08-.28-.16-.57-.26-.89,0-.11-.06-.22-.1-.34l-.2-.68c-.2-.66-.42-1.39-.67-2.19-.06-.22-.13-.44-.2-.67L61.61,83c-.12-.41-.26-.83-.39-1.27l-.06-.2c0-.16-.11-.33-.16-.5l-.21-.67c-.21-.7-.44-1.42-.68-2.18l-.59-1.89-.3-1L59,74.67c-.23-.71-.45-1.43-.69-2.18-.08-.24-.15-.48-.23-.72l-.3-1-.37-1.16L57.2,69l-.69-2.17L56,65.32,55.6,64l-.21-.67-.69-2.17-.4-1.24H73.82l-.39,1.24-.7,2.17-.21.67-.42,1.33-.49,1.5L70.92,69l-.21.67-.37,1.16-.31,1c-.07.24-.15.48-.23.72-.23.75-.46,1.47-.68,2.18l-.21.67-.3,1q-.31,1-.6,1.89l-.68,2.18-.21.67-.15.5-.06.2L66.51,83l-.06.22-.21.67c-.24.8-.47,1.53-.67,2.19-.07.24-.13.47-.2.68s-.07.23-.1.34c-.09.32-.18.61-.25.89,0,.12-.07.24-.1.35s-.13.45-.19.64h0a4.39,4.39,0,0,1-.25.62l0,.07a1.19,1.19,0,0,1-.26.36.33.33,0,0,1-.13.08s.07,0,.16,0a.93.93,0,0,0,.33-.35,4.39,4.39,0,0,0,.35-.69c.11-.29.21-.63.34-1l2.14-6.39L70.59,72l4-12.33L75.5,58h.08a2.45,2.45,0,0,0,1.6-.84,2.36,2.36,0,0,0,.48-.82,2.51,2.51,0,0,0,.13-.88A2.26,2.26,0,0,0,77.3,54.06Zm-3.21,5.2-4.73,0H58.76l-4.73,0-.74-1.35a2.62,2.62,0,0,0,.56-.23,2,2,0,0,0,.7-.66.79.79,0,0,0,.08-.16s0,0,0,0a1.26,1.26,0,0,0,.28.44,1.93,1.93,0,0,0,.64.47,2.2,2.2,0,0,0,1.92,0,2,2,0,0,0,.64-.47,1.34,1.34,0,0,0,.27-.43,1.34,1.34,0,0,0,.27.43,2,2,0,0,0,.64.47,2.2,2.2,0,0,0,1.92,0,2,2,0,0,0,.64-.47,1.34,1.34,0,0,0,.27-.43,1.34,1.34,0,0,0,.27.43,2,2,0,0,0,.64.47,2.2,2.2,0,0,0,1.92,0,2,2,0,0,0,.64-.47,1.34,1.34,0,0,0,.27-.43,1.34,1.34,0,0,0,.27.43,2,2,0,0,0,.64.47,2.2,2.2,0,0,0,1.92,0,2,2,0,0,0,.64-.47,1.34,1.34,0,0,0,.27-.43,1.34,1.34,0,0,0,.27.43,2,2,0,0,0,.64.47,2.2,2.2,0,0,0,1.92,0,1.93,1.93,0,0,0,.64-.47,1.26,1.26,0,0,0,.28-.44s0,0,0,0a.79.79,0,0,0,.08.16,2,2,0,0,0,.7.66,2.29,2.29,0,0,0,.67.26Z"/><path class="cls-27" d="M58.94,42.45c.51-.05.91-.18.9-.28s-.43-.12-.94-.07-.9.15-.9.25S58.43,42.5,58.94,42.45Z"/><path class="cls-28" d="M61.7,41.92c.08-.06,0-.32-.15-.61s-.33-.49-.42-.45-.05.32.11.62S61.61,42,61.7,41.92Z"/><path class="cls-29" d="M63.5,42.41c-.34.12-.58.29-.55.38s.34.07.67,0,.57-.29.54-.38S63.83,42.29,63.5,42.41Z"/><path class="cls-21" d="M64.22,40.4c-.08.06,0,.28.15.49s.35.33.43.27,0-.28-.15-.49S64.3,40.34,64.22,40.4Z"/><path class="cls-28" d="M66.81,40.3c-.09,0-.06.31.1.59s.38.44.45.39,0-.3-.14-.56S66.9,40.26,66.81,40.3Z"/><path class="cls-27" d="M65.45,43.9c.23-.08.42-.18.41-.28s-.26-.15-.53,0a.76.76,0,0,0-.18.09.45.45,0,0,0-.13.11.23.23,0,0,0-.07.14A.1.1,0,0,0,65,44s0,0,.07,0h.08l.14,0Z"/><path class="cls-28" d="M58.36,44.16c-.1,0-.11.28,0,.56s.21.48.31.46.1-.27,0-.56S58.45,44.13,58.36,44.16Z"/><path class="cls-27" d="M59.13,46.69c-.17.25-.24.5-.16.56s.28-.11.45-.37.25-.5.17-.55S59.3,46.43,59.13,46.69Z"/><path class="cls-28" d="M67.81,44.54c0-.23-.14-.39-.24-.37s-.14.21-.11.43.14.38.24.37S67.85,44.77,67.81,44.54Z"/><path class="cls-21" d="M69.77,43.88c-.06.07,0,.25.16.41s.32.27.4.21,0-.26-.13-.44S69.84,43.81,69.77,43.88Z"/><path class="cls-29" d="M70.62,42.51c-.36,0-.64.13-.63.23s.3.15.66.12.63-.12.63-.22S71,42.49,70.62,42.51Z"/><path class="cls-30" d="M56.64,43.75c.07-.07-.07-.32-.31-.55a1.1,1.1,0,0,0-.48-.33l-.1.1a1.32,1.32,0,0,0,.33.48C56.32,43.69,56.58,43.83,56.64,43.75Z"/><path class="cls-30" d="M65.91,46.76a.94.94,0,0,0-.25.4c0,.12,0,.2,0,.22s.11,0,.19-.09l.29-.27c.22-.21.4-.42.34-.51S66.18,46.52,65.91,46.76Z"/><path class="cls-29" d="M68.06,43.13c.09,0,.09-.25,0-.49s-.23-.42-.32-.38-.1.25,0,.49S68,43.17,68.06,43.13Z"/><path class="cls-21" d="M63.5,44.85c-.09,0-.2.25-.14.57s.24.52.32.47.07-.27,0-.53S63.6,44.87,63.5,44.85Z"/><path class="cls-30" d="M61.7,43.53c-.1,0-.23.16-.37.38s-.25.41-.18.49.1,0,.2,0a.83.83,0,0,0,.28-.28.75.75,0,0,0,.13-.38C61.77,43.61,61.74,43.54,61.7,43.53Z"/><path class="cls-21" d="M59.84,43.27c-.26.07-.46.19-.44.29s.26.12.53,0,.47-.23.44-.32S60.1,43.2,59.84,43.27Z"/><path class="cls-21" d="M57.2,45.29c-.1,0-.19.19-.26.42s-.1.45,0,.5.27-.11.36-.39S57.3,45.29,57.2,45.29Z"/><path class="cls-29" d="M68.53,46.13a1.08,1.08,0,0,0-.34,0,1.62,1.62,0,0,0-.26.12c-.06,0-.11.06-.12.11s0,.1.13.13a.68.68,0,0,0,.37,0,1.1,1.1,0,0,0,.27-.14c.06-.05.11-.1.11-.14S68.62,46.15,68.53,46.13Z"/><path class="cls-21" d="M65.9,45.38c.06-.08,0-.24-.19-.37s-.35-.16-.41-.08,0,.24.2.36S65.84,45.46,65.9,45.38Z"/><path class="cls-27" d="M62.85,39.49l-.52.06h.07A1.09,1.09,0,0,0,62.85,39.49Z"/><path class="cls-30" d="M69.24,41.15c.24.2.51.23.55.14a.17.17,0,0,0,0-.07l0,0c-.16-.1-.31-.21-.47-.3L69,40.73A.65.65,0,0,0,69.24,41.15Z"/><path class="cls-29" d="M59.55,40.31l-.33.15.18-.07Z"/><path class="cls-28" d="M71.88,44.45c-.14-.33-.32-.56-.41-.52s0,.33.08.65a1.93,1.93,0,0,0,.22.39l.11.11s0,0,.06,0l0,0a0,0,0,0,0,0,0s0,0,0,0,0,0,0,0h0l0,0s0,0,0,0a0,0,0,0,0,0,0s0-.05,0-.08A1.77,1.77,0,0,0,71.88,44.45Z"/><path class="cls-21" d="M68,40.44s.12,0,.21-.08l-.24-.11C67.92,40.34,67.93,40.41,68,40.44Z"/><path class="cls-30" d="M65.89,39.67h0l-.62-.11a.07.07,0,0,0,0,.06C65.33,39.7,65.59,39.73,65.89,39.67Z"/><path class="cls-31" d="M53.61,45.29l-.06.21a3.4,3.4,0,0,0-.09.33c0,.18,0,.28,0,.29s.11-.07.21-.22.1-.17.17-.28l.1-.19.13-.2,0-.07.24-.4c.12-.17.25-.35.38-.55a12.46,12.46,0,0,1,1-1.23h0l.1-.1a11.44,11.44,0,0,1,3.21-2.34l.16-.07.33-.15a12.1,12.1,0,0,1,1.79-.58c.32-.08.65-.13,1-.18l.52-.06c.35,0,.71,0,1.06,0a10.88,10.88,0,0,1,1.41.1l.62.11a5.23,5.23,0,0,1,.54.12l.61.16.57.21.28.1.24.11h0l.27.12.13.06.13.07.2.11.31.16c.16.09.31.2.47.3l0,0a2.8,2.8,0,0,1,.4.27l.43.31.39.33.19.16.09.08.09.09.33.33.17.16.14.17a7.92,7.92,0,0,1,.55.65,7.21,7.21,0,0,1,.45.6l.37.55.25.42,0,.06.13.21.1.18a2.24,2.24,0,0,0,.17.29c.09.16.16.23.19.22s0-.11,0-.29,0-.2-.08-.33l-.06-.21c0-.08,0-.15-.08-.24s-.09-.21-.13-.33l-.09-.21c-.08-.19-.19-.4-.31-.62a7.75,7.75,0,0,0-.41-.69,7.67,7.67,0,0,0-.52-.73l-.14-.19c-.05-.06-.11-.12-.16-.19l-.34-.38-.09-.09-.09-.1-.2-.18c-.13-.12-.25-.26-.4-.38l-.44-.36c-.14-.12-.31-.23-.47-.35l-.51-.34-.54-.31-.13-.08-.15-.07-.29-.14a5.42,5.42,0,0,0-.6-.26L67.4,39l-.66-.19a11.77,11.77,0,0,0-2.82-.39,11.12,11.12,0,0,0-5.29,1.27A10.92,10.92,0,0,0,55.2,42.5a10.68,10.68,0,0,0-1,1.4l-.32.62-.16.39-.06.15Z"/></g></g></svg>