<svg xmlns="http://www.w3.org/2000/svg" xmlns:xlink="http://www.w3.org/1999/xlink" viewBox="0 0 250 128"><defs><style>.cls-1,.cls-2{fill:none;}.cls-1{clip-rule:evenodd;}.cls-3{isolation:isolate;}.cls-4{clip-path:url(#clip-path);}.cls-5{clip-path:url(#clip-path-2);}.cls-6{fill:url(#linear-gradient);}.cls-7{opacity:0.52;fill:url(#linear-gradient-2);}.cls-20,.cls-7{mix-blend-mode:screen;}.cls-8{fill:#af602b;}.cls-12,.cls-18,.cls-19,.cls-9{opacity:0.5;}.cls-10{clip-path:url(#clip-path-3);}.cls-11,.cls-12,.cls-13,.cls-14,.cls-15,.cls-16,.cls-17,.cls-18,.cls-19,.cls-20{fill-rule:evenodd;}.cls-11{fill:url(#Áåçûìÿííûé_ãðàäèåíò_97);}.cls-12,.cls-13,.cls-14,.cls-15,.cls-18,.cls-19{mix-blend-mode:multiply;}.cls-12{fill:url(#Áåçûìÿííûé_ãðàäèåíò_36);}.cls-13,.cls-14,.cls-15{opacity:0.3;}.cls-13{fill:url(#Áåçûìÿííûé_ãðàäèåíò_36-2);}.cls-14{fill:url(#Áåçûìÿííûé_ãðàäèåíò_36-3);}.cls-15{fill:url(#Áåçûìÿííûé_ãðàäèåíò_36-4);}.cls-16{fill:url(#Áåçûìÿííûé_ãðàäèåíò_48);}.cls-17{fill:url(#Áåçûìÿííûé_ãðàäèåíò_83);}.cls-18{fill:url(#Áåçûìÿííûé_ãðàäèåíò_66);}.cls-19{fill:url(#Áåçûìÿííûé_ãðàäèåíò_66-2);}.cls-20{fill:url(#Áåçûìÿííûé_ãðàäèåíò_93);}.cls-21{clip-path:url(#clip-path-4);}.cls-22{clip-path:url(#clip-path-5);}.cls-23{fill:#c66446;}.cls-24{fill:#f6a1a6;}.cls-25{fill:#4e2010;stroke:#efaf30;stroke-miterlimit:10;stroke-width:2px;}</style><clipPath id="clip-path"><polygon class="cls-1" points="-253.49 -454.27 80.37 -454.27 80.37 -88.03 -253.49 -88.03 -253.49 -454.27 -253.49 -454.27"/></clipPath><clipPath id="clip-path-2"><rect class="cls-2" x="-473.22" y="-459.03" width="778.44" height="437.87"/></clipPath><linearGradient id="linear-gradient" x1="-82.71" y1="-507.8" x2="-82.71" y2="46.05" gradientUnits="userSpaceOnUse"><stop offset="0.01" stop-color="#7e1411"/><stop offset="1" stop-color="#6f002d"/></linearGradient><linearGradient id="linear-gradient-2" x1="667.66" y1="-592.44" x2="888.53" y2="-797.48" gradientTransform="matrix(2.38, -0.48, 0.36, 1.78, -1159.6, 1309.07)" gradientUnits="userSpaceOnUse"><stop offset="0" stop-color="#b8b7b7" stop-opacity="0"/><stop offset="0.08" stop-color="#c2c1c1" stop-opacity="0.14"/><stop offset="0.22" stop-color="#d2d1d1" stop-opacity="0.37"/><stop offset="0.36" stop-color="#e0dfdf" stop-opacity="0.56"/><stop offset="0.5" stop-color="#ebebeb" stop-opacity="0.72"/><stop offset="0.63" stop-color="#f4f4f4" stop-opacity="0.84"/><stop offset="0.77" stop-color="#fafafa" stop-opacity="0.93"/><stop offset="0.89" stop-color="#fefefe" stop-opacity="0.98"/><stop offset="1" stop-color="#fff"/></linearGradient><clipPath id="clip-path-3"><rect class="cls-2" x="-473.22" y="-163.19" width="778.44" height="152.04"/></clipPath><linearGradient id="Áåçûìÿííûé_ãðàäèåíò_97" x1="-530.96" y1="-4.35" x2="350.33" y2="-4.35" gradientUnits="userSpaceOnUse"><stop offset="0" stop-color="#65028e"/><stop offset="1" stop-color="#9f2b84"/></linearGradient><linearGradient id="Áåçûìÿííûé_ãðàäèåíò_36" x1="-76.09" y1="93.98" x2="-76.09" y2="-80.6" gradientUnits="userSpaceOnUse"><stop offset="0" stop-color="#770064"/><stop offset="1" stop-color="#ba74ae"/></linearGradient><linearGradient id="Áåçûìÿííûé_ãðàäèåíò_36-2" x1="97" y1="110.61" x2="97" y2="-57.41" xlink:href="#Áåçûìÿííûé_ãðàäèåíò_36"/><linearGradient id="Áåçûìÿííûé_ãðàäèåíò_36-3" x1="246.68" y1="105.97" x2="246.68" y2="-56.46" xlink:href="#Áåçûìÿííûé_ãðàäèåíò_36"/><linearGradient id="Áåçûìÿííûé_ãðàäèåíò_36-4" x1="107.26" y1="108.96" x2="107.26" y2="-25.82" xlink:href="#Áåçûìÿííûé_ãðàäèåíò_36"/><linearGradient id="Áåçûìÿííûé_ãðàäèåíò_48" x1="-84" y1="105.97" x2="-84" y2="-124.39" gradientUnits="userSpaceOnUse"><stop offset="0.01" stop-color="#9c0244"/><stop offset="1" stop-color="#ff023e"/></linearGradient><linearGradient id="Áåçûìÿííûé_ãðàäèåíò_83" x1="-525.17" y1="30.21" x2="348.53" y2="30.21" gradientUnits="userSpaceOnUse"><stop offset="0" stop-color="#fc6b42"/><stop offset="0.89" stop-color="#ffe036"/><stop offset="0.97" stop-color="#ffa136"/></linearGradient><linearGradient id="Áåçûìÿííûé_ãðàäèåíò_66" x1="89.53" y1="8.13" x2="89.53" y2="-83.63" gradientUnits="userSpaceOnUse"><stop offset="0" stop-color="#890050"/><stop offset="1" stop-color="#db6d57"/></linearGradient><linearGradient id="Áåçûìÿííûé_ãðàäèåíò_66-2" x1="181.32" y1="59.98" x2="181.32" y2="-109.9" xlink:href="#Áåçûìÿííûé_ãðàäèåíò_66"/><linearGradient id="Áåçûìÿííûé_ãðàäèåíò_93" x1="67.49" y1="10.39" x2="67.49" y2="-123.33" gradientUnits="userSpaceOnUse"><stop offset="0" stop-color="#6d2452"/><stop offset="1"/></linearGradient><clipPath id="clip-path-4"><polygon class="cls-1" points="186.43 -454.27 521.43 -454.27 521.43 -88.03 186.43 -88.03 186.43 -454.27 186.43 -454.27"/></clipPath><clipPath id="clip-path-5"><rect class="cls-2" x="-116" y="-579.12" width="940" height="528.75"/></clipPath></defs><g class="cls-3"><g id="Layer_1" data-name="Layer 1"><g class="cls-4"><g class="cls-5"><rect class="cls-6" x="-570.08" y="-507.8" width="974.75" height="553.85"/><rect class="cls-2" x="-569.23" y="-501.66" width="973.53" height="547.34"/><polygon class="cls-7" points="648.71 -565.08 278.63 55.41 -27.93 6.48 606.95 -575.79 648.71 -565.08"/><rect class="cls-2" x="-570.53" y="-503.76" width="973.06" height="547.34"/><rect class="cls-8" x="75.58" y="-189.94" width="333.06" height="235.49"/><g class="cls-9"><rect x="-570.53" y="-503.76" width="973.06" height="547.34"/></g></g><g class="cls-10"><path class="cls-11" d="M348.53,112.35A191.11,191.11,0,0,1,309,107.59h0c-14.51-3.19-25.71-6.6-47.91-5.49-20.13,1-27,2.39-34.32,3.87a209,209,0,0,1-28.82,3.9c-16.76,1.34-38.29.71-58.24-.22h-.06c-20.63-1-39.55-2.2-49.84-1.88-10,.3-20.9,1.67-34.85,2.84h-.09A477.85,477.85,0,0,1-.38,112.13c-45.52-1.27-48.3-6.1-54.27-7a93.84,93.84,0,0,0-11-.82h-.06c-5.64-.18-12.23-.08-18.41.36a51.45,51.45,0,0,0-14,3,91,91,0,0,1-11.53,3.31c-10.67,2.2-35.42.21-38.81-.86s-3.43-5.22-8-6.26-34.67-1.26-43.78.2c-5.91,1-13.24,3-23.55,4.81a190.87,190.87,0,0,1-19.57,2.32c-21.52,1.47-55.84,1.26-64.95,0-5.82-.8-7.68-2.63-9.31-4a6.64,6.64,0,0,0-3.22-1.81c-4-.84-40.94-1.68-56.88-.43s-17.05,3.78-44.37,5.05c-23.11,1.08-58.08-.19-68.22-.6l-.65,0-.65,0-1.57-.07L-531-118.7c14-2.52,872.27-4.29,879.49,1.67C352.58-113.71,348.53,112.35,348.53,112.35Z"/><path class="cls-12" d="M-496.88,87s65.25-22,83.18-23.38,29.87,3.31,55.26,0,24.19-27.06,24.19-27.06,95-29.29,128-30.71c0,0,15.85,11.8,31.53,13.18S-152.33,2-152.33,2a167.21,167.21,0,0,1,57.9-3s4,8.25,30.55,5.21C-63.88,4.19-49-.5-23.06,2S55.72,19.61,55.72,19.61s32.18,7.64,46,7,12.55-4.46,12.55-4.46S168.05,36.4,186,44.38s40,27.81,40,27.81S257.66,95,276.33,93.94,309,77.14,309,77.14L346.66,26.6l-403-107.2-294.3,23.19L-498.84-1Z"/><path class="cls-13" d="M139.65,109.65h-.06c-20.63-1-39.55-2.2-49.84-1.88-10,.3-20.9,1.67-34.85,2.84h-.09S50-40.84,71.66-56.46,139.65,109.65,139.65,109.65Z"/><path class="cls-14" d="M266.64,101.9c-1.8,0-3.66.1-5.61.2-20.13,1-27,2.39-34.32,3.87,0,0,12.9-107,20-162.43C246.71-56.55,253.16,59.2,266.64,101.9Z"/><path class="cls-15" d="M89.75,107.77s15.63-15.89,14.82-43.84c-1.07-37-19.25-89.74-14.83-89.75C107.8,14.8,125.48,109,125.48,109S103.08,106.42,89.75,107.77Z"/><path class="cls-16" d="M365.2-4.34,350.33,9.81s-1.8,19.7-13.51,26.79c0,0-25.39,38.34-57.49,47.7,0,0-20.87-1.54-92.91-45.52,0,0-1.57-.5-4.32-1.32-8.81-2.66-29.62-8.81-48.42-13.36,0,0-21.87-9.3-32-16-4.47-3-11-1.55-24.33-.08A286.78,286.78,0,0,1,46.68,9.81C16.65,10-4.75,1.84-20.12-1a51.86,51.86,0,0,0-8.25-1c-5.06-.13-8.78,0-12.21.2a173.39,173.39,0,0,1-27.28.27c-14.67-.91-22.91-4.77-35.89-7.3A123,123,0,0,0-124.15-11c-12.89-.41-17.56.52-19.54,1.87-2.3,1.51-1.21,3.57-4.81,4.84s-18.86,2.11-34.62,2.82C-197.81-.87-212.83-.33-218.8.19c-8.63.78-18.95,5.36-30.86,9.63a163.27,163.27,0,0,1-16.17,5c-19.07,4.67-71.71,14-108.66,11.8A270.16,270.16,0,0,1-404,51.68s-23.14,9.91-63.46,16.1a189.22,189.22,0,0,0-29.42,14.08c-10.7,6.39-21.43,14.65-26.6,24.11,0,0-.68-9.1-1.69-23.65h0c-2.89-41.49-8.39-127.23-8.33-172.26v-1.6c0-6.92.21-12.81.56-17.34.06-.57.09-1.1.15-1.63.41-4.39,1-7.24,1.83-8.18,8.6-9.67,801.56-5.58,879.49,1.67,0,0,.23,1.15.62,3.23.12.52.23,1.09.35,1.73.45,2.28,1,5.29,1.69,8.83.12.55.2,1.1.32,1.68,4.38,23.11,12.18,66.18,13.72,87C365.58-9.85,365.61-6.26,365.2-4.34Z"/><path class="cls-17" d="M348.2,4.82l.33,1.44s-14.79,42.94-67,56.42c0,0-57.17-7.79-98-37.48,0,0-18.51.32-43.87-5.73S105-1,92.24-1.73,71,3.39,29.51,1-21.63-8.34-29.11-8.89-63.46-5.27-77.26-7.15-132.16-22-139.64-21.69s-8.21,8.53-19.77,11.42S-225.51-7-233.73-5.73s-13.8,11.29-65,16.79-85.88,4.48-93.71,7.78-4.49,25-41.47,32.42-46.47,7.85-52.65,9.91-35.59,18.08-38.52,23c0-.61-.09-1.22-.12-1.85h0c2.25-4.68,32.49-21.13,38.64-23.2s15.7-2.47,52.65-9.91,32.48-31.1,40.34-34.4,43.7-.28,94.84-5.8,56.75-15.55,65-16.79,62.73-1.64,74.32-4.54,12.32-11.15,19.77-11.42S-91.1-11.09-77.26-9.21s40.67-2.29,48.15-1.74S-11.93-3.38,29.51-1s50-3.49,62.73-2.77,22.05,15.14,47.41,21.2,43.87,5.73,43.87,5.73c43.81,30.21,98.7,35.58,98.7,35.58C325.2,45.68,345.45,10.1,348.2,4.82Z"/><path class="cls-18" d="M101.7,8.13c-4.47-3-11-1.55-24.33-.08,0,0,15-89.83,19.63-91.65S101.7,8.13,101.7,8.13Z"/><path class="cls-19" d="M223,60,196.8-109.9S169,11.41,139.65,25.58l46.77,13.2Z"/><path class="cls-20" d="M38,9.62V-123.33l59,.59L77.37,8.05A133.15,133.15,0,0,1,38,9.62Z"/></g></g><g class="cls-21"><g class="cls-22"><path class="cls-23" d="M135.89,86.11c0,.24-.09.49-.13.74.21-.21.35-.45.26-.63s-.08-.11-.13-.11"/><polygon class="cls-24" points="765.22 44.84 -61.08 44.84 -61.78 -123.51 760.45 -126.43 765.22 44.84"/></g></g><rect class="cls-25" x="20" y="28.44" width="210" height="71.12" rx="18.48"/></g></g></svg>